G04 #@! TF.FileFunction,Copper,L2,Inr,Plane*
%FSLAX46Y46*%
G04 Gerber Fmt 4.6, Leading zero omitted, Abs format (unit mm)*
G04 Created by KiCad (PCBNEW 4.0.6) date Friday, April 06, 2018 'AMt' 10:50:20 AM*
%MOMM*%
%LPD*%
G01*
G04 APERTURE LIST*
%ADD10C,0.100000*%
%ADD11O,1.400000X1.400000*%
%ADD12R,1.700000X1.700000*%
%ADD13O,1.700000X1.700000*%
%ADD14C,0.600000*%
%ADD15C,0.203200*%
%ADD16C,0.177800*%
%ADD17C,0.381000*%
%ADD18C,0.200000*%
G04 APERTURE END LIST*
D10*
D11*
X124800000Y-119080000D03*
X131400000Y-119080000D03*
D12*
X121150000Y-94105000D03*
D13*
X121150000Y-91565000D03*
X121150000Y-89025000D03*
D12*
X151050000Y-71680000D03*
D13*
X151050000Y-74220000D03*
X151050000Y-76760000D03*
X151050000Y-79300000D03*
X151050000Y-81840000D03*
X151050000Y-84380000D03*
D12*
X116650000Y-71780000D03*
D13*
X116650000Y-74320000D03*
X116650000Y-76860000D03*
X116650000Y-79400000D03*
X116650000Y-81940000D03*
X116650000Y-84480000D03*
D12*
X119350000Y-71780000D03*
D13*
X119350000Y-74320000D03*
X119350000Y-76860000D03*
X119350000Y-79400000D03*
X119350000Y-81940000D03*
X119350000Y-84480000D03*
D12*
X148350000Y-71705000D03*
D13*
X148350000Y-74245000D03*
X148350000Y-76785000D03*
X148350000Y-79325000D03*
X148350000Y-81865000D03*
X148350000Y-84405000D03*
D14*
X141900000Y-108080000D03*
X131850000Y-71080000D03*
X137600000Y-48830000D03*
X139500000Y-108830000D03*
X126750000Y-103580000D03*
X129400000Y-113330000D03*
X119087000Y-65368000D03*
X119100000Y-66230000D03*
X119075000Y-64480000D03*
X147275000Y-92555000D03*
X125025000Y-88805000D03*
X132244600Y-75997000D03*
X134144600Y-75997000D03*
X134144600Y-74097000D03*
X132244600Y-74097000D03*
X137873700Y-79535400D03*
X148465467Y-66201130D03*
X148465466Y-64423131D03*
X148465467Y-65337530D03*
X118650000Y-100930000D03*
X118750000Y-97980000D03*
X130100000Y-91930000D03*
X140550000Y-68080000D03*
X134250000Y-116780000D03*
X139125000Y-92730000D03*
X137848300Y-78443200D03*
X122300000Y-107130000D03*
X122275000Y-103030000D03*
X147000000Y-108880000D03*
X149650000Y-91480000D03*
X149650000Y-90180000D03*
X130950000Y-69880000D03*
X128450000Y-71980000D03*
X130050000Y-79180000D03*
X116269200Y-67005000D03*
X147906666Y-63635731D03*
X151564266Y-63508731D03*
X119952200Y-67005000D03*
X121625000Y-59505000D03*
X132925000Y-60180000D03*
X128325000Y-53255000D03*
X128325000Y-65155000D03*
X145250000Y-66305000D03*
X137550000Y-66330000D03*
X137150000Y-73030000D03*
X122400000Y-65105000D03*
X136225000Y-64230000D03*
X135725000Y-71880000D03*
X133100000Y-112280000D03*
X128175000Y-69905000D03*
X122775000Y-69980000D03*
X121850000Y-112280000D03*
X146125000Y-51480000D03*
X135625000Y-51505000D03*
X125900000Y-74055000D03*
X125875000Y-64355000D03*
X125937500Y-91517500D03*
X140675000Y-118655000D03*
X121775000Y-115905000D03*
X126075000Y-92405000D03*
X123825000Y-115055000D03*
X141525000Y-117280000D03*
X133025000Y-103155000D03*
X137500000Y-112255000D03*
X142850000Y-114555000D03*
X134600000Y-96505000D03*
X133025000Y-80830000D03*
X133000000Y-84255000D03*
X121600000Y-80230000D03*
X120575000Y-78155000D03*
X131975000Y-80830000D03*
X130575000Y-88180000D03*
X122425000Y-80255000D03*
X120550000Y-75605000D03*
X142025000Y-114530000D03*
X138325000Y-112930000D03*
X135550000Y-96455000D03*
X130400000Y-98430000D03*
X133350000Y-117105000D03*
X139975000Y-117880000D03*
X133925000Y-80905000D03*
X120700000Y-80680000D03*
X136100000Y-80680000D03*
X133000000Y-85505000D03*
X144125000Y-82230000D03*
X131100000Y-85380000D03*
X127150000Y-92580000D03*
X127125000Y-77830000D03*
X138875000Y-76605000D03*
X128075000Y-92680000D03*
X127100000Y-76905000D03*
X138900000Y-75655000D03*
X137225000Y-80555000D03*
X144150000Y-81305000D03*
X133575000Y-89155000D03*
X141175000Y-100480000D03*
X142875000Y-74680000D03*
X137050000Y-74680000D03*
X122400000Y-75855000D03*
X140050000Y-100480000D03*
X142150000Y-74055000D03*
X137675000Y-74055000D03*
X121850000Y-75230000D03*
X124200000Y-68880000D03*
X131950000Y-68930000D03*
X124200000Y-104830000D03*
X136300000Y-105355000D03*
X124200000Y-79305000D03*
X123475000Y-70580000D03*
X132100000Y-69980000D03*
X123350000Y-106030000D03*
X137750000Y-105355000D03*
X123475000Y-82030000D03*
X129900000Y-53555000D03*
X129900000Y-72230000D03*
X140025000Y-54755000D03*
X135500000Y-54805000D03*
X129875000Y-52680000D03*
X129125000Y-73780000D03*
X133000000Y-91430000D03*
X133550000Y-94230000D03*
X135850000Y-92480000D03*
X138000000Y-98830000D03*
X130075000Y-85230000D03*
X141375000Y-93780000D03*
X128500000Y-103080000D03*
X137050000Y-102380000D03*
X137550000Y-94330000D03*
X141350000Y-96030000D03*
X139200000Y-89980000D03*
X139075000Y-97080000D03*
X138375000Y-90505000D03*
X132550000Y-89180000D03*
X141275000Y-89455000D03*
X141325000Y-90530000D03*
X141300000Y-91605000D03*
X136475000Y-94430000D03*
X136300000Y-101905000D03*
X127375000Y-102780000D03*
X133550000Y-93180000D03*
X146350000Y-100080000D03*
X135950000Y-107880000D03*
X126300000Y-115180000D03*
X141450000Y-110030000D03*
X129450000Y-108530000D03*
X138050000Y-119030000D03*
X138850000Y-119680000D03*
X133400000Y-119030000D03*
X116950000Y-97930000D03*
X133400000Y-109880000D03*
X123550000Y-110630000D03*
X124975000Y-91605000D03*
X137050000Y-116680000D03*
X138050000Y-116730000D03*
X139050000Y-116730000D03*
X133400000Y-111230000D03*
X125150000Y-108830000D03*
X139900000Y-70605000D03*
X138100000Y-83630000D03*
X130750000Y-67555000D03*
X136350000Y-68705000D03*
X138075000Y-84555000D03*
X140475000Y-87005000D03*
X149800000Y-87005000D03*
X143500000Y-80530000D03*
X143500000Y-85005000D03*
X146675000Y-71705000D03*
X147000000Y-86280000D03*
X145500000Y-88805000D03*
X145500000Y-76780000D03*
X144800000Y-88180000D03*
X144800000Y-79330000D03*
X146275000Y-74255000D03*
X146275000Y-87755000D03*
X144125000Y-83155000D03*
X144150000Y-85630000D03*
D15*
X128325000Y-65155000D02*
X128325000Y-53255000D01*
D16*
X137150000Y-66730000D02*
X137550000Y-66330000D01*
X137150000Y-73030000D02*
X137150000Y-66730000D01*
X135725000Y-64730000D02*
X136225000Y-64230000D01*
X135725000Y-71880000D02*
X135725000Y-64730000D01*
D15*
X122775000Y-71855000D02*
X122775000Y-69980000D01*
X123084498Y-72164498D02*
X122775000Y-71855000D01*
X123084498Y-81205000D02*
X123084498Y-72164498D01*
X122825000Y-81464498D02*
X123084498Y-81205000D01*
X122825000Y-98680000D02*
X122825000Y-81464498D01*
X121625000Y-99880000D02*
X122825000Y-98680000D01*
X121625000Y-112055000D02*
X121625000Y-99880000D01*
X121850000Y-112280000D02*
X121625000Y-112055000D01*
X124375000Y-107680000D02*
X125425000Y-106630000D01*
X121775000Y-115905000D02*
X124375000Y-113305000D01*
X124375000Y-113305000D02*
X124375000Y-107680000D01*
X125425000Y-92030000D02*
X125937500Y-91517500D01*
X125425000Y-106630000D02*
X125425000Y-92030000D01*
X126100000Y-112780000D02*
X126100000Y-92405000D01*
X123825000Y-115055000D02*
X126100000Y-112780000D01*
X134675000Y-105630000D02*
X134675000Y-96580000D01*
X134675000Y-96580000D02*
X134600000Y-96505000D01*
X134675000Y-105630000D02*
X137500000Y-108455000D01*
X137500000Y-108455000D02*
X137500000Y-112255000D01*
X121600000Y-79180000D02*
X121600000Y-80230000D01*
X120575000Y-78155000D02*
X121600000Y-79180000D01*
X130575000Y-87005000D02*
X130575000Y-88180000D01*
X131975000Y-85605000D02*
X130575000Y-87005000D01*
X131975000Y-80830000D02*
X131975000Y-85605000D01*
X122425000Y-77480000D02*
X122425000Y-80255000D01*
X120550000Y-75605000D02*
X122425000Y-77480000D01*
X138325000Y-112930000D02*
X138325000Y-108330000D01*
X138325000Y-108330000D02*
X135550000Y-105555000D01*
X135550000Y-105555000D02*
X135550000Y-96455000D01*
X130400000Y-114155000D02*
X130400000Y-98430000D01*
X133350000Y-117105000D02*
X130400000Y-114155000D01*
X127150000Y-92580000D02*
X127150000Y-77855000D01*
X127150000Y-77855000D02*
X127125000Y-77830000D01*
X128075000Y-92680000D02*
X128075000Y-82880000D01*
X128075000Y-82880000D02*
X128075000Y-77880000D01*
X128075000Y-77880000D02*
X127100000Y-76905000D01*
X137225000Y-80555000D02*
X137225000Y-85505000D01*
X137225000Y-85505000D02*
X133575000Y-89155000D01*
X141175000Y-100480000D02*
X142553202Y-99101798D01*
X142553202Y-75001798D02*
X142875000Y-74680000D01*
X142553202Y-99101798D02*
X142553202Y-75001798D01*
X140050000Y-100480000D02*
X142150000Y-98380000D01*
X142150000Y-98380000D02*
X142150000Y-74055000D01*
D16*
X124200000Y-68880000D02*
X124200000Y-79305000D01*
D15*
X124200000Y-104830000D02*
X124571798Y-104458202D01*
X124571798Y-104458202D02*
X124571798Y-92501798D01*
X124571798Y-92501798D02*
X124200000Y-92130000D01*
X124200000Y-92130000D02*
X124200000Y-79305000D01*
D16*
X123475000Y-70580000D02*
X123475000Y-82030000D01*
D15*
X123350000Y-106030000D02*
X123350000Y-101605000D01*
X123350000Y-101605000D02*
X122775000Y-101030000D01*
X122775000Y-101030000D02*
X122775000Y-99555000D01*
X122775000Y-99555000D02*
X123475000Y-98855000D01*
X123475000Y-98855000D02*
X123475000Y-82030000D01*
D16*
X129900000Y-53555000D02*
X129900000Y-72230000D01*
X129125000Y-53430000D02*
X129875000Y-52680000D01*
X129125000Y-73780000D02*
X129125000Y-53430000D01*
D17*
X133550000Y-94230000D02*
X132800000Y-93480000D01*
X132800000Y-91630000D02*
X133000000Y-91430000D01*
X132800000Y-93480000D02*
X132800000Y-91630000D01*
D15*
X137100000Y-102430000D02*
X137050000Y-102380000D01*
X137050000Y-102380000D02*
X137100000Y-102430000D01*
X137550000Y-94330000D02*
X137050000Y-94830000D01*
X137050000Y-94830000D02*
X137050000Y-102380000D01*
X140025000Y-94705000D02*
X141350000Y-96030000D01*
X140025000Y-90805000D02*
X140025000Y-94705000D01*
X139200000Y-89980000D02*
X140025000Y-90805000D01*
X138375000Y-96380000D02*
X139075000Y-97080000D01*
X138375000Y-90505000D02*
X138375000Y-96380000D01*
X136475000Y-101905000D02*
X136300000Y-101905000D01*
X136475000Y-94430000D02*
X136475000Y-101905000D01*
X123550000Y-110630000D02*
X123550000Y-107530000D01*
X123550000Y-107530000D02*
X124975000Y-106105000D01*
X124975000Y-106105000D02*
X124975000Y-91605000D01*
X139900000Y-81830000D02*
X139900000Y-70605000D01*
X138100000Y-83630000D02*
X139900000Y-81830000D01*
X149800000Y-87005000D02*
X149800000Y-83315000D01*
X148350000Y-81865000D02*
X149800000Y-83315000D01*
X143500000Y-85005000D02*
X143500000Y-80530000D01*
X147000000Y-72030000D02*
X146675000Y-71705000D01*
X147000000Y-86280000D02*
X147000000Y-72030000D01*
X145500000Y-88805000D02*
X145500000Y-76780000D01*
X144800000Y-88180000D02*
X144800000Y-79330000D01*
X146275000Y-87755000D02*
X146275000Y-74255000D01*
X144125000Y-83155000D02*
X144125000Y-83155000D01*
X144150000Y-85630000D02*
X144125000Y-83155000D01*
D18*
G36*
X152475000Y-92380000D02*
X147851893Y-92380000D01*
X147783952Y-92215571D01*
X147615317Y-92046641D01*
X147394871Y-91955104D01*
X147156176Y-91954896D01*
X146951067Y-92039645D01*
X142954802Y-88043380D01*
X142954802Y-85256707D01*
X142991048Y-85344429D01*
X143159683Y-85513359D01*
X143380129Y-85604896D01*
X143550021Y-85605044D01*
X143549896Y-85748824D01*
X143641048Y-85969429D01*
X143809683Y-86138359D01*
X144030129Y-86229896D01*
X144268824Y-86230104D01*
X144398400Y-86176564D01*
X144398400Y-87733110D01*
X144291641Y-87839683D01*
X144200104Y-88060129D01*
X144199896Y-88298824D01*
X144291048Y-88519429D01*
X144459683Y-88688359D01*
X144680129Y-88779896D01*
X144900021Y-88780088D01*
X144899896Y-88923824D01*
X144991048Y-89144429D01*
X145159683Y-89313359D01*
X145380129Y-89404896D01*
X145618824Y-89405104D01*
X145839429Y-89313952D01*
X146008359Y-89145317D01*
X146099896Y-88924871D01*
X146100104Y-88686176D01*
X146008952Y-88465571D01*
X145901600Y-88358031D01*
X145901600Y-88230218D01*
X145934683Y-88263359D01*
X146155129Y-88354896D01*
X146393824Y-88355104D01*
X146614429Y-88263952D01*
X146783359Y-88095317D01*
X146874896Y-87874871D01*
X146875104Y-87636176D01*
X146783952Y-87415571D01*
X146676600Y-87308031D01*
X146676600Y-86795384D01*
X146880129Y-86879896D01*
X147118824Y-86880104D01*
X147339429Y-86788952D01*
X147508359Y-86620317D01*
X147599896Y-86399871D01*
X147600104Y-86161176D01*
X147508952Y-85940571D01*
X147401600Y-85833031D01*
X147401600Y-85049510D01*
X147514297Y-85218173D01*
X147887384Y-85467461D01*
X148327470Y-85555000D01*
X148372530Y-85555000D01*
X148812616Y-85467461D01*
X149185703Y-85218173D01*
X149398400Y-84899848D01*
X149398400Y-86558110D01*
X149291641Y-86664683D01*
X149200104Y-86885129D01*
X149199896Y-87123824D01*
X149291048Y-87344429D01*
X149459683Y-87513359D01*
X149680129Y-87604896D01*
X149918824Y-87605104D01*
X150139429Y-87513952D01*
X150308359Y-87345317D01*
X150399896Y-87124871D01*
X150400104Y-86886176D01*
X150308952Y-86665571D01*
X150201600Y-86558031D01*
X150201600Y-85174171D01*
X150214297Y-85193173D01*
X150587384Y-85442461D01*
X151027470Y-85530000D01*
X151072530Y-85530000D01*
X151512616Y-85442461D01*
X151885703Y-85193173D01*
X152134991Y-84820086D01*
X152222530Y-84380000D01*
X152134991Y-83939914D01*
X151885703Y-83566827D01*
X151512616Y-83317539D01*
X151072530Y-83230000D01*
X151027470Y-83230000D01*
X150587384Y-83317539D01*
X150214297Y-83566827D01*
X150201600Y-83585829D01*
X150201600Y-83315000D01*
X150171030Y-83161314D01*
X150083974Y-83031026D01*
X149404166Y-82351218D01*
X149434991Y-82305086D01*
X149522530Y-81865000D01*
X149517558Y-81840000D01*
X149877470Y-81840000D01*
X149965009Y-82280086D01*
X150214297Y-82653173D01*
X150587384Y-82902461D01*
X151027470Y-82990000D01*
X151072530Y-82990000D01*
X151512616Y-82902461D01*
X151885703Y-82653173D01*
X152134991Y-82280086D01*
X152222530Y-81840000D01*
X152134991Y-81399914D01*
X151885703Y-81026827D01*
X151512616Y-80777539D01*
X151072530Y-80690000D01*
X151027470Y-80690000D01*
X150587384Y-80777539D01*
X150214297Y-81026827D01*
X149965009Y-81399914D01*
X149877470Y-81840000D01*
X149517558Y-81840000D01*
X149434991Y-81424914D01*
X149185703Y-81051827D01*
X148812616Y-80802539D01*
X148372530Y-80715000D01*
X148327470Y-80715000D01*
X147887384Y-80802539D01*
X147514297Y-81051827D01*
X147401600Y-81220490D01*
X147401600Y-79969510D01*
X147514297Y-80138173D01*
X147887384Y-80387461D01*
X148327470Y-80475000D01*
X148372530Y-80475000D01*
X148812616Y-80387461D01*
X149185703Y-80138173D01*
X149434991Y-79765086D01*
X149522530Y-79325000D01*
X149517558Y-79300000D01*
X149877470Y-79300000D01*
X149965009Y-79740086D01*
X150214297Y-80113173D01*
X150587384Y-80362461D01*
X151027470Y-80450000D01*
X151072530Y-80450000D01*
X151512616Y-80362461D01*
X151885703Y-80113173D01*
X152134991Y-79740086D01*
X152222530Y-79300000D01*
X152134991Y-78859914D01*
X151885703Y-78486827D01*
X151512616Y-78237539D01*
X151072530Y-78150000D01*
X151027470Y-78150000D01*
X150587384Y-78237539D01*
X150214297Y-78486827D01*
X149965009Y-78859914D01*
X149877470Y-79300000D01*
X149517558Y-79300000D01*
X149434991Y-78884914D01*
X149185703Y-78511827D01*
X148812616Y-78262539D01*
X148372530Y-78175000D01*
X148327470Y-78175000D01*
X147887384Y-78262539D01*
X147514297Y-78511827D01*
X147401600Y-78680490D01*
X147401600Y-77429510D01*
X147514297Y-77598173D01*
X147887384Y-77847461D01*
X148327470Y-77935000D01*
X148372530Y-77935000D01*
X148812616Y-77847461D01*
X149185703Y-77598173D01*
X149434991Y-77225086D01*
X149522530Y-76785000D01*
X149517558Y-76760000D01*
X149877470Y-76760000D01*
X149965009Y-77200086D01*
X150214297Y-77573173D01*
X150587384Y-77822461D01*
X151027470Y-77910000D01*
X151072530Y-77910000D01*
X151512616Y-77822461D01*
X151885703Y-77573173D01*
X152134991Y-77200086D01*
X152222530Y-76760000D01*
X152134991Y-76319914D01*
X151885703Y-75946827D01*
X151512616Y-75697539D01*
X151072530Y-75610000D01*
X151027470Y-75610000D01*
X150587384Y-75697539D01*
X150214297Y-75946827D01*
X149965009Y-76319914D01*
X149877470Y-76760000D01*
X149517558Y-76760000D01*
X149434991Y-76344914D01*
X149185703Y-75971827D01*
X148812616Y-75722539D01*
X148372530Y-75635000D01*
X148327470Y-75635000D01*
X147887384Y-75722539D01*
X147514297Y-75971827D01*
X147401600Y-76140490D01*
X147401600Y-74889510D01*
X147514297Y-75058173D01*
X147887384Y-75307461D01*
X148327470Y-75395000D01*
X148372530Y-75395000D01*
X148812616Y-75307461D01*
X149185703Y-75058173D01*
X149434991Y-74685086D01*
X149522530Y-74245000D01*
X149517558Y-74220000D01*
X149877470Y-74220000D01*
X149965009Y-74660086D01*
X150214297Y-75033173D01*
X150587384Y-75282461D01*
X151027470Y-75370000D01*
X151072530Y-75370000D01*
X151512616Y-75282461D01*
X151885703Y-75033173D01*
X152134991Y-74660086D01*
X152222530Y-74220000D01*
X152134991Y-73779914D01*
X151885703Y-73406827D01*
X151512616Y-73157539D01*
X151072530Y-73070000D01*
X151027470Y-73070000D01*
X150587384Y-73157539D01*
X150214297Y-73406827D01*
X149965009Y-73779914D01*
X149877470Y-74220000D01*
X149517558Y-74220000D01*
X149434991Y-73804914D01*
X149185703Y-73431827D01*
X148812616Y-73182539D01*
X148372530Y-73095000D01*
X148327470Y-73095000D01*
X147887384Y-73182539D01*
X147514297Y-73431827D01*
X147401600Y-73600490D01*
X147401600Y-72840950D01*
X147500000Y-72860877D01*
X149200000Y-72860877D01*
X149311173Y-72839958D01*
X149413279Y-72774255D01*
X149481778Y-72674003D01*
X149505877Y-72555000D01*
X149505877Y-70855000D01*
X149501173Y-70830000D01*
X149894123Y-70830000D01*
X149894123Y-72530000D01*
X149915042Y-72641173D01*
X149980745Y-72743279D01*
X150080997Y-72811778D01*
X150200000Y-72835877D01*
X151900000Y-72835877D01*
X152011173Y-72814958D01*
X152113279Y-72749255D01*
X152181778Y-72649003D01*
X152205877Y-72530000D01*
X152205877Y-70830000D01*
X152184958Y-70718827D01*
X152119255Y-70616721D01*
X152019003Y-70548222D01*
X151900000Y-70524123D01*
X150200000Y-70524123D01*
X150088827Y-70545042D01*
X149986721Y-70610745D01*
X149918222Y-70710997D01*
X149894123Y-70830000D01*
X149501173Y-70830000D01*
X149484958Y-70743827D01*
X149419255Y-70641721D01*
X149319003Y-70573222D01*
X149200000Y-70549123D01*
X147500000Y-70549123D01*
X147388827Y-70570042D01*
X147286721Y-70635745D01*
X147218222Y-70735997D01*
X147194123Y-70855000D01*
X147194123Y-71390187D01*
X147183952Y-71365571D01*
X147015317Y-71196641D01*
X146794871Y-71105104D01*
X146556176Y-71104896D01*
X146335571Y-71196048D01*
X146166641Y-71364683D01*
X146075104Y-71585129D01*
X146074896Y-71823824D01*
X146166048Y-72044429D01*
X146334683Y-72213359D01*
X146555129Y-72304896D01*
X146598400Y-72304934D01*
X146598400Y-73739616D01*
X146394871Y-73655104D01*
X146156176Y-73654896D01*
X145935571Y-73746048D01*
X145766641Y-73914683D01*
X145675104Y-74135129D01*
X145674896Y-74373824D01*
X145766048Y-74594429D01*
X145873400Y-74701969D01*
X145873400Y-76304782D01*
X145840317Y-76271641D01*
X145619871Y-76180104D01*
X145381176Y-76179896D01*
X145160571Y-76271048D01*
X144991641Y-76439683D01*
X144900104Y-76660129D01*
X144899896Y-76898824D01*
X144991048Y-77119429D01*
X145098400Y-77226969D01*
X145098400Y-78804236D01*
X144919871Y-78730104D01*
X144681176Y-78729896D01*
X144460571Y-78821048D01*
X144291641Y-78989683D01*
X144200104Y-79210129D01*
X144199896Y-79448824D01*
X144291048Y-79669429D01*
X144398400Y-79776969D01*
X144398400Y-80758474D01*
X144269871Y-80705104D01*
X144077031Y-80704936D01*
X144099896Y-80649871D01*
X144100104Y-80411176D01*
X144008952Y-80190571D01*
X143840317Y-80021641D01*
X143619871Y-79930104D01*
X143381176Y-79929896D01*
X143160571Y-80021048D01*
X142991641Y-80189683D01*
X142954802Y-80278401D01*
X142954802Y-75280070D01*
X142993824Y-75280104D01*
X143214429Y-75188952D01*
X143383359Y-75020317D01*
X143474896Y-74799871D01*
X143475104Y-74561176D01*
X143383952Y-74340571D01*
X143215317Y-74171641D01*
X142994871Y-74080104D01*
X142756176Y-74079896D01*
X142749977Y-74082458D01*
X142750104Y-73936176D01*
X142658952Y-73715571D01*
X142490317Y-73546641D01*
X142269871Y-73455104D01*
X142031176Y-73454896D01*
X141810571Y-73546048D01*
X141641641Y-73714683D01*
X141550104Y-73935129D01*
X141549896Y-74173824D01*
X141641048Y-74394429D01*
X141748400Y-74501969D01*
X141748400Y-86836978D01*
X141120711Y-86209289D01*
X141087629Y-86187350D01*
X141050000Y-86180000D01*
X137117948Y-86180000D01*
X137508974Y-85788974D01*
X137596031Y-85658685D01*
X137626600Y-85505000D01*
X137626600Y-84955087D01*
X137734683Y-85063359D01*
X137955129Y-85154896D01*
X138193824Y-85155104D01*
X138414429Y-85063952D01*
X138583359Y-84895317D01*
X138674896Y-84674871D01*
X138675104Y-84436176D01*
X138583952Y-84215571D01*
X138473507Y-84104933D01*
X138608359Y-83970317D01*
X138699896Y-83749871D01*
X138700028Y-83597920D01*
X140183974Y-82113974D01*
X140271030Y-81983686D01*
X140301600Y-81830000D01*
X140301600Y-71051890D01*
X140408359Y-70945317D01*
X140499896Y-70724871D01*
X140500104Y-70486176D01*
X140408952Y-70265571D01*
X140240317Y-70096641D01*
X140019871Y-70005104D01*
X139781176Y-70004896D01*
X139560571Y-70096048D01*
X139391641Y-70264683D01*
X139300104Y-70485129D01*
X139299896Y-70723824D01*
X139391048Y-70944429D01*
X139498400Y-71051969D01*
X139498400Y-75532052D01*
X139408952Y-75315571D01*
X139240317Y-75146641D01*
X139019871Y-75055104D01*
X138781176Y-75054896D01*
X138560571Y-75146048D01*
X138391641Y-75314683D01*
X138300104Y-75535129D01*
X138299896Y-75773824D01*
X138391048Y-75994429D01*
X138513993Y-76117589D01*
X138366641Y-76264683D01*
X138275104Y-76485129D01*
X138274896Y-76723824D01*
X138366048Y-76944429D01*
X138534683Y-77113359D01*
X138755129Y-77204896D01*
X138993824Y-77205104D01*
X139214429Y-77113952D01*
X139383359Y-76945317D01*
X139474896Y-76724871D01*
X139475104Y-76486176D01*
X139383952Y-76265571D01*
X139261007Y-76142411D01*
X139408359Y-75995317D01*
X139498400Y-75778474D01*
X139498400Y-81663652D01*
X138132025Y-83030027D01*
X137981176Y-83029896D01*
X137760571Y-83121048D01*
X137626600Y-83254785D01*
X137626600Y-81001890D01*
X137733359Y-80895317D01*
X137824896Y-80674871D01*
X137825104Y-80436176D01*
X137733952Y-80215571D01*
X137583012Y-80064367D01*
X137753829Y-80135296D01*
X137992524Y-80135504D01*
X138213129Y-80044352D01*
X138382059Y-79875717D01*
X138473596Y-79655271D01*
X138473804Y-79416576D01*
X138382652Y-79195971D01*
X138214017Y-79027041D01*
X138110506Y-78984060D01*
X138187729Y-78952152D01*
X138356659Y-78783517D01*
X138448196Y-78563071D01*
X138448404Y-78324376D01*
X138357252Y-78103771D01*
X138188617Y-77934841D01*
X137968171Y-77843304D01*
X137729476Y-77843096D01*
X137508871Y-77934248D01*
X137339941Y-78102883D01*
X137248404Y-78323329D01*
X137248196Y-78562024D01*
X137339348Y-78782629D01*
X137507983Y-78951559D01*
X137611494Y-78994540D01*
X137534271Y-79026448D01*
X137365341Y-79195083D01*
X137273804Y-79415529D01*
X137273596Y-79654224D01*
X137364748Y-79874829D01*
X137515688Y-80026033D01*
X137344871Y-79955104D01*
X137106176Y-79954896D01*
X136885571Y-80046048D01*
X136716641Y-80214683D01*
X136636592Y-80407464D01*
X136608952Y-80340571D01*
X136440317Y-80171641D01*
X136219871Y-80080104D01*
X135981176Y-80079896D01*
X135760571Y-80171048D01*
X135591641Y-80339683D01*
X135500104Y-80560129D01*
X135499896Y-80798824D01*
X135591048Y-81019429D01*
X135759683Y-81188359D01*
X135980129Y-81279896D01*
X136218824Y-81280104D01*
X136439429Y-81188952D01*
X136608359Y-81020317D01*
X136688408Y-80827536D01*
X136716048Y-80894429D01*
X136823400Y-81001969D01*
X136823400Y-85338652D01*
X135982052Y-86180000D01*
X131967948Y-86180000D01*
X132258974Y-85888974D01*
X132331835Y-85779930D01*
X132346030Y-85758686D01*
X132372855Y-85623824D01*
X132399896Y-85623824D01*
X132491048Y-85844429D01*
X132659683Y-86013359D01*
X132880129Y-86104896D01*
X133118824Y-86105104D01*
X133339429Y-86013952D01*
X133508359Y-85845317D01*
X133599896Y-85624871D01*
X133600104Y-85386176D01*
X133508952Y-85165571D01*
X133340317Y-84996641D01*
X133119871Y-84905104D01*
X132881176Y-84904896D01*
X132660571Y-84996048D01*
X132491641Y-85164683D01*
X132400104Y-85385129D01*
X132399896Y-85623824D01*
X132372855Y-85623824D01*
X132376600Y-85605000D01*
X132376600Y-84373824D01*
X132399896Y-84373824D01*
X132491048Y-84594429D01*
X132659683Y-84763359D01*
X132880129Y-84854896D01*
X133118824Y-84855104D01*
X133339429Y-84763952D01*
X133508359Y-84595317D01*
X133599896Y-84374871D01*
X133600104Y-84136176D01*
X133508952Y-83915571D01*
X133340317Y-83746641D01*
X133119871Y-83655104D01*
X132881176Y-83654896D01*
X132660571Y-83746048D01*
X132491641Y-83914683D01*
X132400104Y-84135129D01*
X132399896Y-84373824D01*
X132376600Y-84373824D01*
X132376600Y-81276890D01*
X132483359Y-81170317D01*
X132499928Y-81130415D01*
X132516048Y-81169429D01*
X132684683Y-81338359D01*
X132905129Y-81429896D01*
X133143824Y-81430104D01*
X133364429Y-81338952D01*
X133437545Y-81265964D01*
X133584683Y-81413359D01*
X133805129Y-81504896D01*
X134043824Y-81505104D01*
X134264429Y-81413952D01*
X134433359Y-81245317D01*
X134524896Y-81024871D01*
X134525104Y-80786176D01*
X134433952Y-80565571D01*
X134265317Y-80396641D01*
X134044871Y-80305104D01*
X133806176Y-80304896D01*
X133585571Y-80396048D01*
X133512455Y-80469036D01*
X133365317Y-80321641D01*
X133144871Y-80230104D01*
X132906176Y-80229896D01*
X132685571Y-80321048D01*
X132516641Y-80489683D01*
X132500072Y-80529585D01*
X132483952Y-80490571D01*
X132315317Y-80321641D01*
X132094871Y-80230104D01*
X131856176Y-80229896D01*
X131635571Y-80321048D01*
X131466641Y-80489683D01*
X131375104Y-80710129D01*
X131374896Y-80948824D01*
X131466048Y-81169429D01*
X131573400Y-81276969D01*
X131573400Y-85004957D01*
X131440317Y-84871641D01*
X131219871Y-84780104D01*
X130981176Y-84779896D01*
X130760571Y-84871048D01*
X130629817Y-85001573D01*
X130583952Y-84890571D01*
X130415317Y-84721641D01*
X130194871Y-84630104D01*
X129956176Y-84629896D01*
X129735571Y-84721048D01*
X129566641Y-84889683D01*
X129475104Y-85110129D01*
X129474896Y-85348824D01*
X129566048Y-85569429D01*
X129734683Y-85738359D01*
X129955129Y-85829896D01*
X130193824Y-85830104D01*
X130414429Y-85738952D01*
X130545183Y-85608427D01*
X130591048Y-85719429D01*
X130759683Y-85888359D01*
X130980129Y-85979896D01*
X131032111Y-85979941D01*
X130832052Y-86180000D01*
X128476600Y-86180000D01*
X128476600Y-77880000D01*
X128446030Y-77726314D01*
X128358974Y-77596026D01*
X127699973Y-76937025D01*
X127700104Y-76786176D01*
X127608952Y-76565571D01*
X127440317Y-76396641D01*
X127219871Y-76305104D01*
X126981176Y-76304896D01*
X126760571Y-76396048D01*
X126591641Y-76564683D01*
X126500104Y-76785129D01*
X126499896Y-77023824D01*
X126591048Y-77244429D01*
X126726449Y-77380067D01*
X126616641Y-77489683D01*
X126525104Y-77710129D01*
X126524896Y-77948824D01*
X126616048Y-78169429D01*
X126748400Y-78302013D01*
X126748400Y-86180000D01*
X124601600Y-86180000D01*
X124601600Y-79751890D01*
X124708359Y-79645317D01*
X124799896Y-79424871D01*
X124800104Y-79186176D01*
X124708952Y-78965571D01*
X124588900Y-78845309D01*
X124588900Y-76115824D01*
X131644496Y-76115824D01*
X131735648Y-76336429D01*
X131904283Y-76505359D01*
X132124729Y-76596896D01*
X132363424Y-76597104D01*
X132584029Y-76505952D01*
X132752959Y-76337317D01*
X132844496Y-76116871D01*
X132844496Y-76115824D01*
X133544496Y-76115824D01*
X133635648Y-76336429D01*
X133804283Y-76505359D01*
X134024729Y-76596896D01*
X134263424Y-76597104D01*
X134484029Y-76505952D01*
X134652959Y-76337317D01*
X134744496Y-76116871D01*
X134744704Y-75878176D01*
X134653552Y-75657571D01*
X134484917Y-75488641D01*
X134264471Y-75397104D01*
X134025776Y-75396896D01*
X133805171Y-75488048D01*
X133636241Y-75656683D01*
X133544704Y-75877129D01*
X133544496Y-76115824D01*
X132844496Y-76115824D01*
X132844704Y-75878176D01*
X132753552Y-75657571D01*
X132584917Y-75488641D01*
X132364471Y-75397104D01*
X132125776Y-75396896D01*
X131905171Y-75488048D01*
X131736241Y-75656683D01*
X131644704Y-75877129D01*
X131644496Y-76115824D01*
X124588900Y-76115824D01*
X124588900Y-74173824D01*
X125299896Y-74173824D01*
X125391048Y-74394429D01*
X125559683Y-74563359D01*
X125780129Y-74654896D01*
X126018824Y-74655104D01*
X126239429Y-74563952D01*
X126408359Y-74395317D01*
X126499896Y-74174871D01*
X126500104Y-73936176D01*
X126408952Y-73715571D01*
X126240317Y-73546641D01*
X126019871Y-73455104D01*
X125781176Y-73454896D01*
X125560571Y-73546048D01*
X125391641Y-73714683D01*
X125300104Y-73935129D01*
X125299896Y-74173824D01*
X124588900Y-74173824D01*
X124588900Y-70023824D01*
X127574896Y-70023824D01*
X127666048Y-70244429D01*
X127834683Y-70413359D01*
X128055129Y-70504896D01*
X128293824Y-70505104D01*
X128514429Y-70413952D01*
X128683359Y-70245317D01*
X128736100Y-70118302D01*
X128736100Y-73320433D01*
X128616641Y-73439683D01*
X128525104Y-73660129D01*
X128524896Y-73898824D01*
X128616048Y-74119429D01*
X128784683Y-74288359D01*
X129005129Y-74379896D01*
X129243824Y-74380104D01*
X129464429Y-74288952D01*
X129537684Y-74215824D01*
X131644496Y-74215824D01*
X131735648Y-74436429D01*
X131904283Y-74605359D01*
X132124729Y-74696896D01*
X132363424Y-74697104D01*
X132584029Y-74605952D01*
X132752959Y-74437317D01*
X132844496Y-74216871D01*
X132844496Y-74215824D01*
X133544496Y-74215824D01*
X133635648Y-74436429D01*
X133804283Y-74605359D01*
X134024729Y-74696896D01*
X134263424Y-74697104D01*
X134484029Y-74605952D01*
X134652959Y-74437317D01*
X134744496Y-74216871D01*
X134744704Y-73978176D01*
X134653552Y-73757571D01*
X134484917Y-73588641D01*
X134264471Y-73497104D01*
X134025776Y-73496896D01*
X133805171Y-73588048D01*
X133636241Y-73756683D01*
X133544704Y-73977129D01*
X133544496Y-74215824D01*
X132844496Y-74215824D01*
X132844704Y-73978176D01*
X132753552Y-73757571D01*
X132584917Y-73588641D01*
X132364471Y-73497104D01*
X132125776Y-73496896D01*
X131905171Y-73588048D01*
X131736241Y-73756683D01*
X131644704Y-73977129D01*
X131644496Y-74215824D01*
X129537684Y-74215824D01*
X129633359Y-74120317D01*
X129724896Y-73899871D01*
X129725104Y-73661176D01*
X129633952Y-73440571D01*
X129513900Y-73320309D01*
X129513900Y-72692496D01*
X129559683Y-72738359D01*
X129780129Y-72829896D01*
X130018824Y-72830104D01*
X130239429Y-72738952D01*
X130408359Y-72570317D01*
X130499896Y-72349871D01*
X130500104Y-72111176D01*
X130453682Y-71998824D01*
X135124896Y-71998824D01*
X135216048Y-72219429D01*
X135384683Y-72388359D01*
X135605129Y-72479896D01*
X135843824Y-72480104D01*
X136064429Y-72388952D01*
X136233359Y-72220317D01*
X136324896Y-71999871D01*
X136325104Y-71761176D01*
X136233952Y-71540571D01*
X136113900Y-71420309D01*
X136113900Y-69256634D01*
X136230129Y-69304896D01*
X136468824Y-69305104D01*
X136689429Y-69213952D01*
X136761100Y-69142406D01*
X136761100Y-72570433D01*
X136641641Y-72689683D01*
X136550104Y-72910129D01*
X136549896Y-73148824D01*
X136641048Y-73369429D01*
X136809683Y-73538359D01*
X137030129Y-73629896D01*
X137251383Y-73630089D01*
X137166641Y-73714683D01*
X137075104Y-73935129D01*
X137074978Y-74080021D01*
X136931176Y-74079896D01*
X136710571Y-74171048D01*
X136541641Y-74339683D01*
X136450104Y-74560129D01*
X136449896Y-74798824D01*
X136541048Y-75019429D01*
X136709683Y-75188359D01*
X136930129Y-75279896D01*
X137168824Y-75280104D01*
X137389429Y-75188952D01*
X137558359Y-75020317D01*
X137649896Y-74799871D01*
X137650022Y-74654979D01*
X137793824Y-74655104D01*
X138014429Y-74563952D01*
X138183359Y-74395317D01*
X138274896Y-74174871D01*
X138275104Y-73936176D01*
X138183952Y-73715571D01*
X138015317Y-73546641D01*
X137794871Y-73455104D01*
X137573617Y-73454911D01*
X137658359Y-73370317D01*
X137749896Y-73149871D01*
X137750104Y-72911176D01*
X137658952Y-72690571D01*
X137538900Y-72570309D01*
X137538900Y-68198824D01*
X139949896Y-68198824D01*
X140041048Y-68419429D01*
X140209683Y-68588359D01*
X140430129Y-68679896D01*
X140668824Y-68680104D01*
X140889429Y-68588952D01*
X141058359Y-68420317D01*
X141149896Y-68199871D01*
X141150104Y-67961176D01*
X141058952Y-67740571D01*
X140890317Y-67571641D01*
X140669871Y-67480104D01*
X140431176Y-67479896D01*
X140210571Y-67571048D01*
X140041641Y-67739683D01*
X139950104Y-67960129D01*
X139949896Y-68198824D01*
X137538900Y-68198824D01*
X137538900Y-66929991D01*
X137668824Y-66930104D01*
X137889429Y-66838952D01*
X138058359Y-66670317D01*
X138149896Y-66449871D01*
X138149918Y-66423824D01*
X144649896Y-66423824D01*
X144741048Y-66644429D01*
X144909683Y-66813359D01*
X145130129Y-66904896D01*
X145368824Y-66905104D01*
X145589429Y-66813952D01*
X145758359Y-66645317D01*
X145849896Y-66424871D01*
X145850104Y-66186176D01*
X145758952Y-65965571D01*
X145590317Y-65796641D01*
X145369871Y-65705104D01*
X145131176Y-65704896D01*
X144910571Y-65796048D01*
X144741641Y-65964683D01*
X144650104Y-66185129D01*
X144649896Y-66423824D01*
X138149918Y-66423824D01*
X138150104Y-66211176D01*
X138058952Y-65990571D01*
X137890317Y-65821641D01*
X137669871Y-65730104D01*
X137431176Y-65729896D01*
X137210571Y-65821048D01*
X137041641Y-65989683D01*
X136950104Y-66210129D01*
X136949956Y-66380056D01*
X136875006Y-66455006D01*
X136790703Y-66581174D01*
X136761100Y-66730000D01*
X136761100Y-68267548D01*
X136690317Y-68196641D01*
X136469871Y-68105104D01*
X136231176Y-68104896D01*
X136113900Y-68153353D01*
X136113900Y-64891088D01*
X136175031Y-64829957D01*
X136343824Y-64830104D01*
X136564429Y-64738952D01*
X136733359Y-64570317D01*
X136745135Y-64541955D01*
X147865362Y-64541955D01*
X147956514Y-64762560D01*
X148074137Y-64880389D01*
X147957108Y-64997213D01*
X147865571Y-65217659D01*
X147865363Y-65456354D01*
X147956515Y-65676959D01*
X148048738Y-65769343D01*
X147957108Y-65860813D01*
X147865571Y-66081259D01*
X147865363Y-66319954D01*
X147956515Y-66540559D01*
X148125150Y-66709489D01*
X148345596Y-66801026D01*
X148584291Y-66801234D01*
X148804896Y-66710082D01*
X148973826Y-66541447D01*
X149065363Y-66321001D01*
X149065571Y-66082306D01*
X148974419Y-65861701D01*
X148882196Y-65769317D01*
X148973826Y-65677847D01*
X149065363Y-65457401D01*
X149065571Y-65218706D01*
X148974419Y-64998101D01*
X148856796Y-64880272D01*
X148973825Y-64763448D01*
X149065362Y-64543002D01*
X149065570Y-64304307D01*
X148974418Y-64083702D01*
X148805783Y-63914772D01*
X148585337Y-63823235D01*
X148346642Y-63823027D01*
X148126037Y-63914179D01*
X147957107Y-64082814D01*
X147865570Y-64303260D01*
X147865362Y-64541955D01*
X136745135Y-64541955D01*
X136824896Y-64349871D01*
X136825104Y-64111176D01*
X136733952Y-63890571D01*
X136565317Y-63721641D01*
X136344871Y-63630104D01*
X136106176Y-63629896D01*
X135885571Y-63721048D01*
X135716641Y-63889683D01*
X135625104Y-64110129D01*
X135624956Y-64280056D01*
X135450006Y-64455006D01*
X135365703Y-64581174D01*
X135336100Y-64730000D01*
X135336100Y-71420433D01*
X135216641Y-71539683D01*
X135125104Y-71760129D01*
X135124896Y-71998824D01*
X130453682Y-71998824D01*
X130408952Y-71890571D01*
X130288900Y-71770309D01*
X130288900Y-71198824D01*
X131249896Y-71198824D01*
X131341048Y-71419429D01*
X131509683Y-71588359D01*
X131730129Y-71679896D01*
X131968824Y-71680104D01*
X132189429Y-71588952D01*
X132358359Y-71420317D01*
X132449896Y-71199871D01*
X132450104Y-70961176D01*
X132358952Y-70740571D01*
X132198748Y-70580087D01*
X132218824Y-70580104D01*
X132439429Y-70488952D01*
X132608359Y-70320317D01*
X132699896Y-70099871D01*
X132700104Y-69861176D01*
X132608952Y-69640571D01*
X132440317Y-69471641D01*
X132310628Y-69417790D01*
X132458359Y-69270317D01*
X132549896Y-69049871D01*
X132550104Y-68811176D01*
X132458952Y-68590571D01*
X132290317Y-68421641D01*
X132069871Y-68330104D01*
X131831176Y-68329896D01*
X131610571Y-68421048D01*
X131441641Y-68589683D01*
X131350104Y-68810129D01*
X131349896Y-69048824D01*
X131441048Y-69269429D01*
X131609683Y-69438359D01*
X131739372Y-69492210D01*
X131591641Y-69639683D01*
X131500104Y-69860129D01*
X131499896Y-70098824D01*
X131591048Y-70319429D01*
X131751252Y-70479913D01*
X131731176Y-70479896D01*
X131510571Y-70571048D01*
X131341641Y-70739683D01*
X131250104Y-70960129D01*
X131249896Y-71198824D01*
X130288900Y-71198824D01*
X130288900Y-67942365D01*
X130409683Y-68063359D01*
X130630129Y-68154896D01*
X130868824Y-68155104D01*
X131089429Y-68063952D01*
X131258359Y-67895317D01*
X131349896Y-67674871D01*
X131350104Y-67436176D01*
X131258952Y-67215571D01*
X131090317Y-67046641D01*
X130869871Y-66955104D01*
X130631176Y-66954896D01*
X130410571Y-67046048D01*
X130288900Y-67167507D01*
X130288900Y-60298824D01*
X132324896Y-60298824D01*
X132416048Y-60519429D01*
X132584683Y-60688359D01*
X132805129Y-60779896D01*
X133043824Y-60780104D01*
X133264429Y-60688952D01*
X133433359Y-60520317D01*
X133524896Y-60299871D01*
X133525104Y-60061176D01*
X133433952Y-59840571D01*
X133265317Y-59671641D01*
X133044871Y-59580104D01*
X132806176Y-59579896D01*
X132585571Y-59671048D01*
X132416641Y-59839683D01*
X132325104Y-60060129D01*
X132324896Y-60298824D01*
X130288900Y-60298824D01*
X130288900Y-57107746D01*
X143099801Y-57107746D01*
X143274509Y-57530572D01*
X143597727Y-57854354D01*
X144020247Y-58029800D01*
X144477746Y-58030199D01*
X144900572Y-57855491D01*
X145224354Y-57532273D01*
X145399800Y-57109753D01*
X145400199Y-56652254D01*
X145225491Y-56229428D01*
X144902273Y-55905646D01*
X144479753Y-55730200D01*
X144022254Y-55729801D01*
X143599428Y-55904509D01*
X143275646Y-56227727D01*
X143100200Y-56650247D01*
X143099801Y-57107746D01*
X130288900Y-57107746D01*
X130288900Y-54923824D01*
X134899896Y-54923824D01*
X134991048Y-55144429D01*
X135159683Y-55313359D01*
X135380129Y-55404896D01*
X135618824Y-55405104D01*
X135839429Y-55313952D01*
X136008359Y-55145317D01*
X136099896Y-54924871D01*
X136099940Y-54873824D01*
X139424896Y-54873824D01*
X139516048Y-55094429D01*
X139684683Y-55263359D01*
X139905129Y-55354896D01*
X140143824Y-55355104D01*
X140364429Y-55263952D01*
X140533359Y-55095317D01*
X140624896Y-54874871D01*
X140625104Y-54636176D01*
X140533952Y-54415571D01*
X140365317Y-54246641D01*
X140144871Y-54155104D01*
X139906176Y-54154896D01*
X139685571Y-54246048D01*
X139516641Y-54414683D01*
X139425104Y-54635129D01*
X139424896Y-54873824D01*
X136099940Y-54873824D01*
X136100104Y-54686176D01*
X136008952Y-54465571D01*
X135840317Y-54296641D01*
X135619871Y-54205104D01*
X135381176Y-54204896D01*
X135160571Y-54296048D01*
X134991641Y-54464683D01*
X134900104Y-54685129D01*
X134899896Y-54923824D01*
X130288900Y-54923824D01*
X130288900Y-54014567D01*
X130408359Y-53895317D01*
X130499896Y-53674871D01*
X130500104Y-53436176D01*
X130408952Y-53215571D01*
X130298551Y-53104977D01*
X130383359Y-53020317D01*
X130474896Y-52799871D01*
X130475104Y-52561176D01*
X130383952Y-52340571D01*
X130215317Y-52171641D01*
X129994871Y-52080104D01*
X129756176Y-52079896D01*
X129535571Y-52171048D01*
X129366641Y-52339683D01*
X129275104Y-52560129D01*
X129274956Y-52730056D01*
X128908652Y-53096360D01*
X128833952Y-52915571D01*
X128665317Y-52746641D01*
X128444871Y-52655104D01*
X128206176Y-52654896D01*
X127985571Y-52746048D01*
X127816641Y-52914683D01*
X127725104Y-53135129D01*
X127724896Y-53373824D01*
X127816048Y-53594429D01*
X127923400Y-53701969D01*
X127923400Y-64708110D01*
X127816641Y-64814683D01*
X127725104Y-65035129D01*
X127724896Y-65273824D01*
X127816048Y-65494429D01*
X127984683Y-65663359D01*
X128205129Y-65754896D01*
X128443824Y-65755104D01*
X128664429Y-65663952D01*
X128736100Y-65592406D01*
X128736100Y-69691779D01*
X128683952Y-69565571D01*
X128515317Y-69396641D01*
X128294871Y-69305104D01*
X128056176Y-69304896D01*
X127835571Y-69396048D01*
X127666641Y-69564683D01*
X127575104Y-69785129D01*
X127574896Y-70023824D01*
X124588900Y-70023824D01*
X124588900Y-69339567D01*
X124708359Y-69220317D01*
X124799896Y-68999871D01*
X124800104Y-68761176D01*
X124708952Y-68540571D01*
X124540317Y-68371641D01*
X124319871Y-68280104D01*
X124081176Y-68279896D01*
X123860571Y-68371048D01*
X123691641Y-68539683D01*
X123600104Y-68760129D01*
X123599896Y-68998824D01*
X123691048Y-69219429D01*
X123811100Y-69339691D01*
X123811100Y-70069890D01*
X123594871Y-69980104D01*
X123375001Y-69979912D01*
X123375104Y-69861176D01*
X123283952Y-69640571D01*
X123115317Y-69471641D01*
X122894871Y-69380104D01*
X122656176Y-69379896D01*
X122435571Y-69471048D01*
X122266641Y-69639683D01*
X122175104Y-69860129D01*
X122174896Y-70098824D01*
X122266048Y-70319429D01*
X122373400Y-70426969D01*
X122373400Y-71855000D01*
X122403970Y-72008686D01*
X122471752Y-72110129D01*
X122491026Y-72138974D01*
X122682898Y-72330846D01*
X122682898Y-75322799D01*
X122519871Y-75255104D01*
X122449979Y-75255043D01*
X122450104Y-75111176D01*
X122358952Y-74890571D01*
X122190317Y-74721641D01*
X121969871Y-74630104D01*
X121731176Y-74629896D01*
X121510571Y-74721048D01*
X121341641Y-74889683D01*
X121250104Y-75110129D01*
X121249896Y-75348824D01*
X121341048Y-75569429D01*
X121509683Y-75738359D01*
X121730129Y-75829896D01*
X121800021Y-75829957D01*
X121799896Y-75973824D01*
X121891048Y-76194429D01*
X122059683Y-76363359D01*
X122280129Y-76454896D01*
X122518824Y-76455104D01*
X122682898Y-76387310D01*
X122682898Y-77169950D01*
X121149973Y-75637025D01*
X121150104Y-75486176D01*
X121058952Y-75265571D01*
X120890317Y-75096641D01*
X120669871Y-75005104D01*
X120431176Y-75004896D01*
X120210571Y-75096048D01*
X120210385Y-75096234D01*
X120434991Y-74760086D01*
X120522530Y-74320000D01*
X120434991Y-73879914D01*
X120185703Y-73506827D01*
X119812616Y-73257539D01*
X119372530Y-73170000D01*
X119327470Y-73170000D01*
X118887384Y-73257539D01*
X118514297Y-73506827D01*
X118265009Y-73879914D01*
X118177470Y-74320000D01*
X118265009Y-74760086D01*
X118514297Y-75133173D01*
X118887384Y-75382461D01*
X119327470Y-75470000D01*
X119372530Y-75470000D01*
X119812616Y-75382461D01*
X120148438Y-75158073D01*
X120041641Y-75264683D01*
X119950104Y-75485129D01*
X119949896Y-75723824D01*
X120041048Y-75944429D01*
X120058264Y-75961675D01*
X119812616Y-75797539D01*
X119372530Y-75710000D01*
X119327470Y-75710000D01*
X118887384Y-75797539D01*
X118514297Y-76046827D01*
X118265009Y-76419914D01*
X118177470Y-76860000D01*
X118265009Y-77300086D01*
X118514297Y-77673173D01*
X118887384Y-77922461D01*
X119327470Y-78010000D01*
X119372530Y-78010000D01*
X119812616Y-77922461D01*
X120185703Y-77673173D01*
X120434991Y-77300086D01*
X120522530Y-76860000D01*
X120434991Y-76419914D01*
X120238020Y-76125126D01*
X120430129Y-76204896D01*
X120582080Y-76205028D01*
X122023400Y-77646348D01*
X122023400Y-79804869D01*
X122001600Y-79783031D01*
X122001600Y-79180000D01*
X121971030Y-79026314D01*
X121883974Y-78896026D01*
X121174973Y-78187025D01*
X121175104Y-78036176D01*
X121083952Y-77815571D01*
X120915317Y-77646641D01*
X120694871Y-77555104D01*
X120456176Y-77554896D01*
X120235571Y-77646048D01*
X120066641Y-77814683D01*
X119975104Y-78035129D01*
X119974896Y-78273824D01*
X120066048Y-78494429D01*
X120103363Y-78531809D01*
X119812616Y-78337539D01*
X119372530Y-78250000D01*
X119327470Y-78250000D01*
X118887384Y-78337539D01*
X118514297Y-78586827D01*
X118265009Y-78959914D01*
X118177470Y-79400000D01*
X118265009Y-79840086D01*
X118514297Y-80213173D01*
X118887384Y-80462461D01*
X119327470Y-80550000D01*
X119372530Y-80550000D01*
X119812616Y-80462461D01*
X120185703Y-80213173D01*
X120434991Y-79840086D01*
X120522530Y-79400000D01*
X120434991Y-78959914D01*
X120237668Y-78664599D01*
X120455129Y-78754896D01*
X120607080Y-78755028D01*
X121198400Y-79346348D01*
X121198400Y-79783110D01*
X121091641Y-79889683D01*
X121000104Y-80110129D01*
X121000065Y-80154927D01*
X120819871Y-80080104D01*
X120581176Y-80079896D01*
X120360571Y-80171048D01*
X120191641Y-80339683D01*
X120100104Y-80560129D01*
X120099896Y-80798824D01*
X120191048Y-81019429D01*
X120359683Y-81188359D01*
X120580129Y-81279896D01*
X120818824Y-81280104D01*
X121039429Y-81188952D01*
X121208359Y-81020317D01*
X121299896Y-80799871D01*
X121299935Y-80755073D01*
X121480129Y-80829896D01*
X121718824Y-80830104D01*
X121939429Y-80738952D01*
X121999979Y-80678507D01*
X122084683Y-80763359D01*
X122305129Y-80854896D01*
X122543824Y-80855104D01*
X122682898Y-80797640D01*
X122682898Y-81038652D01*
X122541026Y-81180524D01*
X122453970Y-81310812D01*
X122423400Y-81464498D01*
X122423400Y-86180000D01*
X115225000Y-86180000D01*
X115225000Y-84480000D01*
X115477470Y-84480000D01*
X115565009Y-84920086D01*
X115814297Y-85293173D01*
X116187384Y-85542461D01*
X116627470Y-85630000D01*
X116672530Y-85630000D01*
X117112616Y-85542461D01*
X117485703Y-85293173D01*
X117734991Y-84920086D01*
X117822530Y-84480000D01*
X118177470Y-84480000D01*
X118265009Y-84920086D01*
X118514297Y-85293173D01*
X118887384Y-85542461D01*
X119327470Y-85630000D01*
X119372530Y-85630000D01*
X119812616Y-85542461D01*
X120185703Y-85293173D01*
X120434991Y-84920086D01*
X120522530Y-84480000D01*
X120434991Y-84039914D01*
X120185703Y-83666827D01*
X119812616Y-83417539D01*
X119372530Y-83330000D01*
X119327470Y-83330000D01*
X118887384Y-83417539D01*
X118514297Y-83666827D01*
X118265009Y-84039914D01*
X118177470Y-84480000D01*
X117822530Y-84480000D01*
X117734991Y-84039914D01*
X117485703Y-83666827D01*
X117112616Y-83417539D01*
X116672530Y-83330000D01*
X116627470Y-83330000D01*
X116187384Y-83417539D01*
X115814297Y-83666827D01*
X115565009Y-84039914D01*
X115477470Y-84480000D01*
X115225000Y-84480000D01*
X115225000Y-81940000D01*
X115477470Y-81940000D01*
X115565009Y-82380086D01*
X115814297Y-82753173D01*
X116187384Y-83002461D01*
X116627470Y-83090000D01*
X116672530Y-83090000D01*
X117112616Y-83002461D01*
X117485703Y-82753173D01*
X117734991Y-82380086D01*
X117822530Y-81940000D01*
X118177470Y-81940000D01*
X118265009Y-82380086D01*
X118514297Y-82753173D01*
X118887384Y-83002461D01*
X119327470Y-83090000D01*
X119372530Y-83090000D01*
X119812616Y-83002461D01*
X120185703Y-82753173D01*
X120434991Y-82380086D01*
X120522530Y-81940000D01*
X120434991Y-81499914D01*
X120185703Y-81126827D01*
X119812616Y-80877539D01*
X119372530Y-80790000D01*
X119327470Y-80790000D01*
X118887384Y-80877539D01*
X118514297Y-81126827D01*
X118265009Y-81499914D01*
X118177470Y-81940000D01*
X117822530Y-81940000D01*
X117734991Y-81499914D01*
X117485703Y-81126827D01*
X117112616Y-80877539D01*
X116672530Y-80790000D01*
X116627470Y-80790000D01*
X116187384Y-80877539D01*
X115814297Y-81126827D01*
X115565009Y-81499914D01*
X115477470Y-81940000D01*
X115225000Y-81940000D01*
X115225000Y-79400000D01*
X115477470Y-79400000D01*
X115565009Y-79840086D01*
X115814297Y-80213173D01*
X116187384Y-80462461D01*
X116627470Y-80550000D01*
X116672530Y-80550000D01*
X117112616Y-80462461D01*
X117485703Y-80213173D01*
X117734991Y-79840086D01*
X117822530Y-79400000D01*
X117734991Y-78959914D01*
X117485703Y-78586827D01*
X117112616Y-78337539D01*
X116672530Y-78250000D01*
X116627470Y-78250000D01*
X116187384Y-78337539D01*
X115814297Y-78586827D01*
X115565009Y-78959914D01*
X115477470Y-79400000D01*
X115225000Y-79400000D01*
X115225000Y-76860000D01*
X115477470Y-76860000D01*
X115565009Y-77300086D01*
X115814297Y-77673173D01*
X116187384Y-77922461D01*
X116627470Y-78010000D01*
X116672530Y-78010000D01*
X117112616Y-77922461D01*
X117485703Y-77673173D01*
X117734991Y-77300086D01*
X117822530Y-76860000D01*
X117734991Y-76419914D01*
X117485703Y-76046827D01*
X117112616Y-75797539D01*
X116672530Y-75710000D01*
X116627470Y-75710000D01*
X116187384Y-75797539D01*
X115814297Y-76046827D01*
X115565009Y-76419914D01*
X115477470Y-76860000D01*
X115225000Y-76860000D01*
X115225000Y-74320000D01*
X115477470Y-74320000D01*
X115565009Y-74760086D01*
X115814297Y-75133173D01*
X116187384Y-75382461D01*
X116627470Y-75470000D01*
X116672530Y-75470000D01*
X117112616Y-75382461D01*
X117485703Y-75133173D01*
X117734991Y-74760086D01*
X117822530Y-74320000D01*
X117734991Y-73879914D01*
X117485703Y-73506827D01*
X117112616Y-73257539D01*
X116672530Y-73170000D01*
X116627470Y-73170000D01*
X116187384Y-73257539D01*
X115814297Y-73506827D01*
X115565009Y-73879914D01*
X115477470Y-74320000D01*
X115225000Y-74320000D01*
X115225000Y-72005000D01*
X115500000Y-72005000D01*
X115500000Y-72689673D01*
X115545672Y-72799936D01*
X115630063Y-72884328D01*
X115740326Y-72930000D01*
X116425000Y-72930000D01*
X116500000Y-72855000D01*
X116500000Y-71930000D01*
X116800000Y-71930000D01*
X116800000Y-72855000D01*
X116875000Y-72930000D01*
X117559674Y-72930000D01*
X117669937Y-72884328D01*
X117754328Y-72799936D01*
X117800000Y-72689673D01*
X117800000Y-72005000D01*
X118200000Y-72005000D01*
X118200000Y-72689673D01*
X118245672Y-72799936D01*
X118330063Y-72884328D01*
X118440326Y-72930000D01*
X119125000Y-72930000D01*
X119200000Y-72855000D01*
X119200000Y-71930000D01*
X119500000Y-71930000D01*
X119500000Y-72855000D01*
X119575000Y-72930000D01*
X120259674Y-72930000D01*
X120369937Y-72884328D01*
X120454328Y-72799936D01*
X120500000Y-72689673D01*
X120500000Y-72005000D01*
X120425000Y-71930000D01*
X119500000Y-71930000D01*
X119200000Y-71930000D01*
X118275000Y-71930000D01*
X118200000Y-72005000D01*
X117800000Y-72005000D01*
X117725000Y-71930000D01*
X116800000Y-71930000D01*
X116500000Y-71930000D01*
X115575000Y-71930000D01*
X115500000Y-72005000D01*
X115225000Y-72005000D01*
X115225000Y-70870327D01*
X115500000Y-70870327D01*
X115500000Y-71555000D01*
X115575000Y-71630000D01*
X116500000Y-71630000D01*
X116500000Y-70705000D01*
X116800000Y-70705000D01*
X116800000Y-71630000D01*
X117725000Y-71630000D01*
X117800000Y-71555000D01*
X117800000Y-70870327D01*
X118200000Y-70870327D01*
X118200000Y-71555000D01*
X118275000Y-71630000D01*
X119200000Y-71630000D01*
X119200000Y-70705000D01*
X119500000Y-70705000D01*
X119500000Y-71630000D01*
X120425000Y-71630000D01*
X120500000Y-71555000D01*
X120500000Y-70870327D01*
X120454328Y-70760064D01*
X120369937Y-70675672D01*
X120259674Y-70630000D01*
X119575000Y-70630000D01*
X119500000Y-70705000D01*
X119200000Y-70705000D01*
X119125000Y-70630000D01*
X118440326Y-70630000D01*
X118330063Y-70675672D01*
X118245672Y-70760064D01*
X118200000Y-70870327D01*
X117800000Y-70870327D01*
X117754328Y-70760064D01*
X117669937Y-70675672D01*
X117559674Y-70630000D01*
X116875000Y-70630000D01*
X116800000Y-70705000D01*
X116500000Y-70705000D01*
X116425000Y-70630000D01*
X115740326Y-70630000D01*
X115630063Y-70675672D01*
X115545672Y-70760064D01*
X115500000Y-70870327D01*
X115225000Y-70870327D01*
X115225000Y-64598824D01*
X118474896Y-64598824D01*
X118566048Y-64819429D01*
X118676460Y-64930034D01*
X118578641Y-65027683D01*
X118487104Y-65248129D01*
X118486896Y-65486824D01*
X118578048Y-65707429D01*
X118675959Y-65805512D01*
X118591641Y-65889683D01*
X118500104Y-66110129D01*
X118499896Y-66348824D01*
X118591048Y-66569429D01*
X118759683Y-66738359D01*
X118980129Y-66829896D01*
X119218824Y-66830104D01*
X119439429Y-66738952D01*
X119608359Y-66570317D01*
X119699896Y-66349871D01*
X119700104Y-66111176D01*
X119608952Y-65890571D01*
X119511041Y-65792488D01*
X119595359Y-65708317D01*
X119686896Y-65487871D01*
X119687104Y-65249176D01*
X119676629Y-65223824D01*
X121799896Y-65223824D01*
X121891048Y-65444429D01*
X122059683Y-65613359D01*
X122280129Y-65704896D01*
X122518824Y-65705104D01*
X122739429Y-65613952D01*
X122908359Y-65445317D01*
X122999896Y-65224871D01*
X123000104Y-64986176D01*
X122908952Y-64765571D01*
X122740317Y-64596641D01*
X122519871Y-64505104D01*
X122281176Y-64504896D01*
X122060571Y-64596048D01*
X121891641Y-64764683D01*
X121800104Y-64985129D01*
X121799896Y-65223824D01*
X119676629Y-65223824D01*
X119595952Y-65028571D01*
X119485540Y-64917966D01*
X119583359Y-64820317D01*
X119674896Y-64599871D01*
X119675005Y-64473824D01*
X125274896Y-64473824D01*
X125366048Y-64694429D01*
X125534683Y-64863359D01*
X125755129Y-64954896D01*
X125993824Y-64955104D01*
X126214429Y-64863952D01*
X126383359Y-64695317D01*
X126474896Y-64474871D01*
X126475104Y-64236176D01*
X126383952Y-64015571D01*
X126215317Y-63846641D01*
X125994871Y-63755104D01*
X125756176Y-63754896D01*
X125535571Y-63846048D01*
X125366641Y-64014683D01*
X125275104Y-64235129D01*
X125274896Y-64473824D01*
X119675005Y-64473824D01*
X119675104Y-64361176D01*
X119583952Y-64140571D01*
X119415317Y-63971641D01*
X119194871Y-63880104D01*
X118956176Y-63879896D01*
X118735571Y-63971048D01*
X118566641Y-64139683D01*
X118475104Y-64360129D01*
X118474896Y-64598824D01*
X115225000Y-64598824D01*
X115225000Y-59623824D01*
X121024896Y-59623824D01*
X121116048Y-59844429D01*
X121284683Y-60013359D01*
X121505129Y-60104896D01*
X121743824Y-60105104D01*
X121964429Y-60013952D01*
X122133359Y-59845317D01*
X122224896Y-59624871D01*
X122225104Y-59386176D01*
X122133952Y-59165571D01*
X121965317Y-58996641D01*
X121744871Y-58905104D01*
X121506176Y-58904896D01*
X121285571Y-58996048D01*
X121116641Y-59164683D01*
X121025104Y-59385129D01*
X121024896Y-59623824D01*
X115225000Y-59623824D01*
X115225000Y-57107746D01*
X122299801Y-57107746D01*
X122474509Y-57530572D01*
X122797727Y-57854354D01*
X123220247Y-58029800D01*
X123677746Y-58030199D01*
X124100572Y-57855491D01*
X124424354Y-57532273D01*
X124599800Y-57109753D01*
X124600199Y-56652254D01*
X124425491Y-56229428D01*
X124102273Y-55905646D01*
X123679753Y-55730200D01*
X123222254Y-55729801D01*
X122799428Y-55904509D01*
X122475646Y-56227727D01*
X122300200Y-56650247D01*
X122299801Y-57107746D01*
X115225000Y-57107746D01*
X115225000Y-51623824D01*
X135024896Y-51623824D01*
X135116048Y-51844429D01*
X135284683Y-52013359D01*
X135505129Y-52104896D01*
X135743824Y-52105104D01*
X135964429Y-52013952D01*
X136133359Y-51845317D01*
X136224896Y-51624871D01*
X136224918Y-51598824D01*
X145524896Y-51598824D01*
X145616048Y-51819429D01*
X145784683Y-51988359D01*
X146005129Y-52079896D01*
X146243824Y-52080104D01*
X146464429Y-51988952D01*
X146633359Y-51820317D01*
X146724896Y-51599871D01*
X146725104Y-51361176D01*
X146633952Y-51140571D01*
X146465317Y-50971641D01*
X146244871Y-50880104D01*
X146006176Y-50879896D01*
X145785571Y-50971048D01*
X145616641Y-51139683D01*
X145525104Y-51360129D01*
X145524896Y-51598824D01*
X136224918Y-51598824D01*
X136225104Y-51386176D01*
X136133952Y-51165571D01*
X135965317Y-50996641D01*
X135744871Y-50905104D01*
X135506176Y-50904896D01*
X135285571Y-50996048D01*
X135116641Y-51164683D01*
X135025104Y-51385129D01*
X135024896Y-51623824D01*
X115225000Y-51623824D01*
X115225000Y-50107746D01*
X122299801Y-50107746D01*
X122474509Y-50530572D01*
X122797727Y-50854354D01*
X123220247Y-51029800D01*
X123677746Y-51030199D01*
X124100572Y-50855491D01*
X124424354Y-50532273D01*
X124599800Y-50109753D01*
X124599801Y-50107746D01*
X143099801Y-50107746D01*
X143274509Y-50530572D01*
X143597727Y-50854354D01*
X144020247Y-51029800D01*
X144477746Y-51030199D01*
X144900572Y-50855491D01*
X145224354Y-50532273D01*
X145399800Y-50109753D01*
X145400199Y-49652254D01*
X145225491Y-49229428D01*
X144902273Y-48905646D01*
X144479753Y-48730200D01*
X144022254Y-48729801D01*
X143599428Y-48904509D01*
X143275646Y-49227727D01*
X143100200Y-49650247D01*
X143099801Y-50107746D01*
X124599801Y-50107746D01*
X124600199Y-49652254D01*
X124425491Y-49229428D01*
X124145376Y-48948824D01*
X136999896Y-48948824D01*
X137091048Y-49169429D01*
X137259683Y-49338359D01*
X137480129Y-49429896D01*
X137718824Y-49430104D01*
X137939429Y-49338952D01*
X138108359Y-49170317D01*
X138199896Y-48949871D01*
X138200104Y-48711176D01*
X138108952Y-48490571D01*
X137940317Y-48321641D01*
X137719871Y-48230104D01*
X137481176Y-48229896D01*
X137260571Y-48321048D01*
X137091641Y-48489683D01*
X137000104Y-48710129D01*
X136999896Y-48948824D01*
X124145376Y-48948824D01*
X124102273Y-48905646D01*
X123679753Y-48730200D01*
X123222254Y-48729801D01*
X122799428Y-48904509D01*
X122475646Y-49227727D01*
X122300200Y-49650247D01*
X122299801Y-50107746D01*
X115225000Y-50107746D01*
X115225000Y-46855000D01*
X152475000Y-46855000D01*
X152475000Y-92380000D01*
X152475000Y-92380000D01*
G37*
X152475000Y-92380000D02*
X147851893Y-92380000D01*
X147783952Y-92215571D01*
X147615317Y-92046641D01*
X147394871Y-91955104D01*
X147156176Y-91954896D01*
X146951067Y-92039645D01*
X142954802Y-88043380D01*
X142954802Y-85256707D01*
X142991048Y-85344429D01*
X143159683Y-85513359D01*
X143380129Y-85604896D01*
X143550021Y-85605044D01*
X143549896Y-85748824D01*
X143641048Y-85969429D01*
X143809683Y-86138359D01*
X144030129Y-86229896D01*
X144268824Y-86230104D01*
X144398400Y-86176564D01*
X144398400Y-87733110D01*
X144291641Y-87839683D01*
X144200104Y-88060129D01*
X144199896Y-88298824D01*
X144291048Y-88519429D01*
X144459683Y-88688359D01*
X144680129Y-88779896D01*
X144900021Y-88780088D01*
X144899896Y-88923824D01*
X144991048Y-89144429D01*
X145159683Y-89313359D01*
X145380129Y-89404896D01*
X145618824Y-89405104D01*
X145839429Y-89313952D01*
X146008359Y-89145317D01*
X146099896Y-88924871D01*
X146100104Y-88686176D01*
X146008952Y-88465571D01*
X145901600Y-88358031D01*
X145901600Y-88230218D01*
X145934683Y-88263359D01*
X146155129Y-88354896D01*
X146393824Y-88355104D01*
X146614429Y-88263952D01*
X146783359Y-88095317D01*
X146874896Y-87874871D01*
X146875104Y-87636176D01*
X146783952Y-87415571D01*
X146676600Y-87308031D01*
X146676600Y-86795384D01*
X146880129Y-86879896D01*
X147118824Y-86880104D01*
X147339429Y-86788952D01*
X147508359Y-86620317D01*
X147599896Y-86399871D01*
X147600104Y-86161176D01*
X147508952Y-85940571D01*
X147401600Y-85833031D01*
X147401600Y-85049510D01*
X147514297Y-85218173D01*
X147887384Y-85467461D01*
X148327470Y-85555000D01*
X148372530Y-85555000D01*
X148812616Y-85467461D01*
X149185703Y-85218173D01*
X149398400Y-84899848D01*
X149398400Y-86558110D01*
X149291641Y-86664683D01*
X149200104Y-86885129D01*
X149199896Y-87123824D01*
X149291048Y-87344429D01*
X149459683Y-87513359D01*
X149680129Y-87604896D01*
X149918824Y-87605104D01*
X150139429Y-87513952D01*
X150308359Y-87345317D01*
X150399896Y-87124871D01*
X150400104Y-86886176D01*
X150308952Y-86665571D01*
X150201600Y-86558031D01*
X150201600Y-85174171D01*
X150214297Y-85193173D01*
X150587384Y-85442461D01*
X151027470Y-85530000D01*
X151072530Y-85530000D01*
X151512616Y-85442461D01*
X151885703Y-85193173D01*
X152134991Y-84820086D01*
X152222530Y-84380000D01*
X152134991Y-83939914D01*
X151885703Y-83566827D01*
X151512616Y-83317539D01*
X151072530Y-83230000D01*
X151027470Y-83230000D01*
X150587384Y-83317539D01*
X150214297Y-83566827D01*
X150201600Y-83585829D01*
X150201600Y-83315000D01*
X150171030Y-83161314D01*
X150083974Y-83031026D01*
X149404166Y-82351218D01*
X149434991Y-82305086D01*
X149522530Y-81865000D01*
X149517558Y-81840000D01*
X149877470Y-81840000D01*
X149965009Y-82280086D01*
X150214297Y-82653173D01*
X150587384Y-82902461D01*
X151027470Y-82990000D01*
X151072530Y-82990000D01*
X151512616Y-82902461D01*
X151885703Y-82653173D01*
X152134991Y-82280086D01*
X152222530Y-81840000D01*
X152134991Y-81399914D01*
X151885703Y-81026827D01*
X151512616Y-80777539D01*
X151072530Y-80690000D01*
X151027470Y-80690000D01*
X150587384Y-80777539D01*
X150214297Y-81026827D01*
X149965009Y-81399914D01*
X149877470Y-81840000D01*
X149517558Y-81840000D01*
X149434991Y-81424914D01*
X149185703Y-81051827D01*
X148812616Y-80802539D01*
X148372530Y-80715000D01*
X148327470Y-80715000D01*
X147887384Y-80802539D01*
X147514297Y-81051827D01*
X147401600Y-81220490D01*
X147401600Y-79969510D01*
X147514297Y-80138173D01*
X147887384Y-80387461D01*
X148327470Y-80475000D01*
X148372530Y-80475000D01*
X148812616Y-80387461D01*
X149185703Y-80138173D01*
X149434991Y-79765086D01*
X149522530Y-79325000D01*
X149517558Y-79300000D01*
X149877470Y-79300000D01*
X149965009Y-79740086D01*
X150214297Y-80113173D01*
X150587384Y-80362461D01*
X151027470Y-80450000D01*
X151072530Y-80450000D01*
X151512616Y-80362461D01*
X151885703Y-80113173D01*
X152134991Y-79740086D01*
X152222530Y-79300000D01*
X152134991Y-78859914D01*
X151885703Y-78486827D01*
X151512616Y-78237539D01*
X151072530Y-78150000D01*
X151027470Y-78150000D01*
X150587384Y-78237539D01*
X150214297Y-78486827D01*
X149965009Y-78859914D01*
X149877470Y-79300000D01*
X149517558Y-79300000D01*
X149434991Y-78884914D01*
X149185703Y-78511827D01*
X148812616Y-78262539D01*
X148372530Y-78175000D01*
X148327470Y-78175000D01*
X147887384Y-78262539D01*
X147514297Y-78511827D01*
X147401600Y-78680490D01*
X147401600Y-77429510D01*
X147514297Y-77598173D01*
X147887384Y-77847461D01*
X148327470Y-77935000D01*
X148372530Y-77935000D01*
X148812616Y-77847461D01*
X149185703Y-77598173D01*
X149434991Y-77225086D01*
X149522530Y-76785000D01*
X149517558Y-76760000D01*
X149877470Y-76760000D01*
X149965009Y-77200086D01*
X150214297Y-77573173D01*
X150587384Y-77822461D01*
X151027470Y-77910000D01*
X151072530Y-77910000D01*
X151512616Y-77822461D01*
X151885703Y-77573173D01*
X152134991Y-77200086D01*
X152222530Y-76760000D01*
X152134991Y-76319914D01*
X151885703Y-75946827D01*
X151512616Y-75697539D01*
X151072530Y-75610000D01*
X151027470Y-75610000D01*
X150587384Y-75697539D01*
X150214297Y-75946827D01*
X149965009Y-76319914D01*
X149877470Y-76760000D01*
X149517558Y-76760000D01*
X149434991Y-76344914D01*
X149185703Y-75971827D01*
X148812616Y-75722539D01*
X148372530Y-75635000D01*
X148327470Y-75635000D01*
X147887384Y-75722539D01*
X147514297Y-75971827D01*
X147401600Y-76140490D01*
X147401600Y-74889510D01*
X147514297Y-75058173D01*
X147887384Y-75307461D01*
X148327470Y-75395000D01*
X148372530Y-75395000D01*
X148812616Y-75307461D01*
X149185703Y-75058173D01*
X149434991Y-74685086D01*
X149522530Y-74245000D01*
X149517558Y-74220000D01*
X149877470Y-74220000D01*
X149965009Y-74660086D01*
X150214297Y-75033173D01*
X150587384Y-75282461D01*
X151027470Y-75370000D01*
X151072530Y-75370000D01*
X151512616Y-75282461D01*
X151885703Y-75033173D01*
X152134991Y-74660086D01*
X152222530Y-74220000D01*
X152134991Y-73779914D01*
X151885703Y-73406827D01*
X151512616Y-73157539D01*
X151072530Y-73070000D01*
X151027470Y-73070000D01*
X150587384Y-73157539D01*
X150214297Y-73406827D01*
X149965009Y-73779914D01*
X149877470Y-74220000D01*
X149517558Y-74220000D01*
X149434991Y-73804914D01*
X149185703Y-73431827D01*
X148812616Y-73182539D01*
X148372530Y-73095000D01*
X148327470Y-73095000D01*
X147887384Y-73182539D01*
X147514297Y-73431827D01*
X147401600Y-73600490D01*
X147401600Y-72840950D01*
X147500000Y-72860877D01*
X149200000Y-72860877D01*
X149311173Y-72839958D01*
X149413279Y-72774255D01*
X149481778Y-72674003D01*
X149505877Y-72555000D01*
X149505877Y-70855000D01*
X149501173Y-70830000D01*
X149894123Y-70830000D01*
X149894123Y-72530000D01*
X149915042Y-72641173D01*
X149980745Y-72743279D01*
X150080997Y-72811778D01*
X150200000Y-72835877D01*
X151900000Y-72835877D01*
X152011173Y-72814958D01*
X152113279Y-72749255D01*
X152181778Y-72649003D01*
X152205877Y-72530000D01*
X152205877Y-70830000D01*
X152184958Y-70718827D01*
X152119255Y-70616721D01*
X152019003Y-70548222D01*
X151900000Y-70524123D01*
X150200000Y-70524123D01*
X150088827Y-70545042D01*
X149986721Y-70610745D01*
X149918222Y-70710997D01*
X149894123Y-70830000D01*
X149501173Y-70830000D01*
X149484958Y-70743827D01*
X149419255Y-70641721D01*
X149319003Y-70573222D01*
X149200000Y-70549123D01*
X147500000Y-70549123D01*
X147388827Y-70570042D01*
X147286721Y-70635745D01*
X147218222Y-70735997D01*
X147194123Y-70855000D01*
X147194123Y-71390187D01*
X147183952Y-71365571D01*
X147015317Y-71196641D01*
X146794871Y-71105104D01*
X146556176Y-71104896D01*
X146335571Y-71196048D01*
X146166641Y-71364683D01*
X146075104Y-71585129D01*
X146074896Y-71823824D01*
X146166048Y-72044429D01*
X146334683Y-72213359D01*
X146555129Y-72304896D01*
X146598400Y-72304934D01*
X146598400Y-73739616D01*
X146394871Y-73655104D01*
X146156176Y-73654896D01*
X145935571Y-73746048D01*
X145766641Y-73914683D01*
X145675104Y-74135129D01*
X145674896Y-74373824D01*
X145766048Y-74594429D01*
X145873400Y-74701969D01*
X145873400Y-76304782D01*
X145840317Y-76271641D01*
X145619871Y-76180104D01*
X145381176Y-76179896D01*
X145160571Y-76271048D01*
X144991641Y-76439683D01*
X144900104Y-76660129D01*
X144899896Y-76898824D01*
X144991048Y-77119429D01*
X145098400Y-77226969D01*
X145098400Y-78804236D01*
X144919871Y-78730104D01*
X144681176Y-78729896D01*
X144460571Y-78821048D01*
X144291641Y-78989683D01*
X144200104Y-79210129D01*
X144199896Y-79448824D01*
X144291048Y-79669429D01*
X144398400Y-79776969D01*
X144398400Y-80758474D01*
X144269871Y-80705104D01*
X144077031Y-80704936D01*
X144099896Y-80649871D01*
X144100104Y-80411176D01*
X144008952Y-80190571D01*
X143840317Y-80021641D01*
X143619871Y-79930104D01*
X143381176Y-79929896D01*
X143160571Y-80021048D01*
X142991641Y-80189683D01*
X142954802Y-80278401D01*
X142954802Y-75280070D01*
X142993824Y-75280104D01*
X143214429Y-75188952D01*
X143383359Y-75020317D01*
X143474896Y-74799871D01*
X143475104Y-74561176D01*
X143383952Y-74340571D01*
X143215317Y-74171641D01*
X142994871Y-74080104D01*
X142756176Y-74079896D01*
X142749977Y-74082458D01*
X142750104Y-73936176D01*
X142658952Y-73715571D01*
X142490317Y-73546641D01*
X142269871Y-73455104D01*
X142031176Y-73454896D01*
X141810571Y-73546048D01*
X141641641Y-73714683D01*
X141550104Y-73935129D01*
X141549896Y-74173824D01*
X141641048Y-74394429D01*
X141748400Y-74501969D01*
X141748400Y-86836978D01*
X141120711Y-86209289D01*
X141087629Y-86187350D01*
X141050000Y-86180000D01*
X137117948Y-86180000D01*
X137508974Y-85788974D01*
X137596031Y-85658685D01*
X137626600Y-85505000D01*
X137626600Y-84955087D01*
X137734683Y-85063359D01*
X137955129Y-85154896D01*
X138193824Y-85155104D01*
X138414429Y-85063952D01*
X138583359Y-84895317D01*
X138674896Y-84674871D01*
X138675104Y-84436176D01*
X138583952Y-84215571D01*
X138473507Y-84104933D01*
X138608359Y-83970317D01*
X138699896Y-83749871D01*
X138700028Y-83597920D01*
X140183974Y-82113974D01*
X140271030Y-81983686D01*
X140301600Y-81830000D01*
X140301600Y-71051890D01*
X140408359Y-70945317D01*
X140499896Y-70724871D01*
X140500104Y-70486176D01*
X140408952Y-70265571D01*
X140240317Y-70096641D01*
X140019871Y-70005104D01*
X139781176Y-70004896D01*
X139560571Y-70096048D01*
X139391641Y-70264683D01*
X139300104Y-70485129D01*
X139299896Y-70723824D01*
X139391048Y-70944429D01*
X139498400Y-71051969D01*
X139498400Y-75532052D01*
X139408952Y-75315571D01*
X139240317Y-75146641D01*
X139019871Y-75055104D01*
X138781176Y-75054896D01*
X138560571Y-75146048D01*
X138391641Y-75314683D01*
X138300104Y-75535129D01*
X138299896Y-75773824D01*
X138391048Y-75994429D01*
X138513993Y-76117589D01*
X138366641Y-76264683D01*
X138275104Y-76485129D01*
X138274896Y-76723824D01*
X138366048Y-76944429D01*
X138534683Y-77113359D01*
X138755129Y-77204896D01*
X138993824Y-77205104D01*
X139214429Y-77113952D01*
X139383359Y-76945317D01*
X139474896Y-76724871D01*
X139475104Y-76486176D01*
X139383952Y-76265571D01*
X139261007Y-76142411D01*
X139408359Y-75995317D01*
X139498400Y-75778474D01*
X139498400Y-81663652D01*
X138132025Y-83030027D01*
X137981176Y-83029896D01*
X137760571Y-83121048D01*
X137626600Y-83254785D01*
X137626600Y-81001890D01*
X137733359Y-80895317D01*
X137824896Y-80674871D01*
X137825104Y-80436176D01*
X137733952Y-80215571D01*
X137583012Y-80064367D01*
X137753829Y-80135296D01*
X137992524Y-80135504D01*
X138213129Y-80044352D01*
X138382059Y-79875717D01*
X138473596Y-79655271D01*
X138473804Y-79416576D01*
X138382652Y-79195971D01*
X138214017Y-79027041D01*
X138110506Y-78984060D01*
X138187729Y-78952152D01*
X138356659Y-78783517D01*
X138448196Y-78563071D01*
X138448404Y-78324376D01*
X138357252Y-78103771D01*
X138188617Y-77934841D01*
X137968171Y-77843304D01*
X137729476Y-77843096D01*
X137508871Y-77934248D01*
X137339941Y-78102883D01*
X137248404Y-78323329D01*
X137248196Y-78562024D01*
X137339348Y-78782629D01*
X137507983Y-78951559D01*
X137611494Y-78994540D01*
X137534271Y-79026448D01*
X137365341Y-79195083D01*
X137273804Y-79415529D01*
X137273596Y-79654224D01*
X137364748Y-79874829D01*
X137515688Y-80026033D01*
X137344871Y-79955104D01*
X137106176Y-79954896D01*
X136885571Y-80046048D01*
X136716641Y-80214683D01*
X136636592Y-80407464D01*
X136608952Y-80340571D01*
X136440317Y-80171641D01*
X136219871Y-80080104D01*
X135981176Y-80079896D01*
X135760571Y-80171048D01*
X135591641Y-80339683D01*
X135500104Y-80560129D01*
X135499896Y-80798824D01*
X135591048Y-81019429D01*
X135759683Y-81188359D01*
X135980129Y-81279896D01*
X136218824Y-81280104D01*
X136439429Y-81188952D01*
X136608359Y-81020317D01*
X136688408Y-80827536D01*
X136716048Y-80894429D01*
X136823400Y-81001969D01*
X136823400Y-85338652D01*
X135982052Y-86180000D01*
X131967948Y-86180000D01*
X132258974Y-85888974D01*
X132331835Y-85779930D01*
X132346030Y-85758686D01*
X132372855Y-85623824D01*
X132399896Y-85623824D01*
X132491048Y-85844429D01*
X132659683Y-86013359D01*
X132880129Y-86104896D01*
X133118824Y-86105104D01*
X133339429Y-86013952D01*
X133508359Y-85845317D01*
X133599896Y-85624871D01*
X133600104Y-85386176D01*
X133508952Y-85165571D01*
X133340317Y-84996641D01*
X133119871Y-84905104D01*
X132881176Y-84904896D01*
X132660571Y-84996048D01*
X132491641Y-85164683D01*
X132400104Y-85385129D01*
X132399896Y-85623824D01*
X132372855Y-85623824D01*
X132376600Y-85605000D01*
X132376600Y-84373824D01*
X132399896Y-84373824D01*
X132491048Y-84594429D01*
X132659683Y-84763359D01*
X132880129Y-84854896D01*
X133118824Y-84855104D01*
X133339429Y-84763952D01*
X133508359Y-84595317D01*
X133599896Y-84374871D01*
X133600104Y-84136176D01*
X133508952Y-83915571D01*
X133340317Y-83746641D01*
X133119871Y-83655104D01*
X132881176Y-83654896D01*
X132660571Y-83746048D01*
X132491641Y-83914683D01*
X132400104Y-84135129D01*
X132399896Y-84373824D01*
X132376600Y-84373824D01*
X132376600Y-81276890D01*
X132483359Y-81170317D01*
X132499928Y-81130415D01*
X132516048Y-81169429D01*
X132684683Y-81338359D01*
X132905129Y-81429896D01*
X133143824Y-81430104D01*
X133364429Y-81338952D01*
X133437545Y-81265964D01*
X133584683Y-81413359D01*
X133805129Y-81504896D01*
X134043824Y-81505104D01*
X134264429Y-81413952D01*
X134433359Y-81245317D01*
X134524896Y-81024871D01*
X134525104Y-80786176D01*
X134433952Y-80565571D01*
X134265317Y-80396641D01*
X134044871Y-80305104D01*
X133806176Y-80304896D01*
X133585571Y-80396048D01*
X133512455Y-80469036D01*
X133365317Y-80321641D01*
X133144871Y-80230104D01*
X132906176Y-80229896D01*
X132685571Y-80321048D01*
X132516641Y-80489683D01*
X132500072Y-80529585D01*
X132483952Y-80490571D01*
X132315317Y-80321641D01*
X132094871Y-80230104D01*
X131856176Y-80229896D01*
X131635571Y-80321048D01*
X131466641Y-80489683D01*
X131375104Y-80710129D01*
X131374896Y-80948824D01*
X131466048Y-81169429D01*
X131573400Y-81276969D01*
X131573400Y-85004957D01*
X131440317Y-84871641D01*
X131219871Y-84780104D01*
X130981176Y-84779896D01*
X130760571Y-84871048D01*
X130629817Y-85001573D01*
X130583952Y-84890571D01*
X130415317Y-84721641D01*
X130194871Y-84630104D01*
X129956176Y-84629896D01*
X129735571Y-84721048D01*
X129566641Y-84889683D01*
X129475104Y-85110129D01*
X129474896Y-85348824D01*
X129566048Y-85569429D01*
X129734683Y-85738359D01*
X129955129Y-85829896D01*
X130193824Y-85830104D01*
X130414429Y-85738952D01*
X130545183Y-85608427D01*
X130591048Y-85719429D01*
X130759683Y-85888359D01*
X130980129Y-85979896D01*
X131032111Y-85979941D01*
X130832052Y-86180000D01*
X128476600Y-86180000D01*
X128476600Y-77880000D01*
X128446030Y-77726314D01*
X128358974Y-77596026D01*
X127699973Y-76937025D01*
X127700104Y-76786176D01*
X127608952Y-76565571D01*
X127440317Y-76396641D01*
X127219871Y-76305104D01*
X126981176Y-76304896D01*
X126760571Y-76396048D01*
X126591641Y-76564683D01*
X126500104Y-76785129D01*
X126499896Y-77023824D01*
X126591048Y-77244429D01*
X126726449Y-77380067D01*
X126616641Y-77489683D01*
X126525104Y-77710129D01*
X126524896Y-77948824D01*
X126616048Y-78169429D01*
X126748400Y-78302013D01*
X126748400Y-86180000D01*
X124601600Y-86180000D01*
X124601600Y-79751890D01*
X124708359Y-79645317D01*
X124799896Y-79424871D01*
X124800104Y-79186176D01*
X124708952Y-78965571D01*
X124588900Y-78845309D01*
X124588900Y-76115824D01*
X131644496Y-76115824D01*
X131735648Y-76336429D01*
X131904283Y-76505359D01*
X132124729Y-76596896D01*
X132363424Y-76597104D01*
X132584029Y-76505952D01*
X132752959Y-76337317D01*
X132844496Y-76116871D01*
X132844496Y-76115824D01*
X133544496Y-76115824D01*
X133635648Y-76336429D01*
X133804283Y-76505359D01*
X134024729Y-76596896D01*
X134263424Y-76597104D01*
X134484029Y-76505952D01*
X134652959Y-76337317D01*
X134744496Y-76116871D01*
X134744704Y-75878176D01*
X134653552Y-75657571D01*
X134484917Y-75488641D01*
X134264471Y-75397104D01*
X134025776Y-75396896D01*
X133805171Y-75488048D01*
X133636241Y-75656683D01*
X133544704Y-75877129D01*
X133544496Y-76115824D01*
X132844496Y-76115824D01*
X132844704Y-75878176D01*
X132753552Y-75657571D01*
X132584917Y-75488641D01*
X132364471Y-75397104D01*
X132125776Y-75396896D01*
X131905171Y-75488048D01*
X131736241Y-75656683D01*
X131644704Y-75877129D01*
X131644496Y-76115824D01*
X124588900Y-76115824D01*
X124588900Y-74173824D01*
X125299896Y-74173824D01*
X125391048Y-74394429D01*
X125559683Y-74563359D01*
X125780129Y-74654896D01*
X126018824Y-74655104D01*
X126239429Y-74563952D01*
X126408359Y-74395317D01*
X126499896Y-74174871D01*
X126500104Y-73936176D01*
X126408952Y-73715571D01*
X126240317Y-73546641D01*
X126019871Y-73455104D01*
X125781176Y-73454896D01*
X125560571Y-73546048D01*
X125391641Y-73714683D01*
X125300104Y-73935129D01*
X125299896Y-74173824D01*
X124588900Y-74173824D01*
X124588900Y-70023824D01*
X127574896Y-70023824D01*
X127666048Y-70244429D01*
X127834683Y-70413359D01*
X128055129Y-70504896D01*
X128293824Y-70505104D01*
X128514429Y-70413952D01*
X128683359Y-70245317D01*
X128736100Y-70118302D01*
X128736100Y-73320433D01*
X128616641Y-73439683D01*
X128525104Y-73660129D01*
X128524896Y-73898824D01*
X128616048Y-74119429D01*
X128784683Y-74288359D01*
X129005129Y-74379896D01*
X129243824Y-74380104D01*
X129464429Y-74288952D01*
X129537684Y-74215824D01*
X131644496Y-74215824D01*
X131735648Y-74436429D01*
X131904283Y-74605359D01*
X132124729Y-74696896D01*
X132363424Y-74697104D01*
X132584029Y-74605952D01*
X132752959Y-74437317D01*
X132844496Y-74216871D01*
X132844496Y-74215824D01*
X133544496Y-74215824D01*
X133635648Y-74436429D01*
X133804283Y-74605359D01*
X134024729Y-74696896D01*
X134263424Y-74697104D01*
X134484029Y-74605952D01*
X134652959Y-74437317D01*
X134744496Y-74216871D01*
X134744704Y-73978176D01*
X134653552Y-73757571D01*
X134484917Y-73588641D01*
X134264471Y-73497104D01*
X134025776Y-73496896D01*
X133805171Y-73588048D01*
X133636241Y-73756683D01*
X133544704Y-73977129D01*
X133544496Y-74215824D01*
X132844496Y-74215824D01*
X132844704Y-73978176D01*
X132753552Y-73757571D01*
X132584917Y-73588641D01*
X132364471Y-73497104D01*
X132125776Y-73496896D01*
X131905171Y-73588048D01*
X131736241Y-73756683D01*
X131644704Y-73977129D01*
X131644496Y-74215824D01*
X129537684Y-74215824D01*
X129633359Y-74120317D01*
X129724896Y-73899871D01*
X129725104Y-73661176D01*
X129633952Y-73440571D01*
X129513900Y-73320309D01*
X129513900Y-72692496D01*
X129559683Y-72738359D01*
X129780129Y-72829896D01*
X130018824Y-72830104D01*
X130239429Y-72738952D01*
X130408359Y-72570317D01*
X130499896Y-72349871D01*
X130500104Y-72111176D01*
X130453682Y-71998824D01*
X135124896Y-71998824D01*
X135216048Y-72219429D01*
X135384683Y-72388359D01*
X135605129Y-72479896D01*
X135843824Y-72480104D01*
X136064429Y-72388952D01*
X136233359Y-72220317D01*
X136324896Y-71999871D01*
X136325104Y-71761176D01*
X136233952Y-71540571D01*
X136113900Y-71420309D01*
X136113900Y-69256634D01*
X136230129Y-69304896D01*
X136468824Y-69305104D01*
X136689429Y-69213952D01*
X136761100Y-69142406D01*
X136761100Y-72570433D01*
X136641641Y-72689683D01*
X136550104Y-72910129D01*
X136549896Y-73148824D01*
X136641048Y-73369429D01*
X136809683Y-73538359D01*
X137030129Y-73629896D01*
X137251383Y-73630089D01*
X137166641Y-73714683D01*
X137075104Y-73935129D01*
X137074978Y-74080021D01*
X136931176Y-74079896D01*
X136710571Y-74171048D01*
X136541641Y-74339683D01*
X136450104Y-74560129D01*
X136449896Y-74798824D01*
X136541048Y-75019429D01*
X136709683Y-75188359D01*
X136930129Y-75279896D01*
X137168824Y-75280104D01*
X137389429Y-75188952D01*
X137558359Y-75020317D01*
X137649896Y-74799871D01*
X137650022Y-74654979D01*
X137793824Y-74655104D01*
X138014429Y-74563952D01*
X138183359Y-74395317D01*
X138274896Y-74174871D01*
X138275104Y-73936176D01*
X138183952Y-73715571D01*
X138015317Y-73546641D01*
X137794871Y-73455104D01*
X137573617Y-73454911D01*
X137658359Y-73370317D01*
X137749896Y-73149871D01*
X137750104Y-72911176D01*
X137658952Y-72690571D01*
X137538900Y-72570309D01*
X137538900Y-68198824D01*
X139949896Y-68198824D01*
X140041048Y-68419429D01*
X140209683Y-68588359D01*
X140430129Y-68679896D01*
X140668824Y-68680104D01*
X140889429Y-68588952D01*
X141058359Y-68420317D01*
X141149896Y-68199871D01*
X141150104Y-67961176D01*
X141058952Y-67740571D01*
X140890317Y-67571641D01*
X140669871Y-67480104D01*
X140431176Y-67479896D01*
X140210571Y-67571048D01*
X140041641Y-67739683D01*
X139950104Y-67960129D01*
X139949896Y-68198824D01*
X137538900Y-68198824D01*
X137538900Y-66929991D01*
X137668824Y-66930104D01*
X137889429Y-66838952D01*
X138058359Y-66670317D01*
X138149896Y-66449871D01*
X138149918Y-66423824D01*
X144649896Y-66423824D01*
X144741048Y-66644429D01*
X144909683Y-66813359D01*
X145130129Y-66904896D01*
X145368824Y-66905104D01*
X145589429Y-66813952D01*
X145758359Y-66645317D01*
X145849896Y-66424871D01*
X145850104Y-66186176D01*
X145758952Y-65965571D01*
X145590317Y-65796641D01*
X145369871Y-65705104D01*
X145131176Y-65704896D01*
X144910571Y-65796048D01*
X144741641Y-65964683D01*
X144650104Y-66185129D01*
X144649896Y-66423824D01*
X138149918Y-66423824D01*
X138150104Y-66211176D01*
X138058952Y-65990571D01*
X137890317Y-65821641D01*
X137669871Y-65730104D01*
X137431176Y-65729896D01*
X137210571Y-65821048D01*
X137041641Y-65989683D01*
X136950104Y-66210129D01*
X136949956Y-66380056D01*
X136875006Y-66455006D01*
X136790703Y-66581174D01*
X136761100Y-66730000D01*
X136761100Y-68267548D01*
X136690317Y-68196641D01*
X136469871Y-68105104D01*
X136231176Y-68104896D01*
X136113900Y-68153353D01*
X136113900Y-64891088D01*
X136175031Y-64829957D01*
X136343824Y-64830104D01*
X136564429Y-64738952D01*
X136733359Y-64570317D01*
X136745135Y-64541955D01*
X147865362Y-64541955D01*
X147956514Y-64762560D01*
X148074137Y-64880389D01*
X147957108Y-64997213D01*
X147865571Y-65217659D01*
X147865363Y-65456354D01*
X147956515Y-65676959D01*
X148048738Y-65769343D01*
X147957108Y-65860813D01*
X147865571Y-66081259D01*
X147865363Y-66319954D01*
X147956515Y-66540559D01*
X148125150Y-66709489D01*
X148345596Y-66801026D01*
X148584291Y-66801234D01*
X148804896Y-66710082D01*
X148973826Y-66541447D01*
X149065363Y-66321001D01*
X149065571Y-66082306D01*
X148974419Y-65861701D01*
X148882196Y-65769317D01*
X148973826Y-65677847D01*
X149065363Y-65457401D01*
X149065571Y-65218706D01*
X148974419Y-64998101D01*
X148856796Y-64880272D01*
X148973825Y-64763448D01*
X149065362Y-64543002D01*
X149065570Y-64304307D01*
X148974418Y-64083702D01*
X148805783Y-63914772D01*
X148585337Y-63823235D01*
X148346642Y-63823027D01*
X148126037Y-63914179D01*
X147957107Y-64082814D01*
X147865570Y-64303260D01*
X147865362Y-64541955D01*
X136745135Y-64541955D01*
X136824896Y-64349871D01*
X136825104Y-64111176D01*
X136733952Y-63890571D01*
X136565317Y-63721641D01*
X136344871Y-63630104D01*
X136106176Y-63629896D01*
X135885571Y-63721048D01*
X135716641Y-63889683D01*
X135625104Y-64110129D01*
X135624956Y-64280056D01*
X135450006Y-64455006D01*
X135365703Y-64581174D01*
X135336100Y-64730000D01*
X135336100Y-71420433D01*
X135216641Y-71539683D01*
X135125104Y-71760129D01*
X135124896Y-71998824D01*
X130453682Y-71998824D01*
X130408952Y-71890571D01*
X130288900Y-71770309D01*
X130288900Y-71198824D01*
X131249896Y-71198824D01*
X131341048Y-71419429D01*
X131509683Y-71588359D01*
X131730129Y-71679896D01*
X131968824Y-71680104D01*
X132189429Y-71588952D01*
X132358359Y-71420317D01*
X132449896Y-71199871D01*
X132450104Y-70961176D01*
X132358952Y-70740571D01*
X132198748Y-70580087D01*
X132218824Y-70580104D01*
X132439429Y-70488952D01*
X132608359Y-70320317D01*
X132699896Y-70099871D01*
X132700104Y-69861176D01*
X132608952Y-69640571D01*
X132440317Y-69471641D01*
X132310628Y-69417790D01*
X132458359Y-69270317D01*
X132549896Y-69049871D01*
X132550104Y-68811176D01*
X132458952Y-68590571D01*
X132290317Y-68421641D01*
X132069871Y-68330104D01*
X131831176Y-68329896D01*
X131610571Y-68421048D01*
X131441641Y-68589683D01*
X131350104Y-68810129D01*
X131349896Y-69048824D01*
X131441048Y-69269429D01*
X131609683Y-69438359D01*
X131739372Y-69492210D01*
X131591641Y-69639683D01*
X131500104Y-69860129D01*
X131499896Y-70098824D01*
X131591048Y-70319429D01*
X131751252Y-70479913D01*
X131731176Y-70479896D01*
X131510571Y-70571048D01*
X131341641Y-70739683D01*
X131250104Y-70960129D01*
X131249896Y-71198824D01*
X130288900Y-71198824D01*
X130288900Y-67942365D01*
X130409683Y-68063359D01*
X130630129Y-68154896D01*
X130868824Y-68155104D01*
X131089429Y-68063952D01*
X131258359Y-67895317D01*
X131349896Y-67674871D01*
X131350104Y-67436176D01*
X131258952Y-67215571D01*
X131090317Y-67046641D01*
X130869871Y-66955104D01*
X130631176Y-66954896D01*
X130410571Y-67046048D01*
X130288900Y-67167507D01*
X130288900Y-60298824D01*
X132324896Y-60298824D01*
X132416048Y-60519429D01*
X132584683Y-60688359D01*
X132805129Y-60779896D01*
X133043824Y-60780104D01*
X133264429Y-60688952D01*
X133433359Y-60520317D01*
X133524896Y-60299871D01*
X133525104Y-60061176D01*
X133433952Y-59840571D01*
X133265317Y-59671641D01*
X133044871Y-59580104D01*
X132806176Y-59579896D01*
X132585571Y-59671048D01*
X132416641Y-59839683D01*
X132325104Y-60060129D01*
X132324896Y-60298824D01*
X130288900Y-60298824D01*
X130288900Y-57107746D01*
X143099801Y-57107746D01*
X143274509Y-57530572D01*
X143597727Y-57854354D01*
X144020247Y-58029800D01*
X144477746Y-58030199D01*
X144900572Y-57855491D01*
X145224354Y-57532273D01*
X145399800Y-57109753D01*
X145400199Y-56652254D01*
X145225491Y-56229428D01*
X144902273Y-55905646D01*
X144479753Y-55730200D01*
X144022254Y-55729801D01*
X143599428Y-55904509D01*
X143275646Y-56227727D01*
X143100200Y-56650247D01*
X143099801Y-57107746D01*
X130288900Y-57107746D01*
X130288900Y-54923824D01*
X134899896Y-54923824D01*
X134991048Y-55144429D01*
X135159683Y-55313359D01*
X135380129Y-55404896D01*
X135618824Y-55405104D01*
X135839429Y-55313952D01*
X136008359Y-55145317D01*
X136099896Y-54924871D01*
X136099940Y-54873824D01*
X139424896Y-54873824D01*
X139516048Y-55094429D01*
X139684683Y-55263359D01*
X139905129Y-55354896D01*
X140143824Y-55355104D01*
X140364429Y-55263952D01*
X140533359Y-55095317D01*
X140624896Y-54874871D01*
X140625104Y-54636176D01*
X140533952Y-54415571D01*
X140365317Y-54246641D01*
X140144871Y-54155104D01*
X139906176Y-54154896D01*
X139685571Y-54246048D01*
X139516641Y-54414683D01*
X139425104Y-54635129D01*
X139424896Y-54873824D01*
X136099940Y-54873824D01*
X136100104Y-54686176D01*
X136008952Y-54465571D01*
X135840317Y-54296641D01*
X135619871Y-54205104D01*
X135381176Y-54204896D01*
X135160571Y-54296048D01*
X134991641Y-54464683D01*
X134900104Y-54685129D01*
X134899896Y-54923824D01*
X130288900Y-54923824D01*
X130288900Y-54014567D01*
X130408359Y-53895317D01*
X130499896Y-53674871D01*
X130500104Y-53436176D01*
X130408952Y-53215571D01*
X130298551Y-53104977D01*
X130383359Y-53020317D01*
X130474896Y-52799871D01*
X130475104Y-52561176D01*
X130383952Y-52340571D01*
X130215317Y-52171641D01*
X129994871Y-52080104D01*
X129756176Y-52079896D01*
X129535571Y-52171048D01*
X129366641Y-52339683D01*
X129275104Y-52560129D01*
X129274956Y-52730056D01*
X128908652Y-53096360D01*
X128833952Y-52915571D01*
X128665317Y-52746641D01*
X128444871Y-52655104D01*
X128206176Y-52654896D01*
X127985571Y-52746048D01*
X127816641Y-52914683D01*
X127725104Y-53135129D01*
X127724896Y-53373824D01*
X127816048Y-53594429D01*
X127923400Y-53701969D01*
X127923400Y-64708110D01*
X127816641Y-64814683D01*
X127725104Y-65035129D01*
X127724896Y-65273824D01*
X127816048Y-65494429D01*
X127984683Y-65663359D01*
X128205129Y-65754896D01*
X128443824Y-65755104D01*
X128664429Y-65663952D01*
X128736100Y-65592406D01*
X128736100Y-69691779D01*
X128683952Y-69565571D01*
X128515317Y-69396641D01*
X128294871Y-69305104D01*
X128056176Y-69304896D01*
X127835571Y-69396048D01*
X127666641Y-69564683D01*
X127575104Y-69785129D01*
X127574896Y-70023824D01*
X124588900Y-70023824D01*
X124588900Y-69339567D01*
X124708359Y-69220317D01*
X124799896Y-68999871D01*
X124800104Y-68761176D01*
X124708952Y-68540571D01*
X124540317Y-68371641D01*
X124319871Y-68280104D01*
X124081176Y-68279896D01*
X123860571Y-68371048D01*
X123691641Y-68539683D01*
X123600104Y-68760129D01*
X123599896Y-68998824D01*
X123691048Y-69219429D01*
X123811100Y-69339691D01*
X123811100Y-70069890D01*
X123594871Y-69980104D01*
X123375001Y-69979912D01*
X123375104Y-69861176D01*
X123283952Y-69640571D01*
X123115317Y-69471641D01*
X122894871Y-69380104D01*
X122656176Y-69379896D01*
X122435571Y-69471048D01*
X122266641Y-69639683D01*
X122175104Y-69860129D01*
X122174896Y-70098824D01*
X122266048Y-70319429D01*
X122373400Y-70426969D01*
X122373400Y-71855000D01*
X122403970Y-72008686D01*
X122471752Y-72110129D01*
X122491026Y-72138974D01*
X122682898Y-72330846D01*
X122682898Y-75322799D01*
X122519871Y-75255104D01*
X122449979Y-75255043D01*
X122450104Y-75111176D01*
X122358952Y-74890571D01*
X122190317Y-74721641D01*
X121969871Y-74630104D01*
X121731176Y-74629896D01*
X121510571Y-74721048D01*
X121341641Y-74889683D01*
X121250104Y-75110129D01*
X121249896Y-75348824D01*
X121341048Y-75569429D01*
X121509683Y-75738359D01*
X121730129Y-75829896D01*
X121800021Y-75829957D01*
X121799896Y-75973824D01*
X121891048Y-76194429D01*
X122059683Y-76363359D01*
X122280129Y-76454896D01*
X122518824Y-76455104D01*
X122682898Y-76387310D01*
X122682898Y-77169950D01*
X121149973Y-75637025D01*
X121150104Y-75486176D01*
X121058952Y-75265571D01*
X120890317Y-75096641D01*
X120669871Y-75005104D01*
X120431176Y-75004896D01*
X120210571Y-75096048D01*
X120210385Y-75096234D01*
X120434991Y-74760086D01*
X120522530Y-74320000D01*
X120434991Y-73879914D01*
X120185703Y-73506827D01*
X119812616Y-73257539D01*
X119372530Y-73170000D01*
X119327470Y-73170000D01*
X118887384Y-73257539D01*
X118514297Y-73506827D01*
X118265009Y-73879914D01*
X118177470Y-74320000D01*
X118265009Y-74760086D01*
X118514297Y-75133173D01*
X118887384Y-75382461D01*
X119327470Y-75470000D01*
X119372530Y-75470000D01*
X119812616Y-75382461D01*
X120148438Y-75158073D01*
X120041641Y-75264683D01*
X119950104Y-75485129D01*
X119949896Y-75723824D01*
X120041048Y-75944429D01*
X120058264Y-75961675D01*
X119812616Y-75797539D01*
X119372530Y-75710000D01*
X119327470Y-75710000D01*
X118887384Y-75797539D01*
X118514297Y-76046827D01*
X118265009Y-76419914D01*
X118177470Y-76860000D01*
X118265009Y-77300086D01*
X118514297Y-77673173D01*
X118887384Y-77922461D01*
X119327470Y-78010000D01*
X119372530Y-78010000D01*
X119812616Y-77922461D01*
X120185703Y-77673173D01*
X120434991Y-77300086D01*
X120522530Y-76860000D01*
X120434991Y-76419914D01*
X120238020Y-76125126D01*
X120430129Y-76204896D01*
X120582080Y-76205028D01*
X122023400Y-77646348D01*
X122023400Y-79804869D01*
X122001600Y-79783031D01*
X122001600Y-79180000D01*
X121971030Y-79026314D01*
X121883974Y-78896026D01*
X121174973Y-78187025D01*
X121175104Y-78036176D01*
X121083952Y-77815571D01*
X120915317Y-77646641D01*
X120694871Y-77555104D01*
X120456176Y-77554896D01*
X120235571Y-77646048D01*
X120066641Y-77814683D01*
X119975104Y-78035129D01*
X119974896Y-78273824D01*
X120066048Y-78494429D01*
X120103363Y-78531809D01*
X119812616Y-78337539D01*
X119372530Y-78250000D01*
X119327470Y-78250000D01*
X118887384Y-78337539D01*
X118514297Y-78586827D01*
X118265009Y-78959914D01*
X118177470Y-79400000D01*
X118265009Y-79840086D01*
X118514297Y-80213173D01*
X118887384Y-80462461D01*
X119327470Y-80550000D01*
X119372530Y-80550000D01*
X119812616Y-80462461D01*
X120185703Y-80213173D01*
X120434991Y-79840086D01*
X120522530Y-79400000D01*
X120434991Y-78959914D01*
X120237668Y-78664599D01*
X120455129Y-78754896D01*
X120607080Y-78755028D01*
X121198400Y-79346348D01*
X121198400Y-79783110D01*
X121091641Y-79889683D01*
X121000104Y-80110129D01*
X121000065Y-80154927D01*
X120819871Y-80080104D01*
X120581176Y-80079896D01*
X120360571Y-80171048D01*
X120191641Y-80339683D01*
X120100104Y-80560129D01*
X120099896Y-80798824D01*
X120191048Y-81019429D01*
X120359683Y-81188359D01*
X120580129Y-81279896D01*
X120818824Y-81280104D01*
X121039429Y-81188952D01*
X121208359Y-81020317D01*
X121299896Y-80799871D01*
X121299935Y-80755073D01*
X121480129Y-80829896D01*
X121718824Y-80830104D01*
X121939429Y-80738952D01*
X121999979Y-80678507D01*
X122084683Y-80763359D01*
X122305129Y-80854896D01*
X122543824Y-80855104D01*
X122682898Y-80797640D01*
X122682898Y-81038652D01*
X122541026Y-81180524D01*
X122453970Y-81310812D01*
X122423400Y-81464498D01*
X122423400Y-86180000D01*
X115225000Y-86180000D01*
X115225000Y-84480000D01*
X115477470Y-84480000D01*
X115565009Y-84920086D01*
X115814297Y-85293173D01*
X116187384Y-85542461D01*
X116627470Y-85630000D01*
X116672530Y-85630000D01*
X117112616Y-85542461D01*
X117485703Y-85293173D01*
X117734991Y-84920086D01*
X117822530Y-84480000D01*
X118177470Y-84480000D01*
X118265009Y-84920086D01*
X118514297Y-85293173D01*
X118887384Y-85542461D01*
X119327470Y-85630000D01*
X119372530Y-85630000D01*
X119812616Y-85542461D01*
X120185703Y-85293173D01*
X120434991Y-84920086D01*
X120522530Y-84480000D01*
X120434991Y-84039914D01*
X120185703Y-83666827D01*
X119812616Y-83417539D01*
X119372530Y-83330000D01*
X119327470Y-83330000D01*
X118887384Y-83417539D01*
X118514297Y-83666827D01*
X118265009Y-84039914D01*
X118177470Y-84480000D01*
X117822530Y-84480000D01*
X117734991Y-84039914D01*
X117485703Y-83666827D01*
X117112616Y-83417539D01*
X116672530Y-83330000D01*
X116627470Y-83330000D01*
X116187384Y-83417539D01*
X115814297Y-83666827D01*
X115565009Y-84039914D01*
X115477470Y-84480000D01*
X115225000Y-84480000D01*
X115225000Y-81940000D01*
X115477470Y-81940000D01*
X115565009Y-82380086D01*
X115814297Y-82753173D01*
X116187384Y-83002461D01*
X116627470Y-83090000D01*
X116672530Y-83090000D01*
X117112616Y-83002461D01*
X117485703Y-82753173D01*
X117734991Y-82380086D01*
X117822530Y-81940000D01*
X118177470Y-81940000D01*
X118265009Y-82380086D01*
X118514297Y-82753173D01*
X118887384Y-83002461D01*
X119327470Y-83090000D01*
X119372530Y-83090000D01*
X119812616Y-83002461D01*
X120185703Y-82753173D01*
X120434991Y-82380086D01*
X120522530Y-81940000D01*
X120434991Y-81499914D01*
X120185703Y-81126827D01*
X119812616Y-80877539D01*
X119372530Y-80790000D01*
X119327470Y-80790000D01*
X118887384Y-80877539D01*
X118514297Y-81126827D01*
X118265009Y-81499914D01*
X118177470Y-81940000D01*
X117822530Y-81940000D01*
X117734991Y-81499914D01*
X117485703Y-81126827D01*
X117112616Y-80877539D01*
X116672530Y-80790000D01*
X116627470Y-80790000D01*
X116187384Y-80877539D01*
X115814297Y-81126827D01*
X115565009Y-81499914D01*
X115477470Y-81940000D01*
X115225000Y-81940000D01*
X115225000Y-79400000D01*
X115477470Y-79400000D01*
X115565009Y-79840086D01*
X115814297Y-80213173D01*
X116187384Y-80462461D01*
X116627470Y-80550000D01*
X116672530Y-80550000D01*
X117112616Y-80462461D01*
X117485703Y-80213173D01*
X117734991Y-79840086D01*
X117822530Y-79400000D01*
X117734991Y-78959914D01*
X117485703Y-78586827D01*
X117112616Y-78337539D01*
X116672530Y-78250000D01*
X116627470Y-78250000D01*
X116187384Y-78337539D01*
X115814297Y-78586827D01*
X115565009Y-78959914D01*
X115477470Y-79400000D01*
X115225000Y-79400000D01*
X115225000Y-76860000D01*
X115477470Y-76860000D01*
X115565009Y-77300086D01*
X115814297Y-77673173D01*
X116187384Y-77922461D01*
X116627470Y-78010000D01*
X116672530Y-78010000D01*
X117112616Y-77922461D01*
X117485703Y-77673173D01*
X117734991Y-77300086D01*
X117822530Y-76860000D01*
X117734991Y-76419914D01*
X117485703Y-76046827D01*
X117112616Y-75797539D01*
X116672530Y-75710000D01*
X116627470Y-75710000D01*
X116187384Y-75797539D01*
X115814297Y-76046827D01*
X115565009Y-76419914D01*
X115477470Y-76860000D01*
X115225000Y-76860000D01*
X115225000Y-74320000D01*
X115477470Y-74320000D01*
X115565009Y-74760086D01*
X115814297Y-75133173D01*
X116187384Y-75382461D01*
X116627470Y-75470000D01*
X116672530Y-75470000D01*
X117112616Y-75382461D01*
X117485703Y-75133173D01*
X117734991Y-74760086D01*
X117822530Y-74320000D01*
X117734991Y-73879914D01*
X117485703Y-73506827D01*
X117112616Y-73257539D01*
X116672530Y-73170000D01*
X116627470Y-73170000D01*
X116187384Y-73257539D01*
X115814297Y-73506827D01*
X115565009Y-73879914D01*
X115477470Y-74320000D01*
X115225000Y-74320000D01*
X115225000Y-72005000D01*
X115500000Y-72005000D01*
X115500000Y-72689673D01*
X115545672Y-72799936D01*
X115630063Y-72884328D01*
X115740326Y-72930000D01*
X116425000Y-72930000D01*
X116500000Y-72855000D01*
X116500000Y-71930000D01*
X116800000Y-71930000D01*
X116800000Y-72855000D01*
X116875000Y-72930000D01*
X117559674Y-72930000D01*
X117669937Y-72884328D01*
X117754328Y-72799936D01*
X117800000Y-72689673D01*
X117800000Y-72005000D01*
X118200000Y-72005000D01*
X118200000Y-72689673D01*
X118245672Y-72799936D01*
X118330063Y-72884328D01*
X118440326Y-72930000D01*
X119125000Y-72930000D01*
X119200000Y-72855000D01*
X119200000Y-71930000D01*
X119500000Y-71930000D01*
X119500000Y-72855000D01*
X119575000Y-72930000D01*
X120259674Y-72930000D01*
X120369937Y-72884328D01*
X120454328Y-72799936D01*
X120500000Y-72689673D01*
X120500000Y-72005000D01*
X120425000Y-71930000D01*
X119500000Y-71930000D01*
X119200000Y-71930000D01*
X118275000Y-71930000D01*
X118200000Y-72005000D01*
X117800000Y-72005000D01*
X117725000Y-71930000D01*
X116800000Y-71930000D01*
X116500000Y-71930000D01*
X115575000Y-71930000D01*
X115500000Y-72005000D01*
X115225000Y-72005000D01*
X115225000Y-70870327D01*
X115500000Y-70870327D01*
X115500000Y-71555000D01*
X115575000Y-71630000D01*
X116500000Y-71630000D01*
X116500000Y-70705000D01*
X116800000Y-70705000D01*
X116800000Y-71630000D01*
X117725000Y-71630000D01*
X117800000Y-71555000D01*
X117800000Y-70870327D01*
X118200000Y-70870327D01*
X118200000Y-71555000D01*
X118275000Y-71630000D01*
X119200000Y-71630000D01*
X119200000Y-70705000D01*
X119500000Y-70705000D01*
X119500000Y-71630000D01*
X120425000Y-71630000D01*
X120500000Y-71555000D01*
X120500000Y-70870327D01*
X120454328Y-70760064D01*
X120369937Y-70675672D01*
X120259674Y-70630000D01*
X119575000Y-70630000D01*
X119500000Y-70705000D01*
X119200000Y-70705000D01*
X119125000Y-70630000D01*
X118440326Y-70630000D01*
X118330063Y-70675672D01*
X118245672Y-70760064D01*
X118200000Y-70870327D01*
X117800000Y-70870327D01*
X117754328Y-70760064D01*
X117669937Y-70675672D01*
X117559674Y-70630000D01*
X116875000Y-70630000D01*
X116800000Y-70705000D01*
X116500000Y-70705000D01*
X116425000Y-70630000D01*
X115740326Y-70630000D01*
X115630063Y-70675672D01*
X115545672Y-70760064D01*
X115500000Y-70870327D01*
X115225000Y-70870327D01*
X115225000Y-64598824D01*
X118474896Y-64598824D01*
X118566048Y-64819429D01*
X118676460Y-64930034D01*
X118578641Y-65027683D01*
X118487104Y-65248129D01*
X118486896Y-65486824D01*
X118578048Y-65707429D01*
X118675959Y-65805512D01*
X118591641Y-65889683D01*
X118500104Y-66110129D01*
X118499896Y-66348824D01*
X118591048Y-66569429D01*
X118759683Y-66738359D01*
X118980129Y-66829896D01*
X119218824Y-66830104D01*
X119439429Y-66738952D01*
X119608359Y-66570317D01*
X119699896Y-66349871D01*
X119700104Y-66111176D01*
X119608952Y-65890571D01*
X119511041Y-65792488D01*
X119595359Y-65708317D01*
X119686896Y-65487871D01*
X119687104Y-65249176D01*
X119676629Y-65223824D01*
X121799896Y-65223824D01*
X121891048Y-65444429D01*
X122059683Y-65613359D01*
X122280129Y-65704896D01*
X122518824Y-65705104D01*
X122739429Y-65613952D01*
X122908359Y-65445317D01*
X122999896Y-65224871D01*
X123000104Y-64986176D01*
X122908952Y-64765571D01*
X122740317Y-64596641D01*
X122519871Y-64505104D01*
X122281176Y-64504896D01*
X122060571Y-64596048D01*
X121891641Y-64764683D01*
X121800104Y-64985129D01*
X121799896Y-65223824D01*
X119676629Y-65223824D01*
X119595952Y-65028571D01*
X119485540Y-64917966D01*
X119583359Y-64820317D01*
X119674896Y-64599871D01*
X119675005Y-64473824D01*
X125274896Y-64473824D01*
X125366048Y-64694429D01*
X125534683Y-64863359D01*
X125755129Y-64954896D01*
X125993824Y-64955104D01*
X126214429Y-64863952D01*
X126383359Y-64695317D01*
X126474896Y-64474871D01*
X126475104Y-64236176D01*
X126383952Y-64015571D01*
X126215317Y-63846641D01*
X125994871Y-63755104D01*
X125756176Y-63754896D01*
X125535571Y-63846048D01*
X125366641Y-64014683D01*
X125275104Y-64235129D01*
X125274896Y-64473824D01*
X119675005Y-64473824D01*
X119675104Y-64361176D01*
X119583952Y-64140571D01*
X119415317Y-63971641D01*
X119194871Y-63880104D01*
X118956176Y-63879896D01*
X118735571Y-63971048D01*
X118566641Y-64139683D01*
X118475104Y-64360129D01*
X118474896Y-64598824D01*
X115225000Y-64598824D01*
X115225000Y-59623824D01*
X121024896Y-59623824D01*
X121116048Y-59844429D01*
X121284683Y-60013359D01*
X121505129Y-60104896D01*
X121743824Y-60105104D01*
X121964429Y-60013952D01*
X122133359Y-59845317D01*
X122224896Y-59624871D01*
X122225104Y-59386176D01*
X122133952Y-59165571D01*
X121965317Y-58996641D01*
X121744871Y-58905104D01*
X121506176Y-58904896D01*
X121285571Y-58996048D01*
X121116641Y-59164683D01*
X121025104Y-59385129D01*
X121024896Y-59623824D01*
X115225000Y-59623824D01*
X115225000Y-57107746D01*
X122299801Y-57107746D01*
X122474509Y-57530572D01*
X122797727Y-57854354D01*
X123220247Y-58029800D01*
X123677746Y-58030199D01*
X124100572Y-57855491D01*
X124424354Y-57532273D01*
X124599800Y-57109753D01*
X124600199Y-56652254D01*
X124425491Y-56229428D01*
X124102273Y-55905646D01*
X123679753Y-55730200D01*
X123222254Y-55729801D01*
X122799428Y-55904509D01*
X122475646Y-56227727D01*
X122300200Y-56650247D01*
X122299801Y-57107746D01*
X115225000Y-57107746D01*
X115225000Y-51623824D01*
X135024896Y-51623824D01*
X135116048Y-51844429D01*
X135284683Y-52013359D01*
X135505129Y-52104896D01*
X135743824Y-52105104D01*
X135964429Y-52013952D01*
X136133359Y-51845317D01*
X136224896Y-51624871D01*
X136224918Y-51598824D01*
X145524896Y-51598824D01*
X145616048Y-51819429D01*
X145784683Y-51988359D01*
X146005129Y-52079896D01*
X146243824Y-52080104D01*
X146464429Y-51988952D01*
X146633359Y-51820317D01*
X146724896Y-51599871D01*
X146725104Y-51361176D01*
X146633952Y-51140571D01*
X146465317Y-50971641D01*
X146244871Y-50880104D01*
X146006176Y-50879896D01*
X145785571Y-50971048D01*
X145616641Y-51139683D01*
X145525104Y-51360129D01*
X145524896Y-51598824D01*
X136224918Y-51598824D01*
X136225104Y-51386176D01*
X136133952Y-51165571D01*
X135965317Y-50996641D01*
X135744871Y-50905104D01*
X135506176Y-50904896D01*
X135285571Y-50996048D01*
X135116641Y-51164683D01*
X135025104Y-51385129D01*
X135024896Y-51623824D01*
X115225000Y-51623824D01*
X115225000Y-50107746D01*
X122299801Y-50107746D01*
X122474509Y-50530572D01*
X122797727Y-50854354D01*
X123220247Y-51029800D01*
X123677746Y-51030199D01*
X124100572Y-50855491D01*
X124424354Y-50532273D01*
X124599800Y-50109753D01*
X124599801Y-50107746D01*
X143099801Y-50107746D01*
X143274509Y-50530572D01*
X143597727Y-50854354D01*
X144020247Y-51029800D01*
X144477746Y-51030199D01*
X144900572Y-50855491D01*
X145224354Y-50532273D01*
X145399800Y-50109753D01*
X145400199Y-49652254D01*
X145225491Y-49229428D01*
X144902273Y-48905646D01*
X144479753Y-48730200D01*
X144022254Y-48729801D01*
X143599428Y-48904509D01*
X143275646Y-49227727D01*
X143100200Y-49650247D01*
X143099801Y-50107746D01*
X124599801Y-50107746D01*
X124600199Y-49652254D01*
X124425491Y-49229428D01*
X124145376Y-48948824D01*
X136999896Y-48948824D01*
X137091048Y-49169429D01*
X137259683Y-49338359D01*
X137480129Y-49429896D01*
X137718824Y-49430104D01*
X137939429Y-49338952D01*
X138108359Y-49170317D01*
X138199896Y-48949871D01*
X138200104Y-48711176D01*
X138108952Y-48490571D01*
X137940317Y-48321641D01*
X137719871Y-48230104D01*
X137481176Y-48229896D01*
X137260571Y-48321048D01*
X137091641Y-48489683D01*
X137000104Y-48710129D01*
X136999896Y-48948824D01*
X124145376Y-48948824D01*
X124102273Y-48905646D01*
X123679753Y-48730200D01*
X123222254Y-48729801D01*
X122799428Y-48904509D01*
X122475646Y-49227727D01*
X122300200Y-49650247D01*
X122299801Y-50107746D01*
X115225000Y-50107746D01*
X115225000Y-46855000D01*
X152475000Y-46855000D01*
X152475000Y-92380000D01*
G36*
X122423400Y-98513652D02*
X121341026Y-99596026D01*
X121253970Y-99726314D01*
X121223400Y-99880000D01*
X121223400Y-112055000D01*
X121250079Y-112189123D01*
X121249896Y-112398824D01*
X121341048Y-112619429D01*
X121509683Y-112788359D01*
X121730129Y-112879896D01*
X121968824Y-112880104D01*
X122189429Y-112788952D01*
X122358359Y-112620317D01*
X122449896Y-112399871D01*
X122450104Y-112161176D01*
X122358952Y-111940571D01*
X122190317Y-111771641D01*
X122026600Y-111703660D01*
X122026600Y-107666145D01*
X122180129Y-107729896D01*
X122418824Y-107730104D01*
X122639429Y-107638952D01*
X122808359Y-107470317D01*
X122899896Y-107249871D01*
X122900104Y-107011176D01*
X122808952Y-106790571D01*
X122640317Y-106621641D01*
X122419871Y-106530104D01*
X122181176Y-106529896D01*
X122026600Y-106593765D01*
X122026600Y-103576526D01*
X122155129Y-103629896D01*
X122393824Y-103630104D01*
X122614429Y-103538952D01*
X122783359Y-103370317D01*
X122874896Y-103149871D01*
X122875104Y-102911176D01*
X122783952Y-102690571D01*
X122615317Y-102521641D01*
X122394871Y-102430104D01*
X122156176Y-102429896D01*
X122026600Y-102483436D01*
X122026600Y-100046348D01*
X122373400Y-99699548D01*
X122373400Y-101030000D01*
X122403970Y-101183686D01*
X122417143Y-101203400D01*
X122491026Y-101313974D01*
X122948400Y-101771348D01*
X122948400Y-105583110D01*
X122841641Y-105689683D01*
X122750104Y-105910129D01*
X122749896Y-106148824D01*
X122841048Y-106369429D01*
X123009683Y-106538359D01*
X123230129Y-106629896D01*
X123468824Y-106630104D01*
X123689429Y-106538952D01*
X123858359Y-106370317D01*
X123949896Y-106149871D01*
X123950104Y-105911176D01*
X123858952Y-105690571D01*
X123751600Y-105583031D01*
X123751600Y-105230087D01*
X123859683Y-105338359D01*
X124080129Y-105429896D01*
X124318824Y-105430104D01*
X124539429Y-105338952D01*
X124573400Y-105305040D01*
X124573400Y-105938652D01*
X123266026Y-107246026D01*
X123178970Y-107376314D01*
X123148400Y-107530000D01*
X123148400Y-110183110D01*
X123041641Y-110289683D01*
X122950104Y-110510129D01*
X122949896Y-110748824D01*
X123041048Y-110969429D01*
X123209683Y-111138359D01*
X123430129Y-111229896D01*
X123668824Y-111230104D01*
X123889429Y-111138952D01*
X123973400Y-111055128D01*
X123973400Y-113138652D01*
X121807025Y-115305027D01*
X121656176Y-115304896D01*
X121435571Y-115396048D01*
X121266641Y-115564683D01*
X121175104Y-115785129D01*
X121174896Y-116023824D01*
X121266048Y-116244429D01*
X121434683Y-116413359D01*
X121655129Y-116504896D01*
X121893824Y-116505104D01*
X122114429Y-116413952D01*
X122283359Y-116245317D01*
X122374896Y-116024871D01*
X122375028Y-115872920D01*
X123225027Y-115022921D01*
X123224896Y-115173824D01*
X123316048Y-115394429D01*
X123484683Y-115563359D01*
X123705129Y-115654896D01*
X123943824Y-115655104D01*
X124164429Y-115563952D01*
X124333359Y-115395317D01*
X124373426Y-115298824D01*
X125699896Y-115298824D01*
X125791048Y-115519429D01*
X125959683Y-115688359D01*
X126180129Y-115779896D01*
X126418824Y-115780104D01*
X126639429Y-115688952D01*
X126808359Y-115520317D01*
X126899896Y-115299871D01*
X126900104Y-115061176D01*
X126808952Y-114840571D01*
X126640317Y-114671641D01*
X126419871Y-114580104D01*
X126181176Y-114579896D01*
X125960571Y-114671048D01*
X125791641Y-114839683D01*
X125700104Y-115060129D01*
X125699896Y-115298824D01*
X124373426Y-115298824D01*
X124424896Y-115174871D01*
X124425028Y-115022920D01*
X125999124Y-113448824D01*
X128799896Y-113448824D01*
X128891048Y-113669429D01*
X129059683Y-113838359D01*
X129280129Y-113929896D01*
X129518824Y-113930104D01*
X129739429Y-113838952D01*
X129908359Y-113670317D01*
X129998400Y-113453474D01*
X129998400Y-114155000D01*
X130028970Y-114308686D01*
X130096752Y-114410129D01*
X130116026Y-114438974D01*
X132750027Y-117072975D01*
X132749896Y-117223824D01*
X132841048Y-117444429D01*
X133009683Y-117613359D01*
X133230129Y-117704896D01*
X133468824Y-117705104D01*
X133689429Y-117613952D01*
X133858359Y-117445317D01*
X133949896Y-117224871D01*
X133950104Y-116986176D01*
X133872692Y-116798824D01*
X136449896Y-116798824D01*
X136541048Y-117019429D01*
X136709683Y-117188359D01*
X136930129Y-117279896D01*
X137168824Y-117280104D01*
X137389429Y-117188952D01*
X137531736Y-117046893D01*
X137541048Y-117069429D01*
X137709683Y-117238359D01*
X137930129Y-117329896D01*
X138168824Y-117330104D01*
X138389429Y-117238952D01*
X138550132Y-117078529D01*
X138709683Y-117238359D01*
X138930129Y-117329896D01*
X139168824Y-117330104D01*
X139389429Y-117238952D01*
X139558359Y-117070317D01*
X139649896Y-116849871D01*
X139650104Y-116611176D01*
X139558952Y-116390571D01*
X139390317Y-116221641D01*
X139169871Y-116130104D01*
X138931176Y-116129896D01*
X138710571Y-116221048D01*
X138549868Y-116381471D01*
X138390317Y-116221641D01*
X138169871Y-116130104D01*
X137931176Y-116129896D01*
X137710571Y-116221048D01*
X137568264Y-116363107D01*
X137558952Y-116340571D01*
X137390317Y-116171641D01*
X137169871Y-116080104D01*
X136931176Y-116079896D01*
X136710571Y-116171048D01*
X136541641Y-116339683D01*
X136450104Y-116560129D01*
X136449896Y-116798824D01*
X133872692Y-116798824D01*
X133858952Y-116765571D01*
X133690317Y-116596641D01*
X133469871Y-116505104D01*
X133317920Y-116504972D01*
X131461772Y-114648824D01*
X141424896Y-114648824D01*
X141516048Y-114869429D01*
X141684683Y-115038359D01*
X141905129Y-115129896D01*
X142143824Y-115130104D01*
X142364429Y-115038952D01*
X142424979Y-114978507D01*
X142509683Y-115063359D01*
X142730129Y-115154896D01*
X142968824Y-115155104D01*
X143189429Y-115063952D01*
X143358359Y-114895317D01*
X143449896Y-114674871D01*
X143450104Y-114436176D01*
X143358952Y-114215571D01*
X143190317Y-114046641D01*
X142969871Y-113955104D01*
X142731176Y-113954896D01*
X142510571Y-114046048D01*
X142450021Y-114106493D01*
X142365317Y-114021641D01*
X142144871Y-113930104D01*
X141906176Y-113929896D01*
X141685571Y-114021048D01*
X141516641Y-114189683D01*
X141425104Y-114410129D01*
X141424896Y-114648824D01*
X131461772Y-114648824D01*
X130801600Y-113988652D01*
X130801600Y-112398824D01*
X132499896Y-112398824D01*
X132591048Y-112619429D01*
X132759683Y-112788359D01*
X132980129Y-112879896D01*
X133218824Y-112880104D01*
X133439429Y-112788952D01*
X133608359Y-112620317D01*
X133699896Y-112399871D01*
X133700104Y-112161176D01*
X133608952Y-111940571D01*
X133498660Y-111830086D01*
X133518824Y-111830104D01*
X133739429Y-111738952D01*
X133908359Y-111570317D01*
X133999896Y-111349871D01*
X134000104Y-111111176D01*
X133908952Y-110890571D01*
X133740317Y-110721641D01*
X133519871Y-110630104D01*
X133281176Y-110629896D01*
X133060571Y-110721048D01*
X132891641Y-110889683D01*
X132800104Y-111110129D01*
X132799896Y-111348824D01*
X132891048Y-111569429D01*
X133001340Y-111679914D01*
X132981176Y-111679896D01*
X132760571Y-111771048D01*
X132591641Y-111939683D01*
X132500104Y-112160129D01*
X132499896Y-112398824D01*
X130801600Y-112398824D01*
X130801600Y-109998824D01*
X132799896Y-109998824D01*
X132891048Y-110219429D01*
X133059683Y-110388359D01*
X133280129Y-110479896D01*
X133518824Y-110480104D01*
X133739429Y-110388952D01*
X133908359Y-110220317D01*
X133999896Y-109999871D01*
X134000104Y-109761176D01*
X133908952Y-109540571D01*
X133740317Y-109371641D01*
X133519871Y-109280104D01*
X133281176Y-109279896D01*
X133060571Y-109371048D01*
X132891641Y-109539683D01*
X132800104Y-109760129D01*
X132799896Y-109998824D01*
X130801600Y-109998824D01*
X130801600Y-103273824D01*
X132424896Y-103273824D01*
X132516048Y-103494429D01*
X132684683Y-103663359D01*
X132905129Y-103754896D01*
X133143824Y-103755104D01*
X133364429Y-103663952D01*
X133533359Y-103495317D01*
X133624896Y-103274871D01*
X133625104Y-103036176D01*
X133533952Y-102815571D01*
X133365317Y-102646641D01*
X133144871Y-102555104D01*
X132906176Y-102554896D01*
X132685571Y-102646048D01*
X132516641Y-102814683D01*
X132425104Y-103035129D01*
X132424896Y-103273824D01*
X130801600Y-103273824D01*
X130801600Y-98876890D01*
X130908359Y-98770317D01*
X130999896Y-98549871D01*
X131000104Y-98311176D01*
X130908952Y-98090571D01*
X130740317Y-97921641D01*
X130519871Y-97830104D01*
X130281176Y-97829896D01*
X130060571Y-97921048D01*
X129891641Y-98089683D01*
X129800104Y-98310129D01*
X129799896Y-98548824D01*
X129891048Y-98769429D01*
X129998400Y-98876969D01*
X129998400Y-108286043D01*
X129958952Y-108190571D01*
X129790317Y-108021641D01*
X129569871Y-107930104D01*
X129331176Y-107929896D01*
X129110571Y-108021048D01*
X128941641Y-108189683D01*
X128850104Y-108410129D01*
X128849896Y-108648824D01*
X128941048Y-108869429D01*
X129109683Y-109038359D01*
X129330129Y-109129896D01*
X129568824Y-109130104D01*
X129789429Y-109038952D01*
X129958359Y-108870317D01*
X129998400Y-108773887D01*
X129998400Y-113207052D01*
X129908952Y-112990571D01*
X129740317Y-112821641D01*
X129519871Y-112730104D01*
X129281176Y-112729896D01*
X129060571Y-112821048D01*
X128891641Y-112989683D01*
X128800104Y-113210129D01*
X128799896Y-113448824D01*
X125999124Y-113448824D01*
X126383974Y-113063974D01*
X126412671Y-113021026D01*
X126471030Y-112933686D01*
X126501600Y-112780000D01*
X126501600Y-104126526D01*
X126630129Y-104179896D01*
X126868824Y-104180104D01*
X127089429Y-104088952D01*
X127258359Y-103920317D01*
X127349896Y-103699871D01*
X127350104Y-103461176D01*
X127316542Y-103379950D01*
X127493824Y-103380104D01*
X127714429Y-103288952D01*
X127883359Y-103120317D01*
X127899999Y-103080243D01*
X127899896Y-103198824D01*
X127991048Y-103419429D01*
X128159683Y-103588359D01*
X128380129Y-103679896D01*
X128618824Y-103680104D01*
X128839429Y-103588952D01*
X129008359Y-103420317D01*
X129099896Y-103199871D01*
X129100104Y-102961176D01*
X129008952Y-102740571D01*
X128840317Y-102571641D01*
X128619871Y-102480104D01*
X128381176Y-102479896D01*
X128160571Y-102571048D01*
X127991641Y-102739683D01*
X127975001Y-102779757D01*
X127975104Y-102661176D01*
X127883952Y-102440571D01*
X127715317Y-102271641D01*
X127494871Y-102180104D01*
X127256176Y-102179896D01*
X127035571Y-102271048D01*
X126866641Y-102439683D01*
X126775104Y-102660129D01*
X126774896Y-102898824D01*
X126808458Y-102980050D01*
X126631176Y-102979896D01*
X126501600Y-103033436D01*
X126501600Y-92826933D01*
X126573269Y-92755390D01*
X126641048Y-92919429D01*
X126809683Y-93088359D01*
X127030129Y-93179896D01*
X127268824Y-93180104D01*
X127489429Y-93088952D01*
X127564011Y-93014500D01*
X127566048Y-93019429D01*
X127734683Y-93188359D01*
X127955129Y-93279896D01*
X128193824Y-93280104D01*
X128414429Y-93188952D01*
X128583359Y-93020317D01*
X128674896Y-92799871D01*
X128675104Y-92561176D01*
X128583952Y-92340571D01*
X128476600Y-92233031D01*
X128476600Y-91630000D01*
X132309500Y-91630000D01*
X132309500Y-93480000D01*
X132346837Y-93667706D01*
X132453164Y-93826836D01*
X132949918Y-94323590D01*
X132949896Y-94348824D01*
X133041048Y-94569429D01*
X133209683Y-94738359D01*
X133430129Y-94829896D01*
X133668824Y-94830104D01*
X133889429Y-94738952D01*
X134058359Y-94570317D01*
X134149896Y-94349871D01*
X134150104Y-94111176D01*
X134058952Y-93890571D01*
X133890317Y-93721641D01*
X133850415Y-93705072D01*
X133889429Y-93688952D01*
X134058359Y-93520317D01*
X134149896Y-93299871D01*
X134150104Y-93061176D01*
X134058952Y-92840571D01*
X133890317Y-92671641D01*
X133714954Y-92598824D01*
X135249896Y-92598824D01*
X135341048Y-92819429D01*
X135509683Y-92988359D01*
X135730129Y-93079896D01*
X135968824Y-93080104D01*
X136189429Y-92988952D01*
X136358359Y-92820317D01*
X136449896Y-92599871D01*
X136450104Y-92361176D01*
X136358952Y-92140571D01*
X136190317Y-91971641D01*
X135969871Y-91880104D01*
X135731176Y-91879896D01*
X135510571Y-91971048D01*
X135341641Y-92139683D01*
X135250104Y-92360129D01*
X135249896Y-92598824D01*
X133714954Y-92598824D01*
X133669871Y-92580104D01*
X133431176Y-92579896D01*
X133290500Y-92638022D01*
X133290500Y-91959169D01*
X133339429Y-91938952D01*
X133508359Y-91770317D01*
X133599896Y-91549871D01*
X133600104Y-91311176D01*
X133508952Y-91090571D01*
X133340317Y-90921641D01*
X133119871Y-90830104D01*
X132881176Y-90829896D01*
X132660571Y-90921048D01*
X132491641Y-91089683D01*
X132400104Y-91310129D01*
X132400058Y-91362643D01*
X132346837Y-91442294D01*
X132309500Y-91630000D01*
X128476600Y-91630000D01*
X128476600Y-86780000D01*
X130251621Y-86780000D01*
X130203970Y-86851314D01*
X130173400Y-87005000D01*
X130173400Y-87733110D01*
X130066641Y-87839683D01*
X129975104Y-88060129D01*
X129974896Y-88298824D01*
X130066048Y-88519429D01*
X130234683Y-88688359D01*
X130455129Y-88779896D01*
X130693824Y-88780104D01*
X130914429Y-88688952D01*
X131083359Y-88520317D01*
X131174896Y-88299871D01*
X131175104Y-88061176D01*
X131083952Y-87840571D01*
X130976600Y-87733031D01*
X130976600Y-87171348D01*
X131367948Y-86780000D01*
X135382052Y-86780000D01*
X133607025Y-88555027D01*
X133456176Y-88554896D01*
X133235571Y-88646048D01*
X133066641Y-88814683D01*
X133056790Y-88838406D01*
X132890317Y-88671641D01*
X132669871Y-88580104D01*
X132431176Y-88579896D01*
X132210571Y-88671048D01*
X132041641Y-88839683D01*
X131950104Y-89060129D01*
X131949896Y-89298824D01*
X132041048Y-89519429D01*
X132209683Y-89688359D01*
X132430129Y-89779896D01*
X132668824Y-89780104D01*
X132889429Y-89688952D01*
X133058359Y-89520317D01*
X133068210Y-89496594D01*
X133234683Y-89663359D01*
X133455129Y-89754896D01*
X133693824Y-89755104D01*
X133914429Y-89663952D01*
X134083359Y-89495317D01*
X134174896Y-89274871D01*
X134175028Y-89122920D01*
X136517948Y-86780000D01*
X139918757Y-86780000D01*
X139875104Y-86885129D01*
X139874896Y-87123824D01*
X139966048Y-87344429D01*
X140134683Y-87513359D01*
X140355129Y-87604896D01*
X140593824Y-87605104D01*
X140814429Y-87513952D01*
X140983359Y-87345317D01*
X141074896Y-87124871D01*
X141074972Y-87037172D01*
X141748400Y-87689555D01*
X141748400Y-89079957D01*
X141615317Y-88946641D01*
X141394871Y-88855104D01*
X141156176Y-88854896D01*
X140935571Y-88946048D01*
X140766641Y-89114683D01*
X140675104Y-89335129D01*
X140674896Y-89573824D01*
X140766048Y-89794429D01*
X140934683Y-89963359D01*
X141029701Y-90002814D01*
X140985571Y-90021048D01*
X140816641Y-90189683D01*
X140725104Y-90410129D01*
X140724896Y-90648824D01*
X140816048Y-90869429D01*
X140984683Y-91038359D01*
X141042294Y-91062281D01*
X140960571Y-91096048D01*
X140791641Y-91264683D01*
X140700104Y-91485129D01*
X140699896Y-91723824D01*
X140791048Y-91944429D01*
X140959683Y-92113359D01*
X141180129Y-92204896D01*
X141418824Y-92205104D01*
X141639429Y-92113952D01*
X141748400Y-92005171D01*
X141748400Y-93304782D01*
X141715317Y-93271641D01*
X141494871Y-93180104D01*
X141256176Y-93179896D01*
X141035571Y-93271048D01*
X140866641Y-93439683D01*
X140775104Y-93660129D01*
X140774896Y-93898824D01*
X140866048Y-94119429D01*
X141034683Y-94288359D01*
X141255129Y-94379896D01*
X141493824Y-94380104D01*
X141714429Y-94288952D01*
X141748400Y-94255040D01*
X141748400Y-95579826D01*
X141690317Y-95521641D01*
X141469871Y-95430104D01*
X141317920Y-95429972D01*
X140426600Y-94538652D01*
X140426600Y-90805000D01*
X140396030Y-90651314D01*
X140308974Y-90521026D01*
X139799973Y-90012025D01*
X139800104Y-89861176D01*
X139708952Y-89640571D01*
X139540317Y-89471641D01*
X139319871Y-89380104D01*
X139081176Y-89379896D01*
X138860571Y-89471048D01*
X138691641Y-89639683D01*
X138600104Y-89860129D01*
X138600027Y-89948768D01*
X138494871Y-89905104D01*
X138256176Y-89904896D01*
X138035571Y-89996048D01*
X137866641Y-90164683D01*
X137775104Y-90385129D01*
X137774896Y-90623824D01*
X137866048Y-90844429D01*
X137973400Y-90951969D01*
X137973400Y-93904869D01*
X137890317Y-93821641D01*
X137669871Y-93730104D01*
X137431176Y-93729896D01*
X137210571Y-93821048D01*
X137041641Y-93989683D01*
X136991831Y-94109639D01*
X136983952Y-94090571D01*
X136815317Y-93921641D01*
X136594871Y-93830104D01*
X136356176Y-93829896D01*
X136135571Y-93921048D01*
X135966641Y-94089683D01*
X135875104Y-94310129D01*
X135874896Y-94548824D01*
X135966048Y-94769429D01*
X136073400Y-94876969D01*
X136073400Y-96150538D01*
X136058952Y-96115571D01*
X135890317Y-95946641D01*
X135669871Y-95855104D01*
X135431176Y-95854896D01*
X135210571Y-95946048D01*
X135049911Y-96106427D01*
X134940317Y-95996641D01*
X134719871Y-95905104D01*
X134481176Y-95904896D01*
X134260571Y-95996048D01*
X134091641Y-96164683D01*
X134000104Y-96385129D01*
X133999896Y-96623824D01*
X134091048Y-96844429D01*
X134259683Y-97013359D01*
X134273400Y-97019055D01*
X134273400Y-105630000D01*
X134303970Y-105783686D01*
X134357206Y-105863359D01*
X134391026Y-105913974D01*
X135778651Y-107301599D01*
X135610571Y-107371048D01*
X135441641Y-107539683D01*
X135350104Y-107760129D01*
X135349896Y-107998824D01*
X135441048Y-108219429D01*
X135609683Y-108388359D01*
X135830129Y-108479896D01*
X136068824Y-108480104D01*
X136289429Y-108388952D01*
X136458359Y-108220317D01*
X136528485Y-108051433D01*
X137098400Y-108621348D01*
X137098400Y-111808110D01*
X136991641Y-111914683D01*
X136900104Y-112135129D01*
X136899896Y-112373824D01*
X136991048Y-112594429D01*
X137159683Y-112763359D01*
X137380129Y-112854896D01*
X137618824Y-112855104D01*
X137725103Y-112811190D01*
X137724896Y-113048824D01*
X137816048Y-113269429D01*
X137984683Y-113438359D01*
X138205129Y-113529896D01*
X138443824Y-113530104D01*
X138664429Y-113438952D01*
X138833359Y-113270317D01*
X138924896Y-113049871D01*
X138925104Y-112811176D01*
X138833952Y-112590571D01*
X138726600Y-112483031D01*
X138726600Y-110148824D01*
X140849896Y-110148824D01*
X140941048Y-110369429D01*
X141109683Y-110538359D01*
X141330129Y-110629896D01*
X141568824Y-110630104D01*
X141789429Y-110538952D01*
X141958359Y-110370317D01*
X142049896Y-110149871D01*
X142050104Y-109911176D01*
X141958952Y-109690571D01*
X141790317Y-109521641D01*
X141569871Y-109430104D01*
X141331176Y-109429896D01*
X141110571Y-109521048D01*
X140941641Y-109689683D01*
X140850104Y-109910129D01*
X140849896Y-110148824D01*
X138726600Y-110148824D01*
X138726600Y-108948824D01*
X138899896Y-108948824D01*
X138991048Y-109169429D01*
X139159683Y-109338359D01*
X139380129Y-109429896D01*
X139618824Y-109430104D01*
X139839429Y-109338952D01*
X140008359Y-109170317D01*
X140079568Y-108998824D01*
X146399896Y-108998824D01*
X146491048Y-109219429D01*
X146659683Y-109388359D01*
X146880129Y-109479896D01*
X147118824Y-109480104D01*
X147339429Y-109388952D01*
X147508359Y-109220317D01*
X147599896Y-108999871D01*
X147600104Y-108761176D01*
X147508952Y-108540571D01*
X147340317Y-108371641D01*
X147119871Y-108280104D01*
X146881176Y-108279896D01*
X146660571Y-108371048D01*
X146491641Y-108539683D01*
X146400104Y-108760129D01*
X146399896Y-108998824D01*
X140079568Y-108998824D01*
X140099896Y-108949871D01*
X140100104Y-108711176D01*
X140008952Y-108490571D01*
X139840317Y-108321641D01*
X139619871Y-108230104D01*
X139381176Y-108229896D01*
X139160571Y-108321048D01*
X138991641Y-108489683D01*
X138900104Y-108710129D01*
X138899896Y-108948824D01*
X138726600Y-108948824D01*
X138726600Y-108330000D01*
X138700508Y-108198824D01*
X141299896Y-108198824D01*
X141391048Y-108419429D01*
X141559683Y-108588359D01*
X141780129Y-108679896D01*
X142018824Y-108680104D01*
X142239429Y-108588952D01*
X142408359Y-108420317D01*
X142499896Y-108199871D01*
X142500104Y-107961176D01*
X142408952Y-107740571D01*
X142240317Y-107571641D01*
X142019871Y-107480104D01*
X141781176Y-107479896D01*
X141560571Y-107571048D01*
X141391641Y-107739683D01*
X141300104Y-107960129D01*
X141299896Y-108198824D01*
X138700508Y-108198824D01*
X138696030Y-108176314D01*
X138608974Y-108046026D01*
X136489040Y-105926092D01*
X136639429Y-105863952D01*
X136808359Y-105695317D01*
X136899896Y-105474871D01*
X136899896Y-105473824D01*
X137149896Y-105473824D01*
X137241048Y-105694429D01*
X137409683Y-105863359D01*
X137630129Y-105954896D01*
X137868824Y-105955104D01*
X138089429Y-105863952D01*
X138258359Y-105695317D01*
X138349896Y-105474871D01*
X138350104Y-105236176D01*
X138258952Y-105015571D01*
X138090317Y-104846641D01*
X137869871Y-104755104D01*
X137631176Y-104754896D01*
X137410571Y-104846048D01*
X137241641Y-105014683D01*
X137150104Y-105235129D01*
X137149896Y-105473824D01*
X136899896Y-105473824D01*
X136900104Y-105236176D01*
X136808952Y-105015571D01*
X136640317Y-104846641D01*
X136419871Y-104755104D01*
X136181176Y-104754896D01*
X135960571Y-104846048D01*
X135951600Y-104855003D01*
X135951600Y-102405262D01*
X135959683Y-102413359D01*
X136180129Y-102504896D01*
X136418824Y-102505104D01*
X136449902Y-102492263D01*
X136449896Y-102498824D01*
X136541048Y-102719429D01*
X136709683Y-102888359D01*
X136930129Y-102979896D01*
X137168824Y-102980104D01*
X137389429Y-102888952D01*
X137558359Y-102720317D01*
X137649896Y-102499871D01*
X137650104Y-102261176D01*
X137558952Y-102040571D01*
X137451600Y-101933031D01*
X137451600Y-99073957D01*
X137491048Y-99169429D01*
X137659683Y-99338359D01*
X137880129Y-99429896D01*
X138118824Y-99430104D01*
X138339429Y-99338952D01*
X138508359Y-99170317D01*
X138599896Y-98949871D01*
X138600104Y-98711176D01*
X138508952Y-98490571D01*
X138340317Y-98321641D01*
X138119871Y-98230104D01*
X137881176Y-98229896D01*
X137660571Y-98321048D01*
X137491641Y-98489683D01*
X137451600Y-98586113D01*
X137451600Y-94996348D01*
X137517975Y-94929973D01*
X137668824Y-94930104D01*
X137889429Y-94838952D01*
X137973400Y-94755128D01*
X137973400Y-96380000D01*
X138003970Y-96533686D01*
X138064199Y-96623824D01*
X138091026Y-96663974D01*
X138475027Y-97047975D01*
X138474896Y-97198824D01*
X138566048Y-97419429D01*
X138734683Y-97588359D01*
X138955129Y-97679896D01*
X139193824Y-97680104D01*
X139414429Y-97588952D01*
X139583359Y-97420317D01*
X139674896Y-97199871D01*
X139675104Y-96961176D01*
X139583952Y-96740571D01*
X139415317Y-96571641D01*
X139194871Y-96480104D01*
X139042920Y-96479972D01*
X138776600Y-96213652D01*
X138776600Y-90951890D01*
X138883359Y-90845317D01*
X138974896Y-90624871D01*
X138974973Y-90536232D01*
X139080129Y-90579896D01*
X139232080Y-90580028D01*
X139623400Y-90971348D01*
X139623400Y-94705000D01*
X139653970Y-94858686D01*
X139701551Y-94929896D01*
X139741026Y-94988974D01*
X140750027Y-95997975D01*
X140749896Y-96148824D01*
X140841048Y-96369429D01*
X141009683Y-96538359D01*
X141230129Y-96629896D01*
X141468824Y-96630104D01*
X141689429Y-96538952D01*
X141748400Y-96480084D01*
X141748400Y-98213652D01*
X140082025Y-99880027D01*
X139931176Y-99879896D01*
X139710571Y-99971048D01*
X139541641Y-100139683D01*
X139450104Y-100360129D01*
X139449896Y-100598824D01*
X139541048Y-100819429D01*
X139709683Y-100988359D01*
X139930129Y-101079896D01*
X140168824Y-101080104D01*
X140389429Y-100988952D01*
X140558359Y-100820317D01*
X140612520Y-100689882D01*
X140666048Y-100819429D01*
X140834683Y-100988359D01*
X141055129Y-101079896D01*
X141293824Y-101080104D01*
X141514429Y-100988952D01*
X141683359Y-100820317D01*
X141774896Y-100599871D01*
X141775028Y-100447920D01*
X142024124Y-100198824D01*
X145749896Y-100198824D01*
X145841048Y-100419429D01*
X146009683Y-100588359D01*
X146230129Y-100679896D01*
X146468824Y-100680104D01*
X146689429Y-100588952D01*
X146858359Y-100420317D01*
X146949896Y-100199871D01*
X146950104Y-99961176D01*
X146858952Y-99740571D01*
X146690317Y-99571641D01*
X146469871Y-99480104D01*
X146231176Y-99479896D01*
X146010571Y-99571048D01*
X145841641Y-99739683D01*
X145750104Y-99960129D01*
X145749896Y-100198824D01*
X142024124Y-100198824D01*
X142837176Y-99385772D01*
X142923486Y-99256600D01*
X142924232Y-99255484D01*
X142954802Y-99101798D01*
X142954802Y-88858257D01*
X146675080Y-92462276D01*
X146674896Y-92673824D01*
X146766048Y-92894429D01*
X146934683Y-93063359D01*
X147155129Y-93154896D01*
X147393824Y-93155104D01*
X147614429Y-93063952D01*
X147698528Y-92980000D01*
X152475000Y-92980000D01*
X152475000Y-107780000D01*
X148850000Y-107780000D01*
X148813654Y-107786839D01*
X148780273Y-107808319D01*
X148757879Y-107841094D01*
X148750000Y-107880000D01*
X148750000Y-120105000D01*
X139273528Y-120105000D01*
X139358359Y-120020317D01*
X139449896Y-119799871D01*
X139450104Y-119561176D01*
X139358952Y-119340571D01*
X139190317Y-119171641D01*
X138969871Y-119080104D01*
X138731176Y-119079896D01*
X138649928Y-119113467D01*
X138650104Y-118911176D01*
X138558952Y-118690571D01*
X138390317Y-118521641D01*
X138169871Y-118430104D01*
X137931176Y-118429896D01*
X137710571Y-118521048D01*
X137541641Y-118689683D01*
X137450104Y-118910129D01*
X137449896Y-119148824D01*
X137541048Y-119369429D01*
X137709683Y-119538359D01*
X137930129Y-119629896D01*
X138168824Y-119630104D01*
X138250072Y-119596533D01*
X138249896Y-119798824D01*
X138341048Y-120019429D01*
X138426470Y-120105000D01*
X115225000Y-120105000D01*
X115225000Y-118507256D01*
X116199757Y-118507256D01*
X116412445Y-119022000D01*
X116805928Y-119416170D01*
X117320301Y-119629757D01*
X117877256Y-119630243D01*
X118392000Y-119417555D01*
X118730144Y-119080000D01*
X123780409Y-119080000D01*
X123856529Y-119462683D01*
X124073302Y-119787107D01*
X124397726Y-120003880D01*
X124780409Y-120080000D01*
X124819591Y-120080000D01*
X125202274Y-120003880D01*
X125526698Y-119787107D01*
X125743471Y-119462683D01*
X125819591Y-119080000D01*
X130380409Y-119080000D01*
X130456529Y-119462683D01*
X130673302Y-119787107D01*
X130997726Y-120003880D01*
X131380409Y-120080000D01*
X131419591Y-120080000D01*
X131802274Y-120003880D01*
X132126698Y-119787107D01*
X132343471Y-119462683D01*
X132405901Y-119148824D01*
X132799896Y-119148824D01*
X132891048Y-119369429D01*
X133059683Y-119538359D01*
X133280129Y-119629896D01*
X133518824Y-119630104D01*
X133739429Y-119538952D01*
X133908359Y-119370317D01*
X133999896Y-119149871D01*
X134000104Y-118911176D01*
X133908952Y-118690571D01*
X133740317Y-118521641D01*
X133519871Y-118430104D01*
X133281176Y-118429896D01*
X133060571Y-118521048D01*
X132891641Y-118689683D01*
X132800104Y-118910129D01*
X132799896Y-119148824D01*
X132405901Y-119148824D01*
X132419591Y-119080000D01*
X132343471Y-118697317D01*
X132126698Y-118372893D01*
X131802274Y-118156120D01*
X131419591Y-118080000D01*
X131380409Y-118080000D01*
X130997726Y-118156120D01*
X130673302Y-118372893D01*
X130456529Y-118697317D01*
X130380409Y-119080000D01*
X125819591Y-119080000D01*
X125743471Y-118697317D01*
X125526698Y-118372893D01*
X125202274Y-118156120D01*
X124819591Y-118080000D01*
X124780409Y-118080000D01*
X124397726Y-118156120D01*
X124073302Y-118372893D01*
X123856529Y-118697317D01*
X123780409Y-119080000D01*
X118730144Y-119080000D01*
X118786170Y-119024072D01*
X118999757Y-118509699D01*
X119000202Y-117998824D01*
X139374896Y-117998824D01*
X139466048Y-118219429D01*
X139634683Y-118388359D01*
X139855129Y-118479896D01*
X140093824Y-118480104D01*
X140098807Y-118478045D01*
X140075104Y-118535129D01*
X140074896Y-118773824D01*
X140166048Y-118994429D01*
X140334683Y-119163359D01*
X140555129Y-119254896D01*
X140793824Y-119255104D01*
X141014429Y-119163952D01*
X141183359Y-118995317D01*
X141274896Y-118774871D01*
X141275104Y-118536176D01*
X141263155Y-118507256D01*
X145199757Y-118507256D01*
X145412445Y-119022000D01*
X145805928Y-119416170D01*
X146320301Y-119629757D01*
X146877256Y-119630243D01*
X147392000Y-119417555D01*
X147786170Y-119024072D01*
X147999757Y-118509699D01*
X148000243Y-117952744D01*
X147787555Y-117438000D01*
X147394072Y-117043830D01*
X146879699Y-116830243D01*
X146322744Y-116829757D01*
X145808000Y-117042445D01*
X145413830Y-117435928D01*
X145200243Y-117950301D01*
X145199757Y-118507256D01*
X141263155Y-118507256D01*
X141183952Y-118315571D01*
X141015317Y-118146641D01*
X140794871Y-118055104D01*
X140556176Y-118054896D01*
X140551193Y-118056955D01*
X140574896Y-117999871D01*
X140575104Y-117761176D01*
X140483952Y-117540571D01*
X140342453Y-117398824D01*
X140924896Y-117398824D01*
X141016048Y-117619429D01*
X141184683Y-117788359D01*
X141405129Y-117879896D01*
X141643824Y-117880104D01*
X141864429Y-117788952D01*
X142033359Y-117620317D01*
X142124896Y-117399871D01*
X142125104Y-117161176D01*
X142033952Y-116940571D01*
X141865317Y-116771641D01*
X141644871Y-116680104D01*
X141406176Y-116679896D01*
X141185571Y-116771048D01*
X141016641Y-116939683D01*
X140925104Y-117160129D01*
X140924896Y-117398824D01*
X140342453Y-117398824D01*
X140315317Y-117371641D01*
X140094871Y-117280104D01*
X139856176Y-117279896D01*
X139635571Y-117371048D01*
X139466641Y-117539683D01*
X139375104Y-117760129D01*
X139374896Y-117998824D01*
X119000202Y-117998824D01*
X119000243Y-117952744D01*
X118787555Y-117438000D01*
X118394072Y-117043830D01*
X117879699Y-116830243D01*
X117322744Y-116829757D01*
X116808000Y-117042445D01*
X116413830Y-117435928D01*
X116200243Y-117950301D01*
X116199757Y-118507256D01*
X115225000Y-118507256D01*
X115225000Y-98048824D01*
X116349896Y-98048824D01*
X116441048Y-98269429D01*
X116609683Y-98438359D01*
X116830129Y-98529896D01*
X117068824Y-98530104D01*
X117289429Y-98438952D01*
X117458359Y-98270317D01*
X117549896Y-98049871D01*
X117550104Y-97811176D01*
X117458952Y-97590571D01*
X117290317Y-97421641D01*
X117069871Y-97330104D01*
X116831176Y-97329896D01*
X116610571Y-97421048D01*
X116441641Y-97589683D01*
X116350104Y-97810129D01*
X116349896Y-98048824D01*
X115225000Y-98048824D01*
X115225000Y-93255000D01*
X119994123Y-93255000D01*
X119994123Y-94955000D01*
X120015042Y-95066173D01*
X120080745Y-95168279D01*
X120180997Y-95236778D01*
X120300000Y-95260877D01*
X122000000Y-95260877D01*
X122111173Y-95239958D01*
X122213279Y-95174255D01*
X122281778Y-95074003D01*
X122305877Y-94955000D01*
X122305877Y-93255000D01*
X122284958Y-93143827D01*
X122219255Y-93041721D01*
X122119003Y-92973222D01*
X122000000Y-92949123D01*
X120300000Y-92949123D01*
X120188827Y-92970042D01*
X120086721Y-93035745D01*
X120018222Y-93135997D01*
X119994123Y-93255000D01*
X115225000Y-93255000D01*
X115225000Y-91565000D01*
X119977470Y-91565000D01*
X120065009Y-92005086D01*
X120314297Y-92378173D01*
X120687384Y-92627461D01*
X121127470Y-92715000D01*
X121172530Y-92715000D01*
X121612616Y-92627461D01*
X121985703Y-92378173D01*
X122234991Y-92005086D01*
X122322530Y-91565000D01*
X122234991Y-91124914D01*
X121985703Y-90751827D01*
X121612616Y-90502539D01*
X121172530Y-90415000D01*
X121127470Y-90415000D01*
X120687384Y-90502539D01*
X120314297Y-90751827D01*
X120065009Y-91124914D01*
X119977470Y-91565000D01*
X115225000Y-91565000D01*
X115225000Y-89351516D01*
X120047328Y-89351516D01*
X120139400Y-89573835D01*
X120426357Y-89918797D01*
X120823482Y-90127687D01*
X121000000Y-90090190D01*
X121000000Y-89175000D01*
X121300000Y-89175000D01*
X121300000Y-90090190D01*
X121476518Y-90127687D01*
X121873643Y-89918797D01*
X122160600Y-89573835D01*
X122252672Y-89351516D01*
X122214483Y-89175000D01*
X121300000Y-89175000D01*
X121000000Y-89175000D01*
X120085517Y-89175000D01*
X120047328Y-89351516D01*
X115225000Y-89351516D01*
X115225000Y-88698484D01*
X120047328Y-88698484D01*
X120085517Y-88875000D01*
X121000000Y-88875000D01*
X121000000Y-87959810D01*
X121300000Y-87959810D01*
X121300000Y-88875000D01*
X122214483Y-88875000D01*
X122252672Y-88698484D01*
X122160600Y-88476165D01*
X121873643Y-88131203D01*
X121476518Y-87922313D01*
X121300000Y-87959810D01*
X121000000Y-87959810D01*
X120823482Y-87922313D01*
X120426357Y-88131203D01*
X120139400Y-88476165D01*
X120047328Y-88698484D01*
X115225000Y-88698484D01*
X115225000Y-86780000D01*
X122423400Y-86780000D01*
X122423400Y-98513652D01*
X122423400Y-98513652D01*
G37*
X122423400Y-98513652D02*
X121341026Y-99596026D01*
X121253970Y-99726314D01*
X121223400Y-99880000D01*
X121223400Y-112055000D01*
X121250079Y-112189123D01*
X121249896Y-112398824D01*
X121341048Y-112619429D01*
X121509683Y-112788359D01*
X121730129Y-112879896D01*
X121968824Y-112880104D01*
X122189429Y-112788952D01*
X122358359Y-112620317D01*
X122449896Y-112399871D01*
X122450104Y-112161176D01*
X122358952Y-111940571D01*
X122190317Y-111771641D01*
X122026600Y-111703660D01*
X122026600Y-107666145D01*
X122180129Y-107729896D01*
X122418824Y-107730104D01*
X122639429Y-107638952D01*
X122808359Y-107470317D01*
X122899896Y-107249871D01*
X122900104Y-107011176D01*
X122808952Y-106790571D01*
X122640317Y-106621641D01*
X122419871Y-106530104D01*
X122181176Y-106529896D01*
X122026600Y-106593765D01*
X122026600Y-103576526D01*
X122155129Y-103629896D01*
X122393824Y-103630104D01*
X122614429Y-103538952D01*
X122783359Y-103370317D01*
X122874896Y-103149871D01*
X122875104Y-102911176D01*
X122783952Y-102690571D01*
X122615317Y-102521641D01*
X122394871Y-102430104D01*
X122156176Y-102429896D01*
X122026600Y-102483436D01*
X122026600Y-100046348D01*
X122373400Y-99699548D01*
X122373400Y-101030000D01*
X122403970Y-101183686D01*
X122417143Y-101203400D01*
X122491026Y-101313974D01*
X122948400Y-101771348D01*
X122948400Y-105583110D01*
X122841641Y-105689683D01*
X122750104Y-105910129D01*
X122749896Y-106148824D01*
X122841048Y-106369429D01*
X123009683Y-106538359D01*
X123230129Y-106629896D01*
X123468824Y-106630104D01*
X123689429Y-106538952D01*
X123858359Y-106370317D01*
X123949896Y-106149871D01*
X123950104Y-105911176D01*
X123858952Y-105690571D01*
X123751600Y-105583031D01*
X123751600Y-105230087D01*
X123859683Y-105338359D01*
X124080129Y-105429896D01*
X124318824Y-105430104D01*
X124539429Y-105338952D01*
X124573400Y-105305040D01*
X124573400Y-105938652D01*
X123266026Y-107246026D01*
X123178970Y-107376314D01*
X123148400Y-107530000D01*
X123148400Y-110183110D01*
X123041641Y-110289683D01*
X122950104Y-110510129D01*
X122949896Y-110748824D01*
X123041048Y-110969429D01*
X123209683Y-111138359D01*
X123430129Y-111229896D01*
X123668824Y-111230104D01*
X123889429Y-111138952D01*
X123973400Y-111055128D01*
X123973400Y-113138652D01*
X121807025Y-115305027D01*
X121656176Y-115304896D01*
X121435571Y-115396048D01*
X121266641Y-115564683D01*
X121175104Y-115785129D01*
X121174896Y-116023824D01*
X121266048Y-116244429D01*
X121434683Y-116413359D01*
X121655129Y-116504896D01*
X121893824Y-116505104D01*
X122114429Y-116413952D01*
X122283359Y-116245317D01*
X122374896Y-116024871D01*
X122375028Y-115872920D01*
X123225027Y-115022921D01*
X123224896Y-115173824D01*
X123316048Y-115394429D01*
X123484683Y-115563359D01*
X123705129Y-115654896D01*
X123943824Y-115655104D01*
X124164429Y-115563952D01*
X124333359Y-115395317D01*
X124373426Y-115298824D01*
X125699896Y-115298824D01*
X125791048Y-115519429D01*
X125959683Y-115688359D01*
X126180129Y-115779896D01*
X126418824Y-115780104D01*
X126639429Y-115688952D01*
X126808359Y-115520317D01*
X126899896Y-115299871D01*
X126900104Y-115061176D01*
X126808952Y-114840571D01*
X126640317Y-114671641D01*
X126419871Y-114580104D01*
X126181176Y-114579896D01*
X125960571Y-114671048D01*
X125791641Y-114839683D01*
X125700104Y-115060129D01*
X125699896Y-115298824D01*
X124373426Y-115298824D01*
X124424896Y-115174871D01*
X124425028Y-115022920D01*
X125999124Y-113448824D01*
X128799896Y-113448824D01*
X128891048Y-113669429D01*
X129059683Y-113838359D01*
X129280129Y-113929896D01*
X129518824Y-113930104D01*
X129739429Y-113838952D01*
X129908359Y-113670317D01*
X129998400Y-113453474D01*
X129998400Y-114155000D01*
X130028970Y-114308686D01*
X130096752Y-114410129D01*
X130116026Y-114438974D01*
X132750027Y-117072975D01*
X132749896Y-117223824D01*
X132841048Y-117444429D01*
X133009683Y-117613359D01*
X133230129Y-117704896D01*
X133468824Y-117705104D01*
X133689429Y-117613952D01*
X133858359Y-117445317D01*
X133949896Y-117224871D01*
X133950104Y-116986176D01*
X133872692Y-116798824D01*
X136449896Y-116798824D01*
X136541048Y-117019429D01*
X136709683Y-117188359D01*
X136930129Y-117279896D01*
X137168824Y-117280104D01*
X137389429Y-117188952D01*
X137531736Y-117046893D01*
X137541048Y-117069429D01*
X137709683Y-117238359D01*
X137930129Y-117329896D01*
X138168824Y-117330104D01*
X138389429Y-117238952D01*
X138550132Y-117078529D01*
X138709683Y-117238359D01*
X138930129Y-117329896D01*
X139168824Y-117330104D01*
X139389429Y-117238952D01*
X139558359Y-117070317D01*
X139649896Y-116849871D01*
X139650104Y-116611176D01*
X139558952Y-116390571D01*
X139390317Y-116221641D01*
X139169871Y-116130104D01*
X138931176Y-116129896D01*
X138710571Y-116221048D01*
X138549868Y-116381471D01*
X138390317Y-116221641D01*
X138169871Y-116130104D01*
X137931176Y-116129896D01*
X137710571Y-116221048D01*
X137568264Y-116363107D01*
X137558952Y-116340571D01*
X137390317Y-116171641D01*
X137169871Y-116080104D01*
X136931176Y-116079896D01*
X136710571Y-116171048D01*
X136541641Y-116339683D01*
X136450104Y-116560129D01*
X136449896Y-116798824D01*
X133872692Y-116798824D01*
X133858952Y-116765571D01*
X133690317Y-116596641D01*
X133469871Y-116505104D01*
X133317920Y-116504972D01*
X131461772Y-114648824D01*
X141424896Y-114648824D01*
X141516048Y-114869429D01*
X141684683Y-115038359D01*
X141905129Y-115129896D01*
X142143824Y-115130104D01*
X142364429Y-115038952D01*
X142424979Y-114978507D01*
X142509683Y-115063359D01*
X142730129Y-115154896D01*
X142968824Y-115155104D01*
X143189429Y-115063952D01*
X143358359Y-114895317D01*
X143449896Y-114674871D01*
X143450104Y-114436176D01*
X143358952Y-114215571D01*
X143190317Y-114046641D01*
X142969871Y-113955104D01*
X142731176Y-113954896D01*
X142510571Y-114046048D01*
X142450021Y-114106493D01*
X142365317Y-114021641D01*
X142144871Y-113930104D01*
X141906176Y-113929896D01*
X141685571Y-114021048D01*
X141516641Y-114189683D01*
X141425104Y-114410129D01*
X141424896Y-114648824D01*
X131461772Y-114648824D01*
X130801600Y-113988652D01*
X130801600Y-112398824D01*
X132499896Y-112398824D01*
X132591048Y-112619429D01*
X132759683Y-112788359D01*
X132980129Y-112879896D01*
X133218824Y-112880104D01*
X133439429Y-112788952D01*
X133608359Y-112620317D01*
X133699896Y-112399871D01*
X133700104Y-112161176D01*
X133608952Y-111940571D01*
X133498660Y-111830086D01*
X133518824Y-111830104D01*
X133739429Y-111738952D01*
X133908359Y-111570317D01*
X133999896Y-111349871D01*
X134000104Y-111111176D01*
X133908952Y-110890571D01*
X133740317Y-110721641D01*
X133519871Y-110630104D01*
X133281176Y-110629896D01*
X133060571Y-110721048D01*
X132891641Y-110889683D01*
X132800104Y-111110129D01*
X132799896Y-111348824D01*
X132891048Y-111569429D01*
X133001340Y-111679914D01*
X132981176Y-111679896D01*
X132760571Y-111771048D01*
X132591641Y-111939683D01*
X132500104Y-112160129D01*
X132499896Y-112398824D01*
X130801600Y-112398824D01*
X130801600Y-109998824D01*
X132799896Y-109998824D01*
X132891048Y-110219429D01*
X133059683Y-110388359D01*
X133280129Y-110479896D01*
X133518824Y-110480104D01*
X133739429Y-110388952D01*
X133908359Y-110220317D01*
X133999896Y-109999871D01*
X134000104Y-109761176D01*
X133908952Y-109540571D01*
X133740317Y-109371641D01*
X133519871Y-109280104D01*
X133281176Y-109279896D01*
X133060571Y-109371048D01*
X132891641Y-109539683D01*
X132800104Y-109760129D01*
X132799896Y-109998824D01*
X130801600Y-109998824D01*
X130801600Y-103273824D01*
X132424896Y-103273824D01*
X132516048Y-103494429D01*
X132684683Y-103663359D01*
X132905129Y-103754896D01*
X133143824Y-103755104D01*
X133364429Y-103663952D01*
X133533359Y-103495317D01*
X133624896Y-103274871D01*
X133625104Y-103036176D01*
X133533952Y-102815571D01*
X133365317Y-102646641D01*
X133144871Y-102555104D01*
X132906176Y-102554896D01*
X132685571Y-102646048D01*
X132516641Y-102814683D01*
X132425104Y-103035129D01*
X132424896Y-103273824D01*
X130801600Y-103273824D01*
X130801600Y-98876890D01*
X130908359Y-98770317D01*
X130999896Y-98549871D01*
X131000104Y-98311176D01*
X130908952Y-98090571D01*
X130740317Y-97921641D01*
X130519871Y-97830104D01*
X130281176Y-97829896D01*
X130060571Y-97921048D01*
X129891641Y-98089683D01*
X129800104Y-98310129D01*
X129799896Y-98548824D01*
X129891048Y-98769429D01*
X129998400Y-98876969D01*
X129998400Y-108286043D01*
X129958952Y-108190571D01*
X129790317Y-108021641D01*
X129569871Y-107930104D01*
X129331176Y-107929896D01*
X129110571Y-108021048D01*
X128941641Y-108189683D01*
X128850104Y-108410129D01*
X128849896Y-108648824D01*
X128941048Y-108869429D01*
X129109683Y-109038359D01*
X129330129Y-109129896D01*
X129568824Y-109130104D01*
X129789429Y-109038952D01*
X129958359Y-108870317D01*
X129998400Y-108773887D01*
X129998400Y-113207052D01*
X129908952Y-112990571D01*
X129740317Y-112821641D01*
X129519871Y-112730104D01*
X129281176Y-112729896D01*
X129060571Y-112821048D01*
X128891641Y-112989683D01*
X128800104Y-113210129D01*
X128799896Y-113448824D01*
X125999124Y-113448824D01*
X126383974Y-113063974D01*
X126412671Y-113021026D01*
X126471030Y-112933686D01*
X126501600Y-112780000D01*
X126501600Y-104126526D01*
X126630129Y-104179896D01*
X126868824Y-104180104D01*
X127089429Y-104088952D01*
X127258359Y-103920317D01*
X127349896Y-103699871D01*
X127350104Y-103461176D01*
X127316542Y-103379950D01*
X127493824Y-103380104D01*
X127714429Y-103288952D01*
X127883359Y-103120317D01*
X127899999Y-103080243D01*
X127899896Y-103198824D01*
X127991048Y-103419429D01*
X128159683Y-103588359D01*
X128380129Y-103679896D01*
X128618824Y-103680104D01*
X128839429Y-103588952D01*
X129008359Y-103420317D01*
X129099896Y-103199871D01*
X129100104Y-102961176D01*
X129008952Y-102740571D01*
X128840317Y-102571641D01*
X128619871Y-102480104D01*
X128381176Y-102479896D01*
X128160571Y-102571048D01*
X127991641Y-102739683D01*
X127975001Y-102779757D01*
X127975104Y-102661176D01*
X127883952Y-102440571D01*
X127715317Y-102271641D01*
X127494871Y-102180104D01*
X127256176Y-102179896D01*
X127035571Y-102271048D01*
X126866641Y-102439683D01*
X126775104Y-102660129D01*
X126774896Y-102898824D01*
X126808458Y-102980050D01*
X126631176Y-102979896D01*
X126501600Y-103033436D01*
X126501600Y-92826933D01*
X126573269Y-92755390D01*
X126641048Y-92919429D01*
X126809683Y-93088359D01*
X127030129Y-93179896D01*
X127268824Y-93180104D01*
X127489429Y-93088952D01*
X127564011Y-93014500D01*
X127566048Y-93019429D01*
X127734683Y-93188359D01*
X127955129Y-93279896D01*
X128193824Y-93280104D01*
X128414429Y-93188952D01*
X128583359Y-93020317D01*
X128674896Y-92799871D01*
X128675104Y-92561176D01*
X128583952Y-92340571D01*
X128476600Y-92233031D01*
X128476600Y-91630000D01*
X132309500Y-91630000D01*
X132309500Y-93480000D01*
X132346837Y-93667706D01*
X132453164Y-93826836D01*
X132949918Y-94323590D01*
X132949896Y-94348824D01*
X133041048Y-94569429D01*
X133209683Y-94738359D01*
X133430129Y-94829896D01*
X133668824Y-94830104D01*
X133889429Y-94738952D01*
X134058359Y-94570317D01*
X134149896Y-94349871D01*
X134150104Y-94111176D01*
X134058952Y-93890571D01*
X133890317Y-93721641D01*
X133850415Y-93705072D01*
X133889429Y-93688952D01*
X134058359Y-93520317D01*
X134149896Y-93299871D01*
X134150104Y-93061176D01*
X134058952Y-92840571D01*
X133890317Y-92671641D01*
X133714954Y-92598824D01*
X135249896Y-92598824D01*
X135341048Y-92819429D01*
X135509683Y-92988359D01*
X135730129Y-93079896D01*
X135968824Y-93080104D01*
X136189429Y-92988952D01*
X136358359Y-92820317D01*
X136449896Y-92599871D01*
X136450104Y-92361176D01*
X136358952Y-92140571D01*
X136190317Y-91971641D01*
X135969871Y-91880104D01*
X135731176Y-91879896D01*
X135510571Y-91971048D01*
X135341641Y-92139683D01*
X135250104Y-92360129D01*
X135249896Y-92598824D01*
X133714954Y-92598824D01*
X133669871Y-92580104D01*
X133431176Y-92579896D01*
X133290500Y-92638022D01*
X133290500Y-91959169D01*
X133339429Y-91938952D01*
X133508359Y-91770317D01*
X133599896Y-91549871D01*
X133600104Y-91311176D01*
X133508952Y-91090571D01*
X133340317Y-90921641D01*
X133119871Y-90830104D01*
X132881176Y-90829896D01*
X132660571Y-90921048D01*
X132491641Y-91089683D01*
X132400104Y-91310129D01*
X132400058Y-91362643D01*
X132346837Y-91442294D01*
X132309500Y-91630000D01*
X128476600Y-91630000D01*
X128476600Y-86780000D01*
X130251621Y-86780000D01*
X130203970Y-86851314D01*
X130173400Y-87005000D01*
X130173400Y-87733110D01*
X130066641Y-87839683D01*
X129975104Y-88060129D01*
X129974896Y-88298824D01*
X130066048Y-88519429D01*
X130234683Y-88688359D01*
X130455129Y-88779896D01*
X130693824Y-88780104D01*
X130914429Y-88688952D01*
X131083359Y-88520317D01*
X131174896Y-88299871D01*
X131175104Y-88061176D01*
X131083952Y-87840571D01*
X130976600Y-87733031D01*
X130976600Y-87171348D01*
X131367948Y-86780000D01*
X135382052Y-86780000D01*
X133607025Y-88555027D01*
X133456176Y-88554896D01*
X133235571Y-88646048D01*
X133066641Y-88814683D01*
X133056790Y-88838406D01*
X132890317Y-88671641D01*
X132669871Y-88580104D01*
X132431176Y-88579896D01*
X132210571Y-88671048D01*
X132041641Y-88839683D01*
X131950104Y-89060129D01*
X131949896Y-89298824D01*
X132041048Y-89519429D01*
X132209683Y-89688359D01*
X132430129Y-89779896D01*
X132668824Y-89780104D01*
X132889429Y-89688952D01*
X133058359Y-89520317D01*
X133068210Y-89496594D01*
X133234683Y-89663359D01*
X133455129Y-89754896D01*
X133693824Y-89755104D01*
X133914429Y-89663952D01*
X134083359Y-89495317D01*
X134174896Y-89274871D01*
X134175028Y-89122920D01*
X136517948Y-86780000D01*
X139918757Y-86780000D01*
X139875104Y-86885129D01*
X139874896Y-87123824D01*
X139966048Y-87344429D01*
X140134683Y-87513359D01*
X140355129Y-87604896D01*
X140593824Y-87605104D01*
X140814429Y-87513952D01*
X140983359Y-87345317D01*
X141074896Y-87124871D01*
X141074972Y-87037172D01*
X141748400Y-87689555D01*
X141748400Y-89079957D01*
X141615317Y-88946641D01*
X141394871Y-88855104D01*
X141156176Y-88854896D01*
X140935571Y-88946048D01*
X140766641Y-89114683D01*
X140675104Y-89335129D01*
X140674896Y-89573824D01*
X140766048Y-89794429D01*
X140934683Y-89963359D01*
X141029701Y-90002814D01*
X140985571Y-90021048D01*
X140816641Y-90189683D01*
X140725104Y-90410129D01*
X140724896Y-90648824D01*
X140816048Y-90869429D01*
X140984683Y-91038359D01*
X141042294Y-91062281D01*
X140960571Y-91096048D01*
X140791641Y-91264683D01*
X140700104Y-91485129D01*
X140699896Y-91723824D01*
X140791048Y-91944429D01*
X140959683Y-92113359D01*
X141180129Y-92204896D01*
X141418824Y-92205104D01*
X141639429Y-92113952D01*
X141748400Y-92005171D01*
X141748400Y-93304782D01*
X141715317Y-93271641D01*
X141494871Y-93180104D01*
X141256176Y-93179896D01*
X141035571Y-93271048D01*
X140866641Y-93439683D01*
X140775104Y-93660129D01*
X140774896Y-93898824D01*
X140866048Y-94119429D01*
X141034683Y-94288359D01*
X141255129Y-94379896D01*
X141493824Y-94380104D01*
X141714429Y-94288952D01*
X141748400Y-94255040D01*
X141748400Y-95579826D01*
X141690317Y-95521641D01*
X141469871Y-95430104D01*
X141317920Y-95429972D01*
X140426600Y-94538652D01*
X140426600Y-90805000D01*
X140396030Y-90651314D01*
X140308974Y-90521026D01*
X139799973Y-90012025D01*
X139800104Y-89861176D01*
X139708952Y-89640571D01*
X139540317Y-89471641D01*
X139319871Y-89380104D01*
X139081176Y-89379896D01*
X138860571Y-89471048D01*
X138691641Y-89639683D01*
X138600104Y-89860129D01*
X138600027Y-89948768D01*
X138494871Y-89905104D01*
X138256176Y-89904896D01*
X138035571Y-89996048D01*
X137866641Y-90164683D01*
X137775104Y-90385129D01*
X137774896Y-90623824D01*
X137866048Y-90844429D01*
X137973400Y-90951969D01*
X137973400Y-93904869D01*
X137890317Y-93821641D01*
X137669871Y-93730104D01*
X137431176Y-93729896D01*
X137210571Y-93821048D01*
X137041641Y-93989683D01*
X136991831Y-94109639D01*
X136983952Y-94090571D01*
X136815317Y-93921641D01*
X136594871Y-93830104D01*
X136356176Y-93829896D01*
X136135571Y-93921048D01*
X135966641Y-94089683D01*
X135875104Y-94310129D01*
X135874896Y-94548824D01*
X135966048Y-94769429D01*
X136073400Y-94876969D01*
X136073400Y-96150538D01*
X136058952Y-96115571D01*
X135890317Y-95946641D01*
X135669871Y-95855104D01*
X135431176Y-95854896D01*
X135210571Y-95946048D01*
X135049911Y-96106427D01*
X134940317Y-95996641D01*
X134719871Y-95905104D01*
X134481176Y-95904896D01*
X134260571Y-95996048D01*
X134091641Y-96164683D01*
X134000104Y-96385129D01*
X133999896Y-96623824D01*
X134091048Y-96844429D01*
X134259683Y-97013359D01*
X134273400Y-97019055D01*
X134273400Y-105630000D01*
X134303970Y-105783686D01*
X134357206Y-105863359D01*
X134391026Y-105913974D01*
X135778651Y-107301599D01*
X135610571Y-107371048D01*
X135441641Y-107539683D01*
X135350104Y-107760129D01*
X135349896Y-107998824D01*
X135441048Y-108219429D01*
X135609683Y-108388359D01*
X135830129Y-108479896D01*
X136068824Y-108480104D01*
X136289429Y-108388952D01*
X136458359Y-108220317D01*
X136528485Y-108051433D01*
X137098400Y-108621348D01*
X137098400Y-111808110D01*
X136991641Y-111914683D01*
X136900104Y-112135129D01*
X136899896Y-112373824D01*
X136991048Y-112594429D01*
X137159683Y-112763359D01*
X137380129Y-112854896D01*
X137618824Y-112855104D01*
X137725103Y-112811190D01*
X137724896Y-113048824D01*
X137816048Y-113269429D01*
X137984683Y-113438359D01*
X138205129Y-113529896D01*
X138443824Y-113530104D01*
X138664429Y-113438952D01*
X138833359Y-113270317D01*
X138924896Y-113049871D01*
X138925104Y-112811176D01*
X138833952Y-112590571D01*
X138726600Y-112483031D01*
X138726600Y-110148824D01*
X140849896Y-110148824D01*
X140941048Y-110369429D01*
X141109683Y-110538359D01*
X141330129Y-110629896D01*
X141568824Y-110630104D01*
X141789429Y-110538952D01*
X141958359Y-110370317D01*
X142049896Y-110149871D01*
X142050104Y-109911176D01*
X141958952Y-109690571D01*
X141790317Y-109521641D01*
X141569871Y-109430104D01*
X141331176Y-109429896D01*
X141110571Y-109521048D01*
X140941641Y-109689683D01*
X140850104Y-109910129D01*
X140849896Y-110148824D01*
X138726600Y-110148824D01*
X138726600Y-108948824D01*
X138899896Y-108948824D01*
X138991048Y-109169429D01*
X139159683Y-109338359D01*
X139380129Y-109429896D01*
X139618824Y-109430104D01*
X139839429Y-109338952D01*
X140008359Y-109170317D01*
X140079568Y-108998824D01*
X146399896Y-108998824D01*
X146491048Y-109219429D01*
X146659683Y-109388359D01*
X146880129Y-109479896D01*
X147118824Y-109480104D01*
X147339429Y-109388952D01*
X147508359Y-109220317D01*
X147599896Y-108999871D01*
X147600104Y-108761176D01*
X147508952Y-108540571D01*
X147340317Y-108371641D01*
X147119871Y-108280104D01*
X146881176Y-108279896D01*
X146660571Y-108371048D01*
X146491641Y-108539683D01*
X146400104Y-108760129D01*
X146399896Y-108998824D01*
X140079568Y-108998824D01*
X140099896Y-108949871D01*
X140100104Y-108711176D01*
X140008952Y-108490571D01*
X139840317Y-108321641D01*
X139619871Y-108230104D01*
X139381176Y-108229896D01*
X139160571Y-108321048D01*
X138991641Y-108489683D01*
X138900104Y-108710129D01*
X138899896Y-108948824D01*
X138726600Y-108948824D01*
X138726600Y-108330000D01*
X138700508Y-108198824D01*
X141299896Y-108198824D01*
X141391048Y-108419429D01*
X141559683Y-108588359D01*
X141780129Y-108679896D01*
X142018824Y-108680104D01*
X142239429Y-108588952D01*
X142408359Y-108420317D01*
X142499896Y-108199871D01*
X142500104Y-107961176D01*
X142408952Y-107740571D01*
X142240317Y-107571641D01*
X142019871Y-107480104D01*
X141781176Y-107479896D01*
X141560571Y-107571048D01*
X141391641Y-107739683D01*
X141300104Y-107960129D01*
X141299896Y-108198824D01*
X138700508Y-108198824D01*
X138696030Y-108176314D01*
X138608974Y-108046026D01*
X136489040Y-105926092D01*
X136639429Y-105863952D01*
X136808359Y-105695317D01*
X136899896Y-105474871D01*
X136899896Y-105473824D01*
X137149896Y-105473824D01*
X137241048Y-105694429D01*
X137409683Y-105863359D01*
X137630129Y-105954896D01*
X137868824Y-105955104D01*
X138089429Y-105863952D01*
X138258359Y-105695317D01*
X138349896Y-105474871D01*
X138350104Y-105236176D01*
X138258952Y-105015571D01*
X138090317Y-104846641D01*
X137869871Y-104755104D01*
X137631176Y-104754896D01*
X137410571Y-104846048D01*
X137241641Y-105014683D01*
X137150104Y-105235129D01*
X137149896Y-105473824D01*
X136899896Y-105473824D01*
X136900104Y-105236176D01*
X136808952Y-105015571D01*
X136640317Y-104846641D01*
X136419871Y-104755104D01*
X136181176Y-104754896D01*
X135960571Y-104846048D01*
X135951600Y-104855003D01*
X135951600Y-102405262D01*
X135959683Y-102413359D01*
X136180129Y-102504896D01*
X136418824Y-102505104D01*
X136449902Y-102492263D01*
X136449896Y-102498824D01*
X136541048Y-102719429D01*
X136709683Y-102888359D01*
X136930129Y-102979896D01*
X137168824Y-102980104D01*
X137389429Y-102888952D01*
X137558359Y-102720317D01*
X137649896Y-102499871D01*
X137650104Y-102261176D01*
X137558952Y-102040571D01*
X137451600Y-101933031D01*
X137451600Y-99073957D01*
X137491048Y-99169429D01*
X137659683Y-99338359D01*
X137880129Y-99429896D01*
X138118824Y-99430104D01*
X138339429Y-99338952D01*
X138508359Y-99170317D01*
X138599896Y-98949871D01*
X138600104Y-98711176D01*
X138508952Y-98490571D01*
X138340317Y-98321641D01*
X138119871Y-98230104D01*
X137881176Y-98229896D01*
X137660571Y-98321048D01*
X137491641Y-98489683D01*
X137451600Y-98586113D01*
X137451600Y-94996348D01*
X137517975Y-94929973D01*
X137668824Y-94930104D01*
X137889429Y-94838952D01*
X137973400Y-94755128D01*
X137973400Y-96380000D01*
X138003970Y-96533686D01*
X138064199Y-96623824D01*
X138091026Y-96663974D01*
X138475027Y-97047975D01*
X138474896Y-97198824D01*
X138566048Y-97419429D01*
X138734683Y-97588359D01*
X138955129Y-97679896D01*
X139193824Y-97680104D01*
X139414429Y-97588952D01*
X139583359Y-97420317D01*
X139674896Y-97199871D01*
X139675104Y-96961176D01*
X139583952Y-96740571D01*
X139415317Y-96571641D01*
X139194871Y-96480104D01*
X139042920Y-96479972D01*
X138776600Y-96213652D01*
X138776600Y-90951890D01*
X138883359Y-90845317D01*
X138974896Y-90624871D01*
X138974973Y-90536232D01*
X139080129Y-90579896D01*
X139232080Y-90580028D01*
X139623400Y-90971348D01*
X139623400Y-94705000D01*
X139653970Y-94858686D01*
X139701551Y-94929896D01*
X139741026Y-94988974D01*
X140750027Y-95997975D01*
X140749896Y-96148824D01*
X140841048Y-96369429D01*
X141009683Y-96538359D01*
X141230129Y-96629896D01*
X141468824Y-96630104D01*
X141689429Y-96538952D01*
X141748400Y-96480084D01*
X141748400Y-98213652D01*
X140082025Y-99880027D01*
X139931176Y-99879896D01*
X139710571Y-99971048D01*
X139541641Y-100139683D01*
X139450104Y-100360129D01*
X139449896Y-100598824D01*
X139541048Y-100819429D01*
X139709683Y-100988359D01*
X139930129Y-101079896D01*
X140168824Y-101080104D01*
X140389429Y-100988952D01*
X140558359Y-100820317D01*
X140612520Y-100689882D01*
X140666048Y-100819429D01*
X140834683Y-100988359D01*
X141055129Y-101079896D01*
X141293824Y-101080104D01*
X141514429Y-100988952D01*
X141683359Y-100820317D01*
X141774896Y-100599871D01*
X141775028Y-100447920D01*
X142024124Y-100198824D01*
X145749896Y-100198824D01*
X145841048Y-100419429D01*
X146009683Y-100588359D01*
X146230129Y-100679896D01*
X146468824Y-100680104D01*
X146689429Y-100588952D01*
X146858359Y-100420317D01*
X146949896Y-100199871D01*
X146950104Y-99961176D01*
X146858952Y-99740571D01*
X146690317Y-99571641D01*
X146469871Y-99480104D01*
X146231176Y-99479896D01*
X146010571Y-99571048D01*
X145841641Y-99739683D01*
X145750104Y-99960129D01*
X145749896Y-100198824D01*
X142024124Y-100198824D01*
X142837176Y-99385772D01*
X142923486Y-99256600D01*
X142924232Y-99255484D01*
X142954802Y-99101798D01*
X142954802Y-88858257D01*
X146675080Y-92462276D01*
X146674896Y-92673824D01*
X146766048Y-92894429D01*
X146934683Y-93063359D01*
X147155129Y-93154896D01*
X147393824Y-93155104D01*
X147614429Y-93063952D01*
X147698528Y-92980000D01*
X152475000Y-92980000D01*
X152475000Y-107780000D01*
X148850000Y-107780000D01*
X148813654Y-107786839D01*
X148780273Y-107808319D01*
X148757879Y-107841094D01*
X148750000Y-107880000D01*
X148750000Y-120105000D01*
X139273528Y-120105000D01*
X139358359Y-120020317D01*
X139449896Y-119799871D01*
X139450104Y-119561176D01*
X139358952Y-119340571D01*
X139190317Y-119171641D01*
X138969871Y-119080104D01*
X138731176Y-119079896D01*
X138649928Y-119113467D01*
X138650104Y-118911176D01*
X138558952Y-118690571D01*
X138390317Y-118521641D01*
X138169871Y-118430104D01*
X137931176Y-118429896D01*
X137710571Y-118521048D01*
X137541641Y-118689683D01*
X137450104Y-118910129D01*
X137449896Y-119148824D01*
X137541048Y-119369429D01*
X137709683Y-119538359D01*
X137930129Y-119629896D01*
X138168824Y-119630104D01*
X138250072Y-119596533D01*
X138249896Y-119798824D01*
X138341048Y-120019429D01*
X138426470Y-120105000D01*
X115225000Y-120105000D01*
X115225000Y-118507256D01*
X116199757Y-118507256D01*
X116412445Y-119022000D01*
X116805928Y-119416170D01*
X117320301Y-119629757D01*
X117877256Y-119630243D01*
X118392000Y-119417555D01*
X118730144Y-119080000D01*
X123780409Y-119080000D01*
X123856529Y-119462683D01*
X124073302Y-119787107D01*
X124397726Y-120003880D01*
X124780409Y-120080000D01*
X124819591Y-120080000D01*
X125202274Y-120003880D01*
X125526698Y-119787107D01*
X125743471Y-119462683D01*
X125819591Y-119080000D01*
X130380409Y-119080000D01*
X130456529Y-119462683D01*
X130673302Y-119787107D01*
X130997726Y-120003880D01*
X131380409Y-120080000D01*
X131419591Y-120080000D01*
X131802274Y-120003880D01*
X132126698Y-119787107D01*
X132343471Y-119462683D01*
X132405901Y-119148824D01*
X132799896Y-119148824D01*
X132891048Y-119369429D01*
X133059683Y-119538359D01*
X133280129Y-119629896D01*
X133518824Y-119630104D01*
X133739429Y-119538952D01*
X133908359Y-119370317D01*
X133999896Y-119149871D01*
X134000104Y-118911176D01*
X133908952Y-118690571D01*
X133740317Y-118521641D01*
X133519871Y-118430104D01*
X133281176Y-118429896D01*
X133060571Y-118521048D01*
X132891641Y-118689683D01*
X132800104Y-118910129D01*
X132799896Y-119148824D01*
X132405901Y-119148824D01*
X132419591Y-119080000D01*
X132343471Y-118697317D01*
X132126698Y-118372893D01*
X131802274Y-118156120D01*
X131419591Y-118080000D01*
X131380409Y-118080000D01*
X130997726Y-118156120D01*
X130673302Y-118372893D01*
X130456529Y-118697317D01*
X130380409Y-119080000D01*
X125819591Y-119080000D01*
X125743471Y-118697317D01*
X125526698Y-118372893D01*
X125202274Y-118156120D01*
X124819591Y-118080000D01*
X124780409Y-118080000D01*
X124397726Y-118156120D01*
X124073302Y-118372893D01*
X123856529Y-118697317D01*
X123780409Y-119080000D01*
X118730144Y-119080000D01*
X118786170Y-119024072D01*
X118999757Y-118509699D01*
X119000202Y-117998824D01*
X139374896Y-117998824D01*
X139466048Y-118219429D01*
X139634683Y-118388359D01*
X139855129Y-118479896D01*
X140093824Y-118480104D01*
X140098807Y-118478045D01*
X140075104Y-118535129D01*
X140074896Y-118773824D01*
X140166048Y-118994429D01*
X140334683Y-119163359D01*
X140555129Y-119254896D01*
X140793824Y-119255104D01*
X141014429Y-119163952D01*
X141183359Y-118995317D01*
X141274896Y-118774871D01*
X141275104Y-118536176D01*
X141263155Y-118507256D01*
X145199757Y-118507256D01*
X145412445Y-119022000D01*
X145805928Y-119416170D01*
X146320301Y-119629757D01*
X146877256Y-119630243D01*
X147392000Y-119417555D01*
X147786170Y-119024072D01*
X147999757Y-118509699D01*
X148000243Y-117952744D01*
X147787555Y-117438000D01*
X147394072Y-117043830D01*
X146879699Y-116830243D01*
X146322744Y-116829757D01*
X145808000Y-117042445D01*
X145413830Y-117435928D01*
X145200243Y-117950301D01*
X145199757Y-118507256D01*
X141263155Y-118507256D01*
X141183952Y-118315571D01*
X141015317Y-118146641D01*
X140794871Y-118055104D01*
X140556176Y-118054896D01*
X140551193Y-118056955D01*
X140574896Y-117999871D01*
X140575104Y-117761176D01*
X140483952Y-117540571D01*
X140342453Y-117398824D01*
X140924896Y-117398824D01*
X141016048Y-117619429D01*
X141184683Y-117788359D01*
X141405129Y-117879896D01*
X141643824Y-117880104D01*
X141864429Y-117788952D01*
X142033359Y-117620317D01*
X142124896Y-117399871D01*
X142125104Y-117161176D01*
X142033952Y-116940571D01*
X141865317Y-116771641D01*
X141644871Y-116680104D01*
X141406176Y-116679896D01*
X141185571Y-116771048D01*
X141016641Y-116939683D01*
X140925104Y-117160129D01*
X140924896Y-117398824D01*
X140342453Y-117398824D01*
X140315317Y-117371641D01*
X140094871Y-117280104D01*
X139856176Y-117279896D01*
X139635571Y-117371048D01*
X139466641Y-117539683D01*
X139375104Y-117760129D01*
X139374896Y-117998824D01*
X119000202Y-117998824D01*
X119000243Y-117952744D01*
X118787555Y-117438000D01*
X118394072Y-117043830D01*
X117879699Y-116830243D01*
X117322744Y-116829757D01*
X116808000Y-117042445D01*
X116413830Y-117435928D01*
X116200243Y-117950301D01*
X116199757Y-118507256D01*
X115225000Y-118507256D01*
X115225000Y-98048824D01*
X116349896Y-98048824D01*
X116441048Y-98269429D01*
X116609683Y-98438359D01*
X116830129Y-98529896D01*
X117068824Y-98530104D01*
X117289429Y-98438952D01*
X117458359Y-98270317D01*
X117549896Y-98049871D01*
X117550104Y-97811176D01*
X117458952Y-97590571D01*
X117290317Y-97421641D01*
X117069871Y-97330104D01*
X116831176Y-97329896D01*
X116610571Y-97421048D01*
X116441641Y-97589683D01*
X116350104Y-97810129D01*
X116349896Y-98048824D01*
X115225000Y-98048824D01*
X115225000Y-93255000D01*
X119994123Y-93255000D01*
X119994123Y-94955000D01*
X120015042Y-95066173D01*
X120080745Y-95168279D01*
X120180997Y-95236778D01*
X120300000Y-95260877D01*
X122000000Y-95260877D01*
X122111173Y-95239958D01*
X122213279Y-95174255D01*
X122281778Y-95074003D01*
X122305877Y-94955000D01*
X122305877Y-93255000D01*
X122284958Y-93143827D01*
X122219255Y-93041721D01*
X122119003Y-92973222D01*
X122000000Y-92949123D01*
X120300000Y-92949123D01*
X120188827Y-92970042D01*
X120086721Y-93035745D01*
X120018222Y-93135997D01*
X119994123Y-93255000D01*
X115225000Y-93255000D01*
X115225000Y-91565000D01*
X119977470Y-91565000D01*
X120065009Y-92005086D01*
X120314297Y-92378173D01*
X120687384Y-92627461D01*
X121127470Y-92715000D01*
X121172530Y-92715000D01*
X121612616Y-92627461D01*
X121985703Y-92378173D01*
X122234991Y-92005086D01*
X122322530Y-91565000D01*
X122234991Y-91124914D01*
X121985703Y-90751827D01*
X121612616Y-90502539D01*
X121172530Y-90415000D01*
X121127470Y-90415000D01*
X120687384Y-90502539D01*
X120314297Y-90751827D01*
X120065009Y-91124914D01*
X119977470Y-91565000D01*
X115225000Y-91565000D01*
X115225000Y-89351516D01*
X120047328Y-89351516D01*
X120139400Y-89573835D01*
X120426357Y-89918797D01*
X120823482Y-90127687D01*
X121000000Y-90090190D01*
X121000000Y-89175000D01*
X121300000Y-89175000D01*
X121300000Y-90090190D01*
X121476518Y-90127687D01*
X121873643Y-89918797D01*
X122160600Y-89573835D01*
X122252672Y-89351516D01*
X122214483Y-89175000D01*
X121300000Y-89175000D01*
X121000000Y-89175000D01*
X120085517Y-89175000D01*
X120047328Y-89351516D01*
X115225000Y-89351516D01*
X115225000Y-88698484D01*
X120047328Y-88698484D01*
X120085517Y-88875000D01*
X121000000Y-88875000D01*
X121000000Y-87959810D01*
X121300000Y-87959810D01*
X121300000Y-88875000D01*
X122214483Y-88875000D01*
X122252672Y-88698484D01*
X122160600Y-88476165D01*
X121873643Y-88131203D01*
X121476518Y-87922313D01*
X121300000Y-87959810D01*
X121000000Y-87959810D01*
X120823482Y-87922313D01*
X120426357Y-88131203D01*
X120139400Y-88476165D01*
X120047328Y-88698484D01*
X115225000Y-88698484D01*
X115225000Y-86780000D01*
X122423400Y-86780000D01*
X122423400Y-98513652D01*
M02*
