G04 #@! TF.FileFunction,Paste,Bot*
%FSLAX46Y46*%
G04 Gerber Fmt 4.6, Leading zero omitted, Abs format (unit mm)*
G04 Created by KiCad (PCBNEW 4.0.6) date Friday, April 06, 2018 'AMt' 10:50:20 AM*
%MOMM*%
%LPD*%
G01*
G04 APERTURE LIST*
%ADD10C,0.100000*%
%ADD11R,1.000000X1.600000*%
%ADD12R,0.650000X1.060000*%
%ADD13R,0.500000X0.600000*%
%ADD14R,0.600000X0.500000*%
%ADD15R,0.400000X0.600000*%
%ADD16R,0.600000X0.400000*%
%ADD17C,0.500380*%
%ADD18R,1.100000X1.900000*%
%ADD19R,1.400000X1.200000*%
%ADD20R,2.200000X1.600000*%
%ADD21R,1.800000X0.700000*%
%ADD22R,2.500000X1.700000*%
%ADD23R,0.700000X0.900000*%
%ADD24O,0.300000X0.750000*%
%ADD25O,0.750000X0.300000*%
%ADD26R,0.540000X0.540000*%
%ADD27R,1.250000X5.200000*%
%ADD28R,0.800000X0.750000*%
G04 APERTURE END LIST*
D10*
D11*
X117050000Y-100880000D03*
X120050000Y-100880000D03*
D12*
X148250000Y-93680000D03*
X147300000Y-93680000D03*
X146350000Y-93680000D03*
X146350000Y-91480000D03*
X148250000Y-91480000D03*
D13*
X123175000Y-91555000D03*
X123175000Y-92655000D03*
D14*
X148400000Y-94930000D03*
X147300000Y-94930000D03*
D13*
X142700000Y-110030000D03*
X142700000Y-108930000D03*
D14*
X148400000Y-90205000D03*
X147300000Y-90205000D03*
X122350000Y-74330000D03*
X121250000Y-74330000D03*
X122400000Y-76830000D03*
X121300000Y-76830000D03*
X122400000Y-79330000D03*
X121300000Y-79330000D03*
X122500000Y-82030000D03*
X121400000Y-82030000D03*
D15*
X137100000Y-75680000D03*
X138000000Y-75680000D03*
X137100000Y-76580000D03*
X138000000Y-76580000D03*
D16*
X124975000Y-90655000D03*
X124975000Y-89755000D03*
D17*
X138075640Y-86664960D03*
X137074880Y-86664960D03*
X136074120Y-86664960D03*
X135075900Y-86664960D03*
X134075140Y-86664960D03*
X133074380Y-86664960D03*
X132076160Y-86664960D03*
X131075400Y-86664960D03*
X130074640Y-86664960D03*
X129073880Y-86664960D03*
X128075660Y-86664960D03*
X127074900Y-86664960D03*
X138075640Y-87665720D03*
X138075640Y-88666480D03*
X138075640Y-89664700D03*
X138075640Y-90665460D03*
X138075640Y-91666220D03*
X138075640Y-92664440D03*
X138075640Y-93665200D03*
X138075640Y-94665960D03*
X127074900Y-87665720D03*
X128075660Y-87665720D03*
X129073880Y-87665720D03*
X130074640Y-87665720D03*
X131075400Y-87665720D03*
X132076160Y-87665720D03*
X133074380Y-87665720D03*
X134075140Y-87665720D03*
X137074880Y-87665720D03*
X136074120Y-87665720D03*
X135075900Y-87665720D03*
X137074880Y-88666480D03*
X136074120Y-88666480D03*
X135075900Y-88666480D03*
X134075140Y-88666480D03*
X133074380Y-88666480D03*
X132076160Y-88666480D03*
X131075400Y-88666480D03*
X130074640Y-88666480D03*
X137074880Y-89664700D03*
X136074120Y-89664700D03*
X135075900Y-89664700D03*
X134075140Y-89664700D03*
X133074380Y-89664700D03*
X132076160Y-89664700D03*
X131075400Y-89664700D03*
X130074640Y-89664700D03*
X137074880Y-90665460D03*
X136074120Y-90665460D03*
X135075900Y-90665460D03*
X129073880Y-88666480D03*
X129073880Y-89664700D03*
X128075660Y-88666480D03*
X128075660Y-89664700D03*
X127074900Y-89664700D03*
X127074900Y-88666480D03*
X137074880Y-91666220D03*
X136074120Y-91666220D03*
X135075900Y-91666220D03*
X135075900Y-92664440D03*
X136074120Y-92664440D03*
X137074880Y-92664440D03*
X137074880Y-93665200D03*
X136074120Y-93665200D03*
X135075900Y-93665200D03*
X135075900Y-94665960D03*
X136074120Y-94665960D03*
X137074880Y-94665960D03*
X138075640Y-95666720D03*
X137074880Y-95666720D03*
X136074120Y-95666720D03*
X135075900Y-95666720D03*
X135075900Y-96664940D03*
X136074120Y-96664940D03*
X137074880Y-96664940D03*
X138075640Y-96664940D03*
X138075640Y-97665700D03*
X137074880Y-97665700D03*
X136074120Y-97665700D03*
X135075900Y-97665700D03*
X131075400Y-90665460D03*
X132076160Y-90665460D03*
X133074380Y-90665460D03*
X134075140Y-90665460D03*
X134075140Y-91666220D03*
X133074380Y-91666220D03*
X132076160Y-91666220D03*
X131075400Y-91666220D03*
X134075140Y-92664440D03*
X133074380Y-92664440D03*
X132076160Y-92664440D03*
X131075400Y-92664440D03*
X134075140Y-93665200D03*
X133074380Y-93665200D03*
X132076160Y-93665200D03*
X131075400Y-93665200D03*
X134075140Y-94665960D03*
X133074380Y-94665960D03*
X132076160Y-94665960D03*
X131075400Y-94665960D03*
X134075140Y-95666720D03*
X133074380Y-95666720D03*
X132076160Y-95666720D03*
X131075400Y-95666720D03*
X134075140Y-96664940D03*
X133074380Y-96664940D03*
X132076160Y-96664940D03*
X131075400Y-96664940D03*
X134075140Y-97665700D03*
X133074380Y-97665700D03*
X132076160Y-97665700D03*
X131075400Y-97665700D03*
X130074640Y-90665460D03*
X129073880Y-90665460D03*
X128075660Y-90665460D03*
X127074900Y-90665460D03*
X130074640Y-91666220D03*
X129073880Y-91666220D03*
X128075660Y-91666220D03*
X127074900Y-91666220D03*
X130074640Y-94665960D03*
X127074900Y-92664440D03*
X128075660Y-92664440D03*
X129073880Y-92664440D03*
X130074640Y-92664440D03*
X130074640Y-93665200D03*
X129073880Y-93665200D03*
X128075660Y-93665200D03*
X127074900Y-93665200D03*
X129073880Y-94665960D03*
X128075660Y-94665960D03*
X127074900Y-94665960D03*
X130074640Y-97665700D03*
X130074640Y-96664940D03*
X130074640Y-95666720D03*
X129073880Y-95666720D03*
X129073880Y-96664940D03*
X129073880Y-97665700D03*
X128075660Y-97665700D03*
X128075660Y-96664940D03*
X128075660Y-95666720D03*
X127074900Y-95666720D03*
X127074900Y-96664940D03*
X127074900Y-97665700D03*
D18*
X133825000Y-100030000D03*
X131325000Y-100030000D03*
D19*
X129150000Y-101305000D03*
X126950000Y-101305000D03*
X126950000Y-99705000D03*
X129150000Y-99705000D03*
D20*
X128350000Y-116855000D03*
X128350000Y-110905000D03*
D21*
X131650000Y-114505000D03*
X131650000Y-113255000D03*
D14*
X145850000Y-107630000D03*
X144750000Y-107630000D03*
X137350000Y-107730000D03*
X138450000Y-107730000D03*
D13*
X138400000Y-109880000D03*
X138400000Y-108780000D03*
D22*
X129200000Y-106680000D03*
X125200000Y-106680000D03*
X139950000Y-114280000D03*
X135950000Y-114280000D03*
D23*
X136000000Y-109030000D03*
X137300000Y-109030000D03*
X136650000Y-110930000D03*
D16*
X138050000Y-117430000D03*
X138050000Y-118330000D03*
X139050000Y-117430000D03*
X139050000Y-118330000D03*
X137050000Y-117430000D03*
X137050000Y-118330000D03*
D12*
X145850000Y-111130000D03*
X144900000Y-111130000D03*
X143950000Y-111130000D03*
X143950000Y-108930000D03*
X145850000Y-108930000D03*
D24*
X122875000Y-96380000D03*
X123375000Y-96380000D03*
X123875000Y-96380000D03*
X124375000Y-96380000D03*
D25*
X125100000Y-97105000D03*
X125100000Y-97605000D03*
X125100000Y-98105000D03*
X125100000Y-98605000D03*
D24*
X124375000Y-99330000D03*
X123875000Y-99330000D03*
X123375000Y-99330000D03*
X122875000Y-99330000D03*
D25*
X122150000Y-98605000D03*
X122150000Y-98105000D03*
X122150000Y-97605000D03*
X122150000Y-97105000D03*
D26*
X124075000Y-98305000D03*
X123175000Y-98305000D03*
X124075000Y-97405000D03*
X123175000Y-97405000D03*
D27*
X132400000Y-106730000D03*
X134400000Y-106730000D03*
D28*
X138400000Y-111080000D03*
X139900000Y-111080000D03*
M02*
