G04 #@! TF.FileFunction,Soldermask,Top*
%FSLAX46Y46*%
G04 Gerber Fmt 4.6, Leading zero omitted, Abs format (unit mm)*
G04 Created by KiCad (PCBNEW 4.0.6) date Friday, April 06, 2018 'AMt' 10:50:20 AM*
%MOMM*%
%LPD*%
G01*
G04 APERTURE LIST*
%ADD10C,0.100000*%
%ADD11R,1.000000X1.400000*%
%ADD12R,1.400000X1.000000*%
%ADD13C,2.600000*%
%ADD14R,1.400000X2.000000*%
%ADD15R,1.432000X0.900000*%
%ADD16R,1.432000X1.022000*%
%ADD17R,1.200000X1.150000*%
%ADD18R,1.150000X1.200000*%
%ADD19R,0.600000X1.150000*%
%ADD20R,1.150000X0.600000*%
%ADD21R,2.300000X2.300000*%
%ADD22R,3.200000X3.200000*%
%ADD23R,3.200000X2.600000*%
%ADD24C,2.100000*%
%ADD25R,0.900000X1.000000*%
%ADD26R,1.000000X0.900000*%
%ADD27R,1.000000X0.800000*%
%ADD28R,0.830000X0.680000*%
%ADD29R,0.680000X0.830000*%
%ADD30O,1.800000X1.800000*%
%ADD31R,2.000000X1.800000*%
%ADD32R,0.800000X1.750000*%
%ADD33R,0.800000X1.000000*%
%ADD34R,1.450000X1.050000*%
%ADD35R,2.100000X2.100000*%
%ADD36O,2.100000X2.100000*%
%ADD37R,1.400000X1.200000*%
%ADD38R,2.000000X1.600000*%
%ADD39R,1.050000X0.800000*%
%ADD40R,1.400000X1.100000*%
%ADD41R,1.600000X1.400000*%
%ADD42R,1.600000X1.550000*%
%ADD43R,1.600000X1.850000*%
%ADD44R,1.100000X1.400000*%
%ADD45R,1.300000X1.800000*%
G04 APERTURE END LIST*
D10*
D11*
X151650000Y-104180000D03*
X150850000Y-104180000D03*
X150050000Y-104180000D03*
X149250000Y-104180000D03*
X148450000Y-104180000D03*
X147650000Y-104180000D03*
X146850000Y-104180000D03*
X146050000Y-104180000D03*
X145250000Y-104180000D03*
X144450000Y-104180000D03*
X143650000Y-104180000D03*
X142850000Y-104180000D03*
X142050000Y-104180000D03*
X141250000Y-104180000D03*
X140450000Y-104180000D03*
X139650000Y-104180000D03*
X138850000Y-104180000D03*
X138050000Y-104180000D03*
X137250000Y-104180000D03*
X136450000Y-104180000D03*
X135650000Y-104180000D03*
D12*
X134650000Y-105180000D03*
X134650000Y-105980000D03*
X134650000Y-106780000D03*
X134650000Y-107580000D03*
X134650000Y-108380000D03*
X134650000Y-109180000D03*
X134650000Y-109980000D03*
X134650000Y-110780000D03*
X134650000Y-111580000D03*
X134650000Y-112380000D03*
X134650000Y-113180000D03*
X134650000Y-113980000D03*
X134650000Y-114780000D03*
D11*
X135650000Y-115780000D03*
X136450000Y-115780000D03*
X137250000Y-115780000D03*
X138050000Y-115780000D03*
X138850000Y-115780000D03*
X139650000Y-115780000D03*
X140450000Y-115780000D03*
X141250000Y-115780000D03*
X142050000Y-115780000D03*
X142850000Y-115780000D03*
X143650000Y-115780000D03*
X144450000Y-115780000D03*
X145250000Y-115780000D03*
X146050000Y-115780000D03*
X146850000Y-115780000D03*
X147650000Y-115780000D03*
X148450000Y-115780000D03*
D13*
X117600000Y-118230000D03*
D14*
X126150000Y-87430000D03*
X129150000Y-87430000D03*
X138900000Y-87480000D03*
X135900000Y-87480000D03*
D15*
X115814200Y-65368000D03*
X118022200Y-65368000D03*
D16*
X115814200Y-66252000D03*
X115814200Y-64484000D03*
X118022200Y-64484000D03*
X118022200Y-66252000D03*
D17*
X132900000Y-53530000D03*
X134400000Y-53530000D03*
X132900000Y-52230000D03*
X134400000Y-52230000D03*
X134400000Y-54830000D03*
X132900000Y-54830000D03*
D18*
X135025000Y-66730000D03*
X135025000Y-65230000D03*
X129650000Y-65155000D03*
X129650000Y-66655000D03*
D17*
X134400000Y-50930000D03*
X132900000Y-50930000D03*
D19*
X131394600Y-77547000D03*
X131794600Y-77547000D03*
X132194600Y-77547000D03*
X132594600Y-77547000D03*
X132994600Y-77547000D03*
X133394600Y-77547000D03*
X133794600Y-77547000D03*
X134194600Y-77547000D03*
X134594600Y-77547000D03*
X134994600Y-77547000D03*
D20*
X135694600Y-76847000D03*
X135694600Y-76447000D03*
X135694600Y-76047000D03*
X135694600Y-75647000D03*
X135694600Y-75247000D03*
X135694600Y-74847000D03*
X135694600Y-74447000D03*
X135694600Y-74047000D03*
X135694600Y-73647000D03*
X135694600Y-73247000D03*
D19*
X134994600Y-72547000D03*
X134594600Y-72547000D03*
X134194600Y-72547000D03*
X133794600Y-72547000D03*
X133394600Y-72547000D03*
X132994600Y-72547000D03*
X132594600Y-72547000D03*
X132194600Y-72547000D03*
X131794600Y-72547000D03*
X131394600Y-72547000D03*
D20*
X130694600Y-73247000D03*
X130694600Y-73647000D03*
X130694600Y-74047000D03*
X130694600Y-74447000D03*
X130694600Y-74847000D03*
X130694600Y-75247000D03*
X130694600Y-75647000D03*
X130694600Y-76047000D03*
X130694600Y-76447000D03*
X130694600Y-76847000D03*
D21*
X134144600Y-74097000D03*
X132244600Y-74097000D03*
X134144600Y-75997000D03*
X132244600Y-75997000D03*
D15*
X151816467Y-65332529D03*
X149608467Y-65332529D03*
D16*
X151816467Y-64448529D03*
X151816467Y-66216529D03*
X149608467Y-66216529D03*
X149608467Y-64448529D03*
D22*
X124200000Y-62080000D03*
X119250000Y-58180000D03*
D23*
X127650000Y-50780000D03*
D24*
X123450000Y-56880000D03*
X123450000Y-49880000D03*
D23*
X119250000Y-48780000D03*
D22*
X140050000Y-58180000D03*
D23*
X148450000Y-50780000D03*
D24*
X144250000Y-56880000D03*
X144250000Y-49880000D03*
D23*
X140050000Y-48780000D03*
D25*
X135200000Y-90280000D03*
X135200000Y-91380000D03*
X129117900Y-75919400D03*
X129117900Y-77019400D03*
X128990900Y-68947100D03*
X128990900Y-70047100D03*
X137200600Y-79539300D03*
X137200600Y-78439300D03*
X138496000Y-79539300D03*
X138496000Y-78439300D03*
D26*
X129096400Y-79149100D03*
X127996400Y-79149100D03*
X129096400Y-78171200D03*
X127996400Y-78171200D03*
D25*
X128000300Y-75919400D03*
X128000300Y-77019400D03*
D26*
X129000000Y-72680000D03*
X127900000Y-72680000D03*
D25*
X130045000Y-70047100D03*
X130045000Y-68947100D03*
X135455200Y-70517000D03*
X135455200Y-69417000D03*
X132925000Y-66180000D03*
X132925000Y-65080000D03*
X131775000Y-66205000D03*
X131775000Y-65105000D03*
D26*
X125900000Y-114080000D03*
X124800000Y-114080000D03*
X146442266Y-64448531D03*
X147542266Y-64448531D03*
X146442266Y-66239231D03*
X147542266Y-66239231D03*
X121086800Y-66252000D03*
X119986800Y-66252000D03*
X121048700Y-64499400D03*
X119948700Y-64499400D03*
D27*
X130650000Y-87230000D03*
X130650000Y-88130000D03*
X134450000Y-87230000D03*
X134450000Y-88130000D03*
D28*
X131385000Y-79775000D03*
X131385000Y-79255000D03*
X133042200Y-79777400D03*
X133042200Y-79257400D03*
X133855000Y-79777400D03*
X133855000Y-79257400D03*
X135550000Y-79740000D03*
X135550000Y-79220000D03*
X136300000Y-79740000D03*
X136300000Y-79220000D03*
X132215000Y-79775000D03*
X132215000Y-79255000D03*
D29*
X138039300Y-75669300D03*
X137519300Y-75669300D03*
X138039300Y-76532900D03*
X137519300Y-76532900D03*
D25*
X132750000Y-92730000D03*
X132750000Y-93830000D03*
D26*
X134400000Y-94380000D03*
X135500000Y-94380000D03*
D25*
X130900000Y-92730000D03*
X130900000Y-93830000D03*
X131800000Y-92730000D03*
X131800000Y-93830000D03*
X131125000Y-91755000D03*
X131125000Y-90655000D03*
X132125000Y-91755000D03*
X132125000Y-90655000D03*
D30*
X124800000Y-119080000D03*
D21*
X129300000Y-119080000D03*
D31*
X131300000Y-116630000D03*
D32*
X126800000Y-116405000D03*
X127450000Y-116405000D03*
X129400000Y-116405000D03*
X128750000Y-116405000D03*
X128100000Y-116405000D03*
D31*
X124900000Y-116630000D03*
D21*
X126900000Y-119080000D03*
D30*
X131400000Y-119080000D03*
D33*
X135150000Y-92480000D03*
X134250000Y-92480000D03*
D27*
X127400000Y-114230000D03*
X127400000Y-113330000D03*
X128400000Y-114230000D03*
X128400000Y-113330000D03*
D34*
X147750000Y-100080000D03*
X151900000Y-100080000D03*
X147750000Y-102230000D03*
X151900000Y-102230000D03*
D35*
X121150000Y-94105000D03*
D36*
X121150000Y-91565000D03*
X121150000Y-89025000D03*
D25*
X140500000Y-93080000D03*
X140500000Y-94180000D03*
X141175000Y-101455000D03*
X141175000Y-102555000D03*
X140050000Y-101430000D03*
X140050000Y-102530000D03*
D37*
X134550000Y-117930000D03*
X136050000Y-117930000D03*
X136050000Y-119030000D03*
X134550000Y-119030000D03*
D35*
X151050000Y-71680000D03*
D36*
X151050000Y-74220000D03*
X151050000Y-76760000D03*
X151050000Y-79300000D03*
X151050000Y-81840000D03*
X151050000Y-84380000D03*
D35*
X116650000Y-71780000D03*
D36*
X116650000Y-74320000D03*
X116650000Y-76860000D03*
X116650000Y-79400000D03*
X116650000Y-81940000D03*
X116650000Y-84480000D03*
D33*
X142925000Y-102555000D03*
X142025000Y-102555000D03*
X138300000Y-102530000D03*
X139200000Y-102530000D03*
X142025000Y-101555000D03*
X142925000Y-101555000D03*
X139200000Y-101505000D03*
X138300000Y-101505000D03*
D26*
X134400000Y-93430000D03*
X135500000Y-93430000D03*
D25*
X133850000Y-91380000D03*
X133850000Y-90280000D03*
D38*
X120250000Y-102080000D03*
X117050000Y-102080000D03*
X120250000Y-104580000D03*
X117050000Y-104580000D03*
X117050000Y-99580000D03*
X120250000Y-99580000D03*
D26*
X124800000Y-111980000D03*
X125900000Y-111980000D03*
X124800000Y-111080000D03*
X125900000Y-111080000D03*
X124800000Y-110180000D03*
X125900000Y-110180000D03*
X130650000Y-114830000D03*
X131750000Y-114830000D03*
D17*
X124400000Y-113030000D03*
X125900000Y-113030000D03*
D35*
X119350000Y-71780000D03*
D36*
X119350000Y-74320000D03*
X119350000Y-76860000D03*
X119350000Y-79400000D03*
X119350000Y-81940000D03*
X119350000Y-84480000D03*
D39*
X137500000Y-68080000D03*
X137500000Y-69380000D03*
X137500000Y-68730000D03*
X139400000Y-69380000D03*
X139400000Y-68080000D03*
D13*
X146600000Y-118230000D03*
D35*
X148350000Y-71705000D03*
D36*
X148350000Y-74245000D03*
X148350000Y-76785000D03*
X148350000Y-79325000D03*
X148350000Y-81865000D03*
X148350000Y-84405000D03*
D40*
X142560000Y-89430000D03*
X142560000Y-90530000D03*
X142560000Y-91630000D03*
X142560000Y-92730000D03*
X142560000Y-93830000D03*
X142560000Y-94930000D03*
X142560000Y-96030000D03*
X142560000Y-97130000D03*
D41*
X143610000Y-98405000D03*
D42*
X146200000Y-98205000D03*
D43*
X144050000Y-87805000D03*
D44*
X145200000Y-87580000D03*
D45*
X146350000Y-87780000D03*
M02*
