M48
;DRILL file {KiCad 4.0.6} date Friday, April 06, 2018 'AMt' 10:50:27 AM
;FORMAT={-:-/ absolute / inch / decimal}
FMAT,2
INCH,TZ
T1C0.004
%
G90
G05
M72
T1
X4.7717Y-3.7935
X4.8543Y-3.9549
X4.877Y-3.9549
X4.9557Y-3.9008
X4.9646Y-3.7935
X4.9646Y-3.8427
X4.9646Y-3.8624
X4.9646Y-3.8821
X5.0217Y-3.6291
X5.0226Y-3.6675
X5.062Y-3.4323
X5.065Y-3.5848
X5.0827Y-3.8791
X5.1033Y-3.5868
X5.1398Y-3.6291
X5.1407Y-3.4717
X5.1427Y-3.6685
X5.1801Y-3.511
X5.1811Y-3.7463
X5.1833Y-3.5937
X5.2185Y-3.511
X5.2185Y-3.825
X5.2195Y-3.7463
X5.2195Y-3.7856
X5.2205Y-3.4313
X5.2205Y-3.4697
X5.2579Y-3.7059
X5.2589Y-3.7463
X5.2598Y-3.6291
X5.262Y-3.6705
X5.2992Y-3.7856
X5.3356Y-3.5081
X5.3366Y-3.7866
X5.3376Y-3.4707
X5.3376Y-3.5888
X5.3386Y-3.6685
X5.3701Y-3.5425
X5.377Y-3.51
X5.377Y-3.5898
X5.377Y-3.7079
X5.4144Y-3.5878
X5.4154Y-3.5445
X5.4154Y-3.7846
X5.4163Y-3.51
X5.4163Y-3.7079
T0
M30
