M48
;DRILL file {KiCad 4.0.6} date Friday, April 06, 2018 'AMt' 10:50:27 AM
;FORMAT={-:-/ absolute / inch / decimal}
FMAT,2
INCH,TZ
T1C0.016
T2C0.039
%
G90
G05
M72
T1
X4.5775Y-2.638
X4.6043Y-3.8555
X4.6713Y-3.9736
X4.6752Y-3.8575
X4.688Y-2.5386
X4.6885Y-2.5735
X4.689Y-2.6075
X4.7225Y-2.638
X4.7461Y-2.9766
X4.747Y-3.077
X4.752Y-3.1764
X4.7874Y-3.1587
X4.7884Y-2.3427
X4.7943Y-4.5632
X4.7972Y-2.9618
X4.7972Y-4.4205
X4.814Y-4.0563
X4.815Y-4.2177
X4.8189Y-2.5632
X4.8189Y-2.9864
X4.8199Y-3.1596
X4.8337Y-2.7551
X4.8563Y-4.1744
X4.8612Y-2.7787
X4.8612Y-3.2295
X4.8642Y-4.3555
X4.875Y-4.5297
X4.8898Y-2.7118
X4.8898Y-3.1222
X4.8898Y-4.1272
X4.9203Y-3.6065
X4.9222Y-3.4963
X4.9272Y-4.2846
X4.9557Y-2.5337
X4.9567Y-2.9156
X4.9582Y-3.6031
X4.9636Y-3.638
X4.9724Y-4.5346
X4.9902Y-4.078
X5.0039Y-3.0278
X5.0049Y-3.0642
X5.0148Y-4.0465
X5.0463Y-2.7522
X5.0522Y-2.0967
X5.0522Y-2.5652
X5.0571Y-2.8339
X5.0591Y-4.0583
X5.0837Y-2.9047
X5.0945Y-4.4618
X5.0965Y-4.2728
X5.1132Y-2.074
X5.1142Y-2.1085
X5.1142Y-2.8437
X5.1201Y-3.1173
X5.1211Y-3.3555
X5.1339Y-3.8752
X5.1476Y-2.6596
X5.1555Y-2.7512
X5.1614Y-3.3614
X5.1909Y-2.7984
X5.1949Y-2.7138
X5.1959Y-3.1823
X5.2008Y-2.7551
X5.2065Y-2.9172
X5.2065Y-2.992
X5.2333Y-2.3693
X5.2362Y-3.3171
X5.2362Y-3.3663
X5.2372Y-3.1823
X5.2372Y-4.0612
X5.2402Y-4.4205
X5.25Y-4.6104
X5.252Y-4.326
X5.252Y-4.3791
X5.252Y-4.6862
X5.2726Y-3.1852
X5.2813Y-2.9172
X5.2813Y-2.992
X5.2854Y-4.5976
X5.3346Y-2.1577
X5.3396Y-2.0278
X5.3435Y-2.8299
X5.3524Y-4.2472
X5.3583Y-3.1764
X5.3632Y-2.5287
X5.3661Y-4.1478
X5.3681Y-2.7049
X5.3957Y-2.9402
X5.3957Y-4.5937
X5.3996Y-2.8752
X5.4026Y-3.1715
X5.4134Y-4.4195
X5.4154Y-2.6114
X5.4173Y-1.9224
X5.4203Y-2.9156
X5.4232Y-4.1478
X5.4271Y-3.0883
X5.4281Y-3.1313
X5.4331Y-3.8909
X5.435Y-4.5957
X5.435Y-4.6862
X5.436Y-3.3289
X5.437Y-3.2925
X5.4459Y-4.4461
X5.4665Y-4.7118
X5.4675Y-3.0159
X5.4685Y-2.9785
X5.4744Y-4.5957
X5.4754Y-3.822
X5.4774Y-3.6508
X5.4803Y-3.5425
X5.4921Y-4.2846
X5.5079Y-2.7797
X5.5108Y-4.6409
X5.5128Y-2.1557
X5.5138Y-3.9559
X5.5305Y-3.4254
X5.5335Y-2.6803
X5.5384Y-4.6715
X5.5581Y-3.9559
X5.562Y-3.5219
X5.563Y-3.6065
X5.564Y-3.5642
X5.565Y-3.7807
X5.5659Y-3.6921
X5.5689Y-4.3319
X5.5719Y-4.6173
X5.5866Y-4.2551
X5.5915Y-4.5091
X5.5965Y-2.9156
X5.624Y-4.51
X5.625Y-2.9402
X5.6496Y-3.1705
X5.6496Y-3.3467
X5.6742Y-3.2374
X5.6742Y-3.2738
X5.6752Y-3.201
X5.6752Y-3.3713
X5.7008Y-3.1232
X5.7185Y-2.6104
X5.7283Y-3.0228
X5.753Y-2.0268
X5.7589Y-2.9234
X5.7618Y-3.9402
X5.7746Y-2.823
X5.7874Y-3.3969
X5.7874Y-4.2866
X5.7982Y-3.6439
X5.8231Y-2.5053
X5.8451Y-2.5363
X5.8451Y-2.5723
X5.8451Y-2.6063
X5.8917Y-3.5504
X5.8917Y-3.6016
X5.8976Y-3.4254
X5.9671Y-2.5003
T2
X4.5925Y-2.826
X4.5925Y-2.926
X4.5925Y-3.026
X4.5925Y-3.126
X4.5925Y-3.226
X4.5925Y-3.326
X4.6988Y-2.826
X4.6988Y-2.926
X4.6988Y-3.026
X4.6988Y-3.126
X4.6988Y-3.226
X4.6988Y-3.326
X4.7697Y-3.5049
X4.7697Y-3.6049
X4.7697Y-3.7049
X4.9134Y-4.6882
X5.1732Y-4.6882
X5.8406Y-2.823
X5.8406Y-2.923
X5.8406Y-3.023
X5.8406Y-3.123
X5.8406Y-3.223
X5.8406Y-3.323
X5.9469Y-2.822
X5.9469Y-2.922
X5.9469Y-3.022
X5.9469Y-3.122
X5.9469Y-3.222
X5.9469Y-3.322
T0
M30
