G04 #@! TF.FileFunction,Legend,Bot*
%FSLAX46Y46*%
G04 Gerber Fmt 4.6, Leading zero omitted, Abs format (unit mm)*
G04 Created by KiCad (PCBNEW 4.0.6) date Friday, April 06, 2018 'AMt' 10:50:20 AM*
%MOMM*%
%LPD*%
G01*
G04 APERTURE LIST*
%ADD10C,0.100000*%
%ADD11C,0.177800*%
%ADD12C,0.120000*%
%ADD13C,0.150000*%
%ADD14C,0.300000*%
%ADD15C,0.127000*%
G04 APERTURE END LIST*
D10*
D11*
X142172286Y-60995429D02*
X141301429Y-60995429D01*
X141736858Y-62519429D02*
X141736858Y-60995429D01*
X140503143Y-61793714D02*
X140503143Y-62519429D01*
X141011143Y-60995429D02*
X140503143Y-61793714D01*
X139995143Y-60995429D01*
X139487143Y-62519429D02*
X139487143Y-60995429D01*
X138979143Y-62084000D01*
X138471143Y-60995429D01*
X138471143Y-62519429D01*
X137745429Y-62519429D02*
X137745429Y-60995429D01*
X137164857Y-60995429D01*
X137019715Y-61068000D01*
X136947143Y-61140571D01*
X136874572Y-61285714D01*
X136874572Y-61503429D01*
X136947143Y-61648571D01*
X137019715Y-61721143D01*
X137164857Y-61793714D01*
X137745429Y-61793714D01*
X136294000Y-62084000D02*
X135568286Y-62084000D01*
X136439143Y-62519429D02*
X135931143Y-60995429D01*
X135423143Y-62519429D01*
X134915143Y-62519429D02*
X134915143Y-60995429D01*
X134044286Y-62519429D01*
X134044286Y-60995429D01*
X130125429Y-62519429D02*
X130633429Y-61793714D01*
X130996286Y-62519429D02*
X130996286Y-60995429D01*
X130415714Y-60995429D01*
X130270572Y-61068000D01*
X130198000Y-61140571D01*
X130125429Y-61285714D01*
X130125429Y-61503429D01*
X130198000Y-61648571D01*
X130270572Y-61721143D01*
X130415714Y-61793714D01*
X130996286Y-61793714D01*
X128891714Y-62446857D02*
X129036857Y-62519429D01*
X129327143Y-62519429D01*
X129472286Y-62446857D01*
X129544857Y-62301714D01*
X129544857Y-61721143D01*
X129472286Y-61576000D01*
X129327143Y-61503429D01*
X129036857Y-61503429D01*
X128891714Y-61576000D01*
X128819143Y-61721143D01*
X128819143Y-61866286D01*
X129544857Y-62011429D01*
X128311143Y-61503429D02*
X127948286Y-62519429D01*
X127585428Y-61503429D01*
X125843714Y-62519429D02*
X125843714Y-60995429D01*
X125480857Y-60995429D01*
X125263142Y-61068000D01*
X125118000Y-61213143D01*
X125045428Y-61358286D01*
X124972857Y-61648571D01*
X124972857Y-61866286D01*
X125045428Y-62156571D01*
X125118000Y-62301714D01*
X125263142Y-62446857D01*
X125480857Y-62519429D01*
X125843714Y-62519429D01*
X119141143Y-88596114D02*
X118669429Y-88596114D01*
X118923429Y-88886400D01*
X118814571Y-88886400D01*
X118742000Y-88922686D01*
X118705714Y-88958971D01*
X118669429Y-89031543D01*
X118669429Y-89212971D01*
X118705714Y-89285543D01*
X118742000Y-89321829D01*
X118814571Y-89358114D01*
X119032286Y-89358114D01*
X119104857Y-89321829D01*
X119141143Y-89285543D01*
X118451715Y-88596114D02*
X118197715Y-89358114D01*
X117943715Y-88596114D01*
X117762286Y-88596114D02*
X117290572Y-88596114D01*
X117544572Y-88886400D01*
X117435714Y-88886400D01*
X117363143Y-88922686D01*
X117326857Y-88958971D01*
X117290572Y-89031543D01*
X117290572Y-89212971D01*
X117326857Y-89285543D01*
X117363143Y-89321829D01*
X117435714Y-89358114D01*
X117653429Y-89358114D01*
X117726000Y-89321829D01*
X117762286Y-89285543D01*
X119104857Y-91782000D02*
X118742000Y-91782000D01*
X119177429Y-91999714D02*
X118923429Y-91237714D01*
X118669429Y-91999714D01*
X118016286Y-91999714D02*
X118451714Y-91999714D01*
X118234000Y-91999714D02*
X118234000Y-91237714D01*
X118306571Y-91346571D01*
X118379143Y-91419143D01*
X118451714Y-91455429D01*
X118669429Y-93915600D02*
X118742000Y-93879314D01*
X118850857Y-93879314D01*
X118959714Y-93915600D01*
X119032286Y-93988171D01*
X119068571Y-94060743D01*
X119104857Y-94205886D01*
X119104857Y-94314743D01*
X119068571Y-94459886D01*
X119032286Y-94532457D01*
X118959714Y-94605029D01*
X118850857Y-94641314D01*
X118778286Y-94641314D01*
X118669429Y-94605029D01*
X118633143Y-94568743D01*
X118633143Y-94314743D01*
X118778286Y-94314743D01*
X118306571Y-94641314D02*
X118306571Y-93879314D01*
X117871143Y-94641314D01*
X117871143Y-93879314D01*
X117508285Y-94641314D02*
X117508285Y-93879314D01*
X117326857Y-93879314D01*
X117218000Y-93915600D01*
X117145428Y-93988171D01*
X117109143Y-94060743D01*
X117072857Y-94205886D01*
X117072857Y-94314743D01*
X117109143Y-94459886D01*
X117145428Y-94532457D01*
X117218000Y-94605029D01*
X117326857Y-94641314D01*
X117508285Y-94641314D01*
D12*
X119550000Y-101900000D02*
X117550000Y-101900000D01*
X117550000Y-99860000D02*
X119550000Y-99860000D01*
X145690000Y-93480000D02*
X145690000Y-91680000D01*
X148910000Y-91680000D02*
X148910000Y-94130000D01*
X122705000Y-92355000D02*
X122705000Y-91855000D01*
X123645000Y-91855000D02*
X123645000Y-92355000D01*
X147600000Y-94460000D02*
X148100000Y-94460000D01*
X148100000Y-95400000D02*
X147600000Y-95400000D01*
X143170000Y-109230000D02*
X143170000Y-109730000D01*
X142230000Y-109730000D02*
X142230000Y-109230000D01*
X147600000Y-89735000D02*
X148100000Y-89735000D01*
X148100000Y-90675000D02*
X147600000Y-90675000D01*
X121550000Y-73860000D02*
X122050000Y-73860000D01*
X122050000Y-74800000D02*
X121550000Y-74800000D01*
X121600000Y-76360000D02*
X122100000Y-76360000D01*
X122100000Y-77300000D02*
X121600000Y-77300000D01*
X121600000Y-78860000D02*
X122100000Y-78860000D01*
X122100000Y-79800000D02*
X121600000Y-79800000D01*
X121700000Y-81560000D02*
X122200000Y-81560000D01*
X122200000Y-82500000D02*
X121700000Y-82500000D01*
X137800000Y-76210000D02*
X137300000Y-76210000D01*
X137300000Y-75150000D02*
X137800000Y-75150000D01*
X137800000Y-77110000D02*
X137300000Y-77110000D01*
X137300000Y-76050000D02*
X137800000Y-76050000D01*
X125505000Y-89955000D02*
X125505000Y-90455000D01*
X124445000Y-90455000D02*
X124445000Y-89955000D01*
D13*
X138372820Y-86967220D02*
G75*
G03X138372820Y-86967220I-599440J0D01*
G01*
X139073860Y-92166600D02*
X139073860Y-85666740D01*
X139073860Y-85666740D02*
X126074140Y-85666740D01*
X126074140Y-85666740D02*
X126074140Y-98666460D01*
X126074140Y-98666460D02*
X139073860Y-98666460D01*
X139073860Y-98666460D02*
X139073860Y-92166600D01*
X136074120Y-86664960D02*
X136063960Y-86664960D01*
D14*
X131650000Y-113880000D02*
X131650000Y-116630000D01*
X131650000Y-116630000D02*
X126650000Y-116630000D01*
X126650000Y-116630000D02*
X126650000Y-111130000D01*
X126650000Y-111130000D02*
X131650000Y-111130000D01*
X131650000Y-111130000D02*
X131650000Y-113880000D01*
D12*
X145050000Y-107160000D02*
X145550000Y-107160000D01*
X145550000Y-108100000D02*
X145050000Y-108100000D01*
X138150000Y-108200000D02*
X137650000Y-108200000D01*
X137650000Y-107260000D02*
X138150000Y-107260000D01*
X138870000Y-109080000D02*
X138870000Y-109580000D01*
X137930000Y-109580000D02*
X137930000Y-109080000D01*
D10*
X129200000Y-105180000D02*
X125200000Y-105180000D01*
X125200000Y-108180000D02*
X129200000Y-108180000D01*
X139950000Y-112780000D02*
X135950000Y-112780000D01*
X135950000Y-115780000D02*
X139950000Y-115780000D01*
X135675000Y-109030000D02*
X135675000Y-110930000D01*
X135675000Y-110930000D02*
X137625000Y-110930000D01*
X137625000Y-110930000D02*
X137625000Y-109030000D01*
X137625000Y-109030000D02*
X135675000Y-109030000D01*
D12*
X137520000Y-118130000D02*
X137520000Y-117630000D01*
X138580000Y-117630000D02*
X138580000Y-118130000D01*
X138520000Y-118130000D02*
X138520000Y-117630000D01*
X139580000Y-117630000D02*
X139580000Y-118130000D01*
X136520000Y-118130000D02*
X136520000Y-117630000D01*
X137580000Y-117630000D02*
X137580000Y-118130000D01*
X143290000Y-110930000D02*
X143290000Y-109130000D01*
X146510000Y-109130000D02*
X146510000Y-111580000D01*
D13*
X122000000Y-99480000D02*
X122500000Y-99480000D01*
X125250000Y-96230000D02*
X124750000Y-96230000D01*
X125250000Y-99480000D02*
X124750000Y-99480000D01*
X122000000Y-96230000D02*
X122000000Y-96730000D01*
X125250000Y-96230000D02*
X125250000Y-96730000D01*
X125250000Y-99480000D02*
X125250000Y-98980000D01*
X122000000Y-99480000D02*
X122000000Y-98980000D01*
D12*
X138800000Y-111680000D02*
X139500000Y-111680000D01*
X139500000Y-110480000D02*
X138800000Y-110480000D01*
D15*
X118761667Y-102584643D02*
X118973334Y-102584643D01*
X118973334Y-102917262D02*
X118973334Y-102282262D01*
X118670953Y-102282262D01*
X118096428Y-102917262D02*
X118459286Y-102917262D01*
X118277857Y-102917262D02*
X118277857Y-102282262D01*
X118338333Y-102372976D01*
X118398809Y-102433452D01*
X118459286Y-102463690D01*
X149098562Y-93289990D02*
X149612610Y-93289990D01*
X149673086Y-93320229D01*
X149703324Y-93350467D01*
X149733562Y-93410943D01*
X149733562Y-93531895D01*
X149703324Y-93592371D01*
X149673086Y-93622610D01*
X149612610Y-93652848D01*
X149098562Y-93652848D01*
X149310229Y-94227371D02*
X149733562Y-94227371D01*
X149068324Y-94076181D02*
X149521895Y-93924990D01*
X149521895Y-94318086D01*
X123426786Y-89671786D02*
X123457024Y-89641548D01*
X123487262Y-89550833D01*
X123487262Y-89490357D01*
X123457024Y-89399643D01*
X123396548Y-89339167D01*
X123336071Y-89308928D01*
X123215119Y-89278690D01*
X123124405Y-89278690D01*
X123003452Y-89308928D01*
X122942976Y-89339167D01*
X122882500Y-89399643D01*
X122852262Y-89490357D01*
X122852262Y-89550833D01*
X122882500Y-89641548D01*
X122912738Y-89671786D01*
X123487262Y-90276548D02*
X123487262Y-89913690D01*
X123487262Y-90095119D02*
X122852262Y-90095119D01*
X122942976Y-90034643D01*
X123003452Y-89974167D01*
X123033690Y-89913690D01*
X123063929Y-90820833D02*
X123487262Y-90820833D01*
X122822024Y-90669643D02*
X123275595Y-90518452D01*
X123275595Y-90911548D01*
X148258214Y-96056786D02*
X148288452Y-96087024D01*
X148379167Y-96117262D01*
X148439643Y-96117262D01*
X148530357Y-96087024D01*
X148590833Y-96026548D01*
X148621072Y-95966071D01*
X148651310Y-95845119D01*
X148651310Y-95754405D01*
X148621072Y-95633452D01*
X148590833Y-95572976D01*
X148530357Y-95512500D01*
X148439643Y-95482262D01*
X148379167Y-95482262D01*
X148288452Y-95512500D01*
X148258214Y-95542738D01*
X148016310Y-95542738D02*
X147986072Y-95512500D01*
X147925595Y-95482262D01*
X147774405Y-95482262D01*
X147713929Y-95512500D01*
X147683691Y-95542738D01*
X147653452Y-95603214D01*
X147653452Y-95663690D01*
X147683691Y-95754405D01*
X148046548Y-96117262D01*
X147653452Y-96117262D01*
X147260357Y-95482262D02*
X147199881Y-95482262D01*
X147139405Y-95512500D01*
X147109167Y-95542738D01*
X147078929Y-95603214D01*
X147048690Y-95724167D01*
X147048690Y-95875357D01*
X147078929Y-95996310D01*
X147109167Y-96056786D01*
X147139405Y-96087024D01*
X147199881Y-96117262D01*
X147260357Y-96117262D01*
X147320833Y-96087024D01*
X147351071Y-96056786D01*
X147381310Y-95996310D01*
X147411548Y-95875357D01*
X147411548Y-95724167D01*
X147381310Y-95603214D01*
X147351071Y-95542738D01*
X147320833Y-95512500D01*
X147260357Y-95482262D01*
X142875986Y-111421286D02*
X142906224Y-111391048D01*
X142936462Y-111300333D01*
X142936462Y-111239857D01*
X142906224Y-111149143D01*
X142845748Y-111088667D01*
X142785271Y-111058428D01*
X142664319Y-111028190D01*
X142573605Y-111028190D01*
X142452652Y-111058428D01*
X142392176Y-111088667D01*
X142331700Y-111149143D01*
X142301462Y-111239857D01*
X142301462Y-111300333D01*
X142331700Y-111391048D01*
X142361938Y-111421286D01*
X142361938Y-111663190D02*
X142331700Y-111693428D01*
X142301462Y-111753905D01*
X142301462Y-111905095D01*
X142331700Y-111965571D01*
X142361938Y-111995809D01*
X142422414Y-112026048D01*
X142482890Y-112026048D01*
X142573605Y-111995809D01*
X142936462Y-111632952D01*
X142936462Y-112026048D01*
X142936462Y-112630810D02*
X142936462Y-112267952D01*
X142936462Y-112449381D02*
X142301462Y-112449381D01*
X142392176Y-112388905D01*
X142452652Y-112328429D01*
X142482890Y-112267952D01*
X148258214Y-89431786D02*
X148288452Y-89462024D01*
X148379167Y-89492262D01*
X148439643Y-89492262D01*
X148530357Y-89462024D01*
X148590833Y-89401548D01*
X148621072Y-89341071D01*
X148651310Y-89220119D01*
X148651310Y-89129405D01*
X148621072Y-89008452D01*
X148590833Y-88947976D01*
X148530357Y-88887500D01*
X148439643Y-88857262D01*
X148379167Y-88857262D01*
X148288452Y-88887500D01*
X148258214Y-88917738D01*
X148016310Y-88917738D02*
X147986072Y-88887500D01*
X147925595Y-88857262D01*
X147774405Y-88857262D01*
X147713929Y-88887500D01*
X147683691Y-88917738D01*
X147653452Y-88978214D01*
X147653452Y-89038690D01*
X147683691Y-89129405D01*
X148046548Y-89492262D01*
X147653452Y-89492262D01*
X147411548Y-88917738D02*
X147381310Y-88887500D01*
X147320833Y-88857262D01*
X147169643Y-88857262D01*
X147109167Y-88887500D01*
X147078929Y-88917738D01*
X147048690Y-88978214D01*
X147048690Y-89038690D01*
X147078929Y-89129405D01*
X147441786Y-89492262D01*
X147048690Y-89492262D01*
X124408214Y-74656786D02*
X124438452Y-74687024D01*
X124529167Y-74717262D01*
X124589643Y-74717262D01*
X124680357Y-74687024D01*
X124740833Y-74626548D01*
X124771072Y-74566071D01*
X124801310Y-74445119D01*
X124801310Y-74354405D01*
X124771072Y-74233452D01*
X124740833Y-74172976D01*
X124680357Y-74112500D01*
X124589643Y-74082262D01*
X124529167Y-74082262D01*
X124438452Y-74112500D01*
X124408214Y-74142738D01*
X124166310Y-74142738D02*
X124136072Y-74112500D01*
X124075595Y-74082262D01*
X123924405Y-74082262D01*
X123863929Y-74112500D01*
X123833691Y-74142738D01*
X123803452Y-74203214D01*
X123803452Y-74263690D01*
X123833691Y-74354405D01*
X124196548Y-74717262D01*
X123803452Y-74717262D01*
X123591786Y-74082262D02*
X123198690Y-74082262D01*
X123410357Y-74324167D01*
X123319643Y-74324167D01*
X123259167Y-74354405D01*
X123228929Y-74384643D01*
X123198690Y-74445119D01*
X123198690Y-74596310D01*
X123228929Y-74656786D01*
X123259167Y-74687024D01*
X123319643Y-74717262D01*
X123501071Y-74717262D01*
X123561548Y-74687024D01*
X123591786Y-74656786D01*
X124308214Y-77106786D02*
X124338452Y-77137024D01*
X124429167Y-77167262D01*
X124489643Y-77167262D01*
X124580357Y-77137024D01*
X124640833Y-77076548D01*
X124671072Y-77016071D01*
X124701310Y-76895119D01*
X124701310Y-76804405D01*
X124671072Y-76683452D01*
X124640833Y-76622976D01*
X124580357Y-76562500D01*
X124489643Y-76532262D01*
X124429167Y-76532262D01*
X124338452Y-76562500D01*
X124308214Y-76592738D01*
X124066310Y-76592738D02*
X124036072Y-76562500D01*
X123975595Y-76532262D01*
X123824405Y-76532262D01*
X123763929Y-76562500D01*
X123733691Y-76592738D01*
X123703452Y-76653214D01*
X123703452Y-76713690D01*
X123733691Y-76804405D01*
X124096548Y-77167262D01*
X123703452Y-77167262D01*
X123159167Y-76743929D02*
X123159167Y-77167262D01*
X123310357Y-76502024D02*
X123461548Y-76955595D01*
X123068452Y-76955595D01*
X124358214Y-79606786D02*
X124388452Y-79637024D01*
X124479167Y-79667262D01*
X124539643Y-79667262D01*
X124630357Y-79637024D01*
X124690833Y-79576548D01*
X124721072Y-79516071D01*
X124751310Y-79395119D01*
X124751310Y-79304405D01*
X124721072Y-79183452D01*
X124690833Y-79122976D01*
X124630357Y-79062500D01*
X124539643Y-79032262D01*
X124479167Y-79032262D01*
X124388452Y-79062500D01*
X124358214Y-79092738D01*
X124116310Y-79092738D02*
X124086072Y-79062500D01*
X124025595Y-79032262D01*
X123874405Y-79032262D01*
X123813929Y-79062500D01*
X123783691Y-79092738D01*
X123753452Y-79153214D01*
X123753452Y-79213690D01*
X123783691Y-79304405D01*
X124146548Y-79667262D01*
X123753452Y-79667262D01*
X123178929Y-79032262D02*
X123481310Y-79032262D01*
X123511548Y-79334643D01*
X123481310Y-79304405D01*
X123420833Y-79274167D01*
X123269643Y-79274167D01*
X123209167Y-79304405D01*
X123178929Y-79334643D01*
X123148690Y-79395119D01*
X123148690Y-79546310D01*
X123178929Y-79606786D01*
X123209167Y-79637024D01*
X123269643Y-79667262D01*
X123420833Y-79667262D01*
X123481310Y-79637024D01*
X123511548Y-79606786D01*
X124508214Y-82306786D02*
X124538452Y-82337024D01*
X124629167Y-82367262D01*
X124689643Y-82367262D01*
X124780357Y-82337024D01*
X124840833Y-82276548D01*
X124871072Y-82216071D01*
X124901310Y-82095119D01*
X124901310Y-82004405D01*
X124871072Y-81883452D01*
X124840833Y-81822976D01*
X124780357Y-81762500D01*
X124689643Y-81732262D01*
X124629167Y-81732262D01*
X124538452Y-81762500D01*
X124508214Y-81792738D01*
X124266310Y-81792738D02*
X124236072Y-81762500D01*
X124175595Y-81732262D01*
X124024405Y-81732262D01*
X123963929Y-81762500D01*
X123933691Y-81792738D01*
X123903452Y-81853214D01*
X123903452Y-81913690D01*
X123933691Y-82004405D01*
X124296548Y-82367262D01*
X123903452Y-82367262D01*
X123359167Y-81732262D02*
X123480119Y-81732262D01*
X123540595Y-81762500D01*
X123570833Y-81792738D01*
X123631310Y-81883452D01*
X123661548Y-82004405D01*
X123661548Y-82246310D01*
X123631310Y-82306786D01*
X123601071Y-82337024D01*
X123540595Y-82367262D01*
X123419643Y-82367262D01*
X123359167Y-82337024D01*
X123328929Y-82306786D01*
X123298690Y-82246310D01*
X123298690Y-82095119D01*
X123328929Y-82034643D01*
X123359167Y-82004405D01*
X123419643Y-81974167D01*
X123540595Y-81974167D01*
X123601071Y-82004405D01*
X123631310Y-82034643D01*
X123661548Y-82095119D01*
X139808214Y-75967262D02*
X140019881Y-75664881D01*
X140171072Y-75967262D02*
X140171072Y-75332262D01*
X139929167Y-75332262D01*
X139868691Y-75362500D01*
X139838452Y-75392738D01*
X139808214Y-75453214D01*
X139808214Y-75543929D01*
X139838452Y-75604405D01*
X139868691Y-75634643D01*
X139929167Y-75664881D01*
X140171072Y-75664881D01*
X139203452Y-75967262D02*
X139566310Y-75967262D01*
X139384881Y-75967262D02*
X139384881Y-75332262D01*
X139445357Y-75422976D01*
X139505833Y-75483452D01*
X139566310Y-75513690D01*
X138901071Y-75967262D02*
X138780119Y-75967262D01*
X138719643Y-75937024D01*
X138689405Y-75906786D01*
X138628929Y-75816071D01*
X138598690Y-75695119D01*
X138598690Y-75453214D01*
X138628929Y-75392738D01*
X138659167Y-75362500D01*
X138719643Y-75332262D01*
X138840595Y-75332262D01*
X138901071Y-75362500D01*
X138931310Y-75392738D01*
X138961548Y-75453214D01*
X138961548Y-75604405D01*
X138931310Y-75664881D01*
X138901071Y-75695119D01*
X138840595Y-75725357D01*
X138719643Y-75725357D01*
X138659167Y-75695119D01*
X138628929Y-75664881D01*
X138598690Y-75604405D01*
X139850514Y-76905362D02*
X140062181Y-76602981D01*
X140213372Y-76905362D02*
X140213372Y-76270362D01*
X139971467Y-76270362D01*
X139910991Y-76300600D01*
X139880752Y-76330838D01*
X139850514Y-76391314D01*
X139850514Y-76482029D01*
X139880752Y-76542505D01*
X139910991Y-76572743D01*
X139971467Y-76602981D01*
X140213372Y-76602981D01*
X139608610Y-76330838D02*
X139578372Y-76300600D01*
X139517895Y-76270362D01*
X139366705Y-76270362D01*
X139306229Y-76300600D01*
X139275991Y-76330838D01*
X139245752Y-76391314D01*
X139245752Y-76451790D01*
X139275991Y-76542505D01*
X139638848Y-76905362D01*
X139245752Y-76905362D01*
X138852657Y-76270362D02*
X138792181Y-76270362D01*
X138731705Y-76300600D01*
X138701467Y-76330838D01*
X138671229Y-76391314D01*
X138640990Y-76512267D01*
X138640990Y-76663457D01*
X138671229Y-76784410D01*
X138701467Y-76844886D01*
X138731705Y-76875124D01*
X138792181Y-76905362D01*
X138852657Y-76905362D01*
X138913133Y-76875124D01*
X138943371Y-76844886D01*
X138973610Y-76784410D01*
X139003848Y-76663457D01*
X139003848Y-76512267D01*
X138973610Y-76391314D01*
X138943371Y-76330838D01*
X138913133Y-76300600D01*
X138852657Y-76270362D01*
X125312262Y-91796786D02*
X125009881Y-91585119D01*
X125312262Y-91433928D02*
X124677262Y-91433928D01*
X124677262Y-91675833D01*
X124707500Y-91736309D01*
X124737738Y-91766548D01*
X124798214Y-91796786D01*
X124888929Y-91796786D01*
X124949405Y-91766548D01*
X124979643Y-91736309D01*
X125009881Y-91675833D01*
X125009881Y-91433928D01*
X124737738Y-92038690D02*
X124707500Y-92068928D01*
X124677262Y-92129405D01*
X124677262Y-92280595D01*
X124707500Y-92341071D01*
X124737738Y-92371309D01*
X124798214Y-92401548D01*
X124858690Y-92401548D01*
X124949405Y-92371309D01*
X125312262Y-92008452D01*
X125312262Y-92401548D01*
X124677262Y-92613214D02*
X124677262Y-93006310D01*
X124919167Y-92794643D01*
X124919167Y-92885357D01*
X124949405Y-92945833D01*
X124979643Y-92976071D01*
X125040119Y-93006310D01*
X125191310Y-93006310D01*
X125251786Y-92976071D01*
X125282024Y-92945833D01*
X125312262Y-92885357D01*
X125312262Y-92703929D01*
X125282024Y-92643452D01*
X125251786Y-92613214D01*
D13*
X133550190Y-84998981D02*
X133550190Y-83998981D01*
X132502571Y-84903743D02*
X132550190Y-84951362D01*
X132693047Y-84998981D01*
X132788285Y-84998981D01*
X132931143Y-84951362D01*
X133026381Y-84856124D01*
X133074000Y-84760886D01*
X133121619Y-84570410D01*
X133121619Y-84427552D01*
X133074000Y-84237076D01*
X133026381Y-84141838D01*
X132931143Y-84046600D01*
X132788285Y-83998981D01*
X132693047Y-83998981D01*
X132550190Y-84046600D01*
X132502571Y-84094219D01*
X131550190Y-84998981D02*
X132121619Y-84998981D01*
X131835905Y-84998981D02*
X131835905Y-83998981D01*
X131931143Y-84141838D01*
X132026381Y-84237076D01*
X132121619Y-84284695D01*
D15*
X132777381Y-101814881D02*
X132777381Y-102117262D01*
X132989048Y-101482262D02*
X132777381Y-101814881D01*
X132565714Y-101482262D01*
X132021428Y-102117262D02*
X132384286Y-102117262D01*
X132202857Y-102117262D02*
X132202857Y-101482262D01*
X132263333Y-101572976D01*
X132323809Y-101633452D01*
X132384286Y-101663690D01*
X128352381Y-102914881D02*
X128352381Y-103217262D01*
X128564048Y-102582262D02*
X128352381Y-102914881D01*
X128140714Y-102582262D01*
X127959286Y-102642738D02*
X127929048Y-102612500D01*
X127868571Y-102582262D01*
X127717381Y-102582262D01*
X127656905Y-102612500D01*
X127626667Y-102642738D01*
X127596428Y-102703214D01*
X127596428Y-102763690D01*
X127626667Y-102854405D01*
X127989524Y-103217262D01*
X127596428Y-103217262D01*
X131548929Y-117334643D02*
X131458215Y-117364881D01*
X131427976Y-117395119D01*
X131397738Y-117455595D01*
X131397738Y-117546310D01*
X131427976Y-117606786D01*
X131458215Y-117637024D01*
X131518691Y-117667262D01*
X131760596Y-117667262D01*
X131760596Y-117032262D01*
X131548929Y-117032262D01*
X131488453Y-117062500D01*
X131458215Y-117092738D01*
X131427976Y-117153214D01*
X131427976Y-117213690D01*
X131458215Y-117274167D01*
X131488453Y-117304405D01*
X131548929Y-117334643D01*
X131760596Y-117334643D01*
X131216310Y-117032262D02*
X130853453Y-117032262D01*
X131034881Y-117667262D02*
X131034881Y-117032262D01*
X130309166Y-117667262D02*
X130672024Y-117667262D01*
X130490595Y-117667262D02*
X130490595Y-117032262D01*
X130551071Y-117122976D01*
X130611547Y-117183452D01*
X130672024Y-117213690D01*
X145708214Y-106906786D02*
X145738452Y-106937024D01*
X145829167Y-106967262D01*
X145889643Y-106967262D01*
X145980357Y-106937024D01*
X146040833Y-106876548D01*
X146071072Y-106816071D01*
X146101310Y-106695119D01*
X146101310Y-106604405D01*
X146071072Y-106483452D01*
X146040833Y-106422976D01*
X145980357Y-106362500D01*
X145889643Y-106332262D01*
X145829167Y-106332262D01*
X145738452Y-106362500D01*
X145708214Y-106392738D01*
X145496548Y-106332262D02*
X145103452Y-106332262D01*
X145315119Y-106574167D01*
X145224405Y-106574167D01*
X145163929Y-106604405D01*
X145133691Y-106634643D01*
X145103452Y-106695119D01*
X145103452Y-106846310D01*
X145133691Y-106906786D01*
X145163929Y-106937024D01*
X145224405Y-106967262D01*
X145405833Y-106967262D01*
X145466310Y-106937024D01*
X145496548Y-106906786D01*
X144559167Y-106543929D02*
X144559167Y-106967262D01*
X144710357Y-106302024D02*
X144861548Y-106755595D01*
X144468452Y-106755595D01*
X138308214Y-106956786D02*
X138338452Y-106987024D01*
X138429167Y-107017262D01*
X138489643Y-107017262D01*
X138580357Y-106987024D01*
X138640833Y-106926548D01*
X138671072Y-106866071D01*
X138701310Y-106745119D01*
X138701310Y-106654405D01*
X138671072Y-106533452D01*
X138640833Y-106472976D01*
X138580357Y-106412500D01*
X138489643Y-106382262D01*
X138429167Y-106382262D01*
X138338452Y-106412500D01*
X138308214Y-106442738D01*
X138096548Y-106382262D02*
X137703452Y-106382262D01*
X137915119Y-106624167D01*
X137824405Y-106624167D01*
X137763929Y-106654405D01*
X137733691Y-106684643D01*
X137703452Y-106745119D01*
X137703452Y-106896310D01*
X137733691Y-106956786D01*
X137763929Y-106987024D01*
X137824405Y-107017262D01*
X138005833Y-107017262D01*
X138066310Y-106987024D01*
X138096548Y-106956786D01*
X137159167Y-106382262D02*
X137280119Y-106382262D01*
X137340595Y-106412500D01*
X137370833Y-106442738D01*
X137431310Y-106533452D01*
X137461548Y-106654405D01*
X137461548Y-106896310D01*
X137431310Y-106956786D01*
X137401071Y-106987024D01*
X137340595Y-107017262D01*
X137219643Y-107017262D01*
X137159167Y-106987024D01*
X137128929Y-106956786D01*
X137098690Y-106896310D01*
X137098690Y-106745119D01*
X137128929Y-106684643D01*
X137159167Y-106654405D01*
X137219643Y-106624167D01*
X137340595Y-106624167D01*
X137401071Y-106654405D01*
X137431310Y-106684643D01*
X137461548Y-106745119D01*
X139626786Y-108921786D02*
X139657024Y-108891548D01*
X139687262Y-108800833D01*
X139687262Y-108740357D01*
X139657024Y-108649643D01*
X139596548Y-108589167D01*
X139536071Y-108558928D01*
X139415119Y-108528690D01*
X139324405Y-108528690D01*
X139203452Y-108558928D01*
X139142976Y-108589167D01*
X139082500Y-108649643D01*
X139052262Y-108740357D01*
X139052262Y-108800833D01*
X139082500Y-108891548D01*
X139112738Y-108921786D01*
X139052262Y-109133452D02*
X139052262Y-109526548D01*
X139294167Y-109314881D01*
X139294167Y-109405595D01*
X139324405Y-109466071D01*
X139354643Y-109496309D01*
X139415119Y-109526548D01*
X139566310Y-109526548D01*
X139626786Y-109496309D01*
X139657024Y-109466071D01*
X139687262Y-109405595D01*
X139687262Y-109224167D01*
X139657024Y-109163690D01*
X139626786Y-109133452D01*
X139324405Y-109889405D02*
X139294167Y-109828929D01*
X139263929Y-109798690D01*
X139203452Y-109768452D01*
X139173214Y-109768452D01*
X139112738Y-109798690D01*
X139082500Y-109828929D01*
X139052262Y-109889405D01*
X139052262Y-110010357D01*
X139082500Y-110070833D01*
X139112738Y-110101071D01*
X139173214Y-110131310D01*
X139203452Y-110131310D01*
X139263929Y-110101071D01*
X139294167Y-110070833D01*
X139324405Y-110010357D01*
X139324405Y-109889405D01*
X139354643Y-109828929D01*
X139384881Y-109798690D01*
X139445357Y-109768452D01*
X139566310Y-109768452D01*
X139626786Y-109798690D01*
X139657024Y-109828929D01*
X139687262Y-109889405D01*
X139687262Y-110010357D01*
X139657024Y-110070833D01*
X139626786Y-110101071D01*
X139566310Y-110131310D01*
X139445357Y-110131310D01*
X139384881Y-110101071D01*
X139354643Y-110070833D01*
X139324405Y-110010357D01*
X123068691Y-106967262D02*
X123068691Y-106332262D01*
X122917500Y-106332262D01*
X122826786Y-106362500D01*
X122766310Y-106422976D01*
X122736071Y-106483452D01*
X122705833Y-106604405D01*
X122705833Y-106695119D01*
X122736071Y-106816071D01*
X122766310Y-106876548D01*
X122826786Y-106937024D01*
X122917500Y-106967262D01*
X123068691Y-106967262D01*
X122161548Y-106543929D02*
X122161548Y-106967262D01*
X122312738Y-106302024D02*
X122463929Y-106755595D01*
X122070833Y-106755595D01*
X142818691Y-114617262D02*
X142818691Y-113982262D01*
X142667500Y-113982262D01*
X142576786Y-114012500D01*
X142516310Y-114072976D01*
X142486071Y-114133452D01*
X142455833Y-114254405D01*
X142455833Y-114345119D01*
X142486071Y-114466071D01*
X142516310Y-114526548D01*
X142576786Y-114587024D01*
X142667500Y-114617262D01*
X142818691Y-114617262D01*
X141881310Y-113982262D02*
X142183691Y-113982262D01*
X142213929Y-114284643D01*
X142183691Y-114254405D01*
X142123214Y-114224167D01*
X141972024Y-114224167D01*
X141911548Y-114254405D01*
X141881310Y-114284643D01*
X141851071Y-114345119D01*
X141851071Y-114496310D01*
X141881310Y-114556786D01*
X141911548Y-114587024D01*
X141972024Y-114617262D01*
X142123214Y-114617262D01*
X142183691Y-114587024D01*
X142213929Y-114556786D01*
X136110476Y-108027738D02*
X136170952Y-107997500D01*
X136231429Y-107937024D01*
X136322143Y-107846310D01*
X136382619Y-107816071D01*
X136443095Y-107816071D01*
X136412857Y-107967262D02*
X136473333Y-107937024D01*
X136533810Y-107876548D01*
X136564048Y-107755595D01*
X136564048Y-107543929D01*
X136533810Y-107422976D01*
X136473333Y-107362500D01*
X136412857Y-107332262D01*
X136291905Y-107332262D01*
X136231429Y-107362500D01*
X136170952Y-107422976D01*
X136140714Y-107543929D01*
X136140714Y-107755595D01*
X136170952Y-107876548D01*
X136231429Y-107937024D01*
X136291905Y-107967262D01*
X136412857Y-107967262D01*
X135535952Y-107967262D02*
X135898810Y-107967262D01*
X135717381Y-107967262D02*
X135717381Y-107332262D01*
X135777857Y-107422976D01*
X135838333Y-107483452D01*
X135898810Y-107513690D01*
X138508214Y-116867262D02*
X138719881Y-116564881D01*
X138871072Y-116867262D02*
X138871072Y-116232262D01*
X138629167Y-116232262D01*
X138568691Y-116262500D01*
X138538452Y-116292738D01*
X138508214Y-116353214D01*
X138508214Y-116443929D01*
X138538452Y-116504405D01*
X138568691Y-116534643D01*
X138629167Y-116564881D01*
X138871072Y-116564881D01*
X138296548Y-116232262D02*
X137903452Y-116232262D01*
X138115119Y-116474167D01*
X138024405Y-116474167D01*
X137963929Y-116504405D01*
X137933691Y-116534643D01*
X137903452Y-116595119D01*
X137903452Y-116746310D01*
X137933691Y-116806786D01*
X137963929Y-116837024D01*
X138024405Y-116867262D01*
X138205833Y-116867262D01*
X138266310Y-116837024D01*
X138296548Y-116806786D01*
X137359167Y-116443929D02*
X137359167Y-116867262D01*
X137510357Y-116202024D02*
X137661548Y-116655595D01*
X137268452Y-116655595D01*
X140387262Y-117471786D02*
X140084881Y-117260119D01*
X140387262Y-117108928D02*
X139752262Y-117108928D01*
X139752262Y-117350833D01*
X139782500Y-117411309D01*
X139812738Y-117441548D01*
X139873214Y-117471786D01*
X139963929Y-117471786D01*
X140024405Y-117441548D01*
X140054643Y-117411309D01*
X140084881Y-117350833D01*
X140084881Y-117108928D01*
X139752262Y-117683452D02*
X139752262Y-118076548D01*
X139994167Y-117864881D01*
X139994167Y-117955595D01*
X140024405Y-118016071D01*
X140054643Y-118046309D01*
X140115119Y-118076548D01*
X140266310Y-118076548D01*
X140326786Y-118046309D01*
X140357024Y-118016071D01*
X140387262Y-117955595D01*
X140387262Y-117774167D01*
X140357024Y-117713690D01*
X140326786Y-117683452D01*
X139752262Y-118651071D02*
X139752262Y-118348690D01*
X140054643Y-118318452D01*
X140024405Y-118348690D01*
X139994167Y-118409167D01*
X139994167Y-118560357D01*
X140024405Y-118620833D01*
X140054643Y-118651071D01*
X140115119Y-118681310D01*
X140266310Y-118681310D01*
X140326786Y-118651071D01*
X140357024Y-118620833D01*
X140387262Y-118560357D01*
X140387262Y-118409167D01*
X140357024Y-118348690D01*
X140326786Y-118318452D01*
X136337262Y-117521786D02*
X136034881Y-117310119D01*
X136337262Y-117158928D02*
X135702262Y-117158928D01*
X135702262Y-117400833D01*
X135732500Y-117461309D01*
X135762738Y-117491548D01*
X135823214Y-117521786D01*
X135913929Y-117521786D01*
X135974405Y-117491548D01*
X136004643Y-117461309D01*
X136034881Y-117400833D01*
X136034881Y-117158928D01*
X135702262Y-117733452D02*
X135702262Y-118126548D01*
X135944167Y-117914881D01*
X135944167Y-118005595D01*
X135974405Y-118066071D01*
X136004643Y-118096309D01*
X136065119Y-118126548D01*
X136216310Y-118126548D01*
X136276786Y-118096309D01*
X136307024Y-118066071D01*
X136337262Y-118005595D01*
X136337262Y-117824167D01*
X136307024Y-117763690D01*
X136276786Y-117733452D01*
X135702262Y-118670833D02*
X135702262Y-118549881D01*
X135732500Y-118489405D01*
X135762738Y-118459167D01*
X135853452Y-118398690D01*
X135974405Y-118368452D01*
X136216310Y-118368452D01*
X136276786Y-118398690D01*
X136307024Y-118428929D01*
X136337262Y-118489405D01*
X136337262Y-118610357D01*
X136307024Y-118670833D01*
X136276786Y-118701071D01*
X136216310Y-118731310D01*
X136065119Y-118731310D01*
X136004643Y-118701071D01*
X135974405Y-118670833D01*
X135944167Y-118610357D01*
X135944167Y-118489405D01*
X135974405Y-118428929D01*
X136004643Y-118398690D01*
X136065119Y-118368452D01*
X146683810Y-112332262D02*
X146683810Y-112846310D01*
X146653571Y-112906786D01*
X146623333Y-112937024D01*
X146562857Y-112967262D01*
X146441905Y-112967262D01*
X146381429Y-112937024D01*
X146351190Y-112906786D01*
X146320952Y-112846310D01*
X146320952Y-112332262D01*
X145685952Y-112967262D02*
X146048810Y-112967262D01*
X145867381Y-112967262D02*
X145867381Y-112332262D01*
X145927857Y-112422976D01*
X145988333Y-112483452D01*
X146048810Y-112513690D01*
X121062262Y-97235119D02*
X120427262Y-97235119D01*
X121001786Y-97900358D02*
X121032024Y-97870120D01*
X121062262Y-97779405D01*
X121062262Y-97718929D01*
X121032024Y-97628215D01*
X120971548Y-97567739D01*
X120911071Y-97537500D01*
X120790119Y-97507262D01*
X120699405Y-97507262D01*
X120578452Y-97537500D01*
X120517976Y-97567739D01*
X120457500Y-97628215D01*
X120427262Y-97718929D01*
X120427262Y-97779405D01*
X120457500Y-97870120D01*
X120487738Y-97900358D01*
X120487738Y-98142262D02*
X120457500Y-98172500D01*
X120427262Y-98232977D01*
X120427262Y-98384167D01*
X120457500Y-98444643D01*
X120487738Y-98474881D01*
X120548214Y-98505120D01*
X120608690Y-98505120D01*
X120699405Y-98474881D01*
X121062262Y-98112024D01*
X121062262Y-98505120D01*
X132458214Y-110317262D02*
X132669881Y-110014881D01*
X132821072Y-110317262D02*
X132821072Y-109682262D01*
X132579167Y-109682262D01*
X132518691Y-109712500D01*
X132488452Y-109742738D01*
X132458214Y-109803214D01*
X132458214Y-109893929D01*
X132488452Y-109954405D01*
X132518691Y-109984643D01*
X132579167Y-110014881D01*
X132821072Y-110014881D01*
X132216310Y-109742738D02*
X132186072Y-109712500D01*
X132125595Y-109682262D01*
X131974405Y-109682262D01*
X131913929Y-109712500D01*
X131883691Y-109742738D01*
X131853452Y-109803214D01*
X131853452Y-109863690D01*
X131883691Y-109954405D01*
X132246548Y-110317262D01*
X131853452Y-110317262D01*
X131611548Y-109742738D02*
X131581310Y-109712500D01*
X131520833Y-109682262D01*
X131369643Y-109682262D01*
X131309167Y-109712500D01*
X131278929Y-109742738D01*
X131248690Y-109803214D01*
X131248690Y-109863690D01*
X131278929Y-109954405D01*
X131641786Y-110317262D01*
X131248690Y-110317262D01*
X139658214Y-112567262D02*
X139869881Y-112264881D01*
X140021072Y-112567262D02*
X140021072Y-111932262D01*
X139779167Y-111932262D01*
X139718691Y-111962500D01*
X139688452Y-111992738D01*
X139658214Y-112053214D01*
X139658214Y-112143929D01*
X139688452Y-112204405D01*
X139718691Y-112234643D01*
X139779167Y-112264881D01*
X140021072Y-112264881D01*
X139416310Y-111992738D02*
X139386072Y-111962500D01*
X139325595Y-111932262D01*
X139174405Y-111932262D01*
X139113929Y-111962500D01*
X139083691Y-111992738D01*
X139053452Y-112053214D01*
X139053452Y-112113690D01*
X139083691Y-112204405D01*
X139446548Y-112567262D01*
X139053452Y-112567262D01*
X138509167Y-112143929D02*
X138509167Y-112567262D01*
X138660357Y-111902024D02*
X138811548Y-112355595D01*
X138418452Y-112355595D01*
M02*
