G04 #@! TF.FileFunction,Copper,L3,Inr,Mixed*
%FSLAX46Y46*%
G04 Gerber Fmt 4.6, Leading zero omitted, Abs format (unit mm)*
G04 Created by KiCad (PCBNEW 4.0.6) date Friday, April 06, 2018 'AMt' 10:50:20 AM*
%MOMM*%
%LPD*%
G01*
G04 APERTURE LIST*
%ADD10C,0.100000*%
%ADD11O,1.400000X1.400000*%
%ADD12R,1.700000X1.700000*%
%ADD13O,1.700000X1.700000*%
%ADD14C,0.600000*%
%ADD15C,0.300000*%
%ADD16C,0.381000*%
%ADD17C,0.203200*%
%ADD18C,0.250000*%
%ADD19C,0.177800*%
%ADD20C,0.200000*%
G04 APERTURE END LIST*
D10*
D11*
X124800000Y-119080000D03*
X131400000Y-119080000D03*
D12*
X121150000Y-94105000D03*
D13*
X121150000Y-91565000D03*
X121150000Y-89025000D03*
D12*
X151050000Y-71680000D03*
D13*
X151050000Y-74220000D03*
X151050000Y-76760000D03*
X151050000Y-79300000D03*
X151050000Y-81840000D03*
X151050000Y-84380000D03*
D12*
X116650000Y-71780000D03*
D13*
X116650000Y-74320000D03*
X116650000Y-76860000D03*
X116650000Y-79400000D03*
X116650000Y-81940000D03*
X116650000Y-84480000D03*
D12*
X119350000Y-71780000D03*
D13*
X119350000Y-74320000D03*
X119350000Y-76860000D03*
X119350000Y-79400000D03*
X119350000Y-81940000D03*
X119350000Y-84480000D03*
D12*
X148350000Y-71705000D03*
D13*
X148350000Y-74245000D03*
X148350000Y-76785000D03*
X148350000Y-79325000D03*
X148350000Y-81865000D03*
X148350000Y-84405000D03*
D14*
X141900000Y-108080000D03*
X131850000Y-71080000D03*
X137600000Y-48830000D03*
X139500000Y-108830000D03*
X126750000Y-103580000D03*
X129400000Y-113330000D03*
X119087000Y-65368000D03*
X119100000Y-66230000D03*
X119075000Y-64480000D03*
X147275000Y-92555000D03*
X125025000Y-88805000D03*
D15*
X129100000Y-98530000D03*
X131656402Y-91280000D03*
X137550000Y-96130000D03*
X130625000Y-93180000D03*
D14*
X132244600Y-75997000D03*
X134144600Y-75997000D03*
X134144600Y-74097000D03*
X132244600Y-74097000D03*
X137873700Y-79535400D03*
X148465467Y-66201130D03*
X148465466Y-64423131D03*
X148465467Y-65337530D03*
D15*
X135600000Y-93180000D03*
D14*
X118650000Y-100930000D03*
X118750000Y-97980000D03*
X130100000Y-91930000D03*
D15*
X130550000Y-92180000D03*
D14*
X140550000Y-68080000D03*
X134250000Y-116780000D03*
X139125000Y-92730000D03*
X137848300Y-78443200D03*
X122300000Y-107130000D03*
X122275000Y-103030000D03*
D15*
X123300000Y-100455000D03*
X132550000Y-97155000D03*
D14*
X147000000Y-108880000D03*
X149650000Y-91480000D03*
X149650000Y-90180000D03*
X130950000Y-69880000D03*
X128450000Y-71980000D03*
X130050000Y-79180000D03*
X116269200Y-67005000D03*
X147906666Y-63635731D03*
X151564266Y-63508731D03*
X119952200Y-67005000D03*
X121625000Y-59505000D03*
X132925000Y-60180000D03*
X128325000Y-53255000D03*
X128325000Y-65155000D03*
X145250000Y-66305000D03*
X137550000Y-66330000D03*
X137150000Y-73030000D03*
X122400000Y-65105000D03*
X136225000Y-64230000D03*
X135725000Y-71880000D03*
X133100000Y-112280000D03*
X128175000Y-69905000D03*
X122775000Y-69980000D03*
X121850000Y-112280000D03*
X146125000Y-51480000D03*
X135625000Y-51505000D03*
X125900000Y-74055000D03*
X125875000Y-64355000D03*
X125937500Y-91517500D03*
X140675000Y-118655000D03*
X121775000Y-115905000D03*
D15*
X128650000Y-91055000D03*
X129625000Y-91105000D03*
D14*
X126075000Y-92405000D03*
X123825000Y-115055000D03*
X141525000Y-117280000D03*
X133025000Y-103155000D03*
X137500000Y-112255000D03*
X142850000Y-114555000D03*
X134600000Y-96505000D03*
D15*
X134600000Y-96155000D03*
D14*
X133025000Y-80830000D03*
X133000000Y-84255000D03*
X121600000Y-80230000D03*
X120575000Y-78155000D03*
X131975000Y-80830000D03*
D15*
X130575000Y-88180000D03*
D14*
X130575000Y-88180000D03*
X122425000Y-80255000D03*
X120550000Y-75605000D03*
X142025000Y-114530000D03*
X138325000Y-112930000D03*
X135550000Y-96455000D03*
D15*
X135550000Y-96180000D03*
D14*
X130400000Y-98430000D03*
X133350000Y-117105000D03*
X139975000Y-117880000D03*
X133925000Y-80905000D03*
X120700000Y-80680000D03*
X136100000Y-80680000D03*
D15*
X128575000Y-87180000D03*
D14*
X133000000Y-85505000D03*
X144125000Y-82230000D03*
X131100000Y-85380000D03*
D15*
X127550000Y-92180000D03*
D14*
X127150000Y-92580000D03*
X127125000Y-77830000D03*
X138875000Y-76605000D03*
D15*
X127575000Y-93155000D03*
D14*
X128075000Y-92680000D03*
X127100000Y-76905000D03*
X138900000Y-75655000D03*
X137225000Y-80555000D03*
X144150000Y-81305000D03*
D15*
X131575000Y-89180000D03*
D14*
X133575000Y-89155000D03*
X141175000Y-100480000D03*
X142875000Y-74680000D03*
X137050000Y-74680000D03*
X122400000Y-75855000D03*
X140050000Y-100480000D03*
X142150000Y-74055000D03*
X137675000Y-74055000D03*
X121850000Y-75230000D03*
X124200000Y-68880000D03*
X131950000Y-68930000D03*
X124200000Y-104830000D03*
X136300000Y-105355000D03*
X124200000Y-79305000D03*
X123475000Y-70580000D03*
X132100000Y-69980000D03*
X123350000Y-106030000D03*
X137750000Y-105355000D03*
X123475000Y-82030000D03*
X129900000Y-53555000D03*
X129900000Y-72230000D03*
X140025000Y-54755000D03*
X135500000Y-54805000D03*
X129875000Y-52680000D03*
X129125000Y-73780000D03*
X133550000Y-94230000D03*
D15*
X133550000Y-94130000D03*
D14*
X135850000Y-92480000D03*
D15*
X133600000Y-92180000D03*
D14*
X138000000Y-98830000D03*
X130075000Y-85230000D03*
X141375000Y-93780000D03*
X128500000Y-103080000D03*
X137050000Y-102380000D03*
X137550000Y-94330000D03*
D15*
X137575000Y-94180000D03*
D14*
X141350000Y-96030000D03*
D15*
X137550000Y-90030000D03*
D14*
X139200000Y-89980000D03*
D15*
X136400000Y-89980000D03*
D14*
X139075000Y-97080000D03*
X138375000Y-90505000D03*
X132550000Y-89180000D03*
D15*
X132550000Y-89180000D03*
D14*
X141275000Y-89455000D03*
D15*
X137525000Y-91130000D03*
X136575000Y-91180000D03*
D14*
X141325000Y-90530000D03*
D15*
X135575000Y-91155000D03*
D14*
X141300000Y-91605000D03*
X136475000Y-94430000D03*
D15*
X136575000Y-94180000D03*
D14*
X136300000Y-101905000D03*
X127375000Y-102780000D03*
X133550000Y-93180000D03*
D15*
X133655382Y-93230000D03*
X126100000Y-98605000D03*
X133575000Y-95155000D03*
X126100000Y-97605000D03*
X132575000Y-95155000D03*
X125875000Y-99080000D03*
X132575000Y-96155000D03*
X126100000Y-98105000D03*
X131600000Y-95155000D03*
X121200000Y-96355000D03*
X126100000Y-96355000D03*
D14*
X146350000Y-100080000D03*
D15*
X123875000Y-100455000D03*
D14*
X135950000Y-107880000D03*
X126300000Y-115180000D03*
X141450000Y-110030000D03*
X129450000Y-108530000D03*
X138050000Y-119030000D03*
X138850000Y-119680000D03*
X133400000Y-119030000D03*
X116950000Y-97930000D03*
X133400000Y-109880000D03*
X123550000Y-110630000D03*
X124975000Y-91605000D03*
X137050000Y-116680000D03*
X138050000Y-116730000D03*
X139050000Y-116730000D03*
X133400000Y-111230000D03*
X125150000Y-108830000D03*
X139900000Y-70605000D03*
X138100000Y-83630000D03*
X130750000Y-67555000D03*
X136350000Y-68705000D03*
X138075000Y-84555000D03*
X140475000Y-87005000D03*
X149800000Y-87005000D03*
D15*
X132600000Y-87155000D03*
D14*
X143500000Y-80530000D03*
X143500000Y-85005000D03*
D15*
X135575000Y-88155000D03*
D14*
X146675000Y-71705000D03*
X147000000Y-86280000D03*
X145500000Y-88805000D03*
D15*
X137575000Y-89155000D03*
D14*
X145500000Y-76780000D03*
D15*
X136575000Y-89155000D03*
D14*
X144800000Y-88180000D03*
X144800000Y-79330000D03*
D15*
X135525000Y-89105000D03*
D14*
X146275000Y-74255000D03*
X146275000Y-87755000D03*
X144125000Y-83155000D03*
D15*
X132600000Y-88130000D03*
D14*
X144150000Y-85630000D03*
D16*
X119087000Y-65368000D02*
X119100000Y-65355000D01*
X131656402Y-91280000D02*
X131650000Y-91280000D01*
X130350000Y-92180000D02*
X130100000Y-91930000D01*
X130550000Y-92180000D02*
X130350000Y-92180000D01*
X147000000Y-108880000D02*
X145250000Y-107130000D01*
X145250000Y-107130000D02*
X122300000Y-107130000D01*
D17*
X123300000Y-99830000D02*
X123575000Y-99555000D01*
X123575000Y-99555000D02*
X124200000Y-99555000D01*
X132550000Y-97155000D02*
X129090428Y-97155000D01*
X126690428Y-99555000D02*
X124200000Y-99555000D01*
X129090428Y-97155000D02*
X126690428Y-99555000D01*
X123300000Y-100455000D02*
X123300000Y-99830000D01*
D18*
X116269200Y-67005000D02*
X116275000Y-67005000D01*
D17*
X132250000Y-59505000D02*
X121625000Y-59505000D01*
X132925000Y-60180000D02*
X132250000Y-59505000D01*
D19*
X145225000Y-66330000D02*
X145250000Y-66305000D01*
X137550000Y-66330000D02*
X145225000Y-66330000D01*
X126875000Y-65105000D02*
X122400000Y-65105000D01*
X127750000Y-64230000D02*
X126875000Y-65105000D01*
X136225000Y-64230000D02*
X127750000Y-64230000D01*
D17*
X133100000Y-112280000D02*
X121850000Y-112280000D01*
X122850000Y-69905000D02*
X128175000Y-69905000D01*
X122775000Y-69980000D02*
X122850000Y-69905000D01*
X146100000Y-51505000D02*
X146125000Y-51480000D01*
X135625000Y-51505000D02*
X146100000Y-51505000D01*
X125937500Y-91517500D02*
X125950000Y-91505000D01*
X140675000Y-118655000D02*
X140675000Y-117030000D01*
X140675000Y-117030000D02*
X139550000Y-115905000D01*
X139550000Y-115905000D02*
X121775000Y-115905000D01*
X125950000Y-91505000D02*
X126300000Y-91155000D01*
X126300000Y-91155000D02*
X128575000Y-91155000D01*
X128650000Y-91080000D02*
X128650000Y-91055000D01*
X128575000Y-91155000D02*
X128650000Y-91080000D01*
X129625000Y-91105000D02*
X129171798Y-91558202D01*
X126921798Y-91558202D02*
X126075000Y-92405000D01*
X129171798Y-91558202D02*
X126921798Y-91558202D01*
X124600000Y-114280000D02*
X123825000Y-115055000D01*
X138825000Y-114280000D02*
X124600000Y-114280000D01*
X141525000Y-116980000D02*
X138825000Y-114280000D01*
X141525000Y-117280000D02*
X141525000Y-116980000D01*
X137500000Y-112255000D02*
X141075000Y-112255000D01*
X134600000Y-96505000D02*
X134600000Y-96180000D01*
X134600000Y-96155000D02*
X134600000Y-96180000D01*
X142850000Y-114030000D02*
X142850000Y-114555000D01*
X141075000Y-112255000D02*
X142850000Y-114030000D01*
X132325000Y-81530000D02*
X133025000Y-80830000D01*
X131700000Y-81530000D02*
X132325000Y-81530000D01*
X131050000Y-80880000D02*
X131700000Y-81530000D01*
X122150000Y-80880000D02*
X131050000Y-80880000D01*
X121600000Y-80330000D02*
X122150000Y-80880000D01*
X121600000Y-80230000D02*
X121600000Y-80330000D01*
X131400000Y-80255000D02*
X131975000Y-80830000D01*
X122425000Y-80255000D02*
X131400000Y-80255000D01*
X138325000Y-112930000D02*
X140425000Y-112930000D01*
X135550000Y-96455000D02*
X135550000Y-96180000D01*
X140425000Y-112930000D02*
X142025000Y-114530000D01*
X133350000Y-117280000D02*
X133350000Y-117105000D01*
X133950000Y-117880000D02*
X133350000Y-117280000D01*
X139975000Y-117880000D02*
X133950000Y-117880000D01*
X132875000Y-81955000D02*
X133925000Y-80905000D01*
X131554786Y-81955000D02*
X132875000Y-81955000D01*
X130882988Y-81283202D02*
X131554786Y-81955000D01*
X121303202Y-81283202D02*
X130882988Y-81283202D01*
X120700000Y-80680000D02*
X121303202Y-81283202D01*
X128575000Y-87180000D02*
X131325000Y-87180000D01*
X131325000Y-87180000D02*
X133000000Y-85505000D01*
X144125000Y-82230000D02*
X137650000Y-82230000D01*
X137650000Y-82230000D02*
X136100000Y-80680000D01*
X136100000Y-80680000D02*
X136100000Y-80530000D01*
X131100000Y-85380000D02*
X130475000Y-86005000D01*
X118000000Y-83290000D02*
X116650000Y-81940000D01*
X118000000Y-85455000D02*
X118000000Y-83290000D01*
X118550000Y-86005000D02*
X118000000Y-85455000D01*
X130475000Y-86005000D02*
X118550000Y-86005000D01*
X127125000Y-77830000D02*
X137650000Y-77830000D01*
X127550000Y-92180000D02*
X127150000Y-92580000D01*
X137650000Y-77830000D02*
X138875000Y-76605000D01*
X127575000Y-93155000D02*
X128050000Y-92680000D01*
X128050000Y-92680000D02*
X128075000Y-92680000D01*
X127100000Y-76905000D02*
X127621798Y-77426798D01*
X127621798Y-77426798D02*
X137128202Y-77426798D01*
X137128202Y-77426798D02*
X138900000Y-75655000D01*
X137975000Y-81305000D02*
X137225000Y-80555000D01*
X144150000Y-81305000D02*
X137975000Y-81305000D01*
X131575000Y-89180000D02*
X132225000Y-89830000D01*
X132225000Y-89830000D02*
X132900000Y-89830000D01*
X132900000Y-89830000D02*
X133575000Y-89155000D01*
X142875000Y-74680000D02*
X137050000Y-74680000D01*
D19*
X122400000Y-75855000D02*
X122900000Y-75355000D01*
X136375000Y-75355000D02*
X137050000Y-74680000D01*
X122900000Y-75355000D02*
X136375000Y-75355000D01*
D17*
X142150000Y-74055000D02*
X137675000Y-74055000D01*
D19*
X123850000Y-74755000D02*
X135400000Y-74755000D01*
X135400000Y-74755000D02*
X136100000Y-74055000D01*
X136100000Y-74055000D02*
X137675000Y-74055000D01*
X122325000Y-74755000D02*
X123850000Y-74755000D01*
X121850000Y-75230000D02*
X122325000Y-74755000D01*
X131950000Y-68930000D02*
X124250000Y-68930000D01*
X124250000Y-68930000D02*
X124200000Y-68880000D01*
X131950000Y-68930000D02*
X131925000Y-68955000D01*
D17*
X136300000Y-105355000D02*
X135775000Y-104830000D01*
X135775000Y-104830000D02*
X124200000Y-104830000D01*
D19*
X132100000Y-69980000D02*
X131500000Y-70580000D01*
X131500000Y-70580000D02*
X123475000Y-70580000D01*
X132100000Y-69980000D02*
X132075000Y-69955000D01*
D17*
X137750000Y-105355000D02*
X137750000Y-105505000D01*
X137750000Y-105505000D02*
X137225000Y-106030000D01*
X137225000Y-106030000D02*
X123350000Y-106030000D01*
X139975000Y-54805000D02*
X140025000Y-54755000D01*
X135500000Y-54805000D02*
X139975000Y-54805000D01*
D16*
X133550000Y-94130000D02*
X133550000Y-94230000D01*
X133900000Y-92480000D02*
X135850000Y-92480000D01*
X133600000Y-92180000D02*
X133900000Y-92480000D01*
D17*
X128500000Y-103080000D02*
X129050000Y-102530000D01*
X136900000Y-102530000D02*
X129225000Y-102530000D01*
X136900000Y-102530000D02*
X137050000Y-102380000D01*
X129050000Y-102530000D02*
X129225000Y-102530000D01*
X137575000Y-94180000D02*
X137575000Y-94305000D01*
X137575000Y-94305000D02*
X137550000Y-94330000D01*
X137550000Y-90030000D02*
X137950000Y-90030000D01*
X139050000Y-89830000D02*
X139200000Y-89980000D01*
X138150000Y-89830000D02*
X139050000Y-89830000D01*
X137950000Y-90030000D02*
X138150000Y-89830000D01*
X136400000Y-89980000D02*
X136925000Y-90505000D01*
X136925000Y-90505000D02*
X138375000Y-90505000D01*
X141275000Y-89455000D02*
X140875000Y-89455000D01*
X140875000Y-89455000D02*
X139200000Y-91130000D01*
X139200000Y-91130000D02*
X137525000Y-91130000D01*
X136575000Y-91180000D02*
X137000000Y-91605000D01*
X140470214Y-90530000D02*
X141325000Y-90530000D01*
X139395214Y-91605000D02*
X140470214Y-90530000D01*
X137000000Y-91605000D02*
X139395214Y-91605000D01*
X135575000Y-91155000D02*
X136428202Y-92008202D01*
X140515428Y-91605000D02*
X141300000Y-91605000D01*
X140112226Y-92008202D02*
X140515428Y-91605000D01*
X136428202Y-92008202D02*
X140112226Y-92008202D01*
X136475000Y-94280000D02*
X136475000Y-94430000D01*
X136575000Y-94180000D02*
X136475000Y-94280000D01*
X128250000Y-101905000D02*
X127375000Y-102780000D01*
X136300000Y-101905000D02*
X128250000Y-101905000D01*
X127975000Y-102780000D02*
X127375000Y-102780000D01*
D16*
X133605382Y-93180000D02*
X133550000Y-93180000D01*
X133655382Y-93230000D02*
X133605382Y-93180000D01*
D17*
X126500000Y-98605000D02*
X126100000Y-98605000D01*
X129475000Y-95630000D02*
X126500000Y-98605000D01*
X133100000Y-95630000D02*
X129475000Y-95630000D01*
X133575000Y-95155000D02*
X133100000Y-95630000D01*
X129075000Y-94630000D02*
X126100000Y-97605000D01*
X132050000Y-94630000D02*
X129075000Y-94630000D01*
X132575000Y-95155000D02*
X132050000Y-94630000D01*
X126595214Y-99080000D02*
X125875000Y-99080000D01*
X129520214Y-96155000D02*
X126595214Y-99080000D01*
X132575000Y-96155000D02*
X129520214Y-96155000D01*
X126425000Y-98105000D02*
X126100000Y-98105000D01*
X129375000Y-95155000D02*
X126425000Y-98105000D01*
X131600000Y-95155000D02*
X129375000Y-95155000D01*
X126100000Y-96355000D02*
X121200000Y-96355000D01*
X146350000Y-100080000D02*
X146025000Y-99755000D01*
X126375000Y-100455000D02*
X123875000Y-100455000D01*
X127075000Y-99755000D02*
X126375000Y-100455000D01*
X146025000Y-99755000D02*
X127075000Y-99755000D01*
D16*
X136450000Y-110030000D02*
X141450000Y-110030000D01*
X134950000Y-108530000D02*
X136450000Y-110030000D01*
X129450000Y-108530000D02*
X134950000Y-108530000D01*
D17*
X133400000Y-109880000D02*
X132650000Y-110630000D01*
X132650000Y-110630000D02*
X123550000Y-110630000D01*
D19*
X135200000Y-67555000D02*
X130750000Y-67555000D01*
X136350000Y-68705000D02*
X135200000Y-67555000D01*
D17*
X138225000Y-84405000D02*
X138300000Y-84330000D01*
X138075000Y-84555000D02*
X138225000Y-84405000D01*
X138300000Y-84330000D02*
X148275000Y-84330000D01*
X148275000Y-84330000D02*
X148350000Y-84405000D01*
X140475000Y-87005000D02*
X149800000Y-87005000D01*
X132600000Y-87155000D02*
X134528202Y-85226798D01*
X143278202Y-85226798D02*
X143500000Y-85005000D01*
X134528202Y-85226798D02*
X143278202Y-85226798D01*
X135575000Y-88155000D02*
X137425000Y-86305000D01*
X146975000Y-86305000D02*
X147000000Y-86280000D01*
X137425000Y-86305000D02*
X146975000Y-86305000D01*
X137925000Y-88805000D02*
X145500000Y-88805000D01*
X137575000Y-89155000D02*
X137925000Y-88805000D01*
X136575000Y-89155000D02*
X137550000Y-88180000D01*
X137550000Y-88180000D02*
X144800000Y-88180000D01*
X135525000Y-89105000D02*
X135875000Y-89105000D01*
X146000000Y-87480000D02*
X146275000Y-87755000D01*
X144150000Y-87480000D02*
X146000000Y-87480000D01*
X143950000Y-87680000D02*
X144150000Y-87480000D01*
X137300000Y-87680000D02*
X143950000Y-87680000D01*
X135875000Y-89105000D02*
X137300000Y-87680000D01*
X132600000Y-88130000D02*
X135100000Y-85630000D01*
X135100000Y-85630000D02*
X144150000Y-85630000D01*
D20*
G36*
X152475000Y-107780000D02*
X148850000Y-107780000D01*
X148813654Y-107786839D01*
X148780273Y-107808319D01*
X148757879Y-107841094D01*
X148750000Y-107880000D01*
X148750000Y-120105000D01*
X139273528Y-120105000D01*
X139358359Y-120020317D01*
X139449896Y-119799871D01*
X139450104Y-119561176D01*
X139358952Y-119340571D01*
X139190317Y-119171641D01*
X138969871Y-119080104D01*
X138731176Y-119079896D01*
X138649928Y-119113467D01*
X138650104Y-118911176D01*
X138558952Y-118690571D01*
X138390317Y-118521641D01*
X138169871Y-118430104D01*
X137931176Y-118429896D01*
X137710571Y-118521048D01*
X137541641Y-118689683D01*
X137450104Y-118910129D01*
X137449896Y-119148824D01*
X137541048Y-119369429D01*
X137709683Y-119538359D01*
X137930129Y-119629896D01*
X138168824Y-119630104D01*
X138250072Y-119596533D01*
X138249896Y-119798824D01*
X138341048Y-120019429D01*
X138426470Y-120105000D01*
X115225000Y-120105000D01*
X115225000Y-118507256D01*
X116199757Y-118507256D01*
X116412445Y-119022000D01*
X116805928Y-119416170D01*
X117320301Y-119629757D01*
X117877256Y-119630243D01*
X118392000Y-119417555D01*
X118730144Y-119080000D01*
X123780409Y-119080000D01*
X123856529Y-119462683D01*
X124073302Y-119787107D01*
X124397726Y-120003880D01*
X124780409Y-120080000D01*
X124819591Y-120080000D01*
X125202274Y-120003880D01*
X125526698Y-119787107D01*
X125743471Y-119462683D01*
X125819591Y-119080000D01*
X130380409Y-119080000D01*
X130456529Y-119462683D01*
X130673302Y-119787107D01*
X130997726Y-120003880D01*
X131380409Y-120080000D01*
X131419591Y-120080000D01*
X131802274Y-120003880D01*
X132126698Y-119787107D01*
X132343471Y-119462683D01*
X132405901Y-119148824D01*
X132799896Y-119148824D01*
X132891048Y-119369429D01*
X133059683Y-119538359D01*
X133280129Y-119629896D01*
X133518824Y-119630104D01*
X133739429Y-119538952D01*
X133908359Y-119370317D01*
X133999896Y-119149871D01*
X134000104Y-118911176D01*
X133908952Y-118690571D01*
X133740317Y-118521641D01*
X133519871Y-118430104D01*
X133281176Y-118429896D01*
X133060571Y-118521048D01*
X132891641Y-118689683D01*
X132800104Y-118910129D01*
X132799896Y-119148824D01*
X132405901Y-119148824D01*
X132419591Y-119080000D01*
X132343471Y-118697317D01*
X132126698Y-118372893D01*
X131802274Y-118156120D01*
X131419591Y-118080000D01*
X131380409Y-118080000D01*
X130997726Y-118156120D01*
X130673302Y-118372893D01*
X130456529Y-118697317D01*
X130380409Y-119080000D01*
X125819591Y-119080000D01*
X125743471Y-118697317D01*
X125526698Y-118372893D01*
X125202274Y-118156120D01*
X124819591Y-118080000D01*
X124780409Y-118080000D01*
X124397726Y-118156120D01*
X124073302Y-118372893D01*
X123856529Y-118697317D01*
X123780409Y-119080000D01*
X118730144Y-119080000D01*
X118786170Y-119024072D01*
X118999757Y-118509699D01*
X119000243Y-117952744D01*
X118787555Y-117438000D01*
X118394072Y-117043830D01*
X117879699Y-116830243D01*
X117322744Y-116829757D01*
X116808000Y-117042445D01*
X116413830Y-117435928D01*
X116200243Y-117950301D01*
X116199757Y-118507256D01*
X115225000Y-118507256D01*
X115225000Y-116023824D01*
X121174896Y-116023824D01*
X121266048Y-116244429D01*
X121434683Y-116413359D01*
X121655129Y-116504896D01*
X121893824Y-116505104D01*
X122114429Y-116413952D01*
X122221969Y-116306600D01*
X133874957Y-116306600D01*
X133741641Y-116439683D01*
X133678503Y-116591736D01*
X133469871Y-116505104D01*
X133231176Y-116504896D01*
X133010571Y-116596048D01*
X132841641Y-116764683D01*
X132750104Y-116985129D01*
X132749896Y-117223824D01*
X132841048Y-117444429D01*
X133009683Y-117613359D01*
X133190487Y-117688435D01*
X133666026Y-118163974D01*
X133796314Y-118251030D01*
X133950000Y-118281600D01*
X139528110Y-118281600D01*
X139634683Y-118388359D01*
X139855129Y-118479896D01*
X140093824Y-118480104D01*
X140098807Y-118478045D01*
X140075104Y-118535129D01*
X140074896Y-118773824D01*
X140166048Y-118994429D01*
X140334683Y-119163359D01*
X140555129Y-119254896D01*
X140793824Y-119255104D01*
X141014429Y-119163952D01*
X141183359Y-118995317D01*
X141274896Y-118774871D01*
X141275104Y-118536176D01*
X141263155Y-118507256D01*
X145199757Y-118507256D01*
X145412445Y-119022000D01*
X145805928Y-119416170D01*
X146320301Y-119629757D01*
X146877256Y-119630243D01*
X147392000Y-119417555D01*
X147786170Y-119024072D01*
X147999757Y-118509699D01*
X148000243Y-117952744D01*
X147787555Y-117438000D01*
X147394072Y-117043830D01*
X146879699Y-116830243D01*
X146322744Y-116829757D01*
X145808000Y-117042445D01*
X145413830Y-117435928D01*
X145200243Y-117950301D01*
X145199757Y-118507256D01*
X141263155Y-118507256D01*
X141183952Y-118315571D01*
X141076600Y-118208031D01*
X141076600Y-117680087D01*
X141184683Y-117788359D01*
X141405129Y-117879896D01*
X141643824Y-117880104D01*
X141864429Y-117788952D01*
X142033359Y-117620317D01*
X142124896Y-117399871D01*
X142125104Y-117161176D01*
X142033952Y-116940571D01*
X141865317Y-116771641D01*
X141857265Y-116768297D01*
X141808974Y-116696026D01*
X139108974Y-113996026D01*
X139047730Y-113955104D01*
X138978686Y-113908970D01*
X138825000Y-113878400D01*
X124600000Y-113878400D01*
X124446315Y-113908969D01*
X124316026Y-113996026D01*
X123857025Y-114455027D01*
X123706176Y-114454896D01*
X123485571Y-114546048D01*
X123316641Y-114714683D01*
X123225104Y-114935129D01*
X123224896Y-115173824D01*
X123316048Y-115394429D01*
X123424829Y-115503400D01*
X122221890Y-115503400D01*
X122115317Y-115396641D01*
X121894871Y-115305104D01*
X121656176Y-115304896D01*
X121435571Y-115396048D01*
X121266641Y-115564683D01*
X121175104Y-115785129D01*
X121174896Y-116023824D01*
X115225000Y-116023824D01*
X115225000Y-112398824D01*
X121249896Y-112398824D01*
X121341048Y-112619429D01*
X121509683Y-112788359D01*
X121730129Y-112879896D01*
X121968824Y-112880104D01*
X122189429Y-112788952D01*
X122296969Y-112681600D01*
X132653110Y-112681600D01*
X132759683Y-112788359D01*
X132980129Y-112879896D01*
X133218824Y-112880104D01*
X133439429Y-112788952D01*
X133608359Y-112620317D01*
X133699896Y-112399871D01*
X133699918Y-112373824D01*
X136899896Y-112373824D01*
X136991048Y-112594429D01*
X137159683Y-112763359D01*
X137380129Y-112854896D01*
X137618824Y-112855104D01*
X137725103Y-112811190D01*
X137724896Y-113048824D01*
X137816048Y-113269429D01*
X137984683Y-113438359D01*
X138205129Y-113529896D01*
X138443824Y-113530104D01*
X138664429Y-113438952D01*
X138771969Y-113331600D01*
X140258652Y-113331600D01*
X141425027Y-114497975D01*
X141424896Y-114648824D01*
X141516048Y-114869429D01*
X141684683Y-115038359D01*
X141905129Y-115129896D01*
X142143824Y-115130104D01*
X142364429Y-115038952D01*
X142424979Y-114978507D01*
X142509683Y-115063359D01*
X142730129Y-115154896D01*
X142968824Y-115155104D01*
X143189429Y-115063952D01*
X143358359Y-114895317D01*
X143449896Y-114674871D01*
X143450104Y-114436176D01*
X143358952Y-114215571D01*
X143251600Y-114108031D01*
X143251600Y-114030000D01*
X143221030Y-113876314D01*
X143133974Y-113746026D01*
X141358974Y-111971026D01*
X141312066Y-111939683D01*
X141228686Y-111883970D01*
X141075000Y-111853400D01*
X137946890Y-111853400D01*
X137840317Y-111746641D01*
X137619871Y-111655104D01*
X137381176Y-111654896D01*
X137160571Y-111746048D01*
X136991641Y-111914683D01*
X136900104Y-112135129D01*
X136899896Y-112373824D01*
X133699918Y-112373824D01*
X133700104Y-112161176D01*
X133608952Y-111940571D01*
X133498660Y-111830086D01*
X133518824Y-111830104D01*
X133739429Y-111738952D01*
X133908359Y-111570317D01*
X133999896Y-111349871D01*
X134000104Y-111111176D01*
X133908952Y-110890571D01*
X133740317Y-110721641D01*
X133519871Y-110630104D01*
X133281176Y-110629896D01*
X133173604Y-110674344D01*
X133367975Y-110479973D01*
X133518824Y-110480104D01*
X133739429Y-110388952D01*
X133908359Y-110220317D01*
X133999896Y-109999871D01*
X134000104Y-109761176D01*
X133908952Y-109540571D01*
X133740317Y-109371641D01*
X133519871Y-109280104D01*
X133281176Y-109279896D01*
X133060571Y-109371048D01*
X132891641Y-109539683D01*
X132800104Y-109760129D01*
X132799972Y-109912080D01*
X132483652Y-110228400D01*
X123996890Y-110228400D01*
X123890317Y-110121641D01*
X123669871Y-110030104D01*
X123431176Y-110029896D01*
X123210571Y-110121048D01*
X123041641Y-110289683D01*
X122950104Y-110510129D01*
X122949896Y-110748824D01*
X123041048Y-110969429D01*
X123209683Y-111138359D01*
X123430129Y-111229896D01*
X123668824Y-111230104D01*
X123889429Y-111138952D01*
X123996969Y-111031600D01*
X132650000Y-111031600D01*
X132803686Y-111001030D01*
X132861426Y-110962449D01*
X132800104Y-111110129D01*
X132799896Y-111348824D01*
X132891048Y-111569429D01*
X133001340Y-111679914D01*
X132981176Y-111679896D01*
X132760571Y-111771048D01*
X132653031Y-111878400D01*
X122296890Y-111878400D01*
X122190317Y-111771641D01*
X121969871Y-111680104D01*
X121731176Y-111679896D01*
X121510571Y-111771048D01*
X121341641Y-111939683D01*
X121250104Y-112160129D01*
X121249896Y-112398824D01*
X115225000Y-112398824D01*
X115225000Y-108948824D01*
X124549896Y-108948824D01*
X124641048Y-109169429D01*
X124809683Y-109338359D01*
X125030129Y-109429896D01*
X125268824Y-109430104D01*
X125489429Y-109338952D01*
X125658359Y-109170317D01*
X125749896Y-108949871D01*
X125750104Y-108711176D01*
X125724341Y-108648824D01*
X128849896Y-108648824D01*
X128941048Y-108869429D01*
X129109683Y-109038359D01*
X129330129Y-109129896D01*
X129568824Y-109130104D01*
X129789429Y-109038952D01*
X129807913Y-109020500D01*
X134746828Y-109020500D01*
X136103164Y-110376836D01*
X136262293Y-110483163D01*
X136450000Y-110520500D01*
X141091855Y-110520500D01*
X141109683Y-110538359D01*
X141330129Y-110629896D01*
X141568824Y-110630104D01*
X141789429Y-110538952D01*
X141958359Y-110370317D01*
X142049896Y-110149871D01*
X142050104Y-109911176D01*
X141958952Y-109690571D01*
X141790317Y-109521641D01*
X141569871Y-109430104D01*
X141331176Y-109429896D01*
X141110571Y-109521048D01*
X141092087Y-109539500D01*
X136653172Y-109539500D01*
X135296836Y-108183164D01*
X135137706Y-108076837D01*
X134950000Y-108039500D01*
X129808145Y-108039500D01*
X129790317Y-108021641D01*
X129569871Y-107930104D01*
X129331176Y-107929896D01*
X129110571Y-108021048D01*
X128941641Y-108189683D01*
X128850104Y-108410129D01*
X128849896Y-108648824D01*
X125724341Y-108648824D01*
X125658952Y-108490571D01*
X125490317Y-108321641D01*
X125269871Y-108230104D01*
X125031176Y-108229896D01*
X124810571Y-108321048D01*
X124641641Y-108489683D01*
X124550104Y-108710129D01*
X124549896Y-108948824D01*
X115225000Y-108948824D01*
X115225000Y-107248824D01*
X121699896Y-107248824D01*
X121791048Y-107469429D01*
X121959683Y-107638359D01*
X122180129Y-107729896D01*
X122418824Y-107730104D01*
X122639429Y-107638952D01*
X122657913Y-107620500D01*
X135408083Y-107620500D01*
X135350104Y-107760129D01*
X135349896Y-107998824D01*
X135441048Y-108219429D01*
X135609683Y-108388359D01*
X135830129Y-108479896D01*
X136068824Y-108480104D01*
X136289429Y-108388952D01*
X136458359Y-108220317D01*
X136549896Y-107999871D01*
X136550104Y-107761176D01*
X136491978Y-107620500D01*
X145046828Y-107620500D01*
X146399918Y-108973590D01*
X146399896Y-108998824D01*
X146491048Y-109219429D01*
X146659683Y-109388359D01*
X146880129Y-109479896D01*
X147118824Y-109480104D01*
X147339429Y-109388952D01*
X147508359Y-109220317D01*
X147599896Y-108999871D01*
X147600104Y-108761176D01*
X147508952Y-108540571D01*
X147340317Y-108371641D01*
X147119871Y-108280104D01*
X147093753Y-108280081D01*
X145596836Y-106783164D01*
X145437706Y-106676837D01*
X145250000Y-106639500D01*
X122658145Y-106639500D01*
X122640317Y-106621641D01*
X122419871Y-106530104D01*
X122181176Y-106529896D01*
X121960571Y-106621048D01*
X121791641Y-106789683D01*
X121700104Y-107010129D01*
X121699896Y-107248824D01*
X115225000Y-107248824D01*
X115225000Y-106148824D01*
X122749896Y-106148824D01*
X122841048Y-106369429D01*
X123009683Y-106538359D01*
X123230129Y-106629896D01*
X123468824Y-106630104D01*
X123689429Y-106538952D01*
X123796969Y-106431600D01*
X137225000Y-106431600D01*
X137378686Y-106401030D01*
X137508974Y-106313974D01*
X137867845Y-105955103D01*
X137868824Y-105955104D01*
X138089429Y-105863952D01*
X138258359Y-105695317D01*
X138349896Y-105474871D01*
X138350104Y-105236176D01*
X138258952Y-105015571D01*
X138090317Y-104846641D01*
X137869871Y-104755104D01*
X137631176Y-104754896D01*
X137410571Y-104846048D01*
X137241641Y-105014683D01*
X137150104Y-105235129D01*
X137149896Y-105473824D01*
X137168413Y-105518639D01*
X137058652Y-105628400D01*
X136836145Y-105628400D01*
X136899896Y-105474871D01*
X136900104Y-105236176D01*
X136808952Y-105015571D01*
X136640317Y-104846641D01*
X136419871Y-104755104D01*
X136267920Y-104754972D01*
X136058974Y-104546026D01*
X135928686Y-104458970D01*
X135775000Y-104428400D01*
X124646890Y-104428400D01*
X124540317Y-104321641D01*
X124319871Y-104230104D01*
X124081176Y-104229896D01*
X123860571Y-104321048D01*
X123691641Y-104489683D01*
X123600104Y-104710129D01*
X123599896Y-104948824D01*
X123691048Y-105169429D01*
X123859683Y-105338359D01*
X124080129Y-105429896D01*
X124318824Y-105430104D01*
X124539429Y-105338952D01*
X124646969Y-105231600D01*
X135608652Y-105231600D01*
X135700027Y-105322975D01*
X135699896Y-105473824D01*
X135763765Y-105628400D01*
X123796890Y-105628400D01*
X123690317Y-105521641D01*
X123469871Y-105430104D01*
X123231176Y-105429896D01*
X123010571Y-105521048D01*
X122841641Y-105689683D01*
X122750104Y-105910129D01*
X122749896Y-106148824D01*
X115225000Y-106148824D01*
X115225000Y-103148824D01*
X121674896Y-103148824D01*
X121766048Y-103369429D01*
X121934683Y-103538359D01*
X122155129Y-103629896D01*
X122393824Y-103630104D01*
X122614429Y-103538952D01*
X122783359Y-103370317D01*
X122874896Y-103149871D01*
X122875104Y-102911176D01*
X122870001Y-102898824D01*
X126774896Y-102898824D01*
X126866048Y-103119429D01*
X127034683Y-103288359D01*
X127255129Y-103379896D01*
X127493824Y-103380104D01*
X127714429Y-103288952D01*
X127821969Y-103181600D01*
X127899911Y-103181600D01*
X127899896Y-103198824D01*
X127991048Y-103419429D01*
X128159683Y-103588359D01*
X128380129Y-103679896D01*
X128618824Y-103680104D01*
X128839429Y-103588952D01*
X129008359Y-103420317D01*
X129099896Y-103199871D01*
X129100028Y-103047920D01*
X129216348Y-102931600D01*
X132468093Y-102931600D01*
X132425104Y-103035129D01*
X132424896Y-103273824D01*
X132516048Y-103494429D01*
X132684683Y-103663359D01*
X132905129Y-103754896D01*
X133143824Y-103755104D01*
X133364429Y-103663952D01*
X133533359Y-103495317D01*
X133624896Y-103274871D01*
X133625104Y-103036176D01*
X133581894Y-102931600D01*
X136813819Y-102931600D01*
X136930129Y-102979896D01*
X137168824Y-102980104D01*
X137389429Y-102888952D01*
X137558359Y-102720317D01*
X137649896Y-102499871D01*
X137650104Y-102261176D01*
X137558952Y-102040571D01*
X137390317Y-101871641D01*
X137169871Y-101780104D01*
X136931176Y-101779896D01*
X136900098Y-101792737D01*
X136900104Y-101786176D01*
X136808952Y-101565571D01*
X136640317Y-101396641D01*
X136419871Y-101305104D01*
X136181176Y-101304896D01*
X135960571Y-101396048D01*
X135853031Y-101503400D01*
X128250000Y-101503400D01*
X128096314Y-101533970D01*
X127966026Y-101621026D01*
X127407025Y-102180027D01*
X127256176Y-102179896D01*
X127035571Y-102271048D01*
X126866641Y-102439683D01*
X126775104Y-102660129D01*
X126774896Y-102898824D01*
X122870001Y-102898824D01*
X122783952Y-102690571D01*
X122615317Y-102521641D01*
X122394871Y-102430104D01*
X122156176Y-102429896D01*
X121935571Y-102521048D01*
X121766641Y-102689683D01*
X121675104Y-102910129D01*
X121674896Y-103148824D01*
X115225000Y-103148824D01*
X115225000Y-101048824D01*
X118049896Y-101048824D01*
X118141048Y-101269429D01*
X118309683Y-101438359D01*
X118530129Y-101529896D01*
X118768824Y-101530104D01*
X118989429Y-101438952D01*
X119158359Y-101270317D01*
X119249896Y-101049871D01*
X119250104Y-100811176D01*
X119158952Y-100590571D01*
X119112581Y-100544118D01*
X122849922Y-100544118D01*
X122918286Y-100709572D01*
X123044763Y-100836269D01*
X123210097Y-100904922D01*
X123389118Y-100905078D01*
X123554572Y-100836714D01*
X123587447Y-100803896D01*
X123619763Y-100836269D01*
X123785097Y-100904922D01*
X123964118Y-100905078D01*
X124081444Y-100856600D01*
X126375000Y-100856600D01*
X126528686Y-100826030D01*
X126658974Y-100738974D01*
X127241348Y-100156600D01*
X139534616Y-100156600D01*
X139450104Y-100360129D01*
X139449896Y-100598824D01*
X139541048Y-100819429D01*
X139709683Y-100988359D01*
X139930129Y-101079896D01*
X140168824Y-101080104D01*
X140389429Y-100988952D01*
X140558359Y-100820317D01*
X140612520Y-100689882D01*
X140666048Y-100819429D01*
X140834683Y-100988359D01*
X141055129Y-101079896D01*
X141293824Y-101080104D01*
X141514429Y-100988952D01*
X141683359Y-100820317D01*
X141774896Y-100599871D01*
X141775104Y-100361176D01*
X141690575Y-100156600D01*
X145749933Y-100156600D01*
X145749896Y-100198824D01*
X145841048Y-100419429D01*
X146009683Y-100588359D01*
X146230129Y-100679896D01*
X146468824Y-100680104D01*
X146689429Y-100588952D01*
X146858359Y-100420317D01*
X146949896Y-100199871D01*
X146950104Y-99961176D01*
X146858952Y-99740571D01*
X146690317Y-99571641D01*
X146469871Y-99480104D01*
X146317920Y-99479972D01*
X146308974Y-99471026D01*
X146247730Y-99430104D01*
X146178686Y-99383970D01*
X146025000Y-99353400D01*
X138304462Y-99353400D01*
X138339429Y-99338952D01*
X138508359Y-99170317D01*
X138599896Y-98949871D01*
X138600104Y-98711176D01*
X138508952Y-98490571D01*
X138340317Y-98321641D01*
X138119871Y-98230104D01*
X137881176Y-98229896D01*
X137660571Y-98321048D01*
X137491641Y-98489683D01*
X137400104Y-98710129D01*
X137399896Y-98948824D01*
X137491048Y-99169429D01*
X137659683Y-99338359D01*
X137695906Y-99353400D01*
X127459976Y-99353400D01*
X128264552Y-98548824D01*
X129799896Y-98548824D01*
X129891048Y-98769429D01*
X130059683Y-98938359D01*
X130280129Y-99029896D01*
X130518824Y-99030104D01*
X130739429Y-98938952D01*
X130908359Y-98770317D01*
X130999896Y-98549871D01*
X131000104Y-98311176D01*
X130908952Y-98090571D01*
X130740317Y-97921641D01*
X130519871Y-97830104D01*
X130281176Y-97829896D01*
X130060571Y-97921048D01*
X129891641Y-98089683D01*
X129800104Y-98310129D01*
X129799896Y-98548824D01*
X128264552Y-98548824D01*
X129256776Y-97556600D01*
X132343725Y-97556600D01*
X132460097Y-97604922D01*
X132639118Y-97605078D01*
X132804572Y-97536714D01*
X132931269Y-97410237D01*
X132999922Y-97244903D01*
X132999962Y-97198824D01*
X138474896Y-97198824D01*
X138566048Y-97419429D01*
X138734683Y-97588359D01*
X138955129Y-97679896D01*
X139193824Y-97680104D01*
X139414429Y-97588952D01*
X139583359Y-97420317D01*
X139674896Y-97199871D01*
X139675104Y-96961176D01*
X139583952Y-96740571D01*
X139415317Y-96571641D01*
X139194871Y-96480104D01*
X138956176Y-96479896D01*
X138735571Y-96571048D01*
X138566641Y-96739683D01*
X138475104Y-96960129D01*
X138474896Y-97198824D01*
X132999962Y-97198824D01*
X133000078Y-97065882D01*
X132931714Y-96900428D01*
X132805237Y-96773731D01*
X132639903Y-96705078D01*
X132460882Y-96704922D01*
X132343556Y-96753400D01*
X129489762Y-96753400D01*
X129619338Y-96623824D01*
X133999896Y-96623824D01*
X134091048Y-96844429D01*
X134259683Y-97013359D01*
X134480129Y-97104896D01*
X134718824Y-97105104D01*
X134939429Y-97013952D01*
X135100089Y-96853573D01*
X135209683Y-96963359D01*
X135430129Y-97054896D01*
X135668824Y-97055104D01*
X135889429Y-96963952D01*
X136058359Y-96795317D01*
X136149896Y-96574871D01*
X136150104Y-96336176D01*
X136072692Y-96148824D01*
X140749896Y-96148824D01*
X140841048Y-96369429D01*
X141009683Y-96538359D01*
X141230129Y-96629896D01*
X141468824Y-96630104D01*
X141689429Y-96538952D01*
X141858359Y-96370317D01*
X141949896Y-96149871D01*
X141950104Y-95911176D01*
X141858952Y-95690571D01*
X141690317Y-95521641D01*
X141469871Y-95430104D01*
X141231176Y-95429896D01*
X141010571Y-95521048D01*
X140841641Y-95689683D01*
X140750104Y-95910129D01*
X140749896Y-96148824D01*
X136072692Y-96148824D01*
X136058952Y-96115571D01*
X135975905Y-96032379D01*
X135931714Y-95925428D01*
X135805237Y-95798731D01*
X135639903Y-95730078D01*
X135460882Y-95729922D01*
X135295428Y-95798286D01*
X135168731Y-95924763D01*
X135124013Y-96032454D01*
X135050043Y-96106296D01*
X135050078Y-96065882D01*
X134981714Y-95900428D01*
X134855237Y-95773731D01*
X134689903Y-95705078D01*
X134510882Y-95704922D01*
X134345428Y-95773286D01*
X134218731Y-95899763D01*
X134150078Y-96065097D01*
X134150042Y-96106384D01*
X134091641Y-96164683D01*
X134000104Y-96385129D01*
X133999896Y-96623824D01*
X129619338Y-96623824D01*
X129686562Y-96556600D01*
X132368725Y-96556600D01*
X132485097Y-96604922D01*
X132664118Y-96605078D01*
X132829572Y-96536714D01*
X132956269Y-96410237D01*
X133024922Y-96244903D01*
X133025078Y-96065882D01*
X133010913Y-96031600D01*
X133100000Y-96031600D01*
X133253686Y-96001030D01*
X133383974Y-95913974D01*
X133713115Y-95584833D01*
X133829572Y-95536714D01*
X133956269Y-95410237D01*
X134024922Y-95244903D01*
X134025078Y-95065882D01*
X133956714Y-94900428D01*
X133830237Y-94773731D01*
X133817778Y-94768558D01*
X133889429Y-94738952D01*
X134058359Y-94570317D01*
X134067283Y-94548824D01*
X135874896Y-94548824D01*
X135966048Y-94769429D01*
X136134683Y-94938359D01*
X136355129Y-95029896D01*
X136593824Y-95030104D01*
X136814429Y-94938952D01*
X136983359Y-94770317D01*
X137033169Y-94650361D01*
X137041048Y-94669429D01*
X137209683Y-94838359D01*
X137430129Y-94929896D01*
X137668824Y-94930104D01*
X137889429Y-94838952D01*
X138058359Y-94670317D01*
X138149896Y-94449871D01*
X138150104Y-94211176D01*
X138058952Y-93990571D01*
X137967366Y-93898824D01*
X140774896Y-93898824D01*
X140866048Y-94119429D01*
X141034683Y-94288359D01*
X141255129Y-94379896D01*
X141493824Y-94380104D01*
X141714429Y-94288952D01*
X141883359Y-94120317D01*
X141974896Y-93899871D01*
X141975104Y-93661176D01*
X141883952Y-93440571D01*
X141715317Y-93271641D01*
X141494871Y-93180104D01*
X141256176Y-93179896D01*
X141035571Y-93271048D01*
X140866641Y-93439683D01*
X140775104Y-93660129D01*
X140774896Y-93898824D01*
X137967366Y-93898824D01*
X137890317Y-93821641D01*
X137669871Y-93730104D01*
X137664955Y-93730100D01*
X137664903Y-93730078D01*
X137485882Y-93729922D01*
X137485830Y-93729944D01*
X137431176Y-93729896D01*
X137210571Y-93821048D01*
X137041641Y-93989683D01*
X137012380Y-94060151D01*
X136956714Y-93925428D01*
X136830237Y-93798731D01*
X136664903Y-93730078D01*
X136485882Y-93729922D01*
X136320428Y-93798286D01*
X136241154Y-93877422D01*
X136135571Y-93921048D01*
X135966641Y-94089683D01*
X135875104Y-94310129D01*
X135874896Y-94548824D01*
X134067283Y-94548824D01*
X134149896Y-94349871D01*
X134150104Y-94111176D01*
X134058952Y-93890571D01*
X133890317Y-93721641D01*
X133850415Y-93705072D01*
X133889429Y-93688952D01*
X134000776Y-93577800D01*
X134002218Y-93576836D01*
X134003173Y-93575406D01*
X134058359Y-93520317D01*
X134088525Y-93447669D01*
X134108545Y-93417707D01*
X134115514Y-93382673D01*
X134149896Y-93299871D01*
X134150104Y-93061176D01*
X134112637Y-92970500D01*
X135491855Y-92970500D01*
X135509683Y-92988359D01*
X135730129Y-93079896D01*
X135968824Y-93080104D01*
X136189429Y-92988952D01*
X136358359Y-92820317D01*
X136449896Y-92599871D01*
X136450062Y-92409802D01*
X138608287Y-92409802D01*
X138525104Y-92610129D01*
X138524896Y-92848824D01*
X138616048Y-93069429D01*
X138784683Y-93238359D01*
X139005129Y-93329896D01*
X139243824Y-93330104D01*
X139464429Y-93238952D01*
X139633359Y-93070317D01*
X139724896Y-92849871D01*
X139725104Y-92611176D01*
X139641898Y-92409802D01*
X140112226Y-92409802D01*
X140265912Y-92379232D01*
X140396200Y-92292176D01*
X140681776Y-92006600D01*
X140853110Y-92006600D01*
X140959683Y-92113359D01*
X141180129Y-92204896D01*
X141418824Y-92205104D01*
X141639429Y-92113952D01*
X141808359Y-91945317D01*
X141899896Y-91724871D01*
X141900005Y-91598824D01*
X149049896Y-91598824D01*
X149141048Y-91819429D01*
X149309683Y-91988359D01*
X149530129Y-92079896D01*
X149768824Y-92080104D01*
X149989429Y-91988952D01*
X150158359Y-91820317D01*
X150249896Y-91599871D01*
X150250104Y-91361176D01*
X150158952Y-91140571D01*
X149990317Y-90971641D01*
X149769871Y-90880104D01*
X149531176Y-90879896D01*
X149310571Y-90971048D01*
X149141641Y-91139683D01*
X149050104Y-91360129D01*
X149049896Y-91598824D01*
X141900005Y-91598824D01*
X141900104Y-91486176D01*
X141808952Y-91265571D01*
X141640317Y-91096641D01*
X141582706Y-91072719D01*
X141664429Y-91038952D01*
X141833359Y-90870317D01*
X141924896Y-90649871D01*
X141925104Y-90411176D01*
X141878682Y-90298824D01*
X149049896Y-90298824D01*
X149141048Y-90519429D01*
X149309683Y-90688359D01*
X149530129Y-90779896D01*
X149768824Y-90780104D01*
X149989429Y-90688952D01*
X150158359Y-90520317D01*
X150249896Y-90299871D01*
X150250104Y-90061176D01*
X150158952Y-89840571D01*
X149990317Y-89671641D01*
X149769871Y-89580104D01*
X149531176Y-89579896D01*
X149310571Y-89671048D01*
X149141641Y-89839683D01*
X149050104Y-90060129D01*
X149049896Y-90298824D01*
X141878682Y-90298824D01*
X141833952Y-90190571D01*
X141665317Y-90021641D01*
X141570299Y-89982186D01*
X141614429Y-89963952D01*
X141783359Y-89795317D01*
X141874896Y-89574871D01*
X141875104Y-89336176D01*
X141821564Y-89206600D01*
X145053110Y-89206600D01*
X145159683Y-89313359D01*
X145380129Y-89404896D01*
X145618824Y-89405104D01*
X145839429Y-89313952D01*
X146008359Y-89145317D01*
X146099896Y-88924871D01*
X146100104Y-88686176D01*
X146008952Y-88465571D01*
X145840317Y-88296641D01*
X145619871Y-88205104D01*
X145399979Y-88204912D01*
X145400104Y-88061176D01*
X145325905Y-87881600D01*
X145678109Y-87881600D01*
X145766048Y-88094429D01*
X145934683Y-88263359D01*
X146155129Y-88354896D01*
X146393824Y-88355104D01*
X146614429Y-88263952D01*
X146783359Y-88095317D01*
X146874896Y-87874871D01*
X146875104Y-87636176D01*
X146783952Y-87415571D01*
X146774997Y-87406600D01*
X149353110Y-87406600D01*
X149459683Y-87513359D01*
X149680129Y-87604896D01*
X149918824Y-87605104D01*
X150139429Y-87513952D01*
X150308359Y-87345317D01*
X150399896Y-87124871D01*
X150400104Y-86886176D01*
X150308952Y-86665571D01*
X150140317Y-86496641D01*
X149919871Y-86405104D01*
X149681176Y-86404896D01*
X149460571Y-86496048D01*
X149353031Y-86603400D01*
X147515384Y-86603400D01*
X147599896Y-86399871D01*
X147600104Y-86161176D01*
X147508952Y-85940571D01*
X147340317Y-85771641D01*
X147119871Y-85680104D01*
X146881176Y-85679896D01*
X146660571Y-85771048D01*
X146527987Y-85903400D01*
X144686145Y-85903400D01*
X144749896Y-85749871D01*
X144750104Y-85511176D01*
X144658952Y-85290571D01*
X144490317Y-85121641D01*
X144269871Y-85030104D01*
X144099979Y-85029956D01*
X144100104Y-84886176D01*
X144036235Y-84731600D01*
X147242435Y-84731600D01*
X147265009Y-84845086D01*
X147514297Y-85218173D01*
X147887384Y-85467461D01*
X148327470Y-85555000D01*
X148372530Y-85555000D01*
X148812616Y-85467461D01*
X149185703Y-85218173D01*
X149434991Y-84845086D01*
X149462554Y-84706516D01*
X149947328Y-84706516D01*
X150039400Y-84928835D01*
X150326357Y-85273797D01*
X150723482Y-85482687D01*
X150900000Y-85445190D01*
X150900000Y-84530000D01*
X151200000Y-84530000D01*
X151200000Y-85445190D01*
X151376518Y-85482687D01*
X151773643Y-85273797D01*
X152060600Y-84928835D01*
X152152672Y-84706516D01*
X152114483Y-84530000D01*
X151200000Y-84530000D01*
X150900000Y-84530000D01*
X149985517Y-84530000D01*
X149947328Y-84706516D01*
X149462554Y-84706516D01*
X149522530Y-84405000D01*
X149452609Y-84053484D01*
X149947328Y-84053484D01*
X149985517Y-84230000D01*
X150900000Y-84230000D01*
X150900000Y-83314810D01*
X151200000Y-83314810D01*
X151200000Y-84230000D01*
X152114483Y-84230000D01*
X152152672Y-84053484D01*
X152060600Y-83831165D01*
X151773643Y-83486203D01*
X151376518Y-83277313D01*
X151200000Y-83314810D01*
X150900000Y-83314810D01*
X150723482Y-83277313D01*
X150326357Y-83486203D01*
X150039400Y-83831165D01*
X149947328Y-84053484D01*
X149452609Y-84053484D01*
X149434991Y-83964914D01*
X149185703Y-83591827D01*
X148812616Y-83342539D01*
X148372530Y-83255000D01*
X148327470Y-83255000D01*
X147887384Y-83342539D01*
X147514297Y-83591827D01*
X147289407Y-83928400D01*
X138625764Y-83928400D01*
X138699896Y-83749871D01*
X138700104Y-83511176D01*
X138608952Y-83290571D01*
X138440317Y-83121641D01*
X138219871Y-83030104D01*
X137981176Y-83029896D01*
X137760571Y-83121048D01*
X137591641Y-83289683D01*
X137500104Y-83510129D01*
X137499896Y-83748824D01*
X137591048Y-83969429D01*
X137701493Y-84080067D01*
X137566641Y-84214683D01*
X137475104Y-84435129D01*
X137474896Y-84673824D01*
X137537442Y-84825198D01*
X134528202Y-84825198D01*
X134374516Y-84855768D01*
X134244228Y-84942824D01*
X133599929Y-85587123D01*
X133600104Y-85386176D01*
X133508952Y-85165571D01*
X133340317Y-84996641D01*
X133119871Y-84905104D01*
X132881176Y-84904896D01*
X132660571Y-84996048D01*
X132491641Y-85164683D01*
X132400104Y-85385129D01*
X132399972Y-85537080D01*
X131158652Y-86778400D01*
X128781275Y-86778400D01*
X128664903Y-86730078D01*
X128485882Y-86729922D01*
X128320428Y-86798286D01*
X128193731Y-86924763D01*
X128125078Y-87090097D01*
X128124922Y-87269118D01*
X128193286Y-87434572D01*
X128319763Y-87561269D01*
X128485097Y-87629922D01*
X128664118Y-87630078D01*
X128781444Y-87581600D01*
X130452052Y-87581600D01*
X130235571Y-87671048D01*
X130066641Y-87839683D01*
X129975104Y-88060129D01*
X129974896Y-88298824D01*
X130066048Y-88519429D01*
X130234683Y-88688359D01*
X130455129Y-88779896D01*
X130693824Y-88780104D01*
X130914429Y-88688952D01*
X131083359Y-88520317D01*
X131174896Y-88299871D01*
X131175104Y-88061176D01*
X131083952Y-87840571D01*
X130915317Y-87671641D01*
X130698474Y-87581600D01*
X131325000Y-87581600D01*
X131478686Y-87551030D01*
X131608974Y-87463974D01*
X132967975Y-86104973D01*
X133081980Y-86105072D01*
X132461885Y-86725167D01*
X132345428Y-86773286D01*
X132218731Y-86899763D01*
X132150078Y-87065097D01*
X132149922Y-87244118D01*
X132218286Y-87409572D01*
X132344763Y-87536269D01*
X132510097Y-87604922D01*
X132557089Y-87604963D01*
X132461885Y-87700167D01*
X132345428Y-87748286D01*
X132218731Y-87874763D01*
X132150078Y-88040097D01*
X132149922Y-88219118D01*
X132218286Y-88384572D01*
X132344763Y-88511269D01*
X132510097Y-88579922D01*
X132689118Y-88580078D01*
X132854572Y-88511714D01*
X132981269Y-88385237D01*
X133029952Y-88267996D01*
X135266348Y-86031600D01*
X137130452Y-86031600D01*
X135436885Y-87725167D01*
X135320428Y-87773286D01*
X135193731Y-87899763D01*
X135125078Y-88065097D01*
X135124922Y-88244118D01*
X135193286Y-88409572D01*
X135319763Y-88536269D01*
X135485097Y-88604922D01*
X135664118Y-88605078D01*
X135829572Y-88536714D01*
X135956269Y-88410237D01*
X136004952Y-88292996D01*
X137591348Y-86706600D01*
X139949236Y-86706600D01*
X139875104Y-86885129D01*
X139874896Y-87123824D01*
X139938765Y-87278400D01*
X137300000Y-87278400D01*
X137146314Y-87308970D01*
X137016026Y-87396026D01*
X135715290Y-88696762D01*
X135614903Y-88655078D01*
X135435882Y-88654922D01*
X135270428Y-88723286D01*
X135143731Y-88849763D01*
X135075078Y-89015097D01*
X135074922Y-89194118D01*
X135143286Y-89359572D01*
X135269763Y-89486269D01*
X135435097Y-89554922D01*
X135614118Y-89555078D01*
X135731444Y-89506600D01*
X135875000Y-89506600D01*
X136028686Y-89476030D01*
X136158974Y-89388974D01*
X136177231Y-89370717D01*
X136193286Y-89409572D01*
X136313429Y-89529924D01*
X136310882Y-89529922D01*
X136145428Y-89598286D01*
X136018731Y-89724763D01*
X135950078Y-89890097D01*
X135949922Y-90069118D01*
X136018286Y-90234572D01*
X136144763Y-90361269D01*
X136262004Y-90409952D01*
X136582058Y-90730006D01*
X136485882Y-90729922D01*
X136320428Y-90798286D01*
X136193731Y-90924763D01*
X136125078Y-91090097D01*
X136125037Y-91137089D01*
X136004833Y-91016885D01*
X135956714Y-90900428D01*
X135830237Y-90773731D01*
X135664903Y-90705078D01*
X135485882Y-90704922D01*
X135320428Y-90773286D01*
X135193731Y-90899763D01*
X135125078Y-91065097D01*
X135124922Y-91244118D01*
X135193286Y-91409572D01*
X135319763Y-91536269D01*
X135437004Y-91584952D01*
X135731949Y-91879897D01*
X135731176Y-91879896D01*
X135510571Y-91971048D01*
X135492087Y-91989500D01*
X134103172Y-91989500D01*
X133946836Y-91833164D01*
X133787706Y-91726837D01*
X133600000Y-91689500D01*
X133412294Y-91726837D01*
X133253164Y-91833164D01*
X133146837Y-91992294D01*
X133109500Y-92180000D01*
X133146837Y-92367706D01*
X133253164Y-92526836D01*
X133342758Y-92616430D01*
X133210571Y-92671048D01*
X133041641Y-92839683D01*
X132950104Y-93060129D01*
X132949896Y-93298824D01*
X133041048Y-93519429D01*
X133209683Y-93688359D01*
X133249585Y-93704928D01*
X133210571Y-93721048D01*
X133041641Y-93889683D01*
X132950104Y-94110129D01*
X132949896Y-94348824D01*
X133041048Y-94569429D01*
X133209683Y-94738359D01*
X133312605Y-94781096D01*
X133193731Y-94899763D01*
X133145048Y-95017004D01*
X133025016Y-95137036D01*
X133025078Y-95065882D01*
X132956714Y-94900428D01*
X132830237Y-94773731D01*
X132712996Y-94725048D01*
X132333974Y-94346026D01*
X132281817Y-94311176D01*
X132203686Y-94258970D01*
X132050000Y-94228400D01*
X129075000Y-94228400D01*
X128921314Y-94258970D01*
X128791026Y-94346026D01*
X125961885Y-97175167D01*
X125845428Y-97223286D01*
X125718731Y-97349763D01*
X125650078Y-97515097D01*
X125649922Y-97694118D01*
X125716476Y-97855193D01*
X125650078Y-98015097D01*
X125649922Y-98194118D01*
X125716476Y-98355193D01*
X125650078Y-98515097D01*
X125649929Y-98686096D01*
X125620428Y-98698286D01*
X125493731Y-98824763D01*
X125425078Y-98990097D01*
X125424936Y-99153400D01*
X123575000Y-99153400D01*
X123421314Y-99183970D01*
X123346911Y-99233685D01*
X123291026Y-99271026D01*
X123016026Y-99546026D01*
X122928970Y-99676314D01*
X122898400Y-99830000D01*
X122898400Y-100248725D01*
X122850078Y-100365097D01*
X122849922Y-100544118D01*
X119112581Y-100544118D01*
X118990317Y-100421641D01*
X118769871Y-100330104D01*
X118531176Y-100329896D01*
X118310571Y-100421048D01*
X118141641Y-100589683D01*
X118050104Y-100810129D01*
X118049896Y-101048824D01*
X115225000Y-101048824D01*
X115225000Y-98048824D01*
X116349896Y-98048824D01*
X116441048Y-98269429D01*
X116609683Y-98438359D01*
X116830129Y-98529896D01*
X117068824Y-98530104D01*
X117289429Y-98438952D01*
X117458359Y-98270317D01*
X117529568Y-98098824D01*
X118149896Y-98098824D01*
X118241048Y-98319429D01*
X118409683Y-98488359D01*
X118630129Y-98579896D01*
X118868824Y-98580104D01*
X119089429Y-98488952D01*
X119258359Y-98320317D01*
X119349896Y-98099871D01*
X119350104Y-97861176D01*
X119258952Y-97640571D01*
X119090317Y-97471641D01*
X118869871Y-97380104D01*
X118631176Y-97379896D01*
X118410571Y-97471048D01*
X118241641Y-97639683D01*
X118150104Y-97860129D01*
X118149896Y-98098824D01*
X117529568Y-98098824D01*
X117549896Y-98049871D01*
X117550104Y-97811176D01*
X117458952Y-97590571D01*
X117290317Y-97421641D01*
X117069871Y-97330104D01*
X116831176Y-97329896D01*
X116610571Y-97421048D01*
X116441641Y-97589683D01*
X116350104Y-97810129D01*
X116349896Y-98048824D01*
X115225000Y-98048824D01*
X115225000Y-96444118D01*
X120749922Y-96444118D01*
X120818286Y-96609572D01*
X120944763Y-96736269D01*
X121110097Y-96804922D01*
X121289118Y-96805078D01*
X121406444Y-96756600D01*
X125893725Y-96756600D01*
X126010097Y-96804922D01*
X126189118Y-96805078D01*
X126354572Y-96736714D01*
X126481269Y-96610237D01*
X126549922Y-96444903D01*
X126550078Y-96265882D01*
X126481714Y-96100428D01*
X126355237Y-95973731D01*
X126189903Y-95905078D01*
X126010882Y-95904922D01*
X125893556Y-95953400D01*
X121406275Y-95953400D01*
X121289903Y-95905078D01*
X121110882Y-95904922D01*
X120945428Y-95973286D01*
X120818731Y-96099763D01*
X120750078Y-96265097D01*
X120749922Y-96444118D01*
X115225000Y-96444118D01*
X115225000Y-94330000D01*
X120000000Y-94330000D01*
X120000000Y-95014673D01*
X120045672Y-95124936D01*
X120130063Y-95209328D01*
X120240326Y-95255000D01*
X120925000Y-95255000D01*
X121000000Y-95180000D01*
X121000000Y-94255000D01*
X121300000Y-94255000D01*
X121300000Y-95180000D01*
X121375000Y-95255000D01*
X122059674Y-95255000D01*
X122169937Y-95209328D01*
X122254328Y-95124936D01*
X122300000Y-95014673D01*
X122300000Y-94330000D01*
X122225000Y-94255000D01*
X121300000Y-94255000D01*
X121000000Y-94255000D01*
X120075000Y-94255000D01*
X120000000Y-94330000D01*
X115225000Y-94330000D01*
X115225000Y-93195327D01*
X120000000Y-93195327D01*
X120000000Y-93880000D01*
X120075000Y-93955000D01*
X121000000Y-93955000D01*
X121000000Y-93030000D01*
X121300000Y-93030000D01*
X121300000Y-93955000D01*
X122225000Y-93955000D01*
X122300000Y-93880000D01*
X122300000Y-93195327D01*
X122254328Y-93085064D01*
X122169937Y-93000672D01*
X122059674Y-92955000D01*
X121375000Y-92955000D01*
X121300000Y-93030000D01*
X121000000Y-93030000D01*
X120925000Y-92955000D01*
X120240326Y-92955000D01*
X120130063Y-93000672D01*
X120045672Y-93085064D01*
X120000000Y-93195327D01*
X115225000Y-93195327D01*
X115225000Y-91565000D01*
X119977470Y-91565000D01*
X120065009Y-92005086D01*
X120314297Y-92378173D01*
X120687384Y-92627461D01*
X121127470Y-92715000D01*
X121172530Y-92715000D01*
X121612616Y-92627461D01*
X121985703Y-92378173D01*
X122234991Y-92005086D01*
X122290937Y-91723824D01*
X124374896Y-91723824D01*
X124466048Y-91944429D01*
X124634683Y-92113359D01*
X124855129Y-92204896D01*
X125093824Y-92205104D01*
X125314429Y-92113952D01*
X125483359Y-91945317D01*
X125493177Y-91921672D01*
X125597183Y-92025859D01*
X125603080Y-92028308D01*
X125566641Y-92064683D01*
X125475104Y-92285129D01*
X125474896Y-92523824D01*
X125566048Y-92744429D01*
X125734683Y-92913359D01*
X125955129Y-93004896D01*
X126193824Y-93005104D01*
X126414429Y-92913952D01*
X126573269Y-92755390D01*
X126641048Y-92919429D01*
X126809683Y-93088359D01*
X127030129Y-93179896D01*
X127124978Y-93179979D01*
X127124922Y-93244118D01*
X127193286Y-93409572D01*
X127319763Y-93536269D01*
X127485097Y-93604922D01*
X127664118Y-93605078D01*
X127829572Y-93536714D01*
X127956269Y-93410237D01*
X128004952Y-93292996D01*
X128017997Y-93279951D01*
X128193824Y-93280104D01*
X128414429Y-93188952D01*
X128583359Y-93020317D01*
X128674896Y-92799871D01*
X128675104Y-92561176D01*
X128583952Y-92340571D01*
X128415317Y-92171641D01*
X128194871Y-92080104D01*
X127995553Y-92079930D01*
X127945917Y-91959802D01*
X129171798Y-91959802D01*
X129325484Y-91929232D01*
X129455772Y-91842176D01*
X129508827Y-91789121D01*
X129500104Y-91810129D01*
X129499896Y-92048824D01*
X129591048Y-92269429D01*
X129759683Y-92438359D01*
X129980129Y-92529896D01*
X130007780Y-92529920D01*
X130162293Y-92633163D01*
X130350000Y-92670500D01*
X130550000Y-92670500D01*
X130737706Y-92633163D01*
X130896836Y-92526836D01*
X131003163Y-92367706D01*
X131040500Y-92180000D01*
X131003163Y-91992294D01*
X130896836Y-91833164D01*
X130737706Y-91726837D01*
X130658768Y-91711135D01*
X130608952Y-91590571D01*
X130440317Y-91421641D01*
X130219871Y-91330104D01*
X130018854Y-91329929D01*
X130074922Y-91194903D01*
X130075078Y-91015882D01*
X130006714Y-90850428D01*
X129880237Y-90723731D01*
X129714903Y-90655078D01*
X129535882Y-90654922D01*
X129370428Y-90723286D01*
X129243731Y-90849763D01*
X129195048Y-90967004D01*
X129099994Y-91062058D01*
X129100078Y-90965882D01*
X129031714Y-90800428D01*
X128905237Y-90673731D01*
X128739903Y-90605078D01*
X128560882Y-90604922D01*
X128395428Y-90673286D01*
X128315175Y-90753400D01*
X126300000Y-90753400D01*
X126146314Y-90783970D01*
X126055831Y-90844429D01*
X126016026Y-90871026D01*
X125969525Y-90917527D01*
X125818676Y-90917396D01*
X125598071Y-91008548D01*
X125429141Y-91177183D01*
X125419323Y-91200828D01*
X125315317Y-91096641D01*
X125094871Y-91005104D01*
X124856176Y-91004896D01*
X124635571Y-91096048D01*
X124466641Y-91264683D01*
X124375104Y-91485129D01*
X124374896Y-91723824D01*
X122290937Y-91723824D01*
X122322530Y-91565000D01*
X122234991Y-91124914D01*
X121985703Y-90751827D01*
X121612616Y-90502539D01*
X121172530Y-90415000D01*
X121127470Y-90415000D01*
X120687384Y-90502539D01*
X120314297Y-90751827D01*
X120065009Y-91124914D01*
X119977470Y-91565000D01*
X115225000Y-91565000D01*
X115225000Y-89025000D01*
X119977470Y-89025000D01*
X120065009Y-89465086D01*
X120314297Y-89838173D01*
X120687384Y-90087461D01*
X121127470Y-90175000D01*
X121172530Y-90175000D01*
X121612616Y-90087461D01*
X121985703Y-89838173D01*
X122234991Y-89465086D01*
X122273971Y-89269118D01*
X131124922Y-89269118D01*
X131193286Y-89434572D01*
X131319763Y-89561269D01*
X131437004Y-89609952D01*
X131941026Y-90113974D01*
X132071314Y-90201030D01*
X132225000Y-90231600D01*
X132900000Y-90231600D01*
X133053686Y-90201030D01*
X133183974Y-90113974D01*
X133542975Y-89754973D01*
X133693824Y-89755104D01*
X133914429Y-89663952D01*
X134083359Y-89495317D01*
X134174896Y-89274871D01*
X134175104Y-89036176D01*
X134083952Y-88815571D01*
X133915317Y-88646641D01*
X133694871Y-88555104D01*
X133456176Y-88554896D01*
X133235571Y-88646048D01*
X133066641Y-88814683D01*
X133056790Y-88838406D01*
X132890317Y-88671641D01*
X132669871Y-88580104D01*
X132431176Y-88579896D01*
X132210571Y-88671048D01*
X132041641Y-88839683D01*
X131981314Y-88984966D01*
X131956714Y-88925428D01*
X131830237Y-88798731D01*
X131664903Y-88730078D01*
X131485882Y-88729922D01*
X131320428Y-88798286D01*
X131193731Y-88924763D01*
X131125078Y-89090097D01*
X131124922Y-89269118D01*
X122273971Y-89269118D01*
X122322530Y-89025000D01*
X122234991Y-88584914D01*
X121985703Y-88211827D01*
X121612616Y-87962539D01*
X121172530Y-87875000D01*
X121127470Y-87875000D01*
X120687384Y-87962539D01*
X120314297Y-88211827D01*
X120065009Y-88584914D01*
X119977470Y-89025000D01*
X115225000Y-89025000D01*
X115225000Y-84806516D01*
X115547328Y-84806516D01*
X115639400Y-85028835D01*
X115926357Y-85373797D01*
X116323482Y-85582687D01*
X116500000Y-85545190D01*
X116500000Y-84630000D01*
X115585517Y-84630000D01*
X115547328Y-84806516D01*
X115225000Y-84806516D01*
X115225000Y-84153484D01*
X115547328Y-84153484D01*
X115585517Y-84330000D01*
X116500000Y-84330000D01*
X116500000Y-83414810D01*
X116323482Y-83377313D01*
X115926357Y-83586203D01*
X115639400Y-83931165D01*
X115547328Y-84153484D01*
X115225000Y-84153484D01*
X115225000Y-81940000D01*
X115477470Y-81940000D01*
X115565009Y-82380086D01*
X115814297Y-82753173D01*
X116187384Y-83002461D01*
X116627470Y-83090000D01*
X116672530Y-83090000D01*
X117112616Y-83002461D01*
X117131737Y-82989685D01*
X117598400Y-83456348D01*
X117598400Y-83856392D01*
X117373643Y-83586203D01*
X116976518Y-83377313D01*
X116800000Y-83414810D01*
X116800000Y-84330000D01*
X116820000Y-84330000D01*
X116820000Y-84630000D01*
X116800000Y-84630000D01*
X116800000Y-85545190D01*
X116976518Y-85582687D01*
X117373643Y-85373797D01*
X117598400Y-85103608D01*
X117598400Y-85455000D01*
X117628970Y-85608686D01*
X117715615Y-85738359D01*
X117716026Y-85738974D01*
X118266026Y-86288974D01*
X118396314Y-86376030D01*
X118550000Y-86406600D01*
X130475000Y-86406600D01*
X130628686Y-86376030D01*
X130758974Y-86288974D01*
X131067975Y-85979973D01*
X131218824Y-85980104D01*
X131439429Y-85888952D01*
X131608359Y-85720317D01*
X131699896Y-85499871D01*
X131700104Y-85261176D01*
X131608952Y-85040571D01*
X131440317Y-84871641D01*
X131219871Y-84780104D01*
X130981176Y-84779896D01*
X130760571Y-84871048D01*
X130629817Y-85001573D01*
X130583952Y-84890571D01*
X130415317Y-84721641D01*
X130194871Y-84630104D01*
X129956176Y-84629896D01*
X129735571Y-84721048D01*
X129566641Y-84889683D01*
X129475104Y-85110129D01*
X129474896Y-85348824D01*
X129566048Y-85569429D01*
X129599960Y-85603400D01*
X119500002Y-85603400D01*
X119500002Y-85545190D01*
X119676518Y-85582687D01*
X120073643Y-85373797D01*
X120360600Y-85028835D01*
X120452672Y-84806516D01*
X120414483Y-84630000D01*
X119500000Y-84630000D01*
X119500000Y-84650000D01*
X119200000Y-84650000D01*
X119200000Y-84630000D01*
X119180000Y-84630000D01*
X119180000Y-84373824D01*
X132399896Y-84373824D01*
X132491048Y-84594429D01*
X132659683Y-84763359D01*
X132880129Y-84854896D01*
X133118824Y-84855104D01*
X133339429Y-84763952D01*
X133508359Y-84595317D01*
X133599896Y-84374871D01*
X133600104Y-84136176D01*
X133508952Y-83915571D01*
X133340317Y-83746641D01*
X133119871Y-83655104D01*
X132881176Y-83654896D01*
X132660571Y-83746048D01*
X132491641Y-83914683D01*
X132400104Y-84135129D01*
X132399896Y-84373824D01*
X119180000Y-84373824D01*
X119180000Y-84330000D01*
X119200000Y-84330000D01*
X119200000Y-83414810D01*
X119500000Y-83414810D01*
X119500000Y-84330000D01*
X120414483Y-84330000D01*
X120452672Y-84153484D01*
X120360600Y-83931165D01*
X120073643Y-83586203D01*
X119676518Y-83377313D01*
X119500000Y-83414810D01*
X119200000Y-83414810D01*
X119023482Y-83377313D01*
X118626357Y-83586203D01*
X118401600Y-83856392D01*
X118401600Y-83290000D01*
X118371030Y-83136314D01*
X118283974Y-83006026D01*
X117704166Y-82426218D01*
X117734991Y-82380086D01*
X117822530Y-81940000D01*
X118177470Y-81940000D01*
X118265009Y-82380086D01*
X118514297Y-82753173D01*
X118887384Y-83002461D01*
X119327470Y-83090000D01*
X119372530Y-83090000D01*
X119812616Y-83002461D01*
X120185703Y-82753173D01*
X120434991Y-82380086D01*
X120522530Y-81940000D01*
X120434991Y-81499914D01*
X120185703Y-81126827D01*
X119812616Y-80877539D01*
X119416892Y-80798824D01*
X120099896Y-80798824D01*
X120191048Y-81019429D01*
X120359683Y-81188359D01*
X120580129Y-81279896D01*
X120732080Y-81280028D01*
X121019228Y-81567176D01*
X121149516Y-81654232D01*
X121303202Y-81684802D01*
X122971531Y-81684802D01*
X122966641Y-81689683D01*
X122875104Y-81910129D01*
X122874896Y-82148824D01*
X122966048Y-82369429D01*
X123134683Y-82538359D01*
X123355129Y-82629896D01*
X123593824Y-82630104D01*
X123814429Y-82538952D01*
X123983359Y-82370317D01*
X124074896Y-82149871D01*
X124075104Y-81911176D01*
X123983952Y-81690571D01*
X123978193Y-81684802D01*
X130716640Y-81684802D01*
X131270812Y-82238974D01*
X131401100Y-82326030D01*
X131554786Y-82356600D01*
X132875000Y-82356600D01*
X133028686Y-82326030D01*
X133158974Y-82238974D01*
X133892975Y-81504973D01*
X134043824Y-81505104D01*
X134264429Y-81413952D01*
X134433359Y-81245317D01*
X134524896Y-81024871D01*
X134525092Y-80798824D01*
X135499896Y-80798824D01*
X135591048Y-81019429D01*
X135759683Y-81188359D01*
X135980129Y-81279896D01*
X136132080Y-81280028D01*
X137366026Y-82513974D01*
X137496314Y-82601030D01*
X137650000Y-82631600D01*
X143678110Y-82631600D01*
X143738971Y-82692567D01*
X143616641Y-82814683D01*
X143525104Y-83035129D01*
X143524896Y-83273824D01*
X143616048Y-83494429D01*
X143784683Y-83663359D01*
X144005129Y-83754896D01*
X144243824Y-83755104D01*
X144464429Y-83663952D01*
X144633359Y-83495317D01*
X144724896Y-83274871D01*
X144725104Y-83036176D01*
X144633952Y-82815571D01*
X144511029Y-82692433D01*
X144633359Y-82570317D01*
X144724896Y-82349871D01*
X144725104Y-82111176D01*
X144633952Y-81890571D01*
X144608426Y-81865000D01*
X147177470Y-81865000D01*
X147265009Y-82305086D01*
X147514297Y-82678173D01*
X147887384Y-82927461D01*
X148327470Y-83015000D01*
X148372530Y-83015000D01*
X148812616Y-82927461D01*
X149185703Y-82678173D01*
X149434991Y-82305086D01*
X149522530Y-81865000D01*
X149517558Y-81840000D01*
X149877470Y-81840000D01*
X149965009Y-82280086D01*
X150214297Y-82653173D01*
X150587384Y-82902461D01*
X151027470Y-82990000D01*
X151072530Y-82990000D01*
X151512616Y-82902461D01*
X151885703Y-82653173D01*
X152134991Y-82280086D01*
X152222530Y-81840000D01*
X152134991Y-81399914D01*
X151885703Y-81026827D01*
X151512616Y-80777539D01*
X151072530Y-80690000D01*
X151027470Y-80690000D01*
X150587384Y-80777539D01*
X150214297Y-81026827D01*
X149965009Y-81399914D01*
X149877470Y-81840000D01*
X149517558Y-81840000D01*
X149434991Y-81424914D01*
X149185703Y-81051827D01*
X148812616Y-80802539D01*
X148372530Y-80715000D01*
X148327470Y-80715000D01*
X147887384Y-80802539D01*
X147514297Y-81051827D01*
X147265009Y-81424914D01*
X147177470Y-81865000D01*
X144608426Y-81865000D01*
X144523507Y-81779933D01*
X144658359Y-81645317D01*
X144749896Y-81424871D01*
X144750104Y-81186176D01*
X144658952Y-80965571D01*
X144490317Y-80796641D01*
X144269871Y-80705104D01*
X144077031Y-80704936D01*
X144099896Y-80649871D01*
X144100104Y-80411176D01*
X144008952Y-80190571D01*
X143840317Y-80021641D01*
X143619871Y-79930104D01*
X143381176Y-79929896D01*
X143160571Y-80021048D01*
X142991641Y-80189683D01*
X142900104Y-80410129D01*
X142899896Y-80648824D01*
X142991048Y-80869429D01*
X143024960Y-80903400D01*
X138141348Y-80903400D01*
X137824973Y-80587025D01*
X137825104Y-80436176D01*
X137733952Y-80215571D01*
X137565317Y-80046641D01*
X137344871Y-79955104D01*
X137106176Y-79954896D01*
X136885571Y-80046048D01*
X136716641Y-80214683D01*
X136636592Y-80407464D01*
X136608952Y-80340571D01*
X136440317Y-80171641D01*
X136219871Y-80080104D01*
X135981176Y-80079896D01*
X135760571Y-80171048D01*
X135591641Y-80339683D01*
X135500104Y-80560129D01*
X135499896Y-80798824D01*
X134525092Y-80798824D01*
X134525104Y-80786176D01*
X134433952Y-80565571D01*
X134265317Y-80396641D01*
X134044871Y-80305104D01*
X133806176Y-80304896D01*
X133585571Y-80396048D01*
X133512455Y-80469036D01*
X133365317Y-80321641D01*
X133144871Y-80230104D01*
X132906176Y-80229896D01*
X132685571Y-80321048D01*
X132516641Y-80489683D01*
X132500072Y-80529585D01*
X132483952Y-80490571D01*
X132315317Y-80321641D01*
X132094871Y-80230104D01*
X131942920Y-80229972D01*
X131683974Y-79971026D01*
X131622730Y-79930104D01*
X131553686Y-79883970D01*
X131400000Y-79853400D01*
X124443957Y-79853400D01*
X124539429Y-79813952D01*
X124708359Y-79645317D01*
X124799896Y-79424871D01*
X124800005Y-79298824D01*
X129449896Y-79298824D01*
X129541048Y-79519429D01*
X129709683Y-79688359D01*
X129930129Y-79779896D01*
X130168824Y-79780104D01*
X130389429Y-79688952D01*
X130558359Y-79520317D01*
X130588045Y-79448824D01*
X144199896Y-79448824D01*
X144291048Y-79669429D01*
X144459683Y-79838359D01*
X144680129Y-79929896D01*
X144918824Y-79930104D01*
X145139429Y-79838952D01*
X145308359Y-79670317D01*
X145399896Y-79449871D01*
X145400004Y-79325000D01*
X147177470Y-79325000D01*
X147265009Y-79765086D01*
X147514297Y-80138173D01*
X147887384Y-80387461D01*
X148327470Y-80475000D01*
X148372530Y-80475000D01*
X148812616Y-80387461D01*
X149185703Y-80138173D01*
X149434991Y-79765086D01*
X149522530Y-79325000D01*
X149517558Y-79300000D01*
X149877470Y-79300000D01*
X149965009Y-79740086D01*
X150214297Y-80113173D01*
X150587384Y-80362461D01*
X151027470Y-80450000D01*
X151072530Y-80450000D01*
X151512616Y-80362461D01*
X151885703Y-80113173D01*
X152134991Y-79740086D01*
X152222530Y-79300000D01*
X152134991Y-78859914D01*
X151885703Y-78486827D01*
X151512616Y-78237539D01*
X151072530Y-78150000D01*
X151027470Y-78150000D01*
X150587384Y-78237539D01*
X150214297Y-78486827D01*
X149965009Y-78859914D01*
X149877470Y-79300000D01*
X149517558Y-79300000D01*
X149434991Y-78884914D01*
X149185703Y-78511827D01*
X148812616Y-78262539D01*
X148372530Y-78175000D01*
X148327470Y-78175000D01*
X147887384Y-78262539D01*
X147514297Y-78511827D01*
X147265009Y-78884914D01*
X147177470Y-79325000D01*
X145400004Y-79325000D01*
X145400104Y-79211176D01*
X145308952Y-78990571D01*
X145140317Y-78821641D01*
X144919871Y-78730104D01*
X144681176Y-78729896D01*
X144460571Y-78821048D01*
X144291641Y-78989683D01*
X144200104Y-79210129D01*
X144199896Y-79448824D01*
X130588045Y-79448824D01*
X130649896Y-79299871D01*
X130650104Y-79061176D01*
X130558952Y-78840571D01*
X130390317Y-78671641D01*
X130169871Y-78580104D01*
X129931176Y-78579896D01*
X129710571Y-78671048D01*
X129541641Y-78839683D01*
X129450104Y-79060129D01*
X129449896Y-79298824D01*
X124800005Y-79298824D01*
X124800104Y-79186176D01*
X124708952Y-78965571D01*
X124540317Y-78796641D01*
X124319871Y-78705104D01*
X124081176Y-78704896D01*
X123860571Y-78796048D01*
X123691641Y-78964683D01*
X123600104Y-79185129D01*
X123599896Y-79423824D01*
X123691048Y-79644429D01*
X123859683Y-79813359D01*
X123956113Y-79853400D01*
X122871890Y-79853400D01*
X122765317Y-79746641D01*
X122544871Y-79655104D01*
X122306176Y-79654896D01*
X122085571Y-79746048D01*
X122025021Y-79806493D01*
X121940317Y-79721641D01*
X121719871Y-79630104D01*
X121481176Y-79629896D01*
X121260571Y-79721048D01*
X121091641Y-79889683D01*
X121000104Y-80110129D01*
X121000065Y-80154927D01*
X120819871Y-80080104D01*
X120581176Y-80079896D01*
X120360571Y-80171048D01*
X120191641Y-80339683D01*
X120100104Y-80560129D01*
X120099896Y-80798824D01*
X119416892Y-80798824D01*
X119372530Y-80790000D01*
X119327470Y-80790000D01*
X118887384Y-80877539D01*
X118514297Y-81126827D01*
X118265009Y-81499914D01*
X118177470Y-81940000D01*
X117822530Y-81940000D01*
X117734991Y-81499914D01*
X117485703Y-81126827D01*
X117112616Y-80877539D01*
X116672530Y-80790000D01*
X116627470Y-80790000D01*
X116187384Y-80877539D01*
X115814297Y-81126827D01*
X115565009Y-81499914D01*
X115477470Y-81940000D01*
X115225000Y-81940000D01*
X115225000Y-79400000D01*
X115477470Y-79400000D01*
X115565009Y-79840086D01*
X115814297Y-80213173D01*
X116187384Y-80462461D01*
X116627470Y-80550000D01*
X116672530Y-80550000D01*
X117112616Y-80462461D01*
X117485703Y-80213173D01*
X117734991Y-79840086D01*
X117822530Y-79400000D01*
X118177470Y-79400000D01*
X118265009Y-79840086D01*
X118514297Y-80213173D01*
X118887384Y-80462461D01*
X119327470Y-80550000D01*
X119372530Y-80550000D01*
X119812616Y-80462461D01*
X120185703Y-80213173D01*
X120434991Y-79840086D01*
X120522530Y-79400000D01*
X120434991Y-78959914D01*
X120237668Y-78664599D01*
X120455129Y-78754896D01*
X120693824Y-78755104D01*
X120914429Y-78663952D01*
X121083359Y-78495317D01*
X121174896Y-78274871D01*
X121175104Y-78036176D01*
X121083952Y-77815571D01*
X120915317Y-77646641D01*
X120694871Y-77555104D01*
X120456176Y-77554896D01*
X120235571Y-77646048D01*
X120066641Y-77814683D01*
X119975104Y-78035129D01*
X119974896Y-78273824D01*
X120066048Y-78494429D01*
X120103363Y-78531809D01*
X119812616Y-78337539D01*
X119372530Y-78250000D01*
X119327470Y-78250000D01*
X118887384Y-78337539D01*
X118514297Y-78586827D01*
X118265009Y-78959914D01*
X118177470Y-79400000D01*
X117822530Y-79400000D01*
X117734991Y-78959914D01*
X117485703Y-78586827D01*
X117112616Y-78337539D01*
X116672530Y-78250000D01*
X116627470Y-78250000D01*
X116187384Y-78337539D01*
X115814297Y-78586827D01*
X115565009Y-78959914D01*
X115477470Y-79400000D01*
X115225000Y-79400000D01*
X115225000Y-76860000D01*
X115477470Y-76860000D01*
X115565009Y-77300086D01*
X115814297Y-77673173D01*
X116187384Y-77922461D01*
X116627470Y-78010000D01*
X116672530Y-78010000D01*
X117112616Y-77922461D01*
X117485703Y-77673173D01*
X117734991Y-77300086D01*
X117822530Y-76860000D01*
X117734991Y-76419914D01*
X117485703Y-76046827D01*
X117112616Y-75797539D01*
X116672530Y-75710000D01*
X116627470Y-75710000D01*
X116187384Y-75797539D01*
X115814297Y-76046827D01*
X115565009Y-76419914D01*
X115477470Y-76860000D01*
X115225000Y-76860000D01*
X115225000Y-74320000D01*
X115477470Y-74320000D01*
X115565009Y-74760086D01*
X115814297Y-75133173D01*
X116187384Y-75382461D01*
X116627470Y-75470000D01*
X116672530Y-75470000D01*
X117112616Y-75382461D01*
X117485703Y-75133173D01*
X117734991Y-74760086D01*
X117822530Y-74320000D01*
X118177470Y-74320000D01*
X118265009Y-74760086D01*
X118514297Y-75133173D01*
X118887384Y-75382461D01*
X119327470Y-75470000D01*
X119372530Y-75470000D01*
X119812616Y-75382461D01*
X120148438Y-75158073D01*
X120041641Y-75264683D01*
X119950104Y-75485129D01*
X119949896Y-75723824D01*
X120041048Y-75944429D01*
X120058264Y-75961675D01*
X119812616Y-75797539D01*
X119372530Y-75710000D01*
X119327470Y-75710000D01*
X118887384Y-75797539D01*
X118514297Y-76046827D01*
X118265009Y-76419914D01*
X118177470Y-76860000D01*
X118265009Y-77300086D01*
X118514297Y-77673173D01*
X118887384Y-77922461D01*
X119327470Y-78010000D01*
X119372530Y-78010000D01*
X119812616Y-77922461D01*
X120185703Y-77673173D01*
X120434991Y-77300086D01*
X120522530Y-76860000D01*
X120434991Y-76419914D01*
X120238020Y-76125126D01*
X120430129Y-76204896D01*
X120668824Y-76205104D01*
X120889429Y-76113952D01*
X121058359Y-75945317D01*
X121149896Y-75724871D01*
X121150104Y-75486176D01*
X121093352Y-75348824D01*
X121249896Y-75348824D01*
X121341048Y-75569429D01*
X121509683Y-75738359D01*
X121730129Y-75829896D01*
X121800021Y-75829957D01*
X121799896Y-75973824D01*
X121891048Y-76194429D01*
X122059683Y-76363359D01*
X122280129Y-76454896D01*
X122518824Y-76455104D01*
X122739429Y-76363952D01*
X122908359Y-76195317D01*
X122999896Y-75974871D01*
X123000044Y-75804944D01*
X123061088Y-75743900D01*
X136375000Y-75743900D01*
X136523826Y-75714297D01*
X136649994Y-75629994D01*
X137000031Y-75279957D01*
X137168824Y-75280104D01*
X137389429Y-75188952D01*
X137496969Y-75081600D01*
X138716547Y-75081600D01*
X138560571Y-75146048D01*
X138391641Y-75314683D01*
X138300104Y-75535129D01*
X138299972Y-75687080D01*
X136961854Y-77025198D01*
X127788146Y-77025198D01*
X127699973Y-76937025D01*
X127700104Y-76786176D01*
X127608952Y-76565571D01*
X127440317Y-76396641D01*
X127219871Y-76305104D01*
X126981176Y-76304896D01*
X126760571Y-76396048D01*
X126591641Y-76564683D01*
X126500104Y-76785129D01*
X126499896Y-77023824D01*
X126591048Y-77244429D01*
X126726449Y-77380067D01*
X126616641Y-77489683D01*
X126525104Y-77710129D01*
X126524896Y-77948824D01*
X126616048Y-78169429D01*
X126784683Y-78338359D01*
X127005129Y-78429896D01*
X127243824Y-78430104D01*
X127464429Y-78338952D01*
X127571969Y-78231600D01*
X137286493Y-78231600D01*
X137248404Y-78323329D01*
X137248196Y-78562024D01*
X137339348Y-78782629D01*
X137507983Y-78951559D01*
X137728429Y-79043096D01*
X137967124Y-79043304D01*
X138187729Y-78952152D01*
X138356659Y-78783517D01*
X138448196Y-78563071D01*
X138448404Y-78324376D01*
X138357252Y-78103771D01*
X138188617Y-77934841D01*
X138135262Y-77912686D01*
X138842975Y-77204973D01*
X138993824Y-77205104D01*
X139214429Y-77113952D01*
X139383359Y-76945317D01*
X139402664Y-76898824D01*
X144899896Y-76898824D01*
X144991048Y-77119429D01*
X145159683Y-77288359D01*
X145380129Y-77379896D01*
X145618824Y-77380104D01*
X145839429Y-77288952D01*
X146008359Y-77120317D01*
X146099896Y-76899871D01*
X146099996Y-76785000D01*
X147177470Y-76785000D01*
X147265009Y-77225086D01*
X147514297Y-77598173D01*
X147887384Y-77847461D01*
X148327470Y-77935000D01*
X148372530Y-77935000D01*
X148812616Y-77847461D01*
X149185703Y-77598173D01*
X149434991Y-77225086D01*
X149522530Y-76785000D01*
X149517558Y-76760000D01*
X149877470Y-76760000D01*
X149965009Y-77200086D01*
X150214297Y-77573173D01*
X150587384Y-77822461D01*
X151027470Y-77910000D01*
X151072530Y-77910000D01*
X151512616Y-77822461D01*
X151885703Y-77573173D01*
X152134991Y-77200086D01*
X152222530Y-76760000D01*
X152134991Y-76319914D01*
X151885703Y-75946827D01*
X151512616Y-75697539D01*
X151072530Y-75610000D01*
X151027470Y-75610000D01*
X150587384Y-75697539D01*
X150214297Y-75946827D01*
X149965009Y-76319914D01*
X149877470Y-76760000D01*
X149517558Y-76760000D01*
X149434991Y-76344914D01*
X149185703Y-75971827D01*
X148812616Y-75722539D01*
X148372530Y-75635000D01*
X148327470Y-75635000D01*
X147887384Y-75722539D01*
X147514297Y-75971827D01*
X147265009Y-76344914D01*
X147177470Y-76785000D01*
X146099996Y-76785000D01*
X146100104Y-76661176D01*
X146008952Y-76440571D01*
X145840317Y-76271641D01*
X145619871Y-76180104D01*
X145381176Y-76179896D01*
X145160571Y-76271048D01*
X144991641Y-76439683D01*
X144900104Y-76660129D01*
X144899896Y-76898824D01*
X139402664Y-76898824D01*
X139474896Y-76724871D01*
X139475104Y-76486176D01*
X139383952Y-76265571D01*
X139261007Y-76142411D01*
X139408359Y-75995317D01*
X139499896Y-75774871D01*
X139500104Y-75536176D01*
X139408952Y-75315571D01*
X139240317Y-75146641D01*
X139083681Y-75081600D01*
X142428110Y-75081600D01*
X142534683Y-75188359D01*
X142755129Y-75279896D01*
X142993824Y-75280104D01*
X143214429Y-75188952D01*
X143383359Y-75020317D01*
X143474896Y-74799871D01*
X143475104Y-74561176D01*
X143397692Y-74373824D01*
X145674896Y-74373824D01*
X145766048Y-74594429D01*
X145934683Y-74763359D01*
X146155129Y-74854896D01*
X146393824Y-74855104D01*
X146614429Y-74763952D01*
X146783359Y-74595317D01*
X146874896Y-74374871D01*
X146875009Y-74245000D01*
X147177470Y-74245000D01*
X147265009Y-74685086D01*
X147514297Y-75058173D01*
X147887384Y-75307461D01*
X148327470Y-75395000D01*
X148372530Y-75395000D01*
X148812616Y-75307461D01*
X149185703Y-75058173D01*
X149434991Y-74685086D01*
X149522530Y-74245000D01*
X149517558Y-74220000D01*
X149877470Y-74220000D01*
X149965009Y-74660086D01*
X150214297Y-75033173D01*
X150587384Y-75282461D01*
X151027470Y-75370000D01*
X151072530Y-75370000D01*
X151512616Y-75282461D01*
X151885703Y-75033173D01*
X152134991Y-74660086D01*
X152222530Y-74220000D01*
X152134991Y-73779914D01*
X151885703Y-73406827D01*
X151512616Y-73157539D01*
X151072530Y-73070000D01*
X151027470Y-73070000D01*
X150587384Y-73157539D01*
X150214297Y-73406827D01*
X149965009Y-73779914D01*
X149877470Y-74220000D01*
X149517558Y-74220000D01*
X149434991Y-73804914D01*
X149185703Y-73431827D01*
X148812616Y-73182539D01*
X148372530Y-73095000D01*
X148327470Y-73095000D01*
X147887384Y-73182539D01*
X147514297Y-73431827D01*
X147265009Y-73804914D01*
X147177470Y-74245000D01*
X146875009Y-74245000D01*
X146875104Y-74136176D01*
X146783952Y-73915571D01*
X146615317Y-73746641D01*
X146394871Y-73655104D01*
X146156176Y-73654896D01*
X145935571Y-73746048D01*
X145766641Y-73914683D01*
X145675104Y-74135129D01*
X145674896Y-74373824D01*
X143397692Y-74373824D01*
X143383952Y-74340571D01*
X143215317Y-74171641D01*
X142994871Y-74080104D01*
X142756176Y-74079896D01*
X142749977Y-74082458D01*
X142750104Y-73936176D01*
X142658952Y-73715571D01*
X142490317Y-73546641D01*
X142269871Y-73455104D01*
X142031176Y-73454896D01*
X141810571Y-73546048D01*
X141703031Y-73653400D01*
X138121890Y-73653400D01*
X138015317Y-73546641D01*
X137794871Y-73455104D01*
X137573617Y-73454911D01*
X137658359Y-73370317D01*
X137749896Y-73149871D01*
X137750104Y-72911176D01*
X137658952Y-72690571D01*
X137490317Y-72521641D01*
X137269871Y-72430104D01*
X137031176Y-72429896D01*
X136810571Y-72521048D01*
X136641641Y-72689683D01*
X136550104Y-72910129D01*
X136549896Y-73148824D01*
X136641048Y-73369429D01*
X136809683Y-73538359D01*
X137030129Y-73629896D01*
X137251383Y-73630089D01*
X137215309Y-73666100D01*
X136100000Y-73666100D01*
X135951174Y-73695703D01*
X135825006Y-73780006D01*
X135825004Y-73780009D01*
X135238912Y-74366100D01*
X129277716Y-74366100D01*
X129464429Y-74288952D01*
X129633359Y-74120317D01*
X129724896Y-73899871D01*
X129725104Y-73661176D01*
X129633952Y-73440571D01*
X129465317Y-73271641D01*
X129244871Y-73180104D01*
X129006176Y-73179896D01*
X128785571Y-73271048D01*
X128616641Y-73439683D01*
X128525104Y-73660129D01*
X128524896Y-73898824D01*
X128616048Y-74119429D01*
X128784683Y-74288359D01*
X128971904Y-74366100D01*
X126420491Y-74366100D01*
X126499896Y-74174871D01*
X126500104Y-73936176D01*
X126408952Y-73715571D01*
X126240317Y-73546641D01*
X126019871Y-73455104D01*
X125781176Y-73454896D01*
X125560571Y-73546048D01*
X125391641Y-73714683D01*
X125300104Y-73935129D01*
X125299896Y-74173824D01*
X125379343Y-74366100D01*
X122325000Y-74366100D01*
X122176174Y-74395703D01*
X122050006Y-74480006D01*
X121899969Y-74630043D01*
X121731176Y-74629896D01*
X121510571Y-74721048D01*
X121341641Y-74889683D01*
X121250104Y-75110129D01*
X121249896Y-75348824D01*
X121093352Y-75348824D01*
X121058952Y-75265571D01*
X120890317Y-75096641D01*
X120669871Y-75005104D01*
X120431176Y-75004896D01*
X120210571Y-75096048D01*
X120210385Y-75096234D01*
X120434991Y-74760086D01*
X120522530Y-74320000D01*
X120434991Y-73879914D01*
X120185703Y-73506827D01*
X119812616Y-73257539D01*
X119372530Y-73170000D01*
X119327470Y-73170000D01*
X118887384Y-73257539D01*
X118514297Y-73506827D01*
X118265009Y-73879914D01*
X118177470Y-74320000D01*
X117822530Y-74320000D01*
X117734991Y-73879914D01*
X117485703Y-73506827D01*
X117112616Y-73257539D01*
X116672530Y-73170000D01*
X116627470Y-73170000D01*
X116187384Y-73257539D01*
X115814297Y-73506827D01*
X115565009Y-73879914D01*
X115477470Y-74320000D01*
X115225000Y-74320000D01*
X115225000Y-70930000D01*
X115494123Y-70930000D01*
X115494123Y-72630000D01*
X115515042Y-72741173D01*
X115580745Y-72843279D01*
X115680997Y-72911778D01*
X115800000Y-72935877D01*
X117500000Y-72935877D01*
X117611173Y-72914958D01*
X117713279Y-72849255D01*
X117781778Y-72749003D01*
X117805877Y-72630000D01*
X117805877Y-70930000D01*
X118194123Y-70930000D01*
X118194123Y-72630000D01*
X118215042Y-72741173D01*
X118280745Y-72843279D01*
X118380997Y-72911778D01*
X118500000Y-72935877D01*
X120200000Y-72935877D01*
X120311173Y-72914958D01*
X120413279Y-72849255D01*
X120481778Y-72749003D01*
X120505877Y-72630000D01*
X120505877Y-72098824D01*
X127849896Y-72098824D01*
X127941048Y-72319429D01*
X128109683Y-72488359D01*
X128330129Y-72579896D01*
X128568824Y-72580104D01*
X128789429Y-72488952D01*
X128929802Y-72348824D01*
X129299896Y-72348824D01*
X129391048Y-72569429D01*
X129559683Y-72738359D01*
X129780129Y-72829896D01*
X130018824Y-72830104D01*
X130239429Y-72738952D01*
X130408359Y-72570317D01*
X130499896Y-72349871D01*
X130500104Y-72111176D01*
X130453682Y-71998824D01*
X135124896Y-71998824D01*
X135216048Y-72219429D01*
X135384683Y-72388359D01*
X135605129Y-72479896D01*
X135843824Y-72480104D01*
X136064429Y-72388952D01*
X136233359Y-72220317D01*
X136324896Y-71999871D01*
X136325049Y-71823824D01*
X146074896Y-71823824D01*
X146166048Y-72044429D01*
X146334683Y-72213359D01*
X146555129Y-72304896D01*
X146793824Y-72305104D01*
X147014429Y-72213952D01*
X147183359Y-72045317D01*
X147194123Y-72019394D01*
X147194123Y-72555000D01*
X147215042Y-72666173D01*
X147280745Y-72768279D01*
X147380997Y-72836778D01*
X147500000Y-72860877D01*
X149200000Y-72860877D01*
X149311173Y-72839958D01*
X149413279Y-72774255D01*
X149481778Y-72674003D01*
X149505877Y-72555000D01*
X149505877Y-70855000D01*
X149501173Y-70830000D01*
X149894123Y-70830000D01*
X149894123Y-72530000D01*
X149915042Y-72641173D01*
X149980745Y-72743279D01*
X150080997Y-72811778D01*
X150200000Y-72835877D01*
X151900000Y-72835877D01*
X152011173Y-72814958D01*
X152113279Y-72749255D01*
X152181778Y-72649003D01*
X152205877Y-72530000D01*
X152205877Y-70830000D01*
X152184958Y-70718827D01*
X152119255Y-70616721D01*
X152019003Y-70548222D01*
X151900000Y-70524123D01*
X150200000Y-70524123D01*
X150088827Y-70545042D01*
X149986721Y-70610745D01*
X149918222Y-70710997D01*
X149894123Y-70830000D01*
X149501173Y-70830000D01*
X149484958Y-70743827D01*
X149419255Y-70641721D01*
X149319003Y-70573222D01*
X149200000Y-70549123D01*
X147500000Y-70549123D01*
X147388827Y-70570042D01*
X147286721Y-70635745D01*
X147218222Y-70735997D01*
X147194123Y-70855000D01*
X147194123Y-71390187D01*
X147183952Y-71365571D01*
X147015317Y-71196641D01*
X146794871Y-71105104D01*
X146556176Y-71104896D01*
X146335571Y-71196048D01*
X146166641Y-71364683D01*
X146075104Y-71585129D01*
X146074896Y-71823824D01*
X136325049Y-71823824D01*
X136325104Y-71761176D01*
X136233952Y-71540571D01*
X136065317Y-71371641D01*
X135844871Y-71280104D01*
X135606176Y-71279896D01*
X135385571Y-71371048D01*
X135216641Y-71539683D01*
X135125104Y-71760129D01*
X135124896Y-71998824D01*
X130453682Y-71998824D01*
X130408952Y-71890571D01*
X130240317Y-71721641D01*
X130019871Y-71630104D01*
X129781176Y-71629896D01*
X129560571Y-71721048D01*
X129391641Y-71889683D01*
X129300104Y-72110129D01*
X129299896Y-72348824D01*
X128929802Y-72348824D01*
X128958359Y-72320317D01*
X129049896Y-72099871D01*
X129050104Y-71861176D01*
X128958952Y-71640571D01*
X128790317Y-71471641D01*
X128569871Y-71380104D01*
X128331176Y-71379896D01*
X128110571Y-71471048D01*
X127941641Y-71639683D01*
X127850104Y-71860129D01*
X127849896Y-72098824D01*
X120505877Y-72098824D01*
X120505877Y-70930000D01*
X120484958Y-70818827D01*
X120419255Y-70716721D01*
X120319003Y-70648222D01*
X120200000Y-70624123D01*
X118500000Y-70624123D01*
X118388827Y-70645042D01*
X118286721Y-70710745D01*
X118218222Y-70810997D01*
X118194123Y-70930000D01*
X117805877Y-70930000D01*
X117784958Y-70818827D01*
X117719255Y-70716721D01*
X117619003Y-70648222D01*
X117500000Y-70624123D01*
X115800000Y-70624123D01*
X115688827Y-70645042D01*
X115586721Y-70710745D01*
X115518222Y-70810997D01*
X115494123Y-70930000D01*
X115225000Y-70930000D01*
X115225000Y-70098824D01*
X122174896Y-70098824D01*
X122266048Y-70319429D01*
X122434683Y-70488359D01*
X122655129Y-70579896D01*
X122874999Y-70580088D01*
X122874896Y-70698824D01*
X122966048Y-70919429D01*
X123134683Y-71088359D01*
X123355129Y-71179896D01*
X123593824Y-71180104D01*
X123814429Y-71088952D01*
X123934691Y-70968900D01*
X131225000Y-70968900D01*
X131225000Y-71255000D01*
X131232350Y-71292629D01*
X131254289Y-71325711D01*
X131554289Y-71625711D01*
X131586094Y-71647121D01*
X131625000Y-71655000D01*
X132075000Y-71655000D01*
X132112629Y-71647650D01*
X132145711Y-71625711D01*
X132445711Y-71325711D01*
X132467121Y-71293906D01*
X132475000Y-71255000D01*
X132475000Y-70905000D01*
X132467650Y-70867371D01*
X132445711Y-70834289D01*
X132335246Y-70723824D01*
X139299896Y-70723824D01*
X139391048Y-70944429D01*
X139559683Y-71113359D01*
X139780129Y-71204896D01*
X140018824Y-71205104D01*
X140239429Y-71113952D01*
X140408359Y-70945317D01*
X140499896Y-70724871D01*
X140500104Y-70486176D01*
X140408952Y-70265571D01*
X140240317Y-70096641D01*
X140019871Y-70005104D01*
X139781176Y-70004896D01*
X139560571Y-70096048D01*
X139391641Y-70264683D01*
X139300104Y-70485129D01*
X139299896Y-70723824D01*
X132335246Y-70723824D01*
X132191502Y-70580080D01*
X132218824Y-70580104D01*
X132439429Y-70488952D01*
X132608359Y-70320317D01*
X132699896Y-70099871D01*
X132700104Y-69861176D01*
X132608952Y-69640571D01*
X132440317Y-69471641D01*
X132310628Y-69417790D01*
X132458359Y-69270317D01*
X132549896Y-69049871D01*
X132550104Y-68811176D01*
X132458952Y-68590571D01*
X132290317Y-68421641D01*
X132069871Y-68330104D01*
X131831176Y-68329896D01*
X131610571Y-68421048D01*
X131490309Y-68541100D01*
X124709171Y-68541100D01*
X124708952Y-68540571D01*
X124540317Y-68371641D01*
X124319871Y-68280104D01*
X124081176Y-68279896D01*
X123860571Y-68371048D01*
X123691641Y-68539683D01*
X123600104Y-68760129D01*
X123599896Y-68998824D01*
X123691048Y-69219429D01*
X123859683Y-69388359D01*
X124080129Y-69479896D01*
X124318824Y-69480104D01*
X124539429Y-69388952D01*
X124609604Y-69318900D01*
X128022284Y-69318900D01*
X127835571Y-69396048D01*
X127728031Y-69503400D01*
X123147021Y-69503400D01*
X123115317Y-69471641D01*
X122894871Y-69380104D01*
X122656176Y-69379896D01*
X122435571Y-69471048D01*
X122266641Y-69639683D01*
X122175104Y-69860129D01*
X122174896Y-70098824D01*
X115225000Y-70098824D01*
X115225000Y-67673824D01*
X130149896Y-67673824D01*
X130241048Y-67894429D01*
X130409683Y-68063359D01*
X130630129Y-68154896D01*
X130868824Y-68155104D01*
X131089429Y-68063952D01*
X131209691Y-67943900D01*
X135038912Y-67943900D01*
X135750043Y-68655031D01*
X135749896Y-68823824D01*
X135841048Y-69044429D01*
X136009683Y-69213359D01*
X136230129Y-69304896D01*
X136468824Y-69305104D01*
X136689429Y-69213952D01*
X136858359Y-69045317D01*
X136949896Y-68824871D01*
X136950104Y-68586176D01*
X136858952Y-68365571D01*
X136692497Y-68198824D01*
X139949896Y-68198824D01*
X140041048Y-68419429D01*
X140209683Y-68588359D01*
X140430129Y-68679896D01*
X140668824Y-68680104D01*
X140889429Y-68588952D01*
X141058359Y-68420317D01*
X141149896Y-68199871D01*
X141150104Y-67961176D01*
X141058952Y-67740571D01*
X140890317Y-67571641D01*
X140669871Y-67480104D01*
X140431176Y-67479896D01*
X140210571Y-67571048D01*
X140041641Y-67739683D01*
X139950104Y-67960129D01*
X139949896Y-68198824D01*
X136692497Y-68198824D01*
X136690317Y-68196641D01*
X136469871Y-68105104D01*
X136299944Y-68104956D01*
X135474994Y-67280006D01*
X135377231Y-67214683D01*
X135348826Y-67195703D01*
X135200000Y-67166100D01*
X131209567Y-67166100D01*
X131090317Y-67046641D01*
X130869871Y-66955104D01*
X130631176Y-66954896D01*
X130410571Y-67046048D01*
X130241641Y-67214683D01*
X130150104Y-67435129D01*
X130149896Y-67673824D01*
X115225000Y-67673824D01*
X115225000Y-67123824D01*
X115669096Y-67123824D01*
X115760248Y-67344429D01*
X115928883Y-67513359D01*
X116149329Y-67604896D01*
X116388024Y-67605104D01*
X116608629Y-67513952D01*
X116777559Y-67345317D01*
X116869096Y-67124871D01*
X116869096Y-67123824D01*
X119352096Y-67123824D01*
X119443248Y-67344429D01*
X119611883Y-67513359D01*
X119832329Y-67604896D01*
X120071024Y-67605104D01*
X120291629Y-67513952D01*
X120460559Y-67345317D01*
X120552096Y-67124871D01*
X120552304Y-66886176D01*
X120461152Y-66665571D01*
X120292517Y-66496641D01*
X120177361Y-66448824D01*
X136949896Y-66448824D01*
X137041048Y-66669429D01*
X137209683Y-66838359D01*
X137430129Y-66929896D01*
X137668824Y-66930104D01*
X137889429Y-66838952D01*
X138009691Y-66718900D01*
X144815389Y-66718900D01*
X144909683Y-66813359D01*
X145130129Y-66904896D01*
X145368824Y-66905104D01*
X145589429Y-66813952D01*
X145758359Y-66645317D01*
X145849896Y-66424871D01*
X145850104Y-66186176D01*
X145758952Y-65965571D01*
X145590317Y-65796641D01*
X145369871Y-65705104D01*
X145131176Y-65704896D01*
X144910571Y-65796048D01*
X144765265Y-65941100D01*
X138009567Y-65941100D01*
X137890317Y-65821641D01*
X137669871Y-65730104D01*
X137431176Y-65729896D01*
X137210571Y-65821048D01*
X137041641Y-65989683D01*
X136950104Y-66210129D01*
X136949896Y-66448824D01*
X120177361Y-66448824D01*
X120072071Y-66405104D01*
X119833376Y-66404896D01*
X119612771Y-66496048D01*
X119443841Y-66664683D01*
X119352304Y-66885129D01*
X119352096Y-67123824D01*
X116869096Y-67123824D01*
X116869304Y-66886176D01*
X116778152Y-66665571D01*
X116609517Y-66496641D01*
X116389071Y-66405104D01*
X116150376Y-66404896D01*
X115929771Y-66496048D01*
X115760841Y-66664683D01*
X115669304Y-66885129D01*
X115669096Y-67123824D01*
X115225000Y-67123824D01*
X115225000Y-65223824D01*
X121799896Y-65223824D01*
X121891048Y-65444429D01*
X122059683Y-65613359D01*
X122280129Y-65704896D01*
X122518824Y-65705104D01*
X122739429Y-65613952D01*
X122859691Y-65493900D01*
X126875000Y-65493900D01*
X127023826Y-65464297D01*
X127149994Y-65379994D01*
X127911088Y-64618900D01*
X128051274Y-64618900D01*
X127985571Y-64646048D01*
X127816641Y-64814683D01*
X127725104Y-65035129D01*
X127724896Y-65273824D01*
X127816048Y-65494429D01*
X127984683Y-65663359D01*
X128205129Y-65754896D01*
X128443824Y-65755104D01*
X128664429Y-65663952D01*
X128833359Y-65495317D01*
X128924896Y-65274871D01*
X128925104Y-65036176D01*
X128833952Y-64815571D01*
X128665317Y-64646641D01*
X128598509Y-64618900D01*
X135765433Y-64618900D01*
X135884683Y-64738359D01*
X136105129Y-64829896D01*
X136343824Y-64830104D01*
X136564429Y-64738952D01*
X136733359Y-64570317D01*
X136824896Y-64349871D01*
X136825104Y-64111176D01*
X136733952Y-63890571D01*
X136598174Y-63754555D01*
X147306562Y-63754555D01*
X147397714Y-63975160D01*
X147566349Y-64144090D01*
X147786795Y-64235627D01*
X148025490Y-64235835D01*
X148246095Y-64144683D01*
X148415025Y-63976048D01*
X148506562Y-63755602D01*
X148506673Y-63627555D01*
X150964162Y-63627555D01*
X151055314Y-63848160D01*
X151223949Y-64017090D01*
X151444395Y-64108627D01*
X151683090Y-64108835D01*
X151903695Y-64017683D01*
X152072625Y-63849048D01*
X152164162Y-63628602D01*
X152164370Y-63389907D01*
X152073218Y-63169302D01*
X151904583Y-63000372D01*
X151684137Y-62908835D01*
X151445442Y-62908627D01*
X151224837Y-62999779D01*
X151055907Y-63168414D01*
X150964370Y-63388860D01*
X150964162Y-63627555D01*
X148506673Y-63627555D01*
X148506770Y-63516907D01*
X148415618Y-63296302D01*
X148246983Y-63127372D01*
X148026537Y-63035835D01*
X147787842Y-63035627D01*
X147567237Y-63126779D01*
X147398307Y-63295414D01*
X147306770Y-63515860D01*
X147306562Y-63754555D01*
X136598174Y-63754555D01*
X136565317Y-63721641D01*
X136344871Y-63630104D01*
X136106176Y-63629896D01*
X135885571Y-63721048D01*
X135765309Y-63841100D01*
X127750000Y-63841100D01*
X127601174Y-63870703D01*
X127572769Y-63889683D01*
X127475006Y-63955006D01*
X126713912Y-64716100D01*
X126362540Y-64716100D01*
X126383359Y-64695317D01*
X126474896Y-64474871D01*
X126475104Y-64236176D01*
X126383952Y-64015571D01*
X126215317Y-63846641D01*
X125994871Y-63755104D01*
X125756176Y-63754896D01*
X125535571Y-63846048D01*
X125366641Y-64014683D01*
X125275104Y-64235129D01*
X125274896Y-64473824D01*
X125366048Y-64694429D01*
X125387681Y-64716100D01*
X122859567Y-64716100D01*
X122740317Y-64596641D01*
X122519871Y-64505104D01*
X122281176Y-64504896D01*
X122060571Y-64596048D01*
X121891641Y-64764683D01*
X121800104Y-64985129D01*
X121799896Y-65223824D01*
X115225000Y-65223824D01*
X115225000Y-59623824D01*
X121024896Y-59623824D01*
X121116048Y-59844429D01*
X121284683Y-60013359D01*
X121505129Y-60104896D01*
X121743824Y-60105104D01*
X121964429Y-60013952D01*
X122071969Y-59906600D01*
X132083652Y-59906600D01*
X132325027Y-60147975D01*
X132324896Y-60298824D01*
X132416048Y-60519429D01*
X132584683Y-60688359D01*
X132805129Y-60779896D01*
X133043824Y-60780104D01*
X133264429Y-60688952D01*
X133433359Y-60520317D01*
X133524896Y-60299871D01*
X133525104Y-60061176D01*
X133433952Y-59840571D01*
X133265317Y-59671641D01*
X133044871Y-59580104D01*
X132892920Y-59579972D01*
X132533974Y-59221026D01*
X132403686Y-59133970D01*
X132250000Y-59103400D01*
X122071890Y-59103400D01*
X121965317Y-58996641D01*
X121744871Y-58905104D01*
X121506176Y-58904896D01*
X121285571Y-58996048D01*
X121116641Y-59164683D01*
X121025104Y-59385129D01*
X121024896Y-59623824D01*
X115225000Y-59623824D01*
X115225000Y-57107746D01*
X122299801Y-57107746D01*
X122474509Y-57530572D01*
X122797727Y-57854354D01*
X123220247Y-58029800D01*
X123677746Y-58030199D01*
X124100572Y-57855491D01*
X124424354Y-57532273D01*
X124599800Y-57109753D01*
X124599801Y-57107746D01*
X143099801Y-57107746D01*
X143274509Y-57530572D01*
X143597727Y-57854354D01*
X144020247Y-58029800D01*
X144477746Y-58030199D01*
X144900572Y-57855491D01*
X145224354Y-57532273D01*
X145399800Y-57109753D01*
X145400199Y-56652254D01*
X145225491Y-56229428D01*
X144902273Y-55905646D01*
X144479753Y-55730200D01*
X144022254Y-55729801D01*
X143599428Y-55904509D01*
X143275646Y-56227727D01*
X143100200Y-56650247D01*
X143099801Y-57107746D01*
X124599801Y-57107746D01*
X124600199Y-56652254D01*
X124425491Y-56229428D01*
X124102273Y-55905646D01*
X123679753Y-55730200D01*
X123222254Y-55729801D01*
X122799428Y-55904509D01*
X122475646Y-56227727D01*
X122300200Y-56650247D01*
X122299801Y-57107746D01*
X115225000Y-57107746D01*
X115225000Y-54923824D01*
X134899896Y-54923824D01*
X134991048Y-55144429D01*
X135159683Y-55313359D01*
X135380129Y-55404896D01*
X135618824Y-55405104D01*
X135839429Y-55313952D01*
X135946969Y-55206600D01*
X139628023Y-55206600D01*
X139684683Y-55263359D01*
X139905129Y-55354896D01*
X140143824Y-55355104D01*
X140364429Y-55263952D01*
X140533359Y-55095317D01*
X140624896Y-54874871D01*
X140625104Y-54636176D01*
X140533952Y-54415571D01*
X140365317Y-54246641D01*
X140144871Y-54155104D01*
X139906176Y-54154896D01*
X139685571Y-54246048D01*
X139527944Y-54403400D01*
X135946890Y-54403400D01*
X135840317Y-54296641D01*
X135619871Y-54205104D01*
X135381176Y-54204896D01*
X135160571Y-54296048D01*
X134991641Y-54464683D01*
X134900104Y-54685129D01*
X134899896Y-54923824D01*
X115225000Y-54923824D01*
X115225000Y-53373824D01*
X127724896Y-53373824D01*
X127816048Y-53594429D01*
X127984683Y-53763359D01*
X128205129Y-53854896D01*
X128443824Y-53855104D01*
X128664429Y-53763952D01*
X128833359Y-53595317D01*
X128924896Y-53374871D01*
X128925104Y-53136176D01*
X128833952Y-52915571D01*
X128717409Y-52798824D01*
X129274896Y-52798824D01*
X129366048Y-53019429D01*
X129476449Y-53130023D01*
X129391641Y-53214683D01*
X129300104Y-53435129D01*
X129299896Y-53673824D01*
X129391048Y-53894429D01*
X129559683Y-54063359D01*
X129780129Y-54154896D01*
X130018824Y-54155104D01*
X130239429Y-54063952D01*
X130408359Y-53895317D01*
X130499896Y-53674871D01*
X130500104Y-53436176D01*
X130408952Y-53215571D01*
X130298551Y-53104977D01*
X130383359Y-53020317D01*
X130474896Y-52799871D01*
X130475104Y-52561176D01*
X130383952Y-52340571D01*
X130215317Y-52171641D01*
X129994871Y-52080104D01*
X129756176Y-52079896D01*
X129535571Y-52171048D01*
X129366641Y-52339683D01*
X129275104Y-52560129D01*
X129274896Y-52798824D01*
X128717409Y-52798824D01*
X128665317Y-52746641D01*
X128444871Y-52655104D01*
X128206176Y-52654896D01*
X127985571Y-52746048D01*
X127816641Y-52914683D01*
X127725104Y-53135129D01*
X127724896Y-53373824D01*
X115225000Y-53373824D01*
X115225000Y-51623824D01*
X135024896Y-51623824D01*
X135116048Y-51844429D01*
X135284683Y-52013359D01*
X135505129Y-52104896D01*
X135743824Y-52105104D01*
X135964429Y-52013952D01*
X136071969Y-51906600D01*
X145703067Y-51906600D01*
X145784683Y-51988359D01*
X146005129Y-52079896D01*
X146243824Y-52080104D01*
X146464429Y-51988952D01*
X146633359Y-51820317D01*
X146724896Y-51599871D01*
X146725104Y-51361176D01*
X146633952Y-51140571D01*
X146465317Y-50971641D01*
X146244871Y-50880104D01*
X146006176Y-50879896D01*
X145785571Y-50971048D01*
X145652987Y-51103400D01*
X136071890Y-51103400D01*
X135965317Y-50996641D01*
X135744871Y-50905104D01*
X135506176Y-50904896D01*
X135285571Y-50996048D01*
X135116641Y-51164683D01*
X135025104Y-51385129D01*
X135024896Y-51623824D01*
X115225000Y-51623824D01*
X115225000Y-50107746D01*
X122299801Y-50107746D01*
X122474509Y-50530572D01*
X122797727Y-50854354D01*
X123220247Y-51029800D01*
X123677746Y-51030199D01*
X124100572Y-50855491D01*
X124424354Y-50532273D01*
X124599800Y-50109753D01*
X124599801Y-50107746D01*
X143099801Y-50107746D01*
X143274509Y-50530572D01*
X143597727Y-50854354D01*
X144020247Y-51029800D01*
X144477746Y-51030199D01*
X144900572Y-50855491D01*
X145224354Y-50532273D01*
X145399800Y-50109753D01*
X145400199Y-49652254D01*
X145225491Y-49229428D01*
X144902273Y-48905646D01*
X144479753Y-48730200D01*
X144022254Y-48729801D01*
X143599428Y-48904509D01*
X143275646Y-49227727D01*
X143100200Y-49650247D01*
X143099801Y-50107746D01*
X124599801Y-50107746D01*
X124600199Y-49652254D01*
X124425491Y-49229428D01*
X124102273Y-48905646D01*
X123679753Y-48730200D01*
X123222254Y-48729801D01*
X122799428Y-48904509D01*
X122475646Y-49227727D01*
X122300200Y-49650247D01*
X122299801Y-50107746D01*
X115225000Y-50107746D01*
X115225000Y-48680000D01*
X136975000Y-48680000D01*
X136975000Y-49030000D01*
X136982350Y-49067629D01*
X137004289Y-49100711D01*
X137304289Y-49400711D01*
X137336094Y-49422121D01*
X137375000Y-49430000D01*
X137825000Y-49430000D01*
X137862629Y-49422650D01*
X137895711Y-49400711D01*
X138195711Y-49100711D01*
X138217121Y-49068906D01*
X138225000Y-49030000D01*
X138225000Y-48680000D01*
X138217650Y-48642371D01*
X138195711Y-48609289D01*
X137895711Y-48309289D01*
X137863906Y-48287879D01*
X137825000Y-48280000D01*
X137425000Y-48280000D01*
X137394588Y-48284737D01*
X137359921Y-48304074D01*
X137009921Y-48604074D01*
X136982879Y-48641094D01*
X136975000Y-48680000D01*
X115225000Y-48680000D01*
X115225000Y-46855000D01*
X152475000Y-46855000D01*
X152475000Y-107780000D01*
X152475000Y-107780000D01*
G37*
X152475000Y-107780000D02*
X148850000Y-107780000D01*
X148813654Y-107786839D01*
X148780273Y-107808319D01*
X148757879Y-107841094D01*
X148750000Y-107880000D01*
X148750000Y-120105000D01*
X139273528Y-120105000D01*
X139358359Y-120020317D01*
X139449896Y-119799871D01*
X139450104Y-119561176D01*
X139358952Y-119340571D01*
X139190317Y-119171641D01*
X138969871Y-119080104D01*
X138731176Y-119079896D01*
X138649928Y-119113467D01*
X138650104Y-118911176D01*
X138558952Y-118690571D01*
X138390317Y-118521641D01*
X138169871Y-118430104D01*
X137931176Y-118429896D01*
X137710571Y-118521048D01*
X137541641Y-118689683D01*
X137450104Y-118910129D01*
X137449896Y-119148824D01*
X137541048Y-119369429D01*
X137709683Y-119538359D01*
X137930129Y-119629896D01*
X138168824Y-119630104D01*
X138250072Y-119596533D01*
X138249896Y-119798824D01*
X138341048Y-120019429D01*
X138426470Y-120105000D01*
X115225000Y-120105000D01*
X115225000Y-118507256D01*
X116199757Y-118507256D01*
X116412445Y-119022000D01*
X116805928Y-119416170D01*
X117320301Y-119629757D01*
X117877256Y-119630243D01*
X118392000Y-119417555D01*
X118730144Y-119080000D01*
X123780409Y-119080000D01*
X123856529Y-119462683D01*
X124073302Y-119787107D01*
X124397726Y-120003880D01*
X124780409Y-120080000D01*
X124819591Y-120080000D01*
X125202274Y-120003880D01*
X125526698Y-119787107D01*
X125743471Y-119462683D01*
X125819591Y-119080000D01*
X130380409Y-119080000D01*
X130456529Y-119462683D01*
X130673302Y-119787107D01*
X130997726Y-120003880D01*
X131380409Y-120080000D01*
X131419591Y-120080000D01*
X131802274Y-120003880D01*
X132126698Y-119787107D01*
X132343471Y-119462683D01*
X132405901Y-119148824D01*
X132799896Y-119148824D01*
X132891048Y-119369429D01*
X133059683Y-119538359D01*
X133280129Y-119629896D01*
X133518824Y-119630104D01*
X133739429Y-119538952D01*
X133908359Y-119370317D01*
X133999896Y-119149871D01*
X134000104Y-118911176D01*
X133908952Y-118690571D01*
X133740317Y-118521641D01*
X133519871Y-118430104D01*
X133281176Y-118429896D01*
X133060571Y-118521048D01*
X132891641Y-118689683D01*
X132800104Y-118910129D01*
X132799896Y-119148824D01*
X132405901Y-119148824D01*
X132419591Y-119080000D01*
X132343471Y-118697317D01*
X132126698Y-118372893D01*
X131802274Y-118156120D01*
X131419591Y-118080000D01*
X131380409Y-118080000D01*
X130997726Y-118156120D01*
X130673302Y-118372893D01*
X130456529Y-118697317D01*
X130380409Y-119080000D01*
X125819591Y-119080000D01*
X125743471Y-118697317D01*
X125526698Y-118372893D01*
X125202274Y-118156120D01*
X124819591Y-118080000D01*
X124780409Y-118080000D01*
X124397726Y-118156120D01*
X124073302Y-118372893D01*
X123856529Y-118697317D01*
X123780409Y-119080000D01*
X118730144Y-119080000D01*
X118786170Y-119024072D01*
X118999757Y-118509699D01*
X119000243Y-117952744D01*
X118787555Y-117438000D01*
X118394072Y-117043830D01*
X117879699Y-116830243D01*
X117322744Y-116829757D01*
X116808000Y-117042445D01*
X116413830Y-117435928D01*
X116200243Y-117950301D01*
X116199757Y-118507256D01*
X115225000Y-118507256D01*
X115225000Y-116023824D01*
X121174896Y-116023824D01*
X121266048Y-116244429D01*
X121434683Y-116413359D01*
X121655129Y-116504896D01*
X121893824Y-116505104D01*
X122114429Y-116413952D01*
X122221969Y-116306600D01*
X133874957Y-116306600D01*
X133741641Y-116439683D01*
X133678503Y-116591736D01*
X133469871Y-116505104D01*
X133231176Y-116504896D01*
X133010571Y-116596048D01*
X132841641Y-116764683D01*
X132750104Y-116985129D01*
X132749896Y-117223824D01*
X132841048Y-117444429D01*
X133009683Y-117613359D01*
X133190487Y-117688435D01*
X133666026Y-118163974D01*
X133796314Y-118251030D01*
X133950000Y-118281600D01*
X139528110Y-118281600D01*
X139634683Y-118388359D01*
X139855129Y-118479896D01*
X140093824Y-118480104D01*
X140098807Y-118478045D01*
X140075104Y-118535129D01*
X140074896Y-118773824D01*
X140166048Y-118994429D01*
X140334683Y-119163359D01*
X140555129Y-119254896D01*
X140793824Y-119255104D01*
X141014429Y-119163952D01*
X141183359Y-118995317D01*
X141274896Y-118774871D01*
X141275104Y-118536176D01*
X141263155Y-118507256D01*
X145199757Y-118507256D01*
X145412445Y-119022000D01*
X145805928Y-119416170D01*
X146320301Y-119629757D01*
X146877256Y-119630243D01*
X147392000Y-119417555D01*
X147786170Y-119024072D01*
X147999757Y-118509699D01*
X148000243Y-117952744D01*
X147787555Y-117438000D01*
X147394072Y-117043830D01*
X146879699Y-116830243D01*
X146322744Y-116829757D01*
X145808000Y-117042445D01*
X145413830Y-117435928D01*
X145200243Y-117950301D01*
X145199757Y-118507256D01*
X141263155Y-118507256D01*
X141183952Y-118315571D01*
X141076600Y-118208031D01*
X141076600Y-117680087D01*
X141184683Y-117788359D01*
X141405129Y-117879896D01*
X141643824Y-117880104D01*
X141864429Y-117788952D01*
X142033359Y-117620317D01*
X142124896Y-117399871D01*
X142125104Y-117161176D01*
X142033952Y-116940571D01*
X141865317Y-116771641D01*
X141857265Y-116768297D01*
X141808974Y-116696026D01*
X139108974Y-113996026D01*
X139047730Y-113955104D01*
X138978686Y-113908970D01*
X138825000Y-113878400D01*
X124600000Y-113878400D01*
X124446315Y-113908969D01*
X124316026Y-113996026D01*
X123857025Y-114455027D01*
X123706176Y-114454896D01*
X123485571Y-114546048D01*
X123316641Y-114714683D01*
X123225104Y-114935129D01*
X123224896Y-115173824D01*
X123316048Y-115394429D01*
X123424829Y-115503400D01*
X122221890Y-115503400D01*
X122115317Y-115396641D01*
X121894871Y-115305104D01*
X121656176Y-115304896D01*
X121435571Y-115396048D01*
X121266641Y-115564683D01*
X121175104Y-115785129D01*
X121174896Y-116023824D01*
X115225000Y-116023824D01*
X115225000Y-112398824D01*
X121249896Y-112398824D01*
X121341048Y-112619429D01*
X121509683Y-112788359D01*
X121730129Y-112879896D01*
X121968824Y-112880104D01*
X122189429Y-112788952D01*
X122296969Y-112681600D01*
X132653110Y-112681600D01*
X132759683Y-112788359D01*
X132980129Y-112879896D01*
X133218824Y-112880104D01*
X133439429Y-112788952D01*
X133608359Y-112620317D01*
X133699896Y-112399871D01*
X133699918Y-112373824D01*
X136899896Y-112373824D01*
X136991048Y-112594429D01*
X137159683Y-112763359D01*
X137380129Y-112854896D01*
X137618824Y-112855104D01*
X137725103Y-112811190D01*
X137724896Y-113048824D01*
X137816048Y-113269429D01*
X137984683Y-113438359D01*
X138205129Y-113529896D01*
X138443824Y-113530104D01*
X138664429Y-113438952D01*
X138771969Y-113331600D01*
X140258652Y-113331600D01*
X141425027Y-114497975D01*
X141424896Y-114648824D01*
X141516048Y-114869429D01*
X141684683Y-115038359D01*
X141905129Y-115129896D01*
X142143824Y-115130104D01*
X142364429Y-115038952D01*
X142424979Y-114978507D01*
X142509683Y-115063359D01*
X142730129Y-115154896D01*
X142968824Y-115155104D01*
X143189429Y-115063952D01*
X143358359Y-114895317D01*
X143449896Y-114674871D01*
X143450104Y-114436176D01*
X143358952Y-114215571D01*
X143251600Y-114108031D01*
X143251600Y-114030000D01*
X143221030Y-113876314D01*
X143133974Y-113746026D01*
X141358974Y-111971026D01*
X141312066Y-111939683D01*
X141228686Y-111883970D01*
X141075000Y-111853400D01*
X137946890Y-111853400D01*
X137840317Y-111746641D01*
X137619871Y-111655104D01*
X137381176Y-111654896D01*
X137160571Y-111746048D01*
X136991641Y-111914683D01*
X136900104Y-112135129D01*
X136899896Y-112373824D01*
X133699918Y-112373824D01*
X133700104Y-112161176D01*
X133608952Y-111940571D01*
X133498660Y-111830086D01*
X133518824Y-111830104D01*
X133739429Y-111738952D01*
X133908359Y-111570317D01*
X133999896Y-111349871D01*
X134000104Y-111111176D01*
X133908952Y-110890571D01*
X133740317Y-110721641D01*
X133519871Y-110630104D01*
X133281176Y-110629896D01*
X133173604Y-110674344D01*
X133367975Y-110479973D01*
X133518824Y-110480104D01*
X133739429Y-110388952D01*
X133908359Y-110220317D01*
X133999896Y-109999871D01*
X134000104Y-109761176D01*
X133908952Y-109540571D01*
X133740317Y-109371641D01*
X133519871Y-109280104D01*
X133281176Y-109279896D01*
X133060571Y-109371048D01*
X132891641Y-109539683D01*
X132800104Y-109760129D01*
X132799972Y-109912080D01*
X132483652Y-110228400D01*
X123996890Y-110228400D01*
X123890317Y-110121641D01*
X123669871Y-110030104D01*
X123431176Y-110029896D01*
X123210571Y-110121048D01*
X123041641Y-110289683D01*
X122950104Y-110510129D01*
X122949896Y-110748824D01*
X123041048Y-110969429D01*
X123209683Y-111138359D01*
X123430129Y-111229896D01*
X123668824Y-111230104D01*
X123889429Y-111138952D01*
X123996969Y-111031600D01*
X132650000Y-111031600D01*
X132803686Y-111001030D01*
X132861426Y-110962449D01*
X132800104Y-111110129D01*
X132799896Y-111348824D01*
X132891048Y-111569429D01*
X133001340Y-111679914D01*
X132981176Y-111679896D01*
X132760571Y-111771048D01*
X132653031Y-111878400D01*
X122296890Y-111878400D01*
X122190317Y-111771641D01*
X121969871Y-111680104D01*
X121731176Y-111679896D01*
X121510571Y-111771048D01*
X121341641Y-111939683D01*
X121250104Y-112160129D01*
X121249896Y-112398824D01*
X115225000Y-112398824D01*
X115225000Y-108948824D01*
X124549896Y-108948824D01*
X124641048Y-109169429D01*
X124809683Y-109338359D01*
X125030129Y-109429896D01*
X125268824Y-109430104D01*
X125489429Y-109338952D01*
X125658359Y-109170317D01*
X125749896Y-108949871D01*
X125750104Y-108711176D01*
X125724341Y-108648824D01*
X128849896Y-108648824D01*
X128941048Y-108869429D01*
X129109683Y-109038359D01*
X129330129Y-109129896D01*
X129568824Y-109130104D01*
X129789429Y-109038952D01*
X129807913Y-109020500D01*
X134746828Y-109020500D01*
X136103164Y-110376836D01*
X136262293Y-110483163D01*
X136450000Y-110520500D01*
X141091855Y-110520500D01*
X141109683Y-110538359D01*
X141330129Y-110629896D01*
X141568824Y-110630104D01*
X141789429Y-110538952D01*
X141958359Y-110370317D01*
X142049896Y-110149871D01*
X142050104Y-109911176D01*
X141958952Y-109690571D01*
X141790317Y-109521641D01*
X141569871Y-109430104D01*
X141331176Y-109429896D01*
X141110571Y-109521048D01*
X141092087Y-109539500D01*
X136653172Y-109539500D01*
X135296836Y-108183164D01*
X135137706Y-108076837D01*
X134950000Y-108039500D01*
X129808145Y-108039500D01*
X129790317Y-108021641D01*
X129569871Y-107930104D01*
X129331176Y-107929896D01*
X129110571Y-108021048D01*
X128941641Y-108189683D01*
X128850104Y-108410129D01*
X128849896Y-108648824D01*
X125724341Y-108648824D01*
X125658952Y-108490571D01*
X125490317Y-108321641D01*
X125269871Y-108230104D01*
X125031176Y-108229896D01*
X124810571Y-108321048D01*
X124641641Y-108489683D01*
X124550104Y-108710129D01*
X124549896Y-108948824D01*
X115225000Y-108948824D01*
X115225000Y-107248824D01*
X121699896Y-107248824D01*
X121791048Y-107469429D01*
X121959683Y-107638359D01*
X122180129Y-107729896D01*
X122418824Y-107730104D01*
X122639429Y-107638952D01*
X122657913Y-107620500D01*
X135408083Y-107620500D01*
X135350104Y-107760129D01*
X135349896Y-107998824D01*
X135441048Y-108219429D01*
X135609683Y-108388359D01*
X135830129Y-108479896D01*
X136068824Y-108480104D01*
X136289429Y-108388952D01*
X136458359Y-108220317D01*
X136549896Y-107999871D01*
X136550104Y-107761176D01*
X136491978Y-107620500D01*
X145046828Y-107620500D01*
X146399918Y-108973590D01*
X146399896Y-108998824D01*
X146491048Y-109219429D01*
X146659683Y-109388359D01*
X146880129Y-109479896D01*
X147118824Y-109480104D01*
X147339429Y-109388952D01*
X147508359Y-109220317D01*
X147599896Y-108999871D01*
X147600104Y-108761176D01*
X147508952Y-108540571D01*
X147340317Y-108371641D01*
X147119871Y-108280104D01*
X147093753Y-108280081D01*
X145596836Y-106783164D01*
X145437706Y-106676837D01*
X145250000Y-106639500D01*
X122658145Y-106639500D01*
X122640317Y-106621641D01*
X122419871Y-106530104D01*
X122181176Y-106529896D01*
X121960571Y-106621048D01*
X121791641Y-106789683D01*
X121700104Y-107010129D01*
X121699896Y-107248824D01*
X115225000Y-107248824D01*
X115225000Y-106148824D01*
X122749896Y-106148824D01*
X122841048Y-106369429D01*
X123009683Y-106538359D01*
X123230129Y-106629896D01*
X123468824Y-106630104D01*
X123689429Y-106538952D01*
X123796969Y-106431600D01*
X137225000Y-106431600D01*
X137378686Y-106401030D01*
X137508974Y-106313974D01*
X137867845Y-105955103D01*
X137868824Y-105955104D01*
X138089429Y-105863952D01*
X138258359Y-105695317D01*
X138349896Y-105474871D01*
X138350104Y-105236176D01*
X138258952Y-105015571D01*
X138090317Y-104846641D01*
X137869871Y-104755104D01*
X137631176Y-104754896D01*
X137410571Y-104846048D01*
X137241641Y-105014683D01*
X137150104Y-105235129D01*
X137149896Y-105473824D01*
X137168413Y-105518639D01*
X137058652Y-105628400D01*
X136836145Y-105628400D01*
X136899896Y-105474871D01*
X136900104Y-105236176D01*
X136808952Y-105015571D01*
X136640317Y-104846641D01*
X136419871Y-104755104D01*
X136267920Y-104754972D01*
X136058974Y-104546026D01*
X135928686Y-104458970D01*
X135775000Y-104428400D01*
X124646890Y-104428400D01*
X124540317Y-104321641D01*
X124319871Y-104230104D01*
X124081176Y-104229896D01*
X123860571Y-104321048D01*
X123691641Y-104489683D01*
X123600104Y-104710129D01*
X123599896Y-104948824D01*
X123691048Y-105169429D01*
X123859683Y-105338359D01*
X124080129Y-105429896D01*
X124318824Y-105430104D01*
X124539429Y-105338952D01*
X124646969Y-105231600D01*
X135608652Y-105231600D01*
X135700027Y-105322975D01*
X135699896Y-105473824D01*
X135763765Y-105628400D01*
X123796890Y-105628400D01*
X123690317Y-105521641D01*
X123469871Y-105430104D01*
X123231176Y-105429896D01*
X123010571Y-105521048D01*
X122841641Y-105689683D01*
X122750104Y-105910129D01*
X122749896Y-106148824D01*
X115225000Y-106148824D01*
X115225000Y-103148824D01*
X121674896Y-103148824D01*
X121766048Y-103369429D01*
X121934683Y-103538359D01*
X122155129Y-103629896D01*
X122393824Y-103630104D01*
X122614429Y-103538952D01*
X122783359Y-103370317D01*
X122874896Y-103149871D01*
X122875104Y-102911176D01*
X122870001Y-102898824D01*
X126774896Y-102898824D01*
X126866048Y-103119429D01*
X127034683Y-103288359D01*
X127255129Y-103379896D01*
X127493824Y-103380104D01*
X127714429Y-103288952D01*
X127821969Y-103181600D01*
X127899911Y-103181600D01*
X127899896Y-103198824D01*
X127991048Y-103419429D01*
X128159683Y-103588359D01*
X128380129Y-103679896D01*
X128618824Y-103680104D01*
X128839429Y-103588952D01*
X129008359Y-103420317D01*
X129099896Y-103199871D01*
X129100028Y-103047920D01*
X129216348Y-102931600D01*
X132468093Y-102931600D01*
X132425104Y-103035129D01*
X132424896Y-103273824D01*
X132516048Y-103494429D01*
X132684683Y-103663359D01*
X132905129Y-103754896D01*
X133143824Y-103755104D01*
X133364429Y-103663952D01*
X133533359Y-103495317D01*
X133624896Y-103274871D01*
X133625104Y-103036176D01*
X133581894Y-102931600D01*
X136813819Y-102931600D01*
X136930129Y-102979896D01*
X137168824Y-102980104D01*
X137389429Y-102888952D01*
X137558359Y-102720317D01*
X137649896Y-102499871D01*
X137650104Y-102261176D01*
X137558952Y-102040571D01*
X137390317Y-101871641D01*
X137169871Y-101780104D01*
X136931176Y-101779896D01*
X136900098Y-101792737D01*
X136900104Y-101786176D01*
X136808952Y-101565571D01*
X136640317Y-101396641D01*
X136419871Y-101305104D01*
X136181176Y-101304896D01*
X135960571Y-101396048D01*
X135853031Y-101503400D01*
X128250000Y-101503400D01*
X128096314Y-101533970D01*
X127966026Y-101621026D01*
X127407025Y-102180027D01*
X127256176Y-102179896D01*
X127035571Y-102271048D01*
X126866641Y-102439683D01*
X126775104Y-102660129D01*
X126774896Y-102898824D01*
X122870001Y-102898824D01*
X122783952Y-102690571D01*
X122615317Y-102521641D01*
X122394871Y-102430104D01*
X122156176Y-102429896D01*
X121935571Y-102521048D01*
X121766641Y-102689683D01*
X121675104Y-102910129D01*
X121674896Y-103148824D01*
X115225000Y-103148824D01*
X115225000Y-101048824D01*
X118049896Y-101048824D01*
X118141048Y-101269429D01*
X118309683Y-101438359D01*
X118530129Y-101529896D01*
X118768824Y-101530104D01*
X118989429Y-101438952D01*
X119158359Y-101270317D01*
X119249896Y-101049871D01*
X119250104Y-100811176D01*
X119158952Y-100590571D01*
X119112581Y-100544118D01*
X122849922Y-100544118D01*
X122918286Y-100709572D01*
X123044763Y-100836269D01*
X123210097Y-100904922D01*
X123389118Y-100905078D01*
X123554572Y-100836714D01*
X123587447Y-100803896D01*
X123619763Y-100836269D01*
X123785097Y-100904922D01*
X123964118Y-100905078D01*
X124081444Y-100856600D01*
X126375000Y-100856600D01*
X126528686Y-100826030D01*
X126658974Y-100738974D01*
X127241348Y-100156600D01*
X139534616Y-100156600D01*
X139450104Y-100360129D01*
X139449896Y-100598824D01*
X139541048Y-100819429D01*
X139709683Y-100988359D01*
X139930129Y-101079896D01*
X140168824Y-101080104D01*
X140389429Y-100988952D01*
X140558359Y-100820317D01*
X140612520Y-100689882D01*
X140666048Y-100819429D01*
X140834683Y-100988359D01*
X141055129Y-101079896D01*
X141293824Y-101080104D01*
X141514429Y-100988952D01*
X141683359Y-100820317D01*
X141774896Y-100599871D01*
X141775104Y-100361176D01*
X141690575Y-100156600D01*
X145749933Y-100156600D01*
X145749896Y-100198824D01*
X145841048Y-100419429D01*
X146009683Y-100588359D01*
X146230129Y-100679896D01*
X146468824Y-100680104D01*
X146689429Y-100588952D01*
X146858359Y-100420317D01*
X146949896Y-100199871D01*
X146950104Y-99961176D01*
X146858952Y-99740571D01*
X146690317Y-99571641D01*
X146469871Y-99480104D01*
X146317920Y-99479972D01*
X146308974Y-99471026D01*
X146247730Y-99430104D01*
X146178686Y-99383970D01*
X146025000Y-99353400D01*
X138304462Y-99353400D01*
X138339429Y-99338952D01*
X138508359Y-99170317D01*
X138599896Y-98949871D01*
X138600104Y-98711176D01*
X138508952Y-98490571D01*
X138340317Y-98321641D01*
X138119871Y-98230104D01*
X137881176Y-98229896D01*
X137660571Y-98321048D01*
X137491641Y-98489683D01*
X137400104Y-98710129D01*
X137399896Y-98948824D01*
X137491048Y-99169429D01*
X137659683Y-99338359D01*
X137695906Y-99353400D01*
X127459976Y-99353400D01*
X128264552Y-98548824D01*
X129799896Y-98548824D01*
X129891048Y-98769429D01*
X130059683Y-98938359D01*
X130280129Y-99029896D01*
X130518824Y-99030104D01*
X130739429Y-98938952D01*
X130908359Y-98770317D01*
X130999896Y-98549871D01*
X131000104Y-98311176D01*
X130908952Y-98090571D01*
X130740317Y-97921641D01*
X130519871Y-97830104D01*
X130281176Y-97829896D01*
X130060571Y-97921048D01*
X129891641Y-98089683D01*
X129800104Y-98310129D01*
X129799896Y-98548824D01*
X128264552Y-98548824D01*
X129256776Y-97556600D01*
X132343725Y-97556600D01*
X132460097Y-97604922D01*
X132639118Y-97605078D01*
X132804572Y-97536714D01*
X132931269Y-97410237D01*
X132999922Y-97244903D01*
X132999962Y-97198824D01*
X138474896Y-97198824D01*
X138566048Y-97419429D01*
X138734683Y-97588359D01*
X138955129Y-97679896D01*
X139193824Y-97680104D01*
X139414429Y-97588952D01*
X139583359Y-97420317D01*
X139674896Y-97199871D01*
X139675104Y-96961176D01*
X139583952Y-96740571D01*
X139415317Y-96571641D01*
X139194871Y-96480104D01*
X138956176Y-96479896D01*
X138735571Y-96571048D01*
X138566641Y-96739683D01*
X138475104Y-96960129D01*
X138474896Y-97198824D01*
X132999962Y-97198824D01*
X133000078Y-97065882D01*
X132931714Y-96900428D01*
X132805237Y-96773731D01*
X132639903Y-96705078D01*
X132460882Y-96704922D01*
X132343556Y-96753400D01*
X129489762Y-96753400D01*
X129619338Y-96623824D01*
X133999896Y-96623824D01*
X134091048Y-96844429D01*
X134259683Y-97013359D01*
X134480129Y-97104896D01*
X134718824Y-97105104D01*
X134939429Y-97013952D01*
X135100089Y-96853573D01*
X135209683Y-96963359D01*
X135430129Y-97054896D01*
X135668824Y-97055104D01*
X135889429Y-96963952D01*
X136058359Y-96795317D01*
X136149896Y-96574871D01*
X136150104Y-96336176D01*
X136072692Y-96148824D01*
X140749896Y-96148824D01*
X140841048Y-96369429D01*
X141009683Y-96538359D01*
X141230129Y-96629896D01*
X141468824Y-96630104D01*
X141689429Y-96538952D01*
X141858359Y-96370317D01*
X141949896Y-96149871D01*
X141950104Y-95911176D01*
X141858952Y-95690571D01*
X141690317Y-95521641D01*
X141469871Y-95430104D01*
X141231176Y-95429896D01*
X141010571Y-95521048D01*
X140841641Y-95689683D01*
X140750104Y-95910129D01*
X140749896Y-96148824D01*
X136072692Y-96148824D01*
X136058952Y-96115571D01*
X135975905Y-96032379D01*
X135931714Y-95925428D01*
X135805237Y-95798731D01*
X135639903Y-95730078D01*
X135460882Y-95729922D01*
X135295428Y-95798286D01*
X135168731Y-95924763D01*
X135124013Y-96032454D01*
X135050043Y-96106296D01*
X135050078Y-96065882D01*
X134981714Y-95900428D01*
X134855237Y-95773731D01*
X134689903Y-95705078D01*
X134510882Y-95704922D01*
X134345428Y-95773286D01*
X134218731Y-95899763D01*
X134150078Y-96065097D01*
X134150042Y-96106384D01*
X134091641Y-96164683D01*
X134000104Y-96385129D01*
X133999896Y-96623824D01*
X129619338Y-96623824D01*
X129686562Y-96556600D01*
X132368725Y-96556600D01*
X132485097Y-96604922D01*
X132664118Y-96605078D01*
X132829572Y-96536714D01*
X132956269Y-96410237D01*
X133024922Y-96244903D01*
X133025078Y-96065882D01*
X133010913Y-96031600D01*
X133100000Y-96031600D01*
X133253686Y-96001030D01*
X133383974Y-95913974D01*
X133713115Y-95584833D01*
X133829572Y-95536714D01*
X133956269Y-95410237D01*
X134024922Y-95244903D01*
X134025078Y-95065882D01*
X133956714Y-94900428D01*
X133830237Y-94773731D01*
X133817778Y-94768558D01*
X133889429Y-94738952D01*
X134058359Y-94570317D01*
X134067283Y-94548824D01*
X135874896Y-94548824D01*
X135966048Y-94769429D01*
X136134683Y-94938359D01*
X136355129Y-95029896D01*
X136593824Y-95030104D01*
X136814429Y-94938952D01*
X136983359Y-94770317D01*
X137033169Y-94650361D01*
X137041048Y-94669429D01*
X137209683Y-94838359D01*
X137430129Y-94929896D01*
X137668824Y-94930104D01*
X137889429Y-94838952D01*
X138058359Y-94670317D01*
X138149896Y-94449871D01*
X138150104Y-94211176D01*
X138058952Y-93990571D01*
X137967366Y-93898824D01*
X140774896Y-93898824D01*
X140866048Y-94119429D01*
X141034683Y-94288359D01*
X141255129Y-94379896D01*
X141493824Y-94380104D01*
X141714429Y-94288952D01*
X141883359Y-94120317D01*
X141974896Y-93899871D01*
X141975104Y-93661176D01*
X141883952Y-93440571D01*
X141715317Y-93271641D01*
X141494871Y-93180104D01*
X141256176Y-93179896D01*
X141035571Y-93271048D01*
X140866641Y-93439683D01*
X140775104Y-93660129D01*
X140774896Y-93898824D01*
X137967366Y-93898824D01*
X137890317Y-93821641D01*
X137669871Y-93730104D01*
X137664955Y-93730100D01*
X137664903Y-93730078D01*
X137485882Y-93729922D01*
X137485830Y-93729944D01*
X137431176Y-93729896D01*
X137210571Y-93821048D01*
X137041641Y-93989683D01*
X137012380Y-94060151D01*
X136956714Y-93925428D01*
X136830237Y-93798731D01*
X136664903Y-93730078D01*
X136485882Y-93729922D01*
X136320428Y-93798286D01*
X136241154Y-93877422D01*
X136135571Y-93921048D01*
X135966641Y-94089683D01*
X135875104Y-94310129D01*
X135874896Y-94548824D01*
X134067283Y-94548824D01*
X134149896Y-94349871D01*
X134150104Y-94111176D01*
X134058952Y-93890571D01*
X133890317Y-93721641D01*
X133850415Y-93705072D01*
X133889429Y-93688952D01*
X134000776Y-93577800D01*
X134002218Y-93576836D01*
X134003173Y-93575406D01*
X134058359Y-93520317D01*
X134088525Y-93447669D01*
X134108545Y-93417707D01*
X134115514Y-93382673D01*
X134149896Y-93299871D01*
X134150104Y-93061176D01*
X134112637Y-92970500D01*
X135491855Y-92970500D01*
X135509683Y-92988359D01*
X135730129Y-93079896D01*
X135968824Y-93080104D01*
X136189429Y-92988952D01*
X136358359Y-92820317D01*
X136449896Y-92599871D01*
X136450062Y-92409802D01*
X138608287Y-92409802D01*
X138525104Y-92610129D01*
X138524896Y-92848824D01*
X138616048Y-93069429D01*
X138784683Y-93238359D01*
X139005129Y-93329896D01*
X139243824Y-93330104D01*
X139464429Y-93238952D01*
X139633359Y-93070317D01*
X139724896Y-92849871D01*
X139725104Y-92611176D01*
X139641898Y-92409802D01*
X140112226Y-92409802D01*
X140265912Y-92379232D01*
X140396200Y-92292176D01*
X140681776Y-92006600D01*
X140853110Y-92006600D01*
X140959683Y-92113359D01*
X141180129Y-92204896D01*
X141418824Y-92205104D01*
X141639429Y-92113952D01*
X141808359Y-91945317D01*
X141899896Y-91724871D01*
X141900005Y-91598824D01*
X149049896Y-91598824D01*
X149141048Y-91819429D01*
X149309683Y-91988359D01*
X149530129Y-92079896D01*
X149768824Y-92080104D01*
X149989429Y-91988952D01*
X150158359Y-91820317D01*
X150249896Y-91599871D01*
X150250104Y-91361176D01*
X150158952Y-91140571D01*
X149990317Y-90971641D01*
X149769871Y-90880104D01*
X149531176Y-90879896D01*
X149310571Y-90971048D01*
X149141641Y-91139683D01*
X149050104Y-91360129D01*
X149049896Y-91598824D01*
X141900005Y-91598824D01*
X141900104Y-91486176D01*
X141808952Y-91265571D01*
X141640317Y-91096641D01*
X141582706Y-91072719D01*
X141664429Y-91038952D01*
X141833359Y-90870317D01*
X141924896Y-90649871D01*
X141925104Y-90411176D01*
X141878682Y-90298824D01*
X149049896Y-90298824D01*
X149141048Y-90519429D01*
X149309683Y-90688359D01*
X149530129Y-90779896D01*
X149768824Y-90780104D01*
X149989429Y-90688952D01*
X150158359Y-90520317D01*
X150249896Y-90299871D01*
X150250104Y-90061176D01*
X150158952Y-89840571D01*
X149990317Y-89671641D01*
X149769871Y-89580104D01*
X149531176Y-89579896D01*
X149310571Y-89671048D01*
X149141641Y-89839683D01*
X149050104Y-90060129D01*
X149049896Y-90298824D01*
X141878682Y-90298824D01*
X141833952Y-90190571D01*
X141665317Y-90021641D01*
X141570299Y-89982186D01*
X141614429Y-89963952D01*
X141783359Y-89795317D01*
X141874896Y-89574871D01*
X141875104Y-89336176D01*
X141821564Y-89206600D01*
X145053110Y-89206600D01*
X145159683Y-89313359D01*
X145380129Y-89404896D01*
X145618824Y-89405104D01*
X145839429Y-89313952D01*
X146008359Y-89145317D01*
X146099896Y-88924871D01*
X146100104Y-88686176D01*
X146008952Y-88465571D01*
X145840317Y-88296641D01*
X145619871Y-88205104D01*
X145399979Y-88204912D01*
X145400104Y-88061176D01*
X145325905Y-87881600D01*
X145678109Y-87881600D01*
X145766048Y-88094429D01*
X145934683Y-88263359D01*
X146155129Y-88354896D01*
X146393824Y-88355104D01*
X146614429Y-88263952D01*
X146783359Y-88095317D01*
X146874896Y-87874871D01*
X146875104Y-87636176D01*
X146783952Y-87415571D01*
X146774997Y-87406600D01*
X149353110Y-87406600D01*
X149459683Y-87513359D01*
X149680129Y-87604896D01*
X149918824Y-87605104D01*
X150139429Y-87513952D01*
X150308359Y-87345317D01*
X150399896Y-87124871D01*
X150400104Y-86886176D01*
X150308952Y-86665571D01*
X150140317Y-86496641D01*
X149919871Y-86405104D01*
X149681176Y-86404896D01*
X149460571Y-86496048D01*
X149353031Y-86603400D01*
X147515384Y-86603400D01*
X147599896Y-86399871D01*
X147600104Y-86161176D01*
X147508952Y-85940571D01*
X147340317Y-85771641D01*
X147119871Y-85680104D01*
X146881176Y-85679896D01*
X146660571Y-85771048D01*
X146527987Y-85903400D01*
X144686145Y-85903400D01*
X144749896Y-85749871D01*
X144750104Y-85511176D01*
X144658952Y-85290571D01*
X144490317Y-85121641D01*
X144269871Y-85030104D01*
X144099979Y-85029956D01*
X144100104Y-84886176D01*
X144036235Y-84731600D01*
X147242435Y-84731600D01*
X147265009Y-84845086D01*
X147514297Y-85218173D01*
X147887384Y-85467461D01*
X148327470Y-85555000D01*
X148372530Y-85555000D01*
X148812616Y-85467461D01*
X149185703Y-85218173D01*
X149434991Y-84845086D01*
X149462554Y-84706516D01*
X149947328Y-84706516D01*
X150039400Y-84928835D01*
X150326357Y-85273797D01*
X150723482Y-85482687D01*
X150900000Y-85445190D01*
X150900000Y-84530000D01*
X151200000Y-84530000D01*
X151200000Y-85445190D01*
X151376518Y-85482687D01*
X151773643Y-85273797D01*
X152060600Y-84928835D01*
X152152672Y-84706516D01*
X152114483Y-84530000D01*
X151200000Y-84530000D01*
X150900000Y-84530000D01*
X149985517Y-84530000D01*
X149947328Y-84706516D01*
X149462554Y-84706516D01*
X149522530Y-84405000D01*
X149452609Y-84053484D01*
X149947328Y-84053484D01*
X149985517Y-84230000D01*
X150900000Y-84230000D01*
X150900000Y-83314810D01*
X151200000Y-83314810D01*
X151200000Y-84230000D01*
X152114483Y-84230000D01*
X152152672Y-84053484D01*
X152060600Y-83831165D01*
X151773643Y-83486203D01*
X151376518Y-83277313D01*
X151200000Y-83314810D01*
X150900000Y-83314810D01*
X150723482Y-83277313D01*
X150326357Y-83486203D01*
X150039400Y-83831165D01*
X149947328Y-84053484D01*
X149452609Y-84053484D01*
X149434991Y-83964914D01*
X149185703Y-83591827D01*
X148812616Y-83342539D01*
X148372530Y-83255000D01*
X148327470Y-83255000D01*
X147887384Y-83342539D01*
X147514297Y-83591827D01*
X147289407Y-83928400D01*
X138625764Y-83928400D01*
X138699896Y-83749871D01*
X138700104Y-83511176D01*
X138608952Y-83290571D01*
X138440317Y-83121641D01*
X138219871Y-83030104D01*
X137981176Y-83029896D01*
X137760571Y-83121048D01*
X137591641Y-83289683D01*
X137500104Y-83510129D01*
X137499896Y-83748824D01*
X137591048Y-83969429D01*
X137701493Y-84080067D01*
X137566641Y-84214683D01*
X137475104Y-84435129D01*
X137474896Y-84673824D01*
X137537442Y-84825198D01*
X134528202Y-84825198D01*
X134374516Y-84855768D01*
X134244228Y-84942824D01*
X133599929Y-85587123D01*
X133600104Y-85386176D01*
X133508952Y-85165571D01*
X133340317Y-84996641D01*
X133119871Y-84905104D01*
X132881176Y-84904896D01*
X132660571Y-84996048D01*
X132491641Y-85164683D01*
X132400104Y-85385129D01*
X132399972Y-85537080D01*
X131158652Y-86778400D01*
X128781275Y-86778400D01*
X128664903Y-86730078D01*
X128485882Y-86729922D01*
X128320428Y-86798286D01*
X128193731Y-86924763D01*
X128125078Y-87090097D01*
X128124922Y-87269118D01*
X128193286Y-87434572D01*
X128319763Y-87561269D01*
X128485097Y-87629922D01*
X128664118Y-87630078D01*
X128781444Y-87581600D01*
X130452052Y-87581600D01*
X130235571Y-87671048D01*
X130066641Y-87839683D01*
X129975104Y-88060129D01*
X129974896Y-88298824D01*
X130066048Y-88519429D01*
X130234683Y-88688359D01*
X130455129Y-88779896D01*
X130693824Y-88780104D01*
X130914429Y-88688952D01*
X131083359Y-88520317D01*
X131174896Y-88299871D01*
X131175104Y-88061176D01*
X131083952Y-87840571D01*
X130915317Y-87671641D01*
X130698474Y-87581600D01*
X131325000Y-87581600D01*
X131478686Y-87551030D01*
X131608974Y-87463974D01*
X132967975Y-86104973D01*
X133081980Y-86105072D01*
X132461885Y-86725167D01*
X132345428Y-86773286D01*
X132218731Y-86899763D01*
X132150078Y-87065097D01*
X132149922Y-87244118D01*
X132218286Y-87409572D01*
X132344763Y-87536269D01*
X132510097Y-87604922D01*
X132557089Y-87604963D01*
X132461885Y-87700167D01*
X132345428Y-87748286D01*
X132218731Y-87874763D01*
X132150078Y-88040097D01*
X132149922Y-88219118D01*
X132218286Y-88384572D01*
X132344763Y-88511269D01*
X132510097Y-88579922D01*
X132689118Y-88580078D01*
X132854572Y-88511714D01*
X132981269Y-88385237D01*
X133029952Y-88267996D01*
X135266348Y-86031600D01*
X137130452Y-86031600D01*
X135436885Y-87725167D01*
X135320428Y-87773286D01*
X135193731Y-87899763D01*
X135125078Y-88065097D01*
X135124922Y-88244118D01*
X135193286Y-88409572D01*
X135319763Y-88536269D01*
X135485097Y-88604922D01*
X135664118Y-88605078D01*
X135829572Y-88536714D01*
X135956269Y-88410237D01*
X136004952Y-88292996D01*
X137591348Y-86706600D01*
X139949236Y-86706600D01*
X139875104Y-86885129D01*
X139874896Y-87123824D01*
X139938765Y-87278400D01*
X137300000Y-87278400D01*
X137146314Y-87308970D01*
X137016026Y-87396026D01*
X135715290Y-88696762D01*
X135614903Y-88655078D01*
X135435882Y-88654922D01*
X135270428Y-88723286D01*
X135143731Y-88849763D01*
X135075078Y-89015097D01*
X135074922Y-89194118D01*
X135143286Y-89359572D01*
X135269763Y-89486269D01*
X135435097Y-89554922D01*
X135614118Y-89555078D01*
X135731444Y-89506600D01*
X135875000Y-89506600D01*
X136028686Y-89476030D01*
X136158974Y-89388974D01*
X136177231Y-89370717D01*
X136193286Y-89409572D01*
X136313429Y-89529924D01*
X136310882Y-89529922D01*
X136145428Y-89598286D01*
X136018731Y-89724763D01*
X135950078Y-89890097D01*
X135949922Y-90069118D01*
X136018286Y-90234572D01*
X136144763Y-90361269D01*
X136262004Y-90409952D01*
X136582058Y-90730006D01*
X136485882Y-90729922D01*
X136320428Y-90798286D01*
X136193731Y-90924763D01*
X136125078Y-91090097D01*
X136125037Y-91137089D01*
X136004833Y-91016885D01*
X135956714Y-90900428D01*
X135830237Y-90773731D01*
X135664903Y-90705078D01*
X135485882Y-90704922D01*
X135320428Y-90773286D01*
X135193731Y-90899763D01*
X135125078Y-91065097D01*
X135124922Y-91244118D01*
X135193286Y-91409572D01*
X135319763Y-91536269D01*
X135437004Y-91584952D01*
X135731949Y-91879897D01*
X135731176Y-91879896D01*
X135510571Y-91971048D01*
X135492087Y-91989500D01*
X134103172Y-91989500D01*
X133946836Y-91833164D01*
X133787706Y-91726837D01*
X133600000Y-91689500D01*
X133412294Y-91726837D01*
X133253164Y-91833164D01*
X133146837Y-91992294D01*
X133109500Y-92180000D01*
X133146837Y-92367706D01*
X133253164Y-92526836D01*
X133342758Y-92616430D01*
X133210571Y-92671048D01*
X133041641Y-92839683D01*
X132950104Y-93060129D01*
X132949896Y-93298824D01*
X133041048Y-93519429D01*
X133209683Y-93688359D01*
X133249585Y-93704928D01*
X133210571Y-93721048D01*
X133041641Y-93889683D01*
X132950104Y-94110129D01*
X132949896Y-94348824D01*
X133041048Y-94569429D01*
X133209683Y-94738359D01*
X133312605Y-94781096D01*
X133193731Y-94899763D01*
X133145048Y-95017004D01*
X133025016Y-95137036D01*
X133025078Y-95065882D01*
X132956714Y-94900428D01*
X132830237Y-94773731D01*
X132712996Y-94725048D01*
X132333974Y-94346026D01*
X132281817Y-94311176D01*
X132203686Y-94258970D01*
X132050000Y-94228400D01*
X129075000Y-94228400D01*
X128921314Y-94258970D01*
X128791026Y-94346026D01*
X125961885Y-97175167D01*
X125845428Y-97223286D01*
X125718731Y-97349763D01*
X125650078Y-97515097D01*
X125649922Y-97694118D01*
X125716476Y-97855193D01*
X125650078Y-98015097D01*
X125649922Y-98194118D01*
X125716476Y-98355193D01*
X125650078Y-98515097D01*
X125649929Y-98686096D01*
X125620428Y-98698286D01*
X125493731Y-98824763D01*
X125425078Y-98990097D01*
X125424936Y-99153400D01*
X123575000Y-99153400D01*
X123421314Y-99183970D01*
X123346911Y-99233685D01*
X123291026Y-99271026D01*
X123016026Y-99546026D01*
X122928970Y-99676314D01*
X122898400Y-99830000D01*
X122898400Y-100248725D01*
X122850078Y-100365097D01*
X122849922Y-100544118D01*
X119112581Y-100544118D01*
X118990317Y-100421641D01*
X118769871Y-100330104D01*
X118531176Y-100329896D01*
X118310571Y-100421048D01*
X118141641Y-100589683D01*
X118050104Y-100810129D01*
X118049896Y-101048824D01*
X115225000Y-101048824D01*
X115225000Y-98048824D01*
X116349896Y-98048824D01*
X116441048Y-98269429D01*
X116609683Y-98438359D01*
X116830129Y-98529896D01*
X117068824Y-98530104D01*
X117289429Y-98438952D01*
X117458359Y-98270317D01*
X117529568Y-98098824D01*
X118149896Y-98098824D01*
X118241048Y-98319429D01*
X118409683Y-98488359D01*
X118630129Y-98579896D01*
X118868824Y-98580104D01*
X119089429Y-98488952D01*
X119258359Y-98320317D01*
X119349896Y-98099871D01*
X119350104Y-97861176D01*
X119258952Y-97640571D01*
X119090317Y-97471641D01*
X118869871Y-97380104D01*
X118631176Y-97379896D01*
X118410571Y-97471048D01*
X118241641Y-97639683D01*
X118150104Y-97860129D01*
X118149896Y-98098824D01*
X117529568Y-98098824D01*
X117549896Y-98049871D01*
X117550104Y-97811176D01*
X117458952Y-97590571D01*
X117290317Y-97421641D01*
X117069871Y-97330104D01*
X116831176Y-97329896D01*
X116610571Y-97421048D01*
X116441641Y-97589683D01*
X116350104Y-97810129D01*
X116349896Y-98048824D01*
X115225000Y-98048824D01*
X115225000Y-96444118D01*
X120749922Y-96444118D01*
X120818286Y-96609572D01*
X120944763Y-96736269D01*
X121110097Y-96804922D01*
X121289118Y-96805078D01*
X121406444Y-96756600D01*
X125893725Y-96756600D01*
X126010097Y-96804922D01*
X126189118Y-96805078D01*
X126354572Y-96736714D01*
X126481269Y-96610237D01*
X126549922Y-96444903D01*
X126550078Y-96265882D01*
X126481714Y-96100428D01*
X126355237Y-95973731D01*
X126189903Y-95905078D01*
X126010882Y-95904922D01*
X125893556Y-95953400D01*
X121406275Y-95953400D01*
X121289903Y-95905078D01*
X121110882Y-95904922D01*
X120945428Y-95973286D01*
X120818731Y-96099763D01*
X120750078Y-96265097D01*
X120749922Y-96444118D01*
X115225000Y-96444118D01*
X115225000Y-94330000D01*
X120000000Y-94330000D01*
X120000000Y-95014673D01*
X120045672Y-95124936D01*
X120130063Y-95209328D01*
X120240326Y-95255000D01*
X120925000Y-95255000D01*
X121000000Y-95180000D01*
X121000000Y-94255000D01*
X121300000Y-94255000D01*
X121300000Y-95180000D01*
X121375000Y-95255000D01*
X122059674Y-95255000D01*
X122169937Y-95209328D01*
X122254328Y-95124936D01*
X122300000Y-95014673D01*
X122300000Y-94330000D01*
X122225000Y-94255000D01*
X121300000Y-94255000D01*
X121000000Y-94255000D01*
X120075000Y-94255000D01*
X120000000Y-94330000D01*
X115225000Y-94330000D01*
X115225000Y-93195327D01*
X120000000Y-93195327D01*
X120000000Y-93880000D01*
X120075000Y-93955000D01*
X121000000Y-93955000D01*
X121000000Y-93030000D01*
X121300000Y-93030000D01*
X121300000Y-93955000D01*
X122225000Y-93955000D01*
X122300000Y-93880000D01*
X122300000Y-93195327D01*
X122254328Y-93085064D01*
X122169937Y-93000672D01*
X122059674Y-92955000D01*
X121375000Y-92955000D01*
X121300000Y-93030000D01*
X121000000Y-93030000D01*
X120925000Y-92955000D01*
X120240326Y-92955000D01*
X120130063Y-93000672D01*
X120045672Y-93085064D01*
X120000000Y-93195327D01*
X115225000Y-93195327D01*
X115225000Y-91565000D01*
X119977470Y-91565000D01*
X120065009Y-92005086D01*
X120314297Y-92378173D01*
X120687384Y-92627461D01*
X121127470Y-92715000D01*
X121172530Y-92715000D01*
X121612616Y-92627461D01*
X121985703Y-92378173D01*
X122234991Y-92005086D01*
X122290937Y-91723824D01*
X124374896Y-91723824D01*
X124466048Y-91944429D01*
X124634683Y-92113359D01*
X124855129Y-92204896D01*
X125093824Y-92205104D01*
X125314429Y-92113952D01*
X125483359Y-91945317D01*
X125493177Y-91921672D01*
X125597183Y-92025859D01*
X125603080Y-92028308D01*
X125566641Y-92064683D01*
X125475104Y-92285129D01*
X125474896Y-92523824D01*
X125566048Y-92744429D01*
X125734683Y-92913359D01*
X125955129Y-93004896D01*
X126193824Y-93005104D01*
X126414429Y-92913952D01*
X126573269Y-92755390D01*
X126641048Y-92919429D01*
X126809683Y-93088359D01*
X127030129Y-93179896D01*
X127124978Y-93179979D01*
X127124922Y-93244118D01*
X127193286Y-93409572D01*
X127319763Y-93536269D01*
X127485097Y-93604922D01*
X127664118Y-93605078D01*
X127829572Y-93536714D01*
X127956269Y-93410237D01*
X128004952Y-93292996D01*
X128017997Y-93279951D01*
X128193824Y-93280104D01*
X128414429Y-93188952D01*
X128583359Y-93020317D01*
X128674896Y-92799871D01*
X128675104Y-92561176D01*
X128583952Y-92340571D01*
X128415317Y-92171641D01*
X128194871Y-92080104D01*
X127995553Y-92079930D01*
X127945917Y-91959802D01*
X129171798Y-91959802D01*
X129325484Y-91929232D01*
X129455772Y-91842176D01*
X129508827Y-91789121D01*
X129500104Y-91810129D01*
X129499896Y-92048824D01*
X129591048Y-92269429D01*
X129759683Y-92438359D01*
X129980129Y-92529896D01*
X130007780Y-92529920D01*
X130162293Y-92633163D01*
X130350000Y-92670500D01*
X130550000Y-92670500D01*
X130737706Y-92633163D01*
X130896836Y-92526836D01*
X131003163Y-92367706D01*
X131040500Y-92180000D01*
X131003163Y-91992294D01*
X130896836Y-91833164D01*
X130737706Y-91726837D01*
X130658768Y-91711135D01*
X130608952Y-91590571D01*
X130440317Y-91421641D01*
X130219871Y-91330104D01*
X130018854Y-91329929D01*
X130074922Y-91194903D01*
X130075078Y-91015882D01*
X130006714Y-90850428D01*
X129880237Y-90723731D01*
X129714903Y-90655078D01*
X129535882Y-90654922D01*
X129370428Y-90723286D01*
X129243731Y-90849763D01*
X129195048Y-90967004D01*
X129099994Y-91062058D01*
X129100078Y-90965882D01*
X129031714Y-90800428D01*
X128905237Y-90673731D01*
X128739903Y-90605078D01*
X128560882Y-90604922D01*
X128395428Y-90673286D01*
X128315175Y-90753400D01*
X126300000Y-90753400D01*
X126146314Y-90783970D01*
X126055831Y-90844429D01*
X126016026Y-90871026D01*
X125969525Y-90917527D01*
X125818676Y-90917396D01*
X125598071Y-91008548D01*
X125429141Y-91177183D01*
X125419323Y-91200828D01*
X125315317Y-91096641D01*
X125094871Y-91005104D01*
X124856176Y-91004896D01*
X124635571Y-91096048D01*
X124466641Y-91264683D01*
X124375104Y-91485129D01*
X124374896Y-91723824D01*
X122290937Y-91723824D01*
X122322530Y-91565000D01*
X122234991Y-91124914D01*
X121985703Y-90751827D01*
X121612616Y-90502539D01*
X121172530Y-90415000D01*
X121127470Y-90415000D01*
X120687384Y-90502539D01*
X120314297Y-90751827D01*
X120065009Y-91124914D01*
X119977470Y-91565000D01*
X115225000Y-91565000D01*
X115225000Y-89025000D01*
X119977470Y-89025000D01*
X120065009Y-89465086D01*
X120314297Y-89838173D01*
X120687384Y-90087461D01*
X121127470Y-90175000D01*
X121172530Y-90175000D01*
X121612616Y-90087461D01*
X121985703Y-89838173D01*
X122234991Y-89465086D01*
X122273971Y-89269118D01*
X131124922Y-89269118D01*
X131193286Y-89434572D01*
X131319763Y-89561269D01*
X131437004Y-89609952D01*
X131941026Y-90113974D01*
X132071314Y-90201030D01*
X132225000Y-90231600D01*
X132900000Y-90231600D01*
X133053686Y-90201030D01*
X133183974Y-90113974D01*
X133542975Y-89754973D01*
X133693824Y-89755104D01*
X133914429Y-89663952D01*
X134083359Y-89495317D01*
X134174896Y-89274871D01*
X134175104Y-89036176D01*
X134083952Y-88815571D01*
X133915317Y-88646641D01*
X133694871Y-88555104D01*
X133456176Y-88554896D01*
X133235571Y-88646048D01*
X133066641Y-88814683D01*
X133056790Y-88838406D01*
X132890317Y-88671641D01*
X132669871Y-88580104D01*
X132431176Y-88579896D01*
X132210571Y-88671048D01*
X132041641Y-88839683D01*
X131981314Y-88984966D01*
X131956714Y-88925428D01*
X131830237Y-88798731D01*
X131664903Y-88730078D01*
X131485882Y-88729922D01*
X131320428Y-88798286D01*
X131193731Y-88924763D01*
X131125078Y-89090097D01*
X131124922Y-89269118D01*
X122273971Y-89269118D01*
X122322530Y-89025000D01*
X122234991Y-88584914D01*
X121985703Y-88211827D01*
X121612616Y-87962539D01*
X121172530Y-87875000D01*
X121127470Y-87875000D01*
X120687384Y-87962539D01*
X120314297Y-88211827D01*
X120065009Y-88584914D01*
X119977470Y-89025000D01*
X115225000Y-89025000D01*
X115225000Y-84806516D01*
X115547328Y-84806516D01*
X115639400Y-85028835D01*
X115926357Y-85373797D01*
X116323482Y-85582687D01*
X116500000Y-85545190D01*
X116500000Y-84630000D01*
X115585517Y-84630000D01*
X115547328Y-84806516D01*
X115225000Y-84806516D01*
X115225000Y-84153484D01*
X115547328Y-84153484D01*
X115585517Y-84330000D01*
X116500000Y-84330000D01*
X116500000Y-83414810D01*
X116323482Y-83377313D01*
X115926357Y-83586203D01*
X115639400Y-83931165D01*
X115547328Y-84153484D01*
X115225000Y-84153484D01*
X115225000Y-81940000D01*
X115477470Y-81940000D01*
X115565009Y-82380086D01*
X115814297Y-82753173D01*
X116187384Y-83002461D01*
X116627470Y-83090000D01*
X116672530Y-83090000D01*
X117112616Y-83002461D01*
X117131737Y-82989685D01*
X117598400Y-83456348D01*
X117598400Y-83856392D01*
X117373643Y-83586203D01*
X116976518Y-83377313D01*
X116800000Y-83414810D01*
X116800000Y-84330000D01*
X116820000Y-84330000D01*
X116820000Y-84630000D01*
X116800000Y-84630000D01*
X116800000Y-85545190D01*
X116976518Y-85582687D01*
X117373643Y-85373797D01*
X117598400Y-85103608D01*
X117598400Y-85455000D01*
X117628970Y-85608686D01*
X117715615Y-85738359D01*
X117716026Y-85738974D01*
X118266026Y-86288974D01*
X118396314Y-86376030D01*
X118550000Y-86406600D01*
X130475000Y-86406600D01*
X130628686Y-86376030D01*
X130758974Y-86288974D01*
X131067975Y-85979973D01*
X131218824Y-85980104D01*
X131439429Y-85888952D01*
X131608359Y-85720317D01*
X131699896Y-85499871D01*
X131700104Y-85261176D01*
X131608952Y-85040571D01*
X131440317Y-84871641D01*
X131219871Y-84780104D01*
X130981176Y-84779896D01*
X130760571Y-84871048D01*
X130629817Y-85001573D01*
X130583952Y-84890571D01*
X130415317Y-84721641D01*
X130194871Y-84630104D01*
X129956176Y-84629896D01*
X129735571Y-84721048D01*
X129566641Y-84889683D01*
X129475104Y-85110129D01*
X129474896Y-85348824D01*
X129566048Y-85569429D01*
X129599960Y-85603400D01*
X119500002Y-85603400D01*
X119500002Y-85545190D01*
X119676518Y-85582687D01*
X120073643Y-85373797D01*
X120360600Y-85028835D01*
X120452672Y-84806516D01*
X120414483Y-84630000D01*
X119500000Y-84630000D01*
X119500000Y-84650000D01*
X119200000Y-84650000D01*
X119200000Y-84630000D01*
X119180000Y-84630000D01*
X119180000Y-84373824D01*
X132399896Y-84373824D01*
X132491048Y-84594429D01*
X132659683Y-84763359D01*
X132880129Y-84854896D01*
X133118824Y-84855104D01*
X133339429Y-84763952D01*
X133508359Y-84595317D01*
X133599896Y-84374871D01*
X133600104Y-84136176D01*
X133508952Y-83915571D01*
X133340317Y-83746641D01*
X133119871Y-83655104D01*
X132881176Y-83654896D01*
X132660571Y-83746048D01*
X132491641Y-83914683D01*
X132400104Y-84135129D01*
X132399896Y-84373824D01*
X119180000Y-84373824D01*
X119180000Y-84330000D01*
X119200000Y-84330000D01*
X119200000Y-83414810D01*
X119500000Y-83414810D01*
X119500000Y-84330000D01*
X120414483Y-84330000D01*
X120452672Y-84153484D01*
X120360600Y-83931165D01*
X120073643Y-83586203D01*
X119676518Y-83377313D01*
X119500000Y-83414810D01*
X119200000Y-83414810D01*
X119023482Y-83377313D01*
X118626357Y-83586203D01*
X118401600Y-83856392D01*
X118401600Y-83290000D01*
X118371030Y-83136314D01*
X118283974Y-83006026D01*
X117704166Y-82426218D01*
X117734991Y-82380086D01*
X117822530Y-81940000D01*
X118177470Y-81940000D01*
X118265009Y-82380086D01*
X118514297Y-82753173D01*
X118887384Y-83002461D01*
X119327470Y-83090000D01*
X119372530Y-83090000D01*
X119812616Y-83002461D01*
X120185703Y-82753173D01*
X120434991Y-82380086D01*
X120522530Y-81940000D01*
X120434991Y-81499914D01*
X120185703Y-81126827D01*
X119812616Y-80877539D01*
X119416892Y-80798824D01*
X120099896Y-80798824D01*
X120191048Y-81019429D01*
X120359683Y-81188359D01*
X120580129Y-81279896D01*
X120732080Y-81280028D01*
X121019228Y-81567176D01*
X121149516Y-81654232D01*
X121303202Y-81684802D01*
X122971531Y-81684802D01*
X122966641Y-81689683D01*
X122875104Y-81910129D01*
X122874896Y-82148824D01*
X122966048Y-82369429D01*
X123134683Y-82538359D01*
X123355129Y-82629896D01*
X123593824Y-82630104D01*
X123814429Y-82538952D01*
X123983359Y-82370317D01*
X124074896Y-82149871D01*
X124075104Y-81911176D01*
X123983952Y-81690571D01*
X123978193Y-81684802D01*
X130716640Y-81684802D01*
X131270812Y-82238974D01*
X131401100Y-82326030D01*
X131554786Y-82356600D01*
X132875000Y-82356600D01*
X133028686Y-82326030D01*
X133158974Y-82238974D01*
X133892975Y-81504973D01*
X134043824Y-81505104D01*
X134264429Y-81413952D01*
X134433359Y-81245317D01*
X134524896Y-81024871D01*
X134525092Y-80798824D01*
X135499896Y-80798824D01*
X135591048Y-81019429D01*
X135759683Y-81188359D01*
X135980129Y-81279896D01*
X136132080Y-81280028D01*
X137366026Y-82513974D01*
X137496314Y-82601030D01*
X137650000Y-82631600D01*
X143678110Y-82631600D01*
X143738971Y-82692567D01*
X143616641Y-82814683D01*
X143525104Y-83035129D01*
X143524896Y-83273824D01*
X143616048Y-83494429D01*
X143784683Y-83663359D01*
X144005129Y-83754896D01*
X144243824Y-83755104D01*
X144464429Y-83663952D01*
X144633359Y-83495317D01*
X144724896Y-83274871D01*
X144725104Y-83036176D01*
X144633952Y-82815571D01*
X144511029Y-82692433D01*
X144633359Y-82570317D01*
X144724896Y-82349871D01*
X144725104Y-82111176D01*
X144633952Y-81890571D01*
X144608426Y-81865000D01*
X147177470Y-81865000D01*
X147265009Y-82305086D01*
X147514297Y-82678173D01*
X147887384Y-82927461D01*
X148327470Y-83015000D01*
X148372530Y-83015000D01*
X148812616Y-82927461D01*
X149185703Y-82678173D01*
X149434991Y-82305086D01*
X149522530Y-81865000D01*
X149517558Y-81840000D01*
X149877470Y-81840000D01*
X149965009Y-82280086D01*
X150214297Y-82653173D01*
X150587384Y-82902461D01*
X151027470Y-82990000D01*
X151072530Y-82990000D01*
X151512616Y-82902461D01*
X151885703Y-82653173D01*
X152134991Y-82280086D01*
X152222530Y-81840000D01*
X152134991Y-81399914D01*
X151885703Y-81026827D01*
X151512616Y-80777539D01*
X151072530Y-80690000D01*
X151027470Y-80690000D01*
X150587384Y-80777539D01*
X150214297Y-81026827D01*
X149965009Y-81399914D01*
X149877470Y-81840000D01*
X149517558Y-81840000D01*
X149434991Y-81424914D01*
X149185703Y-81051827D01*
X148812616Y-80802539D01*
X148372530Y-80715000D01*
X148327470Y-80715000D01*
X147887384Y-80802539D01*
X147514297Y-81051827D01*
X147265009Y-81424914D01*
X147177470Y-81865000D01*
X144608426Y-81865000D01*
X144523507Y-81779933D01*
X144658359Y-81645317D01*
X144749896Y-81424871D01*
X144750104Y-81186176D01*
X144658952Y-80965571D01*
X144490317Y-80796641D01*
X144269871Y-80705104D01*
X144077031Y-80704936D01*
X144099896Y-80649871D01*
X144100104Y-80411176D01*
X144008952Y-80190571D01*
X143840317Y-80021641D01*
X143619871Y-79930104D01*
X143381176Y-79929896D01*
X143160571Y-80021048D01*
X142991641Y-80189683D01*
X142900104Y-80410129D01*
X142899896Y-80648824D01*
X142991048Y-80869429D01*
X143024960Y-80903400D01*
X138141348Y-80903400D01*
X137824973Y-80587025D01*
X137825104Y-80436176D01*
X137733952Y-80215571D01*
X137565317Y-80046641D01*
X137344871Y-79955104D01*
X137106176Y-79954896D01*
X136885571Y-80046048D01*
X136716641Y-80214683D01*
X136636592Y-80407464D01*
X136608952Y-80340571D01*
X136440317Y-80171641D01*
X136219871Y-80080104D01*
X135981176Y-80079896D01*
X135760571Y-80171048D01*
X135591641Y-80339683D01*
X135500104Y-80560129D01*
X135499896Y-80798824D01*
X134525092Y-80798824D01*
X134525104Y-80786176D01*
X134433952Y-80565571D01*
X134265317Y-80396641D01*
X134044871Y-80305104D01*
X133806176Y-80304896D01*
X133585571Y-80396048D01*
X133512455Y-80469036D01*
X133365317Y-80321641D01*
X133144871Y-80230104D01*
X132906176Y-80229896D01*
X132685571Y-80321048D01*
X132516641Y-80489683D01*
X132500072Y-80529585D01*
X132483952Y-80490571D01*
X132315317Y-80321641D01*
X132094871Y-80230104D01*
X131942920Y-80229972D01*
X131683974Y-79971026D01*
X131622730Y-79930104D01*
X131553686Y-79883970D01*
X131400000Y-79853400D01*
X124443957Y-79853400D01*
X124539429Y-79813952D01*
X124708359Y-79645317D01*
X124799896Y-79424871D01*
X124800005Y-79298824D01*
X129449896Y-79298824D01*
X129541048Y-79519429D01*
X129709683Y-79688359D01*
X129930129Y-79779896D01*
X130168824Y-79780104D01*
X130389429Y-79688952D01*
X130558359Y-79520317D01*
X130588045Y-79448824D01*
X144199896Y-79448824D01*
X144291048Y-79669429D01*
X144459683Y-79838359D01*
X144680129Y-79929896D01*
X144918824Y-79930104D01*
X145139429Y-79838952D01*
X145308359Y-79670317D01*
X145399896Y-79449871D01*
X145400004Y-79325000D01*
X147177470Y-79325000D01*
X147265009Y-79765086D01*
X147514297Y-80138173D01*
X147887384Y-80387461D01*
X148327470Y-80475000D01*
X148372530Y-80475000D01*
X148812616Y-80387461D01*
X149185703Y-80138173D01*
X149434991Y-79765086D01*
X149522530Y-79325000D01*
X149517558Y-79300000D01*
X149877470Y-79300000D01*
X149965009Y-79740086D01*
X150214297Y-80113173D01*
X150587384Y-80362461D01*
X151027470Y-80450000D01*
X151072530Y-80450000D01*
X151512616Y-80362461D01*
X151885703Y-80113173D01*
X152134991Y-79740086D01*
X152222530Y-79300000D01*
X152134991Y-78859914D01*
X151885703Y-78486827D01*
X151512616Y-78237539D01*
X151072530Y-78150000D01*
X151027470Y-78150000D01*
X150587384Y-78237539D01*
X150214297Y-78486827D01*
X149965009Y-78859914D01*
X149877470Y-79300000D01*
X149517558Y-79300000D01*
X149434991Y-78884914D01*
X149185703Y-78511827D01*
X148812616Y-78262539D01*
X148372530Y-78175000D01*
X148327470Y-78175000D01*
X147887384Y-78262539D01*
X147514297Y-78511827D01*
X147265009Y-78884914D01*
X147177470Y-79325000D01*
X145400004Y-79325000D01*
X145400104Y-79211176D01*
X145308952Y-78990571D01*
X145140317Y-78821641D01*
X144919871Y-78730104D01*
X144681176Y-78729896D01*
X144460571Y-78821048D01*
X144291641Y-78989683D01*
X144200104Y-79210129D01*
X144199896Y-79448824D01*
X130588045Y-79448824D01*
X130649896Y-79299871D01*
X130650104Y-79061176D01*
X130558952Y-78840571D01*
X130390317Y-78671641D01*
X130169871Y-78580104D01*
X129931176Y-78579896D01*
X129710571Y-78671048D01*
X129541641Y-78839683D01*
X129450104Y-79060129D01*
X129449896Y-79298824D01*
X124800005Y-79298824D01*
X124800104Y-79186176D01*
X124708952Y-78965571D01*
X124540317Y-78796641D01*
X124319871Y-78705104D01*
X124081176Y-78704896D01*
X123860571Y-78796048D01*
X123691641Y-78964683D01*
X123600104Y-79185129D01*
X123599896Y-79423824D01*
X123691048Y-79644429D01*
X123859683Y-79813359D01*
X123956113Y-79853400D01*
X122871890Y-79853400D01*
X122765317Y-79746641D01*
X122544871Y-79655104D01*
X122306176Y-79654896D01*
X122085571Y-79746048D01*
X122025021Y-79806493D01*
X121940317Y-79721641D01*
X121719871Y-79630104D01*
X121481176Y-79629896D01*
X121260571Y-79721048D01*
X121091641Y-79889683D01*
X121000104Y-80110129D01*
X121000065Y-80154927D01*
X120819871Y-80080104D01*
X120581176Y-80079896D01*
X120360571Y-80171048D01*
X120191641Y-80339683D01*
X120100104Y-80560129D01*
X120099896Y-80798824D01*
X119416892Y-80798824D01*
X119372530Y-80790000D01*
X119327470Y-80790000D01*
X118887384Y-80877539D01*
X118514297Y-81126827D01*
X118265009Y-81499914D01*
X118177470Y-81940000D01*
X117822530Y-81940000D01*
X117734991Y-81499914D01*
X117485703Y-81126827D01*
X117112616Y-80877539D01*
X116672530Y-80790000D01*
X116627470Y-80790000D01*
X116187384Y-80877539D01*
X115814297Y-81126827D01*
X115565009Y-81499914D01*
X115477470Y-81940000D01*
X115225000Y-81940000D01*
X115225000Y-79400000D01*
X115477470Y-79400000D01*
X115565009Y-79840086D01*
X115814297Y-80213173D01*
X116187384Y-80462461D01*
X116627470Y-80550000D01*
X116672530Y-80550000D01*
X117112616Y-80462461D01*
X117485703Y-80213173D01*
X117734991Y-79840086D01*
X117822530Y-79400000D01*
X118177470Y-79400000D01*
X118265009Y-79840086D01*
X118514297Y-80213173D01*
X118887384Y-80462461D01*
X119327470Y-80550000D01*
X119372530Y-80550000D01*
X119812616Y-80462461D01*
X120185703Y-80213173D01*
X120434991Y-79840086D01*
X120522530Y-79400000D01*
X120434991Y-78959914D01*
X120237668Y-78664599D01*
X120455129Y-78754896D01*
X120693824Y-78755104D01*
X120914429Y-78663952D01*
X121083359Y-78495317D01*
X121174896Y-78274871D01*
X121175104Y-78036176D01*
X121083952Y-77815571D01*
X120915317Y-77646641D01*
X120694871Y-77555104D01*
X120456176Y-77554896D01*
X120235571Y-77646048D01*
X120066641Y-77814683D01*
X119975104Y-78035129D01*
X119974896Y-78273824D01*
X120066048Y-78494429D01*
X120103363Y-78531809D01*
X119812616Y-78337539D01*
X119372530Y-78250000D01*
X119327470Y-78250000D01*
X118887384Y-78337539D01*
X118514297Y-78586827D01*
X118265009Y-78959914D01*
X118177470Y-79400000D01*
X117822530Y-79400000D01*
X117734991Y-78959914D01*
X117485703Y-78586827D01*
X117112616Y-78337539D01*
X116672530Y-78250000D01*
X116627470Y-78250000D01*
X116187384Y-78337539D01*
X115814297Y-78586827D01*
X115565009Y-78959914D01*
X115477470Y-79400000D01*
X115225000Y-79400000D01*
X115225000Y-76860000D01*
X115477470Y-76860000D01*
X115565009Y-77300086D01*
X115814297Y-77673173D01*
X116187384Y-77922461D01*
X116627470Y-78010000D01*
X116672530Y-78010000D01*
X117112616Y-77922461D01*
X117485703Y-77673173D01*
X117734991Y-77300086D01*
X117822530Y-76860000D01*
X117734991Y-76419914D01*
X117485703Y-76046827D01*
X117112616Y-75797539D01*
X116672530Y-75710000D01*
X116627470Y-75710000D01*
X116187384Y-75797539D01*
X115814297Y-76046827D01*
X115565009Y-76419914D01*
X115477470Y-76860000D01*
X115225000Y-76860000D01*
X115225000Y-74320000D01*
X115477470Y-74320000D01*
X115565009Y-74760086D01*
X115814297Y-75133173D01*
X116187384Y-75382461D01*
X116627470Y-75470000D01*
X116672530Y-75470000D01*
X117112616Y-75382461D01*
X117485703Y-75133173D01*
X117734991Y-74760086D01*
X117822530Y-74320000D01*
X118177470Y-74320000D01*
X118265009Y-74760086D01*
X118514297Y-75133173D01*
X118887384Y-75382461D01*
X119327470Y-75470000D01*
X119372530Y-75470000D01*
X119812616Y-75382461D01*
X120148438Y-75158073D01*
X120041641Y-75264683D01*
X119950104Y-75485129D01*
X119949896Y-75723824D01*
X120041048Y-75944429D01*
X120058264Y-75961675D01*
X119812616Y-75797539D01*
X119372530Y-75710000D01*
X119327470Y-75710000D01*
X118887384Y-75797539D01*
X118514297Y-76046827D01*
X118265009Y-76419914D01*
X118177470Y-76860000D01*
X118265009Y-77300086D01*
X118514297Y-77673173D01*
X118887384Y-77922461D01*
X119327470Y-78010000D01*
X119372530Y-78010000D01*
X119812616Y-77922461D01*
X120185703Y-77673173D01*
X120434991Y-77300086D01*
X120522530Y-76860000D01*
X120434991Y-76419914D01*
X120238020Y-76125126D01*
X120430129Y-76204896D01*
X120668824Y-76205104D01*
X120889429Y-76113952D01*
X121058359Y-75945317D01*
X121149896Y-75724871D01*
X121150104Y-75486176D01*
X121093352Y-75348824D01*
X121249896Y-75348824D01*
X121341048Y-75569429D01*
X121509683Y-75738359D01*
X121730129Y-75829896D01*
X121800021Y-75829957D01*
X121799896Y-75973824D01*
X121891048Y-76194429D01*
X122059683Y-76363359D01*
X122280129Y-76454896D01*
X122518824Y-76455104D01*
X122739429Y-76363952D01*
X122908359Y-76195317D01*
X122999896Y-75974871D01*
X123000044Y-75804944D01*
X123061088Y-75743900D01*
X136375000Y-75743900D01*
X136523826Y-75714297D01*
X136649994Y-75629994D01*
X137000031Y-75279957D01*
X137168824Y-75280104D01*
X137389429Y-75188952D01*
X137496969Y-75081600D01*
X138716547Y-75081600D01*
X138560571Y-75146048D01*
X138391641Y-75314683D01*
X138300104Y-75535129D01*
X138299972Y-75687080D01*
X136961854Y-77025198D01*
X127788146Y-77025198D01*
X127699973Y-76937025D01*
X127700104Y-76786176D01*
X127608952Y-76565571D01*
X127440317Y-76396641D01*
X127219871Y-76305104D01*
X126981176Y-76304896D01*
X126760571Y-76396048D01*
X126591641Y-76564683D01*
X126500104Y-76785129D01*
X126499896Y-77023824D01*
X126591048Y-77244429D01*
X126726449Y-77380067D01*
X126616641Y-77489683D01*
X126525104Y-77710129D01*
X126524896Y-77948824D01*
X126616048Y-78169429D01*
X126784683Y-78338359D01*
X127005129Y-78429896D01*
X127243824Y-78430104D01*
X127464429Y-78338952D01*
X127571969Y-78231600D01*
X137286493Y-78231600D01*
X137248404Y-78323329D01*
X137248196Y-78562024D01*
X137339348Y-78782629D01*
X137507983Y-78951559D01*
X137728429Y-79043096D01*
X137967124Y-79043304D01*
X138187729Y-78952152D01*
X138356659Y-78783517D01*
X138448196Y-78563071D01*
X138448404Y-78324376D01*
X138357252Y-78103771D01*
X138188617Y-77934841D01*
X138135262Y-77912686D01*
X138842975Y-77204973D01*
X138993824Y-77205104D01*
X139214429Y-77113952D01*
X139383359Y-76945317D01*
X139402664Y-76898824D01*
X144899896Y-76898824D01*
X144991048Y-77119429D01*
X145159683Y-77288359D01*
X145380129Y-77379896D01*
X145618824Y-77380104D01*
X145839429Y-77288952D01*
X146008359Y-77120317D01*
X146099896Y-76899871D01*
X146099996Y-76785000D01*
X147177470Y-76785000D01*
X147265009Y-77225086D01*
X147514297Y-77598173D01*
X147887384Y-77847461D01*
X148327470Y-77935000D01*
X148372530Y-77935000D01*
X148812616Y-77847461D01*
X149185703Y-77598173D01*
X149434991Y-77225086D01*
X149522530Y-76785000D01*
X149517558Y-76760000D01*
X149877470Y-76760000D01*
X149965009Y-77200086D01*
X150214297Y-77573173D01*
X150587384Y-77822461D01*
X151027470Y-77910000D01*
X151072530Y-77910000D01*
X151512616Y-77822461D01*
X151885703Y-77573173D01*
X152134991Y-77200086D01*
X152222530Y-76760000D01*
X152134991Y-76319914D01*
X151885703Y-75946827D01*
X151512616Y-75697539D01*
X151072530Y-75610000D01*
X151027470Y-75610000D01*
X150587384Y-75697539D01*
X150214297Y-75946827D01*
X149965009Y-76319914D01*
X149877470Y-76760000D01*
X149517558Y-76760000D01*
X149434991Y-76344914D01*
X149185703Y-75971827D01*
X148812616Y-75722539D01*
X148372530Y-75635000D01*
X148327470Y-75635000D01*
X147887384Y-75722539D01*
X147514297Y-75971827D01*
X147265009Y-76344914D01*
X147177470Y-76785000D01*
X146099996Y-76785000D01*
X146100104Y-76661176D01*
X146008952Y-76440571D01*
X145840317Y-76271641D01*
X145619871Y-76180104D01*
X145381176Y-76179896D01*
X145160571Y-76271048D01*
X144991641Y-76439683D01*
X144900104Y-76660129D01*
X144899896Y-76898824D01*
X139402664Y-76898824D01*
X139474896Y-76724871D01*
X139475104Y-76486176D01*
X139383952Y-76265571D01*
X139261007Y-76142411D01*
X139408359Y-75995317D01*
X139499896Y-75774871D01*
X139500104Y-75536176D01*
X139408952Y-75315571D01*
X139240317Y-75146641D01*
X139083681Y-75081600D01*
X142428110Y-75081600D01*
X142534683Y-75188359D01*
X142755129Y-75279896D01*
X142993824Y-75280104D01*
X143214429Y-75188952D01*
X143383359Y-75020317D01*
X143474896Y-74799871D01*
X143475104Y-74561176D01*
X143397692Y-74373824D01*
X145674896Y-74373824D01*
X145766048Y-74594429D01*
X145934683Y-74763359D01*
X146155129Y-74854896D01*
X146393824Y-74855104D01*
X146614429Y-74763952D01*
X146783359Y-74595317D01*
X146874896Y-74374871D01*
X146875009Y-74245000D01*
X147177470Y-74245000D01*
X147265009Y-74685086D01*
X147514297Y-75058173D01*
X147887384Y-75307461D01*
X148327470Y-75395000D01*
X148372530Y-75395000D01*
X148812616Y-75307461D01*
X149185703Y-75058173D01*
X149434991Y-74685086D01*
X149522530Y-74245000D01*
X149517558Y-74220000D01*
X149877470Y-74220000D01*
X149965009Y-74660086D01*
X150214297Y-75033173D01*
X150587384Y-75282461D01*
X151027470Y-75370000D01*
X151072530Y-75370000D01*
X151512616Y-75282461D01*
X151885703Y-75033173D01*
X152134991Y-74660086D01*
X152222530Y-74220000D01*
X152134991Y-73779914D01*
X151885703Y-73406827D01*
X151512616Y-73157539D01*
X151072530Y-73070000D01*
X151027470Y-73070000D01*
X150587384Y-73157539D01*
X150214297Y-73406827D01*
X149965009Y-73779914D01*
X149877470Y-74220000D01*
X149517558Y-74220000D01*
X149434991Y-73804914D01*
X149185703Y-73431827D01*
X148812616Y-73182539D01*
X148372530Y-73095000D01*
X148327470Y-73095000D01*
X147887384Y-73182539D01*
X147514297Y-73431827D01*
X147265009Y-73804914D01*
X147177470Y-74245000D01*
X146875009Y-74245000D01*
X146875104Y-74136176D01*
X146783952Y-73915571D01*
X146615317Y-73746641D01*
X146394871Y-73655104D01*
X146156176Y-73654896D01*
X145935571Y-73746048D01*
X145766641Y-73914683D01*
X145675104Y-74135129D01*
X145674896Y-74373824D01*
X143397692Y-74373824D01*
X143383952Y-74340571D01*
X143215317Y-74171641D01*
X142994871Y-74080104D01*
X142756176Y-74079896D01*
X142749977Y-74082458D01*
X142750104Y-73936176D01*
X142658952Y-73715571D01*
X142490317Y-73546641D01*
X142269871Y-73455104D01*
X142031176Y-73454896D01*
X141810571Y-73546048D01*
X141703031Y-73653400D01*
X138121890Y-73653400D01*
X138015317Y-73546641D01*
X137794871Y-73455104D01*
X137573617Y-73454911D01*
X137658359Y-73370317D01*
X137749896Y-73149871D01*
X137750104Y-72911176D01*
X137658952Y-72690571D01*
X137490317Y-72521641D01*
X137269871Y-72430104D01*
X137031176Y-72429896D01*
X136810571Y-72521048D01*
X136641641Y-72689683D01*
X136550104Y-72910129D01*
X136549896Y-73148824D01*
X136641048Y-73369429D01*
X136809683Y-73538359D01*
X137030129Y-73629896D01*
X137251383Y-73630089D01*
X137215309Y-73666100D01*
X136100000Y-73666100D01*
X135951174Y-73695703D01*
X135825006Y-73780006D01*
X135825004Y-73780009D01*
X135238912Y-74366100D01*
X129277716Y-74366100D01*
X129464429Y-74288952D01*
X129633359Y-74120317D01*
X129724896Y-73899871D01*
X129725104Y-73661176D01*
X129633952Y-73440571D01*
X129465317Y-73271641D01*
X129244871Y-73180104D01*
X129006176Y-73179896D01*
X128785571Y-73271048D01*
X128616641Y-73439683D01*
X128525104Y-73660129D01*
X128524896Y-73898824D01*
X128616048Y-74119429D01*
X128784683Y-74288359D01*
X128971904Y-74366100D01*
X126420491Y-74366100D01*
X126499896Y-74174871D01*
X126500104Y-73936176D01*
X126408952Y-73715571D01*
X126240317Y-73546641D01*
X126019871Y-73455104D01*
X125781176Y-73454896D01*
X125560571Y-73546048D01*
X125391641Y-73714683D01*
X125300104Y-73935129D01*
X125299896Y-74173824D01*
X125379343Y-74366100D01*
X122325000Y-74366100D01*
X122176174Y-74395703D01*
X122050006Y-74480006D01*
X121899969Y-74630043D01*
X121731176Y-74629896D01*
X121510571Y-74721048D01*
X121341641Y-74889683D01*
X121250104Y-75110129D01*
X121249896Y-75348824D01*
X121093352Y-75348824D01*
X121058952Y-75265571D01*
X120890317Y-75096641D01*
X120669871Y-75005104D01*
X120431176Y-75004896D01*
X120210571Y-75096048D01*
X120210385Y-75096234D01*
X120434991Y-74760086D01*
X120522530Y-74320000D01*
X120434991Y-73879914D01*
X120185703Y-73506827D01*
X119812616Y-73257539D01*
X119372530Y-73170000D01*
X119327470Y-73170000D01*
X118887384Y-73257539D01*
X118514297Y-73506827D01*
X118265009Y-73879914D01*
X118177470Y-74320000D01*
X117822530Y-74320000D01*
X117734991Y-73879914D01*
X117485703Y-73506827D01*
X117112616Y-73257539D01*
X116672530Y-73170000D01*
X116627470Y-73170000D01*
X116187384Y-73257539D01*
X115814297Y-73506827D01*
X115565009Y-73879914D01*
X115477470Y-74320000D01*
X115225000Y-74320000D01*
X115225000Y-70930000D01*
X115494123Y-70930000D01*
X115494123Y-72630000D01*
X115515042Y-72741173D01*
X115580745Y-72843279D01*
X115680997Y-72911778D01*
X115800000Y-72935877D01*
X117500000Y-72935877D01*
X117611173Y-72914958D01*
X117713279Y-72849255D01*
X117781778Y-72749003D01*
X117805877Y-72630000D01*
X117805877Y-70930000D01*
X118194123Y-70930000D01*
X118194123Y-72630000D01*
X118215042Y-72741173D01*
X118280745Y-72843279D01*
X118380997Y-72911778D01*
X118500000Y-72935877D01*
X120200000Y-72935877D01*
X120311173Y-72914958D01*
X120413279Y-72849255D01*
X120481778Y-72749003D01*
X120505877Y-72630000D01*
X120505877Y-72098824D01*
X127849896Y-72098824D01*
X127941048Y-72319429D01*
X128109683Y-72488359D01*
X128330129Y-72579896D01*
X128568824Y-72580104D01*
X128789429Y-72488952D01*
X128929802Y-72348824D01*
X129299896Y-72348824D01*
X129391048Y-72569429D01*
X129559683Y-72738359D01*
X129780129Y-72829896D01*
X130018824Y-72830104D01*
X130239429Y-72738952D01*
X130408359Y-72570317D01*
X130499896Y-72349871D01*
X130500104Y-72111176D01*
X130453682Y-71998824D01*
X135124896Y-71998824D01*
X135216048Y-72219429D01*
X135384683Y-72388359D01*
X135605129Y-72479896D01*
X135843824Y-72480104D01*
X136064429Y-72388952D01*
X136233359Y-72220317D01*
X136324896Y-71999871D01*
X136325049Y-71823824D01*
X146074896Y-71823824D01*
X146166048Y-72044429D01*
X146334683Y-72213359D01*
X146555129Y-72304896D01*
X146793824Y-72305104D01*
X147014429Y-72213952D01*
X147183359Y-72045317D01*
X147194123Y-72019394D01*
X147194123Y-72555000D01*
X147215042Y-72666173D01*
X147280745Y-72768279D01*
X147380997Y-72836778D01*
X147500000Y-72860877D01*
X149200000Y-72860877D01*
X149311173Y-72839958D01*
X149413279Y-72774255D01*
X149481778Y-72674003D01*
X149505877Y-72555000D01*
X149505877Y-70855000D01*
X149501173Y-70830000D01*
X149894123Y-70830000D01*
X149894123Y-72530000D01*
X149915042Y-72641173D01*
X149980745Y-72743279D01*
X150080997Y-72811778D01*
X150200000Y-72835877D01*
X151900000Y-72835877D01*
X152011173Y-72814958D01*
X152113279Y-72749255D01*
X152181778Y-72649003D01*
X152205877Y-72530000D01*
X152205877Y-70830000D01*
X152184958Y-70718827D01*
X152119255Y-70616721D01*
X152019003Y-70548222D01*
X151900000Y-70524123D01*
X150200000Y-70524123D01*
X150088827Y-70545042D01*
X149986721Y-70610745D01*
X149918222Y-70710997D01*
X149894123Y-70830000D01*
X149501173Y-70830000D01*
X149484958Y-70743827D01*
X149419255Y-70641721D01*
X149319003Y-70573222D01*
X149200000Y-70549123D01*
X147500000Y-70549123D01*
X147388827Y-70570042D01*
X147286721Y-70635745D01*
X147218222Y-70735997D01*
X147194123Y-70855000D01*
X147194123Y-71390187D01*
X147183952Y-71365571D01*
X147015317Y-71196641D01*
X146794871Y-71105104D01*
X146556176Y-71104896D01*
X146335571Y-71196048D01*
X146166641Y-71364683D01*
X146075104Y-71585129D01*
X146074896Y-71823824D01*
X136325049Y-71823824D01*
X136325104Y-71761176D01*
X136233952Y-71540571D01*
X136065317Y-71371641D01*
X135844871Y-71280104D01*
X135606176Y-71279896D01*
X135385571Y-71371048D01*
X135216641Y-71539683D01*
X135125104Y-71760129D01*
X135124896Y-71998824D01*
X130453682Y-71998824D01*
X130408952Y-71890571D01*
X130240317Y-71721641D01*
X130019871Y-71630104D01*
X129781176Y-71629896D01*
X129560571Y-71721048D01*
X129391641Y-71889683D01*
X129300104Y-72110129D01*
X129299896Y-72348824D01*
X128929802Y-72348824D01*
X128958359Y-72320317D01*
X129049896Y-72099871D01*
X129050104Y-71861176D01*
X128958952Y-71640571D01*
X128790317Y-71471641D01*
X128569871Y-71380104D01*
X128331176Y-71379896D01*
X128110571Y-71471048D01*
X127941641Y-71639683D01*
X127850104Y-71860129D01*
X127849896Y-72098824D01*
X120505877Y-72098824D01*
X120505877Y-70930000D01*
X120484958Y-70818827D01*
X120419255Y-70716721D01*
X120319003Y-70648222D01*
X120200000Y-70624123D01*
X118500000Y-70624123D01*
X118388827Y-70645042D01*
X118286721Y-70710745D01*
X118218222Y-70810997D01*
X118194123Y-70930000D01*
X117805877Y-70930000D01*
X117784958Y-70818827D01*
X117719255Y-70716721D01*
X117619003Y-70648222D01*
X117500000Y-70624123D01*
X115800000Y-70624123D01*
X115688827Y-70645042D01*
X115586721Y-70710745D01*
X115518222Y-70810997D01*
X115494123Y-70930000D01*
X115225000Y-70930000D01*
X115225000Y-70098824D01*
X122174896Y-70098824D01*
X122266048Y-70319429D01*
X122434683Y-70488359D01*
X122655129Y-70579896D01*
X122874999Y-70580088D01*
X122874896Y-70698824D01*
X122966048Y-70919429D01*
X123134683Y-71088359D01*
X123355129Y-71179896D01*
X123593824Y-71180104D01*
X123814429Y-71088952D01*
X123934691Y-70968900D01*
X131225000Y-70968900D01*
X131225000Y-71255000D01*
X131232350Y-71292629D01*
X131254289Y-71325711D01*
X131554289Y-71625711D01*
X131586094Y-71647121D01*
X131625000Y-71655000D01*
X132075000Y-71655000D01*
X132112629Y-71647650D01*
X132145711Y-71625711D01*
X132445711Y-71325711D01*
X132467121Y-71293906D01*
X132475000Y-71255000D01*
X132475000Y-70905000D01*
X132467650Y-70867371D01*
X132445711Y-70834289D01*
X132335246Y-70723824D01*
X139299896Y-70723824D01*
X139391048Y-70944429D01*
X139559683Y-71113359D01*
X139780129Y-71204896D01*
X140018824Y-71205104D01*
X140239429Y-71113952D01*
X140408359Y-70945317D01*
X140499896Y-70724871D01*
X140500104Y-70486176D01*
X140408952Y-70265571D01*
X140240317Y-70096641D01*
X140019871Y-70005104D01*
X139781176Y-70004896D01*
X139560571Y-70096048D01*
X139391641Y-70264683D01*
X139300104Y-70485129D01*
X139299896Y-70723824D01*
X132335246Y-70723824D01*
X132191502Y-70580080D01*
X132218824Y-70580104D01*
X132439429Y-70488952D01*
X132608359Y-70320317D01*
X132699896Y-70099871D01*
X132700104Y-69861176D01*
X132608952Y-69640571D01*
X132440317Y-69471641D01*
X132310628Y-69417790D01*
X132458359Y-69270317D01*
X132549896Y-69049871D01*
X132550104Y-68811176D01*
X132458952Y-68590571D01*
X132290317Y-68421641D01*
X132069871Y-68330104D01*
X131831176Y-68329896D01*
X131610571Y-68421048D01*
X131490309Y-68541100D01*
X124709171Y-68541100D01*
X124708952Y-68540571D01*
X124540317Y-68371641D01*
X124319871Y-68280104D01*
X124081176Y-68279896D01*
X123860571Y-68371048D01*
X123691641Y-68539683D01*
X123600104Y-68760129D01*
X123599896Y-68998824D01*
X123691048Y-69219429D01*
X123859683Y-69388359D01*
X124080129Y-69479896D01*
X124318824Y-69480104D01*
X124539429Y-69388952D01*
X124609604Y-69318900D01*
X128022284Y-69318900D01*
X127835571Y-69396048D01*
X127728031Y-69503400D01*
X123147021Y-69503400D01*
X123115317Y-69471641D01*
X122894871Y-69380104D01*
X122656176Y-69379896D01*
X122435571Y-69471048D01*
X122266641Y-69639683D01*
X122175104Y-69860129D01*
X122174896Y-70098824D01*
X115225000Y-70098824D01*
X115225000Y-67673824D01*
X130149896Y-67673824D01*
X130241048Y-67894429D01*
X130409683Y-68063359D01*
X130630129Y-68154896D01*
X130868824Y-68155104D01*
X131089429Y-68063952D01*
X131209691Y-67943900D01*
X135038912Y-67943900D01*
X135750043Y-68655031D01*
X135749896Y-68823824D01*
X135841048Y-69044429D01*
X136009683Y-69213359D01*
X136230129Y-69304896D01*
X136468824Y-69305104D01*
X136689429Y-69213952D01*
X136858359Y-69045317D01*
X136949896Y-68824871D01*
X136950104Y-68586176D01*
X136858952Y-68365571D01*
X136692497Y-68198824D01*
X139949896Y-68198824D01*
X140041048Y-68419429D01*
X140209683Y-68588359D01*
X140430129Y-68679896D01*
X140668824Y-68680104D01*
X140889429Y-68588952D01*
X141058359Y-68420317D01*
X141149896Y-68199871D01*
X141150104Y-67961176D01*
X141058952Y-67740571D01*
X140890317Y-67571641D01*
X140669871Y-67480104D01*
X140431176Y-67479896D01*
X140210571Y-67571048D01*
X140041641Y-67739683D01*
X139950104Y-67960129D01*
X139949896Y-68198824D01*
X136692497Y-68198824D01*
X136690317Y-68196641D01*
X136469871Y-68105104D01*
X136299944Y-68104956D01*
X135474994Y-67280006D01*
X135377231Y-67214683D01*
X135348826Y-67195703D01*
X135200000Y-67166100D01*
X131209567Y-67166100D01*
X131090317Y-67046641D01*
X130869871Y-66955104D01*
X130631176Y-66954896D01*
X130410571Y-67046048D01*
X130241641Y-67214683D01*
X130150104Y-67435129D01*
X130149896Y-67673824D01*
X115225000Y-67673824D01*
X115225000Y-67123824D01*
X115669096Y-67123824D01*
X115760248Y-67344429D01*
X115928883Y-67513359D01*
X116149329Y-67604896D01*
X116388024Y-67605104D01*
X116608629Y-67513952D01*
X116777559Y-67345317D01*
X116869096Y-67124871D01*
X116869096Y-67123824D01*
X119352096Y-67123824D01*
X119443248Y-67344429D01*
X119611883Y-67513359D01*
X119832329Y-67604896D01*
X120071024Y-67605104D01*
X120291629Y-67513952D01*
X120460559Y-67345317D01*
X120552096Y-67124871D01*
X120552304Y-66886176D01*
X120461152Y-66665571D01*
X120292517Y-66496641D01*
X120177361Y-66448824D01*
X136949896Y-66448824D01*
X137041048Y-66669429D01*
X137209683Y-66838359D01*
X137430129Y-66929896D01*
X137668824Y-66930104D01*
X137889429Y-66838952D01*
X138009691Y-66718900D01*
X144815389Y-66718900D01*
X144909683Y-66813359D01*
X145130129Y-66904896D01*
X145368824Y-66905104D01*
X145589429Y-66813952D01*
X145758359Y-66645317D01*
X145849896Y-66424871D01*
X145850104Y-66186176D01*
X145758952Y-65965571D01*
X145590317Y-65796641D01*
X145369871Y-65705104D01*
X145131176Y-65704896D01*
X144910571Y-65796048D01*
X144765265Y-65941100D01*
X138009567Y-65941100D01*
X137890317Y-65821641D01*
X137669871Y-65730104D01*
X137431176Y-65729896D01*
X137210571Y-65821048D01*
X137041641Y-65989683D01*
X136950104Y-66210129D01*
X136949896Y-66448824D01*
X120177361Y-66448824D01*
X120072071Y-66405104D01*
X119833376Y-66404896D01*
X119612771Y-66496048D01*
X119443841Y-66664683D01*
X119352304Y-66885129D01*
X119352096Y-67123824D01*
X116869096Y-67123824D01*
X116869304Y-66886176D01*
X116778152Y-66665571D01*
X116609517Y-66496641D01*
X116389071Y-66405104D01*
X116150376Y-66404896D01*
X115929771Y-66496048D01*
X115760841Y-66664683D01*
X115669304Y-66885129D01*
X115669096Y-67123824D01*
X115225000Y-67123824D01*
X115225000Y-65223824D01*
X121799896Y-65223824D01*
X121891048Y-65444429D01*
X122059683Y-65613359D01*
X122280129Y-65704896D01*
X122518824Y-65705104D01*
X122739429Y-65613952D01*
X122859691Y-65493900D01*
X126875000Y-65493900D01*
X127023826Y-65464297D01*
X127149994Y-65379994D01*
X127911088Y-64618900D01*
X128051274Y-64618900D01*
X127985571Y-64646048D01*
X127816641Y-64814683D01*
X127725104Y-65035129D01*
X127724896Y-65273824D01*
X127816048Y-65494429D01*
X127984683Y-65663359D01*
X128205129Y-65754896D01*
X128443824Y-65755104D01*
X128664429Y-65663952D01*
X128833359Y-65495317D01*
X128924896Y-65274871D01*
X128925104Y-65036176D01*
X128833952Y-64815571D01*
X128665317Y-64646641D01*
X128598509Y-64618900D01*
X135765433Y-64618900D01*
X135884683Y-64738359D01*
X136105129Y-64829896D01*
X136343824Y-64830104D01*
X136564429Y-64738952D01*
X136733359Y-64570317D01*
X136824896Y-64349871D01*
X136825104Y-64111176D01*
X136733952Y-63890571D01*
X136598174Y-63754555D01*
X147306562Y-63754555D01*
X147397714Y-63975160D01*
X147566349Y-64144090D01*
X147786795Y-64235627D01*
X148025490Y-64235835D01*
X148246095Y-64144683D01*
X148415025Y-63976048D01*
X148506562Y-63755602D01*
X148506673Y-63627555D01*
X150964162Y-63627555D01*
X151055314Y-63848160D01*
X151223949Y-64017090D01*
X151444395Y-64108627D01*
X151683090Y-64108835D01*
X151903695Y-64017683D01*
X152072625Y-63849048D01*
X152164162Y-63628602D01*
X152164370Y-63389907D01*
X152073218Y-63169302D01*
X151904583Y-63000372D01*
X151684137Y-62908835D01*
X151445442Y-62908627D01*
X151224837Y-62999779D01*
X151055907Y-63168414D01*
X150964370Y-63388860D01*
X150964162Y-63627555D01*
X148506673Y-63627555D01*
X148506770Y-63516907D01*
X148415618Y-63296302D01*
X148246983Y-63127372D01*
X148026537Y-63035835D01*
X147787842Y-63035627D01*
X147567237Y-63126779D01*
X147398307Y-63295414D01*
X147306770Y-63515860D01*
X147306562Y-63754555D01*
X136598174Y-63754555D01*
X136565317Y-63721641D01*
X136344871Y-63630104D01*
X136106176Y-63629896D01*
X135885571Y-63721048D01*
X135765309Y-63841100D01*
X127750000Y-63841100D01*
X127601174Y-63870703D01*
X127572769Y-63889683D01*
X127475006Y-63955006D01*
X126713912Y-64716100D01*
X126362540Y-64716100D01*
X126383359Y-64695317D01*
X126474896Y-64474871D01*
X126475104Y-64236176D01*
X126383952Y-64015571D01*
X126215317Y-63846641D01*
X125994871Y-63755104D01*
X125756176Y-63754896D01*
X125535571Y-63846048D01*
X125366641Y-64014683D01*
X125275104Y-64235129D01*
X125274896Y-64473824D01*
X125366048Y-64694429D01*
X125387681Y-64716100D01*
X122859567Y-64716100D01*
X122740317Y-64596641D01*
X122519871Y-64505104D01*
X122281176Y-64504896D01*
X122060571Y-64596048D01*
X121891641Y-64764683D01*
X121800104Y-64985129D01*
X121799896Y-65223824D01*
X115225000Y-65223824D01*
X115225000Y-59623824D01*
X121024896Y-59623824D01*
X121116048Y-59844429D01*
X121284683Y-60013359D01*
X121505129Y-60104896D01*
X121743824Y-60105104D01*
X121964429Y-60013952D01*
X122071969Y-59906600D01*
X132083652Y-59906600D01*
X132325027Y-60147975D01*
X132324896Y-60298824D01*
X132416048Y-60519429D01*
X132584683Y-60688359D01*
X132805129Y-60779896D01*
X133043824Y-60780104D01*
X133264429Y-60688952D01*
X133433359Y-60520317D01*
X133524896Y-60299871D01*
X133525104Y-60061176D01*
X133433952Y-59840571D01*
X133265317Y-59671641D01*
X133044871Y-59580104D01*
X132892920Y-59579972D01*
X132533974Y-59221026D01*
X132403686Y-59133970D01*
X132250000Y-59103400D01*
X122071890Y-59103400D01*
X121965317Y-58996641D01*
X121744871Y-58905104D01*
X121506176Y-58904896D01*
X121285571Y-58996048D01*
X121116641Y-59164683D01*
X121025104Y-59385129D01*
X121024896Y-59623824D01*
X115225000Y-59623824D01*
X115225000Y-57107746D01*
X122299801Y-57107746D01*
X122474509Y-57530572D01*
X122797727Y-57854354D01*
X123220247Y-58029800D01*
X123677746Y-58030199D01*
X124100572Y-57855491D01*
X124424354Y-57532273D01*
X124599800Y-57109753D01*
X124599801Y-57107746D01*
X143099801Y-57107746D01*
X143274509Y-57530572D01*
X143597727Y-57854354D01*
X144020247Y-58029800D01*
X144477746Y-58030199D01*
X144900572Y-57855491D01*
X145224354Y-57532273D01*
X145399800Y-57109753D01*
X145400199Y-56652254D01*
X145225491Y-56229428D01*
X144902273Y-55905646D01*
X144479753Y-55730200D01*
X144022254Y-55729801D01*
X143599428Y-55904509D01*
X143275646Y-56227727D01*
X143100200Y-56650247D01*
X143099801Y-57107746D01*
X124599801Y-57107746D01*
X124600199Y-56652254D01*
X124425491Y-56229428D01*
X124102273Y-55905646D01*
X123679753Y-55730200D01*
X123222254Y-55729801D01*
X122799428Y-55904509D01*
X122475646Y-56227727D01*
X122300200Y-56650247D01*
X122299801Y-57107746D01*
X115225000Y-57107746D01*
X115225000Y-54923824D01*
X134899896Y-54923824D01*
X134991048Y-55144429D01*
X135159683Y-55313359D01*
X135380129Y-55404896D01*
X135618824Y-55405104D01*
X135839429Y-55313952D01*
X135946969Y-55206600D01*
X139628023Y-55206600D01*
X139684683Y-55263359D01*
X139905129Y-55354896D01*
X140143824Y-55355104D01*
X140364429Y-55263952D01*
X140533359Y-55095317D01*
X140624896Y-54874871D01*
X140625104Y-54636176D01*
X140533952Y-54415571D01*
X140365317Y-54246641D01*
X140144871Y-54155104D01*
X139906176Y-54154896D01*
X139685571Y-54246048D01*
X139527944Y-54403400D01*
X135946890Y-54403400D01*
X135840317Y-54296641D01*
X135619871Y-54205104D01*
X135381176Y-54204896D01*
X135160571Y-54296048D01*
X134991641Y-54464683D01*
X134900104Y-54685129D01*
X134899896Y-54923824D01*
X115225000Y-54923824D01*
X115225000Y-53373824D01*
X127724896Y-53373824D01*
X127816048Y-53594429D01*
X127984683Y-53763359D01*
X128205129Y-53854896D01*
X128443824Y-53855104D01*
X128664429Y-53763952D01*
X128833359Y-53595317D01*
X128924896Y-53374871D01*
X128925104Y-53136176D01*
X128833952Y-52915571D01*
X128717409Y-52798824D01*
X129274896Y-52798824D01*
X129366048Y-53019429D01*
X129476449Y-53130023D01*
X129391641Y-53214683D01*
X129300104Y-53435129D01*
X129299896Y-53673824D01*
X129391048Y-53894429D01*
X129559683Y-54063359D01*
X129780129Y-54154896D01*
X130018824Y-54155104D01*
X130239429Y-54063952D01*
X130408359Y-53895317D01*
X130499896Y-53674871D01*
X130500104Y-53436176D01*
X130408952Y-53215571D01*
X130298551Y-53104977D01*
X130383359Y-53020317D01*
X130474896Y-52799871D01*
X130475104Y-52561176D01*
X130383952Y-52340571D01*
X130215317Y-52171641D01*
X129994871Y-52080104D01*
X129756176Y-52079896D01*
X129535571Y-52171048D01*
X129366641Y-52339683D01*
X129275104Y-52560129D01*
X129274896Y-52798824D01*
X128717409Y-52798824D01*
X128665317Y-52746641D01*
X128444871Y-52655104D01*
X128206176Y-52654896D01*
X127985571Y-52746048D01*
X127816641Y-52914683D01*
X127725104Y-53135129D01*
X127724896Y-53373824D01*
X115225000Y-53373824D01*
X115225000Y-51623824D01*
X135024896Y-51623824D01*
X135116048Y-51844429D01*
X135284683Y-52013359D01*
X135505129Y-52104896D01*
X135743824Y-52105104D01*
X135964429Y-52013952D01*
X136071969Y-51906600D01*
X145703067Y-51906600D01*
X145784683Y-51988359D01*
X146005129Y-52079896D01*
X146243824Y-52080104D01*
X146464429Y-51988952D01*
X146633359Y-51820317D01*
X146724896Y-51599871D01*
X146725104Y-51361176D01*
X146633952Y-51140571D01*
X146465317Y-50971641D01*
X146244871Y-50880104D01*
X146006176Y-50879896D01*
X145785571Y-50971048D01*
X145652987Y-51103400D01*
X136071890Y-51103400D01*
X135965317Y-50996641D01*
X135744871Y-50905104D01*
X135506176Y-50904896D01*
X135285571Y-50996048D01*
X135116641Y-51164683D01*
X135025104Y-51385129D01*
X135024896Y-51623824D01*
X115225000Y-51623824D01*
X115225000Y-50107746D01*
X122299801Y-50107746D01*
X122474509Y-50530572D01*
X122797727Y-50854354D01*
X123220247Y-51029800D01*
X123677746Y-51030199D01*
X124100572Y-50855491D01*
X124424354Y-50532273D01*
X124599800Y-50109753D01*
X124599801Y-50107746D01*
X143099801Y-50107746D01*
X143274509Y-50530572D01*
X143597727Y-50854354D01*
X144020247Y-51029800D01*
X144477746Y-51030199D01*
X144900572Y-50855491D01*
X145224354Y-50532273D01*
X145399800Y-50109753D01*
X145400199Y-49652254D01*
X145225491Y-49229428D01*
X144902273Y-48905646D01*
X144479753Y-48730200D01*
X144022254Y-48729801D01*
X143599428Y-48904509D01*
X143275646Y-49227727D01*
X143100200Y-49650247D01*
X143099801Y-50107746D01*
X124599801Y-50107746D01*
X124600199Y-49652254D01*
X124425491Y-49229428D01*
X124102273Y-48905646D01*
X123679753Y-48730200D01*
X123222254Y-48729801D01*
X122799428Y-48904509D01*
X122475646Y-49227727D01*
X122300200Y-49650247D01*
X122299801Y-50107746D01*
X115225000Y-50107746D01*
X115225000Y-48680000D01*
X136975000Y-48680000D01*
X136975000Y-49030000D01*
X136982350Y-49067629D01*
X137004289Y-49100711D01*
X137304289Y-49400711D01*
X137336094Y-49422121D01*
X137375000Y-49430000D01*
X137825000Y-49430000D01*
X137862629Y-49422650D01*
X137895711Y-49400711D01*
X138195711Y-49100711D01*
X138217121Y-49068906D01*
X138225000Y-49030000D01*
X138225000Y-48680000D01*
X138217650Y-48642371D01*
X138195711Y-48609289D01*
X137895711Y-48309289D01*
X137863906Y-48287879D01*
X137825000Y-48280000D01*
X137425000Y-48280000D01*
X137394588Y-48284737D01*
X137359921Y-48304074D01*
X137009921Y-48604074D01*
X136982879Y-48641094D01*
X136975000Y-48680000D01*
X115225000Y-48680000D01*
X115225000Y-46855000D01*
X152475000Y-46855000D01*
X152475000Y-107780000D01*
M02*
