G04 #@! TF.GenerationSoftware,KiCad,Pcbnew,(5.0.1-3-g963ef8bb5)*
G04 #@! TF.CreationDate,2019-04-02T10:59:07-04:00*
G04 #@! TF.ProjectId,Tympan_D,54796D70616E5F442E6B696361645F70,rev?*
G04 #@! TF.SameCoordinates,PX6d878d0PY72e6100*
G04 #@! TF.FileFunction,Soldermask,Bot*
G04 #@! TF.FilePolarity,Negative*
%FSLAX46Y46*%
G04 Gerber Fmt 4.6, Leading zero omitted, Abs format (unit mm)*
G04 Created by KiCad (PCBNEW (5.0.1-3-g963ef8bb5)) date Tuesday, April 02, 2019 at 10:59:07 AM*
%MOMM*%
%LPD*%
G01*
G04 APERTURE LIST*
%ADD10C,0.300000*%
%ADD11C,0.100000*%
G04 APERTURE END LIST*
D10*
G04 #@! TO.C,MIC2*
X3675250Y55500000D02*
G75*
G03X3675250Y55500000I-675250J0D01*
G01*
G04 #@! TO.C,MIC1*
X35675250Y55500000D02*
G75*
G03X35675250Y55500000I-675250J0D01*
G01*
D11*
G36*
X16697028Y2139147D02*
X16838401Y2096263D01*
X16968693Y2026620D01*
X17082896Y1932896D01*
X17176620Y1818693D01*
X17246263Y1688401D01*
X17289147Y1547028D01*
X17303628Y1400000D01*
X17289147Y1252972D01*
X17246263Y1111599D01*
X17176620Y981307D01*
X17082896Y867104D01*
X16968693Y773380D01*
X16838401Y703737D01*
X16697028Y660853D01*
X16586840Y650000D01*
X16513160Y650000D01*
X16402972Y660853D01*
X16261599Y703737D01*
X16131307Y773380D01*
X16017104Y867104D01*
X15923380Y981307D01*
X15853737Y1111599D01*
X15810853Y1252972D01*
X15796372Y1400000D01*
X15810853Y1547028D01*
X15853737Y1688401D01*
X15923380Y1818693D01*
X16017104Y1932896D01*
X16131307Y2026620D01*
X16261599Y2096263D01*
X16402972Y2139147D01*
X16513160Y2150000D01*
X16586840Y2150000D01*
X16697028Y2139147D01*
X16697028Y2139147D01*
G37*
G36*
X10097028Y2139147D02*
X10238401Y2096263D01*
X10368693Y2026620D01*
X10482896Y1932896D01*
X10576620Y1818693D01*
X10646263Y1688401D01*
X10689147Y1547028D01*
X10703628Y1400000D01*
X10689147Y1252972D01*
X10646263Y1111599D01*
X10576620Y981307D01*
X10482896Y867104D01*
X10368693Y773380D01*
X10238401Y703737D01*
X10097028Y660853D01*
X9986840Y650000D01*
X9913160Y650000D01*
X9802972Y660853D01*
X9661599Y703737D01*
X9531307Y773380D01*
X9417104Y867104D01*
X9323380Y981307D01*
X9253737Y1111599D01*
X9210853Y1252972D01*
X9196372Y1400000D01*
X9210853Y1547028D01*
X9253737Y1688401D01*
X9323380Y1818693D01*
X9417104Y1932896D01*
X9531307Y2026620D01*
X9661599Y2096263D01*
X9802972Y2139147D01*
X9913160Y2150000D01*
X9986840Y2150000D01*
X10097028Y2139147D01*
X10097028Y2139147D01*
G37*
G36*
X24550000Y1900000D02*
X23850000Y1900000D01*
X23850000Y2400000D01*
X24550000Y2400000D01*
X24550000Y1900000D01*
X24550000Y1900000D01*
G37*
G36*
X23550000Y1900000D02*
X22850000Y1900000D01*
X22850000Y2400000D01*
X23550000Y2400000D01*
X23550000Y1900000D01*
X23550000Y1900000D01*
G37*
G36*
X22550000Y1900000D02*
X21850000Y1900000D01*
X21850000Y2400000D01*
X22550000Y2400000D01*
X22550000Y1900000D01*
X22550000Y1900000D01*
G37*
G36*
X15000000Y2400000D02*
X11500000Y2400000D01*
X11500000Y4000000D01*
X15000000Y4000000D01*
X15000000Y2400000D01*
X15000000Y2400000D01*
G37*
G36*
X24550000Y2800000D02*
X23850000Y2800000D01*
X23850000Y3300000D01*
X24550000Y3300000D01*
X24550000Y2800000D01*
X24550000Y2800000D01*
G37*
G36*
X23550000Y2800000D02*
X22850000Y2800000D01*
X22850000Y3300000D01*
X23550000Y3300000D01*
X23550000Y2800000D01*
X23550000Y2800000D01*
G37*
G36*
X22550000Y2800000D02*
X21850000Y2800000D01*
X21850000Y3300000D01*
X22550000Y3300000D01*
X22550000Y2800000D01*
X22550000Y2800000D01*
G37*
G36*
X20600000Y5000000D02*
X17000000Y5000000D01*
X17000000Y6100000D01*
X20600000Y6100000D01*
X20600000Y5000000D01*
X20600000Y5000000D01*
G37*
G36*
X25900000Y5100000D02*
X24100000Y5100000D01*
X24100000Y7700000D01*
X25900000Y7700000D01*
X25900000Y5100000D01*
X25900000Y5100000D01*
G37*
G36*
X20600000Y7000000D02*
X17000000Y7000000D01*
X17000000Y8100000D01*
X20600000Y8100000D01*
X20600000Y7000000D01*
X20600000Y7000000D01*
G37*
G36*
X31375000Y8770000D02*
X30625000Y8770000D01*
X30625000Y9930000D01*
X31375000Y9930000D01*
X31375000Y8770000D01*
X31375000Y8770000D01*
G37*
G36*
X30425000Y8770000D02*
X29675000Y8770000D01*
X29675000Y9930000D01*
X30425000Y9930000D01*
X30425000Y8770000D01*
X30425000Y8770000D01*
G37*
G36*
X29475000Y8770000D02*
X28725000Y8770000D01*
X28725000Y9930000D01*
X29475000Y9930000D01*
X29475000Y8770000D01*
X29475000Y8770000D01*
G37*
G36*
X15000000Y9100000D02*
X11500000Y9100000D01*
X11500000Y10700000D01*
X15000000Y10700000D01*
X15000000Y9100000D01*
X15000000Y9100000D01*
G37*
G36*
X25900000Y9100000D02*
X24100000Y9100000D01*
X24100000Y11700000D01*
X25900000Y11700000D01*
X25900000Y9100000D01*
X25900000Y9100000D01*
G37*
G36*
X28150000Y10100000D02*
X27550000Y10100000D01*
X27550000Y10800000D01*
X28150000Y10800000D01*
X28150000Y10100000D01*
X28150000Y10100000D01*
G37*
G36*
X31375000Y10970000D02*
X30625000Y10970000D01*
X30625000Y12130000D01*
X31375000Y12130000D01*
X31375000Y10970000D01*
X31375000Y10970000D01*
G37*
G36*
X29475000Y10970000D02*
X28725000Y10970000D01*
X28725000Y12130000D01*
X29475000Y12130000D01*
X29475000Y10970000D01*
X29475000Y10970000D01*
G37*
G36*
X28150000Y11200000D02*
X27550000Y11200000D01*
X27550000Y11900000D01*
X28150000Y11900000D01*
X28150000Y11200000D01*
X28150000Y11200000D01*
G37*
G36*
X1942127Y13514509D02*
X2078787Y13473054D01*
X2204737Y13405733D01*
X2315133Y13315133D01*
X2405733Y13204737D01*
X2473054Y13078787D01*
X2514509Y12942127D01*
X2528507Y12800000D01*
X2514509Y12657873D01*
X2473054Y12521213D01*
X2405733Y12395263D01*
X2315133Y12284867D01*
X2204737Y12194267D01*
X2078787Y12126946D01*
X1942127Y12085491D01*
X1835612Y12075000D01*
X1764388Y12075000D01*
X1657873Y12085491D01*
X1521213Y12126946D01*
X1395263Y12194267D01*
X1284867Y12284867D01*
X1194267Y12395263D01*
X1126946Y12521213D01*
X1085491Y12657873D01*
X1071493Y12800000D01*
X1085491Y12942127D01*
X1126946Y13078787D01*
X1194267Y13204737D01*
X1284867Y13315133D01*
X1395263Y13405733D01*
X1521213Y13473054D01*
X1657873Y13514509D01*
X1764388Y13525000D01*
X1835612Y13525000D01*
X1942127Y13514509D01*
X1942127Y13514509D01*
G37*
G36*
X3942127Y13514509D02*
X4078787Y13473054D01*
X4204737Y13405733D01*
X4315133Y13315133D01*
X4405733Y13204737D01*
X4473054Y13078787D01*
X4514509Y12942127D01*
X4528507Y12800000D01*
X4514509Y12657873D01*
X4473054Y12521213D01*
X4405733Y12395263D01*
X4315133Y12284867D01*
X4204737Y12194267D01*
X4078787Y12126946D01*
X3942127Y12085491D01*
X3835612Y12075000D01*
X3764388Y12075000D01*
X3657873Y12085491D01*
X3521213Y12126946D01*
X3395263Y12194267D01*
X3284867Y12284867D01*
X3194267Y12395263D01*
X3126946Y12521213D01*
X3085491Y12657873D01*
X3071493Y12800000D01*
X3085491Y12942127D01*
X3126946Y13078787D01*
X3194267Y13204737D01*
X3284867Y13315133D01*
X3395263Y13405733D01*
X3521213Y13473054D01*
X3657873Y13514509D01*
X3764388Y13525000D01*
X3835612Y13525000D01*
X3942127Y13514509D01*
X3942127Y13514509D01*
G37*
G36*
X6525000Y12075000D02*
X5075000Y12075000D01*
X5075000Y13525000D01*
X6525000Y13525000D01*
X6525000Y12075000D01*
X6525000Y12075000D01*
G37*
G36*
X30250000Y12550000D02*
X29550000Y12550000D01*
X29550000Y13150000D01*
X30250000Y13150000D01*
X30250000Y12550000D01*
X30250000Y12550000D01*
G37*
G36*
X31350000Y12550000D02*
X30650000Y12550000D01*
X30650000Y13150000D01*
X31350000Y13150000D01*
X31350000Y12550000D01*
X31350000Y12550000D01*
G37*
G36*
X11650000Y12900000D02*
X9050000Y12900000D01*
X9050000Y14700000D01*
X11650000Y14700000D01*
X11650000Y12900000D01*
X11650000Y12900000D01*
G37*
G36*
X15650000Y12900000D02*
X13050000Y12900000D01*
X13050000Y14700000D01*
X15650000Y14700000D01*
X15650000Y12900000D01*
X15650000Y12900000D01*
G37*
G36*
X36600000Y14750000D02*
X31500000Y14750000D01*
X31500000Y18850000D01*
X36600000Y18850000D01*
X36600000Y14750000D01*
X36600000Y14750000D01*
G37*
G36*
X29600000Y14750000D02*
X24500000Y14750000D01*
X24500000Y18850000D01*
X29600000Y18850000D01*
X29600000Y14750000D01*
X29600000Y14750000D01*
G37*
G36*
X15050000Y18525000D02*
X13550000Y18525000D01*
X13550000Y19825000D01*
X15050000Y19825000D01*
X15050000Y18525000D01*
X15050000Y18525000D01*
G37*
G36*
X12850000Y18525000D02*
X11350000Y18525000D01*
X11350000Y19825000D01*
X12850000Y19825000D01*
X12850000Y18525000D01*
X12850000Y18525000D01*
G37*
G36*
X2750000Y18750000D02*
X1650000Y18750000D01*
X1650000Y20450000D01*
X2750000Y20450000D01*
X2750000Y18750000D01*
X2750000Y18750000D01*
G37*
G36*
X5750000Y18750000D02*
X4650000Y18750000D01*
X4650000Y20450000D01*
X5750000Y20450000D01*
X5750000Y18750000D01*
X5750000Y18750000D01*
G37*
G36*
X19575000Y19450000D02*
X18375000Y19450000D01*
X18375000Y21450000D01*
X19575000Y21450000D01*
X19575000Y19450000D01*
X19575000Y19450000D01*
G37*
G36*
X17075000Y19450000D02*
X15875000Y19450000D01*
X15875000Y21450000D01*
X17075000Y21450000D01*
X17075000Y19450000D01*
X17075000Y19450000D01*
G37*
G36*
X15050000Y20125000D02*
X13550000Y20125000D01*
X13550000Y21425000D01*
X15050000Y21425000D01*
X15050000Y20125000D01*
X15050000Y20125000D01*
G37*
G36*
X12850000Y20125000D02*
X11350000Y20125000D01*
X11350000Y21425000D01*
X12850000Y21425000D01*
X12850000Y20125000D01*
X12850000Y20125000D01*
G37*
G36*
X8064209Y21572105D02*
X8101906Y21560670D01*
X8136651Y21542099D01*
X8167106Y21517106D01*
X8192099Y21486651D01*
X8210670Y21451906D01*
X8222105Y21414209D01*
X8225000Y21384822D01*
X8225000Y20915178D01*
X8222105Y20885791D01*
X8210670Y20848094D01*
X8192099Y20813349D01*
X8167106Y20782894D01*
X8136650Y20757902D01*
X8101905Y20739330D01*
X8064208Y20727895D01*
X8025000Y20724033D01*
X7985791Y20727895D01*
X7948094Y20739330D01*
X7913349Y20757901D01*
X7882894Y20782894D01*
X7857902Y20813350D01*
X7839330Y20848095D01*
X7827895Y20885792D01*
X7825000Y20915179D01*
X7825001Y21384822D01*
X7827896Y21414209D01*
X7839331Y21451906D01*
X7857902Y21486651D01*
X7882895Y21517106D01*
X7913350Y21542099D01*
X7948095Y21560670D01*
X7985792Y21572105D01*
X8025000Y21575967D01*
X8064209Y21572105D01*
X8064209Y21572105D01*
G37*
G36*
X8564209Y21572105D02*
X8601906Y21560670D01*
X8636651Y21542099D01*
X8667106Y21517106D01*
X8692099Y21486651D01*
X8710670Y21451906D01*
X8722105Y21414209D01*
X8725000Y21384822D01*
X8725000Y20915178D01*
X8722105Y20885791D01*
X8710670Y20848094D01*
X8692099Y20813349D01*
X8667106Y20782894D01*
X8636650Y20757902D01*
X8601905Y20739330D01*
X8564208Y20727895D01*
X8525000Y20724033D01*
X8485791Y20727895D01*
X8448094Y20739330D01*
X8413349Y20757901D01*
X8382894Y20782894D01*
X8357902Y20813350D01*
X8339330Y20848095D01*
X8327895Y20885792D01*
X8325000Y20915179D01*
X8325001Y21384822D01*
X8327896Y21414209D01*
X8339331Y21451906D01*
X8357902Y21486651D01*
X8382895Y21517106D01*
X8413350Y21542099D01*
X8448095Y21560670D01*
X8485792Y21572105D01*
X8525000Y21575967D01*
X8564209Y21572105D01*
X8564209Y21572105D01*
G37*
G36*
X9064209Y21572105D02*
X9101906Y21560670D01*
X9136651Y21542099D01*
X9167106Y21517106D01*
X9192099Y21486651D01*
X9210670Y21451906D01*
X9222105Y21414209D01*
X9225000Y21384822D01*
X9225000Y20915178D01*
X9222105Y20885791D01*
X9210670Y20848094D01*
X9192099Y20813349D01*
X9167106Y20782894D01*
X9136650Y20757902D01*
X9101905Y20739330D01*
X9064208Y20727895D01*
X9025000Y20724033D01*
X8985791Y20727895D01*
X8948094Y20739330D01*
X8913349Y20757901D01*
X8882894Y20782894D01*
X8857902Y20813350D01*
X8839330Y20848095D01*
X8827895Y20885792D01*
X8825000Y20915179D01*
X8825001Y21384822D01*
X8827896Y21414209D01*
X8839331Y21451906D01*
X8857902Y21486651D01*
X8882895Y21517106D01*
X8913350Y21542099D01*
X8948095Y21560670D01*
X8985792Y21572105D01*
X9025000Y21575967D01*
X9064209Y21572105D01*
X9064209Y21572105D01*
G37*
G36*
X9564209Y21572105D02*
X9601906Y21560670D01*
X9636651Y21542099D01*
X9667106Y21517106D01*
X9692099Y21486651D01*
X9710670Y21451906D01*
X9722105Y21414209D01*
X9725000Y21384822D01*
X9725000Y20915178D01*
X9722105Y20885791D01*
X9710670Y20848094D01*
X9692099Y20813349D01*
X9667106Y20782894D01*
X9636650Y20757902D01*
X9601905Y20739330D01*
X9564208Y20727895D01*
X9525000Y20724033D01*
X9485791Y20727895D01*
X9448094Y20739330D01*
X9413349Y20757901D01*
X9382894Y20782894D01*
X9357902Y20813350D01*
X9339330Y20848095D01*
X9327895Y20885792D01*
X9325000Y20915179D01*
X9325001Y21384822D01*
X9327896Y21414209D01*
X9339331Y21451906D01*
X9357902Y21486651D01*
X9382895Y21517106D01*
X9413350Y21542099D01*
X9448095Y21560670D01*
X9485792Y21572105D01*
X9525000Y21575967D01*
X9564209Y21572105D01*
X9564209Y21572105D01*
G37*
G36*
X9725000Y21675000D02*
X7825000Y21675000D01*
X7825000Y23575000D01*
X9725000Y23575000D01*
X9725000Y21675000D01*
X9725000Y21675000D01*
G37*
G36*
X7564209Y22072105D02*
X7601906Y22060670D01*
X7636651Y22042099D01*
X7667106Y22017106D01*
X7692099Y21986651D01*
X7710670Y21951906D01*
X7722105Y21914209D01*
X7725967Y21875000D01*
X7722105Y21835791D01*
X7710670Y21798094D01*
X7692099Y21763349D01*
X7667106Y21732894D01*
X7636651Y21707901D01*
X7601906Y21689330D01*
X7564209Y21677895D01*
X7534822Y21675000D01*
X7065178Y21675000D01*
X7035791Y21677895D01*
X6998094Y21689330D01*
X6963349Y21707901D01*
X6932894Y21732894D01*
X6907901Y21763349D01*
X6889330Y21798094D01*
X6877895Y21835791D01*
X6874033Y21875000D01*
X6877895Y21914209D01*
X6889330Y21951906D01*
X6907901Y21986651D01*
X6932894Y22017106D01*
X6963349Y22042099D01*
X6998094Y22060670D01*
X7035791Y22072105D01*
X7065178Y22075000D01*
X7534822Y22075000D01*
X7564209Y22072105D01*
X7564209Y22072105D01*
G37*
G36*
X10514209Y22072105D02*
X10551906Y22060670D01*
X10586651Y22042099D01*
X10617106Y22017106D01*
X10642099Y21986651D01*
X10660670Y21951906D01*
X10672105Y21914209D01*
X10675967Y21875000D01*
X10672105Y21835791D01*
X10660670Y21798094D01*
X10642099Y21763349D01*
X10617106Y21732894D01*
X10586651Y21707901D01*
X10551906Y21689330D01*
X10514209Y21677895D01*
X10484822Y21675000D01*
X10015178Y21675000D01*
X9985791Y21677895D01*
X9948094Y21689330D01*
X9913349Y21707901D01*
X9882894Y21732894D01*
X9857901Y21763349D01*
X9839330Y21798094D01*
X9827895Y21835791D01*
X9824033Y21875000D01*
X9827895Y21914209D01*
X9839330Y21951906D01*
X9857901Y21986651D01*
X9882894Y22017106D01*
X9913349Y22042099D01*
X9948094Y22060670D01*
X9985791Y22072105D01*
X10015178Y22075000D01*
X10484822Y22075000D01*
X10514209Y22072105D01*
X10514209Y22072105D01*
G37*
G36*
X7564209Y22572105D02*
X7601906Y22560670D01*
X7636651Y22542099D01*
X7667106Y22517106D01*
X7692099Y22486651D01*
X7710670Y22451906D01*
X7722105Y22414209D01*
X7725967Y22375000D01*
X7722105Y22335791D01*
X7710670Y22298094D01*
X7692099Y22263349D01*
X7667106Y22232894D01*
X7636651Y22207901D01*
X7601906Y22189330D01*
X7564209Y22177895D01*
X7534822Y22175000D01*
X7065178Y22175000D01*
X7035791Y22177895D01*
X6998094Y22189330D01*
X6963349Y22207901D01*
X6932894Y22232894D01*
X6907901Y22263349D01*
X6889330Y22298094D01*
X6877895Y22335791D01*
X6874033Y22375000D01*
X6877895Y22414209D01*
X6889330Y22451906D01*
X6907901Y22486651D01*
X6932894Y22517106D01*
X6963349Y22542099D01*
X6998094Y22560670D01*
X7035791Y22572105D01*
X7065178Y22575000D01*
X7534822Y22575000D01*
X7564209Y22572105D01*
X7564209Y22572105D01*
G37*
G36*
X10514209Y22572105D02*
X10551906Y22560670D01*
X10586651Y22542099D01*
X10617106Y22517106D01*
X10642099Y22486651D01*
X10660670Y22451906D01*
X10672105Y22414209D01*
X10675967Y22375000D01*
X10672105Y22335791D01*
X10660670Y22298094D01*
X10642099Y22263349D01*
X10617106Y22232894D01*
X10586651Y22207901D01*
X10551906Y22189330D01*
X10514209Y22177895D01*
X10484822Y22175000D01*
X10015178Y22175000D01*
X9985791Y22177895D01*
X9948094Y22189330D01*
X9913349Y22207901D01*
X9882894Y22232894D01*
X9857901Y22263349D01*
X9839330Y22298094D01*
X9827895Y22335791D01*
X9824033Y22375000D01*
X9827895Y22414209D01*
X9839330Y22451906D01*
X9857901Y22486651D01*
X9882894Y22517106D01*
X9913349Y22542099D01*
X9948094Y22560670D01*
X9985791Y22572105D01*
X10015178Y22575000D01*
X10484822Y22575000D01*
X10514209Y22572105D01*
X10514209Y22572105D01*
G37*
G36*
X13264848Y23112576D02*
X13313222Y23102954D01*
X13367852Y23080325D01*
X13417022Y23047471D01*
X13458831Y23005662D01*
X13491685Y22956492D01*
X13514314Y22901862D01*
X13525850Y22843865D01*
X13525850Y22784735D01*
X13514314Y22726738D01*
X13491685Y22672108D01*
X13458831Y22622938D01*
X13417022Y22581129D01*
X13367852Y22548275D01*
X13313222Y22525646D01*
X13270287Y22517106D01*
X13255226Y22514110D01*
X13196094Y22514110D01*
X13181033Y22517106D01*
X13138098Y22525646D01*
X13083468Y22548275D01*
X13034298Y22581129D01*
X12992489Y22622938D01*
X12959635Y22672108D01*
X12937006Y22726738D01*
X12925470Y22784735D01*
X12925470Y22843865D01*
X12937006Y22901862D01*
X12959635Y22956492D01*
X12992489Y23005662D01*
X13034298Y23047471D01*
X13083468Y23080325D01*
X13138098Y23102954D01*
X13186472Y23112576D01*
X13196094Y23114490D01*
X13255226Y23114490D01*
X13264848Y23112576D01*
X13264848Y23112576D01*
G37*
G36*
X14263068Y23112576D02*
X14311442Y23102954D01*
X14366072Y23080325D01*
X14415242Y23047471D01*
X14457051Y23005662D01*
X14489905Y22956492D01*
X14512534Y22901862D01*
X14524070Y22843865D01*
X14524070Y22784735D01*
X14512534Y22726738D01*
X14489905Y22672108D01*
X14457051Y22622938D01*
X14415242Y22581129D01*
X14366072Y22548275D01*
X14311442Y22525646D01*
X14268507Y22517106D01*
X14253446Y22514110D01*
X14194314Y22514110D01*
X14179253Y22517106D01*
X14136318Y22525646D01*
X14081688Y22548275D01*
X14032518Y22581129D01*
X13990709Y22622938D01*
X13957855Y22672108D01*
X13935226Y22726738D01*
X13923690Y22784735D01*
X13923690Y22843865D01*
X13935226Y22901862D01*
X13957855Y22956492D01*
X13990709Y23005662D01*
X14032518Y23047471D01*
X14081688Y23080325D01*
X14136318Y23102954D01*
X14184692Y23112576D01*
X14194314Y23114490D01*
X14253446Y23114490D01*
X14263068Y23112576D01*
X14263068Y23112576D01*
G37*
G36*
X15263828Y23112576D02*
X15312202Y23102954D01*
X15366832Y23080325D01*
X15416002Y23047471D01*
X15457811Y23005662D01*
X15490665Y22956492D01*
X15513294Y22901862D01*
X15524830Y22843865D01*
X15524830Y22784735D01*
X15513294Y22726738D01*
X15490665Y22672108D01*
X15457811Y22622938D01*
X15416002Y22581129D01*
X15366832Y22548275D01*
X15312202Y22525646D01*
X15269267Y22517106D01*
X15254206Y22514110D01*
X15195074Y22514110D01*
X15180013Y22517106D01*
X15137078Y22525646D01*
X15082448Y22548275D01*
X15033278Y22581129D01*
X14991469Y22622938D01*
X14958615Y22672108D01*
X14935986Y22726738D01*
X14924450Y22784735D01*
X14924450Y22843865D01*
X14935986Y22901862D01*
X14958615Y22956492D01*
X14991469Y23005662D01*
X15033278Y23047471D01*
X15082448Y23080325D01*
X15137078Y23102954D01*
X15185452Y23112576D01*
X15195074Y23114490D01*
X15254206Y23114490D01*
X15263828Y23112576D01*
X15263828Y23112576D01*
G37*
G36*
X16264588Y23112576D02*
X16312962Y23102954D01*
X16367592Y23080325D01*
X16416762Y23047471D01*
X16458571Y23005662D01*
X16491425Y22956492D01*
X16514054Y22901862D01*
X16525590Y22843865D01*
X16525590Y22784735D01*
X16514054Y22726738D01*
X16491425Y22672108D01*
X16458571Y22622938D01*
X16416762Y22581129D01*
X16367592Y22548275D01*
X16312962Y22525646D01*
X16270027Y22517106D01*
X16254966Y22514110D01*
X16195834Y22514110D01*
X16180773Y22517106D01*
X16137838Y22525646D01*
X16083208Y22548275D01*
X16034038Y22581129D01*
X15992229Y22622938D01*
X15959375Y22672108D01*
X15936746Y22726738D01*
X15925210Y22784735D01*
X15925210Y22843865D01*
X15936746Y22901862D01*
X15959375Y22956492D01*
X15992229Y23005662D01*
X16034038Y23047471D01*
X16083208Y23080325D01*
X16137838Y23102954D01*
X16186212Y23112576D01*
X16195834Y23114490D01*
X16254966Y23114490D01*
X16264588Y23112576D01*
X16264588Y23112576D01*
G37*
G36*
X12264088Y23112576D02*
X12312462Y23102954D01*
X12367092Y23080325D01*
X12416262Y23047471D01*
X12458071Y23005662D01*
X12490925Y22956492D01*
X12513554Y22901862D01*
X12525090Y22843865D01*
X12525090Y22784735D01*
X12513554Y22726738D01*
X12490925Y22672108D01*
X12458071Y22622938D01*
X12416262Y22581129D01*
X12367092Y22548275D01*
X12312462Y22525646D01*
X12269527Y22517106D01*
X12254466Y22514110D01*
X12195334Y22514110D01*
X12180273Y22517106D01*
X12137338Y22525646D01*
X12082708Y22548275D01*
X12033538Y22581129D01*
X11991729Y22622938D01*
X11958875Y22672108D01*
X11936246Y22726738D01*
X11924710Y22784735D01*
X11924710Y22843865D01*
X11936246Y22901862D01*
X11958875Y22956492D01*
X11991729Y23005662D01*
X12033538Y23047471D01*
X12082708Y23080325D01*
X12137338Y23102954D01*
X12185712Y23112576D01*
X12195334Y23114490D01*
X12254466Y23114490D01*
X12264088Y23112576D01*
X12264088Y23112576D01*
G37*
G36*
X23264828Y23112576D02*
X23313202Y23102954D01*
X23367832Y23080325D01*
X23417002Y23047471D01*
X23458811Y23005662D01*
X23491665Y22956492D01*
X23514294Y22901862D01*
X23525830Y22843865D01*
X23525830Y22784735D01*
X23514294Y22726738D01*
X23491665Y22672108D01*
X23458811Y22622938D01*
X23417002Y22581129D01*
X23367832Y22548275D01*
X23313202Y22525646D01*
X23270267Y22517106D01*
X23255206Y22514110D01*
X23196074Y22514110D01*
X23181013Y22517106D01*
X23138078Y22525646D01*
X23083448Y22548275D01*
X23034278Y22581129D01*
X22992469Y22622938D01*
X22959615Y22672108D01*
X22936986Y22726738D01*
X22925450Y22784735D01*
X22925450Y22843865D01*
X22936986Y22901862D01*
X22959615Y22956492D01*
X22992469Y23005662D01*
X23034278Y23047471D01*
X23083448Y23080325D01*
X23138078Y23102954D01*
X23186452Y23112576D01*
X23196074Y23114490D01*
X23255206Y23114490D01*
X23264828Y23112576D01*
X23264828Y23112576D01*
G37*
G36*
X22264068Y23112576D02*
X22312442Y23102954D01*
X22367072Y23080325D01*
X22416242Y23047471D01*
X22458051Y23005662D01*
X22490905Y22956492D01*
X22513534Y22901862D01*
X22525070Y22843865D01*
X22525070Y22784735D01*
X22513534Y22726738D01*
X22490905Y22672108D01*
X22458051Y22622938D01*
X22416242Y22581129D01*
X22367072Y22548275D01*
X22312442Y22525646D01*
X22269507Y22517106D01*
X22254446Y22514110D01*
X22195314Y22514110D01*
X22180253Y22517106D01*
X22137318Y22525646D01*
X22082688Y22548275D01*
X22033518Y22581129D01*
X21991709Y22622938D01*
X21958855Y22672108D01*
X21936226Y22726738D01*
X21924690Y22784735D01*
X21924690Y22843865D01*
X21936226Y22901862D01*
X21958855Y22956492D01*
X21991709Y23005662D01*
X22033518Y23047471D01*
X22082688Y23080325D01*
X22137318Y23102954D01*
X22185692Y23112576D01*
X22195314Y23114490D01*
X22254446Y23114490D01*
X22264068Y23112576D01*
X22264068Y23112576D01*
G37*
G36*
X21263308Y23112576D02*
X21311682Y23102954D01*
X21366312Y23080325D01*
X21415482Y23047471D01*
X21457291Y23005662D01*
X21490145Y22956492D01*
X21512774Y22901862D01*
X21524310Y22843865D01*
X21524310Y22784735D01*
X21512774Y22726738D01*
X21490145Y22672108D01*
X21457291Y22622938D01*
X21415482Y22581129D01*
X21366312Y22548275D01*
X21311682Y22525646D01*
X21268747Y22517106D01*
X21253686Y22514110D01*
X21194554Y22514110D01*
X21179493Y22517106D01*
X21136558Y22525646D01*
X21081928Y22548275D01*
X21032758Y22581129D01*
X20990949Y22622938D01*
X20958095Y22672108D01*
X20935466Y22726738D01*
X20923930Y22784735D01*
X20923930Y22843865D01*
X20935466Y22901862D01*
X20958095Y22956492D01*
X20990949Y23005662D01*
X21032758Y23047471D01*
X21081928Y23080325D01*
X21136558Y23102954D01*
X21184932Y23112576D01*
X21194554Y23114490D01*
X21253686Y23114490D01*
X21263308Y23112576D01*
X21263308Y23112576D01*
G37*
G36*
X20265088Y23112576D02*
X20313462Y23102954D01*
X20368092Y23080325D01*
X20417262Y23047471D01*
X20459071Y23005662D01*
X20491925Y22956492D01*
X20514554Y22901862D01*
X20526090Y22843865D01*
X20526090Y22784735D01*
X20514554Y22726738D01*
X20491925Y22672108D01*
X20459071Y22622938D01*
X20417262Y22581129D01*
X20368092Y22548275D01*
X20313462Y22525646D01*
X20270527Y22517106D01*
X20255466Y22514110D01*
X20196334Y22514110D01*
X20181273Y22517106D01*
X20138338Y22525646D01*
X20083708Y22548275D01*
X20034538Y22581129D01*
X19992729Y22622938D01*
X19959875Y22672108D01*
X19937246Y22726738D01*
X19925710Y22784735D01*
X19925710Y22843865D01*
X19937246Y22901862D01*
X19959875Y22956492D01*
X19992729Y23005662D01*
X20034538Y23047471D01*
X20083708Y23080325D01*
X20138338Y23102954D01*
X20186712Y23112576D01*
X20196334Y23114490D01*
X20255466Y23114490D01*
X20265088Y23112576D01*
X20265088Y23112576D01*
G37*
G36*
X19264328Y23112576D02*
X19312702Y23102954D01*
X19367332Y23080325D01*
X19416502Y23047471D01*
X19458311Y23005662D01*
X19491165Y22956492D01*
X19513794Y22901862D01*
X19525330Y22843865D01*
X19525330Y22784735D01*
X19513794Y22726738D01*
X19491165Y22672108D01*
X19458311Y22622938D01*
X19416502Y22581129D01*
X19367332Y22548275D01*
X19312702Y22525646D01*
X19269767Y22517106D01*
X19254706Y22514110D01*
X19195574Y22514110D01*
X19180513Y22517106D01*
X19137578Y22525646D01*
X19082948Y22548275D01*
X19033778Y22581129D01*
X18991969Y22622938D01*
X18959115Y22672108D01*
X18936486Y22726738D01*
X18924950Y22784735D01*
X18924950Y22843865D01*
X18936486Y22901862D01*
X18959115Y22956492D01*
X18991969Y23005662D01*
X19033778Y23047471D01*
X19082948Y23080325D01*
X19137578Y23102954D01*
X19185952Y23112576D01*
X19195574Y23114490D01*
X19254706Y23114490D01*
X19264328Y23112576D01*
X19264328Y23112576D01*
G37*
G36*
X18263568Y23112576D02*
X18311942Y23102954D01*
X18366572Y23080325D01*
X18415742Y23047471D01*
X18457551Y23005662D01*
X18490405Y22956492D01*
X18513034Y22901862D01*
X18524570Y22843865D01*
X18524570Y22784735D01*
X18513034Y22726738D01*
X18490405Y22672108D01*
X18457551Y22622938D01*
X18415742Y22581129D01*
X18366572Y22548275D01*
X18311942Y22525646D01*
X18269007Y22517106D01*
X18253946Y22514110D01*
X18194814Y22514110D01*
X18179753Y22517106D01*
X18136818Y22525646D01*
X18082188Y22548275D01*
X18033018Y22581129D01*
X17991209Y22622938D01*
X17958355Y22672108D01*
X17935726Y22726738D01*
X17924190Y22784735D01*
X17924190Y22843865D01*
X17935726Y22901862D01*
X17958355Y22956492D01*
X17991209Y23005662D01*
X18033018Y23047471D01*
X18082188Y23080325D01*
X18136818Y23102954D01*
X18185192Y23112576D01*
X18194814Y23114490D01*
X18253946Y23114490D01*
X18263568Y23112576D01*
X18263568Y23112576D01*
G37*
G36*
X17265348Y23112576D02*
X17313722Y23102954D01*
X17368352Y23080325D01*
X17417522Y23047471D01*
X17459331Y23005662D01*
X17492185Y22956492D01*
X17514814Y22901862D01*
X17526350Y22843865D01*
X17526350Y22784735D01*
X17514814Y22726738D01*
X17492185Y22672108D01*
X17459331Y22622938D01*
X17417522Y22581129D01*
X17368352Y22548275D01*
X17313722Y22525646D01*
X17270787Y22517106D01*
X17255726Y22514110D01*
X17196594Y22514110D01*
X17181533Y22517106D01*
X17138598Y22525646D01*
X17083968Y22548275D01*
X17034798Y22581129D01*
X16992989Y22622938D01*
X16960135Y22672108D01*
X16937506Y22726738D01*
X16925970Y22784735D01*
X16925970Y22843865D01*
X16937506Y22901862D01*
X16960135Y22956492D01*
X16992989Y23005662D01*
X17034798Y23047471D01*
X17083968Y23080325D01*
X17138598Y23102954D01*
X17186972Y23112576D01*
X17196594Y23114490D01*
X17255726Y23114490D01*
X17265348Y23112576D01*
X17265348Y23112576D01*
G37*
G36*
X10514209Y23072105D02*
X10551906Y23060670D01*
X10586651Y23042099D01*
X10617106Y23017106D01*
X10642099Y22986651D01*
X10660670Y22951906D01*
X10672105Y22914209D01*
X10675967Y22875000D01*
X10672105Y22835791D01*
X10660670Y22798094D01*
X10642099Y22763349D01*
X10617106Y22732894D01*
X10586651Y22707901D01*
X10551906Y22689330D01*
X10514209Y22677895D01*
X10484822Y22675000D01*
X10015178Y22675000D01*
X9985791Y22677895D01*
X9948094Y22689330D01*
X9913349Y22707901D01*
X9882894Y22732894D01*
X9857901Y22763349D01*
X9839330Y22798094D01*
X9827895Y22835791D01*
X9824033Y22875000D01*
X9827895Y22914209D01*
X9839330Y22951906D01*
X9857901Y22986651D01*
X9882894Y23017106D01*
X9913349Y23042099D01*
X9948094Y23060670D01*
X9985791Y23072105D01*
X10015178Y23075000D01*
X10484822Y23075000D01*
X10514209Y23072105D01*
X10514209Y23072105D01*
G37*
G36*
X7564209Y23072105D02*
X7601906Y23060670D01*
X7636651Y23042099D01*
X7667106Y23017106D01*
X7692099Y22986651D01*
X7710670Y22951906D01*
X7722105Y22914209D01*
X7725967Y22875000D01*
X7722105Y22835791D01*
X7710670Y22798094D01*
X7692099Y22763349D01*
X7667106Y22732894D01*
X7636651Y22707901D01*
X7601906Y22689330D01*
X7564209Y22677895D01*
X7534822Y22675000D01*
X7065178Y22675000D01*
X7035791Y22677895D01*
X6998094Y22689330D01*
X6963349Y22707901D01*
X6932894Y22732894D01*
X6907901Y22763349D01*
X6889330Y22798094D01*
X6877895Y22835791D01*
X6874033Y22875000D01*
X6877895Y22914209D01*
X6889330Y22951906D01*
X6907901Y22986651D01*
X6932894Y23017106D01*
X6963349Y23042099D01*
X6998094Y23060670D01*
X7035791Y23072105D01*
X7065178Y23075000D01*
X7534822Y23075000D01*
X7564209Y23072105D01*
X7564209Y23072105D01*
G37*
G36*
X10514209Y23572105D02*
X10551906Y23560670D01*
X10586651Y23542099D01*
X10617106Y23517106D01*
X10642099Y23486651D01*
X10660670Y23451906D01*
X10672105Y23414209D01*
X10675967Y23375000D01*
X10672105Y23335791D01*
X10660670Y23298094D01*
X10642099Y23263349D01*
X10617106Y23232894D01*
X10586651Y23207901D01*
X10551906Y23189330D01*
X10514209Y23177895D01*
X10484822Y23175000D01*
X10015178Y23175000D01*
X9985791Y23177895D01*
X9948094Y23189330D01*
X9913349Y23207901D01*
X9882894Y23232894D01*
X9857901Y23263349D01*
X9839330Y23298094D01*
X9827895Y23335791D01*
X9824033Y23375000D01*
X9827895Y23414209D01*
X9839330Y23451906D01*
X9857901Y23486651D01*
X9882894Y23517106D01*
X9913349Y23542099D01*
X9948094Y23560670D01*
X9985791Y23572105D01*
X10015178Y23575000D01*
X10484822Y23575000D01*
X10514209Y23572105D01*
X10514209Y23572105D01*
G37*
G36*
X7564209Y23572105D02*
X7601906Y23560670D01*
X7636651Y23542099D01*
X7667106Y23517106D01*
X7692099Y23486651D01*
X7710670Y23451906D01*
X7722105Y23414209D01*
X7725967Y23375000D01*
X7722105Y23335791D01*
X7710670Y23298094D01*
X7692099Y23263349D01*
X7667106Y23232894D01*
X7636651Y23207901D01*
X7601906Y23189330D01*
X7564209Y23177895D01*
X7534822Y23175000D01*
X7065178Y23175000D01*
X7035791Y23177895D01*
X6998094Y23189330D01*
X6963349Y23207901D01*
X6932894Y23232894D01*
X6907901Y23263349D01*
X6889330Y23298094D01*
X6877895Y23335791D01*
X6874033Y23375000D01*
X6877895Y23414209D01*
X6889330Y23451906D01*
X6907901Y23486651D01*
X6932894Y23517106D01*
X6963349Y23542099D01*
X6998094Y23560670D01*
X7035791Y23572105D01*
X7065178Y23575000D01*
X7534822Y23575000D01*
X7564209Y23572105D01*
X7564209Y23572105D01*
G37*
G36*
X21263308Y24113336D02*
X21311682Y24103714D01*
X21366312Y24081085D01*
X21415482Y24048231D01*
X21457291Y24006422D01*
X21490145Y23957252D01*
X21512774Y23902622D01*
X21524310Y23844625D01*
X21524310Y23785495D01*
X21512774Y23727498D01*
X21490145Y23672868D01*
X21457291Y23623698D01*
X21415482Y23581889D01*
X21366312Y23549035D01*
X21311682Y23526406D01*
X21264926Y23517106D01*
X21253686Y23514870D01*
X21194554Y23514870D01*
X21183314Y23517106D01*
X21136558Y23526406D01*
X21081928Y23549035D01*
X21032758Y23581889D01*
X20990949Y23623698D01*
X20958095Y23672868D01*
X20935466Y23727498D01*
X20923930Y23785495D01*
X20923930Y23844625D01*
X20935466Y23902622D01*
X20958095Y23957252D01*
X20990949Y24006422D01*
X21032758Y24048231D01*
X21081928Y24081085D01*
X21136558Y24103714D01*
X21184932Y24113336D01*
X21194554Y24115250D01*
X21253686Y24115250D01*
X21263308Y24113336D01*
X21263308Y24113336D01*
G37*
G36*
X15263828Y24113336D02*
X15312202Y24103714D01*
X15366832Y24081085D01*
X15416002Y24048231D01*
X15457811Y24006422D01*
X15490665Y23957252D01*
X15513294Y23902622D01*
X15524830Y23844625D01*
X15524830Y23785495D01*
X15513294Y23727498D01*
X15490665Y23672868D01*
X15457811Y23623698D01*
X15416002Y23581889D01*
X15366832Y23549035D01*
X15312202Y23526406D01*
X15265446Y23517106D01*
X15254206Y23514870D01*
X15195074Y23514870D01*
X15183834Y23517106D01*
X15137078Y23526406D01*
X15082448Y23549035D01*
X15033278Y23581889D01*
X14991469Y23623698D01*
X14958615Y23672868D01*
X14935986Y23727498D01*
X14924450Y23785495D01*
X14924450Y23844625D01*
X14935986Y23902622D01*
X14958615Y23957252D01*
X14991469Y24006422D01*
X15033278Y24048231D01*
X15082448Y24081085D01*
X15137078Y24103714D01*
X15185452Y24113336D01*
X15195074Y24115250D01*
X15254206Y24115250D01*
X15263828Y24113336D01*
X15263828Y24113336D01*
G37*
G36*
X13264848Y24113336D02*
X13313222Y24103714D01*
X13367852Y24081085D01*
X13417022Y24048231D01*
X13458831Y24006422D01*
X13491685Y23957252D01*
X13514314Y23902622D01*
X13525850Y23844625D01*
X13525850Y23785495D01*
X13514314Y23727498D01*
X13491685Y23672868D01*
X13458831Y23623698D01*
X13417022Y23581889D01*
X13367852Y23549035D01*
X13313222Y23526406D01*
X13266466Y23517106D01*
X13255226Y23514870D01*
X13196094Y23514870D01*
X13184854Y23517106D01*
X13138098Y23526406D01*
X13083468Y23549035D01*
X13034298Y23581889D01*
X12992489Y23623698D01*
X12959635Y23672868D01*
X12937006Y23727498D01*
X12925470Y23785495D01*
X12925470Y23844625D01*
X12937006Y23902622D01*
X12959635Y23957252D01*
X12992489Y24006422D01*
X13034298Y24048231D01*
X13083468Y24081085D01*
X13138098Y24103714D01*
X13186472Y24113336D01*
X13196094Y24115250D01*
X13255226Y24115250D01*
X13264848Y24113336D01*
X13264848Y24113336D01*
G37*
G36*
X20265088Y24113336D02*
X20313462Y24103714D01*
X20368092Y24081085D01*
X20417262Y24048231D01*
X20459071Y24006422D01*
X20491925Y23957252D01*
X20514554Y23902622D01*
X20526090Y23844625D01*
X20526090Y23785495D01*
X20514554Y23727498D01*
X20491925Y23672868D01*
X20459071Y23623698D01*
X20417262Y23581889D01*
X20368092Y23549035D01*
X20313462Y23526406D01*
X20266706Y23517106D01*
X20255466Y23514870D01*
X20196334Y23514870D01*
X20185094Y23517106D01*
X20138338Y23526406D01*
X20083708Y23549035D01*
X20034538Y23581889D01*
X19992729Y23623698D01*
X19959875Y23672868D01*
X19937246Y23727498D01*
X19925710Y23785495D01*
X19925710Y23844625D01*
X19937246Y23902622D01*
X19959875Y23957252D01*
X19992729Y24006422D01*
X20034538Y24048231D01*
X20083708Y24081085D01*
X20138338Y24103714D01*
X20186712Y24113336D01*
X20196334Y24115250D01*
X20255466Y24115250D01*
X20265088Y24113336D01*
X20265088Y24113336D01*
G37*
G36*
X22264068Y24113336D02*
X22312442Y24103714D01*
X22367072Y24081085D01*
X22416242Y24048231D01*
X22458051Y24006422D01*
X22490905Y23957252D01*
X22513534Y23902622D01*
X22525070Y23844625D01*
X22525070Y23785495D01*
X22513534Y23727498D01*
X22490905Y23672868D01*
X22458051Y23623698D01*
X22416242Y23581889D01*
X22367072Y23549035D01*
X22312442Y23526406D01*
X22265686Y23517106D01*
X22254446Y23514870D01*
X22195314Y23514870D01*
X22184074Y23517106D01*
X22137318Y23526406D01*
X22082688Y23549035D01*
X22033518Y23581889D01*
X21991709Y23623698D01*
X21958855Y23672868D01*
X21936226Y23727498D01*
X21924690Y23785495D01*
X21924690Y23844625D01*
X21936226Y23902622D01*
X21958855Y23957252D01*
X21991709Y24006422D01*
X22033518Y24048231D01*
X22082688Y24081085D01*
X22137318Y24103714D01*
X22185692Y24113336D01*
X22195314Y24115250D01*
X22254446Y24115250D01*
X22264068Y24113336D01*
X22264068Y24113336D01*
G37*
G36*
X23264828Y24113336D02*
X23313202Y24103714D01*
X23367832Y24081085D01*
X23417002Y24048231D01*
X23458811Y24006422D01*
X23491665Y23957252D01*
X23514294Y23902622D01*
X23525830Y23844625D01*
X23525830Y23785495D01*
X23514294Y23727498D01*
X23491665Y23672868D01*
X23458811Y23623698D01*
X23417002Y23581889D01*
X23367832Y23549035D01*
X23313202Y23526406D01*
X23266446Y23517106D01*
X23255206Y23514870D01*
X23196074Y23514870D01*
X23184834Y23517106D01*
X23138078Y23526406D01*
X23083448Y23549035D01*
X23034278Y23581889D01*
X22992469Y23623698D01*
X22959615Y23672868D01*
X22936986Y23727498D01*
X22925450Y23785495D01*
X22925450Y23844625D01*
X22936986Y23902622D01*
X22959615Y23957252D01*
X22992469Y24006422D01*
X23034278Y24048231D01*
X23083448Y24081085D01*
X23138078Y24103714D01*
X23186452Y24113336D01*
X23196074Y24115250D01*
X23255206Y24115250D01*
X23264828Y24113336D01*
X23264828Y24113336D01*
G37*
G36*
X19264328Y24113336D02*
X19312702Y24103714D01*
X19367332Y24081085D01*
X19416502Y24048231D01*
X19458311Y24006422D01*
X19491165Y23957252D01*
X19513794Y23902622D01*
X19525330Y23844625D01*
X19525330Y23785495D01*
X19513794Y23727498D01*
X19491165Y23672868D01*
X19458311Y23623698D01*
X19416502Y23581889D01*
X19367332Y23549035D01*
X19312702Y23526406D01*
X19265946Y23517106D01*
X19254706Y23514870D01*
X19195574Y23514870D01*
X19184334Y23517106D01*
X19137578Y23526406D01*
X19082948Y23549035D01*
X19033778Y23581889D01*
X18991969Y23623698D01*
X18959115Y23672868D01*
X18936486Y23727498D01*
X18924950Y23785495D01*
X18924950Y23844625D01*
X18936486Y23902622D01*
X18959115Y23957252D01*
X18991969Y24006422D01*
X19033778Y24048231D01*
X19082948Y24081085D01*
X19137578Y24103714D01*
X19185952Y24113336D01*
X19195574Y24115250D01*
X19254706Y24115250D01*
X19264328Y24113336D01*
X19264328Y24113336D01*
G37*
G36*
X18263568Y24113336D02*
X18311942Y24103714D01*
X18366572Y24081085D01*
X18415742Y24048231D01*
X18457551Y24006422D01*
X18490405Y23957252D01*
X18513034Y23902622D01*
X18524570Y23844625D01*
X18524570Y23785495D01*
X18513034Y23727498D01*
X18490405Y23672868D01*
X18457551Y23623698D01*
X18415742Y23581889D01*
X18366572Y23549035D01*
X18311942Y23526406D01*
X18265186Y23517106D01*
X18253946Y23514870D01*
X18194814Y23514870D01*
X18183574Y23517106D01*
X18136818Y23526406D01*
X18082188Y23549035D01*
X18033018Y23581889D01*
X17991209Y23623698D01*
X17958355Y23672868D01*
X17935726Y23727498D01*
X17924190Y23785495D01*
X17924190Y23844625D01*
X17935726Y23902622D01*
X17958355Y23957252D01*
X17991209Y24006422D01*
X18033018Y24048231D01*
X18082188Y24081085D01*
X18136818Y24103714D01*
X18185192Y24113336D01*
X18194814Y24115250D01*
X18253946Y24115250D01*
X18263568Y24113336D01*
X18263568Y24113336D01*
G37*
G36*
X14263068Y24113336D02*
X14311442Y24103714D01*
X14366072Y24081085D01*
X14415242Y24048231D01*
X14457051Y24006422D01*
X14489905Y23957252D01*
X14512534Y23902622D01*
X14524070Y23844625D01*
X14524070Y23785495D01*
X14512534Y23727498D01*
X14489905Y23672868D01*
X14457051Y23623698D01*
X14415242Y23581889D01*
X14366072Y23549035D01*
X14311442Y23526406D01*
X14264686Y23517106D01*
X14253446Y23514870D01*
X14194314Y23514870D01*
X14183074Y23517106D01*
X14136318Y23526406D01*
X14081688Y23549035D01*
X14032518Y23581889D01*
X13990709Y23623698D01*
X13957855Y23672868D01*
X13935226Y23727498D01*
X13923690Y23785495D01*
X13923690Y23844625D01*
X13935226Y23902622D01*
X13957855Y23957252D01*
X13990709Y24006422D01*
X14032518Y24048231D01*
X14081688Y24081085D01*
X14136318Y24103714D01*
X14184692Y24113336D01*
X14194314Y24115250D01*
X14253446Y24115250D01*
X14263068Y24113336D01*
X14263068Y24113336D01*
G37*
G36*
X17265348Y24113336D02*
X17313722Y24103714D01*
X17368352Y24081085D01*
X17417522Y24048231D01*
X17459331Y24006422D01*
X17492185Y23957252D01*
X17514814Y23902622D01*
X17526350Y23844625D01*
X17526350Y23785495D01*
X17514814Y23727498D01*
X17492185Y23672868D01*
X17459331Y23623698D01*
X17417522Y23581889D01*
X17368352Y23549035D01*
X17313722Y23526406D01*
X17266966Y23517106D01*
X17255726Y23514870D01*
X17196594Y23514870D01*
X17185354Y23517106D01*
X17138598Y23526406D01*
X17083968Y23549035D01*
X17034798Y23581889D01*
X16992989Y23623698D01*
X16960135Y23672868D01*
X16937506Y23727498D01*
X16925970Y23785495D01*
X16925970Y23844625D01*
X16937506Y23902622D01*
X16960135Y23957252D01*
X16992989Y24006422D01*
X17034798Y24048231D01*
X17083968Y24081085D01*
X17138598Y24103714D01*
X17186972Y24113336D01*
X17196594Y24115250D01*
X17255726Y24115250D01*
X17265348Y24113336D01*
X17265348Y24113336D01*
G37*
G36*
X16264588Y24113336D02*
X16312962Y24103714D01*
X16367592Y24081085D01*
X16416762Y24048231D01*
X16458571Y24006422D01*
X16491425Y23957252D01*
X16514054Y23902622D01*
X16525590Y23844625D01*
X16525590Y23785495D01*
X16514054Y23727498D01*
X16491425Y23672868D01*
X16458571Y23623698D01*
X16416762Y23581889D01*
X16367592Y23549035D01*
X16312962Y23526406D01*
X16266206Y23517106D01*
X16254966Y23514870D01*
X16195834Y23514870D01*
X16184594Y23517106D01*
X16137838Y23526406D01*
X16083208Y23549035D01*
X16034038Y23581889D01*
X15992229Y23623698D01*
X15959375Y23672868D01*
X15936746Y23727498D01*
X15925210Y23785495D01*
X15925210Y23844625D01*
X15936746Y23902622D01*
X15959375Y23957252D01*
X15992229Y24006422D01*
X16034038Y24048231D01*
X16083208Y24081085D01*
X16137838Y24103714D01*
X16186212Y24113336D01*
X16195834Y24115250D01*
X16254966Y24115250D01*
X16264588Y24113336D01*
X16264588Y24113336D01*
G37*
G36*
X12264088Y24113336D02*
X12312462Y24103714D01*
X12367092Y24081085D01*
X12416262Y24048231D01*
X12458071Y24006422D01*
X12490925Y23957252D01*
X12513554Y23902622D01*
X12525090Y23844625D01*
X12525090Y23785495D01*
X12513554Y23727498D01*
X12490925Y23672868D01*
X12458071Y23623698D01*
X12416262Y23581889D01*
X12367092Y23549035D01*
X12312462Y23526406D01*
X12265706Y23517106D01*
X12254466Y23514870D01*
X12195334Y23514870D01*
X12184094Y23517106D01*
X12137338Y23526406D01*
X12082708Y23549035D01*
X12033538Y23581889D01*
X11991729Y23623698D01*
X11958875Y23672868D01*
X11936246Y23727498D01*
X11924710Y23785495D01*
X11924710Y23844625D01*
X11936246Y23902622D01*
X11958875Y23957252D01*
X11991729Y24006422D01*
X12033538Y24048231D01*
X12082708Y24081085D01*
X12137338Y24103714D01*
X12185712Y24113336D01*
X12195334Y24115250D01*
X12254466Y24115250D01*
X12264088Y24113336D01*
X12264088Y24113336D01*
G37*
G36*
X8064209Y24522105D02*
X8101906Y24510670D01*
X8136651Y24492099D01*
X8167106Y24467106D01*
X8192099Y24436651D01*
X8210670Y24401906D01*
X8222105Y24364209D01*
X8225000Y24334822D01*
X8225000Y23865178D01*
X8222105Y23835791D01*
X8210670Y23798094D01*
X8192099Y23763349D01*
X8167106Y23732894D01*
X8136650Y23707902D01*
X8101905Y23689330D01*
X8064208Y23677895D01*
X8025000Y23674033D01*
X7985791Y23677895D01*
X7948094Y23689330D01*
X7913349Y23707901D01*
X7882894Y23732894D01*
X7857902Y23763350D01*
X7839330Y23798095D01*
X7827895Y23835792D01*
X7825000Y23865179D01*
X7825001Y24334822D01*
X7827896Y24364209D01*
X7839331Y24401906D01*
X7857902Y24436651D01*
X7882895Y24467106D01*
X7913350Y24492099D01*
X7948095Y24510670D01*
X7985792Y24522105D01*
X8025000Y24525967D01*
X8064209Y24522105D01*
X8064209Y24522105D01*
G37*
G36*
X9564209Y24522105D02*
X9601906Y24510670D01*
X9636651Y24492099D01*
X9667106Y24467106D01*
X9692099Y24436651D01*
X9710670Y24401906D01*
X9722105Y24364209D01*
X9725000Y24334822D01*
X9725000Y23865178D01*
X9722105Y23835791D01*
X9710670Y23798094D01*
X9692099Y23763349D01*
X9667106Y23732894D01*
X9636650Y23707902D01*
X9601905Y23689330D01*
X9564208Y23677895D01*
X9525000Y23674033D01*
X9485791Y23677895D01*
X9448094Y23689330D01*
X9413349Y23707901D01*
X9382894Y23732894D01*
X9357902Y23763350D01*
X9339330Y23798095D01*
X9327895Y23835792D01*
X9325000Y23865179D01*
X9325001Y24334822D01*
X9327896Y24364209D01*
X9339331Y24401906D01*
X9357902Y24436651D01*
X9382895Y24467106D01*
X9413350Y24492099D01*
X9448095Y24510670D01*
X9485792Y24522105D01*
X9525000Y24525967D01*
X9564209Y24522105D01*
X9564209Y24522105D01*
G37*
G36*
X9064209Y24522105D02*
X9101906Y24510670D01*
X9136651Y24492099D01*
X9167106Y24467106D01*
X9192099Y24436651D01*
X9210670Y24401906D01*
X9222105Y24364209D01*
X9225000Y24334822D01*
X9225000Y23865178D01*
X9222105Y23835791D01*
X9210670Y23798094D01*
X9192099Y23763349D01*
X9167106Y23732894D01*
X9136650Y23707902D01*
X9101905Y23689330D01*
X9064208Y23677895D01*
X9025000Y23674033D01*
X8985791Y23677895D01*
X8948094Y23689330D01*
X8913349Y23707901D01*
X8882894Y23732894D01*
X8857902Y23763350D01*
X8839330Y23798095D01*
X8827895Y23835792D01*
X8825000Y23865179D01*
X8825001Y24334822D01*
X8827896Y24364209D01*
X8839331Y24401906D01*
X8857902Y24436651D01*
X8882895Y24467106D01*
X8913350Y24492099D01*
X8948095Y24510670D01*
X8985792Y24522105D01*
X9025000Y24525967D01*
X9064209Y24522105D01*
X9064209Y24522105D01*
G37*
G36*
X8564209Y24522105D02*
X8601906Y24510670D01*
X8636651Y24492099D01*
X8667106Y24467106D01*
X8692099Y24436651D01*
X8710670Y24401906D01*
X8722105Y24364209D01*
X8725000Y24334822D01*
X8725000Y23865178D01*
X8722105Y23835791D01*
X8710670Y23798094D01*
X8692099Y23763349D01*
X8667106Y23732894D01*
X8636650Y23707902D01*
X8601905Y23689330D01*
X8564208Y23677895D01*
X8525000Y23674033D01*
X8485791Y23677895D01*
X8448094Y23689330D01*
X8413349Y23707901D01*
X8382894Y23732894D01*
X8357902Y23763350D01*
X8339330Y23798095D01*
X8327895Y23835792D01*
X8325000Y23865179D01*
X8325001Y24334822D01*
X8327896Y24364209D01*
X8339331Y24401906D01*
X8357902Y24436651D01*
X8382895Y24467106D01*
X8413350Y24492099D01*
X8448095Y24510670D01*
X8485792Y24522105D01*
X8525000Y24525967D01*
X8564209Y24522105D01*
X8564209Y24522105D01*
G37*
G36*
X12264088Y25111556D02*
X12312462Y25101934D01*
X12367092Y25079305D01*
X12416262Y25046451D01*
X12458071Y25004642D01*
X12490925Y24955472D01*
X12513554Y24900842D01*
X12525090Y24842845D01*
X12525090Y24783715D01*
X12513554Y24725718D01*
X12490925Y24671088D01*
X12458071Y24621918D01*
X12416262Y24580109D01*
X12367092Y24547255D01*
X12312462Y24524626D01*
X12264088Y24515004D01*
X12254466Y24513090D01*
X12195334Y24513090D01*
X12185712Y24515004D01*
X12137338Y24524626D01*
X12082708Y24547255D01*
X12033538Y24580109D01*
X11991729Y24621918D01*
X11958875Y24671088D01*
X11936246Y24725718D01*
X11924710Y24783715D01*
X11924710Y24842845D01*
X11936246Y24900842D01*
X11958875Y24955472D01*
X11991729Y25004642D01*
X12033538Y25046451D01*
X12082708Y25079305D01*
X12137338Y25101934D01*
X12185712Y25111556D01*
X12195334Y25113470D01*
X12254466Y25113470D01*
X12264088Y25111556D01*
X12264088Y25111556D01*
G37*
G36*
X23264828Y25111556D02*
X23313202Y25101934D01*
X23367832Y25079305D01*
X23417002Y25046451D01*
X23458811Y25004642D01*
X23491665Y24955472D01*
X23514294Y24900842D01*
X23525830Y24842845D01*
X23525830Y24783715D01*
X23514294Y24725718D01*
X23491665Y24671088D01*
X23458811Y24621918D01*
X23417002Y24580109D01*
X23367832Y24547255D01*
X23313202Y24524626D01*
X23264828Y24515004D01*
X23255206Y24513090D01*
X23196074Y24513090D01*
X23186452Y24515004D01*
X23138078Y24524626D01*
X23083448Y24547255D01*
X23034278Y24580109D01*
X22992469Y24621918D01*
X22959615Y24671088D01*
X22936986Y24725718D01*
X22925450Y24783715D01*
X22925450Y24842845D01*
X22936986Y24900842D01*
X22959615Y24955472D01*
X22992469Y25004642D01*
X23034278Y25046451D01*
X23083448Y25079305D01*
X23138078Y25101934D01*
X23186452Y25111556D01*
X23196074Y25113470D01*
X23255206Y25113470D01*
X23264828Y25111556D01*
X23264828Y25111556D01*
G37*
G36*
X22264068Y25111556D02*
X22312442Y25101934D01*
X22367072Y25079305D01*
X22416242Y25046451D01*
X22458051Y25004642D01*
X22490905Y24955472D01*
X22513534Y24900842D01*
X22525070Y24842845D01*
X22525070Y24783715D01*
X22513534Y24725718D01*
X22490905Y24671088D01*
X22458051Y24621918D01*
X22416242Y24580109D01*
X22367072Y24547255D01*
X22312442Y24524626D01*
X22264068Y24515004D01*
X22254446Y24513090D01*
X22195314Y24513090D01*
X22185692Y24515004D01*
X22137318Y24524626D01*
X22082688Y24547255D01*
X22033518Y24580109D01*
X21991709Y24621918D01*
X21958855Y24671088D01*
X21936226Y24725718D01*
X21924690Y24783715D01*
X21924690Y24842845D01*
X21936226Y24900842D01*
X21958855Y24955472D01*
X21991709Y25004642D01*
X22033518Y25046451D01*
X22082688Y25079305D01*
X22137318Y25101934D01*
X22185692Y25111556D01*
X22195314Y25113470D01*
X22254446Y25113470D01*
X22264068Y25111556D01*
X22264068Y25111556D01*
G37*
G36*
X21263308Y25111556D02*
X21311682Y25101934D01*
X21366312Y25079305D01*
X21415482Y25046451D01*
X21457291Y25004642D01*
X21490145Y24955472D01*
X21512774Y24900842D01*
X21524310Y24842845D01*
X21524310Y24783715D01*
X21512774Y24725718D01*
X21490145Y24671088D01*
X21457291Y24621918D01*
X21415482Y24580109D01*
X21366312Y24547255D01*
X21311682Y24524626D01*
X21263308Y24515004D01*
X21253686Y24513090D01*
X21194554Y24513090D01*
X21184932Y24515004D01*
X21136558Y24524626D01*
X21081928Y24547255D01*
X21032758Y24580109D01*
X20990949Y24621918D01*
X20958095Y24671088D01*
X20935466Y24725718D01*
X20923930Y24783715D01*
X20923930Y24842845D01*
X20935466Y24900842D01*
X20958095Y24955472D01*
X20990949Y25004642D01*
X21032758Y25046451D01*
X21081928Y25079305D01*
X21136558Y25101934D01*
X21184932Y25111556D01*
X21194554Y25113470D01*
X21253686Y25113470D01*
X21263308Y25111556D01*
X21263308Y25111556D01*
G37*
G36*
X20265088Y25111556D02*
X20313462Y25101934D01*
X20368092Y25079305D01*
X20417262Y25046451D01*
X20459071Y25004642D01*
X20491925Y24955472D01*
X20514554Y24900842D01*
X20526090Y24842845D01*
X20526090Y24783715D01*
X20514554Y24725718D01*
X20491925Y24671088D01*
X20459071Y24621918D01*
X20417262Y24580109D01*
X20368092Y24547255D01*
X20313462Y24524626D01*
X20265088Y24515004D01*
X20255466Y24513090D01*
X20196334Y24513090D01*
X20186712Y24515004D01*
X20138338Y24524626D01*
X20083708Y24547255D01*
X20034538Y24580109D01*
X19992729Y24621918D01*
X19959875Y24671088D01*
X19937246Y24725718D01*
X19925710Y24783715D01*
X19925710Y24842845D01*
X19937246Y24900842D01*
X19959875Y24955472D01*
X19992729Y25004642D01*
X20034538Y25046451D01*
X20083708Y25079305D01*
X20138338Y25101934D01*
X20186712Y25111556D01*
X20196334Y25113470D01*
X20255466Y25113470D01*
X20265088Y25111556D01*
X20265088Y25111556D01*
G37*
G36*
X19264328Y25111556D02*
X19312702Y25101934D01*
X19367332Y25079305D01*
X19416502Y25046451D01*
X19458311Y25004642D01*
X19491165Y24955472D01*
X19513794Y24900842D01*
X19525330Y24842845D01*
X19525330Y24783715D01*
X19513794Y24725718D01*
X19491165Y24671088D01*
X19458311Y24621918D01*
X19416502Y24580109D01*
X19367332Y24547255D01*
X19312702Y24524626D01*
X19264328Y24515004D01*
X19254706Y24513090D01*
X19195574Y24513090D01*
X19185952Y24515004D01*
X19137578Y24524626D01*
X19082948Y24547255D01*
X19033778Y24580109D01*
X18991969Y24621918D01*
X18959115Y24671088D01*
X18936486Y24725718D01*
X18924950Y24783715D01*
X18924950Y24842845D01*
X18936486Y24900842D01*
X18959115Y24955472D01*
X18991969Y25004642D01*
X19033778Y25046451D01*
X19082948Y25079305D01*
X19137578Y25101934D01*
X19185952Y25111556D01*
X19195574Y25113470D01*
X19254706Y25113470D01*
X19264328Y25111556D01*
X19264328Y25111556D01*
G37*
G36*
X18263568Y25111556D02*
X18311942Y25101934D01*
X18366572Y25079305D01*
X18415742Y25046451D01*
X18457551Y25004642D01*
X18490405Y24955472D01*
X18513034Y24900842D01*
X18524570Y24842845D01*
X18524570Y24783715D01*
X18513034Y24725718D01*
X18490405Y24671088D01*
X18457551Y24621918D01*
X18415742Y24580109D01*
X18366572Y24547255D01*
X18311942Y24524626D01*
X18263568Y24515004D01*
X18253946Y24513090D01*
X18194814Y24513090D01*
X18185192Y24515004D01*
X18136818Y24524626D01*
X18082188Y24547255D01*
X18033018Y24580109D01*
X17991209Y24621918D01*
X17958355Y24671088D01*
X17935726Y24725718D01*
X17924190Y24783715D01*
X17924190Y24842845D01*
X17935726Y24900842D01*
X17958355Y24955472D01*
X17991209Y25004642D01*
X18033018Y25046451D01*
X18082188Y25079305D01*
X18136818Y25101934D01*
X18185192Y25111556D01*
X18194814Y25113470D01*
X18253946Y25113470D01*
X18263568Y25111556D01*
X18263568Y25111556D01*
G37*
G36*
X17265348Y25111556D02*
X17313722Y25101934D01*
X17368352Y25079305D01*
X17417522Y25046451D01*
X17459331Y25004642D01*
X17492185Y24955472D01*
X17514814Y24900842D01*
X17526350Y24842845D01*
X17526350Y24783715D01*
X17514814Y24725718D01*
X17492185Y24671088D01*
X17459331Y24621918D01*
X17417522Y24580109D01*
X17368352Y24547255D01*
X17313722Y24524626D01*
X17265348Y24515004D01*
X17255726Y24513090D01*
X17196594Y24513090D01*
X17186972Y24515004D01*
X17138598Y24524626D01*
X17083968Y24547255D01*
X17034798Y24580109D01*
X16992989Y24621918D01*
X16960135Y24671088D01*
X16937506Y24725718D01*
X16925970Y24783715D01*
X16925970Y24842845D01*
X16937506Y24900842D01*
X16960135Y24955472D01*
X16992989Y25004642D01*
X17034798Y25046451D01*
X17083968Y25079305D01*
X17138598Y25101934D01*
X17186972Y25111556D01*
X17196594Y25113470D01*
X17255726Y25113470D01*
X17265348Y25111556D01*
X17265348Y25111556D01*
G37*
G36*
X16264588Y25111556D02*
X16312962Y25101934D01*
X16367592Y25079305D01*
X16416762Y25046451D01*
X16458571Y25004642D01*
X16491425Y24955472D01*
X16514054Y24900842D01*
X16525590Y24842845D01*
X16525590Y24783715D01*
X16514054Y24725718D01*
X16491425Y24671088D01*
X16458571Y24621918D01*
X16416762Y24580109D01*
X16367592Y24547255D01*
X16312962Y24524626D01*
X16264588Y24515004D01*
X16254966Y24513090D01*
X16195834Y24513090D01*
X16186212Y24515004D01*
X16137838Y24524626D01*
X16083208Y24547255D01*
X16034038Y24580109D01*
X15992229Y24621918D01*
X15959375Y24671088D01*
X15936746Y24725718D01*
X15925210Y24783715D01*
X15925210Y24842845D01*
X15936746Y24900842D01*
X15959375Y24955472D01*
X15992229Y25004642D01*
X16034038Y25046451D01*
X16083208Y25079305D01*
X16137838Y25101934D01*
X16186212Y25111556D01*
X16195834Y25113470D01*
X16254966Y25113470D01*
X16264588Y25111556D01*
X16264588Y25111556D01*
G37*
G36*
X15263828Y25111556D02*
X15312202Y25101934D01*
X15366832Y25079305D01*
X15416002Y25046451D01*
X15457811Y25004642D01*
X15490665Y24955472D01*
X15513294Y24900842D01*
X15524830Y24842845D01*
X15524830Y24783715D01*
X15513294Y24725718D01*
X15490665Y24671088D01*
X15457811Y24621918D01*
X15416002Y24580109D01*
X15366832Y24547255D01*
X15312202Y24524626D01*
X15263828Y24515004D01*
X15254206Y24513090D01*
X15195074Y24513090D01*
X15185452Y24515004D01*
X15137078Y24524626D01*
X15082448Y24547255D01*
X15033278Y24580109D01*
X14991469Y24621918D01*
X14958615Y24671088D01*
X14935986Y24725718D01*
X14924450Y24783715D01*
X14924450Y24842845D01*
X14935986Y24900842D01*
X14958615Y24955472D01*
X14991469Y25004642D01*
X15033278Y25046451D01*
X15082448Y25079305D01*
X15137078Y25101934D01*
X15185452Y25111556D01*
X15195074Y25113470D01*
X15254206Y25113470D01*
X15263828Y25111556D01*
X15263828Y25111556D01*
G37*
G36*
X14263068Y25111556D02*
X14311442Y25101934D01*
X14366072Y25079305D01*
X14415242Y25046451D01*
X14457051Y25004642D01*
X14489905Y24955472D01*
X14512534Y24900842D01*
X14524070Y24842845D01*
X14524070Y24783715D01*
X14512534Y24725718D01*
X14489905Y24671088D01*
X14457051Y24621918D01*
X14415242Y24580109D01*
X14366072Y24547255D01*
X14311442Y24524626D01*
X14263068Y24515004D01*
X14253446Y24513090D01*
X14194314Y24513090D01*
X14184692Y24515004D01*
X14136318Y24524626D01*
X14081688Y24547255D01*
X14032518Y24580109D01*
X13990709Y24621918D01*
X13957855Y24671088D01*
X13935226Y24725718D01*
X13923690Y24783715D01*
X13923690Y24842845D01*
X13935226Y24900842D01*
X13957855Y24955472D01*
X13990709Y25004642D01*
X14032518Y25046451D01*
X14081688Y25079305D01*
X14136318Y25101934D01*
X14184692Y25111556D01*
X14194314Y25113470D01*
X14253446Y25113470D01*
X14263068Y25111556D01*
X14263068Y25111556D01*
G37*
G36*
X13264848Y25111556D02*
X13313222Y25101934D01*
X13367852Y25079305D01*
X13417022Y25046451D01*
X13458831Y25004642D01*
X13491685Y24955472D01*
X13514314Y24900842D01*
X13525850Y24842845D01*
X13525850Y24783715D01*
X13514314Y24725718D01*
X13491685Y24671088D01*
X13458831Y24621918D01*
X13417022Y24580109D01*
X13367852Y24547255D01*
X13313222Y24524626D01*
X13264848Y24515004D01*
X13255226Y24513090D01*
X13196094Y24513090D01*
X13186472Y24515004D01*
X13138098Y24524626D01*
X13083468Y24547255D01*
X13034298Y24580109D01*
X12992489Y24621918D01*
X12959635Y24671088D01*
X12937006Y24725718D01*
X12925470Y24783715D01*
X12925470Y24842845D01*
X12937006Y24900842D01*
X12959635Y24955472D01*
X12992489Y25004642D01*
X13034298Y25046451D01*
X13083468Y25079305D01*
X13138098Y25101934D01*
X13186472Y25111556D01*
X13196094Y25113470D01*
X13255226Y25113470D01*
X13264848Y25111556D01*
X13264848Y25111556D01*
G37*
G36*
X6200000Y25450000D02*
X4400000Y25450000D01*
X4400000Y27250000D01*
X6200000Y27250000D01*
X6200000Y25450000D01*
X6200000Y25450000D01*
G37*
G36*
X19264328Y26112316D02*
X19312702Y26102694D01*
X19367332Y26080065D01*
X19416502Y26047211D01*
X19458311Y26005402D01*
X19491165Y25956232D01*
X19513794Y25901602D01*
X19525330Y25843605D01*
X19525330Y25784475D01*
X19513794Y25726478D01*
X19491165Y25671848D01*
X19458311Y25622678D01*
X19416502Y25580869D01*
X19367332Y25548015D01*
X19312702Y25525386D01*
X19264328Y25515764D01*
X19254706Y25513850D01*
X19195574Y25513850D01*
X19185952Y25515764D01*
X19137578Y25525386D01*
X19082948Y25548015D01*
X19033778Y25580869D01*
X18991969Y25622678D01*
X18959115Y25671848D01*
X18936486Y25726478D01*
X18924950Y25784475D01*
X18924950Y25843605D01*
X18936486Y25901602D01*
X18959115Y25956232D01*
X18991969Y26005402D01*
X19033778Y26047211D01*
X19082948Y26080065D01*
X19137578Y26102694D01*
X19185952Y26112316D01*
X19195574Y26114230D01*
X19254706Y26114230D01*
X19264328Y26112316D01*
X19264328Y26112316D01*
G37*
G36*
X22264068Y26112316D02*
X22312442Y26102694D01*
X22367072Y26080065D01*
X22416242Y26047211D01*
X22458051Y26005402D01*
X22490905Y25956232D01*
X22513534Y25901602D01*
X22525070Y25843605D01*
X22525070Y25784475D01*
X22513534Y25726478D01*
X22490905Y25671848D01*
X22458051Y25622678D01*
X22416242Y25580869D01*
X22367072Y25548015D01*
X22312442Y25525386D01*
X22264068Y25515764D01*
X22254446Y25513850D01*
X22195314Y25513850D01*
X22185692Y25515764D01*
X22137318Y25525386D01*
X22082688Y25548015D01*
X22033518Y25580869D01*
X21991709Y25622678D01*
X21958855Y25671848D01*
X21936226Y25726478D01*
X21924690Y25784475D01*
X21924690Y25843605D01*
X21936226Y25901602D01*
X21958855Y25956232D01*
X21991709Y26005402D01*
X22033518Y26047211D01*
X22082688Y26080065D01*
X22137318Y26102694D01*
X22185692Y26112316D01*
X22195314Y26114230D01*
X22254446Y26114230D01*
X22264068Y26112316D01*
X22264068Y26112316D01*
G37*
G36*
X23264828Y26112316D02*
X23313202Y26102694D01*
X23367832Y26080065D01*
X23417002Y26047211D01*
X23458811Y26005402D01*
X23491665Y25956232D01*
X23514294Y25901602D01*
X23525830Y25843605D01*
X23525830Y25784475D01*
X23514294Y25726478D01*
X23491665Y25671848D01*
X23458811Y25622678D01*
X23417002Y25580869D01*
X23367832Y25548015D01*
X23313202Y25525386D01*
X23264828Y25515764D01*
X23255206Y25513850D01*
X23196074Y25513850D01*
X23186452Y25515764D01*
X23138078Y25525386D01*
X23083448Y25548015D01*
X23034278Y25580869D01*
X22992469Y25622678D01*
X22959615Y25671848D01*
X22936986Y25726478D01*
X22925450Y25784475D01*
X22925450Y25843605D01*
X22936986Y25901602D01*
X22959615Y25956232D01*
X22992469Y26005402D01*
X23034278Y26047211D01*
X23083448Y26080065D01*
X23138078Y26102694D01*
X23186452Y26112316D01*
X23196074Y26114230D01*
X23255206Y26114230D01*
X23264828Y26112316D01*
X23264828Y26112316D01*
G37*
G36*
X21263308Y26112316D02*
X21311682Y26102694D01*
X21366312Y26080065D01*
X21415482Y26047211D01*
X21457291Y26005402D01*
X21490145Y25956232D01*
X21512774Y25901602D01*
X21524310Y25843605D01*
X21524310Y25784475D01*
X21512774Y25726478D01*
X21490145Y25671848D01*
X21457291Y25622678D01*
X21415482Y25580869D01*
X21366312Y25548015D01*
X21311682Y25525386D01*
X21263308Y25515764D01*
X21253686Y25513850D01*
X21194554Y25513850D01*
X21184932Y25515764D01*
X21136558Y25525386D01*
X21081928Y25548015D01*
X21032758Y25580869D01*
X20990949Y25622678D01*
X20958095Y25671848D01*
X20935466Y25726478D01*
X20923930Y25784475D01*
X20923930Y25843605D01*
X20935466Y25901602D01*
X20958095Y25956232D01*
X20990949Y26005402D01*
X21032758Y26047211D01*
X21081928Y26080065D01*
X21136558Y26102694D01*
X21184932Y26112316D01*
X21194554Y26114230D01*
X21253686Y26114230D01*
X21263308Y26112316D01*
X21263308Y26112316D01*
G37*
G36*
X16264588Y26112316D02*
X16312962Y26102694D01*
X16367592Y26080065D01*
X16416762Y26047211D01*
X16458571Y26005402D01*
X16491425Y25956232D01*
X16514054Y25901602D01*
X16525590Y25843605D01*
X16525590Y25784475D01*
X16514054Y25726478D01*
X16491425Y25671848D01*
X16458571Y25622678D01*
X16416762Y25580869D01*
X16367592Y25548015D01*
X16312962Y25525386D01*
X16264588Y25515764D01*
X16254966Y25513850D01*
X16195834Y25513850D01*
X16186212Y25515764D01*
X16137838Y25525386D01*
X16083208Y25548015D01*
X16034038Y25580869D01*
X15992229Y25622678D01*
X15959375Y25671848D01*
X15936746Y25726478D01*
X15925210Y25784475D01*
X15925210Y25843605D01*
X15936746Y25901602D01*
X15959375Y25956232D01*
X15992229Y26005402D01*
X16034038Y26047211D01*
X16083208Y26080065D01*
X16137838Y26102694D01*
X16186212Y26112316D01*
X16195834Y26114230D01*
X16254966Y26114230D01*
X16264588Y26112316D01*
X16264588Y26112316D01*
G37*
G36*
X15263828Y26112316D02*
X15312202Y26102694D01*
X15366832Y26080065D01*
X15416002Y26047211D01*
X15457811Y26005402D01*
X15490665Y25956232D01*
X15513294Y25901602D01*
X15524830Y25843605D01*
X15524830Y25784475D01*
X15513294Y25726478D01*
X15490665Y25671848D01*
X15457811Y25622678D01*
X15416002Y25580869D01*
X15366832Y25548015D01*
X15312202Y25525386D01*
X15263828Y25515764D01*
X15254206Y25513850D01*
X15195074Y25513850D01*
X15185452Y25515764D01*
X15137078Y25525386D01*
X15082448Y25548015D01*
X15033278Y25580869D01*
X14991469Y25622678D01*
X14958615Y25671848D01*
X14935986Y25726478D01*
X14924450Y25784475D01*
X14924450Y25843605D01*
X14935986Y25901602D01*
X14958615Y25956232D01*
X14991469Y26005402D01*
X15033278Y26047211D01*
X15082448Y26080065D01*
X15137078Y26102694D01*
X15185452Y26112316D01*
X15195074Y26114230D01*
X15254206Y26114230D01*
X15263828Y26112316D01*
X15263828Y26112316D01*
G37*
G36*
X14263068Y26112316D02*
X14311442Y26102694D01*
X14366072Y26080065D01*
X14415242Y26047211D01*
X14457051Y26005402D01*
X14489905Y25956232D01*
X14512534Y25901602D01*
X14524070Y25843605D01*
X14524070Y25784475D01*
X14512534Y25726478D01*
X14489905Y25671848D01*
X14457051Y25622678D01*
X14415242Y25580869D01*
X14366072Y25548015D01*
X14311442Y25525386D01*
X14263068Y25515764D01*
X14253446Y25513850D01*
X14194314Y25513850D01*
X14184692Y25515764D01*
X14136318Y25525386D01*
X14081688Y25548015D01*
X14032518Y25580869D01*
X13990709Y25622678D01*
X13957855Y25671848D01*
X13935226Y25726478D01*
X13923690Y25784475D01*
X13923690Y25843605D01*
X13935226Y25901602D01*
X13957855Y25956232D01*
X13990709Y26005402D01*
X14032518Y26047211D01*
X14081688Y26080065D01*
X14136318Y26102694D01*
X14184692Y26112316D01*
X14194314Y26114230D01*
X14253446Y26114230D01*
X14263068Y26112316D01*
X14263068Y26112316D01*
G37*
G36*
X20265088Y26112316D02*
X20313462Y26102694D01*
X20368092Y26080065D01*
X20417262Y26047211D01*
X20459071Y26005402D01*
X20491925Y25956232D01*
X20514554Y25901602D01*
X20526090Y25843605D01*
X20526090Y25784475D01*
X20514554Y25726478D01*
X20491925Y25671848D01*
X20459071Y25622678D01*
X20417262Y25580869D01*
X20368092Y25548015D01*
X20313462Y25525386D01*
X20265088Y25515764D01*
X20255466Y25513850D01*
X20196334Y25513850D01*
X20186712Y25515764D01*
X20138338Y25525386D01*
X20083708Y25548015D01*
X20034538Y25580869D01*
X19992729Y25622678D01*
X19959875Y25671848D01*
X19937246Y25726478D01*
X19925710Y25784475D01*
X19925710Y25843605D01*
X19937246Y25901602D01*
X19959875Y25956232D01*
X19992729Y26005402D01*
X20034538Y26047211D01*
X20083708Y26080065D01*
X20138338Y26102694D01*
X20186712Y26112316D01*
X20196334Y26114230D01*
X20255466Y26114230D01*
X20265088Y26112316D01*
X20265088Y26112316D01*
G37*
G36*
X13264848Y26112316D02*
X13313222Y26102694D01*
X13367852Y26080065D01*
X13417022Y26047211D01*
X13458831Y26005402D01*
X13491685Y25956232D01*
X13514314Y25901602D01*
X13525850Y25843605D01*
X13525850Y25784475D01*
X13514314Y25726478D01*
X13491685Y25671848D01*
X13458831Y25622678D01*
X13417022Y25580869D01*
X13367852Y25548015D01*
X13313222Y25525386D01*
X13264848Y25515764D01*
X13255226Y25513850D01*
X13196094Y25513850D01*
X13186472Y25515764D01*
X13138098Y25525386D01*
X13083468Y25548015D01*
X13034298Y25580869D01*
X12992489Y25622678D01*
X12959635Y25671848D01*
X12937006Y25726478D01*
X12925470Y25784475D01*
X12925470Y25843605D01*
X12937006Y25901602D01*
X12959635Y25956232D01*
X12992489Y26005402D01*
X13034298Y26047211D01*
X13083468Y26080065D01*
X13138098Y26102694D01*
X13186472Y26112316D01*
X13196094Y26114230D01*
X13255226Y26114230D01*
X13264848Y26112316D01*
X13264848Y26112316D01*
G37*
G36*
X12264088Y26112316D02*
X12312462Y26102694D01*
X12367092Y26080065D01*
X12416262Y26047211D01*
X12458071Y26005402D01*
X12490925Y25956232D01*
X12513554Y25901602D01*
X12525090Y25843605D01*
X12525090Y25784475D01*
X12513554Y25726478D01*
X12490925Y25671848D01*
X12458071Y25622678D01*
X12416262Y25580869D01*
X12367092Y25548015D01*
X12312462Y25525386D01*
X12264088Y25515764D01*
X12254466Y25513850D01*
X12195334Y25513850D01*
X12185712Y25515764D01*
X12137338Y25525386D01*
X12082708Y25548015D01*
X12033538Y25580869D01*
X11991729Y25622678D01*
X11958875Y25671848D01*
X11936246Y25726478D01*
X11924710Y25784475D01*
X11924710Y25843605D01*
X11936246Y25901602D01*
X11958875Y25956232D01*
X11991729Y26005402D01*
X12033538Y26047211D01*
X12082708Y26080065D01*
X12137338Y26102694D01*
X12185712Y26112316D01*
X12195334Y26114230D01*
X12254466Y26114230D01*
X12264088Y26112316D01*
X12264088Y26112316D01*
G37*
G36*
X18263568Y26112316D02*
X18311942Y26102694D01*
X18366572Y26080065D01*
X18415742Y26047211D01*
X18457551Y26005402D01*
X18490405Y25956232D01*
X18513034Y25901602D01*
X18524570Y25843605D01*
X18524570Y25784475D01*
X18513034Y25726478D01*
X18490405Y25671848D01*
X18457551Y25622678D01*
X18415742Y25580869D01*
X18366572Y25548015D01*
X18311942Y25525386D01*
X18263568Y25515764D01*
X18253946Y25513850D01*
X18194814Y25513850D01*
X18185192Y25515764D01*
X18136818Y25525386D01*
X18082188Y25548015D01*
X18033018Y25580869D01*
X17991209Y25622678D01*
X17958355Y25671848D01*
X17935726Y25726478D01*
X17924190Y25784475D01*
X17924190Y25843605D01*
X17935726Y25901602D01*
X17958355Y25956232D01*
X17991209Y26005402D01*
X18033018Y26047211D01*
X18082188Y26080065D01*
X18136818Y26102694D01*
X18185192Y26112316D01*
X18194814Y26114230D01*
X18253946Y26114230D01*
X18263568Y26112316D01*
X18263568Y26112316D01*
G37*
G36*
X17265348Y26112316D02*
X17313722Y26102694D01*
X17368352Y26080065D01*
X17417522Y26047211D01*
X17459331Y26005402D01*
X17492185Y25956232D01*
X17514814Y25901602D01*
X17526350Y25843605D01*
X17526350Y25784475D01*
X17514814Y25726478D01*
X17492185Y25671848D01*
X17459331Y25622678D01*
X17417522Y25580869D01*
X17368352Y25548015D01*
X17313722Y25525386D01*
X17265348Y25515764D01*
X17255726Y25513850D01*
X17196594Y25513850D01*
X17186972Y25515764D01*
X17138598Y25525386D01*
X17083968Y25548015D01*
X17034798Y25580869D01*
X16992989Y25622678D01*
X16960135Y25671848D01*
X16937506Y25726478D01*
X16925970Y25784475D01*
X16925970Y25843605D01*
X16937506Y25901602D01*
X16960135Y25956232D01*
X16992989Y26005402D01*
X17034798Y26047211D01*
X17083968Y26080065D01*
X17138598Y26102694D01*
X17186972Y26112316D01*
X17196594Y26114230D01*
X17255726Y26114230D01*
X17265348Y26112316D01*
X17265348Y26112316D01*
G37*
G36*
X13264848Y27113076D02*
X13313222Y27103454D01*
X13367852Y27080825D01*
X13417022Y27047971D01*
X13458831Y27006162D01*
X13491685Y26956992D01*
X13514314Y26902362D01*
X13525850Y26844365D01*
X13525850Y26785235D01*
X13514314Y26727238D01*
X13491685Y26672608D01*
X13458831Y26623438D01*
X13417022Y26581629D01*
X13367852Y26548775D01*
X13313222Y26526146D01*
X13264848Y26516524D01*
X13255226Y26514610D01*
X13196094Y26514610D01*
X13186472Y26516524D01*
X13138098Y26526146D01*
X13083468Y26548775D01*
X13034298Y26581629D01*
X12992489Y26623438D01*
X12959635Y26672608D01*
X12937006Y26727238D01*
X12925470Y26785235D01*
X12925470Y26844365D01*
X12937006Y26902362D01*
X12959635Y26956992D01*
X12992489Y27006162D01*
X13034298Y27047971D01*
X13083468Y27080825D01*
X13138098Y27103454D01*
X13186472Y27113076D01*
X13196094Y27114990D01*
X13255226Y27114990D01*
X13264848Y27113076D01*
X13264848Y27113076D01*
G37*
G36*
X14263068Y27113076D02*
X14311442Y27103454D01*
X14366072Y27080825D01*
X14415242Y27047971D01*
X14457051Y27006162D01*
X14489905Y26956992D01*
X14512534Y26902362D01*
X14524070Y26844365D01*
X14524070Y26785235D01*
X14512534Y26727238D01*
X14489905Y26672608D01*
X14457051Y26623438D01*
X14415242Y26581629D01*
X14366072Y26548775D01*
X14311442Y26526146D01*
X14263068Y26516524D01*
X14253446Y26514610D01*
X14194314Y26514610D01*
X14184692Y26516524D01*
X14136318Y26526146D01*
X14081688Y26548775D01*
X14032518Y26581629D01*
X13990709Y26623438D01*
X13957855Y26672608D01*
X13935226Y26727238D01*
X13923690Y26785235D01*
X13923690Y26844365D01*
X13935226Y26902362D01*
X13957855Y26956992D01*
X13990709Y27006162D01*
X14032518Y27047971D01*
X14081688Y27080825D01*
X14136318Y27103454D01*
X14184692Y27113076D01*
X14194314Y27114990D01*
X14253446Y27114990D01*
X14263068Y27113076D01*
X14263068Y27113076D01*
G37*
G36*
X15263828Y27113076D02*
X15312202Y27103454D01*
X15366832Y27080825D01*
X15416002Y27047971D01*
X15457811Y27006162D01*
X15490665Y26956992D01*
X15513294Y26902362D01*
X15524830Y26844365D01*
X15524830Y26785235D01*
X15513294Y26727238D01*
X15490665Y26672608D01*
X15457811Y26623438D01*
X15416002Y26581629D01*
X15366832Y26548775D01*
X15312202Y26526146D01*
X15263828Y26516524D01*
X15254206Y26514610D01*
X15195074Y26514610D01*
X15185452Y26516524D01*
X15137078Y26526146D01*
X15082448Y26548775D01*
X15033278Y26581629D01*
X14991469Y26623438D01*
X14958615Y26672608D01*
X14935986Y26727238D01*
X14924450Y26785235D01*
X14924450Y26844365D01*
X14935986Y26902362D01*
X14958615Y26956992D01*
X14991469Y27006162D01*
X15033278Y27047971D01*
X15082448Y27080825D01*
X15137078Y27103454D01*
X15185452Y27113076D01*
X15195074Y27114990D01*
X15254206Y27114990D01*
X15263828Y27113076D01*
X15263828Y27113076D01*
G37*
G36*
X16264588Y27113076D02*
X16312962Y27103454D01*
X16367592Y27080825D01*
X16416762Y27047971D01*
X16458571Y27006162D01*
X16491425Y26956992D01*
X16514054Y26902362D01*
X16525590Y26844365D01*
X16525590Y26785235D01*
X16514054Y26727238D01*
X16491425Y26672608D01*
X16458571Y26623438D01*
X16416762Y26581629D01*
X16367592Y26548775D01*
X16312962Y26526146D01*
X16264588Y26516524D01*
X16254966Y26514610D01*
X16195834Y26514610D01*
X16186212Y26516524D01*
X16137838Y26526146D01*
X16083208Y26548775D01*
X16034038Y26581629D01*
X15992229Y26623438D01*
X15959375Y26672608D01*
X15936746Y26727238D01*
X15925210Y26785235D01*
X15925210Y26844365D01*
X15936746Y26902362D01*
X15959375Y26956992D01*
X15992229Y27006162D01*
X16034038Y27047971D01*
X16083208Y27080825D01*
X16137838Y27103454D01*
X16186212Y27113076D01*
X16195834Y27114990D01*
X16254966Y27114990D01*
X16264588Y27113076D01*
X16264588Y27113076D01*
G37*
G36*
X17265348Y27113076D02*
X17313722Y27103454D01*
X17368352Y27080825D01*
X17417522Y27047971D01*
X17459331Y27006162D01*
X17492185Y26956992D01*
X17514814Y26902362D01*
X17526350Y26844365D01*
X17526350Y26785235D01*
X17514814Y26727238D01*
X17492185Y26672608D01*
X17459331Y26623438D01*
X17417522Y26581629D01*
X17368352Y26548775D01*
X17313722Y26526146D01*
X17265348Y26516524D01*
X17255726Y26514610D01*
X17196594Y26514610D01*
X17186972Y26516524D01*
X17138598Y26526146D01*
X17083968Y26548775D01*
X17034798Y26581629D01*
X16992989Y26623438D01*
X16960135Y26672608D01*
X16937506Y26727238D01*
X16925970Y26785235D01*
X16925970Y26844365D01*
X16937506Y26902362D01*
X16960135Y26956992D01*
X16992989Y27006162D01*
X17034798Y27047971D01*
X17083968Y27080825D01*
X17138598Y27103454D01*
X17186972Y27113076D01*
X17196594Y27114990D01*
X17255726Y27114990D01*
X17265348Y27113076D01*
X17265348Y27113076D01*
G37*
G36*
X18263568Y27113076D02*
X18311942Y27103454D01*
X18366572Y27080825D01*
X18415742Y27047971D01*
X18457551Y27006162D01*
X18490405Y26956992D01*
X18513034Y26902362D01*
X18524570Y26844365D01*
X18524570Y26785235D01*
X18513034Y26727238D01*
X18490405Y26672608D01*
X18457551Y26623438D01*
X18415742Y26581629D01*
X18366572Y26548775D01*
X18311942Y26526146D01*
X18263568Y26516524D01*
X18253946Y26514610D01*
X18194814Y26514610D01*
X18185192Y26516524D01*
X18136818Y26526146D01*
X18082188Y26548775D01*
X18033018Y26581629D01*
X17991209Y26623438D01*
X17958355Y26672608D01*
X17935726Y26727238D01*
X17924190Y26785235D01*
X17924190Y26844365D01*
X17935726Y26902362D01*
X17958355Y26956992D01*
X17991209Y27006162D01*
X18033018Y27047971D01*
X18082188Y27080825D01*
X18136818Y27103454D01*
X18185192Y27113076D01*
X18194814Y27114990D01*
X18253946Y27114990D01*
X18263568Y27113076D01*
X18263568Y27113076D01*
G37*
G36*
X19264328Y27113076D02*
X19312702Y27103454D01*
X19367332Y27080825D01*
X19416502Y27047971D01*
X19458311Y27006162D01*
X19491165Y26956992D01*
X19513794Y26902362D01*
X19525330Y26844365D01*
X19525330Y26785235D01*
X19513794Y26727238D01*
X19491165Y26672608D01*
X19458311Y26623438D01*
X19416502Y26581629D01*
X19367332Y26548775D01*
X19312702Y26526146D01*
X19264328Y26516524D01*
X19254706Y26514610D01*
X19195574Y26514610D01*
X19185952Y26516524D01*
X19137578Y26526146D01*
X19082948Y26548775D01*
X19033778Y26581629D01*
X18991969Y26623438D01*
X18959115Y26672608D01*
X18936486Y26727238D01*
X18924950Y26785235D01*
X18924950Y26844365D01*
X18936486Y26902362D01*
X18959115Y26956992D01*
X18991969Y27006162D01*
X19033778Y27047971D01*
X19082948Y27080825D01*
X19137578Y27103454D01*
X19185952Y27113076D01*
X19195574Y27114990D01*
X19254706Y27114990D01*
X19264328Y27113076D01*
X19264328Y27113076D01*
G37*
G36*
X20265088Y27113076D02*
X20313462Y27103454D01*
X20368092Y27080825D01*
X20417262Y27047971D01*
X20459071Y27006162D01*
X20491925Y26956992D01*
X20514554Y26902362D01*
X20526090Y26844365D01*
X20526090Y26785235D01*
X20514554Y26727238D01*
X20491925Y26672608D01*
X20459071Y26623438D01*
X20417262Y26581629D01*
X20368092Y26548775D01*
X20313462Y26526146D01*
X20265088Y26516524D01*
X20255466Y26514610D01*
X20196334Y26514610D01*
X20186712Y26516524D01*
X20138338Y26526146D01*
X20083708Y26548775D01*
X20034538Y26581629D01*
X19992729Y26623438D01*
X19959875Y26672608D01*
X19937246Y26727238D01*
X19925710Y26785235D01*
X19925710Y26844365D01*
X19937246Y26902362D01*
X19959875Y26956992D01*
X19992729Y27006162D01*
X20034538Y27047971D01*
X20083708Y27080825D01*
X20138338Y27103454D01*
X20186712Y27113076D01*
X20196334Y27114990D01*
X20255466Y27114990D01*
X20265088Y27113076D01*
X20265088Y27113076D01*
G37*
G36*
X23264828Y27113076D02*
X23313202Y27103454D01*
X23367832Y27080825D01*
X23417002Y27047971D01*
X23458811Y27006162D01*
X23491665Y26956992D01*
X23514294Y26902362D01*
X23525830Y26844365D01*
X23525830Y26785235D01*
X23514294Y26727238D01*
X23491665Y26672608D01*
X23458811Y26623438D01*
X23417002Y26581629D01*
X23367832Y26548775D01*
X23313202Y26526146D01*
X23264828Y26516524D01*
X23255206Y26514610D01*
X23196074Y26514610D01*
X23186452Y26516524D01*
X23138078Y26526146D01*
X23083448Y26548775D01*
X23034278Y26581629D01*
X22992469Y26623438D01*
X22959615Y26672608D01*
X22936986Y26727238D01*
X22925450Y26785235D01*
X22925450Y26844365D01*
X22936986Y26902362D01*
X22959615Y26956992D01*
X22992469Y27006162D01*
X23034278Y27047971D01*
X23083448Y27080825D01*
X23138078Y27103454D01*
X23186452Y27113076D01*
X23196074Y27114990D01*
X23255206Y27114990D01*
X23264828Y27113076D01*
X23264828Y27113076D01*
G37*
G36*
X22264068Y27113076D02*
X22312442Y27103454D01*
X22367072Y27080825D01*
X22416242Y27047971D01*
X22458051Y27006162D01*
X22490905Y26956992D01*
X22513534Y26902362D01*
X22525070Y26844365D01*
X22525070Y26785235D01*
X22513534Y26727238D01*
X22490905Y26672608D01*
X22458051Y26623438D01*
X22416242Y26581629D01*
X22367072Y26548775D01*
X22312442Y26526146D01*
X22264068Y26516524D01*
X22254446Y26514610D01*
X22195314Y26514610D01*
X22185692Y26516524D01*
X22137318Y26526146D01*
X22082688Y26548775D01*
X22033518Y26581629D01*
X21991709Y26623438D01*
X21958855Y26672608D01*
X21936226Y26727238D01*
X21924690Y26785235D01*
X21924690Y26844365D01*
X21936226Y26902362D01*
X21958855Y26956992D01*
X21991709Y27006162D01*
X22033518Y27047971D01*
X22082688Y27080825D01*
X22137318Y27103454D01*
X22185692Y27113076D01*
X22195314Y27114990D01*
X22254446Y27114990D01*
X22264068Y27113076D01*
X22264068Y27113076D01*
G37*
G36*
X21263308Y27113076D02*
X21311682Y27103454D01*
X21366312Y27080825D01*
X21415482Y27047971D01*
X21457291Y27006162D01*
X21490145Y26956992D01*
X21512774Y26902362D01*
X21524310Y26844365D01*
X21524310Y26785235D01*
X21512774Y26727238D01*
X21490145Y26672608D01*
X21457291Y26623438D01*
X21415482Y26581629D01*
X21366312Y26548775D01*
X21311682Y26526146D01*
X21263308Y26516524D01*
X21253686Y26514610D01*
X21194554Y26514610D01*
X21184932Y26516524D01*
X21136558Y26526146D01*
X21081928Y26548775D01*
X21032758Y26581629D01*
X20990949Y26623438D01*
X20958095Y26672608D01*
X20935466Y26727238D01*
X20923930Y26785235D01*
X20923930Y26844365D01*
X20935466Y26902362D01*
X20958095Y26956992D01*
X20990949Y27006162D01*
X21032758Y27047971D01*
X21081928Y27080825D01*
X21136558Y27103454D01*
X21184932Y27113076D01*
X21194554Y27114990D01*
X21253686Y27114990D01*
X21263308Y27113076D01*
X21263308Y27113076D01*
G37*
G36*
X12264088Y27113076D02*
X12312462Y27103454D01*
X12367092Y27080825D01*
X12416262Y27047971D01*
X12458071Y27006162D01*
X12490925Y26956992D01*
X12513554Y26902362D01*
X12525090Y26844365D01*
X12525090Y26785235D01*
X12513554Y26727238D01*
X12490925Y26672608D01*
X12458071Y26623438D01*
X12416262Y26581629D01*
X12367092Y26548775D01*
X12312462Y26526146D01*
X12264088Y26516524D01*
X12254466Y26514610D01*
X12195334Y26514610D01*
X12185712Y26516524D01*
X12137338Y26526146D01*
X12082708Y26548775D01*
X12033538Y26581629D01*
X11991729Y26623438D01*
X11958875Y26672608D01*
X11936246Y26727238D01*
X11924710Y26785235D01*
X11924710Y26844365D01*
X11936246Y26902362D01*
X11958875Y26956992D01*
X11991729Y27006162D01*
X12033538Y27047971D01*
X12082708Y27080825D01*
X12137338Y27103454D01*
X12185712Y27113076D01*
X12195334Y27114990D01*
X12254466Y27114990D01*
X12264088Y27113076D01*
X12264088Y27113076D01*
G37*
G36*
X8625000Y27475000D02*
X8025000Y27475000D01*
X8025000Y28175000D01*
X8625000Y28175000D01*
X8625000Y27475000D01*
X8625000Y27475000D01*
G37*
G36*
X17265348Y28113836D02*
X17313722Y28104214D01*
X17368352Y28081585D01*
X17417522Y28048731D01*
X17459331Y28006922D01*
X17492185Y27957752D01*
X17514814Y27903122D01*
X17526350Y27845125D01*
X17526350Y27785995D01*
X17514814Y27727998D01*
X17492185Y27673368D01*
X17459331Y27624198D01*
X17417522Y27582389D01*
X17368352Y27549535D01*
X17313722Y27526906D01*
X17265348Y27517284D01*
X17255726Y27515370D01*
X17196594Y27515370D01*
X17186972Y27517284D01*
X17138598Y27526906D01*
X17083968Y27549535D01*
X17034798Y27582389D01*
X16992989Y27624198D01*
X16960135Y27673368D01*
X16937506Y27727998D01*
X16925970Y27785995D01*
X16925970Y27845125D01*
X16937506Y27903122D01*
X16960135Y27957752D01*
X16992989Y28006922D01*
X17034798Y28048731D01*
X17083968Y28081585D01*
X17138598Y28104214D01*
X17186972Y28113836D01*
X17196594Y28115750D01*
X17255726Y28115750D01*
X17265348Y28113836D01*
X17265348Y28113836D01*
G37*
G36*
X16264588Y28113836D02*
X16312962Y28104214D01*
X16367592Y28081585D01*
X16416762Y28048731D01*
X16458571Y28006922D01*
X16491425Y27957752D01*
X16514054Y27903122D01*
X16525590Y27845125D01*
X16525590Y27785995D01*
X16514054Y27727998D01*
X16491425Y27673368D01*
X16458571Y27624198D01*
X16416762Y27582389D01*
X16367592Y27549535D01*
X16312962Y27526906D01*
X16264588Y27517284D01*
X16254966Y27515370D01*
X16195834Y27515370D01*
X16186212Y27517284D01*
X16137838Y27526906D01*
X16083208Y27549535D01*
X16034038Y27582389D01*
X15992229Y27624198D01*
X15959375Y27673368D01*
X15936746Y27727998D01*
X15925210Y27785995D01*
X15925210Y27845125D01*
X15936746Y27903122D01*
X15959375Y27957752D01*
X15992229Y28006922D01*
X16034038Y28048731D01*
X16083208Y28081585D01*
X16137838Y28104214D01*
X16186212Y28113836D01*
X16195834Y28115750D01*
X16254966Y28115750D01*
X16264588Y28113836D01*
X16264588Y28113836D01*
G37*
G36*
X19264328Y28113836D02*
X19312702Y28104214D01*
X19367332Y28081585D01*
X19416502Y28048731D01*
X19458311Y28006922D01*
X19491165Y27957752D01*
X19513794Y27903122D01*
X19525330Y27845125D01*
X19525330Y27785995D01*
X19513794Y27727998D01*
X19491165Y27673368D01*
X19458311Y27624198D01*
X19416502Y27582389D01*
X19367332Y27549535D01*
X19312702Y27526906D01*
X19264328Y27517284D01*
X19254706Y27515370D01*
X19195574Y27515370D01*
X19185952Y27517284D01*
X19137578Y27526906D01*
X19082948Y27549535D01*
X19033778Y27582389D01*
X18991969Y27624198D01*
X18959115Y27673368D01*
X18936486Y27727998D01*
X18924950Y27785995D01*
X18924950Y27845125D01*
X18936486Y27903122D01*
X18959115Y27957752D01*
X18991969Y28006922D01*
X19033778Y28048731D01*
X19082948Y28081585D01*
X19137578Y28104214D01*
X19185952Y28113836D01*
X19195574Y28115750D01*
X19254706Y28115750D01*
X19264328Y28113836D01*
X19264328Y28113836D01*
G37*
G36*
X23264828Y28113836D02*
X23313202Y28104214D01*
X23367832Y28081585D01*
X23417002Y28048731D01*
X23458811Y28006922D01*
X23491665Y27957752D01*
X23514294Y27903122D01*
X23525830Y27845125D01*
X23525830Y27785995D01*
X23514294Y27727998D01*
X23491665Y27673368D01*
X23458811Y27624198D01*
X23417002Y27582389D01*
X23367832Y27549535D01*
X23313202Y27526906D01*
X23264828Y27517284D01*
X23255206Y27515370D01*
X23196074Y27515370D01*
X23186452Y27517284D01*
X23138078Y27526906D01*
X23083448Y27549535D01*
X23034278Y27582389D01*
X22992469Y27624198D01*
X22959615Y27673368D01*
X22936986Y27727998D01*
X22925450Y27785995D01*
X22925450Y27845125D01*
X22936986Y27903122D01*
X22959615Y27957752D01*
X22992469Y28006922D01*
X23034278Y28048731D01*
X23083448Y28081585D01*
X23138078Y28104214D01*
X23186452Y28113836D01*
X23196074Y28115750D01*
X23255206Y28115750D01*
X23264828Y28113836D01*
X23264828Y28113836D01*
G37*
G36*
X22264068Y28113836D02*
X22312442Y28104214D01*
X22367072Y28081585D01*
X22416242Y28048731D01*
X22458051Y28006922D01*
X22490905Y27957752D01*
X22513534Y27903122D01*
X22525070Y27845125D01*
X22525070Y27785995D01*
X22513534Y27727998D01*
X22490905Y27673368D01*
X22458051Y27624198D01*
X22416242Y27582389D01*
X22367072Y27549535D01*
X22312442Y27526906D01*
X22264068Y27517284D01*
X22254446Y27515370D01*
X22195314Y27515370D01*
X22185692Y27517284D01*
X22137318Y27526906D01*
X22082688Y27549535D01*
X22033518Y27582389D01*
X21991709Y27624198D01*
X21958855Y27673368D01*
X21936226Y27727998D01*
X21924690Y27785995D01*
X21924690Y27845125D01*
X21936226Y27903122D01*
X21958855Y27957752D01*
X21991709Y28006922D01*
X22033518Y28048731D01*
X22082688Y28081585D01*
X22137318Y28104214D01*
X22185692Y28113836D01*
X22195314Y28115750D01*
X22254446Y28115750D01*
X22264068Y28113836D01*
X22264068Y28113836D01*
G37*
G36*
X21263308Y28113836D02*
X21311682Y28104214D01*
X21366312Y28081585D01*
X21415482Y28048731D01*
X21457291Y28006922D01*
X21490145Y27957752D01*
X21512774Y27903122D01*
X21524310Y27845125D01*
X21524310Y27785995D01*
X21512774Y27727998D01*
X21490145Y27673368D01*
X21457291Y27624198D01*
X21415482Y27582389D01*
X21366312Y27549535D01*
X21311682Y27526906D01*
X21263308Y27517284D01*
X21253686Y27515370D01*
X21194554Y27515370D01*
X21184932Y27517284D01*
X21136558Y27526906D01*
X21081928Y27549535D01*
X21032758Y27582389D01*
X20990949Y27624198D01*
X20958095Y27673368D01*
X20935466Y27727998D01*
X20923930Y27785995D01*
X20923930Y27845125D01*
X20935466Y27903122D01*
X20958095Y27957752D01*
X20990949Y28006922D01*
X21032758Y28048731D01*
X21081928Y28081585D01*
X21136558Y28104214D01*
X21184932Y28113836D01*
X21194554Y28115750D01*
X21253686Y28115750D01*
X21263308Y28113836D01*
X21263308Y28113836D01*
G37*
G36*
X20265088Y28113836D02*
X20313462Y28104214D01*
X20368092Y28081585D01*
X20417262Y28048731D01*
X20459071Y28006922D01*
X20491925Y27957752D01*
X20514554Y27903122D01*
X20526090Y27845125D01*
X20526090Y27785995D01*
X20514554Y27727998D01*
X20491925Y27673368D01*
X20459071Y27624198D01*
X20417262Y27582389D01*
X20368092Y27549535D01*
X20313462Y27526906D01*
X20265088Y27517284D01*
X20255466Y27515370D01*
X20196334Y27515370D01*
X20186712Y27517284D01*
X20138338Y27526906D01*
X20083708Y27549535D01*
X20034538Y27582389D01*
X19992729Y27624198D01*
X19959875Y27673368D01*
X19937246Y27727998D01*
X19925710Y27785995D01*
X19925710Y27845125D01*
X19937246Y27903122D01*
X19959875Y27957752D01*
X19992729Y28006922D01*
X20034538Y28048731D01*
X20083708Y28081585D01*
X20138338Y28104214D01*
X20186712Y28113836D01*
X20196334Y28115750D01*
X20255466Y28115750D01*
X20265088Y28113836D01*
X20265088Y28113836D01*
G37*
G36*
X18263568Y28113836D02*
X18311942Y28104214D01*
X18366572Y28081585D01*
X18415742Y28048731D01*
X18457551Y28006922D01*
X18490405Y27957752D01*
X18513034Y27903122D01*
X18524570Y27845125D01*
X18524570Y27785995D01*
X18513034Y27727998D01*
X18490405Y27673368D01*
X18457551Y27624198D01*
X18415742Y27582389D01*
X18366572Y27549535D01*
X18311942Y27526906D01*
X18263568Y27517284D01*
X18253946Y27515370D01*
X18194814Y27515370D01*
X18185192Y27517284D01*
X18136818Y27526906D01*
X18082188Y27549535D01*
X18033018Y27582389D01*
X17991209Y27624198D01*
X17958355Y27673368D01*
X17935726Y27727998D01*
X17924190Y27785995D01*
X17924190Y27845125D01*
X17935726Y27903122D01*
X17958355Y27957752D01*
X17991209Y28006922D01*
X18033018Y28048731D01*
X18082188Y28081585D01*
X18136818Y28104214D01*
X18185192Y28113836D01*
X18194814Y28115750D01*
X18253946Y28115750D01*
X18263568Y28113836D01*
X18263568Y28113836D01*
G37*
G36*
X15263828Y28113836D02*
X15312202Y28104214D01*
X15366832Y28081585D01*
X15416002Y28048731D01*
X15457811Y28006922D01*
X15490665Y27957752D01*
X15513294Y27903122D01*
X15524830Y27845125D01*
X15524830Y27785995D01*
X15513294Y27727998D01*
X15490665Y27673368D01*
X15457811Y27624198D01*
X15416002Y27582389D01*
X15366832Y27549535D01*
X15312202Y27526906D01*
X15263828Y27517284D01*
X15254206Y27515370D01*
X15195074Y27515370D01*
X15185452Y27517284D01*
X15137078Y27526906D01*
X15082448Y27549535D01*
X15033278Y27582389D01*
X14991469Y27624198D01*
X14958615Y27673368D01*
X14935986Y27727998D01*
X14924450Y27785995D01*
X14924450Y27845125D01*
X14935986Y27903122D01*
X14958615Y27957752D01*
X14991469Y28006922D01*
X15033278Y28048731D01*
X15082448Y28081585D01*
X15137078Y28104214D01*
X15185452Y28113836D01*
X15195074Y28115750D01*
X15254206Y28115750D01*
X15263828Y28113836D01*
X15263828Y28113836D01*
G37*
G36*
X14263068Y28113836D02*
X14311442Y28104214D01*
X14366072Y28081585D01*
X14415242Y28048731D01*
X14457051Y28006922D01*
X14489905Y27957752D01*
X14512534Y27903122D01*
X14524070Y27845125D01*
X14524070Y27785995D01*
X14512534Y27727998D01*
X14489905Y27673368D01*
X14457051Y27624198D01*
X14415242Y27582389D01*
X14366072Y27549535D01*
X14311442Y27526906D01*
X14263068Y27517284D01*
X14253446Y27515370D01*
X14194314Y27515370D01*
X14184692Y27517284D01*
X14136318Y27526906D01*
X14081688Y27549535D01*
X14032518Y27582389D01*
X13990709Y27624198D01*
X13957855Y27673368D01*
X13935226Y27727998D01*
X13923690Y27785995D01*
X13923690Y27845125D01*
X13935226Y27903122D01*
X13957855Y27957752D01*
X13990709Y28006922D01*
X14032518Y28048731D01*
X14081688Y28081585D01*
X14136318Y28104214D01*
X14184692Y28113836D01*
X14194314Y28115750D01*
X14253446Y28115750D01*
X14263068Y28113836D01*
X14263068Y28113836D01*
G37*
G36*
X13264848Y28113836D02*
X13313222Y28104214D01*
X13367852Y28081585D01*
X13417022Y28048731D01*
X13458831Y28006922D01*
X13491685Y27957752D01*
X13514314Y27903122D01*
X13525850Y27845125D01*
X13525850Y27785995D01*
X13514314Y27727998D01*
X13491685Y27673368D01*
X13458831Y27624198D01*
X13417022Y27582389D01*
X13367852Y27549535D01*
X13313222Y27526906D01*
X13264848Y27517284D01*
X13255226Y27515370D01*
X13196094Y27515370D01*
X13186472Y27517284D01*
X13138098Y27526906D01*
X13083468Y27549535D01*
X13034298Y27582389D01*
X12992489Y27624198D01*
X12959635Y27673368D01*
X12937006Y27727998D01*
X12925470Y27785995D01*
X12925470Y27845125D01*
X12937006Y27903122D01*
X12959635Y27957752D01*
X12992489Y28006922D01*
X13034298Y28048731D01*
X13083468Y28081585D01*
X13138098Y28104214D01*
X13186472Y28113836D01*
X13196094Y28115750D01*
X13255226Y28115750D01*
X13264848Y28113836D01*
X13264848Y28113836D01*
G37*
G36*
X12264088Y28113836D02*
X12312462Y28104214D01*
X12367092Y28081585D01*
X12416262Y28048731D01*
X12458071Y28006922D01*
X12490925Y27957752D01*
X12513554Y27903122D01*
X12525090Y27845125D01*
X12525090Y27785995D01*
X12513554Y27727998D01*
X12490925Y27673368D01*
X12458071Y27624198D01*
X12416262Y27582389D01*
X12367092Y27549535D01*
X12312462Y27526906D01*
X12264088Y27517284D01*
X12254466Y27515370D01*
X12195334Y27515370D01*
X12185712Y27517284D01*
X12137338Y27526906D01*
X12082708Y27549535D01*
X12033538Y27582389D01*
X11991729Y27624198D01*
X11958875Y27673368D01*
X11936246Y27727998D01*
X11924710Y27785995D01*
X11924710Y27845125D01*
X11936246Y27903122D01*
X11958875Y27957752D01*
X11991729Y28006922D01*
X12033538Y28048731D01*
X12082708Y28081585D01*
X12137338Y28104214D01*
X12185712Y28113836D01*
X12195334Y28115750D01*
X12254466Y28115750D01*
X12264088Y28113836D01*
X12264088Y28113836D01*
G37*
G36*
X5476433Y29776977D02*
X5646081Y29725515D01*
X5802432Y29641944D01*
X5939476Y29529476D01*
X6051944Y29392432D01*
X6135515Y29236081D01*
X6186977Y29066433D01*
X6204354Y28890000D01*
X6186977Y28713567D01*
X6135515Y28543919D01*
X6051944Y28387568D01*
X5939476Y28250524D01*
X5802432Y28138056D01*
X5646081Y28054485D01*
X5476433Y28003023D01*
X5344211Y27990000D01*
X5255789Y27990000D01*
X5123567Y28003023D01*
X4953919Y28054485D01*
X4797568Y28138056D01*
X4660524Y28250524D01*
X4548056Y28387568D01*
X4464485Y28543919D01*
X4413023Y28713567D01*
X4395646Y28890000D01*
X4413023Y29066433D01*
X4464485Y29236081D01*
X4548056Y29392432D01*
X4660524Y29529476D01*
X4797568Y29641944D01*
X4953919Y29725515D01*
X5123567Y29776977D01*
X5255789Y29790000D01*
X5344211Y29790000D01*
X5476433Y29776977D01*
X5476433Y29776977D01*
G37*
G36*
X31650000Y28100000D02*
X30950000Y28100000D01*
X30950000Y28700000D01*
X31650000Y28700000D01*
X31650000Y28100000D01*
X31650000Y28100000D01*
G37*
G36*
X32750000Y28100000D02*
X32050000Y28100000D01*
X32050000Y28700000D01*
X32750000Y28700000D01*
X32750000Y28100000D01*
X32750000Y28100000D01*
G37*
G36*
X23264828Y29112056D02*
X23313202Y29102434D01*
X23367832Y29079805D01*
X23417002Y29046951D01*
X23458811Y29005142D01*
X23491665Y28955972D01*
X23514294Y28901342D01*
X23525830Y28843345D01*
X23525830Y28784215D01*
X23514294Y28726218D01*
X23491665Y28671588D01*
X23458811Y28622418D01*
X23417002Y28580609D01*
X23367832Y28547755D01*
X23313202Y28525126D01*
X23264828Y28515504D01*
X23255206Y28513590D01*
X23196074Y28513590D01*
X23186452Y28515504D01*
X23138078Y28525126D01*
X23083448Y28547755D01*
X23034278Y28580609D01*
X22992469Y28622418D01*
X22959615Y28671588D01*
X22936986Y28726218D01*
X22925450Y28784215D01*
X22925450Y28843345D01*
X22936986Y28901342D01*
X22959615Y28955972D01*
X22992469Y29005142D01*
X23034278Y29046951D01*
X23083448Y29079805D01*
X23138078Y29102434D01*
X23186452Y29112056D01*
X23196074Y29113970D01*
X23255206Y29113970D01*
X23264828Y29112056D01*
X23264828Y29112056D01*
G37*
G36*
X21263308Y29112056D02*
X21311682Y29102434D01*
X21366312Y29079805D01*
X21415482Y29046951D01*
X21457291Y29005142D01*
X21490145Y28955972D01*
X21512774Y28901342D01*
X21524310Y28843345D01*
X21524310Y28784215D01*
X21512774Y28726218D01*
X21490145Y28671588D01*
X21457291Y28622418D01*
X21415482Y28580609D01*
X21366312Y28547755D01*
X21311682Y28525126D01*
X21263308Y28515504D01*
X21253686Y28513590D01*
X21194554Y28513590D01*
X21184932Y28515504D01*
X21136558Y28525126D01*
X21081928Y28547755D01*
X21032758Y28580609D01*
X20990949Y28622418D01*
X20958095Y28671588D01*
X20935466Y28726218D01*
X20923930Y28784215D01*
X20923930Y28843345D01*
X20935466Y28901342D01*
X20958095Y28955972D01*
X20990949Y29005142D01*
X21032758Y29046951D01*
X21081928Y29079805D01*
X21136558Y29102434D01*
X21184932Y29112056D01*
X21194554Y29113970D01*
X21253686Y29113970D01*
X21263308Y29112056D01*
X21263308Y29112056D01*
G37*
G36*
X12264088Y29112056D02*
X12312462Y29102434D01*
X12367092Y29079805D01*
X12416262Y29046951D01*
X12458071Y29005142D01*
X12490925Y28955972D01*
X12513554Y28901342D01*
X12525090Y28843345D01*
X12525090Y28784215D01*
X12513554Y28726218D01*
X12490925Y28671588D01*
X12458071Y28622418D01*
X12416262Y28580609D01*
X12367092Y28547755D01*
X12312462Y28525126D01*
X12264088Y28515504D01*
X12254466Y28513590D01*
X12195334Y28513590D01*
X12185712Y28515504D01*
X12137338Y28525126D01*
X12082708Y28547755D01*
X12033538Y28580609D01*
X11991729Y28622418D01*
X11958875Y28671588D01*
X11936246Y28726218D01*
X11924710Y28784215D01*
X11924710Y28843345D01*
X11936246Y28901342D01*
X11958875Y28955972D01*
X11991729Y29005142D01*
X12033538Y29046951D01*
X12082708Y29079805D01*
X12137338Y29102434D01*
X12185712Y29112056D01*
X12195334Y29113970D01*
X12254466Y29113970D01*
X12264088Y29112056D01*
X12264088Y29112056D01*
G37*
G36*
X13264848Y29112056D02*
X13313222Y29102434D01*
X13367852Y29079805D01*
X13417022Y29046951D01*
X13458831Y29005142D01*
X13491685Y28955972D01*
X13514314Y28901342D01*
X13525850Y28843345D01*
X13525850Y28784215D01*
X13514314Y28726218D01*
X13491685Y28671588D01*
X13458831Y28622418D01*
X13417022Y28580609D01*
X13367852Y28547755D01*
X13313222Y28525126D01*
X13264848Y28515504D01*
X13255226Y28513590D01*
X13196094Y28513590D01*
X13186472Y28515504D01*
X13138098Y28525126D01*
X13083468Y28547755D01*
X13034298Y28580609D01*
X12992489Y28622418D01*
X12959635Y28671588D01*
X12937006Y28726218D01*
X12925470Y28784215D01*
X12925470Y28843345D01*
X12937006Y28901342D01*
X12959635Y28955972D01*
X12992489Y29005142D01*
X13034298Y29046951D01*
X13083468Y29079805D01*
X13138098Y29102434D01*
X13186472Y29112056D01*
X13196094Y29113970D01*
X13255226Y29113970D01*
X13264848Y29112056D01*
X13264848Y29112056D01*
G37*
G36*
X14263068Y29112056D02*
X14311442Y29102434D01*
X14366072Y29079805D01*
X14415242Y29046951D01*
X14457051Y29005142D01*
X14489905Y28955972D01*
X14512534Y28901342D01*
X14524070Y28843345D01*
X14524070Y28784215D01*
X14512534Y28726218D01*
X14489905Y28671588D01*
X14457051Y28622418D01*
X14415242Y28580609D01*
X14366072Y28547755D01*
X14311442Y28525126D01*
X14263068Y28515504D01*
X14253446Y28513590D01*
X14194314Y28513590D01*
X14184692Y28515504D01*
X14136318Y28525126D01*
X14081688Y28547755D01*
X14032518Y28580609D01*
X13990709Y28622418D01*
X13957855Y28671588D01*
X13935226Y28726218D01*
X13923690Y28784215D01*
X13923690Y28843345D01*
X13935226Y28901342D01*
X13957855Y28955972D01*
X13990709Y29005142D01*
X14032518Y29046951D01*
X14081688Y29079805D01*
X14136318Y29102434D01*
X14184692Y29112056D01*
X14194314Y29113970D01*
X14253446Y29113970D01*
X14263068Y29112056D01*
X14263068Y29112056D01*
G37*
G36*
X22264068Y29112056D02*
X22312442Y29102434D01*
X22367072Y29079805D01*
X22416242Y29046951D01*
X22458051Y29005142D01*
X22490905Y28955972D01*
X22513534Y28901342D01*
X22525070Y28843345D01*
X22525070Y28784215D01*
X22513534Y28726218D01*
X22490905Y28671588D01*
X22458051Y28622418D01*
X22416242Y28580609D01*
X22367072Y28547755D01*
X22312442Y28525126D01*
X22264068Y28515504D01*
X22254446Y28513590D01*
X22195314Y28513590D01*
X22185692Y28515504D01*
X22137318Y28525126D01*
X22082688Y28547755D01*
X22033518Y28580609D01*
X21991709Y28622418D01*
X21958855Y28671588D01*
X21936226Y28726218D01*
X21924690Y28784215D01*
X21924690Y28843345D01*
X21936226Y28901342D01*
X21958855Y28955972D01*
X21991709Y29005142D01*
X22033518Y29046951D01*
X22082688Y29079805D01*
X22137318Y29102434D01*
X22185692Y29112056D01*
X22195314Y29113970D01*
X22254446Y29113970D01*
X22264068Y29112056D01*
X22264068Y29112056D01*
G37*
G36*
X20265088Y29112056D02*
X20313462Y29102434D01*
X20368092Y29079805D01*
X20417262Y29046951D01*
X20459071Y29005142D01*
X20491925Y28955972D01*
X20514554Y28901342D01*
X20526090Y28843345D01*
X20526090Y28784215D01*
X20514554Y28726218D01*
X20491925Y28671588D01*
X20459071Y28622418D01*
X20417262Y28580609D01*
X20368092Y28547755D01*
X20313462Y28525126D01*
X20265088Y28515504D01*
X20255466Y28513590D01*
X20196334Y28513590D01*
X20186712Y28515504D01*
X20138338Y28525126D01*
X20083708Y28547755D01*
X20034538Y28580609D01*
X19992729Y28622418D01*
X19959875Y28671588D01*
X19937246Y28726218D01*
X19925710Y28784215D01*
X19925710Y28843345D01*
X19937246Y28901342D01*
X19959875Y28955972D01*
X19992729Y29005142D01*
X20034538Y29046951D01*
X20083708Y29079805D01*
X20138338Y29102434D01*
X20186712Y29112056D01*
X20196334Y29113970D01*
X20255466Y29113970D01*
X20265088Y29112056D01*
X20265088Y29112056D01*
G37*
G36*
X19264328Y29112056D02*
X19312702Y29102434D01*
X19367332Y29079805D01*
X19416502Y29046951D01*
X19458311Y29005142D01*
X19491165Y28955972D01*
X19513794Y28901342D01*
X19525330Y28843345D01*
X19525330Y28784215D01*
X19513794Y28726218D01*
X19491165Y28671588D01*
X19458311Y28622418D01*
X19416502Y28580609D01*
X19367332Y28547755D01*
X19312702Y28525126D01*
X19264328Y28515504D01*
X19254706Y28513590D01*
X19195574Y28513590D01*
X19185952Y28515504D01*
X19137578Y28525126D01*
X19082948Y28547755D01*
X19033778Y28580609D01*
X18991969Y28622418D01*
X18959115Y28671588D01*
X18936486Y28726218D01*
X18924950Y28784215D01*
X18924950Y28843345D01*
X18936486Y28901342D01*
X18959115Y28955972D01*
X18991969Y29005142D01*
X19033778Y29046951D01*
X19082948Y29079805D01*
X19137578Y29102434D01*
X19185952Y29112056D01*
X19195574Y29113970D01*
X19254706Y29113970D01*
X19264328Y29112056D01*
X19264328Y29112056D01*
G37*
G36*
X18263568Y29112056D02*
X18311942Y29102434D01*
X18366572Y29079805D01*
X18415742Y29046951D01*
X18457551Y29005142D01*
X18490405Y28955972D01*
X18513034Y28901342D01*
X18524570Y28843345D01*
X18524570Y28784215D01*
X18513034Y28726218D01*
X18490405Y28671588D01*
X18457551Y28622418D01*
X18415742Y28580609D01*
X18366572Y28547755D01*
X18311942Y28525126D01*
X18263568Y28515504D01*
X18253946Y28513590D01*
X18194814Y28513590D01*
X18185192Y28515504D01*
X18136818Y28525126D01*
X18082188Y28547755D01*
X18033018Y28580609D01*
X17991209Y28622418D01*
X17958355Y28671588D01*
X17935726Y28726218D01*
X17924190Y28784215D01*
X17924190Y28843345D01*
X17935726Y28901342D01*
X17958355Y28955972D01*
X17991209Y29005142D01*
X18033018Y29046951D01*
X18082188Y29079805D01*
X18136818Y29102434D01*
X18185192Y29112056D01*
X18194814Y29113970D01*
X18253946Y29113970D01*
X18263568Y29112056D01*
X18263568Y29112056D01*
G37*
G36*
X17265348Y29112056D02*
X17313722Y29102434D01*
X17368352Y29079805D01*
X17417522Y29046951D01*
X17459331Y29005142D01*
X17492185Y28955972D01*
X17514814Y28901342D01*
X17526350Y28843345D01*
X17526350Y28784215D01*
X17514814Y28726218D01*
X17492185Y28671588D01*
X17459331Y28622418D01*
X17417522Y28580609D01*
X17368352Y28547755D01*
X17313722Y28525126D01*
X17265348Y28515504D01*
X17255726Y28513590D01*
X17196594Y28513590D01*
X17186972Y28515504D01*
X17138598Y28525126D01*
X17083968Y28547755D01*
X17034798Y28580609D01*
X16992989Y28622418D01*
X16960135Y28671588D01*
X16937506Y28726218D01*
X16925970Y28784215D01*
X16925970Y28843345D01*
X16937506Y28901342D01*
X16960135Y28955972D01*
X16992989Y29005142D01*
X17034798Y29046951D01*
X17083968Y29079805D01*
X17138598Y29102434D01*
X17186972Y29112056D01*
X17196594Y29113970D01*
X17255726Y29113970D01*
X17265348Y29112056D01*
X17265348Y29112056D01*
G37*
G36*
X16264588Y29112056D02*
X16312962Y29102434D01*
X16367592Y29079805D01*
X16416762Y29046951D01*
X16458571Y29005142D01*
X16491425Y28955972D01*
X16514054Y28901342D01*
X16525590Y28843345D01*
X16525590Y28784215D01*
X16514054Y28726218D01*
X16491425Y28671588D01*
X16458571Y28622418D01*
X16416762Y28580609D01*
X16367592Y28547755D01*
X16312962Y28525126D01*
X16264588Y28515504D01*
X16254966Y28513590D01*
X16195834Y28513590D01*
X16186212Y28515504D01*
X16137838Y28525126D01*
X16083208Y28547755D01*
X16034038Y28580609D01*
X15992229Y28622418D01*
X15959375Y28671588D01*
X15936746Y28726218D01*
X15925210Y28784215D01*
X15925210Y28843345D01*
X15936746Y28901342D01*
X15959375Y28955972D01*
X15992229Y29005142D01*
X16034038Y29046951D01*
X16083208Y29079805D01*
X16137838Y29102434D01*
X16186212Y29112056D01*
X16195834Y29113970D01*
X16254966Y29113970D01*
X16264588Y29112056D01*
X16264588Y29112056D01*
G37*
G36*
X15263828Y29112056D02*
X15312202Y29102434D01*
X15366832Y29079805D01*
X15416002Y29046951D01*
X15457811Y29005142D01*
X15490665Y28955972D01*
X15513294Y28901342D01*
X15524830Y28843345D01*
X15524830Y28784215D01*
X15513294Y28726218D01*
X15490665Y28671588D01*
X15457811Y28622418D01*
X15416002Y28580609D01*
X15366832Y28547755D01*
X15312202Y28525126D01*
X15263828Y28515504D01*
X15254206Y28513590D01*
X15195074Y28513590D01*
X15185452Y28515504D01*
X15137078Y28525126D01*
X15082448Y28547755D01*
X15033278Y28580609D01*
X14991469Y28622418D01*
X14958615Y28671588D01*
X14935986Y28726218D01*
X14924450Y28784215D01*
X14924450Y28843345D01*
X14935986Y28901342D01*
X14958615Y28955972D01*
X14991469Y29005142D01*
X15033278Y29046951D01*
X15082448Y29079805D01*
X15137078Y29102434D01*
X15185452Y29112056D01*
X15195074Y29113970D01*
X15254206Y29113970D01*
X15263828Y29112056D01*
X15263828Y29112056D01*
G37*
G36*
X8625000Y28575000D02*
X8025000Y28575000D01*
X8025000Y29275000D01*
X8625000Y29275000D01*
X8625000Y28575000D01*
X8625000Y28575000D01*
G37*
G36*
X31675000Y29070000D02*
X30925000Y29070000D01*
X30925000Y30230000D01*
X31675000Y30230000D01*
X31675000Y29070000D01*
X31675000Y29070000D01*
G37*
G36*
X30725000Y29070000D02*
X29975000Y29070000D01*
X29975000Y30230000D01*
X30725000Y30230000D01*
X30725000Y29070000D01*
X30725000Y29070000D01*
G37*
G36*
X32625000Y29070000D02*
X31875000Y29070000D01*
X31875000Y30230000D01*
X32625000Y30230000D01*
X32625000Y29070000D01*
X32625000Y29070000D01*
G37*
G36*
X12264088Y30112816D02*
X12312462Y30103194D01*
X12367092Y30080565D01*
X12416262Y30047711D01*
X12458071Y30005902D01*
X12490925Y29956732D01*
X12513554Y29902102D01*
X12525090Y29844105D01*
X12525090Y29784975D01*
X12513554Y29726978D01*
X12490925Y29672348D01*
X12458071Y29623178D01*
X12416262Y29581369D01*
X12367092Y29548515D01*
X12312462Y29525886D01*
X12264088Y29516264D01*
X12254466Y29514350D01*
X12195334Y29514350D01*
X12185712Y29516264D01*
X12137338Y29525886D01*
X12082708Y29548515D01*
X12033538Y29581369D01*
X11991729Y29623178D01*
X11958875Y29672348D01*
X11936246Y29726978D01*
X11924710Y29784975D01*
X11924710Y29844105D01*
X11936246Y29902102D01*
X11958875Y29956732D01*
X11991729Y30005902D01*
X12033538Y30047711D01*
X12082708Y30080565D01*
X12137338Y30103194D01*
X12185712Y30112816D01*
X12195334Y30114730D01*
X12254466Y30114730D01*
X12264088Y30112816D01*
X12264088Y30112816D01*
G37*
G36*
X13264848Y30112816D02*
X13313222Y30103194D01*
X13367852Y30080565D01*
X13417022Y30047711D01*
X13458831Y30005902D01*
X13491685Y29956732D01*
X13514314Y29902102D01*
X13525850Y29844105D01*
X13525850Y29784975D01*
X13514314Y29726978D01*
X13491685Y29672348D01*
X13458831Y29623178D01*
X13417022Y29581369D01*
X13367852Y29548515D01*
X13313222Y29525886D01*
X13264848Y29516264D01*
X13255226Y29514350D01*
X13196094Y29514350D01*
X13186472Y29516264D01*
X13138098Y29525886D01*
X13083468Y29548515D01*
X13034298Y29581369D01*
X12992489Y29623178D01*
X12959635Y29672348D01*
X12937006Y29726978D01*
X12925470Y29784975D01*
X12925470Y29844105D01*
X12937006Y29902102D01*
X12959635Y29956732D01*
X12992489Y30005902D01*
X13034298Y30047711D01*
X13083468Y30080565D01*
X13138098Y30103194D01*
X13186472Y30112816D01*
X13196094Y30114730D01*
X13255226Y30114730D01*
X13264848Y30112816D01*
X13264848Y30112816D01*
G37*
G36*
X14263068Y30112816D02*
X14311442Y30103194D01*
X14366072Y30080565D01*
X14415242Y30047711D01*
X14457051Y30005902D01*
X14489905Y29956732D01*
X14512534Y29902102D01*
X14524070Y29844105D01*
X14524070Y29784975D01*
X14512534Y29726978D01*
X14489905Y29672348D01*
X14457051Y29623178D01*
X14415242Y29581369D01*
X14366072Y29548515D01*
X14311442Y29525886D01*
X14263068Y29516264D01*
X14253446Y29514350D01*
X14194314Y29514350D01*
X14184692Y29516264D01*
X14136318Y29525886D01*
X14081688Y29548515D01*
X14032518Y29581369D01*
X13990709Y29623178D01*
X13957855Y29672348D01*
X13935226Y29726978D01*
X13923690Y29784975D01*
X13923690Y29844105D01*
X13935226Y29902102D01*
X13957855Y29956732D01*
X13990709Y30005902D01*
X14032518Y30047711D01*
X14081688Y30080565D01*
X14136318Y30103194D01*
X14184692Y30112816D01*
X14194314Y30114730D01*
X14253446Y30114730D01*
X14263068Y30112816D01*
X14263068Y30112816D01*
G37*
G36*
X15263828Y30112816D02*
X15312202Y30103194D01*
X15366832Y30080565D01*
X15416002Y30047711D01*
X15457811Y30005902D01*
X15490665Y29956732D01*
X15513294Y29902102D01*
X15524830Y29844105D01*
X15524830Y29784975D01*
X15513294Y29726978D01*
X15490665Y29672348D01*
X15457811Y29623178D01*
X15416002Y29581369D01*
X15366832Y29548515D01*
X15312202Y29525886D01*
X15263828Y29516264D01*
X15254206Y29514350D01*
X15195074Y29514350D01*
X15185452Y29516264D01*
X15137078Y29525886D01*
X15082448Y29548515D01*
X15033278Y29581369D01*
X14991469Y29623178D01*
X14958615Y29672348D01*
X14935986Y29726978D01*
X14924450Y29784975D01*
X14924450Y29844105D01*
X14935986Y29902102D01*
X14958615Y29956732D01*
X14991469Y30005902D01*
X15033278Y30047711D01*
X15082448Y30080565D01*
X15137078Y30103194D01*
X15185452Y30112816D01*
X15195074Y30114730D01*
X15254206Y30114730D01*
X15263828Y30112816D01*
X15263828Y30112816D01*
G37*
G36*
X19264328Y30112816D02*
X19312702Y30103194D01*
X19367332Y30080565D01*
X19416502Y30047711D01*
X19458311Y30005902D01*
X19491165Y29956732D01*
X19513794Y29902102D01*
X19525330Y29844105D01*
X19525330Y29784975D01*
X19513794Y29726978D01*
X19491165Y29672348D01*
X19458311Y29623178D01*
X19416502Y29581369D01*
X19367332Y29548515D01*
X19312702Y29525886D01*
X19264328Y29516264D01*
X19254706Y29514350D01*
X19195574Y29514350D01*
X19185952Y29516264D01*
X19137578Y29525886D01*
X19082948Y29548515D01*
X19033778Y29581369D01*
X18991969Y29623178D01*
X18959115Y29672348D01*
X18936486Y29726978D01*
X18924950Y29784975D01*
X18924950Y29844105D01*
X18936486Y29902102D01*
X18959115Y29956732D01*
X18991969Y30005902D01*
X19033778Y30047711D01*
X19082948Y30080565D01*
X19137578Y30103194D01*
X19185952Y30112816D01*
X19195574Y30114730D01*
X19254706Y30114730D01*
X19264328Y30112816D01*
X19264328Y30112816D01*
G37*
G36*
X18263568Y30112816D02*
X18311942Y30103194D01*
X18366572Y30080565D01*
X18415742Y30047711D01*
X18457551Y30005902D01*
X18490405Y29956732D01*
X18513034Y29902102D01*
X18524570Y29844105D01*
X18524570Y29784975D01*
X18513034Y29726978D01*
X18490405Y29672348D01*
X18457551Y29623178D01*
X18415742Y29581369D01*
X18366572Y29548515D01*
X18311942Y29525886D01*
X18263568Y29516264D01*
X18253946Y29514350D01*
X18194814Y29514350D01*
X18185192Y29516264D01*
X18136818Y29525886D01*
X18082188Y29548515D01*
X18033018Y29581369D01*
X17991209Y29623178D01*
X17958355Y29672348D01*
X17935726Y29726978D01*
X17924190Y29784975D01*
X17924190Y29844105D01*
X17935726Y29902102D01*
X17958355Y29956732D01*
X17991209Y30005902D01*
X18033018Y30047711D01*
X18082188Y30080565D01*
X18136818Y30103194D01*
X18185192Y30112816D01*
X18194814Y30114730D01*
X18253946Y30114730D01*
X18263568Y30112816D01*
X18263568Y30112816D01*
G37*
G36*
X17265348Y30112816D02*
X17313722Y30103194D01*
X17368352Y30080565D01*
X17417522Y30047711D01*
X17459331Y30005902D01*
X17492185Y29956732D01*
X17514814Y29902102D01*
X17526350Y29844105D01*
X17526350Y29784975D01*
X17514814Y29726978D01*
X17492185Y29672348D01*
X17459331Y29623178D01*
X17417522Y29581369D01*
X17368352Y29548515D01*
X17313722Y29525886D01*
X17265348Y29516264D01*
X17255726Y29514350D01*
X17196594Y29514350D01*
X17186972Y29516264D01*
X17138598Y29525886D01*
X17083968Y29548515D01*
X17034798Y29581369D01*
X16992989Y29623178D01*
X16960135Y29672348D01*
X16937506Y29726978D01*
X16925970Y29784975D01*
X16925970Y29844105D01*
X16937506Y29902102D01*
X16960135Y29956732D01*
X16992989Y30005902D01*
X17034798Y30047711D01*
X17083968Y30080565D01*
X17138598Y30103194D01*
X17186972Y30112816D01*
X17196594Y30114730D01*
X17255726Y30114730D01*
X17265348Y30112816D01*
X17265348Y30112816D01*
G37*
G36*
X16264588Y30112816D02*
X16312962Y30103194D01*
X16367592Y30080565D01*
X16416762Y30047711D01*
X16458571Y30005902D01*
X16491425Y29956732D01*
X16514054Y29902102D01*
X16525590Y29844105D01*
X16525590Y29784975D01*
X16514054Y29726978D01*
X16491425Y29672348D01*
X16458571Y29623178D01*
X16416762Y29581369D01*
X16367592Y29548515D01*
X16312962Y29525886D01*
X16264588Y29516264D01*
X16254966Y29514350D01*
X16195834Y29514350D01*
X16186212Y29516264D01*
X16137838Y29525886D01*
X16083208Y29548515D01*
X16034038Y29581369D01*
X15992229Y29623178D01*
X15959375Y29672348D01*
X15936746Y29726978D01*
X15925210Y29784975D01*
X15925210Y29844105D01*
X15936746Y29902102D01*
X15959375Y29956732D01*
X15992229Y30005902D01*
X16034038Y30047711D01*
X16083208Y30080565D01*
X16137838Y30103194D01*
X16186212Y30112816D01*
X16195834Y30114730D01*
X16254966Y30114730D01*
X16264588Y30112816D01*
X16264588Y30112816D01*
G37*
G36*
X22264068Y30112816D02*
X22312442Y30103194D01*
X22367072Y30080565D01*
X22416242Y30047711D01*
X22458051Y30005902D01*
X22490905Y29956732D01*
X22513534Y29902102D01*
X22525070Y29844105D01*
X22525070Y29784975D01*
X22513534Y29726978D01*
X22490905Y29672348D01*
X22458051Y29623178D01*
X22416242Y29581369D01*
X22367072Y29548515D01*
X22312442Y29525886D01*
X22264068Y29516264D01*
X22254446Y29514350D01*
X22195314Y29514350D01*
X22185692Y29516264D01*
X22137318Y29525886D01*
X22082688Y29548515D01*
X22033518Y29581369D01*
X21991709Y29623178D01*
X21958855Y29672348D01*
X21936226Y29726978D01*
X21924690Y29784975D01*
X21924690Y29844105D01*
X21936226Y29902102D01*
X21958855Y29956732D01*
X21991709Y30005902D01*
X22033518Y30047711D01*
X22082688Y30080565D01*
X22137318Y30103194D01*
X22185692Y30112816D01*
X22195314Y30114730D01*
X22254446Y30114730D01*
X22264068Y30112816D01*
X22264068Y30112816D01*
G37*
G36*
X23264828Y30112816D02*
X23313202Y30103194D01*
X23367832Y30080565D01*
X23417002Y30047711D01*
X23458811Y30005902D01*
X23491665Y29956732D01*
X23514294Y29902102D01*
X23525830Y29844105D01*
X23525830Y29784975D01*
X23514294Y29726978D01*
X23491665Y29672348D01*
X23458811Y29623178D01*
X23417002Y29581369D01*
X23367832Y29548515D01*
X23313202Y29525886D01*
X23264828Y29516264D01*
X23255206Y29514350D01*
X23196074Y29514350D01*
X23186452Y29516264D01*
X23138078Y29525886D01*
X23083448Y29548515D01*
X23034278Y29581369D01*
X22992469Y29623178D01*
X22959615Y29672348D01*
X22936986Y29726978D01*
X22925450Y29784975D01*
X22925450Y29844105D01*
X22936986Y29902102D01*
X22959615Y29956732D01*
X22992469Y30005902D01*
X23034278Y30047711D01*
X23083448Y30080565D01*
X23138078Y30103194D01*
X23186452Y30112816D01*
X23196074Y30114730D01*
X23255206Y30114730D01*
X23264828Y30112816D01*
X23264828Y30112816D01*
G37*
G36*
X21263308Y30112816D02*
X21311682Y30103194D01*
X21366312Y30080565D01*
X21415482Y30047711D01*
X21457291Y30005902D01*
X21490145Y29956732D01*
X21512774Y29902102D01*
X21524310Y29844105D01*
X21524310Y29784975D01*
X21512774Y29726978D01*
X21490145Y29672348D01*
X21457291Y29623178D01*
X21415482Y29581369D01*
X21366312Y29548515D01*
X21311682Y29525886D01*
X21263308Y29516264D01*
X21253686Y29514350D01*
X21194554Y29514350D01*
X21184932Y29516264D01*
X21136558Y29525886D01*
X21081928Y29548515D01*
X21032758Y29581369D01*
X20990949Y29623178D01*
X20958095Y29672348D01*
X20935466Y29726978D01*
X20923930Y29784975D01*
X20923930Y29844105D01*
X20935466Y29902102D01*
X20958095Y29956732D01*
X20990949Y30005902D01*
X21032758Y30047711D01*
X21081928Y30080565D01*
X21136558Y30103194D01*
X21184932Y30112816D01*
X21194554Y30114730D01*
X21253686Y30114730D01*
X21263308Y30112816D01*
X21263308Y30112816D01*
G37*
G36*
X20265088Y30112816D02*
X20313462Y30103194D01*
X20368092Y30080565D01*
X20417262Y30047711D01*
X20459071Y30005902D01*
X20491925Y29956732D01*
X20514554Y29902102D01*
X20526090Y29844105D01*
X20526090Y29784975D01*
X20514554Y29726978D01*
X20491925Y29672348D01*
X20459071Y29623178D01*
X20417262Y29581369D01*
X20368092Y29548515D01*
X20313462Y29525886D01*
X20265088Y29516264D01*
X20255466Y29514350D01*
X20196334Y29514350D01*
X20186712Y29516264D01*
X20138338Y29525886D01*
X20083708Y29548515D01*
X20034538Y29581369D01*
X19992729Y29623178D01*
X19959875Y29672348D01*
X19937246Y29726978D01*
X19925710Y29784975D01*
X19925710Y29844105D01*
X19937246Y29902102D01*
X19959875Y29956732D01*
X19992729Y30005902D01*
X20034538Y30047711D01*
X20083708Y30080565D01*
X20138338Y30103194D01*
X20186712Y30112816D01*
X20196334Y30114730D01*
X20255466Y30114730D01*
X20265088Y30112816D01*
X20265088Y30112816D01*
G37*
G36*
X10475000Y29575000D02*
X9775000Y29575000D01*
X9775000Y30075000D01*
X10475000Y30075000D01*
X10475000Y29575000D01*
X10475000Y29575000D01*
G37*
G36*
X10475000Y30475000D02*
X9775000Y30475000D01*
X9775000Y30975000D01*
X10475000Y30975000D01*
X10475000Y30475000D01*
X10475000Y30475000D01*
G37*
G36*
X21263308Y31113576D02*
X21311682Y31103954D01*
X21366312Y31081325D01*
X21415482Y31048471D01*
X21457291Y31006662D01*
X21490145Y30957492D01*
X21512774Y30902862D01*
X21524310Y30844865D01*
X21524310Y30785735D01*
X21512774Y30727738D01*
X21490145Y30673108D01*
X21457291Y30623938D01*
X21415482Y30582129D01*
X21366312Y30549275D01*
X21311682Y30526646D01*
X21263308Y30517024D01*
X21253686Y30515110D01*
X21194554Y30515110D01*
X21184932Y30517024D01*
X21136558Y30526646D01*
X21081928Y30549275D01*
X21032758Y30582129D01*
X20990949Y30623938D01*
X20958095Y30673108D01*
X20935466Y30727738D01*
X20923930Y30785735D01*
X20923930Y30844865D01*
X20935466Y30902862D01*
X20958095Y30957492D01*
X20990949Y31006662D01*
X21032758Y31048471D01*
X21081928Y31081325D01*
X21136558Y31103954D01*
X21184932Y31113576D01*
X21194554Y31115490D01*
X21253686Y31115490D01*
X21263308Y31113576D01*
X21263308Y31113576D01*
G37*
G36*
X13264848Y31113576D02*
X13313222Y31103954D01*
X13367852Y31081325D01*
X13417022Y31048471D01*
X13458831Y31006662D01*
X13491685Y30957492D01*
X13514314Y30902862D01*
X13525850Y30844865D01*
X13525850Y30785735D01*
X13514314Y30727738D01*
X13491685Y30673108D01*
X13458831Y30623938D01*
X13417022Y30582129D01*
X13367852Y30549275D01*
X13313222Y30526646D01*
X13264848Y30517024D01*
X13255226Y30515110D01*
X13196094Y30515110D01*
X13186472Y30517024D01*
X13138098Y30526646D01*
X13083468Y30549275D01*
X13034298Y30582129D01*
X12992489Y30623938D01*
X12959635Y30673108D01*
X12937006Y30727738D01*
X12925470Y30785735D01*
X12925470Y30844865D01*
X12937006Y30902862D01*
X12959635Y30957492D01*
X12992489Y31006662D01*
X13034298Y31048471D01*
X13083468Y31081325D01*
X13138098Y31103954D01*
X13186472Y31113576D01*
X13196094Y31115490D01*
X13255226Y31115490D01*
X13264848Y31113576D01*
X13264848Y31113576D01*
G37*
G36*
X12264088Y31113576D02*
X12312462Y31103954D01*
X12367092Y31081325D01*
X12416262Y31048471D01*
X12458071Y31006662D01*
X12490925Y30957492D01*
X12513554Y30902862D01*
X12525090Y30844865D01*
X12525090Y30785735D01*
X12513554Y30727738D01*
X12490925Y30673108D01*
X12458071Y30623938D01*
X12416262Y30582129D01*
X12367092Y30549275D01*
X12312462Y30526646D01*
X12264088Y30517024D01*
X12254466Y30515110D01*
X12195334Y30515110D01*
X12185712Y30517024D01*
X12137338Y30526646D01*
X12082708Y30549275D01*
X12033538Y30582129D01*
X11991729Y30623938D01*
X11958875Y30673108D01*
X11936246Y30727738D01*
X11924710Y30785735D01*
X11924710Y30844865D01*
X11936246Y30902862D01*
X11958875Y30957492D01*
X11991729Y31006662D01*
X12033538Y31048471D01*
X12082708Y31081325D01*
X12137338Y31103954D01*
X12185712Y31113576D01*
X12195334Y31115490D01*
X12254466Y31115490D01*
X12264088Y31113576D01*
X12264088Y31113576D01*
G37*
G36*
X14263068Y31113576D02*
X14311442Y31103954D01*
X14366072Y31081325D01*
X14415242Y31048471D01*
X14457051Y31006662D01*
X14489905Y30957492D01*
X14512534Y30902862D01*
X14524070Y30844865D01*
X14524070Y30785735D01*
X14512534Y30727738D01*
X14489905Y30673108D01*
X14457051Y30623938D01*
X14415242Y30582129D01*
X14366072Y30549275D01*
X14311442Y30526646D01*
X14263068Y30517024D01*
X14253446Y30515110D01*
X14194314Y30515110D01*
X14184692Y30517024D01*
X14136318Y30526646D01*
X14081688Y30549275D01*
X14032518Y30582129D01*
X13990709Y30623938D01*
X13957855Y30673108D01*
X13935226Y30727738D01*
X13923690Y30785735D01*
X13923690Y30844865D01*
X13935226Y30902862D01*
X13957855Y30957492D01*
X13990709Y31006662D01*
X14032518Y31048471D01*
X14081688Y31081325D01*
X14136318Y31103954D01*
X14184692Y31113576D01*
X14194314Y31115490D01*
X14253446Y31115490D01*
X14263068Y31113576D01*
X14263068Y31113576D01*
G37*
G36*
X15263828Y31113576D02*
X15312202Y31103954D01*
X15366832Y31081325D01*
X15416002Y31048471D01*
X15457811Y31006662D01*
X15490665Y30957492D01*
X15513294Y30902862D01*
X15524830Y30844865D01*
X15524830Y30785735D01*
X15513294Y30727738D01*
X15490665Y30673108D01*
X15457811Y30623938D01*
X15416002Y30582129D01*
X15366832Y30549275D01*
X15312202Y30526646D01*
X15263828Y30517024D01*
X15254206Y30515110D01*
X15195074Y30515110D01*
X15185452Y30517024D01*
X15137078Y30526646D01*
X15082448Y30549275D01*
X15033278Y30582129D01*
X14991469Y30623938D01*
X14958615Y30673108D01*
X14935986Y30727738D01*
X14924450Y30785735D01*
X14924450Y30844865D01*
X14935986Y30902862D01*
X14958615Y30957492D01*
X14991469Y31006662D01*
X15033278Y31048471D01*
X15082448Y31081325D01*
X15137078Y31103954D01*
X15185452Y31113576D01*
X15195074Y31115490D01*
X15254206Y31115490D01*
X15263828Y31113576D01*
X15263828Y31113576D01*
G37*
G36*
X16264588Y31113576D02*
X16312962Y31103954D01*
X16367592Y31081325D01*
X16416762Y31048471D01*
X16458571Y31006662D01*
X16491425Y30957492D01*
X16514054Y30902862D01*
X16525590Y30844865D01*
X16525590Y30785735D01*
X16514054Y30727738D01*
X16491425Y30673108D01*
X16458571Y30623938D01*
X16416762Y30582129D01*
X16367592Y30549275D01*
X16312962Y30526646D01*
X16264588Y30517024D01*
X16254966Y30515110D01*
X16195834Y30515110D01*
X16186212Y30517024D01*
X16137838Y30526646D01*
X16083208Y30549275D01*
X16034038Y30582129D01*
X15992229Y30623938D01*
X15959375Y30673108D01*
X15936746Y30727738D01*
X15925210Y30785735D01*
X15925210Y30844865D01*
X15936746Y30902862D01*
X15959375Y30957492D01*
X15992229Y31006662D01*
X16034038Y31048471D01*
X16083208Y31081325D01*
X16137838Y31103954D01*
X16186212Y31113576D01*
X16195834Y31115490D01*
X16254966Y31115490D01*
X16264588Y31113576D01*
X16264588Y31113576D01*
G37*
G36*
X17265348Y31113576D02*
X17313722Y31103954D01*
X17368352Y31081325D01*
X17417522Y31048471D01*
X17459331Y31006662D01*
X17492185Y30957492D01*
X17514814Y30902862D01*
X17526350Y30844865D01*
X17526350Y30785735D01*
X17514814Y30727738D01*
X17492185Y30673108D01*
X17459331Y30623938D01*
X17417522Y30582129D01*
X17368352Y30549275D01*
X17313722Y30526646D01*
X17265348Y30517024D01*
X17255726Y30515110D01*
X17196594Y30515110D01*
X17186972Y30517024D01*
X17138598Y30526646D01*
X17083968Y30549275D01*
X17034798Y30582129D01*
X16992989Y30623938D01*
X16960135Y30673108D01*
X16937506Y30727738D01*
X16925970Y30785735D01*
X16925970Y30844865D01*
X16937506Y30902862D01*
X16960135Y30957492D01*
X16992989Y31006662D01*
X17034798Y31048471D01*
X17083968Y31081325D01*
X17138598Y31103954D01*
X17186972Y31113576D01*
X17196594Y31115490D01*
X17255726Y31115490D01*
X17265348Y31113576D01*
X17265348Y31113576D01*
G37*
G36*
X18263568Y31113576D02*
X18311942Y31103954D01*
X18366572Y31081325D01*
X18415742Y31048471D01*
X18457551Y31006662D01*
X18490405Y30957492D01*
X18513034Y30902862D01*
X18524570Y30844865D01*
X18524570Y30785735D01*
X18513034Y30727738D01*
X18490405Y30673108D01*
X18457551Y30623938D01*
X18415742Y30582129D01*
X18366572Y30549275D01*
X18311942Y30526646D01*
X18263568Y30517024D01*
X18253946Y30515110D01*
X18194814Y30515110D01*
X18185192Y30517024D01*
X18136818Y30526646D01*
X18082188Y30549275D01*
X18033018Y30582129D01*
X17991209Y30623938D01*
X17958355Y30673108D01*
X17935726Y30727738D01*
X17924190Y30785735D01*
X17924190Y30844865D01*
X17935726Y30902862D01*
X17958355Y30957492D01*
X17991209Y31006662D01*
X18033018Y31048471D01*
X18082188Y31081325D01*
X18136818Y31103954D01*
X18185192Y31113576D01*
X18194814Y31115490D01*
X18253946Y31115490D01*
X18263568Y31113576D01*
X18263568Y31113576D01*
G37*
G36*
X19264328Y31113576D02*
X19312702Y31103954D01*
X19367332Y31081325D01*
X19416502Y31048471D01*
X19458311Y31006662D01*
X19491165Y30957492D01*
X19513794Y30902862D01*
X19525330Y30844865D01*
X19525330Y30785735D01*
X19513794Y30727738D01*
X19491165Y30673108D01*
X19458311Y30623938D01*
X19416502Y30582129D01*
X19367332Y30549275D01*
X19312702Y30526646D01*
X19264328Y30517024D01*
X19254706Y30515110D01*
X19195574Y30515110D01*
X19185952Y30517024D01*
X19137578Y30526646D01*
X19082948Y30549275D01*
X19033778Y30582129D01*
X18991969Y30623938D01*
X18959115Y30673108D01*
X18936486Y30727738D01*
X18924950Y30785735D01*
X18924950Y30844865D01*
X18936486Y30902862D01*
X18959115Y30957492D01*
X18991969Y31006662D01*
X19033778Y31048471D01*
X19082948Y31081325D01*
X19137578Y31103954D01*
X19185952Y31113576D01*
X19195574Y31115490D01*
X19254706Y31115490D01*
X19264328Y31113576D01*
X19264328Y31113576D01*
G37*
G36*
X22264068Y31113576D02*
X22312442Y31103954D01*
X22367072Y31081325D01*
X22416242Y31048471D01*
X22458051Y31006662D01*
X22490905Y30957492D01*
X22513534Y30902862D01*
X22525070Y30844865D01*
X22525070Y30785735D01*
X22513534Y30727738D01*
X22490905Y30673108D01*
X22458051Y30623938D01*
X22416242Y30582129D01*
X22367072Y30549275D01*
X22312442Y30526646D01*
X22264068Y30517024D01*
X22254446Y30515110D01*
X22195314Y30515110D01*
X22185692Y30517024D01*
X22137318Y30526646D01*
X22082688Y30549275D01*
X22033518Y30582129D01*
X21991709Y30623938D01*
X21958855Y30673108D01*
X21936226Y30727738D01*
X21924690Y30785735D01*
X21924690Y30844865D01*
X21936226Y30902862D01*
X21958855Y30957492D01*
X21991709Y31006662D01*
X22033518Y31048471D01*
X22082688Y31081325D01*
X22137318Y31103954D01*
X22185692Y31113576D01*
X22195314Y31115490D01*
X22254446Y31115490D01*
X22264068Y31113576D01*
X22264068Y31113576D01*
G37*
G36*
X20265088Y31113576D02*
X20313462Y31103954D01*
X20368092Y31081325D01*
X20417262Y31048471D01*
X20459071Y31006662D01*
X20491925Y30957492D01*
X20514554Y30902862D01*
X20526090Y30844865D01*
X20526090Y30785735D01*
X20514554Y30727738D01*
X20491925Y30673108D01*
X20459071Y30623938D01*
X20417262Y30582129D01*
X20368092Y30549275D01*
X20313462Y30526646D01*
X20265088Y30517024D01*
X20255466Y30515110D01*
X20196334Y30515110D01*
X20186712Y30517024D01*
X20138338Y30526646D01*
X20083708Y30549275D01*
X20034538Y30582129D01*
X19992729Y30623938D01*
X19959875Y30673108D01*
X19937246Y30727738D01*
X19925710Y30785735D01*
X19925710Y30844865D01*
X19937246Y30902862D01*
X19959875Y30957492D01*
X19992729Y31006662D01*
X20034538Y31048471D01*
X20083708Y31081325D01*
X20138338Y31103954D01*
X20186712Y31113576D01*
X20196334Y31115490D01*
X20255466Y31115490D01*
X20265088Y31113576D01*
X20265088Y31113576D01*
G37*
G36*
X23264828Y31113576D02*
X23313202Y31103954D01*
X23367832Y31081325D01*
X23417002Y31048471D01*
X23458811Y31006662D01*
X23491665Y30957492D01*
X23514294Y30902862D01*
X23525830Y30844865D01*
X23525830Y30785735D01*
X23514294Y30727738D01*
X23491665Y30673108D01*
X23458811Y30623938D01*
X23417002Y30582129D01*
X23367832Y30549275D01*
X23313202Y30526646D01*
X23264828Y30517024D01*
X23255206Y30515110D01*
X23196074Y30515110D01*
X23186452Y30517024D01*
X23138078Y30526646D01*
X23083448Y30549275D01*
X23034278Y30582129D01*
X22992469Y30623938D01*
X22959615Y30673108D01*
X22936986Y30727738D01*
X22925450Y30785735D01*
X22925450Y30844865D01*
X22936986Y30902862D01*
X22959615Y30957492D01*
X22992469Y31006662D01*
X23034278Y31048471D01*
X23083448Y31081325D01*
X23138078Y31103954D01*
X23186452Y31113576D01*
X23196074Y31115490D01*
X23255206Y31115490D01*
X23264828Y31113576D01*
X23264828Y31113576D01*
G37*
G36*
X5476433Y32316977D02*
X5646081Y32265515D01*
X5802432Y32181944D01*
X5939476Y32069476D01*
X6051944Y31932432D01*
X6135515Y31776081D01*
X6186977Y31606433D01*
X6204354Y31430000D01*
X6186977Y31253567D01*
X6135515Y31083919D01*
X6051944Y30927568D01*
X5939476Y30790524D01*
X5802432Y30678056D01*
X5646081Y30594485D01*
X5476433Y30543023D01*
X5344211Y30530000D01*
X5255789Y30530000D01*
X5123567Y30543023D01*
X4953919Y30594485D01*
X4797568Y30678056D01*
X4660524Y30790524D01*
X4548056Y30927568D01*
X4464485Y31083919D01*
X4413023Y31253567D01*
X4395646Y31430000D01*
X4413023Y31606433D01*
X4464485Y31776081D01*
X4548056Y31932432D01*
X4660524Y32069476D01*
X4797568Y32181944D01*
X4953919Y32265515D01*
X5123567Y32316977D01*
X5255789Y32330000D01*
X5344211Y32330000D01*
X5476433Y32316977D01*
X5476433Y32316977D01*
G37*
G36*
X32625000Y31270000D02*
X31875000Y31270000D01*
X31875000Y32430000D01*
X32625000Y32430000D01*
X32625000Y31270000D01*
X32625000Y31270000D01*
G37*
G36*
X30725000Y31270000D02*
X29975000Y31270000D01*
X29975000Y32430000D01*
X30725000Y32430000D01*
X30725000Y31270000D01*
X30725000Y31270000D01*
G37*
G36*
X12264088Y32111796D02*
X12312462Y32102174D01*
X12367092Y32079545D01*
X12416262Y32046691D01*
X12458071Y32004882D01*
X12490925Y31955712D01*
X12513554Y31901082D01*
X12525090Y31843085D01*
X12525090Y31783955D01*
X12513554Y31725958D01*
X12490925Y31671328D01*
X12458071Y31622158D01*
X12416262Y31580349D01*
X12367092Y31547495D01*
X12312462Y31524866D01*
X12264088Y31515244D01*
X12254466Y31513330D01*
X12195334Y31513330D01*
X12185712Y31515244D01*
X12137338Y31524866D01*
X12082708Y31547495D01*
X12033538Y31580349D01*
X11991729Y31622158D01*
X11958875Y31671328D01*
X11936246Y31725958D01*
X11924710Y31783955D01*
X11924710Y31843085D01*
X11936246Y31901082D01*
X11958875Y31955712D01*
X11991729Y32004882D01*
X12033538Y32046691D01*
X12082708Y32079545D01*
X12137338Y32102174D01*
X12185712Y32111796D01*
X12195334Y32113710D01*
X12254466Y32113710D01*
X12264088Y32111796D01*
X12264088Y32111796D01*
G37*
G36*
X15263828Y32111796D02*
X15312202Y32102174D01*
X15366832Y32079545D01*
X15416002Y32046691D01*
X15457811Y32004882D01*
X15490665Y31955712D01*
X15513294Y31901082D01*
X15524830Y31843085D01*
X15524830Y31783955D01*
X15513294Y31725958D01*
X15490665Y31671328D01*
X15457811Y31622158D01*
X15416002Y31580349D01*
X15366832Y31547495D01*
X15312202Y31524866D01*
X15263828Y31515244D01*
X15254206Y31513330D01*
X15195074Y31513330D01*
X15185452Y31515244D01*
X15137078Y31524866D01*
X15082448Y31547495D01*
X15033278Y31580349D01*
X14991469Y31622158D01*
X14958615Y31671328D01*
X14935986Y31725958D01*
X14924450Y31783955D01*
X14924450Y31843085D01*
X14935986Y31901082D01*
X14958615Y31955712D01*
X14991469Y32004882D01*
X15033278Y32046691D01*
X15082448Y32079545D01*
X15137078Y32102174D01*
X15185452Y32111796D01*
X15195074Y32113710D01*
X15254206Y32113710D01*
X15263828Y32111796D01*
X15263828Y32111796D01*
G37*
G36*
X16264588Y32111796D02*
X16312962Y32102174D01*
X16367592Y32079545D01*
X16416762Y32046691D01*
X16458571Y32004882D01*
X16491425Y31955712D01*
X16514054Y31901082D01*
X16525590Y31843085D01*
X16525590Y31783955D01*
X16514054Y31725958D01*
X16491425Y31671328D01*
X16458571Y31622158D01*
X16416762Y31580349D01*
X16367592Y31547495D01*
X16312962Y31524866D01*
X16264588Y31515244D01*
X16254966Y31513330D01*
X16195834Y31513330D01*
X16186212Y31515244D01*
X16137838Y31524866D01*
X16083208Y31547495D01*
X16034038Y31580349D01*
X15992229Y31622158D01*
X15959375Y31671328D01*
X15936746Y31725958D01*
X15925210Y31783955D01*
X15925210Y31843085D01*
X15936746Y31901082D01*
X15959375Y31955712D01*
X15992229Y32004882D01*
X16034038Y32046691D01*
X16083208Y32079545D01*
X16137838Y32102174D01*
X16186212Y32111796D01*
X16195834Y32113710D01*
X16254966Y32113710D01*
X16264588Y32111796D01*
X16264588Y32111796D01*
G37*
G36*
X17265348Y32111796D02*
X17313722Y32102174D01*
X17368352Y32079545D01*
X17417522Y32046691D01*
X17459331Y32004882D01*
X17492185Y31955712D01*
X17514814Y31901082D01*
X17526350Y31843085D01*
X17526350Y31783955D01*
X17514814Y31725958D01*
X17492185Y31671328D01*
X17459331Y31622158D01*
X17417522Y31580349D01*
X17368352Y31547495D01*
X17313722Y31524866D01*
X17265348Y31515244D01*
X17255726Y31513330D01*
X17196594Y31513330D01*
X17186972Y31515244D01*
X17138598Y31524866D01*
X17083968Y31547495D01*
X17034798Y31580349D01*
X16992989Y31622158D01*
X16960135Y31671328D01*
X16937506Y31725958D01*
X16925970Y31783955D01*
X16925970Y31843085D01*
X16937506Y31901082D01*
X16960135Y31955712D01*
X16992989Y32004882D01*
X17034798Y32046691D01*
X17083968Y32079545D01*
X17138598Y32102174D01*
X17186972Y32111796D01*
X17196594Y32113710D01*
X17255726Y32113710D01*
X17265348Y32111796D01*
X17265348Y32111796D01*
G37*
G36*
X18263568Y32111796D02*
X18311942Y32102174D01*
X18366572Y32079545D01*
X18415742Y32046691D01*
X18457551Y32004882D01*
X18490405Y31955712D01*
X18513034Y31901082D01*
X18524570Y31843085D01*
X18524570Y31783955D01*
X18513034Y31725958D01*
X18490405Y31671328D01*
X18457551Y31622158D01*
X18415742Y31580349D01*
X18366572Y31547495D01*
X18311942Y31524866D01*
X18263568Y31515244D01*
X18253946Y31513330D01*
X18194814Y31513330D01*
X18185192Y31515244D01*
X18136818Y31524866D01*
X18082188Y31547495D01*
X18033018Y31580349D01*
X17991209Y31622158D01*
X17958355Y31671328D01*
X17935726Y31725958D01*
X17924190Y31783955D01*
X17924190Y31843085D01*
X17935726Y31901082D01*
X17958355Y31955712D01*
X17991209Y32004882D01*
X18033018Y32046691D01*
X18082188Y32079545D01*
X18136818Y32102174D01*
X18185192Y32111796D01*
X18194814Y32113710D01*
X18253946Y32113710D01*
X18263568Y32111796D01*
X18263568Y32111796D01*
G37*
G36*
X19264328Y32111796D02*
X19312702Y32102174D01*
X19367332Y32079545D01*
X19416502Y32046691D01*
X19458311Y32004882D01*
X19491165Y31955712D01*
X19513794Y31901082D01*
X19525330Y31843085D01*
X19525330Y31783955D01*
X19513794Y31725958D01*
X19491165Y31671328D01*
X19458311Y31622158D01*
X19416502Y31580349D01*
X19367332Y31547495D01*
X19312702Y31524866D01*
X19264328Y31515244D01*
X19254706Y31513330D01*
X19195574Y31513330D01*
X19185952Y31515244D01*
X19137578Y31524866D01*
X19082948Y31547495D01*
X19033778Y31580349D01*
X18991969Y31622158D01*
X18959115Y31671328D01*
X18936486Y31725958D01*
X18924950Y31783955D01*
X18924950Y31843085D01*
X18936486Y31901082D01*
X18959115Y31955712D01*
X18991969Y32004882D01*
X19033778Y32046691D01*
X19082948Y32079545D01*
X19137578Y32102174D01*
X19185952Y32111796D01*
X19195574Y32113710D01*
X19254706Y32113710D01*
X19264328Y32111796D01*
X19264328Y32111796D01*
G37*
G36*
X20265088Y32111796D02*
X20313462Y32102174D01*
X20368092Y32079545D01*
X20417262Y32046691D01*
X20459071Y32004882D01*
X20491925Y31955712D01*
X20514554Y31901082D01*
X20526090Y31843085D01*
X20526090Y31783955D01*
X20514554Y31725958D01*
X20491925Y31671328D01*
X20459071Y31622158D01*
X20417262Y31580349D01*
X20368092Y31547495D01*
X20313462Y31524866D01*
X20265088Y31515244D01*
X20255466Y31513330D01*
X20196334Y31513330D01*
X20186712Y31515244D01*
X20138338Y31524866D01*
X20083708Y31547495D01*
X20034538Y31580349D01*
X19992729Y31622158D01*
X19959875Y31671328D01*
X19937246Y31725958D01*
X19925710Y31783955D01*
X19925710Y31843085D01*
X19937246Y31901082D01*
X19959875Y31955712D01*
X19992729Y32004882D01*
X20034538Y32046691D01*
X20083708Y32079545D01*
X20138338Y32102174D01*
X20186712Y32111796D01*
X20196334Y32113710D01*
X20255466Y32113710D01*
X20265088Y32111796D01*
X20265088Y32111796D01*
G37*
G36*
X13264848Y32111796D02*
X13313222Y32102174D01*
X13367852Y32079545D01*
X13417022Y32046691D01*
X13458831Y32004882D01*
X13491685Y31955712D01*
X13514314Y31901082D01*
X13525850Y31843085D01*
X13525850Y31783955D01*
X13514314Y31725958D01*
X13491685Y31671328D01*
X13458831Y31622158D01*
X13417022Y31580349D01*
X13367852Y31547495D01*
X13313222Y31524866D01*
X13264848Y31515244D01*
X13255226Y31513330D01*
X13196094Y31513330D01*
X13186472Y31515244D01*
X13138098Y31524866D01*
X13083468Y31547495D01*
X13034298Y31580349D01*
X12992489Y31622158D01*
X12959635Y31671328D01*
X12937006Y31725958D01*
X12925470Y31783955D01*
X12925470Y31843085D01*
X12937006Y31901082D01*
X12959635Y31955712D01*
X12992489Y32004882D01*
X13034298Y32046691D01*
X13083468Y32079545D01*
X13138098Y32102174D01*
X13186472Y32111796D01*
X13196094Y32113710D01*
X13255226Y32113710D01*
X13264848Y32111796D01*
X13264848Y32111796D01*
G37*
G36*
X23264828Y32111796D02*
X23313202Y32102174D01*
X23367832Y32079545D01*
X23417002Y32046691D01*
X23458811Y32004882D01*
X23491665Y31955712D01*
X23514294Y31901082D01*
X23525830Y31843085D01*
X23525830Y31783955D01*
X23514294Y31725958D01*
X23491665Y31671328D01*
X23458811Y31622158D01*
X23417002Y31580349D01*
X23367832Y31547495D01*
X23313202Y31524866D01*
X23264828Y31515244D01*
X23255206Y31513330D01*
X23196074Y31513330D01*
X23186452Y31515244D01*
X23138078Y31524866D01*
X23083448Y31547495D01*
X23034278Y31580349D01*
X22992469Y31622158D01*
X22959615Y31671328D01*
X22936986Y31725958D01*
X22925450Y31783955D01*
X22925450Y31843085D01*
X22936986Y31901082D01*
X22959615Y31955712D01*
X22992469Y32004882D01*
X23034278Y32046691D01*
X23083448Y32079545D01*
X23138078Y32102174D01*
X23186452Y32111796D01*
X23196074Y32113710D01*
X23255206Y32113710D01*
X23264828Y32111796D01*
X23264828Y32111796D01*
G37*
G36*
X21263308Y32111796D02*
X21311682Y32102174D01*
X21366312Y32079545D01*
X21415482Y32046691D01*
X21457291Y32004882D01*
X21490145Y31955712D01*
X21512774Y31901082D01*
X21524310Y31843085D01*
X21524310Y31783955D01*
X21512774Y31725958D01*
X21490145Y31671328D01*
X21457291Y31622158D01*
X21415482Y31580349D01*
X21366312Y31547495D01*
X21311682Y31524866D01*
X21263308Y31515244D01*
X21253686Y31513330D01*
X21194554Y31513330D01*
X21184932Y31515244D01*
X21136558Y31524866D01*
X21081928Y31547495D01*
X21032758Y31580349D01*
X20990949Y31622158D01*
X20958095Y31671328D01*
X20935466Y31725958D01*
X20923930Y31783955D01*
X20923930Y31843085D01*
X20935466Y31901082D01*
X20958095Y31955712D01*
X20990949Y32004882D01*
X21032758Y32046691D01*
X21081928Y32079545D01*
X21136558Y32102174D01*
X21184932Y32111796D01*
X21194554Y32113710D01*
X21253686Y32113710D01*
X21263308Y32111796D01*
X21263308Y32111796D01*
G37*
G36*
X22264068Y32111796D02*
X22312442Y32102174D01*
X22367072Y32079545D01*
X22416242Y32046691D01*
X22458051Y32004882D01*
X22490905Y31955712D01*
X22513534Y31901082D01*
X22525070Y31843085D01*
X22525070Y31783955D01*
X22513534Y31725958D01*
X22490905Y31671328D01*
X22458051Y31622158D01*
X22416242Y31580349D01*
X22367072Y31547495D01*
X22312442Y31524866D01*
X22264068Y31515244D01*
X22254446Y31513330D01*
X22195314Y31513330D01*
X22185692Y31515244D01*
X22137318Y31524866D01*
X22082688Y31547495D01*
X22033518Y31580349D01*
X21991709Y31622158D01*
X21958855Y31671328D01*
X21936226Y31725958D01*
X21924690Y31783955D01*
X21924690Y31843085D01*
X21936226Y31901082D01*
X21958855Y31955712D01*
X21991709Y32004882D01*
X22033518Y32046691D01*
X22082688Y32079545D01*
X22137318Y32102174D01*
X22185692Y32111796D01*
X22195314Y32113710D01*
X22254446Y32113710D01*
X22264068Y32111796D01*
X22264068Y32111796D01*
G37*
G36*
X14263068Y32111796D02*
X14311442Y32102174D01*
X14366072Y32079545D01*
X14415242Y32046691D01*
X14457051Y32004882D01*
X14489905Y31955712D01*
X14512534Y31901082D01*
X14524070Y31843085D01*
X14524070Y31783955D01*
X14512534Y31725958D01*
X14489905Y31671328D01*
X14457051Y31622158D01*
X14415242Y31580349D01*
X14366072Y31547495D01*
X14311442Y31524866D01*
X14263068Y31515244D01*
X14253446Y31513330D01*
X14194314Y31513330D01*
X14184692Y31515244D01*
X14136318Y31524866D01*
X14081688Y31547495D01*
X14032518Y31580349D01*
X13990709Y31622158D01*
X13957855Y31671328D01*
X13935226Y31725958D01*
X13923690Y31783955D01*
X13923690Y31843085D01*
X13935226Y31901082D01*
X13957855Y31955712D01*
X13990709Y32004882D01*
X14032518Y32046691D01*
X14081688Y32079545D01*
X14136318Y32102174D01*
X14184692Y32111796D01*
X14194314Y32113710D01*
X14253446Y32113710D01*
X14263068Y32111796D01*
X14263068Y32111796D01*
G37*
G36*
X20265088Y33112556D02*
X20313462Y33102934D01*
X20368092Y33080305D01*
X20417262Y33047451D01*
X20459071Y33005642D01*
X20491925Y32956472D01*
X20514554Y32901842D01*
X20526090Y32843845D01*
X20526090Y32784715D01*
X20514554Y32726718D01*
X20491925Y32672088D01*
X20459071Y32622918D01*
X20417262Y32581109D01*
X20368092Y32548255D01*
X20313462Y32525626D01*
X20265088Y32516004D01*
X20255466Y32514090D01*
X20196334Y32514090D01*
X20186712Y32516004D01*
X20138338Y32525626D01*
X20083708Y32548255D01*
X20034538Y32581109D01*
X19992729Y32622918D01*
X19959875Y32672088D01*
X19937246Y32726718D01*
X19925710Y32784715D01*
X19925710Y32843845D01*
X19937246Y32901842D01*
X19959875Y32956472D01*
X19992729Y33005642D01*
X20034538Y33047451D01*
X20083708Y33080305D01*
X20138338Y33102934D01*
X20186712Y33112556D01*
X20196334Y33114470D01*
X20255466Y33114470D01*
X20265088Y33112556D01*
X20265088Y33112556D01*
G37*
G36*
X22264068Y33112556D02*
X22312442Y33102934D01*
X22367072Y33080305D01*
X22416242Y33047451D01*
X22458051Y33005642D01*
X22490905Y32956472D01*
X22513534Y32901842D01*
X22525070Y32843845D01*
X22525070Y32784715D01*
X22513534Y32726718D01*
X22490905Y32672088D01*
X22458051Y32622918D01*
X22416242Y32581109D01*
X22367072Y32548255D01*
X22312442Y32525626D01*
X22264068Y32516004D01*
X22254446Y32514090D01*
X22195314Y32514090D01*
X22185692Y32516004D01*
X22137318Y32525626D01*
X22082688Y32548255D01*
X22033518Y32581109D01*
X21991709Y32622918D01*
X21958855Y32672088D01*
X21936226Y32726718D01*
X21924690Y32784715D01*
X21924690Y32843845D01*
X21936226Y32901842D01*
X21958855Y32956472D01*
X21991709Y33005642D01*
X22033518Y33047451D01*
X22082688Y33080305D01*
X22137318Y33102934D01*
X22185692Y33112556D01*
X22195314Y33114470D01*
X22254446Y33114470D01*
X22264068Y33112556D01*
X22264068Y33112556D01*
G37*
G36*
X19264328Y33112556D02*
X19312702Y33102934D01*
X19367332Y33080305D01*
X19416502Y33047451D01*
X19458311Y33005642D01*
X19491165Y32956472D01*
X19513794Y32901842D01*
X19525330Y32843845D01*
X19525330Y32784715D01*
X19513794Y32726718D01*
X19491165Y32672088D01*
X19458311Y32622918D01*
X19416502Y32581109D01*
X19367332Y32548255D01*
X19312702Y32525626D01*
X19264328Y32516004D01*
X19254706Y32514090D01*
X19195574Y32514090D01*
X19185952Y32516004D01*
X19137578Y32525626D01*
X19082948Y32548255D01*
X19033778Y32581109D01*
X18991969Y32622918D01*
X18959115Y32672088D01*
X18936486Y32726718D01*
X18924950Y32784715D01*
X18924950Y32843845D01*
X18936486Y32901842D01*
X18959115Y32956472D01*
X18991969Y33005642D01*
X19033778Y33047451D01*
X19082948Y33080305D01*
X19137578Y33102934D01*
X19185952Y33112556D01*
X19195574Y33114470D01*
X19254706Y33114470D01*
X19264328Y33112556D01*
X19264328Y33112556D01*
G37*
G36*
X23264828Y33112556D02*
X23313202Y33102934D01*
X23367832Y33080305D01*
X23417002Y33047451D01*
X23458811Y33005642D01*
X23491665Y32956472D01*
X23514294Y32901842D01*
X23525830Y32843845D01*
X23525830Y32784715D01*
X23514294Y32726718D01*
X23491665Y32672088D01*
X23458811Y32622918D01*
X23417002Y32581109D01*
X23367832Y32548255D01*
X23313202Y32525626D01*
X23264828Y32516004D01*
X23255206Y32514090D01*
X23196074Y32514090D01*
X23186452Y32516004D01*
X23138078Y32525626D01*
X23083448Y32548255D01*
X23034278Y32581109D01*
X22992469Y32622918D01*
X22959615Y32672088D01*
X22936986Y32726718D01*
X22925450Y32784715D01*
X22925450Y32843845D01*
X22936986Y32901842D01*
X22959615Y32956472D01*
X22992469Y33005642D01*
X23034278Y33047451D01*
X23083448Y33080305D01*
X23138078Y33102934D01*
X23186452Y33112556D01*
X23196074Y33114470D01*
X23255206Y33114470D01*
X23264828Y33112556D01*
X23264828Y33112556D01*
G37*
G36*
X21263308Y33112556D02*
X21311682Y33102934D01*
X21366312Y33080305D01*
X21415482Y33047451D01*
X21457291Y33005642D01*
X21490145Y32956472D01*
X21512774Y32901842D01*
X21524310Y32843845D01*
X21524310Y32784715D01*
X21512774Y32726718D01*
X21490145Y32672088D01*
X21457291Y32622918D01*
X21415482Y32581109D01*
X21366312Y32548255D01*
X21311682Y32525626D01*
X21263308Y32516004D01*
X21253686Y32514090D01*
X21194554Y32514090D01*
X21184932Y32516004D01*
X21136558Y32525626D01*
X21081928Y32548255D01*
X21032758Y32581109D01*
X20990949Y32622918D01*
X20958095Y32672088D01*
X20935466Y32726718D01*
X20923930Y32784715D01*
X20923930Y32843845D01*
X20935466Y32901842D01*
X20958095Y32956472D01*
X20990949Y33005642D01*
X21032758Y33047451D01*
X21081928Y33080305D01*
X21136558Y33102934D01*
X21184932Y33112556D01*
X21194554Y33114470D01*
X21253686Y33114470D01*
X21263308Y33112556D01*
X21263308Y33112556D01*
G37*
G36*
X18263568Y33112556D02*
X18311942Y33102934D01*
X18366572Y33080305D01*
X18415742Y33047451D01*
X18457551Y33005642D01*
X18490405Y32956472D01*
X18513034Y32901842D01*
X18524570Y32843845D01*
X18524570Y32784715D01*
X18513034Y32726718D01*
X18490405Y32672088D01*
X18457551Y32622918D01*
X18415742Y32581109D01*
X18366572Y32548255D01*
X18311942Y32525626D01*
X18263568Y32516004D01*
X18253946Y32514090D01*
X18194814Y32514090D01*
X18185192Y32516004D01*
X18136818Y32525626D01*
X18082188Y32548255D01*
X18033018Y32581109D01*
X17991209Y32622918D01*
X17958355Y32672088D01*
X17935726Y32726718D01*
X17924190Y32784715D01*
X17924190Y32843845D01*
X17935726Y32901842D01*
X17958355Y32956472D01*
X17991209Y33005642D01*
X18033018Y33047451D01*
X18082188Y33080305D01*
X18136818Y33102934D01*
X18185192Y33112556D01*
X18194814Y33114470D01*
X18253946Y33114470D01*
X18263568Y33112556D01*
X18263568Y33112556D01*
G37*
G36*
X17265348Y33112556D02*
X17313722Y33102934D01*
X17368352Y33080305D01*
X17417522Y33047451D01*
X17459331Y33005642D01*
X17492185Y32956472D01*
X17514814Y32901842D01*
X17526350Y32843845D01*
X17526350Y32784715D01*
X17514814Y32726718D01*
X17492185Y32672088D01*
X17459331Y32622918D01*
X17417522Y32581109D01*
X17368352Y32548255D01*
X17313722Y32525626D01*
X17265348Y32516004D01*
X17255726Y32514090D01*
X17196594Y32514090D01*
X17186972Y32516004D01*
X17138598Y32525626D01*
X17083968Y32548255D01*
X17034798Y32581109D01*
X16992989Y32622918D01*
X16960135Y32672088D01*
X16937506Y32726718D01*
X16925970Y32784715D01*
X16925970Y32843845D01*
X16937506Y32901842D01*
X16960135Y32956472D01*
X16992989Y33005642D01*
X17034798Y33047451D01*
X17083968Y33080305D01*
X17138598Y33102934D01*
X17186972Y33112556D01*
X17196594Y33114470D01*
X17255726Y33114470D01*
X17265348Y33112556D01*
X17265348Y33112556D01*
G37*
G36*
X12264088Y33112556D02*
X12312462Y33102934D01*
X12367092Y33080305D01*
X12416262Y33047451D01*
X12458071Y33005642D01*
X12490925Y32956472D01*
X12513554Y32901842D01*
X12525090Y32843845D01*
X12525090Y32784715D01*
X12513554Y32726718D01*
X12490925Y32672088D01*
X12458071Y32622918D01*
X12416262Y32581109D01*
X12367092Y32548255D01*
X12312462Y32525626D01*
X12264088Y32516004D01*
X12254466Y32514090D01*
X12195334Y32514090D01*
X12185712Y32516004D01*
X12137338Y32525626D01*
X12082708Y32548255D01*
X12033538Y32581109D01*
X11991729Y32622918D01*
X11958875Y32672088D01*
X11936246Y32726718D01*
X11924710Y32784715D01*
X11924710Y32843845D01*
X11936246Y32901842D01*
X11958875Y32956472D01*
X11991729Y33005642D01*
X12033538Y33047451D01*
X12082708Y33080305D01*
X12137338Y33102934D01*
X12185712Y33112556D01*
X12195334Y33114470D01*
X12254466Y33114470D01*
X12264088Y33112556D01*
X12264088Y33112556D01*
G37*
G36*
X13264848Y33112556D02*
X13313222Y33102934D01*
X13367852Y33080305D01*
X13417022Y33047451D01*
X13458831Y33005642D01*
X13491685Y32956472D01*
X13514314Y32901842D01*
X13525850Y32843845D01*
X13525850Y32784715D01*
X13514314Y32726718D01*
X13491685Y32672088D01*
X13458831Y32622918D01*
X13417022Y32581109D01*
X13367852Y32548255D01*
X13313222Y32525626D01*
X13264848Y32516004D01*
X13255226Y32514090D01*
X13196094Y32514090D01*
X13186472Y32516004D01*
X13138098Y32525626D01*
X13083468Y32548255D01*
X13034298Y32581109D01*
X12992489Y32622918D01*
X12959635Y32672088D01*
X12937006Y32726718D01*
X12925470Y32784715D01*
X12925470Y32843845D01*
X12937006Y32901842D01*
X12959635Y32956472D01*
X12992489Y33005642D01*
X13034298Y33047451D01*
X13083468Y33080305D01*
X13138098Y33102934D01*
X13186472Y33112556D01*
X13196094Y33114470D01*
X13255226Y33114470D01*
X13264848Y33112556D01*
X13264848Y33112556D01*
G37*
G36*
X14263068Y33112556D02*
X14311442Y33102934D01*
X14366072Y33080305D01*
X14415242Y33047451D01*
X14457051Y33005642D01*
X14489905Y32956472D01*
X14512534Y32901842D01*
X14524070Y32843845D01*
X14524070Y32784715D01*
X14512534Y32726718D01*
X14489905Y32672088D01*
X14457051Y32622918D01*
X14415242Y32581109D01*
X14366072Y32548255D01*
X14311442Y32525626D01*
X14263068Y32516004D01*
X14253446Y32514090D01*
X14194314Y32514090D01*
X14184692Y32516004D01*
X14136318Y32525626D01*
X14081688Y32548255D01*
X14032518Y32581109D01*
X13990709Y32622918D01*
X13957855Y32672088D01*
X13935226Y32726718D01*
X13923690Y32784715D01*
X13923690Y32843845D01*
X13935226Y32901842D01*
X13957855Y32956472D01*
X13990709Y33005642D01*
X14032518Y33047451D01*
X14081688Y33080305D01*
X14136318Y33102934D01*
X14184692Y33112556D01*
X14194314Y33114470D01*
X14253446Y33114470D01*
X14263068Y33112556D01*
X14263068Y33112556D01*
G37*
G36*
X15263828Y33112556D02*
X15312202Y33102934D01*
X15366832Y33080305D01*
X15416002Y33047451D01*
X15457811Y33005642D01*
X15490665Y32956472D01*
X15513294Y32901842D01*
X15524830Y32843845D01*
X15524830Y32784715D01*
X15513294Y32726718D01*
X15490665Y32672088D01*
X15457811Y32622918D01*
X15416002Y32581109D01*
X15366832Y32548255D01*
X15312202Y32525626D01*
X15263828Y32516004D01*
X15254206Y32514090D01*
X15195074Y32514090D01*
X15185452Y32516004D01*
X15137078Y32525626D01*
X15082448Y32548255D01*
X15033278Y32581109D01*
X14991469Y32622918D01*
X14958615Y32672088D01*
X14935986Y32726718D01*
X14924450Y32784715D01*
X14924450Y32843845D01*
X14935986Y32901842D01*
X14958615Y32956472D01*
X14991469Y33005642D01*
X15033278Y33047451D01*
X15082448Y33080305D01*
X15137078Y33102934D01*
X15185452Y33112556D01*
X15195074Y33114470D01*
X15254206Y33114470D01*
X15263828Y33112556D01*
X15263828Y33112556D01*
G37*
G36*
X16264588Y33112556D02*
X16312962Y33102934D01*
X16367592Y33080305D01*
X16416762Y33047451D01*
X16458571Y33005642D01*
X16491425Y32956472D01*
X16514054Y32901842D01*
X16525590Y32843845D01*
X16525590Y32784715D01*
X16514054Y32726718D01*
X16491425Y32672088D01*
X16458571Y32622918D01*
X16416762Y32581109D01*
X16367592Y32548255D01*
X16312962Y32525626D01*
X16264588Y32516004D01*
X16254966Y32514090D01*
X16195834Y32514090D01*
X16186212Y32516004D01*
X16137838Y32525626D01*
X16083208Y32548255D01*
X16034038Y32581109D01*
X15992229Y32622918D01*
X15959375Y32672088D01*
X15936746Y32726718D01*
X15925210Y32784715D01*
X15925210Y32843845D01*
X15936746Y32901842D01*
X15959375Y32956472D01*
X15992229Y33005642D01*
X16034038Y33047451D01*
X16083208Y33080305D01*
X16137838Y33102934D01*
X16186212Y33112556D01*
X16195834Y33114470D01*
X16254966Y33114470D01*
X16264588Y33112556D01*
X16264588Y33112556D01*
G37*
G36*
X32750000Y32825000D02*
X32050000Y32825000D01*
X32050000Y33425000D01*
X32750000Y33425000D01*
X32750000Y32825000D01*
X32750000Y32825000D01*
G37*
G36*
X31650000Y32825000D02*
X30950000Y32825000D01*
X30950000Y33425000D01*
X31650000Y33425000D01*
X31650000Y32825000D01*
X31650000Y32825000D01*
G37*
G36*
X15263828Y34113316D02*
X15312202Y34103694D01*
X15366832Y34081065D01*
X15416002Y34048211D01*
X15457811Y34006402D01*
X15490665Y33957232D01*
X15513294Y33902602D01*
X15524830Y33844605D01*
X15524830Y33785475D01*
X15513294Y33727478D01*
X15490665Y33672848D01*
X15457811Y33623678D01*
X15416002Y33581869D01*
X15366832Y33549015D01*
X15312202Y33526386D01*
X15263828Y33516764D01*
X15254206Y33514850D01*
X15195074Y33514850D01*
X15185452Y33516764D01*
X15137078Y33526386D01*
X15082448Y33549015D01*
X15033278Y33581869D01*
X14991469Y33623678D01*
X14958615Y33672848D01*
X14935986Y33727478D01*
X14924450Y33785475D01*
X14924450Y33844605D01*
X14935986Y33902602D01*
X14958615Y33957232D01*
X14991469Y34006402D01*
X15033278Y34048211D01*
X15082448Y34081065D01*
X15137078Y34103694D01*
X15185452Y34113316D01*
X15195074Y34115230D01*
X15254206Y34115230D01*
X15263828Y34113316D01*
X15263828Y34113316D01*
G37*
G36*
X19264328Y34113316D02*
X19312702Y34103694D01*
X19367332Y34081065D01*
X19416502Y34048211D01*
X19458311Y34006402D01*
X19491165Y33957232D01*
X19513794Y33902602D01*
X19525330Y33844605D01*
X19525330Y33785475D01*
X19513794Y33727478D01*
X19491165Y33672848D01*
X19458311Y33623678D01*
X19416502Y33581869D01*
X19367332Y33549015D01*
X19312702Y33526386D01*
X19264328Y33516764D01*
X19254706Y33514850D01*
X19195574Y33514850D01*
X19185952Y33516764D01*
X19137578Y33526386D01*
X19082948Y33549015D01*
X19033778Y33581869D01*
X18991969Y33623678D01*
X18959115Y33672848D01*
X18936486Y33727478D01*
X18924950Y33785475D01*
X18924950Y33844605D01*
X18936486Y33902602D01*
X18959115Y33957232D01*
X18991969Y34006402D01*
X19033778Y34048211D01*
X19082948Y34081065D01*
X19137578Y34103694D01*
X19185952Y34113316D01*
X19195574Y34115230D01*
X19254706Y34115230D01*
X19264328Y34113316D01*
X19264328Y34113316D01*
G37*
G36*
X20265088Y34113316D02*
X20313462Y34103694D01*
X20368092Y34081065D01*
X20417262Y34048211D01*
X20459071Y34006402D01*
X20491925Y33957232D01*
X20514554Y33902602D01*
X20526090Y33844605D01*
X20526090Y33785475D01*
X20514554Y33727478D01*
X20491925Y33672848D01*
X20459071Y33623678D01*
X20417262Y33581869D01*
X20368092Y33549015D01*
X20313462Y33526386D01*
X20265088Y33516764D01*
X20255466Y33514850D01*
X20196334Y33514850D01*
X20186712Y33516764D01*
X20138338Y33526386D01*
X20083708Y33549015D01*
X20034538Y33581869D01*
X19992729Y33623678D01*
X19959875Y33672848D01*
X19937246Y33727478D01*
X19925710Y33785475D01*
X19925710Y33844605D01*
X19937246Y33902602D01*
X19959875Y33957232D01*
X19992729Y34006402D01*
X20034538Y34048211D01*
X20083708Y34081065D01*
X20138338Y34103694D01*
X20186712Y34113316D01*
X20196334Y34115230D01*
X20255466Y34115230D01*
X20265088Y34113316D01*
X20265088Y34113316D01*
G37*
G36*
X17265348Y34113316D02*
X17313722Y34103694D01*
X17368352Y34081065D01*
X17417522Y34048211D01*
X17459331Y34006402D01*
X17492185Y33957232D01*
X17514814Y33902602D01*
X17526350Y33844605D01*
X17526350Y33785475D01*
X17514814Y33727478D01*
X17492185Y33672848D01*
X17459331Y33623678D01*
X17417522Y33581869D01*
X17368352Y33549015D01*
X17313722Y33526386D01*
X17265348Y33516764D01*
X17255726Y33514850D01*
X17196594Y33514850D01*
X17186972Y33516764D01*
X17138598Y33526386D01*
X17083968Y33549015D01*
X17034798Y33581869D01*
X16992989Y33623678D01*
X16960135Y33672848D01*
X16937506Y33727478D01*
X16925970Y33785475D01*
X16925970Y33844605D01*
X16937506Y33902602D01*
X16960135Y33957232D01*
X16992989Y34006402D01*
X17034798Y34048211D01*
X17083968Y34081065D01*
X17138598Y34103694D01*
X17186972Y34113316D01*
X17196594Y34115230D01*
X17255726Y34115230D01*
X17265348Y34113316D01*
X17265348Y34113316D01*
G37*
G36*
X22264068Y34113316D02*
X22312442Y34103694D01*
X22367072Y34081065D01*
X22416242Y34048211D01*
X22458051Y34006402D01*
X22490905Y33957232D01*
X22513534Y33902602D01*
X22525070Y33844605D01*
X22525070Y33785475D01*
X22513534Y33727478D01*
X22490905Y33672848D01*
X22458051Y33623678D01*
X22416242Y33581869D01*
X22367072Y33549015D01*
X22312442Y33526386D01*
X22264068Y33516764D01*
X22254446Y33514850D01*
X22195314Y33514850D01*
X22185692Y33516764D01*
X22137318Y33526386D01*
X22082688Y33549015D01*
X22033518Y33581869D01*
X21991709Y33623678D01*
X21958855Y33672848D01*
X21936226Y33727478D01*
X21924690Y33785475D01*
X21924690Y33844605D01*
X21936226Y33902602D01*
X21958855Y33957232D01*
X21991709Y34006402D01*
X22033518Y34048211D01*
X22082688Y34081065D01*
X22137318Y34103694D01*
X22185692Y34113316D01*
X22195314Y34115230D01*
X22254446Y34115230D01*
X22264068Y34113316D01*
X22264068Y34113316D01*
G37*
G36*
X21263308Y34113316D02*
X21311682Y34103694D01*
X21366312Y34081065D01*
X21415482Y34048211D01*
X21457291Y34006402D01*
X21490145Y33957232D01*
X21512774Y33902602D01*
X21524310Y33844605D01*
X21524310Y33785475D01*
X21512774Y33727478D01*
X21490145Y33672848D01*
X21457291Y33623678D01*
X21415482Y33581869D01*
X21366312Y33549015D01*
X21311682Y33526386D01*
X21263308Y33516764D01*
X21253686Y33514850D01*
X21194554Y33514850D01*
X21184932Y33516764D01*
X21136558Y33526386D01*
X21081928Y33549015D01*
X21032758Y33581869D01*
X20990949Y33623678D01*
X20958095Y33672848D01*
X20935466Y33727478D01*
X20923930Y33785475D01*
X20923930Y33844605D01*
X20935466Y33902602D01*
X20958095Y33957232D01*
X20990949Y34006402D01*
X21032758Y34048211D01*
X21081928Y34081065D01*
X21136558Y34103694D01*
X21184932Y34113316D01*
X21194554Y34115230D01*
X21253686Y34115230D01*
X21263308Y34113316D01*
X21263308Y34113316D01*
G37*
G36*
X14263068Y34113316D02*
X14311442Y34103694D01*
X14366072Y34081065D01*
X14415242Y34048211D01*
X14457051Y34006402D01*
X14489905Y33957232D01*
X14512534Y33902602D01*
X14524070Y33844605D01*
X14524070Y33785475D01*
X14512534Y33727478D01*
X14489905Y33672848D01*
X14457051Y33623678D01*
X14415242Y33581869D01*
X14366072Y33549015D01*
X14311442Y33526386D01*
X14263068Y33516764D01*
X14253446Y33514850D01*
X14194314Y33514850D01*
X14184692Y33516764D01*
X14136318Y33526386D01*
X14081688Y33549015D01*
X14032518Y33581869D01*
X13990709Y33623678D01*
X13957855Y33672848D01*
X13935226Y33727478D01*
X13923690Y33785475D01*
X13923690Y33844605D01*
X13935226Y33902602D01*
X13957855Y33957232D01*
X13990709Y34006402D01*
X14032518Y34048211D01*
X14081688Y34081065D01*
X14136318Y34103694D01*
X14184692Y34113316D01*
X14194314Y34115230D01*
X14253446Y34115230D01*
X14263068Y34113316D01*
X14263068Y34113316D01*
G37*
G36*
X13264848Y34113316D02*
X13313222Y34103694D01*
X13367852Y34081065D01*
X13417022Y34048211D01*
X13458831Y34006402D01*
X13491685Y33957232D01*
X13514314Y33902602D01*
X13525850Y33844605D01*
X13525850Y33785475D01*
X13514314Y33727478D01*
X13491685Y33672848D01*
X13458831Y33623678D01*
X13417022Y33581869D01*
X13367852Y33549015D01*
X13313222Y33526386D01*
X13264848Y33516764D01*
X13255226Y33514850D01*
X13196094Y33514850D01*
X13186472Y33516764D01*
X13138098Y33526386D01*
X13083468Y33549015D01*
X13034298Y33581869D01*
X12992489Y33623678D01*
X12959635Y33672848D01*
X12937006Y33727478D01*
X12925470Y33785475D01*
X12925470Y33844605D01*
X12937006Y33902602D01*
X12959635Y33957232D01*
X12992489Y34006402D01*
X13034298Y34048211D01*
X13083468Y34081065D01*
X13138098Y34103694D01*
X13186472Y34113316D01*
X13196094Y34115230D01*
X13255226Y34115230D01*
X13264848Y34113316D01*
X13264848Y34113316D01*
G37*
G36*
X23264828Y34113316D02*
X23313202Y34103694D01*
X23367832Y34081065D01*
X23417002Y34048211D01*
X23458811Y34006402D01*
X23491665Y33957232D01*
X23514294Y33902602D01*
X23525830Y33844605D01*
X23525830Y33785475D01*
X23514294Y33727478D01*
X23491665Y33672848D01*
X23458811Y33623678D01*
X23417002Y33581869D01*
X23367832Y33549015D01*
X23313202Y33526386D01*
X23264828Y33516764D01*
X23255206Y33514850D01*
X23196074Y33514850D01*
X23186452Y33516764D01*
X23138078Y33526386D01*
X23083448Y33549015D01*
X23034278Y33581869D01*
X22992469Y33623678D01*
X22959615Y33672848D01*
X22936986Y33727478D01*
X22925450Y33785475D01*
X22925450Y33844605D01*
X22936986Y33902602D01*
X22959615Y33957232D01*
X22992469Y34006402D01*
X23034278Y34048211D01*
X23083448Y34081065D01*
X23138078Y34103694D01*
X23186452Y34113316D01*
X23196074Y34115230D01*
X23255206Y34115230D01*
X23264828Y34113316D01*
X23264828Y34113316D01*
G37*
G36*
X16264588Y34113316D02*
X16312962Y34103694D01*
X16367592Y34081065D01*
X16416762Y34048211D01*
X16458571Y34006402D01*
X16491425Y33957232D01*
X16514054Y33902602D01*
X16525590Y33844605D01*
X16525590Y33785475D01*
X16514054Y33727478D01*
X16491425Y33672848D01*
X16458571Y33623678D01*
X16416762Y33581869D01*
X16367592Y33549015D01*
X16312962Y33526386D01*
X16264588Y33516764D01*
X16254966Y33514850D01*
X16195834Y33514850D01*
X16186212Y33516764D01*
X16137838Y33526386D01*
X16083208Y33549015D01*
X16034038Y33581869D01*
X15992229Y33623678D01*
X15959375Y33672848D01*
X15936746Y33727478D01*
X15925210Y33785475D01*
X15925210Y33844605D01*
X15936746Y33902602D01*
X15959375Y33957232D01*
X15992229Y34006402D01*
X16034038Y34048211D01*
X16083208Y34081065D01*
X16137838Y34103694D01*
X16186212Y34113316D01*
X16195834Y34115230D01*
X16254966Y34115230D01*
X16264588Y34113316D01*
X16264588Y34113316D01*
G37*
G36*
X18263568Y34113316D02*
X18311942Y34103694D01*
X18366572Y34081065D01*
X18415742Y34048211D01*
X18457551Y34006402D01*
X18490405Y33957232D01*
X18513034Y33902602D01*
X18524570Y33844605D01*
X18524570Y33785475D01*
X18513034Y33727478D01*
X18490405Y33672848D01*
X18457551Y33623678D01*
X18415742Y33581869D01*
X18366572Y33549015D01*
X18311942Y33526386D01*
X18263568Y33516764D01*
X18253946Y33514850D01*
X18194814Y33514850D01*
X18185192Y33516764D01*
X18136818Y33526386D01*
X18082188Y33549015D01*
X18033018Y33581869D01*
X17991209Y33623678D01*
X17958355Y33672848D01*
X17935726Y33727478D01*
X17924190Y33785475D01*
X17924190Y33844605D01*
X17935726Y33902602D01*
X17958355Y33957232D01*
X17991209Y34006402D01*
X18033018Y34048211D01*
X18082188Y34081065D01*
X18136818Y34103694D01*
X18185192Y34113316D01*
X18194814Y34115230D01*
X18253946Y34115230D01*
X18263568Y34113316D01*
X18263568Y34113316D01*
G37*
G36*
X12264088Y34113316D02*
X12312462Y34103694D01*
X12367092Y34081065D01*
X12416262Y34048211D01*
X12458071Y34006402D01*
X12490925Y33957232D01*
X12513554Y33902602D01*
X12525090Y33844605D01*
X12525090Y33785475D01*
X12513554Y33727478D01*
X12490925Y33672848D01*
X12458071Y33623678D01*
X12416262Y33581869D01*
X12367092Y33549015D01*
X12312462Y33526386D01*
X12264088Y33516764D01*
X12254466Y33514850D01*
X12195334Y33514850D01*
X12185712Y33516764D01*
X12137338Y33526386D01*
X12082708Y33549015D01*
X12033538Y33581869D01*
X11991729Y33623678D01*
X11958875Y33672848D01*
X11936246Y33727478D01*
X11924710Y33785475D01*
X11924710Y33844605D01*
X11936246Y33902602D01*
X11958875Y33957232D01*
X11991729Y34006402D01*
X12033538Y34048211D01*
X12082708Y34081065D01*
X12137338Y34103694D01*
X12185712Y34113316D01*
X12195334Y34115230D01*
X12254466Y34115230D01*
X12264088Y34113316D01*
X12264088Y34113316D01*
G37*
G36*
X1954433Y36886977D02*
X2124081Y36835515D01*
X2280432Y36751944D01*
X2417476Y36639476D01*
X2529944Y36502432D01*
X2613515Y36346081D01*
X2664977Y36176433D01*
X2682354Y36000000D01*
X2664977Y35823567D01*
X2613515Y35653919D01*
X2529944Y35497568D01*
X2417476Y35360524D01*
X2280432Y35248056D01*
X2124081Y35164485D01*
X1954433Y35113023D01*
X1822211Y35100000D01*
X1733789Y35100000D01*
X1601567Y35113023D01*
X1431919Y35164485D01*
X1275568Y35248056D01*
X1138524Y35360524D01*
X1026056Y35497568D01*
X942485Y35653919D01*
X891023Y35823567D01*
X873646Y36000000D01*
X891023Y36176433D01*
X942485Y36346081D01*
X1026056Y36502432D01*
X1138524Y36639476D01*
X1275568Y36751944D01*
X1431919Y36835515D01*
X1601567Y36886977D01*
X1733789Y36900000D01*
X1822211Y36900000D01*
X1954433Y36886977D01*
X1954433Y36886977D01*
G37*
G36*
X4494433Y36886977D02*
X4664081Y36835515D01*
X4820432Y36751944D01*
X4957476Y36639476D01*
X5069944Y36502432D01*
X5153515Y36346081D01*
X5204977Y36176433D01*
X5222354Y36000000D01*
X5204977Y35823567D01*
X5153515Y35653919D01*
X5069944Y35497568D01*
X4957476Y35360524D01*
X4820432Y35248056D01*
X4664081Y35164485D01*
X4494433Y35113023D01*
X4362211Y35100000D01*
X4273789Y35100000D01*
X4141567Y35113023D01*
X3971919Y35164485D01*
X3815568Y35248056D01*
X3678524Y35360524D01*
X3566056Y35497568D01*
X3482485Y35653919D01*
X3431023Y35823567D01*
X3413646Y36000000D01*
X3431023Y36176433D01*
X3482485Y36346081D01*
X3566056Y36502432D01*
X3678524Y36639476D01*
X3815568Y36751944D01*
X3971919Y36835515D01*
X4141567Y36886977D01*
X4273789Y36900000D01*
X4362211Y36900000D01*
X4494433Y36886977D01*
X4494433Y36886977D01*
G37*
G36*
X36376433Y36886977D02*
X36546081Y36835515D01*
X36702432Y36751944D01*
X36839476Y36639476D01*
X36951944Y36502432D01*
X37035515Y36346081D01*
X37086977Y36176433D01*
X37104354Y36000000D01*
X37086977Y35823567D01*
X37035515Y35653919D01*
X36951944Y35497568D01*
X36839476Y35360524D01*
X36702432Y35248056D01*
X36546081Y35164485D01*
X36376433Y35113023D01*
X36244211Y35100000D01*
X36155789Y35100000D01*
X36023567Y35113023D01*
X35853919Y35164485D01*
X35697568Y35248056D01*
X35560524Y35360524D01*
X35448056Y35497568D01*
X35364485Y35653919D01*
X35313023Y35823567D01*
X35295646Y36000000D01*
X35313023Y36176433D01*
X35364485Y36346081D01*
X35448056Y36502432D01*
X35560524Y36639476D01*
X35697568Y36751944D01*
X35853919Y36835515D01*
X36023567Y36886977D01*
X36155789Y36900000D01*
X36244211Y36900000D01*
X36376433Y36886977D01*
X36376433Y36886977D01*
G37*
G36*
X33676433Y36893977D02*
X33846081Y36842515D01*
X34002432Y36758944D01*
X34139476Y36646476D01*
X34251944Y36509432D01*
X34335515Y36353081D01*
X34386977Y36183433D01*
X34404354Y36007000D01*
X34386977Y35830567D01*
X34335515Y35660919D01*
X34251944Y35504568D01*
X34139476Y35367524D01*
X34002432Y35255056D01*
X33846081Y35171485D01*
X33676433Y35120023D01*
X33544211Y35107000D01*
X33455789Y35107000D01*
X33323567Y35120023D01*
X33153919Y35171485D01*
X32997568Y35255056D01*
X32860524Y35367524D01*
X32748056Y35504568D01*
X32664485Y35660919D01*
X32613023Y35830567D01*
X32595646Y36007000D01*
X32613023Y36183433D01*
X32664485Y36353081D01*
X32748056Y36509432D01*
X32860524Y36646476D01*
X32997568Y36758944D01*
X33153919Y36842515D01*
X33323567Y36893977D01*
X33455789Y36907000D01*
X33544211Y36907000D01*
X33676433Y36893977D01*
X33676433Y36893977D01*
G37*
G36*
X7000000Y36946000D02*
X6400000Y36946000D01*
X6400000Y37646000D01*
X7000000Y37646000D01*
X7000000Y36946000D01*
X7000000Y36946000D01*
G37*
G36*
X36376433Y39426977D02*
X36546081Y39375515D01*
X36702432Y39291944D01*
X36839476Y39179476D01*
X36951944Y39042432D01*
X37035515Y38886081D01*
X37086977Y38716433D01*
X37104354Y38540000D01*
X37086977Y38363567D01*
X37035515Y38193919D01*
X36951944Y38037568D01*
X36839476Y37900524D01*
X36702432Y37788056D01*
X36546081Y37704485D01*
X36376433Y37653023D01*
X36244211Y37640000D01*
X36155789Y37640000D01*
X36023567Y37653023D01*
X35853919Y37704485D01*
X35697568Y37788056D01*
X35560524Y37900524D01*
X35448056Y38037568D01*
X35364485Y38193919D01*
X35313023Y38363567D01*
X35295646Y38540000D01*
X35313023Y38716433D01*
X35364485Y38886081D01*
X35448056Y39042432D01*
X35560524Y39179476D01*
X35697568Y39291944D01*
X35853919Y39375515D01*
X36023567Y39426977D01*
X36155789Y39440000D01*
X36244211Y39440000D01*
X36376433Y39426977D01*
X36376433Y39426977D01*
G37*
G36*
X4494433Y39426977D02*
X4664081Y39375515D01*
X4820432Y39291944D01*
X4957476Y39179476D01*
X5069944Y39042432D01*
X5153515Y38886081D01*
X5204977Y38716433D01*
X5222354Y38540000D01*
X5204977Y38363567D01*
X5153515Y38193919D01*
X5069944Y38037568D01*
X4957476Y37900524D01*
X4820432Y37788056D01*
X4664081Y37704485D01*
X4494433Y37653023D01*
X4362211Y37640000D01*
X4273789Y37640000D01*
X4141567Y37653023D01*
X3971919Y37704485D01*
X3815568Y37788056D01*
X3678524Y37900524D01*
X3566056Y38037568D01*
X3482485Y38193919D01*
X3431023Y38363567D01*
X3413646Y38540000D01*
X3431023Y38716433D01*
X3482485Y38886081D01*
X3566056Y39042432D01*
X3678524Y39179476D01*
X3815568Y39291944D01*
X3971919Y39375515D01*
X4141567Y39426977D01*
X4273789Y39440000D01*
X4362211Y39440000D01*
X4494433Y39426977D01*
X4494433Y39426977D01*
G37*
G36*
X1954433Y39426977D02*
X2124081Y39375515D01*
X2280432Y39291944D01*
X2417476Y39179476D01*
X2529944Y39042432D01*
X2613515Y38886081D01*
X2664977Y38716433D01*
X2682354Y38540000D01*
X2664977Y38363567D01*
X2613515Y38193919D01*
X2529944Y38037568D01*
X2417476Y37900524D01*
X2280432Y37788056D01*
X2124081Y37704485D01*
X1954433Y37653023D01*
X1822211Y37640000D01*
X1733789Y37640000D01*
X1601567Y37653023D01*
X1431919Y37704485D01*
X1275568Y37788056D01*
X1138524Y37900524D01*
X1026056Y38037568D01*
X942485Y38193919D01*
X891023Y38363567D01*
X873646Y38540000D01*
X891023Y38716433D01*
X942485Y38886081D01*
X1026056Y39042432D01*
X1138524Y39179476D01*
X1275568Y39291944D01*
X1431919Y39375515D01*
X1601567Y39426977D01*
X1733789Y39440000D01*
X1822211Y39440000D01*
X1954433Y39426977D01*
X1954433Y39426977D01*
G37*
G36*
X33676433Y39433977D02*
X33846081Y39382515D01*
X34002432Y39298944D01*
X34139476Y39186476D01*
X34251944Y39049432D01*
X34335515Y38893081D01*
X34386977Y38723433D01*
X34404354Y38547000D01*
X34386977Y38370567D01*
X34335515Y38200919D01*
X34251944Y38044568D01*
X34139476Y37907524D01*
X34002432Y37795056D01*
X33846081Y37711485D01*
X33676433Y37660023D01*
X33544211Y37647000D01*
X33455789Y37647000D01*
X33323567Y37660023D01*
X33153919Y37711485D01*
X32997568Y37795056D01*
X32860524Y37907524D01*
X32748056Y38044568D01*
X32664485Y38200919D01*
X32613023Y38370567D01*
X32595646Y38547000D01*
X32613023Y38723433D01*
X32664485Y38893081D01*
X32748056Y39049432D01*
X32860524Y39186476D01*
X32997568Y39298944D01*
X33153919Y39382515D01*
X33323567Y39433977D01*
X33455789Y39447000D01*
X33544211Y39447000D01*
X33676433Y39433977D01*
X33676433Y39433977D01*
G37*
G36*
X7000000Y38046000D02*
X6400000Y38046000D01*
X6400000Y38746000D01*
X7000000Y38746000D01*
X7000000Y38046000D01*
X7000000Y38046000D01*
G37*
G36*
X7000000Y39700000D02*
X6400000Y39700000D01*
X6400000Y40400000D01*
X7000000Y40400000D01*
X7000000Y39700000D01*
X7000000Y39700000D01*
G37*
G36*
X36376433Y41966977D02*
X36546081Y41915515D01*
X36702432Y41831944D01*
X36839476Y41719476D01*
X36951944Y41582432D01*
X37035515Y41426081D01*
X37086977Y41256433D01*
X37104354Y41080000D01*
X37086977Y40903567D01*
X37035515Y40733919D01*
X36951944Y40577568D01*
X36839476Y40440524D01*
X36702432Y40328056D01*
X36546081Y40244485D01*
X36376433Y40193023D01*
X36244211Y40180000D01*
X36155789Y40180000D01*
X36023567Y40193023D01*
X35853919Y40244485D01*
X35697568Y40328056D01*
X35560524Y40440524D01*
X35448056Y40577568D01*
X35364485Y40733919D01*
X35313023Y40903567D01*
X35295646Y41080000D01*
X35313023Y41256433D01*
X35364485Y41426081D01*
X35448056Y41582432D01*
X35560524Y41719476D01*
X35697568Y41831944D01*
X35853919Y41915515D01*
X36023567Y41966977D01*
X36155789Y41980000D01*
X36244211Y41980000D01*
X36376433Y41966977D01*
X36376433Y41966977D01*
G37*
G36*
X4494433Y41966977D02*
X4664081Y41915515D01*
X4820432Y41831944D01*
X4957476Y41719476D01*
X5069944Y41582432D01*
X5153515Y41426081D01*
X5204977Y41256433D01*
X5222354Y41080000D01*
X5204977Y40903567D01*
X5153515Y40733919D01*
X5069944Y40577568D01*
X4957476Y40440524D01*
X4820432Y40328056D01*
X4664081Y40244485D01*
X4494433Y40193023D01*
X4362211Y40180000D01*
X4273789Y40180000D01*
X4141567Y40193023D01*
X3971919Y40244485D01*
X3815568Y40328056D01*
X3678524Y40440524D01*
X3566056Y40577568D01*
X3482485Y40733919D01*
X3431023Y40903567D01*
X3413646Y41080000D01*
X3431023Y41256433D01*
X3482485Y41426081D01*
X3566056Y41582432D01*
X3678524Y41719476D01*
X3815568Y41831944D01*
X3971919Y41915515D01*
X4141567Y41966977D01*
X4273789Y41980000D01*
X4362211Y41980000D01*
X4494433Y41966977D01*
X4494433Y41966977D01*
G37*
G36*
X1954433Y41966977D02*
X2124081Y41915515D01*
X2280432Y41831944D01*
X2417476Y41719476D01*
X2529944Y41582432D01*
X2613515Y41426081D01*
X2664977Y41256433D01*
X2682354Y41080000D01*
X2664977Y40903567D01*
X2613515Y40733919D01*
X2529944Y40577568D01*
X2417476Y40440524D01*
X2280432Y40328056D01*
X2124081Y40244485D01*
X1954433Y40193023D01*
X1822211Y40180000D01*
X1733789Y40180000D01*
X1601567Y40193023D01*
X1431919Y40244485D01*
X1275568Y40328056D01*
X1138524Y40440524D01*
X1026056Y40577568D01*
X942485Y40733919D01*
X891023Y40903567D01*
X873646Y41080000D01*
X891023Y41256433D01*
X942485Y41426081D01*
X1026056Y41582432D01*
X1138524Y41719476D01*
X1275568Y41831944D01*
X1431919Y41915515D01*
X1601567Y41966977D01*
X1733789Y41980000D01*
X1822211Y41980000D01*
X1954433Y41966977D01*
X1954433Y41966977D01*
G37*
G36*
X33676433Y41973977D02*
X33846081Y41922515D01*
X34002432Y41838944D01*
X34139476Y41726476D01*
X34251944Y41589432D01*
X34335515Y41433081D01*
X34386977Y41263433D01*
X34404354Y41087000D01*
X34386977Y40910567D01*
X34335515Y40740919D01*
X34251944Y40584568D01*
X34139476Y40447524D01*
X34002432Y40335056D01*
X33846081Y40251485D01*
X33676433Y40200023D01*
X33544211Y40187000D01*
X33455789Y40187000D01*
X33323567Y40200023D01*
X33153919Y40251485D01*
X32997568Y40335056D01*
X32860524Y40447524D01*
X32748056Y40584568D01*
X32664485Y40740919D01*
X32613023Y40910567D01*
X32595646Y41087000D01*
X32613023Y41263433D01*
X32664485Y41433081D01*
X32748056Y41589432D01*
X32860524Y41726476D01*
X32997568Y41838944D01*
X33153919Y41922515D01*
X33323567Y41973977D01*
X33455789Y41987000D01*
X33544211Y41987000D01*
X33676433Y41973977D01*
X33676433Y41973977D01*
G37*
G36*
X7000000Y40800000D02*
X6400000Y40800000D01*
X6400000Y41500000D01*
X7000000Y41500000D01*
X7000000Y40800000D01*
X7000000Y40800000D01*
G37*
G36*
X7025000Y42150000D02*
X6425000Y42150000D01*
X6425000Y42850000D01*
X7025000Y42850000D01*
X7025000Y42150000D01*
X7025000Y42150000D01*
G37*
G36*
X36376433Y44506977D02*
X36546081Y44455515D01*
X36702432Y44371944D01*
X36839476Y44259476D01*
X36951944Y44122432D01*
X37035515Y43966081D01*
X37086977Y43796433D01*
X37104354Y43620000D01*
X37086977Y43443567D01*
X37035515Y43273919D01*
X36951944Y43117568D01*
X36839476Y42980524D01*
X36702432Y42868056D01*
X36546081Y42784485D01*
X36376433Y42733023D01*
X36244211Y42720000D01*
X36155789Y42720000D01*
X36023567Y42733023D01*
X35853919Y42784485D01*
X35697568Y42868056D01*
X35560524Y42980524D01*
X35448056Y43117568D01*
X35364485Y43273919D01*
X35313023Y43443567D01*
X35295646Y43620000D01*
X35313023Y43796433D01*
X35364485Y43966081D01*
X35448056Y44122432D01*
X35560524Y44259476D01*
X35697568Y44371944D01*
X35853919Y44455515D01*
X36023567Y44506977D01*
X36155789Y44520000D01*
X36244211Y44520000D01*
X36376433Y44506977D01*
X36376433Y44506977D01*
G37*
G36*
X4494433Y44506977D02*
X4664081Y44455515D01*
X4820432Y44371944D01*
X4957476Y44259476D01*
X5069944Y44122432D01*
X5153515Y43966081D01*
X5204977Y43796433D01*
X5222354Y43620000D01*
X5204977Y43443567D01*
X5153515Y43273919D01*
X5069944Y43117568D01*
X4957476Y42980524D01*
X4820432Y42868056D01*
X4664081Y42784485D01*
X4494433Y42733023D01*
X4362211Y42720000D01*
X4273789Y42720000D01*
X4141567Y42733023D01*
X3971919Y42784485D01*
X3815568Y42868056D01*
X3678524Y42980524D01*
X3566056Y43117568D01*
X3482485Y43273919D01*
X3431023Y43443567D01*
X3413646Y43620000D01*
X3431023Y43796433D01*
X3482485Y43966081D01*
X3566056Y44122432D01*
X3678524Y44259476D01*
X3815568Y44371944D01*
X3971919Y44455515D01*
X4141567Y44506977D01*
X4273789Y44520000D01*
X4362211Y44520000D01*
X4494433Y44506977D01*
X4494433Y44506977D01*
G37*
G36*
X1954433Y44506977D02*
X2124081Y44455515D01*
X2280432Y44371944D01*
X2417476Y44259476D01*
X2529944Y44122432D01*
X2613515Y43966081D01*
X2664977Y43796433D01*
X2682354Y43620000D01*
X2664977Y43443567D01*
X2613515Y43273919D01*
X2529944Y43117568D01*
X2417476Y42980524D01*
X2280432Y42868056D01*
X2124081Y42784485D01*
X1954433Y42733023D01*
X1822211Y42720000D01*
X1733789Y42720000D01*
X1601567Y42733023D01*
X1431919Y42784485D01*
X1275568Y42868056D01*
X1138524Y42980524D01*
X1026056Y43117568D01*
X942485Y43273919D01*
X891023Y43443567D01*
X873646Y43620000D01*
X891023Y43796433D01*
X942485Y43966081D01*
X1026056Y44122432D01*
X1138524Y44259476D01*
X1275568Y44371944D01*
X1431919Y44455515D01*
X1601567Y44506977D01*
X1733789Y44520000D01*
X1822211Y44520000D01*
X1954433Y44506977D01*
X1954433Y44506977D01*
G37*
G36*
X33676433Y44513977D02*
X33846081Y44462515D01*
X34002432Y44378944D01*
X34139476Y44266476D01*
X34251944Y44129432D01*
X34335515Y43973081D01*
X34386977Y43803433D01*
X34404354Y43627000D01*
X34386977Y43450567D01*
X34335515Y43280919D01*
X34251944Y43124568D01*
X34139476Y42987524D01*
X34002432Y42875056D01*
X33846081Y42791485D01*
X33676433Y42740023D01*
X33544211Y42727000D01*
X33455789Y42727000D01*
X33323567Y42740023D01*
X33153919Y42791485D01*
X32997568Y42875056D01*
X32860524Y42987524D01*
X32748056Y43124568D01*
X32664485Y43280919D01*
X32613023Y43450567D01*
X32595646Y43627000D01*
X32613023Y43803433D01*
X32664485Y43973081D01*
X32748056Y44129432D01*
X32860524Y44266476D01*
X32997568Y44378944D01*
X33153919Y44462515D01*
X33323567Y44513977D01*
X33455789Y44527000D01*
X33544211Y44527000D01*
X33676433Y44513977D01*
X33676433Y44513977D01*
G37*
G36*
X7025000Y43250000D02*
X6425000Y43250000D01*
X6425000Y43950000D01*
X7025000Y43950000D01*
X7025000Y43250000D01*
X7025000Y43250000D01*
G37*
G36*
X23400000Y43550000D02*
X22900000Y43550000D01*
X22900000Y44250000D01*
X23400000Y44250000D01*
X23400000Y43550000D01*
X23400000Y43550000D01*
G37*
G36*
X22500000Y43550000D02*
X22000000Y43550000D01*
X22000000Y44250000D01*
X22500000Y44250000D01*
X22500000Y43550000D01*
X22500000Y43550000D01*
G37*
G36*
X23400000Y44450000D02*
X22900000Y44450000D01*
X22900000Y45150000D01*
X23400000Y45150000D01*
X23400000Y44450000D01*
X23400000Y44450000D01*
G37*
G36*
X22500000Y44450000D02*
X22000000Y44450000D01*
X22000000Y45150000D01*
X22500000Y45150000D01*
X22500000Y44450000D01*
X22500000Y44450000D01*
G37*
G36*
X7000000Y44600000D02*
X6400000Y44600000D01*
X6400000Y45300000D01*
X7000000Y45300000D01*
X7000000Y44600000D01*
X7000000Y44600000D01*
G37*
G36*
X4494433Y47046977D02*
X4664081Y46995515D01*
X4820432Y46911944D01*
X4957476Y46799476D01*
X5069944Y46662432D01*
X5153515Y46506081D01*
X5204977Y46336433D01*
X5222354Y46160000D01*
X5204977Y45983567D01*
X5153515Y45813919D01*
X5069944Y45657568D01*
X4957476Y45520524D01*
X4820432Y45408056D01*
X4664081Y45324485D01*
X4494433Y45273023D01*
X4362211Y45260000D01*
X4273789Y45260000D01*
X4141567Y45273023D01*
X3971919Y45324485D01*
X3815568Y45408056D01*
X3678524Y45520524D01*
X3566056Y45657568D01*
X3482485Y45813919D01*
X3431023Y45983567D01*
X3413646Y46160000D01*
X3431023Y46336433D01*
X3482485Y46506081D01*
X3566056Y46662432D01*
X3678524Y46799476D01*
X3815568Y46911944D01*
X3971919Y46995515D01*
X4141567Y47046977D01*
X4273789Y47060000D01*
X4362211Y47060000D01*
X4494433Y47046977D01*
X4494433Y47046977D01*
G37*
G36*
X36376433Y47046977D02*
X36546081Y46995515D01*
X36702432Y46911944D01*
X36839476Y46799476D01*
X36951944Y46662432D01*
X37035515Y46506081D01*
X37086977Y46336433D01*
X37104354Y46160000D01*
X37086977Y45983567D01*
X37035515Y45813919D01*
X36951944Y45657568D01*
X36839476Y45520524D01*
X36702432Y45408056D01*
X36546081Y45324485D01*
X36376433Y45273023D01*
X36244211Y45260000D01*
X36155789Y45260000D01*
X36023567Y45273023D01*
X35853919Y45324485D01*
X35697568Y45408056D01*
X35560524Y45520524D01*
X35448056Y45657568D01*
X35364485Y45813919D01*
X35313023Y45983567D01*
X35295646Y46160000D01*
X35313023Y46336433D01*
X35364485Y46506081D01*
X35448056Y46662432D01*
X35560524Y46799476D01*
X35697568Y46911944D01*
X35853919Y46995515D01*
X36023567Y47046977D01*
X36155789Y47060000D01*
X36244211Y47060000D01*
X36376433Y47046977D01*
X36376433Y47046977D01*
G37*
G36*
X1954433Y47046977D02*
X2124081Y46995515D01*
X2280432Y46911944D01*
X2417476Y46799476D01*
X2529944Y46662432D01*
X2613515Y46506081D01*
X2664977Y46336433D01*
X2682354Y46160000D01*
X2664977Y45983567D01*
X2613515Y45813919D01*
X2529944Y45657568D01*
X2417476Y45520524D01*
X2280432Y45408056D01*
X2124081Y45324485D01*
X1954433Y45273023D01*
X1822211Y45260000D01*
X1733789Y45260000D01*
X1601567Y45273023D01*
X1431919Y45324485D01*
X1275568Y45408056D01*
X1138524Y45520524D01*
X1026056Y45657568D01*
X942485Y45813919D01*
X891023Y45983567D01*
X873646Y46160000D01*
X891023Y46336433D01*
X942485Y46506081D01*
X1026056Y46662432D01*
X1138524Y46799476D01*
X1275568Y46911944D01*
X1431919Y46995515D01*
X1601567Y47046977D01*
X1733789Y47060000D01*
X1822211Y47060000D01*
X1954433Y47046977D01*
X1954433Y47046977D01*
G37*
G36*
X33676433Y47053977D02*
X33846081Y47002515D01*
X34002432Y46918944D01*
X34139476Y46806476D01*
X34251944Y46669432D01*
X34335515Y46513081D01*
X34386977Y46343433D01*
X34404354Y46167000D01*
X34386977Y45990567D01*
X34335515Y45820919D01*
X34251944Y45664568D01*
X34139476Y45527524D01*
X34002432Y45415056D01*
X33846081Y45331485D01*
X33676433Y45280023D01*
X33544211Y45267000D01*
X33455789Y45267000D01*
X33323567Y45280023D01*
X33153919Y45331485D01*
X32997568Y45415056D01*
X32860524Y45527524D01*
X32748056Y45664568D01*
X32664485Y45820919D01*
X32613023Y45990567D01*
X32595646Y46167000D01*
X32613023Y46343433D01*
X32664485Y46513081D01*
X32748056Y46669432D01*
X32860524Y46806476D01*
X32997568Y46918944D01*
X33153919Y47002515D01*
X33323567Y47053977D01*
X33455789Y47067000D01*
X33544211Y47067000D01*
X33676433Y47053977D01*
X33676433Y47053977D01*
G37*
G36*
X7000000Y45700000D02*
X6400000Y45700000D01*
X6400000Y46400000D01*
X7000000Y46400000D01*
X7000000Y45700000D01*
X7000000Y45700000D01*
G37*
G36*
X37100000Y47800000D02*
X35300000Y47800000D01*
X35300000Y49600000D01*
X37100000Y49600000D01*
X37100000Y47800000D01*
X37100000Y47800000D01*
G37*
G36*
X5218000Y47800000D02*
X3418000Y47800000D01*
X3418000Y49600000D01*
X5218000Y49600000D01*
X5218000Y47800000D01*
X5218000Y47800000D01*
G37*
G36*
X2678000Y47800000D02*
X878000Y47800000D01*
X878000Y49600000D01*
X2678000Y49600000D01*
X2678000Y47800000D01*
X2678000Y47800000D01*
G37*
G36*
X34400000Y47807000D02*
X32600000Y47807000D01*
X32600000Y49607000D01*
X34400000Y49607000D01*
X34400000Y47807000D01*
X34400000Y47807000D01*
G37*
G36*
X3145845Y53364785D02*
X3236839Y53327094D01*
X3291311Y53290697D01*
X3318733Y53272374D01*
X3388374Y53202733D01*
X3388375Y53202731D01*
X3443094Y53120839D01*
X3480785Y53029845D01*
X3500000Y52933246D01*
X3500000Y52834754D01*
X3480785Y52738155D01*
X3443094Y52647161D01*
X3406697Y52592689D01*
X3388374Y52565267D01*
X3318733Y52495626D01*
X3291311Y52477303D01*
X3236839Y52440906D01*
X3145845Y52403215D01*
X3049246Y52384000D01*
X2950754Y52384000D01*
X2854155Y52403215D01*
X2763161Y52440906D01*
X2708689Y52477303D01*
X2681267Y52495626D01*
X2611626Y52565267D01*
X2593303Y52592689D01*
X2556906Y52647161D01*
X2519215Y52738155D01*
X2500000Y52834754D01*
X2500000Y52933246D01*
X2519215Y53029845D01*
X2556906Y53120839D01*
X2611625Y53202731D01*
X2611626Y53202733D01*
X2681267Y53272374D01*
X2708689Y53290697D01*
X2763161Y53327094D01*
X2854155Y53364785D01*
X2950754Y53384000D01*
X3049246Y53384000D01*
X3145845Y53364785D01*
X3145845Y53364785D01*
G37*
G36*
X36410845Y53364785D02*
X36501839Y53327094D01*
X36556311Y53290697D01*
X36583733Y53272374D01*
X36653374Y53202733D01*
X36653375Y53202731D01*
X36708094Y53120839D01*
X36745785Y53029845D01*
X36765000Y52933246D01*
X36765000Y52834754D01*
X36745785Y52738155D01*
X36708094Y52647161D01*
X36671697Y52592689D01*
X36653374Y52565267D01*
X36583733Y52495626D01*
X36556311Y52477303D01*
X36501839Y52440906D01*
X36410845Y52403215D01*
X36314246Y52384000D01*
X36215754Y52384000D01*
X36119155Y52403215D01*
X36028161Y52440906D01*
X35973689Y52477303D01*
X35946267Y52495626D01*
X35876626Y52565267D01*
X35858303Y52592689D01*
X35821906Y52647161D01*
X35784215Y52738155D01*
X35765000Y52834754D01*
X35765000Y52933246D01*
X35784215Y53029845D01*
X35821906Y53120839D01*
X35876625Y53202731D01*
X35876626Y53202733D01*
X35946267Y53272374D01*
X35973689Y53290697D01*
X36028161Y53327094D01*
X36119155Y53364785D01*
X36215754Y53384000D01*
X36314246Y53384000D01*
X36410845Y53364785D01*
X36410845Y53364785D01*
G37*
G36*
X35145845Y53364785D02*
X35236839Y53327094D01*
X35291311Y53290697D01*
X35318733Y53272374D01*
X35388374Y53202733D01*
X35388375Y53202731D01*
X35443094Y53120839D01*
X35480785Y53029845D01*
X35500000Y52933246D01*
X35500000Y52834754D01*
X35480785Y52738155D01*
X35443094Y52647161D01*
X35406697Y52592689D01*
X35388374Y52565267D01*
X35318733Y52495626D01*
X35291311Y52477303D01*
X35236839Y52440906D01*
X35145845Y52403215D01*
X35049246Y52384000D01*
X34950754Y52384000D01*
X34854155Y52403215D01*
X34763161Y52440906D01*
X34708689Y52477303D01*
X34681267Y52495626D01*
X34611626Y52565267D01*
X34593303Y52592689D01*
X34556906Y52647161D01*
X34519215Y52738155D01*
X34500000Y52834754D01*
X34500000Y52933246D01*
X34519215Y53029845D01*
X34556906Y53120839D01*
X34611625Y53202731D01*
X34611626Y53202733D01*
X34681267Y53272374D01*
X34708689Y53290697D01*
X34763161Y53327094D01*
X34854155Y53364785D01*
X34950754Y53384000D01*
X35049246Y53384000D01*
X35145845Y53364785D01*
X35145845Y53364785D01*
G37*
G36*
X33880845Y53364785D02*
X33971839Y53327094D01*
X34026311Y53290697D01*
X34053733Y53272374D01*
X34123374Y53202733D01*
X34123375Y53202731D01*
X34178094Y53120839D01*
X34215785Y53029845D01*
X34235000Y52933246D01*
X34235000Y52834754D01*
X34215785Y52738155D01*
X34178094Y52647161D01*
X34141697Y52592689D01*
X34123374Y52565267D01*
X34053733Y52495626D01*
X34026311Y52477303D01*
X33971839Y52440906D01*
X33880845Y52403215D01*
X33784246Y52384000D01*
X33685754Y52384000D01*
X33589155Y52403215D01*
X33498161Y52440906D01*
X33443689Y52477303D01*
X33416267Y52495626D01*
X33346626Y52565267D01*
X33328303Y52592689D01*
X33291906Y52647161D01*
X33254215Y52738155D01*
X33235000Y52834754D01*
X33235000Y52933246D01*
X33254215Y53029845D01*
X33291906Y53120839D01*
X33346625Y53202731D01*
X33346626Y53202733D01*
X33416267Y53272374D01*
X33443689Y53290697D01*
X33498161Y53327094D01*
X33589155Y53364785D01*
X33685754Y53384000D01*
X33784246Y53384000D01*
X33880845Y53364785D01*
X33880845Y53364785D01*
G37*
G36*
X4410845Y53364785D02*
X4501839Y53327094D01*
X4556311Y53290697D01*
X4583733Y53272374D01*
X4653374Y53202733D01*
X4653375Y53202731D01*
X4708094Y53120839D01*
X4745785Y53029845D01*
X4765000Y52933246D01*
X4765000Y52834754D01*
X4745785Y52738155D01*
X4708094Y52647161D01*
X4671697Y52592689D01*
X4653374Y52565267D01*
X4583733Y52495626D01*
X4556311Y52477303D01*
X4501839Y52440906D01*
X4410845Y52403215D01*
X4314246Y52384000D01*
X4215754Y52384000D01*
X4119155Y52403215D01*
X4028161Y52440906D01*
X3973689Y52477303D01*
X3946267Y52495626D01*
X3876626Y52565267D01*
X3858303Y52592689D01*
X3821906Y52647161D01*
X3784215Y52738155D01*
X3765000Y52834754D01*
X3765000Y52933246D01*
X3784215Y53029845D01*
X3821906Y53120839D01*
X3876625Y53202731D01*
X3876626Y53202733D01*
X3946267Y53272374D01*
X3973689Y53290697D01*
X4028161Y53327094D01*
X4119155Y53364785D01*
X4215754Y53384000D01*
X4314246Y53384000D01*
X4410845Y53364785D01*
X4410845Y53364785D01*
G37*
G36*
X1880845Y53364785D02*
X1971839Y53327094D01*
X2026311Y53290697D01*
X2053733Y53272374D01*
X2123374Y53202733D01*
X2123375Y53202731D01*
X2178094Y53120839D01*
X2215785Y53029845D01*
X2235000Y52933246D01*
X2235000Y52834754D01*
X2215785Y52738155D01*
X2178094Y52647161D01*
X2141697Y52592689D01*
X2123374Y52565267D01*
X2053733Y52495626D01*
X2026311Y52477303D01*
X1971839Y52440906D01*
X1880845Y52403215D01*
X1784246Y52384000D01*
X1685754Y52384000D01*
X1589155Y52403215D01*
X1498161Y52440906D01*
X1443689Y52477303D01*
X1416267Y52495626D01*
X1346626Y52565267D01*
X1328303Y52592689D01*
X1291906Y52647161D01*
X1254215Y52738155D01*
X1235000Y52834754D01*
X1235000Y52933246D01*
X1254215Y53029845D01*
X1291906Y53120839D01*
X1346625Y53202731D01*
X1346626Y53202733D01*
X1416267Y53272374D01*
X1443689Y53290697D01*
X1498161Y53327094D01*
X1589155Y53364785D01*
X1685754Y53384000D01*
X1784246Y53384000D01*
X1880845Y53364785D01*
X1880845Y53364785D01*
G37*
G36*
X4381676Y56674628D02*
X4454471Y56644475D01*
X4498049Y56615357D01*
X4519987Y56600699D01*
X4575699Y56544987D01*
X4575700Y56544985D01*
X4619475Y56479471D01*
X4649628Y56406676D01*
X4665000Y56329397D01*
X4665000Y56250603D01*
X4649628Y56173324D01*
X4619475Y56100529D01*
X4590357Y56056951D01*
X4575699Y56035013D01*
X4519987Y55979301D01*
X4498049Y55964643D01*
X4454471Y55935525D01*
X4381676Y55905372D01*
X4304397Y55890000D01*
X4225603Y55890000D01*
X4148324Y55905372D01*
X4075529Y55935525D01*
X4031951Y55964643D01*
X4010013Y55979301D01*
X3954301Y56035013D01*
X3939643Y56056951D01*
X3910525Y56100529D01*
X3880372Y56173324D01*
X3865000Y56250603D01*
X3865000Y56329397D01*
X3880372Y56406676D01*
X3910525Y56479471D01*
X3954300Y56544985D01*
X3954301Y56544987D01*
X4010013Y56600699D01*
X4031951Y56615357D01*
X4075529Y56644475D01*
X4148324Y56674628D01*
X4225603Y56690000D01*
X4304397Y56690000D01*
X4381676Y56674628D01*
X4381676Y56674628D01*
G37*
G36*
X33851676Y56674628D02*
X33924471Y56644475D01*
X33968049Y56615357D01*
X33989987Y56600699D01*
X34045699Y56544987D01*
X34045700Y56544985D01*
X34089475Y56479471D01*
X34119628Y56406676D01*
X34135000Y56329397D01*
X34135000Y56250603D01*
X34119628Y56173324D01*
X34089475Y56100529D01*
X34060357Y56056951D01*
X34045699Y56035013D01*
X33989987Y55979301D01*
X33968049Y55964643D01*
X33924471Y55935525D01*
X33851676Y55905372D01*
X33774397Y55890000D01*
X33695603Y55890000D01*
X33618324Y55905372D01*
X33545529Y55935525D01*
X33501951Y55964643D01*
X33480013Y55979301D01*
X33424301Y56035013D01*
X33409643Y56056951D01*
X33380525Y56100529D01*
X33350372Y56173324D01*
X33335000Y56250603D01*
X33335000Y56329397D01*
X33350372Y56406676D01*
X33380525Y56479471D01*
X33424300Y56544985D01*
X33424301Y56544987D01*
X33480013Y56600699D01*
X33501951Y56615357D01*
X33545529Y56644475D01*
X33618324Y56674628D01*
X33695603Y56690000D01*
X33774397Y56690000D01*
X33851676Y56674628D01*
X33851676Y56674628D01*
G37*
G36*
X36381676Y56674628D02*
X36454471Y56644475D01*
X36498049Y56615357D01*
X36519987Y56600699D01*
X36575699Y56544987D01*
X36575700Y56544985D01*
X36619475Y56479471D01*
X36649628Y56406676D01*
X36665000Y56329397D01*
X36665000Y56250603D01*
X36649628Y56173324D01*
X36619475Y56100529D01*
X36590357Y56056951D01*
X36575699Y56035013D01*
X36519987Y55979301D01*
X36498049Y55964643D01*
X36454471Y55935525D01*
X36381676Y55905372D01*
X36304397Y55890000D01*
X36225603Y55890000D01*
X36148324Y55905372D01*
X36075529Y55935525D01*
X36031951Y55964643D01*
X36010013Y55979301D01*
X35954301Y56035013D01*
X35939643Y56056951D01*
X35910525Y56100529D01*
X35880372Y56173324D01*
X35865000Y56250603D01*
X35865000Y56329397D01*
X35880372Y56406676D01*
X35910525Y56479471D01*
X35954300Y56544985D01*
X35954301Y56544987D01*
X36010013Y56600699D01*
X36031951Y56615357D01*
X36075529Y56644475D01*
X36148324Y56674628D01*
X36225603Y56690000D01*
X36304397Y56690000D01*
X36381676Y56674628D01*
X36381676Y56674628D01*
G37*
G36*
X1851676Y56674628D02*
X1924471Y56644475D01*
X1968049Y56615357D01*
X1989987Y56600699D01*
X2045699Y56544987D01*
X2045700Y56544985D01*
X2089475Y56479471D01*
X2119628Y56406676D01*
X2135000Y56329397D01*
X2135000Y56250603D01*
X2119628Y56173324D01*
X2089475Y56100529D01*
X2060357Y56056951D01*
X2045699Y56035013D01*
X1989987Y55979301D01*
X1968049Y55964643D01*
X1924471Y55935525D01*
X1851676Y55905372D01*
X1774397Y55890000D01*
X1695603Y55890000D01*
X1618324Y55905372D01*
X1545529Y55935525D01*
X1501951Y55964643D01*
X1480013Y55979301D01*
X1424301Y56035013D01*
X1409643Y56056951D01*
X1380525Y56100529D01*
X1350372Y56173324D01*
X1335000Y56250603D01*
X1335000Y56329397D01*
X1350372Y56406676D01*
X1380525Y56479471D01*
X1424300Y56544985D01*
X1424301Y56544987D01*
X1480013Y56600699D01*
X1501951Y56615357D01*
X1545529Y56644475D01*
X1618324Y56674628D01*
X1695603Y56690000D01*
X1774397Y56690000D01*
X1851676Y56674628D01*
X1851676Y56674628D01*
G37*
G36*
X29662520Y64465414D02*
X29826310Y64397570D01*
X29973717Y64299076D01*
X30099076Y64173717D01*
X30197570Y64026310D01*
X30265414Y63862520D01*
X30300000Y63688642D01*
X30300000Y63511358D01*
X30265414Y63337480D01*
X30197570Y63173690D01*
X30099076Y63026283D01*
X29973717Y62900924D01*
X29826310Y62802430D01*
X29662520Y62734586D01*
X29488642Y62700000D01*
X29311358Y62700000D01*
X29137480Y62734586D01*
X28973690Y62802430D01*
X28826283Y62900924D01*
X28700924Y63026283D01*
X28602430Y63173690D01*
X28534586Y63337480D01*
X28500000Y63511358D01*
X28500000Y63688642D01*
X28534586Y63862520D01*
X28602430Y64026310D01*
X28700924Y64173717D01*
X28826283Y64299076D01*
X28973690Y64397570D01*
X29137480Y64465414D01*
X29311358Y64500000D01*
X29488642Y64500000D01*
X29662520Y64465414D01*
X29662520Y64465414D01*
G37*
G36*
X8862520Y64465414D02*
X9026310Y64397570D01*
X9173717Y64299076D01*
X9299076Y64173717D01*
X9397570Y64026310D01*
X9465414Y63862520D01*
X9500000Y63688642D01*
X9500000Y63511358D01*
X9465414Y63337480D01*
X9397570Y63173690D01*
X9299076Y63026283D01*
X9173717Y62900924D01*
X9026310Y62802430D01*
X8862520Y62734586D01*
X8688642Y62700000D01*
X8511358Y62700000D01*
X8337480Y62734586D01*
X8173690Y62802430D01*
X8026283Y62900924D01*
X7900924Y63026283D01*
X7802430Y63173690D01*
X7734586Y63337480D01*
X7700000Y63511358D01*
X7700000Y63688642D01*
X7734586Y63862520D01*
X7802430Y64026310D01*
X7900924Y64173717D01*
X8026283Y64299076D01*
X8173690Y64397570D01*
X8337480Y64465414D01*
X8511358Y64500000D01*
X8688642Y64500000D01*
X8862520Y64465414D01*
X8862520Y64465414D01*
G37*
G36*
X29662520Y71465414D02*
X29826310Y71397570D01*
X29973717Y71299076D01*
X30099076Y71173717D01*
X30197570Y71026310D01*
X30265414Y70862520D01*
X30300000Y70688642D01*
X30300000Y70511358D01*
X30265414Y70337480D01*
X30197570Y70173690D01*
X30099076Y70026283D01*
X29973717Y69900924D01*
X29826310Y69802430D01*
X29662520Y69734586D01*
X29488642Y69700000D01*
X29311358Y69700000D01*
X29137480Y69734586D01*
X28973690Y69802430D01*
X28826283Y69900924D01*
X28700924Y70026283D01*
X28602430Y70173690D01*
X28534586Y70337480D01*
X28500000Y70511358D01*
X28500000Y70688642D01*
X28534586Y70862520D01*
X28602430Y71026310D01*
X28700924Y71173717D01*
X28826283Y71299076D01*
X28973690Y71397570D01*
X29137480Y71465414D01*
X29311358Y71500000D01*
X29488642Y71500000D01*
X29662520Y71465414D01*
X29662520Y71465414D01*
G37*
G36*
X8862520Y71465414D02*
X9026310Y71397570D01*
X9173717Y71299076D01*
X9299076Y71173717D01*
X9397570Y71026310D01*
X9465414Y70862520D01*
X9500000Y70688642D01*
X9500000Y70511358D01*
X9465414Y70337480D01*
X9397570Y70173690D01*
X9299076Y70026283D01*
X9173717Y69900924D01*
X9026310Y69802430D01*
X8862520Y69734586D01*
X8688642Y69700000D01*
X8511358Y69700000D01*
X8337480Y69734586D01*
X8173690Y69802430D01*
X8026283Y69900924D01*
X7900924Y70026283D01*
X7802430Y70173690D01*
X7734586Y70337480D01*
X7700000Y70511358D01*
X7700000Y70688642D01*
X7734586Y70862520D01*
X7802430Y71026310D01*
X7900924Y71173717D01*
X8026283Y71299076D01*
X8173690Y71397570D01*
X8337480Y71465414D01*
X8511358Y71500000D01*
X8688642Y71500000D01*
X8862520Y71465414D01*
X8862520Y71465414D01*
G37*
M02*
