M48
;DRILL file {KiCad (5.0.1-3-g963ef8bb5)} date Tuesday, March 19, 2019 at 04:49:32 PM
;FORMAT={-:-/ absolute / inch / decimal}
FMAT,2
INCH,TZ
T1C0.0039
%
G90
G05
M72
T1
X0.249Y0.876
X0.4341Y0.8425
X0.4393Y0.9042
X0.4429Y0.9498
X0.4429Y0.8809
X0.4429Y0.8612
X0.4616Y0.9951
X0.5Y1.1142
X0.501Y1.0758
X0.502Y1.0344
X0.503Y0.9951
X0.5394Y1.0374
X0.5404Y1.311
X0.5433Y1.1585
X0.5807Y1.0354
X0.5807Y0.9951
X0.5817Y1.1565
X0.6181Y1.1142
X0.6191Y1.2717
X0.6211Y1.0748
X0.6585Y1.2323
X0.6594Y0.997
X0.6617Y1.1496
X0.6969Y1.2323
X0.6978Y0.997
X0.6978Y0.9577
X0.6988Y1.312
X0.6988Y0.9193
X0.7362Y1.0374
X0.7372Y0.997
X0.7382Y1.1142
X0.7404Y1.0728
X0.7776Y0.9577
X0.815Y0.9567
X0.8159Y1.1545
X0.8169Y1.0748
X0.8484Y1.2008
X0.8553Y1.2333
X0.8553Y1.1535
X0.8553Y1.0354
X0.8927Y1.1555
X0.8937Y1.1988
X0.8937Y0.9587
X0.8947Y1.2333
X0.8947Y1.0354
T0
M30
