G04 #@! TF.GenerationSoftware,KiCad,Pcbnew,(5.0.1-3-g963ef8bb5)*
G04 #@! TF.CreationDate,2019-03-19T16:49:21-04:00*
G04 #@! TF.ProjectId,Tympan_D,54796D70616E5F442E6B696361645F70,rev?*
G04 #@! TF.SameCoordinates,PX6d878d0PY72e6100*
G04 #@! TF.FileFunction,Paste,Bot*
G04 #@! TF.FilePolarity,Positive*
%FSLAX46Y46*%
G04 Gerber Fmt 4.6, Leading zero omitted, Abs format (unit mm)*
G04 Created by KiCad (PCBNEW (5.0.1-3-g963ef8bb5)) date Tuesday, March 19, 2019 at 04:49:21 PM*
%MOMM*%
%LPD*%
G01*
G04 APERTURE LIST*
%ADD10C,0.300000*%
%ADD11R,1.000000X1.600000*%
%ADD12R,0.650000X1.060000*%
%ADD13R,0.500000X0.600000*%
%ADD14R,0.600000X0.500000*%
%ADD15R,0.400000X0.600000*%
%ADD16R,0.600000X0.400000*%
%ADD17C,0.500380*%
%ADD18R,1.100000X1.900000*%
%ADD19R,1.400000X1.200000*%
%ADD20R,2.500000X1.700000*%
%ADD21R,1.700000X2.500000*%
%ADD22O,0.300000X0.750000*%
%ADD23O,0.750000X0.300000*%
%ADD24R,0.540000X0.540000*%
%ADD25C,0.900000*%
%ADD26C,0.700000*%
%ADD27R,3.500000X1.000000*%
%ADD28R,3.400000X1.500000*%
G04 APERTURE END LIST*
D10*
G04 #@! TO.C,MIC2*
X3615183Y55238370D02*
G75*
G02X3250000Y54880000I-615183J261630D01*
G01*
X2738370Y54884817D02*
G75*
G02X2380000Y55250000I261630J615183D01*
G01*
X2384817Y55761630D02*
G75*
G02X2750000Y56120000I615183J-261630D01*
G01*
X3261630Y56115183D02*
G75*
G02X3620000Y55750000I-261630J-615183D01*
G01*
G04 #@! TO.C,MIC1*
X35615183Y55238370D02*
G75*
G02X35250000Y54880000I-615183J261630D01*
G01*
X34738370Y54884817D02*
G75*
G02X34380000Y55250000I261630J615183D01*
G01*
X34384817Y55761630D02*
G75*
G02X34750000Y56120000I615183J-261630D01*
G01*
X35261630Y56115183D02*
G75*
G02X35620000Y55750000I-261630J-615183D01*
G01*
G04 #@! TD*
D11*
G04 #@! TO.C,F1*
X2200000Y19600000D03*
X5200000Y19600000D03*
G04 #@! TD*
D12*
G04 #@! TO.C,U4*
X32250000Y29650000D03*
X31300000Y29650000D03*
X30350000Y29650000D03*
X30350000Y31850000D03*
X32250000Y31850000D03*
G04 #@! TD*
D13*
G04 #@! TO.C,C14*
X8325000Y28925000D03*
X8325000Y27825000D03*
G04 #@! TD*
D14*
G04 #@! TO.C,C20*
X32400000Y28400000D03*
X31300000Y28400000D03*
G04 #@! TD*
D13*
G04 #@! TO.C,C21*
X27850000Y10450000D03*
X27850000Y11550000D03*
G04 #@! TD*
D14*
G04 #@! TO.C,C22*
X32400000Y33125000D03*
X31300000Y33125000D03*
G04 #@! TD*
D13*
G04 #@! TO.C,C23*
X6700000Y46050000D03*
X6700000Y44950000D03*
G04 #@! TD*
G04 #@! TO.C,C24*
X6725000Y43600000D03*
X6725000Y42500000D03*
G04 #@! TD*
G04 #@! TO.C,C25*
X6700000Y41150000D03*
X6700000Y40050000D03*
G04 #@! TD*
G04 #@! TO.C,C26*
X6700000Y38396000D03*
X6700000Y37296000D03*
G04 #@! TD*
D15*
G04 #@! TO.C,R19*
X22250000Y44800000D03*
X23150000Y44800000D03*
G04 #@! TD*
G04 #@! TO.C,R20*
X22250000Y43900000D03*
X23150000Y43900000D03*
G04 #@! TD*
D16*
G04 #@! TO.C,R23*
X10125000Y29825000D03*
X10125000Y30725000D03*
G04 #@! TD*
D17*
G04 #@! TO.C,IC1*
X23225640Y33815040D03*
X22224880Y33815040D03*
X21224120Y33815040D03*
X20225900Y33815040D03*
X19225140Y33815040D03*
X18224380Y33815040D03*
X17226160Y33815040D03*
X16225400Y33815040D03*
X15224640Y33815040D03*
X14223880Y33815040D03*
X13225660Y33815040D03*
X12224900Y33815040D03*
X23225640Y32814280D03*
X23225640Y31813520D03*
X23225640Y30815300D03*
X23225640Y29814540D03*
X23225640Y28813780D03*
X23225640Y27815560D03*
X23225640Y26814800D03*
X23225640Y25814040D03*
X12224900Y32814280D03*
X13225660Y32814280D03*
X14223880Y32814280D03*
X15224640Y32814280D03*
X16225400Y32814280D03*
X17226160Y32814280D03*
X18224380Y32814280D03*
X19225140Y32814280D03*
X22224880Y32814280D03*
X21224120Y32814280D03*
X20225900Y32814280D03*
X22224880Y31813520D03*
X21224120Y31813520D03*
X20225900Y31813520D03*
X19225140Y31813520D03*
X18224380Y31813520D03*
X17226160Y31813520D03*
X16225400Y31813520D03*
X15224640Y31813520D03*
X22224880Y30815300D03*
X21224120Y30815300D03*
X20225900Y30815300D03*
X19225140Y30815300D03*
X18224380Y30815300D03*
X17226160Y30815300D03*
X16225400Y30815300D03*
X15224640Y30815300D03*
X22224880Y29814540D03*
X21224120Y29814540D03*
X20225900Y29814540D03*
X14223880Y31813520D03*
X14223880Y30815300D03*
X13225660Y31813520D03*
X13225660Y30815300D03*
X12224900Y30815300D03*
X12224900Y31813520D03*
X22224880Y28813780D03*
X21224120Y28813780D03*
X20225900Y28813780D03*
X20225900Y27815560D03*
X21224120Y27815560D03*
X22224880Y27815560D03*
X22224880Y26814800D03*
X21224120Y26814800D03*
X20225900Y26814800D03*
X20225900Y25814040D03*
X21224120Y25814040D03*
X22224880Y25814040D03*
X23225640Y24813280D03*
X22224880Y24813280D03*
X21224120Y24813280D03*
X20225900Y24813280D03*
X20225900Y23815060D03*
X21224120Y23815060D03*
X22224880Y23815060D03*
X23225640Y23815060D03*
X23225640Y22814300D03*
X22224880Y22814300D03*
X21224120Y22814300D03*
X20225900Y22814300D03*
X16225400Y29814540D03*
X17226160Y29814540D03*
X18224380Y29814540D03*
X19225140Y29814540D03*
X19225140Y28813780D03*
X18224380Y28813780D03*
X17226160Y28813780D03*
X16225400Y28813780D03*
X19225140Y27815560D03*
X18224380Y27815560D03*
X17226160Y27815560D03*
X16225400Y27815560D03*
X19225140Y26814800D03*
X18224380Y26814800D03*
X17226160Y26814800D03*
X16225400Y26814800D03*
X19225140Y25814040D03*
X18224380Y25814040D03*
X17226160Y25814040D03*
X16225400Y25814040D03*
X19225140Y24813280D03*
X18224380Y24813280D03*
X17226160Y24813280D03*
X16225400Y24813280D03*
X19225140Y23815060D03*
X18224380Y23815060D03*
X17226160Y23815060D03*
X16225400Y23815060D03*
X19225140Y22814300D03*
X18224380Y22814300D03*
X17226160Y22814300D03*
X16225400Y22814300D03*
X15224640Y29814540D03*
X14223880Y29814540D03*
X13225660Y29814540D03*
X12224900Y29814540D03*
X15224640Y28813780D03*
X14223880Y28813780D03*
X13225660Y28813780D03*
X12224900Y28813780D03*
X15224640Y25814040D03*
X12224900Y27815560D03*
X13225660Y27815560D03*
X14223880Y27815560D03*
X15224640Y27815560D03*
X15224640Y26814800D03*
X14223880Y26814800D03*
X13225660Y26814800D03*
X12224900Y26814800D03*
X14223880Y25814040D03*
X13225660Y25814040D03*
X12224900Y25814040D03*
X15224640Y22814300D03*
X15224640Y23815060D03*
X15224640Y24813280D03*
X14223880Y24813280D03*
X14223880Y23815060D03*
X14223880Y22814300D03*
X13225660Y22814300D03*
X13225660Y23815060D03*
X13225660Y24813280D03*
X12224900Y24813280D03*
X12224900Y23815060D03*
X12224900Y22814300D03*
G04 #@! TD*
D18*
G04 #@! TO.C,Y1*
X18975000Y20450000D03*
X16475000Y20450000D03*
G04 #@! TD*
D19*
G04 #@! TO.C,Y2*
X14300000Y19175000D03*
X12100000Y19175000D03*
X12100000Y20775000D03*
X14300000Y20775000D03*
G04 #@! TD*
D14*
G04 #@! TO.C,C34*
X31000000Y12850000D03*
X29900000Y12850000D03*
G04 #@! TD*
D20*
G04 #@! TO.C,D4*
X14350000Y13800000D03*
X10350000Y13800000D03*
G04 #@! TD*
D21*
G04 #@! TO.C,D5*
X25000000Y10400000D03*
X25000000Y6400000D03*
G04 #@! TD*
D16*
G04 #@! TO.C,R34*
X23200000Y3050000D03*
X23200000Y2150000D03*
G04 #@! TD*
G04 #@! TO.C,R35*
X24200000Y3050000D03*
X24200000Y2150000D03*
G04 #@! TD*
G04 #@! TO.C,R36*
X22200000Y3050000D03*
X22200000Y2150000D03*
G04 #@! TD*
D12*
G04 #@! TO.C,U1*
X31000000Y9350000D03*
X30050000Y9350000D03*
X29100000Y9350000D03*
X29100000Y11550000D03*
X31000000Y11550000D03*
G04 #@! TD*
D22*
G04 #@! TO.C,IC2*
X8025000Y24100000D03*
X8525000Y24100000D03*
X9025000Y24100000D03*
X9525000Y24100000D03*
D23*
X10250000Y23375000D03*
X10250000Y22875000D03*
X10250000Y22375000D03*
X10250000Y21875000D03*
D22*
X9525000Y21150000D03*
X9025000Y21150000D03*
X8525000Y21150000D03*
X8025000Y21150000D03*
D23*
X7300000Y21875000D03*
X7300000Y22375000D03*
X7300000Y22875000D03*
X7300000Y23375000D03*
D24*
X9225000Y22175000D03*
X8325000Y22175000D03*
X9225000Y23075000D03*
X8325000Y23075000D03*
G04 #@! TD*
D25*
G04 #@! TO.C,MIC2*
X1735000Y52884000D03*
X3000000Y52884000D03*
X4265000Y52884000D03*
D26*
X1735000Y56290000D03*
X4265000Y56290000D03*
G04 #@! TD*
D27*
G04 #@! TO.C,BT1*
X18800000Y5550000D03*
X18800000Y7550000D03*
D28*
X13250000Y3200000D03*
X13250000Y9900000D03*
G04 #@! TD*
D25*
G04 #@! TO.C,MIC1*
X33735000Y52884000D03*
X35000000Y52884000D03*
X36265000Y52884000D03*
D26*
X33735000Y56290000D03*
X36265000Y56290000D03*
G04 #@! TD*
M02*
