G04 #@! TF.GenerationSoftware,KiCad,Pcbnew,(5.0.1-3-g963ef8bb5)*
G04 #@! TF.CreationDate,2019-03-19T16:49:21-04:00*
G04 #@! TF.ProjectId,Tympan_D,54796D70616E5F442E6B696361645F70,rev?*
G04 #@! TF.SameCoordinates,PX6d878d0PY72e6100*
G04 #@! TF.FileFunction,Copper,L3,Inr,Mixed*
G04 #@! TF.FilePolarity,Positive*
%FSLAX46Y46*%
G04 Gerber Fmt 4.6, Leading zero omitted, Abs format (unit mm)*
G04 Created by KiCad (PCBNEW (5.0.1-3-g963ef8bb5)) date Tuesday, March 19, 2019 at 04:49:21 PM*
%MOMM*%
%LPD*%
G01*
G04 APERTURE LIST*
G04 #@! TA.AperFunction,ViaPad*
%ADD10O,1.400000X1.400000*%
G04 #@! TD*
G04 #@! TA.AperFunction,ViaPad*
%ADD11R,1.700000X1.700000*%
G04 #@! TD*
G04 #@! TA.AperFunction,ViaPad*
%ADD12O,1.700000X1.700000*%
G04 #@! TD*
G04 #@! TA.AperFunction,ViaPad*
%ADD13R,1.350000X1.350000*%
G04 #@! TD*
G04 #@! TA.AperFunction,ViaPad*
%ADD14O,1.350000X1.350000*%
G04 #@! TD*
G04 #@! TA.AperFunction,ViaPad*
%ADD15C,0.600000*%
G04 #@! TD*
G04 #@! TA.AperFunction,ViaPad*
%ADD16C,0.300000*%
G04 #@! TD*
G04 #@! TA.AperFunction,Conductor*
%ADD17C,0.381000*%
G04 #@! TD*
G04 #@! TA.AperFunction,Conductor*
%ADD18C,0.203200*%
G04 #@! TD*
G04 #@! TA.AperFunction,Conductor*
%ADD19C,0.177800*%
G04 #@! TD*
G04 #@! TA.AperFunction,Conductor*
%ADD20C,0.200000*%
G04 #@! TD*
G04 APERTURE END LIST*
D10*
G04 #@! TO.N,Earth*
G04 #@! TO.C,P1*
X9950000Y1400000D03*
X16550000Y1400000D03*
G04 #@! TD*
D11*
G04 #@! TO.N,GND*
G04 #@! TO.C,RV1*
X5300000Y26350000D03*
D12*
G04 #@! TO.N,/POT*
X5300000Y28890000D03*
G04 #@! TO.N,+3V3*
X5300000Y31430000D03*
G04 #@! TD*
D11*
G04 #@! TO.N,+3V3*
G04 #@! TO.C,P3*
X36200000Y48700000D03*
D12*
G04 #@! TO.N,/DOUT_1*
X36200000Y46160000D03*
G04 #@! TO.N,/DIN_1*
X36200000Y43620000D03*
G04 #@! TO.N,/SDA2*
X36200000Y41080000D03*
G04 #@! TO.N,/SCL2*
X36200000Y38540000D03*
G04 #@! TO.N,GND*
X36200000Y36000000D03*
G04 #@! TD*
D11*
G04 #@! TO.N,/M_BIAS_1*
G04 #@! TO.C,P4*
X4318000Y48700000D03*
D12*
G04 #@! TO.N,/MCLK*
X4318000Y46160000D03*
G04 #@! TO.N,/BCLK*
X4318000Y43620000D03*
G04 #@! TO.N,/WCLK*
X4318000Y41080000D03*
G04 #@! TO.N,/nRESET_1*
X4318000Y38540000D03*
G04 #@! TO.N,GND*
X4318000Y36000000D03*
G04 #@! TD*
D11*
G04 #@! TO.N,+1V8*
G04 #@! TO.C,P5*
X1778000Y48700000D03*
D12*
G04 #@! TO.N,Net-(C23-Pad2)*
X1778000Y46160000D03*
G04 #@! TO.N,Net-(C24-Pad2)*
X1778000Y43620000D03*
G04 #@! TO.N,Net-(C25-Pad2)*
X1778000Y41080000D03*
G04 #@! TO.N,Net-(C26-Pad2)*
X1778000Y38540000D03*
G04 #@! TO.N,GND*
X1778000Y36000000D03*
G04 #@! TD*
D11*
G04 #@! TO.N,/PDM_DAT*
G04 #@! TO.C,P2*
X33500000Y48707000D03*
D12*
G04 #@! TO.N,/PDM_CLK*
X33500000Y46167000D03*
G04 #@! TO.N,/MISO_2*
X33500000Y43627000D03*
G04 #@! TO.N,/MOSI_2*
X33500000Y41087000D03*
G04 #@! TO.N,/SCK_2*
X33500000Y38547000D03*
G04 #@! TO.N,/SS_2*
X33500000Y36007000D03*
G04 #@! TD*
D13*
G04 #@! TO.N,VPP*
G04 #@! TO.C,P6*
X5800000Y12800000D03*
D14*
X3800000Y12800000D03*
G04 #@! TO.N,GND*
X1800000Y12800000D03*
G04 #@! TD*
D15*
G04 #@! TO.N,GND*
X10175000Y31675000D03*
X17000000Y49400000D03*
X18350000Y2350000D03*
X14550000Y7150000D03*
X36750000Y57600000D03*
X32250000Y56350000D03*
X1100000Y55050000D03*
X5600000Y56300000D03*
X27050000Y12400000D03*
X31275000Y30775000D03*
D16*
X16806402Y29200000D03*
X22700000Y24350000D03*
X15775000Y27300000D03*
D15*
X17394600Y44483000D03*
X19294600Y44483000D03*
X19294600Y46383000D03*
X17394600Y46383000D03*
D16*
X20750000Y27300000D03*
D15*
X14700000Y22049999D03*
X21550000Y51150000D03*
X20600000Y49200008D03*
X12100000Y18050004D03*
X34050000Y13850000D03*
X35150000Y19650000D03*
X8920000Y6280000D03*
X23090000Y40220000D03*
X25575000Y69850000D03*
G04 #@! TO.N,+3V3*
X18200000Y8900000D03*
X36600000Y51700000D03*
X4400000Y51900000D03*
X3900000Y22500000D03*
X15250000Y28550000D03*
D16*
X15700000Y28300000D03*
D15*
X19400000Y3700000D03*
X13200000Y50500000D03*
X24275000Y27750000D03*
X30350000Y28400000D03*
X33300000Y28400000D03*
X3800000Y19550000D03*
X23140000Y41418399D03*
X25625000Y52425000D03*
G04 #@! TO.N,VPP*
X31000000Y13800000D03*
D16*
X17750000Y23350000D03*
D15*
X7200000Y17449998D03*
X2750000Y17640000D03*
G04 #@! TO.N,+1V8*
X33650000Y31850000D03*
X33650000Y33150000D03*
X16100000Y50600000D03*
X13600000Y48500000D03*
X15075000Y40800000D03*
D16*
G04 #@! TO.N,/POT*
X12775000Y25275000D03*
X11725000Y25275000D03*
D15*
G04 #@! TO.N,/IN2_L*
X33450000Y54300000D03*
X28475000Y54325000D03*
X24550000Y48110000D03*
X28490000Y48100000D03*
G04 #@! TO.N,Net-(C17-Pad2)*
X36500000Y54100000D03*
G04 #@! TO.N,/IN2_R*
X5400000Y53850000D03*
X20850000Y48225000D03*
X21630000Y54689998D03*
G04 #@! TO.N,Net-(C19-Pad2)*
X1300000Y53800000D03*
G04 #@! TO.N,+BATT*
X24950000Y12750000D03*
X22400000Y6850000D03*
X7170000Y7890000D03*
G04 #@! TO.N,Net-(J1-Pad3)*
X21800000Y65100000D03*
X33600000Y71650000D03*
G04 #@! TO.N,/MICDET*
X9400000Y56000000D03*
X10100000Y46500000D03*
G04 #@! TO.N,/BT_TX*
X11087500Y28962500D03*
X25825000Y1825000D03*
D16*
X13800000Y29425000D03*
D15*
X8200000Y7140000D03*
D16*
G04 #@! TO.N,/BT_RX*
X14775000Y29375000D03*
D15*
X11225000Y28075000D03*
X8975000Y5425000D03*
X26675000Y3200000D03*
G04 #@! TO.N,/BT_nRESET*
X22650000Y8225000D03*
X28000000Y5925000D03*
X19750000Y23975000D03*
D16*
X19750000Y24325000D03*
D15*
G04 #@! TO.N,/BCLK*
X18175000Y39650000D03*
X18150000Y36225000D03*
G04 #@! TO.N,/MCLK*
X17125000Y39650000D03*
D16*
X15725000Y32300000D03*
D15*
X15725000Y32300000D03*
G04 #@! TO.N,/BT_RTS*
X27175000Y5950000D03*
X23475000Y7550000D03*
X20700000Y24025000D03*
D16*
X20700000Y24300000D03*
D15*
G04 #@! TO.N,/BT_CTS*
X15550000Y22050000D03*
X18500000Y3375000D03*
X25125000Y2600000D03*
G04 #@! TO.N,/WCLK*
X19075000Y39575000D03*
D16*
G04 #@! TO.N,/DIN*
X13725000Y33300000D03*
D15*
X18150000Y34975000D03*
X20075000Y39625000D03*
G04 #@! TO.N,/nRESET*
X16250000Y35100000D03*
D16*
G04 #@! TO.N,/SCL/SS*
X12700000Y28300000D03*
D15*
X12300000Y27900000D03*
X12275000Y42650000D03*
X24029998Y43900000D03*
D16*
G04 #@! TO.N,/SDA/MOSI*
X12725000Y27325000D03*
D15*
X13225000Y27800000D03*
X12250000Y43575000D03*
X24050000Y44810700D03*
D16*
G04 #@! TO.N,/DOUT*
X16725000Y31300000D03*
D15*
X18725000Y31325000D03*
X23950000Y38950000D03*
G04 #@! TO.N,/IN1_L*
X26325000Y20000000D03*
X7700000Y43600000D03*
X22810000Y46540000D03*
X27940000Y45360000D03*
G04 #@! TO.N,/IN1_R*
X25200000Y20000000D03*
X7700000Y46100000D03*
X27280000Y47400000D03*
X22800000Y47340000D03*
G04 #@! TO.N,/LOL*
X9350000Y51600000D03*
X17100000Y51550000D03*
X9350000Y15650000D03*
X21450000Y15125000D03*
X9350000Y41175000D03*
G04 #@! TO.N,/LOR*
X22900000Y15125000D03*
X8500000Y14450000D03*
X8625000Y49900000D03*
X17250000Y50500000D03*
X8625000Y38450000D03*
G04 #@! TO.N,/HPL*
X15050000Y48250000D03*
X15050000Y61825000D03*
G04 #@! TO.N,/HPR*
X14275000Y46700000D03*
X15025000Y62700000D03*
G04 #@! TO.N,Net-(C1-Pad1)*
X18700000Y26250000D03*
D16*
X18700000Y26350000D03*
D15*
G04 #@! TO.N,Net-(C1-Pad2)*
X21000000Y28000000D03*
D16*
X18750000Y28300000D03*
D15*
G04 #@! TO.N,Net-(C28-Pad2)*
X21300000Y21150000D03*
G04 #@! TO.N,Net-(IC1-PadA9)*
X15225000Y35250000D03*
G04 #@! TO.N,/CLK*
X26525000Y26700000D03*
G04 #@! TO.N,/USB0_D+*
X22700000Y26150000D03*
D16*
X22725000Y26300000D03*
D15*
X13550000Y15750000D03*
X22600000Y18300000D03*
G04 #@! TO.N,/DAT0*
X26500000Y24450000D03*
D16*
X22700000Y30450000D03*
D15*
X24350000Y30500000D03*
D16*
G04 #@! TO.N,/DAT1*
X21550000Y30500000D03*
D15*
X24225000Y23400000D03*
X23525000Y29975000D03*
G04 #@! TO.N,Net-(IC1-PadD7)*
X17700000Y31300000D03*
D16*
X17700000Y31300000D03*
D15*
G04 #@! TO.N,/DAT2*
X26425000Y31025000D03*
D16*
X22675000Y29350000D03*
G04 #@! TO.N,/DAT3*
X21725000Y29300000D03*
D15*
X26475000Y29950000D03*
D16*
G04 #@! TO.N,/CMD*
X20725000Y29325000D03*
D15*
X26450000Y28875000D03*
G04 #@! TO.N,/USB0_D-*
X21625000Y26050000D03*
D16*
X21725000Y26300000D03*
D15*
X12550000Y15750004D03*
X21700008Y18400000D03*
G04 #@! TO.N,Net-(IC1-PadH5)*
X18700000Y27300000D03*
D16*
X18805382Y27250000D03*
G04 #@! TO.N,/PTA0*
X11250000Y21875000D03*
X18725000Y25325000D03*
G04 #@! TO.N,/PTA1*
X17725000Y25325000D03*
X11157301Y22967690D03*
G04 #@! TO.N,/PTA2*
X11025000Y21400000D03*
X17725000Y24325000D03*
G04 #@! TO.N,/PTA3*
X11250000Y22375000D03*
X16750000Y25325000D03*
G04 #@! TO.N,/RESET_B*
X11250000Y24125000D03*
X6325000Y22250000D03*
D15*
G04 #@! TO.N,/PROG*
X28150000Y20450000D03*
X9000000Y16800004D03*
G04 #@! TO.N,/V_USB*
X10300000Y11650000D03*
G04 #@! TO.N,Net-(C21-Pad1)*
X26600000Y10450000D03*
X14600000Y11950000D03*
G04 #@! TO.N,Net-(D6-Pad2)*
X23200000Y1450000D03*
G04 #@! TO.N,Net-(D6-Pad3)*
X24000000Y800000D03*
G04 #@! TO.N,Net-(D6-Pad4)*
X18550000Y1450000D03*
G04 #@! TO.N,Net-(F1-Pad1)*
X2100000Y22550000D03*
G04 #@! TO.N,/VREGEN*
X18550000Y10600000D03*
X10125000Y28875000D03*
X8700000Y10400000D03*
G04 #@! TO.N,/LED_0*
X22200000Y3800000D03*
G04 #@! TO.N,/LED_1*
X23200000Y3750000D03*
G04 #@! TO.N,/LED_2*
X24200000Y3750000D03*
G04 #@! TO.N,/M_BIAS*
X25300002Y49700000D03*
X25350000Y37500000D03*
G04 #@! TO.N,Net-(R16-Pad2)*
X15900000Y52925000D03*
X21400000Y52300000D03*
G04 #@! TO.N,/SS_2*
X26486166Y36550435D03*
G04 #@! TO.N,/SCK_2*
X25625000Y33475000D03*
X34850000Y34349998D03*
G04 #@! TO.N,/MISO_2*
X30650000Y31675000D03*
D16*
X22725000Y31325000D03*
D15*
X30650000Y43700000D03*
D16*
G04 #@! TO.N,/MOSI_2*
X21725000Y31325000D03*
D15*
X29950000Y32300000D03*
X29950000Y41150000D03*
G04 #@! TO.N,/BT_PIO5*
X18149998Y18750000D03*
G04 #@! TO.N,/BT_PIO0*
X18800000Y18150000D03*
G04 #@! TO.N,/USB*
X10200000Y5400000D03*
X6400000Y4330000D03*
G04 #@! TO.N,Net-(C12-Pad2)*
X6700000Y60800000D03*
X20150000Y59000000D03*
G04 #@! TO.N,Net-(C13-Pad2)*
X12200000Y67500000D03*
X11200000Y56100000D03*
D16*
G04 #@! TO.N,/nRESET_1*
X12750000Y26275000D03*
D15*
X3250000Y25500000D03*
G04 #@! TO.N,/DIN_1*
X11125000Y41700000D03*
D16*
G04 #@! TO.N,/DOUT_1*
X17750000Y33325000D03*
D15*
X28599998Y35902058D03*
X28775000Y44925000D03*
D16*
G04 #@! TO.N,/SDA2*
X14750000Y26300000D03*
D15*
X14225000Y26825000D03*
X21700000Y37000000D03*
G04 #@! TO.N,/SCL2*
X29275000Y37325000D03*
X29225000Y35250002D03*
D16*
X14750000Y25275000D03*
D15*
X15225000Y25825000D03*
X20650002Y35250002D03*
D16*
G04 #@! TO.N,/M_BIAS_1*
X13700000Y26350000D03*
D15*
X1700000Y27650000D03*
G04 #@! TO.N,/PDM_CLK*
X24150000Y43050000D03*
X24630000Y46051600D03*
G04 #@! TO.N,/PDM_DAT*
X24230000Y46770000D03*
G04 #@! TD*
D17*
G04 #@! TO.N,GND*
X16806402Y29200000D02*
X16800000Y29200000D01*
G04 #@! TO.N,+3V3*
X15500000Y28300000D02*
X15250000Y28550000D01*
X15700000Y28300000D02*
X15500000Y28300000D01*
D18*
G04 #@! TO.N,VPP*
X15868403Y17468403D02*
X7218405Y17468403D01*
X17550000Y19150000D02*
X15868403Y17468403D01*
X17550000Y23150000D02*
X17550000Y19150000D01*
X7218405Y17468403D02*
X7200000Y17449998D01*
X17750000Y23350000D02*
X17550000Y23150000D01*
D17*
X2750000Y17640000D02*
X2740000Y17650000D01*
X3360000Y17640000D02*
X2750000Y17640000D01*
X30900000Y13700000D02*
X7300000Y13700000D01*
X7300000Y13700000D02*
X3360000Y17640000D01*
X2740000Y17650000D02*
X2710000Y17650000D01*
X31000000Y13800000D02*
X30900000Y13700000D01*
D18*
G04 #@! TO.N,/POT*
X12775000Y25275000D02*
X11725000Y25275000D01*
G04 #@! TO.N,/IN2_L*
X29800000Y54300000D02*
X33450000Y54300000D01*
X28500000Y54300000D02*
X29800000Y54300000D01*
X28475000Y54325000D02*
X28500000Y54300000D01*
X28480000Y48110000D02*
X28490000Y48100000D01*
X24550000Y48110000D02*
X28480000Y48110000D01*
G04 #@! TO.N,/IN2_R*
X6239998Y54689998D02*
X21205736Y54689998D01*
X5400000Y53850000D02*
X6239998Y54689998D01*
X21205736Y54689998D02*
X21630000Y54689998D01*
G04 #@! TO.N,/BT_TX*
X13400000Y29800000D02*
X13800000Y29400000D01*
X11925000Y29800000D02*
X13400000Y29800000D01*
X13800000Y29400000D02*
X13800000Y29425000D01*
X11087500Y28962500D02*
X11925000Y29800000D01*
X8200000Y6715736D02*
X8200000Y7140000D01*
X25825000Y1825000D02*
X25825000Y3450000D01*
X25825000Y3450000D02*
X24700000Y4575000D01*
X24700000Y4575000D02*
X8965000Y4575000D01*
X8965000Y4575000D02*
X8200000Y5340000D01*
X8200000Y5340000D02*
X8200000Y6715736D01*
G04 #@! TO.N,/BT_RX*
X9750000Y6200000D02*
X8975000Y5425000D01*
X23975000Y6200000D02*
X9750000Y6200000D01*
X26675000Y3500000D02*
X23975000Y6200000D01*
X26675000Y3200000D02*
X26675000Y3500000D01*
X11950000Y28800000D02*
X11225000Y28075000D01*
X14200000Y28800000D02*
X11950000Y28800000D01*
X14775000Y29375000D02*
X14200000Y28800000D01*
G04 #@! TO.N,/BT_nRESET*
X22650000Y8225000D02*
X26225000Y8225000D01*
X19750000Y23975000D02*
X19750000Y24300000D01*
X19750000Y24325000D02*
X19750000Y24300000D01*
X28000000Y6450000D02*
X28000000Y5925000D01*
X26225000Y8225000D02*
X28000000Y6450000D01*
G04 #@! TO.N,/BCLK*
X4330000Y43620000D02*
X4318000Y43620000D01*
X18175000Y39650000D02*
X17475000Y38950000D01*
X8250000Y39700000D02*
X4330000Y43620000D01*
X16100000Y39700000D02*
X8250000Y39700000D01*
X16850000Y38950000D02*
X16100000Y39700000D01*
X17475000Y38950000D02*
X16850000Y38950000D01*
G04 #@! TO.N,/MCLK*
X14770831Y40218399D02*
X16556601Y40218399D01*
X14764230Y40225000D02*
X14770831Y40218399D01*
X8925000Y40225000D02*
X14764230Y40225000D01*
X16556601Y40218399D02*
X16825001Y39949999D01*
X6200000Y42950000D02*
X8925000Y40225000D01*
X4340000Y46160000D02*
X6200000Y44300000D01*
X16825001Y39949999D02*
X17125000Y39650000D01*
X6200000Y44300000D02*
X6200000Y42950000D01*
X4318000Y46160000D02*
X4340000Y46160000D01*
G04 #@! TO.N,/BT_RTS*
X23475000Y7550000D02*
X25575000Y7550000D01*
X25575000Y7550000D02*
X27175000Y5950000D01*
X20700000Y24025000D02*
X20700000Y24300000D01*
G04 #@! TO.N,/BT_CTS*
X18500000Y3200000D02*
X18500000Y3375000D01*
X19100000Y2600000D02*
X18500000Y3200000D01*
X25125000Y2600000D02*
X19100000Y2600000D01*
G04 #@! TO.N,/WCLK*
X16032988Y39196798D02*
X6201202Y39196798D01*
X6201202Y39196798D02*
X4318000Y41080000D01*
X16704786Y38525000D02*
X16032988Y39196798D01*
X18025000Y38525000D02*
X16704786Y38525000D01*
X19075000Y39575000D02*
X18025000Y38525000D01*
G04 #@! TO.N,/DIN*
X13725000Y33300000D02*
X16475000Y33300000D01*
X16475000Y33300000D02*
X18150000Y34975000D01*
G04 #@! TO.N,/SCL/SS*
X12700000Y28300000D02*
X12300000Y27900000D01*
X22779998Y42650000D02*
X23729999Y43600001D01*
X12275000Y42650000D02*
X22779998Y42650000D01*
X23729999Y43600001D02*
X24029998Y43900000D01*
G04 #@! TO.N,/SDA/MOSI*
X12725000Y27325000D02*
X13200000Y27800000D01*
X13200000Y27800000D02*
X13225000Y27800000D01*
X12250000Y43575000D02*
X22814300Y43575000D01*
X22814300Y43575000D02*
X23750001Y44510701D01*
X23750001Y44510701D02*
X24050000Y44810700D01*
G04 #@! TO.N,/DOUT*
X16725000Y31300000D02*
X17375000Y30650000D01*
X17375000Y30650000D02*
X18050000Y30650000D01*
X18050000Y30650000D02*
X18725000Y31325000D01*
D19*
G04 #@! TO.N,/IN1_L*
X22510001Y46240001D02*
X22810000Y46540000D01*
X9250000Y45150000D02*
X21420000Y45150000D01*
X21420000Y45150000D02*
X22510001Y46240001D01*
X7700000Y43600000D02*
X9250000Y45150000D01*
D18*
X23880000Y45470000D02*
X27830000Y45470000D01*
X27830000Y45470000D02*
X27940000Y45360000D01*
X22810000Y46540000D02*
X23880000Y45470000D01*
G04 #@! TO.N,/IN1_R*
X22860000Y47400000D02*
X22800000Y47340000D01*
X27280000Y47400000D02*
X22860000Y47400000D01*
D19*
X22375736Y47340000D02*
X22800000Y47340000D01*
X7700000Y46100000D02*
X8940000Y47340000D01*
X8940000Y47340000D02*
X22375736Y47340000D01*
G04 #@! TO.N,/LOL*
X17100000Y51550000D02*
X9400000Y51550000D01*
X9400000Y51550000D02*
X9350000Y51600000D01*
X17100000Y51550000D02*
X17075000Y51525000D01*
D18*
X9875000Y15125000D02*
X9350000Y15650000D01*
X21450000Y15125000D02*
X9875000Y15125000D01*
G04 #@! TO.N,/LOR*
X22375000Y14450000D02*
X8500000Y14450000D01*
X22900000Y14975000D02*
X22375000Y14450000D01*
X22900000Y15125000D02*
X22900000Y14975000D01*
D19*
X17250000Y50500000D02*
X16650000Y49900000D01*
X16650000Y49900000D02*
X8625000Y49900000D01*
X17250000Y50500000D02*
X17225000Y50525000D01*
D17*
G04 #@! TO.N,Net-(C1-Pad1)*
X18700000Y26350000D02*
X18700000Y26250000D01*
G04 #@! TO.N,Net-(C1-Pad2)*
X19050000Y28000000D02*
X21000000Y28000000D01*
X18750000Y28300000D02*
X19050000Y28000000D01*
D18*
G04 #@! TO.N,/USB0_D+*
X22725000Y26300000D02*
X22725000Y26175000D01*
X22725000Y26175000D02*
X22700000Y26150000D01*
X13550000Y15750000D02*
X20050000Y15750000D01*
X22300001Y18000001D02*
X22600000Y18300000D01*
X20050000Y15750000D02*
X22300001Y18000001D01*
G04 #@! TO.N,/DAT0*
X22700000Y30450000D02*
X23100000Y30450000D01*
X24200000Y30650000D02*
X24350000Y30500000D01*
X23300000Y30650000D02*
X24200000Y30650000D01*
X23100000Y30450000D02*
X23300000Y30650000D01*
G04 #@! TO.N,/DAT1*
X21550000Y30500000D02*
X22075000Y29975000D01*
X22075000Y29975000D02*
X23525000Y29975000D01*
G04 #@! TO.N,/DAT2*
X26425000Y31025000D02*
X26025000Y31025000D01*
X26025000Y31025000D02*
X24350000Y29350000D01*
X24350000Y29350000D02*
X22675000Y29350000D01*
G04 #@! TO.N,/DAT3*
X21725000Y29300000D02*
X22150000Y28875000D01*
X25620214Y29950000D02*
X26475000Y29950000D01*
X24545214Y28875000D02*
X25620214Y29950000D01*
X22150000Y28875000D02*
X24545214Y28875000D01*
G04 #@! TO.N,/CMD*
X20725000Y29325000D02*
X21578202Y28471798D01*
X25665428Y28875000D02*
X26450000Y28875000D01*
X25262226Y28471798D02*
X25665428Y28875000D01*
X21578202Y28471798D02*
X25262226Y28471798D01*
G04 #@! TO.N,/USB0_D-*
X21625000Y26200000D02*
X21625000Y26050000D01*
X21725000Y26300000D02*
X21625000Y26200000D01*
X12550000Y15750004D02*
X13149996Y16350000D01*
X19650008Y16350000D02*
X21400009Y18100001D01*
X13149996Y16350000D02*
X19650008Y16350000D01*
X21400009Y18100001D02*
X21700008Y18400000D01*
D17*
G04 #@! TO.N,Net-(IC1-PadH5)*
X18755382Y27300000D02*
X18700000Y27300000D01*
X18805382Y27250000D02*
X18755382Y27300000D01*
D18*
G04 #@! TO.N,/PTA0*
X11250000Y21875000D02*
X11250000Y21850000D01*
X13448660Y23879490D02*
X11444170Y21875000D01*
X15563371Y23879491D02*
X13448660Y23879490D01*
X18725000Y25325000D02*
X18200000Y24800000D01*
X18200000Y24800000D02*
X16483880Y24800000D01*
X16483880Y24800000D02*
X15563371Y23879491D01*
X11444170Y21875000D02*
X11250000Y21875000D01*
G04 #@! TO.N,/PTA1*
X17725000Y25325000D02*
X17200000Y25850000D01*
X16450000Y25850000D02*
X15250000Y24650000D01*
X12839611Y24650000D02*
X11307300Y23117689D01*
X17200000Y25850000D02*
X16450000Y25850000D01*
X15250000Y24650000D02*
X12839611Y24650000D01*
X11307300Y23117689D02*
X11157301Y22967690D01*
D19*
G04 #@! TO.N,/PTA2*
X17750000Y24350000D02*
X17700000Y24300000D01*
D18*
X11237132Y21400000D02*
X11025000Y21400000D01*
X11650000Y21400000D02*
X11237132Y21400000D01*
X15950000Y23400000D02*
X13650000Y23400000D01*
X13650000Y23400000D02*
X11650000Y21400000D01*
X16850000Y24300000D02*
X15950000Y23400000D01*
X17700000Y24300000D02*
X16850000Y24300000D01*
G04 #@! TO.N,/PTA3*
X16750000Y25325000D02*
X16725000Y25325000D01*
X13137700Y24262700D02*
X11399999Y22524999D01*
X15404638Y24262700D02*
X13137700Y24262700D01*
X16750000Y25325000D02*
X16466938Y25325000D01*
X16466938Y25325000D02*
X15404638Y24262700D01*
X11399999Y22524999D02*
X11250000Y22375000D01*
G04 #@! TO.N,/RESET_B*
X9550000Y24125000D02*
X11250000Y24125000D01*
X7675000Y22250000D02*
X9550000Y24125000D01*
X6325000Y22250000D02*
X7675000Y22250000D01*
G04 #@! TO.N,/PROG*
X9424264Y16800004D02*
X9000000Y16800004D01*
X27850001Y20749999D02*
X22749999Y20749999D01*
X28150000Y20450000D02*
X27850001Y20749999D01*
X18800004Y16800004D02*
X9424264Y16800004D01*
X22749999Y20749999D02*
X18800004Y16800004D01*
D17*
G04 #@! TO.N,Net-(C21-Pad1)*
X21600000Y10450000D02*
X26600000Y10450000D01*
X20100000Y11950000D02*
X21600000Y10450000D01*
X14600000Y11950000D02*
X20100000Y11950000D01*
D18*
G04 #@! TO.N,/VREGEN*
X8900000Y10600000D02*
X8700000Y10400000D01*
X18550000Y10600000D02*
X8900000Y10600000D01*
D19*
G04 #@! TO.N,Net-(R16-Pad2)*
X20975736Y52300000D02*
X21400000Y52300000D01*
X16525000Y52300000D02*
X20975736Y52300000D01*
X15900000Y52925000D02*
X16525000Y52300000D01*
D18*
G04 #@! TO.N,/SS_2*
X26910430Y36550435D02*
X26486166Y36550435D01*
X33024565Y36550435D02*
X26910430Y36550435D01*
X33500000Y36075000D02*
X33024565Y36550435D01*
G04 #@! TO.N,/SCK_2*
X25625000Y33475000D02*
X32625000Y33475000D01*
X32625000Y33475000D02*
X33499998Y34349998D01*
X33499998Y34349998D02*
X34425736Y34349998D01*
X34425736Y34349998D02*
X34850000Y34349998D01*
G04 #@! TO.N,/MISO_2*
X23075000Y31675000D02*
X30650000Y31675000D01*
X22725000Y31325000D02*
X23075000Y31675000D01*
G04 #@! TO.N,/MOSI_2*
X21725000Y31325000D02*
X22700000Y32300000D01*
X22700000Y32300000D02*
X29950000Y32300000D01*
G04 #@! TO.N,Net-(C12-Pad2)*
X18350000Y60800000D02*
X11100000Y60800000D01*
X11100000Y60800000D02*
X6700000Y60800000D01*
X20150000Y59000000D02*
X18350000Y60800000D01*
G04 #@! TO.N,/nRESET_1*
X8800001Y25200001D02*
X3549999Y25200001D01*
X9875000Y26275000D02*
X8800001Y25200001D01*
X3549999Y25200001D02*
X3250000Y25500000D01*
X12750000Y26275000D02*
X9875000Y26275000D01*
G04 #@! TO.N,/DIN_1*
X11424999Y41999999D02*
X31824999Y41999999D01*
X11125000Y41700000D02*
X11424999Y41999999D01*
X31824999Y41999999D02*
X32175000Y42350000D01*
X34830000Y42350000D02*
X36200000Y43720000D01*
X32175000Y42350000D02*
X34830000Y42350000D01*
G04 #@! TO.N,/DOUT_1*
X17750000Y33325000D02*
X20327058Y35902058D01*
X28175734Y35902058D02*
X28599998Y35902058D01*
X20327058Y35902058D02*
X28175734Y35902058D01*
X34865000Y44925000D02*
X36200000Y46260000D01*
X28775000Y44925000D02*
X34865000Y44925000D01*
G04 #@! TO.N,/SDA2*
X14750000Y26300000D02*
X14225000Y26825000D01*
X22124264Y37000000D02*
X21700000Y37000000D01*
X23725000Y37000000D02*
X22124264Y37000000D01*
X26525000Y39800000D02*
X23725000Y37000000D01*
X34820000Y39800000D02*
X26525000Y39800000D01*
X36200000Y41180000D02*
X34820000Y39800000D01*
G04 #@! TO.N,/SCL2*
X20650002Y35250002D02*
X28800736Y35250002D01*
X28800736Y35250002D02*
X29225000Y35250002D01*
X14750000Y25350000D02*
X15225000Y25825000D01*
X14750000Y25275000D02*
X14750000Y25350000D01*
G04 #@! TO.N,/M_BIAS_1*
X13700000Y26350000D02*
X13343399Y26706601D01*
X13343399Y26706601D02*
X8993399Y26706601D01*
X8993399Y26706601D02*
X8050000Y27650000D01*
X8050000Y27650000D02*
X2124264Y27650000D01*
X2124264Y27650000D02*
X1700000Y27650000D01*
G04 #@! TO.N,/PDM_CLK*
X33384600Y46051600D02*
X33500000Y46167000D01*
X24630000Y46051600D02*
X33384600Y46051600D01*
G04 #@! TO.N,/PDM_DAT*
X24230000Y46770000D02*
X29760000Y46770000D01*
X31697000Y48707000D02*
X33500000Y48707000D01*
X29760000Y46770000D02*
X31697000Y48707000D01*
G04 #@! TD*
D20*
G04 #@! TO.N,GND*
G36*
X23025214Y50625765D02*
X19850763Y50649997D01*
X19812438Y50642677D01*
X19779831Y50621248D01*
X19757907Y50588972D01*
X19750013Y50548413D01*
X19753981Y50298413D01*
X19762199Y50260270D01*
X19784388Y50228176D01*
X19817171Y50207016D01*
X19853968Y50200000D01*
X23290625Y50200000D01*
X23328893Y50207612D01*
X23361336Y50229289D01*
X23383013Y50261732D01*
X23390623Y50299298D01*
X23406385Y52544347D01*
X25025000Y52544347D01*
X25025000Y52305653D01*
X25116344Y52085127D01*
X25285127Y51916344D01*
X25505653Y51825000D01*
X25744347Y51825000D01*
X25964873Y51916344D01*
X26133656Y52085127D01*
X26225000Y52305653D01*
X26225000Y52544347D01*
X26133656Y52764873D01*
X25964873Y52933656D01*
X25744347Y53025000D01*
X25505653Y53025000D01*
X25285127Y52933656D01*
X25116344Y52764873D01*
X25025000Y52544347D01*
X23406385Y52544347D01*
X23549301Y72900000D01*
X26699644Y72900000D01*
X26650001Y58950356D01*
X26650000Y58950000D01*
X26650000Y51540838D01*
X25429522Y50295786D01*
X25419349Y50300000D01*
X25180655Y50300000D01*
X24960129Y50208656D01*
X24791346Y50039873D01*
X24700002Y49819347D01*
X24700002Y49580653D01*
X24708468Y49560215D01*
X23062220Y47880821D01*
X22919347Y47940000D01*
X22680653Y47940000D01*
X22460127Y47848656D01*
X22411471Y47800000D01*
X21273529Y47800000D01*
X21358656Y47885127D01*
X21450000Y48105653D01*
X21450000Y48344347D01*
X21358656Y48564873D01*
X21189873Y48733656D01*
X20969347Y48825000D01*
X20730653Y48825000D01*
X20510127Y48733656D01*
X20341344Y48564873D01*
X20250000Y48344347D01*
X20250000Y48105653D01*
X20341344Y47885127D01*
X20426471Y47800000D01*
X19975000Y47800000D01*
X19936732Y47792388D01*
X19904289Y47770711D01*
X19882612Y47738268D01*
X19880749Y47728900D01*
X15359830Y47728900D01*
X15389873Y47741344D01*
X15558656Y47910127D01*
X15650000Y48130653D01*
X15650000Y48369347D01*
X15558656Y48589873D01*
X15389873Y48758656D01*
X15169347Y48850000D01*
X14930653Y48850000D01*
X14710127Y48758656D01*
X14541344Y48589873D01*
X14450000Y48369347D01*
X14450000Y48130653D01*
X14541344Y47910127D01*
X14710127Y47741344D01*
X14740170Y47728900D01*
X8978298Y47728900D01*
X8940000Y47736518D01*
X8901701Y47728900D01*
X8901696Y47728900D01*
X8788259Y47706336D01*
X8659619Y47620381D01*
X8637921Y47587908D01*
X7750014Y46700000D01*
X7580653Y46700000D01*
X7360127Y46608656D01*
X7191344Y46439873D01*
X7100000Y46219347D01*
X7100000Y45980653D01*
X7191344Y45760127D01*
X7360127Y45591344D01*
X7580653Y45500000D01*
X7819347Y45500000D01*
X8039873Y45591344D01*
X8208656Y45760127D01*
X8300000Y45980653D01*
X8300000Y46150014D01*
X9101087Y46951100D01*
X9702571Y46951100D01*
X9591344Y46839873D01*
X9500000Y46619347D01*
X9500000Y46380653D01*
X9591344Y46160127D01*
X9760127Y45991344D01*
X9980653Y45900000D01*
X10219347Y45900000D01*
X10439873Y45991344D01*
X10608656Y46160127D01*
X10700000Y46380653D01*
X10700000Y46619347D01*
X10608656Y46839873D01*
X10497429Y46951100D01*
X13729573Y46951100D01*
X13675000Y46819347D01*
X13675000Y46580653D01*
X13766344Y46360127D01*
X13935127Y46191344D01*
X14155653Y46100000D01*
X14394347Y46100000D01*
X14614873Y46191344D01*
X14783656Y46360127D01*
X14875000Y46580653D01*
X14875000Y46819347D01*
X14820427Y46951100D01*
X22340371Y46951100D01*
X22356471Y46935000D01*
X22301344Y46879873D01*
X22210000Y46659347D01*
X22210000Y46489987D01*
X21258914Y45538900D01*
X9288298Y45538900D01*
X9249999Y45546518D01*
X9211701Y45538900D01*
X9211696Y45538900D01*
X9098259Y45516336D01*
X8969619Y45430381D01*
X8947921Y45397908D01*
X7750014Y44200000D01*
X7580653Y44200000D01*
X7360127Y44108656D01*
X7191344Y43939873D01*
X7100000Y43719347D01*
X7100000Y43480653D01*
X7191344Y43260127D01*
X7360127Y43091344D01*
X7580653Y43000000D01*
X7819347Y43000000D01*
X8039873Y43091344D01*
X8208656Y43260127D01*
X8300000Y43480653D01*
X8300000Y43650014D01*
X9411087Y44761100D01*
X21381702Y44761100D01*
X21420000Y44753482D01*
X21458298Y44761100D01*
X21458304Y44761100D01*
X21571741Y44783664D01*
X21700381Y44869619D01*
X21722081Y44902095D01*
X22759987Y45940000D01*
X22842052Y45940000D01*
X23568059Y45213993D01*
X23582761Y45191990D01*
X23541344Y45150573D01*
X23450000Y44930047D01*
X23450000Y44778649D01*
X22647952Y43976600D01*
X12696929Y43976600D01*
X12589873Y44083656D01*
X12369347Y44175000D01*
X12130653Y44175000D01*
X11910127Y44083656D01*
X11741344Y43914873D01*
X11650000Y43694347D01*
X11650000Y43455653D01*
X11741344Y43235127D01*
X11876471Y43100000D01*
X11766344Y42989873D01*
X11675000Y42769347D01*
X11675000Y42530653D01*
X11728455Y42401599D01*
X11464549Y42401599D01*
X11424999Y42409466D01*
X11268302Y42378297D01*
X11208084Y42338060D01*
X11151123Y42300000D01*
X11005653Y42300000D01*
X10785127Y42208656D01*
X10616344Y42039873D01*
X10525000Y41819347D01*
X10525000Y41580653D01*
X10616344Y41360127D01*
X10785127Y41191344D01*
X11005653Y41100000D01*
X11244347Y41100000D01*
X11464873Y41191344D01*
X11633656Y41360127D01*
X11725000Y41580653D01*
X11725000Y41598399D01*
X22565123Y41598399D01*
X22540000Y41537746D01*
X22540000Y41299052D01*
X22631344Y41078526D01*
X22800127Y40909743D01*
X23020653Y40818399D01*
X23259347Y40818399D01*
X23479873Y40909743D01*
X23648656Y41078526D01*
X23740000Y41299052D01*
X23740000Y41537746D01*
X23714877Y41598399D01*
X29549870Y41598399D01*
X29441344Y41489873D01*
X29350000Y41269347D01*
X29350000Y41030653D01*
X29441344Y40810127D01*
X29610127Y40641344D01*
X29830653Y40550000D01*
X30069347Y40550000D01*
X30289873Y40641344D01*
X30458656Y40810127D01*
X30550000Y41030653D01*
X30550000Y41269347D01*
X30458656Y41489873D01*
X30350130Y41598399D01*
X31785450Y41598399D01*
X31824999Y41590532D01*
X31864548Y41598399D01*
X31864549Y41598399D01*
X31981695Y41621701D01*
X32114536Y41710462D01*
X32136939Y41743991D01*
X32341349Y41948400D01*
X32719233Y41948400D01*
X32670897Y41916103D01*
X32416724Y41535707D01*
X32327471Y41087000D01*
X32416724Y40638293D01*
X32670897Y40257897D01*
X32755151Y40201600D01*
X26564549Y40201600D01*
X26525000Y40209467D01*
X26485451Y40201600D01*
X26485450Y40201600D01*
X26368304Y40178298D01*
X26235463Y40089537D01*
X26213060Y40056008D01*
X23558652Y37401600D01*
X22146929Y37401600D01*
X22039873Y37508656D01*
X21819347Y37600000D01*
X21580653Y37600000D01*
X21360127Y37508656D01*
X21191344Y37339873D01*
X21100000Y37119347D01*
X21100000Y36880653D01*
X21191344Y36660127D01*
X21360127Y36491344D01*
X21580653Y36400000D01*
X21819347Y36400000D01*
X22039873Y36491344D01*
X22146929Y36598400D01*
X23685451Y36598400D01*
X23725000Y36590533D01*
X23764549Y36598400D01*
X23764550Y36598400D01*
X23881696Y36621702D01*
X24014537Y36710463D01*
X24036941Y36743993D01*
X24750000Y37457052D01*
X24750000Y37380653D01*
X24841344Y37160127D01*
X25010127Y36991344D01*
X25230653Y36900000D01*
X25469347Y36900000D01*
X25689873Y36991344D01*
X25858656Y37160127D01*
X25950000Y37380653D01*
X25950000Y37619347D01*
X25858656Y37839873D01*
X25689873Y38008656D01*
X25469347Y38100000D01*
X25392948Y38100000D01*
X26691348Y39398400D01*
X32704267Y39398400D01*
X32670897Y39376103D01*
X32416724Y38995707D01*
X32327471Y38547000D01*
X32416724Y38098293D01*
X32670897Y37717897D01*
X33051293Y37463724D01*
X33386739Y37397000D01*
X33613261Y37397000D01*
X33948707Y37463724D01*
X34329103Y37717897D01*
X34583276Y38098293D01*
X34671136Y38540000D01*
X35027471Y38540000D01*
X35116724Y38091293D01*
X35370897Y37710897D01*
X35751293Y37456724D01*
X36086739Y37390000D01*
X36313261Y37390000D01*
X36648707Y37456724D01*
X37029103Y37710897D01*
X37283276Y38091293D01*
X37372529Y38540000D01*
X37283276Y38988707D01*
X37029103Y39369103D01*
X36648707Y39623276D01*
X36313261Y39690000D01*
X36086739Y39690000D01*
X35751293Y39623276D01*
X35370897Y39369103D01*
X35116724Y38988707D01*
X35027471Y38540000D01*
X34671136Y38540000D01*
X34672529Y38547000D01*
X34583276Y38995707D01*
X34329103Y39376103D01*
X34295733Y39398400D01*
X34780451Y39398400D01*
X34820000Y39390533D01*
X34859549Y39398400D01*
X34859550Y39398400D01*
X34976696Y39421702D01*
X35109537Y39510463D01*
X35131941Y39543993D01*
X35651411Y40063463D01*
X35751293Y39996724D01*
X36086739Y39930000D01*
X36313261Y39930000D01*
X36648707Y39996724D01*
X37029103Y40250897D01*
X37283276Y40631293D01*
X37372529Y41080000D01*
X37283276Y41528707D01*
X37029103Y41909103D01*
X36648707Y42163276D01*
X36313261Y42230000D01*
X36086739Y42230000D01*
X35751293Y42163276D01*
X35370897Y41909103D01*
X35116724Y41528707D01*
X35027471Y41080000D01*
X35111186Y40659134D01*
X34653652Y40201600D01*
X34244849Y40201600D01*
X34329103Y40257897D01*
X34583276Y40638293D01*
X34672529Y41087000D01*
X34583276Y41535707D01*
X34329103Y41916103D01*
X34280767Y41948400D01*
X34790451Y41948400D01*
X34830000Y41940533D01*
X34869549Y41948400D01*
X34869550Y41948400D01*
X34986696Y41971702D01*
X35119537Y42060463D01*
X35141941Y42093993D01*
X35651411Y42603463D01*
X35751293Y42536724D01*
X36086739Y42470000D01*
X36313261Y42470000D01*
X36648707Y42536724D01*
X37029103Y42790897D01*
X37283276Y43171293D01*
X37372529Y43620000D01*
X37283276Y44068707D01*
X37029103Y44449103D01*
X36648707Y44703276D01*
X36313261Y44770000D01*
X36086739Y44770000D01*
X35751293Y44703276D01*
X35370897Y44449103D01*
X35116724Y44068707D01*
X35027471Y43620000D01*
X35111186Y43199134D01*
X34663652Y42751600D01*
X34259815Y42751600D01*
X34329103Y42797897D01*
X34583276Y43178293D01*
X34672529Y43627000D01*
X34583276Y44075707D01*
X34329103Y44456103D01*
X34228386Y44523400D01*
X34825451Y44523400D01*
X34865000Y44515533D01*
X34904549Y44523400D01*
X34904550Y44523400D01*
X35021696Y44546702D01*
X35154537Y44635463D01*
X35176941Y44668993D01*
X35651411Y45143463D01*
X35751293Y45076724D01*
X36086739Y45010000D01*
X36313261Y45010000D01*
X36648707Y45076724D01*
X37029103Y45330897D01*
X37283276Y45711293D01*
X37372529Y46160000D01*
X37283276Y46608707D01*
X37029103Y46989103D01*
X36648707Y47243276D01*
X36313261Y47310000D01*
X36086739Y47310000D01*
X35751293Y47243276D01*
X35370897Y46989103D01*
X35116724Y46608707D01*
X35027471Y46160000D01*
X35111186Y45739134D01*
X34698652Y45326600D01*
X34312196Y45326600D01*
X34329103Y45337897D01*
X34583276Y45718293D01*
X34672529Y46167000D01*
X34583276Y46615707D01*
X34329103Y46996103D01*
X33948707Y47250276D01*
X33613261Y47317000D01*
X33386739Y47317000D01*
X33051293Y47250276D01*
X32670897Y46996103D01*
X32416724Y46615707D01*
X32384399Y46453200D01*
X30008735Y46453200D01*
X30049537Y46480463D01*
X30071941Y46513993D01*
X31863348Y48305400D01*
X32344123Y48305400D01*
X32344123Y47857000D01*
X32367407Y47739946D01*
X32433712Y47640712D01*
X32532946Y47574407D01*
X32650000Y47551123D01*
X34350000Y47551123D01*
X34467054Y47574407D01*
X34566288Y47640712D01*
X34632593Y47739946D01*
X34655877Y47857000D01*
X34655877Y49550000D01*
X35044123Y49550000D01*
X35044123Y47850000D01*
X35067407Y47732946D01*
X35133712Y47633712D01*
X35232946Y47567407D01*
X35350000Y47544123D01*
X37050000Y47544123D01*
X37167054Y47567407D01*
X37266288Y47633712D01*
X37332593Y47732946D01*
X37355877Y47850000D01*
X37355877Y49550000D01*
X37332593Y49667054D01*
X37266288Y49766288D01*
X37167054Y49832593D01*
X37050000Y49855877D01*
X35350000Y49855877D01*
X35232946Y49832593D01*
X35133712Y49766288D01*
X35067407Y49667054D01*
X35044123Y49550000D01*
X34655877Y49550000D01*
X34655877Y49557000D01*
X34632593Y49674054D01*
X34566288Y49773288D01*
X34467054Y49839593D01*
X34350000Y49862877D01*
X32650000Y49862877D01*
X32532946Y49839593D01*
X32433712Y49773288D01*
X32367407Y49674054D01*
X32344123Y49557000D01*
X32344123Y49108600D01*
X31736550Y49108600D01*
X31697000Y49116467D01*
X31540303Y49085298D01*
X31466480Y49035971D01*
X31407463Y48996537D01*
X31385059Y48963007D01*
X29593652Y47171600D01*
X27834829Y47171600D01*
X27880000Y47280653D01*
X27880000Y47519347D01*
X27801692Y47708400D01*
X28033071Y47708400D01*
X28150127Y47591344D01*
X28370653Y47500000D01*
X28609347Y47500000D01*
X28829873Y47591344D01*
X28998656Y47760127D01*
X29090000Y47980653D01*
X29090000Y48219347D01*
X28998656Y48439873D01*
X28829873Y48608656D01*
X28609347Y48700000D01*
X28370653Y48700000D01*
X28150127Y48608656D01*
X28053071Y48511600D01*
X24996929Y48511600D01*
X24889873Y48618656D01*
X24669766Y48709826D01*
X25022394Y49081013D01*
X25080270Y49141581D01*
X25180655Y49100000D01*
X25419349Y49100000D01*
X25639875Y49191344D01*
X25808658Y49360127D01*
X25900002Y49580653D01*
X25900002Y49819347D01*
X25847963Y49944981D01*
X27172299Y51330914D01*
X27193234Y51363841D01*
X27200000Y51400000D01*
X27200000Y51819347D01*
X36000000Y51819347D01*
X36000000Y51580653D01*
X36091344Y51360127D01*
X36260127Y51191344D01*
X36480653Y51100000D01*
X36719347Y51100000D01*
X36939873Y51191344D01*
X37108656Y51360127D01*
X37200000Y51580653D01*
X37200000Y51819347D01*
X37108656Y52039873D01*
X36939873Y52208656D01*
X36719347Y52300000D01*
X36480653Y52300000D01*
X36260127Y52208656D01*
X36091344Y52039873D01*
X36000000Y51819347D01*
X27200000Y51819347D01*
X27200000Y54444347D01*
X27875000Y54444347D01*
X27875000Y54205653D01*
X27966344Y53985127D01*
X28135127Y53816344D01*
X28355653Y53725000D01*
X28594347Y53725000D01*
X28814873Y53816344D01*
X28896929Y53898400D01*
X33003071Y53898400D01*
X33110127Y53791344D01*
X33330653Y53700000D01*
X33569347Y53700000D01*
X33789873Y53791344D01*
X33958656Y53960127D01*
X34050000Y54180653D01*
X34050000Y54219347D01*
X35900000Y54219347D01*
X35900000Y53980653D01*
X35991344Y53760127D01*
X36160127Y53591344D01*
X36380653Y53500000D01*
X36619347Y53500000D01*
X36839873Y53591344D01*
X37008656Y53760127D01*
X37100000Y53980653D01*
X37100000Y54219347D01*
X37008656Y54439873D01*
X36839873Y54608656D01*
X36619347Y54700000D01*
X36380653Y54700000D01*
X36160127Y54608656D01*
X35991344Y54439873D01*
X35900000Y54219347D01*
X34050000Y54219347D01*
X34050000Y54419347D01*
X33958656Y54639873D01*
X33789873Y54808656D01*
X33569347Y54900000D01*
X33330653Y54900000D01*
X33110127Y54808656D01*
X33003071Y54701600D01*
X28946929Y54701600D01*
X28814873Y54833656D01*
X28594347Y54925000D01*
X28355653Y54925000D01*
X28135127Y54833656D01*
X27966344Y54664873D01*
X27875000Y54444347D01*
X27200000Y54444347D01*
X27200000Y55639239D01*
X34300000Y55639239D01*
X34300000Y55360761D01*
X34406568Y55103482D01*
X34603482Y54906568D01*
X34860761Y54800000D01*
X35139239Y54800000D01*
X35396518Y54906568D01*
X35593432Y55103482D01*
X35700000Y55360761D01*
X35700000Y55639239D01*
X35593432Y55896518D01*
X35396518Y56093432D01*
X35139239Y56200000D01*
X34860761Y56200000D01*
X34603482Y56093432D01*
X34406568Y55896518D01*
X34300000Y55639239D01*
X27200000Y55639239D01*
X27200000Y63828749D01*
X28250000Y63828749D01*
X28250000Y63371251D01*
X28425077Y62948577D01*
X28748577Y62625077D01*
X29171251Y62450000D01*
X29628749Y62450000D01*
X30051423Y62625077D01*
X30374923Y62948577D01*
X30550000Y63371251D01*
X30550000Y63828749D01*
X30374923Y64251423D01*
X30051423Y64574923D01*
X29628749Y64750000D01*
X29171251Y64750000D01*
X28748577Y64574923D01*
X28425077Y64251423D01*
X28250000Y63828749D01*
X27200000Y63828749D01*
X27200000Y66608042D01*
X33950000Y66608042D01*
X33950000Y65891958D01*
X34224034Y65230382D01*
X34730382Y64724034D01*
X35391958Y64450000D01*
X36108042Y64450000D01*
X36769618Y64724034D01*
X37275966Y65230382D01*
X37550000Y65891958D01*
X37550000Y66608042D01*
X37275966Y67269618D01*
X36769618Y67775966D01*
X36108042Y68050000D01*
X35391958Y68050000D01*
X34730382Y67775966D01*
X34224034Y67269618D01*
X33950000Y66608042D01*
X27200000Y66608042D01*
X27200000Y70828749D01*
X28250000Y70828749D01*
X28250000Y70371251D01*
X28425077Y69948577D01*
X28748577Y69625077D01*
X29171251Y69450000D01*
X29628749Y69450000D01*
X30051423Y69625077D01*
X30374923Y69948577D01*
X30550000Y70371251D01*
X30550000Y70828749D01*
X30374923Y71251423D01*
X30051423Y71574923D01*
X29628749Y71750000D01*
X29171251Y71750000D01*
X28748577Y71574923D01*
X28425077Y71251423D01*
X28250000Y70828749D01*
X27200000Y70828749D01*
X27200000Y71769347D01*
X33000000Y71769347D01*
X33000000Y71530653D01*
X33091344Y71310127D01*
X33260127Y71141344D01*
X33480653Y71050000D01*
X33719347Y71050000D01*
X33939873Y71141344D01*
X34108656Y71310127D01*
X34200000Y71530653D01*
X34200000Y71769347D01*
X34108656Y71989873D01*
X33939873Y72158656D01*
X33719347Y72250000D01*
X33480653Y72250000D01*
X33260127Y72158656D01*
X33091344Y71989873D01*
X33000000Y71769347D01*
X27200000Y71769347D01*
X27200000Y73625000D01*
X36963063Y73625000D01*
X37236367Y73570637D01*
X37436747Y73436747D01*
X37570637Y73236368D01*
X37625001Y72963059D01*
X37625000Y12700000D01*
X34000000Y12700000D01*
X33961732Y12692388D01*
X33929289Y12670711D01*
X33907612Y12638268D01*
X33900000Y12600000D01*
X33900000Y375000D01*
X24423529Y375000D01*
X24508656Y460127D01*
X24600000Y680653D01*
X24600000Y919347D01*
X24508656Y1139873D01*
X24339873Y1308656D01*
X24119347Y1400000D01*
X23880653Y1400000D01*
X23800000Y1366593D01*
X23800000Y1569347D01*
X23708656Y1789873D01*
X23539873Y1958656D01*
X23319347Y2050000D01*
X23080653Y2050000D01*
X22860127Y1958656D01*
X22691344Y1789873D01*
X22600000Y1569347D01*
X22600000Y1330653D01*
X22691344Y1110127D01*
X22860127Y941344D01*
X23080653Y850000D01*
X23319347Y850000D01*
X23400000Y883407D01*
X23400000Y680653D01*
X23491344Y460127D01*
X23576471Y375000D01*
X1036936Y375000D01*
X763632Y429363D01*
X563253Y563253D01*
X429363Y763633D01*
X375000Y1036937D01*
X375000Y2608042D01*
X950000Y2608042D01*
X950000Y1891958D01*
X1224034Y1230382D01*
X1730382Y724034D01*
X2391958Y450000D01*
X3108042Y450000D01*
X3769618Y724034D01*
X4275966Y1230382D01*
X4346224Y1400000D01*
X8930409Y1400000D01*
X9008021Y1009819D01*
X9229040Y679040D01*
X9559819Y458021D01*
X9851510Y400000D01*
X10048490Y400000D01*
X10340181Y458021D01*
X10670960Y679040D01*
X10891979Y1009819D01*
X10969591Y1400000D01*
X15530409Y1400000D01*
X15608021Y1009819D01*
X15829040Y679040D01*
X16159819Y458021D01*
X16451510Y400000D01*
X16648490Y400000D01*
X16940181Y458021D01*
X17270960Y679040D01*
X17491979Y1009819D01*
X17569591Y1400000D01*
X17535906Y1569347D01*
X17950000Y1569347D01*
X17950000Y1330653D01*
X18041344Y1110127D01*
X18210127Y941344D01*
X18430653Y850000D01*
X18669347Y850000D01*
X18889873Y941344D01*
X19058656Y1110127D01*
X19150000Y1330653D01*
X19150000Y1569347D01*
X19058656Y1789873D01*
X18889873Y1958656D01*
X18669347Y2050000D01*
X18430653Y2050000D01*
X18210127Y1958656D01*
X18041344Y1789873D01*
X17950000Y1569347D01*
X17535906Y1569347D01*
X17491979Y1790181D01*
X17270960Y2120960D01*
X16940181Y2341979D01*
X16648490Y2400000D01*
X16451510Y2400000D01*
X16159819Y2341979D01*
X15829040Y2120960D01*
X15608021Y1790181D01*
X15530409Y1400000D01*
X10969591Y1400000D01*
X10891979Y1790181D01*
X10670960Y2120960D01*
X10340181Y2341979D01*
X10048490Y2400000D01*
X9851510Y2400000D01*
X9559819Y2341979D01*
X9229040Y2120960D01*
X9008021Y1790181D01*
X8930409Y1400000D01*
X4346224Y1400000D01*
X4550000Y1891958D01*
X4550000Y2608042D01*
X4275966Y3269618D01*
X3769618Y3775966D01*
X3108042Y4050000D01*
X2391958Y4050000D01*
X1730382Y3775966D01*
X1224034Y3269618D01*
X950000Y2608042D01*
X375000Y2608042D01*
X375000Y4449347D01*
X5800000Y4449347D01*
X5800000Y4210653D01*
X5891344Y3990127D01*
X6060127Y3821344D01*
X6280653Y3730000D01*
X6519347Y3730000D01*
X6739873Y3821344D01*
X6908656Y3990127D01*
X7000000Y4210653D01*
X7000000Y4449347D01*
X6908656Y4669873D01*
X6739873Y4838656D01*
X6519347Y4930000D01*
X6280653Y4930000D01*
X6060127Y4838656D01*
X5891344Y4669873D01*
X5800000Y4449347D01*
X375000Y4449347D01*
X375000Y7259347D01*
X7600000Y7259347D01*
X7600000Y7020653D01*
X7691344Y6800127D01*
X7798400Y6693071D01*
X7798400Y6676187D01*
X7798401Y6676182D01*
X7798400Y5379549D01*
X7790533Y5340000D01*
X7798400Y5300451D01*
X7821702Y5183305D01*
X7910463Y5050463D01*
X7943993Y5028059D01*
X8653059Y4318993D01*
X8675463Y4285463D01*
X8808304Y4196702D01*
X8925450Y4173400D01*
X8925454Y4173400D01*
X8964999Y4165534D01*
X9004544Y4173400D01*
X19024871Y4173400D01*
X18891344Y4039873D01*
X18828576Y3888335D01*
X18619347Y3975000D01*
X18380653Y3975000D01*
X18160127Y3883656D01*
X17991344Y3714873D01*
X17900000Y3494347D01*
X17900000Y3255653D01*
X17991344Y3035127D01*
X18160127Y2866344D01*
X18340363Y2791688D01*
X18788061Y2343990D01*
X18810463Y2310463D01*
X18843990Y2288061D01*
X18843991Y2288060D01*
X18900467Y2250325D01*
X18943304Y2221702D01*
X19060450Y2198400D01*
X19099999Y2190533D01*
X19139548Y2198400D01*
X24678071Y2198400D01*
X24785127Y2091344D01*
X25005653Y2000000D01*
X25244347Y2000000D01*
X25248819Y2001852D01*
X25225000Y1944347D01*
X25225000Y1705653D01*
X25316344Y1485127D01*
X25485127Y1316344D01*
X25705653Y1225000D01*
X25944347Y1225000D01*
X26164873Y1316344D01*
X26333656Y1485127D01*
X26425000Y1705653D01*
X26425000Y1944347D01*
X26333656Y2164873D01*
X26226600Y2271929D01*
X26226600Y2799871D01*
X26335127Y2691344D01*
X26555653Y2600000D01*
X26794347Y2600000D01*
X26813762Y2608042D01*
X29950000Y2608042D01*
X29950000Y1891958D01*
X30224034Y1230382D01*
X30730382Y724034D01*
X31391958Y450000D01*
X32108042Y450000D01*
X32769618Y724034D01*
X33275966Y1230382D01*
X33550000Y1891958D01*
X33550000Y2608042D01*
X33275966Y3269618D01*
X32769618Y3775966D01*
X32108042Y4050000D01*
X31391958Y4050000D01*
X30730382Y3775966D01*
X30224034Y3269618D01*
X29950000Y2608042D01*
X26813762Y2608042D01*
X27014873Y2691344D01*
X27183656Y2860127D01*
X27275000Y3080653D01*
X27275000Y3319347D01*
X27183656Y3539873D01*
X27026044Y3697485D01*
X26986940Y3756008D01*
X26964537Y3789537D01*
X26931007Y3811941D01*
X24286941Y6456007D01*
X24264537Y6489537D01*
X24131696Y6578298D01*
X24014550Y6601600D01*
X24014549Y6601600D01*
X23975000Y6609467D01*
X23935451Y6601600D01*
X22946545Y6601600D01*
X23000000Y6730653D01*
X23000000Y6969347D01*
X22908656Y7189873D01*
X22739873Y7358656D01*
X22519347Y7450000D01*
X22280653Y7450000D01*
X22060127Y7358656D01*
X21891344Y7189873D01*
X21800000Y6969347D01*
X21800000Y6730653D01*
X21853455Y6601600D01*
X9789550Y6601600D01*
X9750000Y6609467D01*
X9710450Y6601600D01*
X9593304Y6578298D01*
X9460463Y6489537D01*
X9438059Y6456007D01*
X9007052Y6025000D01*
X8855653Y6025000D01*
X8635127Y5933656D01*
X8601600Y5900129D01*
X8601600Y6693071D01*
X8708656Y6800127D01*
X8800000Y7020653D01*
X8800000Y7259347D01*
X8708656Y7479873D01*
X8539873Y7648656D01*
X8319347Y7740000D01*
X8080653Y7740000D01*
X7860127Y7648656D01*
X7691344Y7479873D01*
X7600000Y7259347D01*
X375000Y7259347D01*
X375000Y8009347D01*
X6570000Y8009347D01*
X6570000Y7770653D01*
X6661344Y7550127D01*
X6830127Y7381344D01*
X7050653Y7290000D01*
X7289347Y7290000D01*
X7509873Y7381344D01*
X7678656Y7550127D01*
X7770000Y7770653D01*
X7770000Y8009347D01*
X7678656Y8229873D01*
X7509873Y8398656D01*
X7289347Y8490000D01*
X7050653Y8490000D01*
X6830127Y8398656D01*
X6661344Y8229873D01*
X6570000Y8009347D01*
X375000Y8009347D01*
X375000Y9019347D01*
X17600000Y9019347D01*
X17600000Y8780653D01*
X17691344Y8560127D01*
X17860127Y8391344D01*
X18080653Y8300000D01*
X18319347Y8300000D01*
X18426411Y8344347D01*
X22050000Y8344347D01*
X22050000Y8105653D01*
X22141344Y7885127D01*
X22310127Y7716344D01*
X22530653Y7625000D01*
X22769347Y7625000D01*
X22875000Y7668762D01*
X22875000Y7430653D01*
X22966344Y7210127D01*
X23135127Y7041344D01*
X23355653Y6950000D01*
X23594347Y6950000D01*
X23814873Y7041344D01*
X23921929Y7148400D01*
X25408652Y7148400D01*
X26575000Y5982052D01*
X26575000Y5830653D01*
X26666344Y5610127D01*
X26835127Y5441344D01*
X27055653Y5350000D01*
X27294347Y5350000D01*
X27514873Y5441344D01*
X27575000Y5501471D01*
X27660127Y5416344D01*
X27880653Y5325000D01*
X28119347Y5325000D01*
X28339873Y5416344D01*
X28508656Y5585127D01*
X28600000Y5805653D01*
X28600000Y6044347D01*
X28508656Y6264873D01*
X28401600Y6371929D01*
X28401600Y6410452D01*
X28409467Y6450001D01*
X28394548Y6525000D01*
X28378298Y6606696D01*
X28289537Y6739537D01*
X28256011Y6761938D01*
X26536941Y8481007D01*
X26514537Y8514537D01*
X26381696Y8603298D01*
X26264550Y8626600D01*
X26264549Y8626600D01*
X26225000Y8634467D01*
X26185451Y8626600D01*
X23096929Y8626600D01*
X22989873Y8733656D01*
X22769347Y8825000D01*
X22530653Y8825000D01*
X22310127Y8733656D01*
X22141344Y8564873D01*
X22050000Y8344347D01*
X18426411Y8344347D01*
X18539873Y8391344D01*
X18708656Y8560127D01*
X18800000Y8780653D01*
X18800000Y9019347D01*
X18708656Y9239873D01*
X18539873Y9408656D01*
X18319347Y9500000D01*
X18080653Y9500000D01*
X17860127Y9408656D01*
X17691344Y9239873D01*
X17600000Y9019347D01*
X375000Y9019347D01*
X375000Y10519347D01*
X8100000Y10519347D01*
X8100000Y10280653D01*
X8191344Y10060127D01*
X8360127Y9891344D01*
X8580653Y9800000D01*
X8819347Y9800000D01*
X9039873Y9891344D01*
X9208656Y10060127D01*
X9265930Y10198400D01*
X18103071Y10198400D01*
X18210127Y10091344D01*
X18430653Y10000000D01*
X18669347Y10000000D01*
X18889873Y10091344D01*
X19058656Y10260127D01*
X19150000Y10480653D01*
X19150000Y10719347D01*
X19058656Y10939873D01*
X18889873Y11108656D01*
X18669347Y11200000D01*
X18430653Y11200000D01*
X18210127Y11108656D01*
X18103071Y11001600D01*
X8939550Y11001600D01*
X8900000Y11009467D01*
X8830072Y10995557D01*
X8819347Y11000000D01*
X8580653Y11000000D01*
X8360127Y10908656D01*
X8191344Y10739873D01*
X8100000Y10519347D01*
X375000Y10519347D01*
X375000Y11769347D01*
X9700000Y11769347D01*
X9700000Y11530653D01*
X9791344Y11310127D01*
X9960127Y11141344D01*
X10180653Y11050000D01*
X10419347Y11050000D01*
X10639873Y11141344D01*
X10808656Y11310127D01*
X10900000Y11530653D01*
X10900000Y11769347D01*
X10808656Y11989873D01*
X10729182Y12069347D01*
X14000000Y12069347D01*
X14000000Y11830653D01*
X14091344Y11610127D01*
X14260127Y11441344D01*
X14480653Y11350000D01*
X14719347Y11350000D01*
X14939873Y11441344D01*
X14958029Y11459500D01*
X19896829Y11459500D01*
X21219006Y10137323D01*
X21246370Y10096370D01*
X21408617Y9987960D01*
X21551693Y9959500D01*
X21551697Y9959500D01*
X21599999Y9949892D01*
X21648301Y9959500D01*
X26241971Y9959500D01*
X26260127Y9941344D01*
X26480653Y9850000D01*
X26719347Y9850000D01*
X26939873Y9941344D01*
X27108656Y10110127D01*
X27200000Y10330653D01*
X27200000Y10569347D01*
X27108656Y10789873D01*
X26939873Y10958656D01*
X26719347Y11050000D01*
X26480653Y11050000D01*
X26260127Y10958656D01*
X26241971Y10940500D01*
X21803171Y10940500D01*
X20480994Y12262677D01*
X20453630Y12303630D01*
X20291383Y12412040D01*
X20148307Y12440500D01*
X20148302Y12440500D01*
X20100000Y12450108D01*
X20051698Y12440500D01*
X14958029Y12440500D01*
X14939873Y12458656D01*
X14719347Y12550000D01*
X14480653Y12550000D01*
X14260127Y12458656D01*
X14091344Y12289873D01*
X14000000Y12069347D01*
X10729182Y12069347D01*
X10639873Y12158656D01*
X10419347Y12250000D01*
X10180653Y12250000D01*
X9960127Y12158656D01*
X9791344Y11989873D01*
X9700000Y11769347D01*
X375000Y11769347D01*
X375000Y12501136D01*
X871916Y12501136D01*
X1056932Y12168723D01*
X1355074Y11932416D01*
X1501139Y11871934D01*
X1650000Y11912588D01*
X1650000Y12650000D01*
X1950000Y12650000D01*
X1950000Y11912588D01*
X2098861Y11871934D01*
X2244926Y11932416D01*
X2543068Y12168723D01*
X2728084Y12501136D01*
X2688410Y12650000D01*
X1950000Y12650000D01*
X1650000Y12650000D01*
X911590Y12650000D01*
X871916Y12501136D01*
X375000Y12501136D01*
X375000Y12800000D01*
X2805899Y12800000D01*
X2881570Y12419574D01*
X3097064Y12097064D01*
X3419574Y11881570D01*
X3703972Y11825000D01*
X3896028Y11825000D01*
X4180426Y11881570D01*
X4502936Y12097064D01*
X4718430Y12419574D01*
X4794101Y12800000D01*
X4718430Y13180426D01*
X4502936Y13502936D01*
X4180426Y13718430D01*
X3896028Y13775000D01*
X3703972Y13775000D01*
X3419574Y13718430D01*
X3097064Y13502936D01*
X2881570Y13180426D01*
X2805899Y12800000D01*
X375000Y12800000D01*
X375000Y13098864D01*
X871916Y13098864D01*
X911590Y12950000D01*
X1650000Y12950000D01*
X1650000Y13687412D01*
X1950000Y13687412D01*
X1950000Y12950000D01*
X2688410Y12950000D01*
X2728084Y13098864D01*
X2543068Y13431277D01*
X2244926Y13667584D01*
X2098861Y13728066D01*
X1950000Y13687412D01*
X1650000Y13687412D01*
X1501139Y13728066D01*
X1355074Y13667584D01*
X1056932Y13431277D01*
X871916Y13098864D01*
X375000Y13098864D01*
X375000Y17759347D01*
X2150000Y17759347D01*
X2150000Y17520653D01*
X2241344Y17300127D01*
X2410127Y17131344D01*
X2630653Y17040000D01*
X2869347Y17040000D01*
X3089873Y17131344D01*
X3108029Y17149500D01*
X3156829Y17149500D01*
X6537980Y13768349D01*
X6475000Y13780877D01*
X5125000Y13780877D01*
X5007946Y13757593D01*
X4908712Y13691288D01*
X4842407Y13592054D01*
X4819123Y13475000D01*
X4819123Y12125000D01*
X4842407Y12007946D01*
X4908712Y11908712D01*
X5007946Y11842407D01*
X5125000Y11819123D01*
X6475000Y11819123D01*
X6592054Y11842407D01*
X6691288Y11908712D01*
X6757593Y12007946D01*
X6780877Y12125000D01*
X6780877Y13475000D01*
X6768349Y13537980D01*
X6919006Y13387323D01*
X6946370Y13346370D01*
X7108617Y13237960D01*
X7251693Y13209500D01*
X7251697Y13209500D01*
X7299999Y13199892D01*
X7348301Y13209500D01*
X24560971Y13209500D01*
X24441344Y13089873D01*
X24350000Y12869347D01*
X24350000Y12630653D01*
X24441344Y12410127D01*
X24610127Y12241344D01*
X24830653Y12150000D01*
X25069347Y12150000D01*
X25289873Y12241344D01*
X25458656Y12410127D01*
X25550000Y12630653D01*
X25550000Y12869347D01*
X25458656Y13089873D01*
X25339029Y13209500D01*
X30851698Y13209500D01*
X30863280Y13207196D01*
X30880653Y13200000D01*
X30899457Y13200000D01*
X30900000Y13199892D01*
X30900543Y13200000D01*
X31119347Y13200000D01*
X31339873Y13291344D01*
X31508656Y13460127D01*
X31600000Y13680653D01*
X31600000Y13919347D01*
X31508656Y14139873D01*
X31339873Y14308656D01*
X31119347Y14400000D01*
X30880653Y14400000D01*
X30660127Y14308656D01*
X30541971Y14190500D01*
X22684607Y14190500D01*
X22686941Y14193992D01*
X23017949Y14525000D01*
X23019347Y14525000D01*
X23239873Y14616344D01*
X23408656Y14785127D01*
X23500000Y15005653D01*
X23500000Y15244347D01*
X23408656Y15464873D01*
X23239873Y15633656D01*
X23019347Y15725000D01*
X22780653Y15725000D01*
X22560127Y15633656D01*
X22391344Y15464873D01*
X22300000Y15244347D01*
X22300000Y15005653D01*
X22318366Y14961314D01*
X22208652Y14851600D01*
X21986190Y14851600D01*
X22050000Y15005653D01*
X22050000Y15244347D01*
X21958656Y15464873D01*
X21789873Y15633656D01*
X21569347Y15725000D01*
X21330653Y15725000D01*
X21110127Y15633656D01*
X21003071Y15526600D01*
X20394548Y15526600D01*
X22567948Y17700000D01*
X22719347Y17700000D01*
X22939873Y17791344D01*
X23108656Y17960127D01*
X23200000Y18180653D01*
X23200000Y18419347D01*
X23108656Y18639873D01*
X22939873Y18808656D01*
X22719347Y18900000D01*
X22480653Y18900000D01*
X22260127Y18808656D01*
X22200004Y18748533D01*
X22039881Y18908656D01*
X21819355Y19000000D01*
X21580661Y19000000D01*
X21558959Y18991011D01*
X22916347Y20348399D01*
X24699870Y20348399D01*
X24691344Y20339873D01*
X24600000Y20119347D01*
X24600000Y19880653D01*
X24691344Y19660127D01*
X24860127Y19491344D01*
X25080653Y19400000D01*
X25319347Y19400000D01*
X25539873Y19491344D01*
X25708656Y19660127D01*
X25762500Y19790119D01*
X25816344Y19660127D01*
X25985127Y19491344D01*
X26205653Y19400000D01*
X26444347Y19400000D01*
X26664873Y19491344D01*
X26833656Y19660127D01*
X26925000Y19880653D01*
X26925000Y20119347D01*
X26833656Y20339873D01*
X26825130Y20348399D01*
X27550000Y20348399D01*
X27550000Y20330653D01*
X27641344Y20110127D01*
X27810127Y19941344D01*
X28030653Y19850000D01*
X28269347Y19850000D01*
X28489873Y19941344D01*
X28658656Y20110127D01*
X28750000Y20330653D01*
X28750000Y20569347D01*
X28658656Y20789873D01*
X28489873Y20958656D01*
X28269347Y21050000D01*
X28123877Y21050000D01*
X28006697Y21128297D01*
X27889551Y21151599D01*
X27889550Y21151599D01*
X27850001Y21159466D01*
X27810452Y21151599D01*
X22789549Y21151599D01*
X22749999Y21159466D01*
X22710449Y21151599D01*
X22593303Y21128297D01*
X22460462Y21039536D01*
X22438058Y21006006D01*
X19355662Y17923610D01*
X19400000Y18030653D01*
X19400000Y18269347D01*
X19308656Y18489873D01*
X19139873Y18658656D01*
X18919347Y18750000D01*
X18749998Y18750000D01*
X18749998Y18869347D01*
X18658654Y19089873D01*
X18489871Y19258656D01*
X18269345Y19350000D01*
X18030651Y19350000D01*
X17951600Y19317256D01*
X17951600Y21269347D01*
X20700000Y21269347D01*
X20700000Y21030653D01*
X20791344Y20810127D01*
X20960127Y20641344D01*
X21180653Y20550000D01*
X21419347Y20550000D01*
X21639873Y20641344D01*
X21808656Y20810127D01*
X21900000Y21030653D01*
X21900000Y21269347D01*
X21808656Y21489873D01*
X21639873Y21658656D01*
X21419347Y21750000D01*
X21180653Y21750000D01*
X20960127Y21658656D01*
X20791344Y21489873D01*
X20700000Y21269347D01*
X17951600Y21269347D01*
X17951600Y22946428D01*
X18004905Y22968508D01*
X18131492Y23095095D01*
X18200000Y23260489D01*
X18200000Y23439511D01*
X18131492Y23604905D01*
X18004905Y23731492D01*
X17839511Y23800000D01*
X17660489Y23800000D01*
X17495095Y23731492D01*
X17368508Y23604905D01*
X17320108Y23488055D01*
X17293993Y23461941D01*
X17260463Y23439537D01*
X17171702Y23306695D01*
X17149147Y23193303D01*
X17140533Y23150000D01*
X17148400Y23110451D01*
X17148401Y19316349D01*
X15702055Y17870003D01*
X7628524Y17870003D01*
X7539873Y17958654D01*
X7319347Y18049998D01*
X7080653Y18049998D01*
X6860127Y17958654D01*
X6691344Y17789871D01*
X6600000Y17569345D01*
X6600000Y17330651D01*
X6691344Y17110125D01*
X6860127Y16941342D01*
X7080653Y16849998D01*
X7319347Y16849998D01*
X7539873Y16941342D01*
X7665334Y17066803D01*
X8461076Y17066803D01*
X8400000Y16919351D01*
X8400000Y16680657D01*
X8491344Y16460131D01*
X8660127Y16291348D01*
X8880653Y16200004D01*
X9109951Y16200004D01*
X9010127Y16158656D01*
X8841344Y15989873D01*
X8750000Y15769347D01*
X8750000Y15530653D01*
X8841344Y15310127D01*
X9010127Y15141344D01*
X9230653Y15050000D01*
X9382051Y15050000D01*
X9563061Y14868990D01*
X9574681Y14851600D01*
X8946929Y14851600D01*
X8839873Y14958656D01*
X8619347Y15050000D01*
X8380653Y15050000D01*
X8160127Y14958656D01*
X7991344Y14789873D01*
X7900000Y14569347D01*
X7900000Y14330653D01*
X7958053Y14190500D01*
X7503171Y14190500D01*
X3740994Y17952677D01*
X3713630Y17993630D01*
X3551383Y18102040D01*
X3408307Y18130500D01*
X3408302Y18130500D01*
X3360000Y18140108D01*
X3311698Y18130500D01*
X3108029Y18130500D01*
X3089873Y18148656D01*
X2869347Y18240000D01*
X2630653Y18240000D01*
X2410127Y18148656D01*
X2241344Y17979873D01*
X2150000Y17759347D01*
X375000Y17759347D01*
X375000Y19669347D01*
X3200000Y19669347D01*
X3200000Y19430653D01*
X3291344Y19210127D01*
X3460127Y19041344D01*
X3680653Y18950000D01*
X3919347Y18950000D01*
X4139873Y19041344D01*
X4308656Y19210127D01*
X4400000Y19430653D01*
X4400000Y19669347D01*
X4308656Y19889873D01*
X4139873Y20058656D01*
X3919347Y20150000D01*
X3680653Y20150000D01*
X3460127Y20058656D01*
X3291344Y19889873D01*
X3200000Y19669347D01*
X375000Y19669347D01*
X375000Y22669347D01*
X1500000Y22669347D01*
X1500000Y22430653D01*
X1591344Y22210127D01*
X1760127Y22041344D01*
X1980653Y21950000D01*
X2219347Y21950000D01*
X2439873Y22041344D01*
X2608656Y22210127D01*
X2700000Y22430653D01*
X2700000Y22619347D01*
X3300000Y22619347D01*
X3300000Y22380653D01*
X3391344Y22160127D01*
X3560127Y21991344D01*
X3780653Y21900000D01*
X4019347Y21900000D01*
X4239873Y21991344D01*
X4408656Y22160127D01*
X4500000Y22380653D01*
X4500000Y22619347D01*
X4408656Y22839873D01*
X4239873Y23008656D01*
X4019347Y23100000D01*
X3780653Y23100000D01*
X3560127Y23008656D01*
X3391344Y22839873D01*
X3300000Y22619347D01*
X2700000Y22619347D01*
X2700000Y22669347D01*
X2608656Y22889873D01*
X2439873Y23058656D01*
X2219347Y23150000D01*
X1980653Y23150000D01*
X1760127Y23058656D01*
X1591344Y22889873D01*
X1500000Y22669347D01*
X375000Y22669347D01*
X375000Y27769347D01*
X1100000Y27769347D01*
X1100000Y27530653D01*
X1191344Y27310127D01*
X1360127Y27141344D01*
X1580653Y27050000D01*
X1819347Y27050000D01*
X2039873Y27141344D01*
X2146929Y27248400D01*
X4150000Y27248400D01*
X4150000Y26575000D01*
X4225000Y26500000D01*
X5150000Y26500000D01*
X5150000Y26520000D01*
X5450000Y26520000D01*
X5450000Y26500000D01*
X6375000Y26500000D01*
X6450000Y26575000D01*
X6450000Y27248400D01*
X7883652Y27248400D01*
X8681458Y26450594D01*
X8703862Y26417064D01*
X8745098Y26389511D01*
X8836702Y26328303D01*
X8993399Y26297134D01*
X9032949Y26305001D01*
X9337052Y26305001D01*
X8633653Y25601601D01*
X6450000Y25601601D01*
X6450000Y26125000D01*
X6375000Y26200000D01*
X5450000Y26200000D01*
X5450000Y26180000D01*
X5150000Y26180000D01*
X5150000Y26200000D01*
X4225000Y26200000D01*
X4150000Y26125000D01*
X4150000Y25601601D01*
X3850000Y25601601D01*
X3850000Y25619347D01*
X3758656Y25839873D01*
X3589873Y26008656D01*
X3369347Y26100000D01*
X3130653Y26100000D01*
X2910127Y26008656D01*
X2741344Y25839873D01*
X2650000Y25619347D01*
X2650000Y25380653D01*
X2741344Y25160127D01*
X2910127Y24991344D01*
X3130653Y24900000D01*
X3276123Y24900000D01*
X3293991Y24888061D01*
X3393302Y24821703D01*
X3549999Y24790534D01*
X3589549Y24798401D01*
X8760452Y24798401D01*
X8800001Y24790534D01*
X8839550Y24798401D01*
X8839551Y24798401D01*
X8956697Y24821703D01*
X9089538Y24910464D01*
X9111942Y24943994D01*
X10041349Y25873400D01*
X12543640Y25873400D01*
X12660489Y25825000D01*
X12839511Y25825000D01*
X13004905Y25893508D01*
X13131492Y26020095D01*
X13200000Y26185489D01*
X13200000Y26282052D01*
X13270108Y26211944D01*
X13318508Y26095095D01*
X13445095Y25968508D01*
X13610489Y25900000D01*
X13789511Y25900000D01*
X13954905Y25968508D01*
X14081492Y26095095D01*
X14135300Y26225000D01*
X14257051Y26225000D01*
X14320108Y26161943D01*
X14368508Y26045095D01*
X14495095Y25918508D01*
X14625000Y25864700D01*
X14625000Y25792948D01*
X14493992Y25661940D01*
X14460463Y25639537D01*
X14424868Y25586265D01*
X14368508Y25529905D01*
X14300000Y25364511D01*
X14300000Y25185489D01*
X14355458Y25051600D01*
X13169542Y25051600D01*
X13225000Y25185489D01*
X13225000Y25364511D01*
X13156492Y25529905D01*
X13029905Y25656492D01*
X12864511Y25725000D01*
X12685489Y25725000D01*
X12568640Y25676600D01*
X11931360Y25676600D01*
X11814511Y25725000D01*
X11635489Y25725000D01*
X11470095Y25656492D01*
X11343508Y25529905D01*
X11275000Y25364511D01*
X11275000Y25185489D01*
X11343508Y25020095D01*
X11470095Y24893508D01*
X11635489Y24825000D01*
X11814511Y24825000D01*
X11931360Y24873400D01*
X12495062Y24873400D01*
X11700000Y24078337D01*
X11700000Y24214511D01*
X11631492Y24379905D01*
X11504905Y24506492D01*
X11339511Y24575000D01*
X11160489Y24575000D01*
X11043640Y24526600D01*
X9589544Y24526600D01*
X9549999Y24534466D01*
X9510454Y24526600D01*
X9510450Y24526600D01*
X9393304Y24503298D01*
X9260463Y24414537D01*
X9238059Y24381007D01*
X7508652Y22651600D01*
X6531360Y22651600D01*
X6414511Y22700000D01*
X6235489Y22700000D01*
X6070095Y22631492D01*
X5943508Y22504905D01*
X5875000Y22339511D01*
X5875000Y22160489D01*
X5943508Y21995095D01*
X6070095Y21868508D01*
X6235489Y21800000D01*
X6414511Y21800000D01*
X6531360Y21848400D01*
X7635451Y21848400D01*
X7675000Y21840533D01*
X7714549Y21848400D01*
X7714550Y21848400D01*
X7831696Y21871702D01*
X7964537Y21960463D01*
X7986941Y21993993D01*
X9716348Y23723400D01*
X11043640Y23723400D01*
X11160489Y23675000D01*
X11296663Y23675000D01*
X11019245Y23397582D01*
X10902396Y23349182D01*
X10775809Y23222595D01*
X10707301Y23057201D01*
X10707301Y22878179D01*
X10775809Y22712785D01*
X10865632Y22622962D01*
X10800000Y22464511D01*
X10800000Y22285489D01*
X10866476Y22125000D01*
X10800000Y21964511D01*
X10800000Y21793879D01*
X10770095Y21781492D01*
X10643508Y21654905D01*
X10575000Y21489511D01*
X10575000Y21310489D01*
X10643508Y21145095D01*
X10770095Y21018508D01*
X10935489Y20950000D01*
X11114511Y20950000D01*
X11231360Y20998400D01*
X11610451Y20998400D01*
X11650000Y20990533D01*
X11689549Y20998400D01*
X11689550Y20998400D01*
X11806696Y21021702D01*
X11939537Y21110463D01*
X11961941Y21143993D01*
X12987295Y22169347D01*
X14950000Y22169347D01*
X14950000Y21930653D01*
X15041344Y21710127D01*
X15210127Y21541344D01*
X15430653Y21450000D01*
X15669347Y21450000D01*
X15889873Y21541344D01*
X16058656Y21710127D01*
X16150000Y21930653D01*
X16150000Y22169347D01*
X16058656Y22389873D01*
X15889873Y22558656D01*
X15669347Y22650000D01*
X15430653Y22650000D01*
X15210127Y22558656D01*
X15041344Y22389873D01*
X14950000Y22169347D01*
X12987295Y22169347D01*
X13816349Y22998400D01*
X15910451Y22998400D01*
X15950000Y22990533D01*
X15989549Y22998400D01*
X15989550Y22998400D01*
X16106696Y23021702D01*
X16239537Y23110463D01*
X16261941Y23143993D01*
X17016349Y23898400D01*
X17578996Y23898400D01*
X17635489Y23875000D01*
X17814511Y23875000D01*
X17979905Y23943508D01*
X18106492Y24070095D01*
X18116537Y24094347D01*
X19150000Y24094347D01*
X19150000Y23855653D01*
X19241344Y23635127D01*
X19410127Y23466344D01*
X19630653Y23375000D01*
X19869347Y23375000D01*
X20089873Y23466344D01*
X20250000Y23626471D01*
X20360127Y23516344D01*
X20580653Y23425000D01*
X20819347Y23425000D01*
X21039873Y23516344D01*
X21042876Y23519347D01*
X23625000Y23519347D01*
X23625000Y23280653D01*
X23716344Y23060127D01*
X23885127Y22891344D01*
X24105653Y22800000D01*
X24344347Y22800000D01*
X24564873Y22891344D01*
X24733656Y23060127D01*
X24825000Y23280653D01*
X24825000Y23519347D01*
X24733656Y23739873D01*
X24564873Y23908656D01*
X24344347Y24000000D01*
X24105653Y24000000D01*
X23885127Y23908656D01*
X23716344Y23739873D01*
X23625000Y23519347D01*
X21042876Y23519347D01*
X21208656Y23685127D01*
X21300000Y23905653D01*
X21300000Y24144347D01*
X21208656Y24364873D01*
X21125946Y24447583D01*
X21081492Y24554905D01*
X21067050Y24569347D01*
X25900000Y24569347D01*
X25900000Y24330653D01*
X25991344Y24110127D01*
X26160127Y23941344D01*
X26380653Y23850000D01*
X26619347Y23850000D01*
X26839873Y23941344D01*
X27008656Y24110127D01*
X27100000Y24330653D01*
X27100000Y24569347D01*
X27008656Y24789873D01*
X26839873Y24958656D01*
X26619347Y25050000D01*
X26380653Y25050000D01*
X26160127Y24958656D01*
X25991344Y24789873D01*
X25900000Y24569347D01*
X21067050Y24569347D01*
X20954905Y24681492D01*
X20789511Y24750000D01*
X20610489Y24750000D01*
X20445095Y24681492D01*
X20318508Y24554905D01*
X20274054Y24447583D01*
X20200000Y24373529D01*
X20200000Y24414511D01*
X20131492Y24579905D01*
X20004905Y24706492D01*
X19839511Y24775000D01*
X19660489Y24775000D01*
X19495095Y24706492D01*
X19368508Y24579905D01*
X19300000Y24414511D01*
X19300000Y24373529D01*
X19241344Y24314873D01*
X19150000Y24094347D01*
X18116537Y24094347D01*
X18175000Y24235489D01*
X18175000Y24395506D01*
X18200000Y24390533D01*
X18239549Y24398400D01*
X18239550Y24398400D01*
X18356696Y24421702D01*
X18489537Y24510463D01*
X18511941Y24543992D01*
X18863057Y24895108D01*
X18979905Y24943508D01*
X19106492Y25070095D01*
X19175000Y25235489D01*
X19175000Y25414511D01*
X19106492Y25579905D01*
X18979905Y25706492D01*
X18967819Y25711498D01*
X19039873Y25741344D01*
X19208656Y25910127D01*
X19300000Y26130653D01*
X19300000Y26169347D01*
X21025000Y26169347D01*
X21025000Y25930653D01*
X21116344Y25710127D01*
X21285127Y25541344D01*
X21505653Y25450000D01*
X21744347Y25450000D01*
X21964873Y25541344D01*
X22133656Y25710127D01*
X22183210Y25829763D01*
X22191344Y25810127D01*
X22360127Y25641344D01*
X22580653Y25550000D01*
X22819347Y25550000D01*
X23039873Y25641344D01*
X23208656Y25810127D01*
X23300000Y26030653D01*
X23300000Y26269347D01*
X23208656Y26489873D01*
X23039873Y26658656D01*
X22819347Y26750000D01*
X22580653Y26750000D01*
X22360127Y26658656D01*
X22191344Y26489873D01*
X22162387Y26419963D01*
X22106492Y26554905D01*
X21979905Y26681492D01*
X21814511Y26750000D01*
X21635489Y26750000D01*
X21470095Y26681492D01*
X21391192Y26602589D01*
X21285127Y26558656D01*
X21116344Y26389873D01*
X21025000Y26169347D01*
X19300000Y26169347D01*
X19300000Y26369347D01*
X19208656Y26589873D01*
X19039873Y26758656D01*
X19000415Y26775000D01*
X19039873Y26791344D01*
X19067876Y26819347D01*
X25925000Y26819347D01*
X25925000Y26580653D01*
X26016344Y26360127D01*
X26185127Y26191344D01*
X26405653Y26100000D01*
X26644347Y26100000D01*
X26864873Y26191344D01*
X27033656Y26360127D01*
X27125000Y26580653D01*
X27125000Y26819347D01*
X27033656Y27039873D01*
X26864873Y27208656D01*
X26644347Y27300000D01*
X26405653Y27300000D01*
X26185127Y27208656D01*
X26016344Y27039873D01*
X25925000Y26819347D01*
X19067876Y26819347D01*
X19116480Y26867951D01*
X19159012Y26896370D01*
X19187431Y26938902D01*
X19208656Y26960127D01*
X19220143Y26987858D01*
X19267422Y27058617D01*
X19284024Y27142084D01*
X19300000Y27180653D01*
X19300000Y27222400D01*
X19305490Y27250000D01*
X19300000Y27277600D01*
X19300000Y27419347D01*
X19262658Y27509500D01*
X20641971Y27509500D01*
X20660127Y27491344D01*
X20880653Y27400000D01*
X21119347Y27400000D01*
X21339873Y27491344D01*
X21508656Y27660127D01*
X21600000Y27880653D01*
X21600000Y28066667D01*
X21617751Y28070198D01*
X23758194Y28070198D01*
X23675000Y27869347D01*
X23675000Y27630653D01*
X23766344Y27410127D01*
X23935127Y27241344D01*
X24155653Y27150000D01*
X24394347Y27150000D01*
X24614873Y27241344D01*
X24783656Y27410127D01*
X24875000Y27630653D01*
X24875000Y27869347D01*
X24791806Y28070198D01*
X25222677Y28070198D01*
X25262226Y28062331D01*
X25301775Y28070198D01*
X25301776Y28070198D01*
X25418922Y28093500D01*
X25551763Y28182261D01*
X25574167Y28215791D01*
X25831776Y28473400D01*
X26003071Y28473400D01*
X26110127Y28366344D01*
X26330653Y28275000D01*
X26569347Y28275000D01*
X26789873Y28366344D01*
X26942876Y28519347D01*
X29750000Y28519347D01*
X29750000Y28280653D01*
X29841344Y28060127D01*
X30010127Y27891344D01*
X30230653Y27800000D01*
X30469347Y27800000D01*
X30689873Y27891344D01*
X30858656Y28060127D01*
X30950000Y28280653D01*
X30950000Y28519347D01*
X32700000Y28519347D01*
X32700000Y28280653D01*
X32791344Y28060127D01*
X32960127Y27891344D01*
X33180653Y27800000D01*
X33419347Y27800000D01*
X33639873Y27891344D01*
X33808656Y28060127D01*
X33900000Y28280653D01*
X33900000Y28519347D01*
X33808656Y28739873D01*
X33639873Y28908656D01*
X33419347Y29000000D01*
X33180653Y29000000D01*
X32960127Y28908656D01*
X32791344Y28739873D01*
X32700000Y28519347D01*
X30950000Y28519347D01*
X30858656Y28739873D01*
X30689873Y28908656D01*
X30469347Y29000000D01*
X30230653Y29000000D01*
X30010127Y28908656D01*
X29841344Y28739873D01*
X29750000Y28519347D01*
X26942876Y28519347D01*
X26958656Y28535127D01*
X27050000Y28755653D01*
X27050000Y28994347D01*
X26958656Y29214873D01*
X26789873Y29383656D01*
X26732737Y29407322D01*
X26814873Y29441344D01*
X26983656Y29610127D01*
X27075000Y29830653D01*
X27075000Y30069347D01*
X26983656Y30289873D01*
X26814873Y30458656D01*
X26720237Y30497855D01*
X26764873Y30516344D01*
X26933656Y30685127D01*
X27025000Y30905653D01*
X27025000Y31144347D01*
X26971545Y31273400D01*
X30203071Y31273400D01*
X30310127Y31166344D01*
X30530653Y31075000D01*
X30769347Y31075000D01*
X30989873Y31166344D01*
X31158656Y31335127D01*
X31250000Y31555653D01*
X31250000Y31794347D01*
X31177514Y31969347D01*
X33050000Y31969347D01*
X33050000Y31730653D01*
X33141344Y31510127D01*
X33310127Y31341344D01*
X33530653Y31250000D01*
X33769347Y31250000D01*
X33989873Y31341344D01*
X34158656Y31510127D01*
X34250000Y31730653D01*
X34250000Y31969347D01*
X34158656Y32189873D01*
X33989873Y32358656D01*
X33769347Y32450000D01*
X33530653Y32450000D01*
X33310127Y32358656D01*
X33141344Y32189873D01*
X33050000Y31969347D01*
X31177514Y31969347D01*
X31158656Y32014873D01*
X30989873Y32183656D01*
X30769347Y32275000D01*
X30550000Y32275000D01*
X30550000Y32419347D01*
X30458656Y32639873D01*
X30289873Y32808656D01*
X30069347Y32900000D01*
X29830653Y32900000D01*
X29610127Y32808656D01*
X29503071Y32701600D01*
X22739544Y32701600D01*
X22699999Y32709466D01*
X22660454Y32701600D01*
X22660450Y32701600D01*
X22543304Y32678298D01*
X22410463Y32589537D01*
X22388059Y32556007D01*
X21586944Y31754892D01*
X21470095Y31706492D01*
X21343508Y31579905D01*
X21275000Y31414511D01*
X21275000Y31235489D01*
X21343508Y31070095D01*
X21463603Y30950000D01*
X21460489Y30950000D01*
X21295095Y30881492D01*
X21168508Y30754905D01*
X21100000Y30589511D01*
X21100000Y30410489D01*
X21168508Y30245095D01*
X21295095Y30118508D01*
X21411944Y30070108D01*
X21732051Y29750000D01*
X21635489Y29750000D01*
X21470095Y29681492D01*
X21343508Y29554905D01*
X21275000Y29389511D01*
X21275000Y29342948D01*
X21154892Y29463056D01*
X21106492Y29579905D01*
X20979905Y29706492D01*
X20814511Y29775000D01*
X20635489Y29775000D01*
X20470095Y29706492D01*
X20343508Y29579905D01*
X20275000Y29414511D01*
X20275000Y29235489D01*
X20343508Y29070095D01*
X20470095Y28943508D01*
X20586944Y28895108D01*
X20882052Y28600000D01*
X20880653Y28600000D01*
X20660127Y28508656D01*
X20641971Y28490500D01*
X19253171Y28490500D01*
X19062677Y28680994D01*
X18941383Y28762039D01*
X18750000Y28800108D01*
X18558617Y28762039D01*
X18396370Y28653630D01*
X18287961Y28491383D01*
X18249892Y28300000D01*
X18287961Y28108617D01*
X18369006Y27987323D01*
X18492742Y27863587D01*
X18360127Y27808656D01*
X18191344Y27639873D01*
X18100000Y27419347D01*
X18100000Y27180653D01*
X18191344Y26960127D01*
X18360127Y26791344D01*
X18399585Y26775000D01*
X18360127Y26758656D01*
X18191344Y26589873D01*
X18100000Y26369347D01*
X18100000Y26130653D01*
X18191344Y25910127D01*
X18360127Y25741344D01*
X18462530Y25698927D01*
X18343508Y25579905D01*
X18295108Y25463057D01*
X18175000Y25342948D01*
X18175000Y25414511D01*
X18106492Y25579905D01*
X17979905Y25706492D01*
X17863057Y25754892D01*
X17511941Y26106008D01*
X17489537Y26139537D01*
X17356696Y26228298D01*
X17239550Y26251600D01*
X17239549Y26251600D01*
X17200000Y26259467D01*
X17160451Y26251600D01*
X16489544Y26251600D01*
X16449999Y26259466D01*
X16410454Y26251600D01*
X16410450Y26251600D01*
X16293304Y26228298D01*
X16160463Y26139537D01*
X16138059Y26106007D01*
X15825000Y25792948D01*
X15825000Y25944347D01*
X15733656Y26164873D01*
X15564873Y26333656D01*
X15344347Y26425000D01*
X15185300Y26425000D01*
X15131492Y26554905D01*
X15004905Y26681492D01*
X14888057Y26729892D01*
X14825000Y26792949D01*
X14825000Y26944347D01*
X14733656Y27164873D01*
X14564873Y27333656D01*
X14344347Y27425000D01*
X14105653Y27425000D01*
X13885127Y27333656D01*
X13716344Y27164873D01*
X13641280Y26983650D01*
X13632936Y26996138D01*
X13500095Y27084899D01*
X13382949Y27108201D01*
X13382948Y27108201D01*
X13343399Y27116068D01*
X13303850Y27108201D01*
X13122276Y27108201D01*
X13154892Y27186944D01*
X13167948Y27200000D01*
X13344347Y27200000D01*
X13564873Y27291344D01*
X13733656Y27460127D01*
X13825000Y27680653D01*
X13825000Y27919347D01*
X13733656Y28139873D01*
X13564873Y28308656D01*
X13348210Y28398400D01*
X14160451Y28398400D01*
X14200000Y28390533D01*
X14239549Y28398400D01*
X14239550Y28398400D01*
X14356696Y28421702D01*
X14489537Y28510463D01*
X14511941Y28543993D01*
X14658984Y28691036D01*
X14650000Y28669347D01*
X14650000Y28430653D01*
X14741344Y28210127D01*
X14910127Y28041344D01*
X15130653Y27950000D01*
X15143945Y27950000D01*
X15146370Y27946370D01*
X15308617Y27837960D01*
X15451693Y27809500D01*
X15451697Y27809500D01*
X15499999Y27799892D01*
X15548301Y27809500D01*
X15748307Y27809500D01*
X15891383Y27837960D01*
X16053630Y27946370D01*
X16162040Y28108617D01*
X16200109Y28300000D01*
X16162040Y28491383D01*
X16053630Y28653630D01*
X15891383Y28762040D01*
X15804442Y28779334D01*
X15758656Y28889873D01*
X15589873Y29058656D01*
X15369347Y29150000D01*
X15168879Y29150000D01*
X15225000Y29285489D01*
X15225000Y29464511D01*
X15156492Y29629905D01*
X15029905Y29756492D01*
X14864511Y29825000D01*
X14685489Y29825000D01*
X14520095Y29756492D01*
X14393508Y29629905D01*
X14345108Y29513056D01*
X14250000Y29417948D01*
X14250000Y29514511D01*
X14181492Y29679905D01*
X14054905Y29806492D01*
X13895378Y29872570D01*
X13711941Y30056007D01*
X13689537Y30089537D01*
X13556696Y30178298D01*
X13439550Y30201600D01*
X13439549Y30201600D01*
X13400000Y30209467D01*
X13360451Y30201600D01*
X11964549Y30201600D01*
X11925000Y30209467D01*
X11885451Y30201600D01*
X11885450Y30201600D01*
X11768304Y30178298D01*
X11635463Y30089537D01*
X11613059Y30056007D01*
X11119552Y29562500D01*
X10968153Y29562500D01*
X10747627Y29471156D01*
X10578844Y29302373D01*
X10569270Y29279259D01*
X10464873Y29383656D01*
X10244347Y29475000D01*
X10005653Y29475000D01*
X9785127Y29383656D01*
X9616344Y29214873D01*
X9525000Y28994347D01*
X9525000Y28755653D01*
X9616344Y28535127D01*
X9785127Y28366344D01*
X10005653Y28275000D01*
X10244347Y28275000D01*
X10464873Y28366344D01*
X10633656Y28535127D01*
X10643230Y28558241D01*
X10747627Y28453844D01*
X10753063Y28451592D01*
X10716344Y28414873D01*
X10625000Y28194347D01*
X10625000Y27955653D01*
X10716344Y27735127D01*
X10885127Y27566344D01*
X11105653Y27475000D01*
X11344347Y27475000D01*
X11564873Y27566344D01*
X11723192Y27724663D01*
X11791344Y27560127D01*
X11960127Y27391344D01*
X12180653Y27300000D01*
X12275000Y27300000D01*
X12275000Y27235489D01*
X12327724Y27108201D01*
X9159747Y27108201D01*
X8361941Y27906007D01*
X8339537Y27939537D01*
X8206696Y28028298D01*
X8089550Y28051600D01*
X8089549Y28051600D01*
X8050000Y28059467D01*
X8010451Y28051600D01*
X6115189Y28051600D01*
X6129103Y28060897D01*
X6383276Y28441293D01*
X6472529Y28890000D01*
X6383276Y29338707D01*
X6129103Y29719103D01*
X5748707Y29973276D01*
X5413261Y30040000D01*
X5186739Y30040000D01*
X4851293Y29973276D01*
X4470897Y29719103D01*
X4216724Y29338707D01*
X4127471Y28890000D01*
X4216724Y28441293D01*
X4470897Y28060897D01*
X4484811Y28051600D01*
X2146929Y28051600D01*
X2039873Y28158656D01*
X1819347Y28250000D01*
X1580653Y28250000D01*
X1360127Y28158656D01*
X1191344Y27989873D01*
X1100000Y27769347D01*
X375000Y27769347D01*
X375000Y31430000D01*
X4127471Y31430000D01*
X4216724Y30981293D01*
X4470897Y30600897D01*
X4851293Y30346724D01*
X5186739Y30280000D01*
X5413261Y30280000D01*
X5748707Y30346724D01*
X6129103Y30600897D01*
X6383276Y30981293D01*
X6464475Y31389511D01*
X16275000Y31389511D01*
X16275000Y31210489D01*
X16343508Y31045095D01*
X16470095Y30918508D01*
X16586944Y30870108D01*
X17063059Y30393993D01*
X17085463Y30360463D01*
X17118992Y30338060D01*
X17218303Y30271702D01*
X17375000Y30240533D01*
X17414550Y30248400D01*
X18010451Y30248400D01*
X18050000Y30240533D01*
X18089549Y30248400D01*
X18089550Y30248400D01*
X18206696Y30271702D01*
X18339537Y30360463D01*
X18361941Y30393993D01*
X18692949Y30725000D01*
X18844347Y30725000D01*
X19064873Y30816344D01*
X19233656Y30985127D01*
X19325000Y31205653D01*
X19325000Y31444347D01*
X19233656Y31664873D01*
X19064873Y31833656D01*
X18844347Y31925000D01*
X18605653Y31925000D01*
X18385127Y31833656D01*
X18216344Y31664873D01*
X18206770Y31641759D01*
X18039873Y31808656D01*
X17819347Y31900000D01*
X17580653Y31900000D01*
X17360127Y31808656D01*
X17191344Y31639873D01*
X17131321Y31494963D01*
X17106492Y31554905D01*
X16979905Y31681492D01*
X16814511Y31750000D01*
X16635489Y31750000D01*
X16470095Y31681492D01*
X16343508Y31554905D01*
X16275000Y31389511D01*
X6464475Y31389511D01*
X6472529Y31430000D01*
X6383276Y31878707D01*
X6129103Y32259103D01*
X5748707Y32513276D01*
X5413261Y32580000D01*
X5186739Y32580000D01*
X4851293Y32513276D01*
X4470897Y32259103D01*
X4216724Y31878707D01*
X4127471Y31430000D01*
X375000Y31430000D01*
X375000Y33389511D01*
X13275000Y33389511D01*
X13275000Y33210489D01*
X13343508Y33045095D01*
X13470095Y32918508D01*
X13635489Y32850000D01*
X13814511Y32850000D01*
X13931360Y32898400D01*
X15601790Y32898400D01*
X15385127Y32808656D01*
X15216344Y32639873D01*
X15125000Y32419347D01*
X15125000Y32180653D01*
X15216344Y31960127D01*
X15385127Y31791344D01*
X15605653Y31700000D01*
X15844347Y31700000D01*
X16064873Y31791344D01*
X16233656Y31960127D01*
X16325000Y32180653D01*
X16325000Y32419347D01*
X16233656Y32639873D01*
X16064873Y32808656D01*
X15848210Y32898400D01*
X16435451Y32898400D01*
X16475000Y32890533D01*
X16514549Y32898400D01*
X16514550Y32898400D01*
X16631696Y32921702D01*
X16764537Y33010463D01*
X16786941Y33043993D01*
X18117948Y34375000D01*
X18232052Y34375000D01*
X17611944Y33754892D01*
X17495095Y33706492D01*
X17368508Y33579905D01*
X17300000Y33414511D01*
X17300000Y33235489D01*
X17368508Y33070095D01*
X17495095Y32943508D01*
X17660489Y32875000D01*
X17839511Y32875000D01*
X18004905Y32943508D01*
X18131492Y33070095D01*
X18179892Y33186944D01*
X18587295Y33594347D01*
X25025000Y33594347D01*
X25025000Y33355653D01*
X25116344Y33135127D01*
X25285127Y32966344D01*
X25505653Y32875000D01*
X25744347Y32875000D01*
X25964873Y32966344D01*
X26071929Y33073400D01*
X32585451Y33073400D01*
X32625000Y33065533D01*
X32664549Y33073400D01*
X32664550Y33073400D01*
X32781696Y33096702D01*
X32914537Y33185463D01*
X32936941Y33218993D01*
X33094338Y33376390D01*
X33050000Y33269347D01*
X33050000Y33030653D01*
X33141344Y32810127D01*
X33310127Y32641344D01*
X33530653Y32550000D01*
X33769347Y32550000D01*
X33989873Y32641344D01*
X34158656Y32810127D01*
X34250000Y33030653D01*
X34250000Y33269347D01*
X34158656Y33489873D01*
X33989873Y33658656D01*
X33769347Y33750000D01*
X33530653Y33750000D01*
X33423611Y33705662D01*
X33666347Y33948398D01*
X34403071Y33948398D01*
X34510127Y33841342D01*
X34730653Y33749998D01*
X34969347Y33749998D01*
X35189873Y33841342D01*
X35358656Y34010125D01*
X35450000Y34230651D01*
X35450000Y34469345D01*
X35358656Y34689871D01*
X35189873Y34858654D01*
X34969347Y34949998D01*
X34730653Y34949998D01*
X34510127Y34858654D01*
X34403071Y34751598D01*
X33539546Y34751598D01*
X33499997Y34759465D01*
X33460448Y34751598D01*
X33343302Y34728296D01*
X33300465Y34699673D01*
X33243989Y34661938D01*
X33243988Y34661937D01*
X33210461Y34639535D01*
X33188059Y34606008D01*
X32458652Y33876600D01*
X26071929Y33876600D01*
X25964873Y33983656D01*
X25744347Y34075000D01*
X25505653Y34075000D01*
X25285127Y33983656D01*
X25116344Y33814873D01*
X25025000Y33594347D01*
X18587295Y33594347D01*
X20071559Y35078611D01*
X20141346Y34910129D01*
X20310129Y34741346D01*
X20530655Y34650002D01*
X20769349Y34650002D01*
X20989875Y34741346D01*
X21096931Y34848402D01*
X28778071Y34848402D01*
X28885127Y34741346D01*
X29105653Y34650002D01*
X29344347Y34650002D01*
X29564873Y34741346D01*
X29733656Y34910129D01*
X29825000Y35130655D01*
X29825000Y35369349D01*
X29733656Y35589875D01*
X29564873Y35758658D01*
X29344347Y35850002D01*
X29199998Y35850002D01*
X29199998Y36021405D01*
X29147215Y36148835D01*
X32355684Y36148835D01*
X32327471Y36007000D01*
X32416724Y35558293D01*
X32670897Y35177897D01*
X33051293Y34923724D01*
X33386739Y34857000D01*
X33613261Y34857000D01*
X33948707Y34923724D01*
X34329103Y35177897D01*
X34583276Y35558293D01*
X34606188Y35673484D01*
X35097328Y35673484D01*
X35189400Y35451165D01*
X35476357Y35106203D01*
X35873482Y34897313D01*
X36050000Y34934810D01*
X36050000Y35850000D01*
X36350000Y35850000D01*
X36350000Y34934810D01*
X36526518Y34897313D01*
X36923643Y35106203D01*
X37210600Y35451165D01*
X37302672Y35673484D01*
X37264483Y35850000D01*
X36350000Y35850000D01*
X36050000Y35850000D01*
X35135517Y35850000D01*
X35097328Y35673484D01*
X34606188Y35673484D01*
X34672529Y36007000D01*
X34608974Y36326516D01*
X35097328Y36326516D01*
X35135517Y36150000D01*
X36050000Y36150000D01*
X36050000Y37065190D01*
X36350000Y37065190D01*
X36350000Y36150000D01*
X37264483Y36150000D01*
X37302672Y36326516D01*
X37210600Y36548835D01*
X36923643Y36893797D01*
X36526518Y37102687D01*
X36350000Y37065190D01*
X36050000Y37065190D01*
X35873482Y37102687D01*
X35476357Y36893797D01*
X35189400Y36548835D01*
X35097328Y36326516D01*
X34608974Y36326516D01*
X34583276Y36455707D01*
X34329103Y36836103D01*
X33948707Y37090276D01*
X33613261Y37157000D01*
X33386739Y37157000D01*
X33051293Y37090276D01*
X32844401Y36952035D01*
X29750564Y36952035D01*
X29783656Y36985127D01*
X29875000Y37205653D01*
X29875000Y37444347D01*
X29783656Y37664873D01*
X29614873Y37833656D01*
X29394347Y37925000D01*
X29155653Y37925000D01*
X28935127Y37833656D01*
X28766344Y37664873D01*
X28675000Y37444347D01*
X28675000Y37205653D01*
X28766344Y36985127D01*
X28799436Y36952035D01*
X26933095Y36952035D01*
X26826039Y37059091D01*
X26605513Y37150435D01*
X26366819Y37150435D01*
X26146293Y37059091D01*
X25977510Y36890308D01*
X25886166Y36669782D01*
X25886166Y36431088D01*
X25938949Y36303658D01*
X20366602Y36303658D01*
X20327057Y36311524D01*
X20287512Y36303658D01*
X20287508Y36303658D01*
X20170362Y36280356D01*
X20037521Y36191595D01*
X20015117Y36158065D01*
X18750000Y34892948D01*
X18750000Y35094347D01*
X18658656Y35314873D01*
X18489873Y35483656D01*
X18269347Y35575000D01*
X18030653Y35575000D01*
X17810127Y35483656D01*
X17641344Y35314873D01*
X17550000Y35094347D01*
X17550000Y34942948D01*
X16308652Y33701600D01*
X13931360Y33701600D01*
X13814511Y33750000D01*
X13635489Y33750000D01*
X13470095Y33681492D01*
X13343508Y33554905D01*
X13275000Y33389511D01*
X375000Y33389511D01*
X375000Y35673484D01*
X675328Y35673484D01*
X767400Y35451165D01*
X1054357Y35106203D01*
X1451482Y34897313D01*
X1628000Y34934810D01*
X1628000Y35850000D01*
X1928000Y35850000D01*
X1928000Y34934810D01*
X2104518Y34897313D01*
X2501643Y35106203D01*
X2788600Y35451165D01*
X2880672Y35673484D01*
X3215328Y35673484D01*
X3307400Y35451165D01*
X3594357Y35106203D01*
X3991482Y34897313D01*
X4168000Y34934810D01*
X4168000Y35850000D01*
X4468000Y35850000D01*
X4468000Y34934810D01*
X4644518Y34897313D01*
X5041643Y35106203D01*
X5260539Y35369347D01*
X14625000Y35369347D01*
X14625000Y35130653D01*
X14716344Y34910127D01*
X14885127Y34741344D01*
X15105653Y34650000D01*
X15344347Y34650000D01*
X15564873Y34741344D01*
X15695159Y34871630D01*
X15741344Y34760127D01*
X15910127Y34591344D01*
X16130653Y34500000D01*
X16369347Y34500000D01*
X16589873Y34591344D01*
X16758656Y34760127D01*
X16850000Y34980653D01*
X16850000Y35219347D01*
X16758656Y35439873D01*
X16589873Y35608656D01*
X16369347Y35700000D01*
X16130653Y35700000D01*
X15910127Y35608656D01*
X15779841Y35478370D01*
X15733656Y35589873D01*
X15564873Y35758656D01*
X15344347Y35850000D01*
X15105653Y35850000D01*
X14885127Y35758656D01*
X14716344Y35589873D01*
X14625000Y35369347D01*
X5260539Y35369347D01*
X5328600Y35451165D01*
X5420672Y35673484D01*
X5382483Y35850000D01*
X4468000Y35850000D01*
X4168000Y35850000D01*
X3253517Y35850000D01*
X3215328Y35673484D01*
X2880672Y35673484D01*
X2842483Y35850000D01*
X1928000Y35850000D01*
X1628000Y35850000D01*
X713517Y35850000D01*
X675328Y35673484D01*
X375000Y35673484D01*
X375000Y36326516D01*
X675328Y36326516D01*
X713517Y36150000D01*
X1628000Y36150000D01*
X1628000Y37065190D01*
X1928000Y37065190D01*
X1928000Y36150000D01*
X2842483Y36150000D01*
X2880672Y36326516D01*
X3215328Y36326516D01*
X3253517Y36150000D01*
X4168000Y36150000D01*
X4168000Y37065190D01*
X4468000Y37065190D01*
X4468000Y36150000D01*
X5382483Y36150000D01*
X5420672Y36326516D01*
X5413288Y36344347D01*
X17550000Y36344347D01*
X17550000Y36105653D01*
X17641344Y35885127D01*
X17810127Y35716344D01*
X18030653Y35625000D01*
X18269347Y35625000D01*
X18489873Y35716344D01*
X18658656Y35885127D01*
X18750000Y36105653D01*
X18750000Y36344347D01*
X18658656Y36564873D01*
X18489873Y36733656D01*
X18269347Y36825000D01*
X18030653Y36825000D01*
X17810127Y36733656D01*
X17641344Y36564873D01*
X17550000Y36344347D01*
X5413288Y36344347D01*
X5328600Y36548835D01*
X5041643Y36893797D01*
X4644518Y37102687D01*
X4468000Y37065190D01*
X4168000Y37065190D01*
X3991482Y37102687D01*
X3594357Y36893797D01*
X3307400Y36548835D01*
X3215328Y36326516D01*
X2880672Y36326516D01*
X2788600Y36548835D01*
X2501643Y36893797D01*
X2104518Y37102687D01*
X1928000Y37065190D01*
X1628000Y37065190D01*
X1451482Y37102687D01*
X1054357Y36893797D01*
X767400Y36548835D01*
X675328Y36326516D01*
X375000Y36326516D01*
X375000Y38540000D01*
X605471Y38540000D01*
X694724Y38091293D01*
X948897Y37710897D01*
X1329293Y37456724D01*
X1664739Y37390000D01*
X1891261Y37390000D01*
X2226707Y37456724D01*
X2607103Y37710897D01*
X2861276Y38091293D01*
X2950529Y38540000D01*
X3145471Y38540000D01*
X3234724Y38091293D01*
X3488897Y37710897D01*
X3869293Y37456724D01*
X4204739Y37390000D01*
X4431261Y37390000D01*
X4766707Y37456724D01*
X5147103Y37710897D01*
X5401276Y38091293D01*
X5490529Y38540000D01*
X5401276Y38988707D01*
X5147103Y39369103D01*
X4766707Y39623276D01*
X4431261Y39690000D01*
X4204739Y39690000D01*
X3869293Y39623276D01*
X3488897Y39369103D01*
X3234724Y38988707D01*
X3145471Y38540000D01*
X2950529Y38540000D01*
X2861276Y38988707D01*
X2607103Y39369103D01*
X2226707Y39623276D01*
X1891261Y39690000D01*
X1664739Y39690000D01*
X1329293Y39623276D01*
X948897Y39369103D01*
X694724Y38988707D01*
X605471Y38540000D01*
X375000Y38540000D01*
X375000Y41080000D01*
X605471Y41080000D01*
X694724Y40631293D01*
X948897Y40250897D01*
X1329293Y39996724D01*
X1664739Y39930000D01*
X1891261Y39930000D01*
X2226707Y39996724D01*
X2607103Y40250897D01*
X2861276Y40631293D01*
X2950529Y41080000D01*
X2861276Y41528707D01*
X2607103Y41909103D01*
X2226707Y42163276D01*
X1891261Y42230000D01*
X1664739Y42230000D01*
X1329293Y42163276D01*
X948897Y41909103D01*
X694724Y41528707D01*
X605471Y41080000D01*
X375000Y41080000D01*
X375000Y43620000D01*
X605471Y43620000D01*
X694724Y43171293D01*
X948897Y42790897D01*
X1329293Y42536724D01*
X1664739Y42470000D01*
X1891261Y42470000D01*
X2226707Y42536724D01*
X2607103Y42790897D01*
X2861276Y43171293D01*
X2950529Y43620000D01*
X2861276Y44068707D01*
X2607103Y44449103D01*
X2226707Y44703276D01*
X1891261Y44770000D01*
X1664739Y44770000D01*
X1329293Y44703276D01*
X948897Y44449103D01*
X694724Y44068707D01*
X605471Y43620000D01*
X375000Y43620000D01*
X375000Y46160000D01*
X605471Y46160000D01*
X694724Y45711293D01*
X948897Y45330897D01*
X1329293Y45076724D01*
X1664739Y45010000D01*
X1891261Y45010000D01*
X2226707Y45076724D01*
X2607103Y45330897D01*
X2861276Y45711293D01*
X2950529Y46160000D01*
X3145471Y46160000D01*
X3234724Y45711293D01*
X3488897Y45330897D01*
X3869293Y45076724D01*
X4204739Y45010000D01*
X4431261Y45010000D01*
X4766707Y45076724D01*
X4819831Y45112221D01*
X5798400Y44133652D01*
X5798401Y42989553D01*
X5790533Y42950000D01*
X5821703Y42793304D01*
X5888060Y42693992D01*
X5888062Y42693990D01*
X5910464Y42660463D01*
X5943991Y42638061D01*
X8480452Y40101600D01*
X8416349Y40101600D01*
X5379398Y43138550D01*
X5401276Y43171293D01*
X5490529Y43620000D01*
X5401276Y44068707D01*
X5147103Y44449103D01*
X4766707Y44703276D01*
X4431261Y44770000D01*
X4204739Y44770000D01*
X3869293Y44703276D01*
X3488897Y44449103D01*
X3234724Y44068707D01*
X3145471Y43620000D01*
X3234724Y43171293D01*
X3488897Y42790897D01*
X3869293Y42536724D01*
X4204739Y42470000D01*
X4431261Y42470000D01*
X4766707Y42536724D01*
X4813837Y42568215D01*
X7783653Y39598398D01*
X6367550Y39598398D01*
X5374591Y40591357D01*
X5401276Y40631293D01*
X5490529Y41080000D01*
X5401276Y41528707D01*
X5147103Y41909103D01*
X4766707Y42163276D01*
X4431261Y42230000D01*
X4204739Y42230000D01*
X3869293Y42163276D01*
X3488897Y41909103D01*
X3234724Y41528707D01*
X3145471Y41080000D01*
X3234724Y40631293D01*
X3488897Y40250897D01*
X3869293Y39996724D01*
X4204739Y39930000D01*
X4431261Y39930000D01*
X4766707Y39996724D01*
X4806643Y40023409D01*
X5889261Y38940791D01*
X5911665Y38907261D01*
X5945194Y38884858D01*
X6044505Y38818500D01*
X6201202Y38787331D01*
X6240752Y38795198D01*
X8121669Y38795198D01*
X8116344Y38789873D01*
X8025000Y38569347D01*
X8025000Y38330653D01*
X8116344Y38110127D01*
X8285127Y37941344D01*
X8505653Y37850000D01*
X8744347Y37850000D01*
X8964873Y37941344D01*
X9133656Y38110127D01*
X9225000Y38330653D01*
X9225000Y38569347D01*
X9133656Y38789873D01*
X9128331Y38795198D01*
X15866640Y38795198D01*
X16392845Y38268993D01*
X16415249Y38235463D01*
X16548090Y38146702D01*
X16665236Y38123400D01*
X16665237Y38123400D01*
X16704786Y38115533D01*
X16744335Y38123400D01*
X17985451Y38123400D01*
X18025000Y38115533D01*
X18064549Y38123400D01*
X18064550Y38123400D01*
X18181696Y38146702D01*
X18314537Y38235463D01*
X18336941Y38268993D01*
X19042948Y38975000D01*
X19194347Y38975000D01*
X19414873Y39066344D01*
X19583656Y39235127D01*
X19593230Y39258241D01*
X19735127Y39116344D01*
X19955653Y39025000D01*
X20194347Y39025000D01*
X20301411Y39069347D01*
X23350000Y39069347D01*
X23350000Y38830653D01*
X23441344Y38610127D01*
X23610127Y38441344D01*
X23830653Y38350000D01*
X24069347Y38350000D01*
X24289873Y38441344D01*
X24458656Y38610127D01*
X24550000Y38830653D01*
X24550000Y39069347D01*
X24458656Y39289873D01*
X24289873Y39458656D01*
X24069347Y39550000D01*
X23830653Y39550000D01*
X23610127Y39458656D01*
X23441344Y39289873D01*
X23350000Y39069347D01*
X20301411Y39069347D01*
X20414873Y39116344D01*
X20583656Y39285127D01*
X20675000Y39505653D01*
X20675000Y39744347D01*
X20583656Y39964873D01*
X20414873Y40133656D01*
X20194347Y40225000D01*
X19955653Y40225000D01*
X19735127Y40133656D01*
X19566344Y39964873D01*
X19556770Y39941759D01*
X19414873Y40083656D01*
X19194347Y40175000D01*
X18955653Y40175000D01*
X18735127Y40083656D01*
X18662500Y40011029D01*
X18514873Y40158656D01*
X18294347Y40250000D01*
X18055653Y40250000D01*
X17835127Y40158656D01*
X17666344Y39989873D01*
X17650000Y39950415D01*
X17633656Y39989873D01*
X17464873Y40158656D01*
X17244347Y40250000D01*
X17092948Y40250000D01*
X16868541Y40474407D01*
X16846138Y40507936D01*
X16713297Y40596697D01*
X16596151Y40619999D01*
X16596150Y40619999D01*
X16556601Y40627866D01*
X16517052Y40619999D01*
X15649877Y40619999D01*
X15675000Y40680653D01*
X15675000Y40919347D01*
X15583656Y41139873D01*
X15414873Y41308656D01*
X15194347Y41400000D01*
X14955653Y41400000D01*
X14735127Y41308656D01*
X14566344Y41139873D01*
X14475000Y40919347D01*
X14475000Y40680653D01*
X14497389Y40626600D01*
X9593922Y40626600D01*
X9689873Y40666344D01*
X9858656Y40835127D01*
X9950000Y41055653D01*
X9950000Y41294347D01*
X9858656Y41514873D01*
X9689873Y41683656D01*
X9469347Y41775000D01*
X9230653Y41775000D01*
X9010127Y41683656D01*
X8841344Y41514873D01*
X8750000Y41294347D01*
X8750000Y41055653D01*
X8812016Y40905932D01*
X6601600Y43116348D01*
X6601600Y44260456D01*
X6609466Y44300001D01*
X6601600Y44339546D01*
X6601600Y44339550D01*
X6578298Y44456696D01*
X6489537Y44589537D01*
X6456008Y44611940D01*
X5383403Y45684545D01*
X5401276Y45711293D01*
X5490529Y46160000D01*
X5401276Y46608707D01*
X5147103Y46989103D01*
X4766707Y47243276D01*
X4431261Y47310000D01*
X4204739Y47310000D01*
X3869293Y47243276D01*
X3488897Y46989103D01*
X3234724Y46608707D01*
X3145471Y46160000D01*
X2950529Y46160000D01*
X2861276Y46608707D01*
X2607103Y46989103D01*
X2226707Y47243276D01*
X1891261Y47310000D01*
X1664739Y47310000D01*
X1329293Y47243276D01*
X948897Y46989103D01*
X694724Y46608707D01*
X605471Y46160000D01*
X375000Y46160000D01*
X375000Y49550000D01*
X622123Y49550000D01*
X622123Y47850000D01*
X645407Y47732946D01*
X711712Y47633712D01*
X810946Y47567407D01*
X928000Y47544123D01*
X2628000Y47544123D01*
X2745054Y47567407D01*
X2844288Y47633712D01*
X2910593Y47732946D01*
X2933877Y47850000D01*
X2933877Y49550000D01*
X3162123Y49550000D01*
X3162123Y47850000D01*
X3185407Y47732946D01*
X3251712Y47633712D01*
X3350946Y47567407D01*
X3468000Y47544123D01*
X5168000Y47544123D01*
X5285054Y47567407D01*
X5384288Y47633712D01*
X5450593Y47732946D01*
X5473877Y47850000D01*
X5473877Y48619347D01*
X13000000Y48619347D01*
X13000000Y48380653D01*
X13091344Y48160127D01*
X13260127Y47991344D01*
X13480653Y47900000D01*
X13719347Y47900000D01*
X13939873Y47991344D01*
X14108656Y48160127D01*
X14200000Y48380653D01*
X14200000Y48619347D01*
X14108656Y48839873D01*
X13939873Y49008656D01*
X13719347Y49100000D01*
X13480653Y49100000D01*
X13260127Y49008656D01*
X13091344Y48839873D01*
X13000000Y48619347D01*
X5473877Y48619347D01*
X5473877Y49550000D01*
X5450593Y49667054D01*
X5384288Y49766288D01*
X5285054Y49832593D01*
X5168000Y49855877D01*
X3468000Y49855877D01*
X3350946Y49832593D01*
X3251712Y49766288D01*
X3185407Y49667054D01*
X3162123Y49550000D01*
X2933877Y49550000D01*
X2910593Y49667054D01*
X2844288Y49766288D01*
X2745054Y49832593D01*
X2628000Y49855877D01*
X928000Y49855877D01*
X810946Y49832593D01*
X711712Y49766288D01*
X645407Y49667054D01*
X622123Y49550000D01*
X375000Y49550000D01*
X375000Y50019347D01*
X8025000Y50019347D01*
X8025000Y49780653D01*
X8116344Y49560127D01*
X8285127Y49391344D01*
X8505653Y49300000D01*
X8744347Y49300000D01*
X8964873Y49391344D01*
X9084629Y49511100D01*
X16375000Y49511100D01*
X16375000Y49225000D01*
X16382612Y49186732D01*
X16404289Y49154289D01*
X16704289Y48854289D01*
X16736732Y48832612D01*
X16775000Y48825000D01*
X17225000Y48825000D01*
X17263268Y48832612D01*
X17295711Y48854289D01*
X17595711Y49154289D01*
X17617388Y49186732D01*
X17625000Y49225000D01*
X17625000Y49575000D01*
X17617388Y49613268D01*
X17595711Y49645711D01*
X17341422Y49900000D01*
X17369347Y49900000D01*
X17589873Y49991344D01*
X17758656Y50160127D01*
X17850000Y50380653D01*
X17850000Y50619347D01*
X17758656Y50839873D01*
X17589873Y51008656D01*
X17460693Y51062164D01*
X17608656Y51210127D01*
X17700000Y51430653D01*
X17700000Y51669347D01*
X17608656Y51889873D01*
X17587429Y51911100D01*
X20940371Y51911100D01*
X21060127Y51791344D01*
X21280653Y51700000D01*
X21519347Y51700000D01*
X21739873Y51791344D01*
X21908656Y51960127D01*
X22000000Y52180653D01*
X22000000Y52419347D01*
X21908656Y52639873D01*
X21739873Y52808656D01*
X21519347Y52900000D01*
X21280653Y52900000D01*
X21060127Y52808656D01*
X20940371Y52688900D01*
X16686088Y52688900D01*
X16500000Y52874987D01*
X16500000Y53044347D01*
X16408656Y53264873D01*
X16239873Y53433656D01*
X16019347Y53525000D01*
X15780653Y53525000D01*
X15560127Y53433656D01*
X15391344Y53264873D01*
X15300000Y53044347D01*
X15300000Y52805653D01*
X15391344Y52585127D01*
X15560127Y52416344D01*
X15780653Y52325000D01*
X15950013Y52325000D01*
X16222923Y52052089D01*
X16244619Y52019619D01*
X16277089Y51997923D01*
X16277090Y51997922D01*
X16324364Y51966335D01*
X16365423Y51938900D01*
X9859059Y51938900D01*
X9858656Y51939873D01*
X9689873Y52108656D01*
X9469347Y52200000D01*
X9230653Y52200000D01*
X9010127Y52108656D01*
X8841344Y51939873D01*
X8750000Y51719347D01*
X8750000Y51480653D01*
X8841344Y51260127D01*
X9010127Y51091344D01*
X9230653Y51000000D01*
X9469347Y51000000D01*
X9689873Y51091344D01*
X9759629Y51161100D01*
X15886739Y51161100D01*
X15760127Y51108656D01*
X15591344Y50939873D01*
X15500000Y50719347D01*
X15500000Y50480653D01*
X15579426Y50288900D01*
X13761995Y50288900D01*
X13800000Y50380653D01*
X13800000Y50619347D01*
X13708656Y50839873D01*
X13539873Y51008656D01*
X13319347Y51100000D01*
X13080653Y51100000D01*
X12860127Y51008656D01*
X12691344Y50839873D01*
X12600000Y50619347D01*
X12600000Y50380653D01*
X12638005Y50288900D01*
X9084629Y50288900D01*
X8964873Y50408656D01*
X8744347Y50500000D01*
X8505653Y50500000D01*
X8285127Y50408656D01*
X8116344Y50239873D01*
X8025000Y50019347D01*
X375000Y50019347D01*
X375000Y52019347D01*
X3800000Y52019347D01*
X3800000Y51780653D01*
X3891344Y51560127D01*
X4060127Y51391344D01*
X4280653Y51300000D01*
X4519347Y51300000D01*
X4739873Y51391344D01*
X4908656Y51560127D01*
X5000000Y51780653D01*
X5000000Y52019347D01*
X4908656Y52239873D01*
X4739873Y52408656D01*
X4519347Y52500000D01*
X4280653Y52500000D01*
X4060127Y52408656D01*
X3891344Y52239873D01*
X3800000Y52019347D01*
X375000Y52019347D01*
X375000Y53919347D01*
X700000Y53919347D01*
X700000Y53680653D01*
X791344Y53460127D01*
X960127Y53291344D01*
X1180653Y53200000D01*
X1419347Y53200000D01*
X1639873Y53291344D01*
X1808656Y53460127D01*
X1900000Y53680653D01*
X1900000Y53919347D01*
X1879290Y53969347D01*
X4800000Y53969347D01*
X4800000Y53730653D01*
X4891344Y53510127D01*
X5060127Y53341344D01*
X5280653Y53250000D01*
X5519347Y53250000D01*
X5739873Y53341344D01*
X5908656Y53510127D01*
X6000000Y53730653D01*
X6000000Y53882052D01*
X6406346Y54288398D01*
X21183071Y54288398D01*
X21290127Y54181342D01*
X21510653Y54089998D01*
X21749347Y54089998D01*
X21969873Y54181342D01*
X22138656Y54350125D01*
X22230000Y54570651D01*
X22230000Y54809345D01*
X22138656Y55029871D01*
X21969873Y55198654D01*
X21749347Y55289998D01*
X21510653Y55289998D01*
X21290127Y55198654D01*
X21183071Y55091598D01*
X6279548Y55091598D01*
X6239998Y55099465D01*
X6200448Y55091598D01*
X6083302Y55068296D01*
X5950461Y54979535D01*
X5928057Y54946005D01*
X5432052Y54450000D01*
X5280653Y54450000D01*
X5060127Y54358656D01*
X4891344Y54189873D01*
X4800000Y53969347D01*
X1879290Y53969347D01*
X1808656Y54139873D01*
X1639873Y54308656D01*
X1419347Y54400000D01*
X1180653Y54400000D01*
X960127Y54308656D01*
X791344Y54139873D01*
X700000Y53919347D01*
X375000Y53919347D01*
X375000Y55639239D01*
X2300000Y55639239D01*
X2300000Y55360761D01*
X2406568Y55103482D01*
X2603482Y54906568D01*
X2860761Y54800000D01*
X3139239Y54800000D01*
X3396518Y54906568D01*
X3593432Y55103482D01*
X3700000Y55360761D01*
X3700000Y55639239D01*
X3593432Y55896518D01*
X3396518Y56093432D01*
X3333954Y56119347D01*
X8800000Y56119347D01*
X8800000Y55880653D01*
X8891344Y55660127D01*
X9060127Y55491344D01*
X9280653Y55400000D01*
X9519347Y55400000D01*
X9739873Y55491344D01*
X9908656Y55660127D01*
X10000000Y55880653D01*
X10000000Y56119347D01*
X9958580Y56219347D01*
X10600000Y56219347D01*
X10600000Y55980653D01*
X10691344Y55760127D01*
X10860127Y55591344D01*
X11080653Y55500000D01*
X11319347Y55500000D01*
X11539873Y55591344D01*
X11708656Y55760127D01*
X11800000Y55980653D01*
X11800000Y56219347D01*
X11708656Y56439873D01*
X11539873Y56608656D01*
X11319347Y56700000D01*
X11080653Y56700000D01*
X10860127Y56608656D01*
X10691344Y56439873D01*
X10600000Y56219347D01*
X9958580Y56219347D01*
X9908656Y56339873D01*
X9739873Y56508656D01*
X9519347Y56600000D01*
X9280653Y56600000D01*
X9060127Y56508656D01*
X8891344Y56339873D01*
X8800000Y56119347D01*
X3333954Y56119347D01*
X3139239Y56200000D01*
X2860761Y56200000D01*
X2603482Y56093432D01*
X2406568Y55896518D01*
X2300000Y55639239D01*
X375000Y55639239D01*
X375000Y60919347D01*
X6100000Y60919347D01*
X6100000Y60680653D01*
X6191344Y60460127D01*
X6360127Y60291344D01*
X6580653Y60200000D01*
X6819347Y60200000D01*
X7039873Y60291344D01*
X7146929Y60398400D01*
X18183652Y60398400D01*
X19550000Y59032052D01*
X19550000Y58880653D01*
X19641344Y58660127D01*
X19810127Y58491344D01*
X20030653Y58400000D01*
X20269347Y58400000D01*
X20489873Y58491344D01*
X20658656Y58660127D01*
X20750000Y58880653D01*
X20750000Y59119347D01*
X20658656Y59339873D01*
X20489873Y59508656D01*
X20269347Y59600000D01*
X20117948Y59600000D01*
X18661941Y61056007D01*
X18639537Y61089537D01*
X18506696Y61178298D01*
X18389550Y61201600D01*
X18389549Y61201600D01*
X18350000Y61209467D01*
X18310451Y61201600D01*
X7146929Y61201600D01*
X7039873Y61308656D01*
X6819347Y61400000D01*
X6580653Y61400000D01*
X6360127Y61308656D01*
X6191344Y61139873D01*
X6100000Y60919347D01*
X375000Y60919347D01*
X375000Y63828749D01*
X7450000Y63828749D01*
X7450000Y63371251D01*
X7625077Y62948577D01*
X7948577Y62625077D01*
X8371251Y62450000D01*
X8828749Y62450000D01*
X9251423Y62625077D01*
X9445693Y62819347D01*
X14425000Y62819347D01*
X14425000Y62580653D01*
X14516344Y62360127D01*
X14626471Y62250000D01*
X14541344Y62164873D01*
X14450000Y61944347D01*
X14450000Y61705653D01*
X14541344Y61485127D01*
X14710127Y61316344D01*
X14930653Y61225000D01*
X15169347Y61225000D01*
X15389873Y61316344D01*
X15558656Y61485127D01*
X15650000Y61705653D01*
X15650000Y61944347D01*
X15558656Y62164873D01*
X15448529Y62275000D01*
X15533656Y62360127D01*
X15625000Y62580653D01*
X15625000Y62819347D01*
X15533656Y63039873D01*
X15364873Y63208656D01*
X15144347Y63300000D01*
X14905653Y63300000D01*
X14685127Y63208656D01*
X14516344Y63039873D01*
X14425000Y62819347D01*
X9445693Y62819347D01*
X9574923Y62948577D01*
X9750000Y63371251D01*
X9750000Y63828749D01*
X9574923Y64251423D01*
X9251423Y64574923D01*
X8828749Y64750000D01*
X8371251Y64750000D01*
X7948577Y64574923D01*
X7625077Y64251423D01*
X7450000Y63828749D01*
X375000Y63828749D01*
X375000Y66608042D01*
X950000Y66608042D01*
X950000Y65891958D01*
X1224034Y65230382D01*
X1730382Y64724034D01*
X2391958Y64450000D01*
X3108042Y64450000D01*
X3769618Y64724034D01*
X4264931Y65219347D01*
X21200000Y65219347D01*
X21200000Y64980653D01*
X21291344Y64760127D01*
X21460127Y64591344D01*
X21680653Y64500000D01*
X21919347Y64500000D01*
X22139873Y64591344D01*
X22308656Y64760127D01*
X22400000Y64980653D01*
X22400000Y65219347D01*
X22308656Y65439873D01*
X22139873Y65608656D01*
X21919347Y65700000D01*
X21680653Y65700000D01*
X21460127Y65608656D01*
X21291344Y65439873D01*
X21200000Y65219347D01*
X4264931Y65219347D01*
X4275966Y65230382D01*
X4550000Y65891958D01*
X4550000Y66608042D01*
X4275966Y67269618D01*
X3926237Y67619347D01*
X11600000Y67619347D01*
X11600000Y67380653D01*
X11691344Y67160127D01*
X11860127Y66991344D01*
X12080653Y66900000D01*
X12319347Y66900000D01*
X12539873Y66991344D01*
X12708656Y67160127D01*
X12800000Y67380653D01*
X12800000Y67619347D01*
X12708656Y67839873D01*
X12539873Y68008656D01*
X12319347Y68100000D01*
X12080653Y68100000D01*
X11860127Y68008656D01*
X11691344Y67839873D01*
X11600000Y67619347D01*
X3926237Y67619347D01*
X3769618Y67775966D01*
X3108042Y68050000D01*
X2391958Y68050000D01*
X1730382Y67775966D01*
X1224034Y67269618D01*
X950000Y66608042D01*
X375000Y66608042D01*
X375000Y70828749D01*
X7450000Y70828749D01*
X7450000Y70371251D01*
X7625077Y69948577D01*
X7948577Y69625077D01*
X8371251Y69450000D01*
X8828749Y69450000D01*
X9251423Y69625077D01*
X9574923Y69948577D01*
X9750000Y70371251D01*
X9750000Y70828749D01*
X9574923Y71251423D01*
X9472181Y71354165D01*
X14456193Y71354165D01*
X14456193Y71285135D01*
X14499403Y70786233D01*
X14507236Y70755723D01*
X14509708Y70724318D01*
X14532068Y70659011D01*
X14734551Y70201003D01*
X14751844Y70174677D01*
X14764356Y70145763D01*
X14806665Y70091219D01*
X15146588Y69723494D01*
X15171476Y69704189D01*
X15192679Y69680887D01*
X15250374Y69642989D01*
X15691083Y69405195D01*
X15720884Y69394992D01*
X15748490Y69379815D01*
X15815351Y69362648D01*
X16309325Y69280428D01*
X16440675Y69280428D01*
X16497839Y69300000D01*
X20573927Y69300000D01*
X20665485Y69276492D01*
X20734514Y69276492D01*
X20996707Y69299200D01*
X21012037Y69303136D01*
X21027867Y69303136D01*
X21094727Y69320303D01*
X21567209Y69486227D01*
X21594810Y69501401D01*
X21624617Y69511606D01*
X21682312Y69549505D01*
X22075575Y69859529D01*
X22096774Y69882827D01*
X22121666Y69902135D01*
X22163974Y69956679D01*
X22435613Y70377372D01*
X22448122Y70406279D01*
X22465419Y70432611D01*
X22487779Y70497919D01*
X22608502Y70983920D01*
X22610973Y71015321D01*
X22618808Y71045835D01*
X22618807Y71114865D01*
X22575597Y71613767D01*
X22567764Y71644277D01*
X22565292Y71675682D01*
X22542932Y71740989D01*
X22340449Y72198997D01*
X22323154Y72225327D01*
X22310643Y72254237D01*
X22268334Y72308781D01*
X21928412Y72676507D01*
X21903522Y72695814D01*
X21882321Y72719113D01*
X21824626Y72757011D01*
X21383917Y72994805D01*
X21354116Y73005008D01*
X21326510Y73020185D01*
X21259649Y73037352D01*
X20765675Y73119572D01*
X20634325Y73119572D01*
X20577161Y73100000D01*
X16501074Y73100000D01*
X16409516Y73123508D01*
X16340486Y73123508D01*
X16078294Y73100800D01*
X16062964Y73096864D01*
X16047133Y73096864D01*
X15980272Y73079697D01*
X15507791Y72913773D01*
X15480189Y72898599D01*
X15450383Y72888394D01*
X15392688Y72850495D01*
X14999425Y72540471D01*
X14978223Y72517170D01*
X14953335Y72497865D01*
X14911026Y72443321D01*
X14639387Y72022628D01*
X14626877Y71993718D01*
X14609581Y71967388D01*
X14587221Y71902080D01*
X14466498Y71416080D01*
X14464026Y71384674D01*
X14456193Y71354165D01*
X9472181Y71354165D01*
X9251423Y71574923D01*
X8828749Y71750000D01*
X8371251Y71750000D01*
X7948577Y71574923D01*
X7625077Y71251423D01*
X7450000Y70828749D01*
X375000Y70828749D01*
X375000Y72963063D01*
X429363Y73236367D01*
X563253Y73436747D01*
X763632Y73570637D01*
X1036936Y73625000D01*
X23074254Y73625000D01*
X23025214Y50625765D01*
X23025214Y50625765D01*
G37*
X23025214Y50625765D02*
X19850763Y50649997D01*
X19812438Y50642677D01*
X19779831Y50621248D01*
X19757907Y50588972D01*
X19750013Y50548413D01*
X19753981Y50298413D01*
X19762199Y50260270D01*
X19784388Y50228176D01*
X19817171Y50207016D01*
X19853968Y50200000D01*
X23290625Y50200000D01*
X23328893Y50207612D01*
X23361336Y50229289D01*
X23383013Y50261732D01*
X23390623Y50299298D01*
X23406385Y52544347D01*
X25025000Y52544347D01*
X25025000Y52305653D01*
X25116344Y52085127D01*
X25285127Y51916344D01*
X25505653Y51825000D01*
X25744347Y51825000D01*
X25964873Y51916344D01*
X26133656Y52085127D01*
X26225000Y52305653D01*
X26225000Y52544347D01*
X26133656Y52764873D01*
X25964873Y52933656D01*
X25744347Y53025000D01*
X25505653Y53025000D01*
X25285127Y52933656D01*
X25116344Y52764873D01*
X25025000Y52544347D01*
X23406385Y52544347D01*
X23549301Y72900000D01*
X26699644Y72900000D01*
X26650001Y58950356D01*
X26650000Y58950000D01*
X26650000Y51540838D01*
X25429522Y50295786D01*
X25419349Y50300000D01*
X25180655Y50300000D01*
X24960129Y50208656D01*
X24791346Y50039873D01*
X24700002Y49819347D01*
X24700002Y49580653D01*
X24708468Y49560215D01*
X23062220Y47880821D01*
X22919347Y47940000D01*
X22680653Y47940000D01*
X22460127Y47848656D01*
X22411471Y47800000D01*
X21273529Y47800000D01*
X21358656Y47885127D01*
X21450000Y48105653D01*
X21450000Y48344347D01*
X21358656Y48564873D01*
X21189873Y48733656D01*
X20969347Y48825000D01*
X20730653Y48825000D01*
X20510127Y48733656D01*
X20341344Y48564873D01*
X20250000Y48344347D01*
X20250000Y48105653D01*
X20341344Y47885127D01*
X20426471Y47800000D01*
X19975000Y47800000D01*
X19936732Y47792388D01*
X19904289Y47770711D01*
X19882612Y47738268D01*
X19880749Y47728900D01*
X15359830Y47728900D01*
X15389873Y47741344D01*
X15558656Y47910127D01*
X15650000Y48130653D01*
X15650000Y48369347D01*
X15558656Y48589873D01*
X15389873Y48758656D01*
X15169347Y48850000D01*
X14930653Y48850000D01*
X14710127Y48758656D01*
X14541344Y48589873D01*
X14450000Y48369347D01*
X14450000Y48130653D01*
X14541344Y47910127D01*
X14710127Y47741344D01*
X14740170Y47728900D01*
X8978298Y47728900D01*
X8940000Y47736518D01*
X8901701Y47728900D01*
X8901696Y47728900D01*
X8788259Y47706336D01*
X8659619Y47620381D01*
X8637921Y47587908D01*
X7750014Y46700000D01*
X7580653Y46700000D01*
X7360127Y46608656D01*
X7191344Y46439873D01*
X7100000Y46219347D01*
X7100000Y45980653D01*
X7191344Y45760127D01*
X7360127Y45591344D01*
X7580653Y45500000D01*
X7819347Y45500000D01*
X8039873Y45591344D01*
X8208656Y45760127D01*
X8300000Y45980653D01*
X8300000Y46150014D01*
X9101087Y46951100D01*
X9702571Y46951100D01*
X9591344Y46839873D01*
X9500000Y46619347D01*
X9500000Y46380653D01*
X9591344Y46160127D01*
X9760127Y45991344D01*
X9980653Y45900000D01*
X10219347Y45900000D01*
X10439873Y45991344D01*
X10608656Y46160127D01*
X10700000Y46380653D01*
X10700000Y46619347D01*
X10608656Y46839873D01*
X10497429Y46951100D01*
X13729573Y46951100D01*
X13675000Y46819347D01*
X13675000Y46580653D01*
X13766344Y46360127D01*
X13935127Y46191344D01*
X14155653Y46100000D01*
X14394347Y46100000D01*
X14614873Y46191344D01*
X14783656Y46360127D01*
X14875000Y46580653D01*
X14875000Y46819347D01*
X14820427Y46951100D01*
X22340371Y46951100D01*
X22356471Y46935000D01*
X22301344Y46879873D01*
X22210000Y46659347D01*
X22210000Y46489987D01*
X21258914Y45538900D01*
X9288298Y45538900D01*
X9249999Y45546518D01*
X9211701Y45538900D01*
X9211696Y45538900D01*
X9098259Y45516336D01*
X8969619Y45430381D01*
X8947921Y45397908D01*
X7750014Y44200000D01*
X7580653Y44200000D01*
X7360127Y44108656D01*
X7191344Y43939873D01*
X7100000Y43719347D01*
X7100000Y43480653D01*
X7191344Y43260127D01*
X7360127Y43091344D01*
X7580653Y43000000D01*
X7819347Y43000000D01*
X8039873Y43091344D01*
X8208656Y43260127D01*
X8300000Y43480653D01*
X8300000Y43650014D01*
X9411087Y44761100D01*
X21381702Y44761100D01*
X21420000Y44753482D01*
X21458298Y44761100D01*
X21458304Y44761100D01*
X21571741Y44783664D01*
X21700381Y44869619D01*
X21722081Y44902095D01*
X22759987Y45940000D01*
X22842052Y45940000D01*
X23568059Y45213993D01*
X23582761Y45191990D01*
X23541344Y45150573D01*
X23450000Y44930047D01*
X23450000Y44778649D01*
X22647952Y43976600D01*
X12696929Y43976600D01*
X12589873Y44083656D01*
X12369347Y44175000D01*
X12130653Y44175000D01*
X11910127Y44083656D01*
X11741344Y43914873D01*
X11650000Y43694347D01*
X11650000Y43455653D01*
X11741344Y43235127D01*
X11876471Y43100000D01*
X11766344Y42989873D01*
X11675000Y42769347D01*
X11675000Y42530653D01*
X11728455Y42401599D01*
X11464549Y42401599D01*
X11424999Y42409466D01*
X11268302Y42378297D01*
X11208084Y42338060D01*
X11151123Y42300000D01*
X11005653Y42300000D01*
X10785127Y42208656D01*
X10616344Y42039873D01*
X10525000Y41819347D01*
X10525000Y41580653D01*
X10616344Y41360127D01*
X10785127Y41191344D01*
X11005653Y41100000D01*
X11244347Y41100000D01*
X11464873Y41191344D01*
X11633656Y41360127D01*
X11725000Y41580653D01*
X11725000Y41598399D01*
X22565123Y41598399D01*
X22540000Y41537746D01*
X22540000Y41299052D01*
X22631344Y41078526D01*
X22800127Y40909743D01*
X23020653Y40818399D01*
X23259347Y40818399D01*
X23479873Y40909743D01*
X23648656Y41078526D01*
X23740000Y41299052D01*
X23740000Y41537746D01*
X23714877Y41598399D01*
X29549870Y41598399D01*
X29441344Y41489873D01*
X29350000Y41269347D01*
X29350000Y41030653D01*
X29441344Y40810127D01*
X29610127Y40641344D01*
X29830653Y40550000D01*
X30069347Y40550000D01*
X30289873Y40641344D01*
X30458656Y40810127D01*
X30550000Y41030653D01*
X30550000Y41269347D01*
X30458656Y41489873D01*
X30350130Y41598399D01*
X31785450Y41598399D01*
X31824999Y41590532D01*
X31864548Y41598399D01*
X31864549Y41598399D01*
X31981695Y41621701D01*
X32114536Y41710462D01*
X32136939Y41743991D01*
X32341349Y41948400D01*
X32719233Y41948400D01*
X32670897Y41916103D01*
X32416724Y41535707D01*
X32327471Y41087000D01*
X32416724Y40638293D01*
X32670897Y40257897D01*
X32755151Y40201600D01*
X26564549Y40201600D01*
X26525000Y40209467D01*
X26485451Y40201600D01*
X26485450Y40201600D01*
X26368304Y40178298D01*
X26235463Y40089537D01*
X26213060Y40056008D01*
X23558652Y37401600D01*
X22146929Y37401600D01*
X22039873Y37508656D01*
X21819347Y37600000D01*
X21580653Y37600000D01*
X21360127Y37508656D01*
X21191344Y37339873D01*
X21100000Y37119347D01*
X21100000Y36880653D01*
X21191344Y36660127D01*
X21360127Y36491344D01*
X21580653Y36400000D01*
X21819347Y36400000D01*
X22039873Y36491344D01*
X22146929Y36598400D01*
X23685451Y36598400D01*
X23725000Y36590533D01*
X23764549Y36598400D01*
X23764550Y36598400D01*
X23881696Y36621702D01*
X24014537Y36710463D01*
X24036941Y36743993D01*
X24750000Y37457052D01*
X24750000Y37380653D01*
X24841344Y37160127D01*
X25010127Y36991344D01*
X25230653Y36900000D01*
X25469347Y36900000D01*
X25689873Y36991344D01*
X25858656Y37160127D01*
X25950000Y37380653D01*
X25950000Y37619347D01*
X25858656Y37839873D01*
X25689873Y38008656D01*
X25469347Y38100000D01*
X25392948Y38100000D01*
X26691348Y39398400D01*
X32704267Y39398400D01*
X32670897Y39376103D01*
X32416724Y38995707D01*
X32327471Y38547000D01*
X32416724Y38098293D01*
X32670897Y37717897D01*
X33051293Y37463724D01*
X33386739Y37397000D01*
X33613261Y37397000D01*
X33948707Y37463724D01*
X34329103Y37717897D01*
X34583276Y38098293D01*
X34671136Y38540000D01*
X35027471Y38540000D01*
X35116724Y38091293D01*
X35370897Y37710897D01*
X35751293Y37456724D01*
X36086739Y37390000D01*
X36313261Y37390000D01*
X36648707Y37456724D01*
X37029103Y37710897D01*
X37283276Y38091293D01*
X37372529Y38540000D01*
X37283276Y38988707D01*
X37029103Y39369103D01*
X36648707Y39623276D01*
X36313261Y39690000D01*
X36086739Y39690000D01*
X35751293Y39623276D01*
X35370897Y39369103D01*
X35116724Y38988707D01*
X35027471Y38540000D01*
X34671136Y38540000D01*
X34672529Y38547000D01*
X34583276Y38995707D01*
X34329103Y39376103D01*
X34295733Y39398400D01*
X34780451Y39398400D01*
X34820000Y39390533D01*
X34859549Y39398400D01*
X34859550Y39398400D01*
X34976696Y39421702D01*
X35109537Y39510463D01*
X35131941Y39543993D01*
X35651411Y40063463D01*
X35751293Y39996724D01*
X36086739Y39930000D01*
X36313261Y39930000D01*
X36648707Y39996724D01*
X37029103Y40250897D01*
X37283276Y40631293D01*
X37372529Y41080000D01*
X37283276Y41528707D01*
X37029103Y41909103D01*
X36648707Y42163276D01*
X36313261Y42230000D01*
X36086739Y42230000D01*
X35751293Y42163276D01*
X35370897Y41909103D01*
X35116724Y41528707D01*
X35027471Y41080000D01*
X35111186Y40659134D01*
X34653652Y40201600D01*
X34244849Y40201600D01*
X34329103Y40257897D01*
X34583276Y40638293D01*
X34672529Y41087000D01*
X34583276Y41535707D01*
X34329103Y41916103D01*
X34280767Y41948400D01*
X34790451Y41948400D01*
X34830000Y41940533D01*
X34869549Y41948400D01*
X34869550Y41948400D01*
X34986696Y41971702D01*
X35119537Y42060463D01*
X35141941Y42093993D01*
X35651411Y42603463D01*
X35751293Y42536724D01*
X36086739Y42470000D01*
X36313261Y42470000D01*
X36648707Y42536724D01*
X37029103Y42790897D01*
X37283276Y43171293D01*
X37372529Y43620000D01*
X37283276Y44068707D01*
X37029103Y44449103D01*
X36648707Y44703276D01*
X36313261Y44770000D01*
X36086739Y44770000D01*
X35751293Y44703276D01*
X35370897Y44449103D01*
X35116724Y44068707D01*
X35027471Y43620000D01*
X35111186Y43199134D01*
X34663652Y42751600D01*
X34259815Y42751600D01*
X34329103Y42797897D01*
X34583276Y43178293D01*
X34672529Y43627000D01*
X34583276Y44075707D01*
X34329103Y44456103D01*
X34228386Y44523400D01*
X34825451Y44523400D01*
X34865000Y44515533D01*
X34904549Y44523400D01*
X34904550Y44523400D01*
X35021696Y44546702D01*
X35154537Y44635463D01*
X35176941Y44668993D01*
X35651411Y45143463D01*
X35751293Y45076724D01*
X36086739Y45010000D01*
X36313261Y45010000D01*
X36648707Y45076724D01*
X37029103Y45330897D01*
X37283276Y45711293D01*
X37372529Y46160000D01*
X37283276Y46608707D01*
X37029103Y46989103D01*
X36648707Y47243276D01*
X36313261Y47310000D01*
X36086739Y47310000D01*
X35751293Y47243276D01*
X35370897Y46989103D01*
X35116724Y46608707D01*
X35027471Y46160000D01*
X35111186Y45739134D01*
X34698652Y45326600D01*
X34312196Y45326600D01*
X34329103Y45337897D01*
X34583276Y45718293D01*
X34672529Y46167000D01*
X34583276Y46615707D01*
X34329103Y46996103D01*
X33948707Y47250276D01*
X33613261Y47317000D01*
X33386739Y47317000D01*
X33051293Y47250276D01*
X32670897Y46996103D01*
X32416724Y46615707D01*
X32384399Y46453200D01*
X30008735Y46453200D01*
X30049537Y46480463D01*
X30071941Y46513993D01*
X31863348Y48305400D01*
X32344123Y48305400D01*
X32344123Y47857000D01*
X32367407Y47739946D01*
X32433712Y47640712D01*
X32532946Y47574407D01*
X32650000Y47551123D01*
X34350000Y47551123D01*
X34467054Y47574407D01*
X34566288Y47640712D01*
X34632593Y47739946D01*
X34655877Y47857000D01*
X34655877Y49550000D01*
X35044123Y49550000D01*
X35044123Y47850000D01*
X35067407Y47732946D01*
X35133712Y47633712D01*
X35232946Y47567407D01*
X35350000Y47544123D01*
X37050000Y47544123D01*
X37167054Y47567407D01*
X37266288Y47633712D01*
X37332593Y47732946D01*
X37355877Y47850000D01*
X37355877Y49550000D01*
X37332593Y49667054D01*
X37266288Y49766288D01*
X37167054Y49832593D01*
X37050000Y49855877D01*
X35350000Y49855877D01*
X35232946Y49832593D01*
X35133712Y49766288D01*
X35067407Y49667054D01*
X35044123Y49550000D01*
X34655877Y49550000D01*
X34655877Y49557000D01*
X34632593Y49674054D01*
X34566288Y49773288D01*
X34467054Y49839593D01*
X34350000Y49862877D01*
X32650000Y49862877D01*
X32532946Y49839593D01*
X32433712Y49773288D01*
X32367407Y49674054D01*
X32344123Y49557000D01*
X32344123Y49108600D01*
X31736550Y49108600D01*
X31697000Y49116467D01*
X31540303Y49085298D01*
X31466480Y49035971D01*
X31407463Y48996537D01*
X31385059Y48963007D01*
X29593652Y47171600D01*
X27834829Y47171600D01*
X27880000Y47280653D01*
X27880000Y47519347D01*
X27801692Y47708400D01*
X28033071Y47708400D01*
X28150127Y47591344D01*
X28370653Y47500000D01*
X28609347Y47500000D01*
X28829873Y47591344D01*
X28998656Y47760127D01*
X29090000Y47980653D01*
X29090000Y48219347D01*
X28998656Y48439873D01*
X28829873Y48608656D01*
X28609347Y48700000D01*
X28370653Y48700000D01*
X28150127Y48608656D01*
X28053071Y48511600D01*
X24996929Y48511600D01*
X24889873Y48618656D01*
X24669766Y48709826D01*
X25022394Y49081013D01*
X25080270Y49141581D01*
X25180655Y49100000D01*
X25419349Y49100000D01*
X25639875Y49191344D01*
X25808658Y49360127D01*
X25900002Y49580653D01*
X25900002Y49819347D01*
X25847963Y49944981D01*
X27172299Y51330914D01*
X27193234Y51363841D01*
X27200000Y51400000D01*
X27200000Y51819347D01*
X36000000Y51819347D01*
X36000000Y51580653D01*
X36091344Y51360127D01*
X36260127Y51191344D01*
X36480653Y51100000D01*
X36719347Y51100000D01*
X36939873Y51191344D01*
X37108656Y51360127D01*
X37200000Y51580653D01*
X37200000Y51819347D01*
X37108656Y52039873D01*
X36939873Y52208656D01*
X36719347Y52300000D01*
X36480653Y52300000D01*
X36260127Y52208656D01*
X36091344Y52039873D01*
X36000000Y51819347D01*
X27200000Y51819347D01*
X27200000Y54444347D01*
X27875000Y54444347D01*
X27875000Y54205653D01*
X27966344Y53985127D01*
X28135127Y53816344D01*
X28355653Y53725000D01*
X28594347Y53725000D01*
X28814873Y53816344D01*
X28896929Y53898400D01*
X33003071Y53898400D01*
X33110127Y53791344D01*
X33330653Y53700000D01*
X33569347Y53700000D01*
X33789873Y53791344D01*
X33958656Y53960127D01*
X34050000Y54180653D01*
X34050000Y54219347D01*
X35900000Y54219347D01*
X35900000Y53980653D01*
X35991344Y53760127D01*
X36160127Y53591344D01*
X36380653Y53500000D01*
X36619347Y53500000D01*
X36839873Y53591344D01*
X37008656Y53760127D01*
X37100000Y53980653D01*
X37100000Y54219347D01*
X37008656Y54439873D01*
X36839873Y54608656D01*
X36619347Y54700000D01*
X36380653Y54700000D01*
X36160127Y54608656D01*
X35991344Y54439873D01*
X35900000Y54219347D01*
X34050000Y54219347D01*
X34050000Y54419347D01*
X33958656Y54639873D01*
X33789873Y54808656D01*
X33569347Y54900000D01*
X33330653Y54900000D01*
X33110127Y54808656D01*
X33003071Y54701600D01*
X28946929Y54701600D01*
X28814873Y54833656D01*
X28594347Y54925000D01*
X28355653Y54925000D01*
X28135127Y54833656D01*
X27966344Y54664873D01*
X27875000Y54444347D01*
X27200000Y54444347D01*
X27200000Y55639239D01*
X34300000Y55639239D01*
X34300000Y55360761D01*
X34406568Y55103482D01*
X34603482Y54906568D01*
X34860761Y54800000D01*
X35139239Y54800000D01*
X35396518Y54906568D01*
X35593432Y55103482D01*
X35700000Y55360761D01*
X35700000Y55639239D01*
X35593432Y55896518D01*
X35396518Y56093432D01*
X35139239Y56200000D01*
X34860761Y56200000D01*
X34603482Y56093432D01*
X34406568Y55896518D01*
X34300000Y55639239D01*
X27200000Y55639239D01*
X27200000Y63828749D01*
X28250000Y63828749D01*
X28250000Y63371251D01*
X28425077Y62948577D01*
X28748577Y62625077D01*
X29171251Y62450000D01*
X29628749Y62450000D01*
X30051423Y62625077D01*
X30374923Y62948577D01*
X30550000Y63371251D01*
X30550000Y63828749D01*
X30374923Y64251423D01*
X30051423Y64574923D01*
X29628749Y64750000D01*
X29171251Y64750000D01*
X28748577Y64574923D01*
X28425077Y64251423D01*
X28250000Y63828749D01*
X27200000Y63828749D01*
X27200000Y66608042D01*
X33950000Y66608042D01*
X33950000Y65891958D01*
X34224034Y65230382D01*
X34730382Y64724034D01*
X35391958Y64450000D01*
X36108042Y64450000D01*
X36769618Y64724034D01*
X37275966Y65230382D01*
X37550000Y65891958D01*
X37550000Y66608042D01*
X37275966Y67269618D01*
X36769618Y67775966D01*
X36108042Y68050000D01*
X35391958Y68050000D01*
X34730382Y67775966D01*
X34224034Y67269618D01*
X33950000Y66608042D01*
X27200000Y66608042D01*
X27200000Y70828749D01*
X28250000Y70828749D01*
X28250000Y70371251D01*
X28425077Y69948577D01*
X28748577Y69625077D01*
X29171251Y69450000D01*
X29628749Y69450000D01*
X30051423Y69625077D01*
X30374923Y69948577D01*
X30550000Y70371251D01*
X30550000Y70828749D01*
X30374923Y71251423D01*
X30051423Y71574923D01*
X29628749Y71750000D01*
X29171251Y71750000D01*
X28748577Y71574923D01*
X28425077Y71251423D01*
X28250000Y70828749D01*
X27200000Y70828749D01*
X27200000Y71769347D01*
X33000000Y71769347D01*
X33000000Y71530653D01*
X33091344Y71310127D01*
X33260127Y71141344D01*
X33480653Y71050000D01*
X33719347Y71050000D01*
X33939873Y71141344D01*
X34108656Y71310127D01*
X34200000Y71530653D01*
X34200000Y71769347D01*
X34108656Y71989873D01*
X33939873Y72158656D01*
X33719347Y72250000D01*
X33480653Y72250000D01*
X33260127Y72158656D01*
X33091344Y71989873D01*
X33000000Y71769347D01*
X27200000Y71769347D01*
X27200000Y73625000D01*
X36963063Y73625000D01*
X37236367Y73570637D01*
X37436747Y73436747D01*
X37570637Y73236368D01*
X37625001Y72963059D01*
X37625000Y12700000D01*
X34000000Y12700000D01*
X33961732Y12692388D01*
X33929289Y12670711D01*
X33907612Y12638268D01*
X33900000Y12600000D01*
X33900000Y375000D01*
X24423529Y375000D01*
X24508656Y460127D01*
X24600000Y680653D01*
X24600000Y919347D01*
X24508656Y1139873D01*
X24339873Y1308656D01*
X24119347Y1400000D01*
X23880653Y1400000D01*
X23800000Y1366593D01*
X23800000Y1569347D01*
X23708656Y1789873D01*
X23539873Y1958656D01*
X23319347Y2050000D01*
X23080653Y2050000D01*
X22860127Y1958656D01*
X22691344Y1789873D01*
X22600000Y1569347D01*
X22600000Y1330653D01*
X22691344Y1110127D01*
X22860127Y941344D01*
X23080653Y850000D01*
X23319347Y850000D01*
X23400000Y883407D01*
X23400000Y680653D01*
X23491344Y460127D01*
X23576471Y375000D01*
X1036936Y375000D01*
X763632Y429363D01*
X563253Y563253D01*
X429363Y763633D01*
X375000Y1036937D01*
X375000Y2608042D01*
X950000Y2608042D01*
X950000Y1891958D01*
X1224034Y1230382D01*
X1730382Y724034D01*
X2391958Y450000D01*
X3108042Y450000D01*
X3769618Y724034D01*
X4275966Y1230382D01*
X4346224Y1400000D01*
X8930409Y1400000D01*
X9008021Y1009819D01*
X9229040Y679040D01*
X9559819Y458021D01*
X9851510Y400000D01*
X10048490Y400000D01*
X10340181Y458021D01*
X10670960Y679040D01*
X10891979Y1009819D01*
X10969591Y1400000D01*
X15530409Y1400000D01*
X15608021Y1009819D01*
X15829040Y679040D01*
X16159819Y458021D01*
X16451510Y400000D01*
X16648490Y400000D01*
X16940181Y458021D01*
X17270960Y679040D01*
X17491979Y1009819D01*
X17569591Y1400000D01*
X17535906Y1569347D01*
X17950000Y1569347D01*
X17950000Y1330653D01*
X18041344Y1110127D01*
X18210127Y941344D01*
X18430653Y850000D01*
X18669347Y850000D01*
X18889873Y941344D01*
X19058656Y1110127D01*
X19150000Y1330653D01*
X19150000Y1569347D01*
X19058656Y1789873D01*
X18889873Y1958656D01*
X18669347Y2050000D01*
X18430653Y2050000D01*
X18210127Y1958656D01*
X18041344Y1789873D01*
X17950000Y1569347D01*
X17535906Y1569347D01*
X17491979Y1790181D01*
X17270960Y2120960D01*
X16940181Y2341979D01*
X16648490Y2400000D01*
X16451510Y2400000D01*
X16159819Y2341979D01*
X15829040Y2120960D01*
X15608021Y1790181D01*
X15530409Y1400000D01*
X10969591Y1400000D01*
X10891979Y1790181D01*
X10670960Y2120960D01*
X10340181Y2341979D01*
X10048490Y2400000D01*
X9851510Y2400000D01*
X9559819Y2341979D01*
X9229040Y2120960D01*
X9008021Y1790181D01*
X8930409Y1400000D01*
X4346224Y1400000D01*
X4550000Y1891958D01*
X4550000Y2608042D01*
X4275966Y3269618D01*
X3769618Y3775966D01*
X3108042Y4050000D01*
X2391958Y4050000D01*
X1730382Y3775966D01*
X1224034Y3269618D01*
X950000Y2608042D01*
X375000Y2608042D01*
X375000Y4449347D01*
X5800000Y4449347D01*
X5800000Y4210653D01*
X5891344Y3990127D01*
X6060127Y3821344D01*
X6280653Y3730000D01*
X6519347Y3730000D01*
X6739873Y3821344D01*
X6908656Y3990127D01*
X7000000Y4210653D01*
X7000000Y4449347D01*
X6908656Y4669873D01*
X6739873Y4838656D01*
X6519347Y4930000D01*
X6280653Y4930000D01*
X6060127Y4838656D01*
X5891344Y4669873D01*
X5800000Y4449347D01*
X375000Y4449347D01*
X375000Y7259347D01*
X7600000Y7259347D01*
X7600000Y7020653D01*
X7691344Y6800127D01*
X7798400Y6693071D01*
X7798400Y6676187D01*
X7798401Y6676182D01*
X7798400Y5379549D01*
X7790533Y5340000D01*
X7798400Y5300451D01*
X7821702Y5183305D01*
X7910463Y5050463D01*
X7943993Y5028059D01*
X8653059Y4318993D01*
X8675463Y4285463D01*
X8808304Y4196702D01*
X8925450Y4173400D01*
X8925454Y4173400D01*
X8964999Y4165534D01*
X9004544Y4173400D01*
X19024871Y4173400D01*
X18891344Y4039873D01*
X18828576Y3888335D01*
X18619347Y3975000D01*
X18380653Y3975000D01*
X18160127Y3883656D01*
X17991344Y3714873D01*
X17900000Y3494347D01*
X17900000Y3255653D01*
X17991344Y3035127D01*
X18160127Y2866344D01*
X18340363Y2791688D01*
X18788061Y2343990D01*
X18810463Y2310463D01*
X18843990Y2288061D01*
X18843991Y2288060D01*
X18900467Y2250325D01*
X18943304Y2221702D01*
X19060450Y2198400D01*
X19099999Y2190533D01*
X19139548Y2198400D01*
X24678071Y2198400D01*
X24785127Y2091344D01*
X25005653Y2000000D01*
X25244347Y2000000D01*
X25248819Y2001852D01*
X25225000Y1944347D01*
X25225000Y1705653D01*
X25316344Y1485127D01*
X25485127Y1316344D01*
X25705653Y1225000D01*
X25944347Y1225000D01*
X26164873Y1316344D01*
X26333656Y1485127D01*
X26425000Y1705653D01*
X26425000Y1944347D01*
X26333656Y2164873D01*
X26226600Y2271929D01*
X26226600Y2799871D01*
X26335127Y2691344D01*
X26555653Y2600000D01*
X26794347Y2600000D01*
X26813762Y2608042D01*
X29950000Y2608042D01*
X29950000Y1891958D01*
X30224034Y1230382D01*
X30730382Y724034D01*
X31391958Y450000D01*
X32108042Y450000D01*
X32769618Y724034D01*
X33275966Y1230382D01*
X33550000Y1891958D01*
X33550000Y2608042D01*
X33275966Y3269618D01*
X32769618Y3775966D01*
X32108042Y4050000D01*
X31391958Y4050000D01*
X30730382Y3775966D01*
X30224034Y3269618D01*
X29950000Y2608042D01*
X26813762Y2608042D01*
X27014873Y2691344D01*
X27183656Y2860127D01*
X27275000Y3080653D01*
X27275000Y3319347D01*
X27183656Y3539873D01*
X27026044Y3697485D01*
X26986940Y3756008D01*
X26964537Y3789537D01*
X26931007Y3811941D01*
X24286941Y6456007D01*
X24264537Y6489537D01*
X24131696Y6578298D01*
X24014550Y6601600D01*
X24014549Y6601600D01*
X23975000Y6609467D01*
X23935451Y6601600D01*
X22946545Y6601600D01*
X23000000Y6730653D01*
X23000000Y6969347D01*
X22908656Y7189873D01*
X22739873Y7358656D01*
X22519347Y7450000D01*
X22280653Y7450000D01*
X22060127Y7358656D01*
X21891344Y7189873D01*
X21800000Y6969347D01*
X21800000Y6730653D01*
X21853455Y6601600D01*
X9789550Y6601600D01*
X9750000Y6609467D01*
X9710450Y6601600D01*
X9593304Y6578298D01*
X9460463Y6489537D01*
X9438059Y6456007D01*
X9007052Y6025000D01*
X8855653Y6025000D01*
X8635127Y5933656D01*
X8601600Y5900129D01*
X8601600Y6693071D01*
X8708656Y6800127D01*
X8800000Y7020653D01*
X8800000Y7259347D01*
X8708656Y7479873D01*
X8539873Y7648656D01*
X8319347Y7740000D01*
X8080653Y7740000D01*
X7860127Y7648656D01*
X7691344Y7479873D01*
X7600000Y7259347D01*
X375000Y7259347D01*
X375000Y8009347D01*
X6570000Y8009347D01*
X6570000Y7770653D01*
X6661344Y7550127D01*
X6830127Y7381344D01*
X7050653Y7290000D01*
X7289347Y7290000D01*
X7509873Y7381344D01*
X7678656Y7550127D01*
X7770000Y7770653D01*
X7770000Y8009347D01*
X7678656Y8229873D01*
X7509873Y8398656D01*
X7289347Y8490000D01*
X7050653Y8490000D01*
X6830127Y8398656D01*
X6661344Y8229873D01*
X6570000Y8009347D01*
X375000Y8009347D01*
X375000Y9019347D01*
X17600000Y9019347D01*
X17600000Y8780653D01*
X17691344Y8560127D01*
X17860127Y8391344D01*
X18080653Y8300000D01*
X18319347Y8300000D01*
X18426411Y8344347D01*
X22050000Y8344347D01*
X22050000Y8105653D01*
X22141344Y7885127D01*
X22310127Y7716344D01*
X22530653Y7625000D01*
X22769347Y7625000D01*
X22875000Y7668762D01*
X22875000Y7430653D01*
X22966344Y7210127D01*
X23135127Y7041344D01*
X23355653Y6950000D01*
X23594347Y6950000D01*
X23814873Y7041344D01*
X23921929Y7148400D01*
X25408652Y7148400D01*
X26575000Y5982052D01*
X26575000Y5830653D01*
X26666344Y5610127D01*
X26835127Y5441344D01*
X27055653Y5350000D01*
X27294347Y5350000D01*
X27514873Y5441344D01*
X27575000Y5501471D01*
X27660127Y5416344D01*
X27880653Y5325000D01*
X28119347Y5325000D01*
X28339873Y5416344D01*
X28508656Y5585127D01*
X28600000Y5805653D01*
X28600000Y6044347D01*
X28508656Y6264873D01*
X28401600Y6371929D01*
X28401600Y6410452D01*
X28409467Y6450001D01*
X28394548Y6525000D01*
X28378298Y6606696D01*
X28289537Y6739537D01*
X28256011Y6761938D01*
X26536941Y8481007D01*
X26514537Y8514537D01*
X26381696Y8603298D01*
X26264550Y8626600D01*
X26264549Y8626600D01*
X26225000Y8634467D01*
X26185451Y8626600D01*
X23096929Y8626600D01*
X22989873Y8733656D01*
X22769347Y8825000D01*
X22530653Y8825000D01*
X22310127Y8733656D01*
X22141344Y8564873D01*
X22050000Y8344347D01*
X18426411Y8344347D01*
X18539873Y8391344D01*
X18708656Y8560127D01*
X18800000Y8780653D01*
X18800000Y9019347D01*
X18708656Y9239873D01*
X18539873Y9408656D01*
X18319347Y9500000D01*
X18080653Y9500000D01*
X17860127Y9408656D01*
X17691344Y9239873D01*
X17600000Y9019347D01*
X375000Y9019347D01*
X375000Y10519347D01*
X8100000Y10519347D01*
X8100000Y10280653D01*
X8191344Y10060127D01*
X8360127Y9891344D01*
X8580653Y9800000D01*
X8819347Y9800000D01*
X9039873Y9891344D01*
X9208656Y10060127D01*
X9265930Y10198400D01*
X18103071Y10198400D01*
X18210127Y10091344D01*
X18430653Y10000000D01*
X18669347Y10000000D01*
X18889873Y10091344D01*
X19058656Y10260127D01*
X19150000Y10480653D01*
X19150000Y10719347D01*
X19058656Y10939873D01*
X18889873Y11108656D01*
X18669347Y11200000D01*
X18430653Y11200000D01*
X18210127Y11108656D01*
X18103071Y11001600D01*
X8939550Y11001600D01*
X8900000Y11009467D01*
X8830072Y10995557D01*
X8819347Y11000000D01*
X8580653Y11000000D01*
X8360127Y10908656D01*
X8191344Y10739873D01*
X8100000Y10519347D01*
X375000Y10519347D01*
X375000Y11769347D01*
X9700000Y11769347D01*
X9700000Y11530653D01*
X9791344Y11310127D01*
X9960127Y11141344D01*
X10180653Y11050000D01*
X10419347Y11050000D01*
X10639873Y11141344D01*
X10808656Y11310127D01*
X10900000Y11530653D01*
X10900000Y11769347D01*
X10808656Y11989873D01*
X10729182Y12069347D01*
X14000000Y12069347D01*
X14000000Y11830653D01*
X14091344Y11610127D01*
X14260127Y11441344D01*
X14480653Y11350000D01*
X14719347Y11350000D01*
X14939873Y11441344D01*
X14958029Y11459500D01*
X19896829Y11459500D01*
X21219006Y10137323D01*
X21246370Y10096370D01*
X21408617Y9987960D01*
X21551693Y9959500D01*
X21551697Y9959500D01*
X21599999Y9949892D01*
X21648301Y9959500D01*
X26241971Y9959500D01*
X26260127Y9941344D01*
X26480653Y9850000D01*
X26719347Y9850000D01*
X26939873Y9941344D01*
X27108656Y10110127D01*
X27200000Y10330653D01*
X27200000Y10569347D01*
X27108656Y10789873D01*
X26939873Y10958656D01*
X26719347Y11050000D01*
X26480653Y11050000D01*
X26260127Y10958656D01*
X26241971Y10940500D01*
X21803171Y10940500D01*
X20480994Y12262677D01*
X20453630Y12303630D01*
X20291383Y12412040D01*
X20148307Y12440500D01*
X20148302Y12440500D01*
X20100000Y12450108D01*
X20051698Y12440500D01*
X14958029Y12440500D01*
X14939873Y12458656D01*
X14719347Y12550000D01*
X14480653Y12550000D01*
X14260127Y12458656D01*
X14091344Y12289873D01*
X14000000Y12069347D01*
X10729182Y12069347D01*
X10639873Y12158656D01*
X10419347Y12250000D01*
X10180653Y12250000D01*
X9960127Y12158656D01*
X9791344Y11989873D01*
X9700000Y11769347D01*
X375000Y11769347D01*
X375000Y12501136D01*
X871916Y12501136D01*
X1056932Y12168723D01*
X1355074Y11932416D01*
X1501139Y11871934D01*
X1650000Y11912588D01*
X1650000Y12650000D01*
X1950000Y12650000D01*
X1950000Y11912588D01*
X2098861Y11871934D01*
X2244926Y11932416D01*
X2543068Y12168723D01*
X2728084Y12501136D01*
X2688410Y12650000D01*
X1950000Y12650000D01*
X1650000Y12650000D01*
X911590Y12650000D01*
X871916Y12501136D01*
X375000Y12501136D01*
X375000Y12800000D01*
X2805899Y12800000D01*
X2881570Y12419574D01*
X3097064Y12097064D01*
X3419574Y11881570D01*
X3703972Y11825000D01*
X3896028Y11825000D01*
X4180426Y11881570D01*
X4502936Y12097064D01*
X4718430Y12419574D01*
X4794101Y12800000D01*
X4718430Y13180426D01*
X4502936Y13502936D01*
X4180426Y13718430D01*
X3896028Y13775000D01*
X3703972Y13775000D01*
X3419574Y13718430D01*
X3097064Y13502936D01*
X2881570Y13180426D01*
X2805899Y12800000D01*
X375000Y12800000D01*
X375000Y13098864D01*
X871916Y13098864D01*
X911590Y12950000D01*
X1650000Y12950000D01*
X1650000Y13687412D01*
X1950000Y13687412D01*
X1950000Y12950000D01*
X2688410Y12950000D01*
X2728084Y13098864D01*
X2543068Y13431277D01*
X2244926Y13667584D01*
X2098861Y13728066D01*
X1950000Y13687412D01*
X1650000Y13687412D01*
X1501139Y13728066D01*
X1355074Y13667584D01*
X1056932Y13431277D01*
X871916Y13098864D01*
X375000Y13098864D01*
X375000Y17759347D01*
X2150000Y17759347D01*
X2150000Y17520653D01*
X2241344Y17300127D01*
X2410127Y17131344D01*
X2630653Y17040000D01*
X2869347Y17040000D01*
X3089873Y17131344D01*
X3108029Y17149500D01*
X3156829Y17149500D01*
X6537980Y13768349D01*
X6475000Y13780877D01*
X5125000Y13780877D01*
X5007946Y13757593D01*
X4908712Y13691288D01*
X4842407Y13592054D01*
X4819123Y13475000D01*
X4819123Y12125000D01*
X4842407Y12007946D01*
X4908712Y11908712D01*
X5007946Y11842407D01*
X5125000Y11819123D01*
X6475000Y11819123D01*
X6592054Y11842407D01*
X6691288Y11908712D01*
X6757593Y12007946D01*
X6780877Y12125000D01*
X6780877Y13475000D01*
X6768349Y13537980D01*
X6919006Y13387323D01*
X6946370Y13346370D01*
X7108617Y13237960D01*
X7251693Y13209500D01*
X7251697Y13209500D01*
X7299999Y13199892D01*
X7348301Y13209500D01*
X24560971Y13209500D01*
X24441344Y13089873D01*
X24350000Y12869347D01*
X24350000Y12630653D01*
X24441344Y12410127D01*
X24610127Y12241344D01*
X24830653Y12150000D01*
X25069347Y12150000D01*
X25289873Y12241344D01*
X25458656Y12410127D01*
X25550000Y12630653D01*
X25550000Y12869347D01*
X25458656Y13089873D01*
X25339029Y13209500D01*
X30851698Y13209500D01*
X30863280Y13207196D01*
X30880653Y13200000D01*
X30899457Y13200000D01*
X30900000Y13199892D01*
X30900543Y13200000D01*
X31119347Y13200000D01*
X31339873Y13291344D01*
X31508656Y13460127D01*
X31600000Y13680653D01*
X31600000Y13919347D01*
X31508656Y14139873D01*
X31339873Y14308656D01*
X31119347Y14400000D01*
X30880653Y14400000D01*
X30660127Y14308656D01*
X30541971Y14190500D01*
X22684607Y14190500D01*
X22686941Y14193992D01*
X23017949Y14525000D01*
X23019347Y14525000D01*
X23239873Y14616344D01*
X23408656Y14785127D01*
X23500000Y15005653D01*
X23500000Y15244347D01*
X23408656Y15464873D01*
X23239873Y15633656D01*
X23019347Y15725000D01*
X22780653Y15725000D01*
X22560127Y15633656D01*
X22391344Y15464873D01*
X22300000Y15244347D01*
X22300000Y15005653D01*
X22318366Y14961314D01*
X22208652Y14851600D01*
X21986190Y14851600D01*
X22050000Y15005653D01*
X22050000Y15244347D01*
X21958656Y15464873D01*
X21789873Y15633656D01*
X21569347Y15725000D01*
X21330653Y15725000D01*
X21110127Y15633656D01*
X21003071Y15526600D01*
X20394548Y15526600D01*
X22567948Y17700000D01*
X22719347Y17700000D01*
X22939873Y17791344D01*
X23108656Y17960127D01*
X23200000Y18180653D01*
X23200000Y18419347D01*
X23108656Y18639873D01*
X22939873Y18808656D01*
X22719347Y18900000D01*
X22480653Y18900000D01*
X22260127Y18808656D01*
X22200004Y18748533D01*
X22039881Y18908656D01*
X21819355Y19000000D01*
X21580661Y19000000D01*
X21558959Y18991011D01*
X22916347Y20348399D01*
X24699870Y20348399D01*
X24691344Y20339873D01*
X24600000Y20119347D01*
X24600000Y19880653D01*
X24691344Y19660127D01*
X24860127Y19491344D01*
X25080653Y19400000D01*
X25319347Y19400000D01*
X25539873Y19491344D01*
X25708656Y19660127D01*
X25762500Y19790119D01*
X25816344Y19660127D01*
X25985127Y19491344D01*
X26205653Y19400000D01*
X26444347Y19400000D01*
X26664873Y19491344D01*
X26833656Y19660127D01*
X26925000Y19880653D01*
X26925000Y20119347D01*
X26833656Y20339873D01*
X26825130Y20348399D01*
X27550000Y20348399D01*
X27550000Y20330653D01*
X27641344Y20110127D01*
X27810127Y19941344D01*
X28030653Y19850000D01*
X28269347Y19850000D01*
X28489873Y19941344D01*
X28658656Y20110127D01*
X28750000Y20330653D01*
X28750000Y20569347D01*
X28658656Y20789873D01*
X28489873Y20958656D01*
X28269347Y21050000D01*
X28123877Y21050000D01*
X28006697Y21128297D01*
X27889551Y21151599D01*
X27889550Y21151599D01*
X27850001Y21159466D01*
X27810452Y21151599D01*
X22789549Y21151599D01*
X22749999Y21159466D01*
X22710449Y21151599D01*
X22593303Y21128297D01*
X22460462Y21039536D01*
X22438058Y21006006D01*
X19355662Y17923610D01*
X19400000Y18030653D01*
X19400000Y18269347D01*
X19308656Y18489873D01*
X19139873Y18658656D01*
X18919347Y18750000D01*
X18749998Y18750000D01*
X18749998Y18869347D01*
X18658654Y19089873D01*
X18489871Y19258656D01*
X18269345Y19350000D01*
X18030651Y19350000D01*
X17951600Y19317256D01*
X17951600Y21269347D01*
X20700000Y21269347D01*
X20700000Y21030653D01*
X20791344Y20810127D01*
X20960127Y20641344D01*
X21180653Y20550000D01*
X21419347Y20550000D01*
X21639873Y20641344D01*
X21808656Y20810127D01*
X21900000Y21030653D01*
X21900000Y21269347D01*
X21808656Y21489873D01*
X21639873Y21658656D01*
X21419347Y21750000D01*
X21180653Y21750000D01*
X20960127Y21658656D01*
X20791344Y21489873D01*
X20700000Y21269347D01*
X17951600Y21269347D01*
X17951600Y22946428D01*
X18004905Y22968508D01*
X18131492Y23095095D01*
X18200000Y23260489D01*
X18200000Y23439511D01*
X18131492Y23604905D01*
X18004905Y23731492D01*
X17839511Y23800000D01*
X17660489Y23800000D01*
X17495095Y23731492D01*
X17368508Y23604905D01*
X17320108Y23488055D01*
X17293993Y23461941D01*
X17260463Y23439537D01*
X17171702Y23306695D01*
X17149147Y23193303D01*
X17140533Y23150000D01*
X17148400Y23110451D01*
X17148401Y19316349D01*
X15702055Y17870003D01*
X7628524Y17870003D01*
X7539873Y17958654D01*
X7319347Y18049998D01*
X7080653Y18049998D01*
X6860127Y17958654D01*
X6691344Y17789871D01*
X6600000Y17569345D01*
X6600000Y17330651D01*
X6691344Y17110125D01*
X6860127Y16941342D01*
X7080653Y16849998D01*
X7319347Y16849998D01*
X7539873Y16941342D01*
X7665334Y17066803D01*
X8461076Y17066803D01*
X8400000Y16919351D01*
X8400000Y16680657D01*
X8491344Y16460131D01*
X8660127Y16291348D01*
X8880653Y16200004D01*
X9109951Y16200004D01*
X9010127Y16158656D01*
X8841344Y15989873D01*
X8750000Y15769347D01*
X8750000Y15530653D01*
X8841344Y15310127D01*
X9010127Y15141344D01*
X9230653Y15050000D01*
X9382051Y15050000D01*
X9563061Y14868990D01*
X9574681Y14851600D01*
X8946929Y14851600D01*
X8839873Y14958656D01*
X8619347Y15050000D01*
X8380653Y15050000D01*
X8160127Y14958656D01*
X7991344Y14789873D01*
X7900000Y14569347D01*
X7900000Y14330653D01*
X7958053Y14190500D01*
X7503171Y14190500D01*
X3740994Y17952677D01*
X3713630Y17993630D01*
X3551383Y18102040D01*
X3408307Y18130500D01*
X3408302Y18130500D01*
X3360000Y18140108D01*
X3311698Y18130500D01*
X3108029Y18130500D01*
X3089873Y18148656D01*
X2869347Y18240000D01*
X2630653Y18240000D01*
X2410127Y18148656D01*
X2241344Y17979873D01*
X2150000Y17759347D01*
X375000Y17759347D01*
X375000Y19669347D01*
X3200000Y19669347D01*
X3200000Y19430653D01*
X3291344Y19210127D01*
X3460127Y19041344D01*
X3680653Y18950000D01*
X3919347Y18950000D01*
X4139873Y19041344D01*
X4308656Y19210127D01*
X4400000Y19430653D01*
X4400000Y19669347D01*
X4308656Y19889873D01*
X4139873Y20058656D01*
X3919347Y20150000D01*
X3680653Y20150000D01*
X3460127Y20058656D01*
X3291344Y19889873D01*
X3200000Y19669347D01*
X375000Y19669347D01*
X375000Y22669347D01*
X1500000Y22669347D01*
X1500000Y22430653D01*
X1591344Y22210127D01*
X1760127Y22041344D01*
X1980653Y21950000D01*
X2219347Y21950000D01*
X2439873Y22041344D01*
X2608656Y22210127D01*
X2700000Y22430653D01*
X2700000Y22619347D01*
X3300000Y22619347D01*
X3300000Y22380653D01*
X3391344Y22160127D01*
X3560127Y21991344D01*
X3780653Y21900000D01*
X4019347Y21900000D01*
X4239873Y21991344D01*
X4408656Y22160127D01*
X4500000Y22380653D01*
X4500000Y22619347D01*
X4408656Y22839873D01*
X4239873Y23008656D01*
X4019347Y23100000D01*
X3780653Y23100000D01*
X3560127Y23008656D01*
X3391344Y22839873D01*
X3300000Y22619347D01*
X2700000Y22619347D01*
X2700000Y22669347D01*
X2608656Y22889873D01*
X2439873Y23058656D01*
X2219347Y23150000D01*
X1980653Y23150000D01*
X1760127Y23058656D01*
X1591344Y22889873D01*
X1500000Y22669347D01*
X375000Y22669347D01*
X375000Y27769347D01*
X1100000Y27769347D01*
X1100000Y27530653D01*
X1191344Y27310127D01*
X1360127Y27141344D01*
X1580653Y27050000D01*
X1819347Y27050000D01*
X2039873Y27141344D01*
X2146929Y27248400D01*
X4150000Y27248400D01*
X4150000Y26575000D01*
X4225000Y26500000D01*
X5150000Y26500000D01*
X5150000Y26520000D01*
X5450000Y26520000D01*
X5450000Y26500000D01*
X6375000Y26500000D01*
X6450000Y26575000D01*
X6450000Y27248400D01*
X7883652Y27248400D01*
X8681458Y26450594D01*
X8703862Y26417064D01*
X8745098Y26389511D01*
X8836702Y26328303D01*
X8993399Y26297134D01*
X9032949Y26305001D01*
X9337052Y26305001D01*
X8633653Y25601601D01*
X6450000Y25601601D01*
X6450000Y26125000D01*
X6375000Y26200000D01*
X5450000Y26200000D01*
X5450000Y26180000D01*
X5150000Y26180000D01*
X5150000Y26200000D01*
X4225000Y26200000D01*
X4150000Y26125000D01*
X4150000Y25601601D01*
X3850000Y25601601D01*
X3850000Y25619347D01*
X3758656Y25839873D01*
X3589873Y26008656D01*
X3369347Y26100000D01*
X3130653Y26100000D01*
X2910127Y26008656D01*
X2741344Y25839873D01*
X2650000Y25619347D01*
X2650000Y25380653D01*
X2741344Y25160127D01*
X2910127Y24991344D01*
X3130653Y24900000D01*
X3276123Y24900000D01*
X3293991Y24888061D01*
X3393302Y24821703D01*
X3549999Y24790534D01*
X3589549Y24798401D01*
X8760452Y24798401D01*
X8800001Y24790534D01*
X8839550Y24798401D01*
X8839551Y24798401D01*
X8956697Y24821703D01*
X9089538Y24910464D01*
X9111942Y24943994D01*
X10041349Y25873400D01*
X12543640Y25873400D01*
X12660489Y25825000D01*
X12839511Y25825000D01*
X13004905Y25893508D01*
X13131492Y26020095D01*
X13200000Y26185489D01*
X13200000Y26282052D01*
X13270108Y26211944D01*
X13318508Y26095095D01*
X13445095Y25968508D01*
X13610489Y25900000D01*
X13789511Y25900000D01*
X13954905Y25968508D01*
X14081492Y26095095D01*
X14135300Y26225000D01*
X14257051Y26225000D01*
X14320108Y26161943D01*
X14368508Y26045095D01*
X14495095Y25918508D01*
X14625000Y25864700D01*
X14625000Y25792948D01*
X14493992Y25661940D01*
X14460463Y25639537D01*
X14424868Y25586265D01*
X14368508Y25529905D01*
X14300000Y25364511D01*
X14300000Y25185489D01*
X14355458Y25051600D01*
X13169542Y25051600D01*
X13225000Y25185489D01*
X13225000Y25364511D01*
X13156492Y25529905D01*
X13029905Y25656492D01*
X12864511Y25725000D01*
X12685489Y25725000D01*
X12568640Y25676600D01*
X11931360Y25676600D01*
X11814511Y25725000D01*
X11635489Y25725000D01*
X11470095Y25656492D01*
X11343508Y25529905D01*
X11275000Y25364511D01*
X11275000Y25185489D01*
X11343508Y25020095D01*
X11470095Y24893508D01*
X11635489Y24825000D01*
X11814511Y24825000D01*
X11931360Y24873400D01*
X12495062Y24873400D01*
X11700000Y24078337D01*
X11700000Y24214511D01*
X11631492Y24379905D01*
X11504905Y24506492D01*
X11339511Y24575000D01*
X11160489Y24575000D01*
X11043640Y24526600D01*
X9589544Y24526600D01*
X9549999Y24534466D01*
X9510454Y24526600D01*
X9510450Y24526600D01*
X9393304Y24503298D01*
X9260463Y24414537D01*
X9238059Y24381007D01*
X7508652Y22651600D01*
X6531360Y22651600D01*
X6414511Y22700000D01*
X6235489Y22700000D01*
X6070095Y22631492D01*
X5943508Y22504905D01*
X5875000Y22339511D01*
X5875000Y22160489D01*
X5943508Y21995095D01*
X6070095Y21868508D01*
X6235489Y21800000D01*
X6414511Y21800000D01*
X6531360Y21848400D01*
X7635451Y21848400D01*
X7675000Y21840533D01*
X7714549Y21848400D01*
X7714550Y21848400D01*
X7831696Y21871702D01*
X7964537Y21960463D01*
X7986941Y21993993D01*
X9716348Y23723400D01*
X11043640Y23723400D01*
X11160489Y23675000D01*
X11296663Y23675000D01*
X11019245Y23397582D01*
X10902396Y23349182D01*
X10775809Y23222595D01*
X10707301Y23057201D01*
X10707301Y22878179D01*
X10775809Y22712785D01*
X10865632Y22622962D01*
X10800000Y22464511D01*
X10800000Y22285489D01*
X10866476Y22125000D01*
X10800000Y21964511D01*
X10800000Y21793879D01*
X10770095Y21781492D01*
X10643508Y21654905D01*
X10575000Y21489511D01*
X10575000Y21310489D01*
X10643508Y21145095D01*
X10770095Y21018508D01*
X10935489Y20950000D01*
X11114511Y20950000D01*
X11231360Y20998400D01*
X11610451Y20998400D01*
X11650000Y20990533D01*
X11689549Y20998400D01*
X11689550Y20998400D01*
X11806696Y21021702D01*
X11939537Y21110463D01*
X11961941Y21143993D01*
X12987295Y22169347D01*
X14950000Y22169347D01*
X14950000Y21930653D01*
X15041344Y21710127D01*
X15210127Y21541344D01*
X15430653Y21450000D01*
X15669347Y21450000D01*
X15889873Y21541344D01*
X16058656Y21710127D01*
X16150000Y21930653D01*
X16150000Y22169347D01*
X16058656Y22389873D01*
X15889873Y22558656D01*
X15669347Y22650000D01*
X15430653Y22650000D01*
X15210127Y22558656D01*
X15041344Y22389873D01*
X14950000Y22169347D01*
X12987295Y22169347D01*
X13816349Y22998400D01*
X15910451Y22998400D01*
X15950000Y22990533D01*
X15989549Y22998400D01*
X15989550Y22998400D01*
X16106696Y23021702D01*
X16239537Y23110463D01*
X16261941Y23143993D01*
X17016349Y23898400D01*
X17578996Y23898400D01*
X17635489Y23875000D01*
X17814511Y23875000D01*
X17979905Y23943508D01*
X18106492Y24070095D01*
X18116537Y24094347D01*
X19150000Y24094347D01*
X19150000Y23855653D01*
X19241344Y23635127D01*
X19410127Y23466344D01*
X19630653Y23375000D01*
X19869347Y23375000D01*
X20089873Y23466344D01*
X20250000Y23626471D01*
X20360127Y23516344D01*
X20580653Y23425000D01*
X20819347Y23425000D01*
X21039873Y23516344D01*
X21042876Y23519347D01*
X23625000Y23519347D01*
X23625000Y23280653D01*
X23716344Y23060127D01*
X23885127Y22891344D01*
X24105653Y22800000D01*
X24344347Y22800000D01*
X24564873Y22891344D01*
X24733656Y23060127D01*
X24825000Y23280653D01*
X24825000Y23519347D01*
X24733656Y23739873D01*
X24564873Y23908656D01*
X24344347Y24000000D01*
X24105653Y24000000D01*
X23885127Y23908656D01*
X23716344Y23739873D01*
X23625000Y23519347D01*
X21042876Y23519347D01*
X21208656Y23685127D01*
X21300000Y23905653D01*
X21300000Y24144347D01*
X21208656Y24364873D01*
X21125946Y24447583D01*
X21081492Y24554905D01*
X21067050Y24569347D01*
X25900000Y24569347D01*
X25900000Y24330653D01*
X25991344Y24110127D01*
X26160127Y23941344D01*
X26380653Y23850000D01*
X26619347Y23850000D01*
X26839873Y23941344D01*
X27008656Y24110127D01*
X27100000Y24330653D01*
X27100000Y24569347D01*
X27008656Y24789873D01*
X26839873Y24958656D01*
X26619347Y25050000D01*
X26380653Y25050000D01*
X26160127Y24958656D01*
X25991344Y24789873D01*
X25900000Y24569347D01*
X21067050Y24569347D01*
X20954905Y24681492D01*
X20789511Y24750000D01*
X20610489Y24750000D01*
X20445095Y24681492D01*
X20318508Y24554905D01*
X20274054Y24447583D01*
X20200000Y24373529D01*
X20200000Y24414511D01*
X20131492Y24579905D01*
X20004905Y24706492D01*
X19839511Y24775000D01*
X19660489Y24775000D01*
X19495095Y24706492D01*
X19368508Y24579905D01*
X19300000Y24414511D01*
X19300000Y24373529D01*
X19241344Y24314873D01*
X19150000Y24094347D01*
X18116537Y24094347D01*
X18175000Y24235489D01*
X18175000Y24395506D01*
X18200000Y24390533D01*
X18239549Y24398400D01*
X18239550Y24398400D01*
X18356696Y24421702D01*
X18489537Y24510463D01*
X18511941Y24543992D01*
X18863057Y24895108D01*
X18979905Y24943508D01*
X19106492Y25070095D01*
X19175000Y25235489D01*
X19175000Y25414511D01*
X19106492Y25579905D01*
X18979905Y25706492D01*
X18967819Y25711498D01*
X19039873Y25741344D01*
X19208656Y25910127D01*
X19300000Y26130653D01*
X19300000Y26169347D01*
X21025000Y26169347D01*
X21025000Y25930653D01*
X21116344Y25710127D01*
X21285127Y25541344D01*
X21505653Y25450000D01*
X21744347Y25450000D01*
X21964873Y25541344D01*
X22133656Y25710127D01*
X22183210Y25829763D01*
X22191344Y25810127D01*
X22360127Y25641344D01*
X22580653Y25550000D01*
X22819347Y25550000D01*
X23039873Y25641344D01*
X23208656Y25810127D01*
X23300000Y26030653D01*
X23300000Y26269347D01*
X23208656Y26489873D01*
X23039873Y26658656D01*
X22819347Y26750000D01*
X22580653Y26750000D01*
X22360127Y26658656D01*
X22191344Y26489873D01*
X22162387Y26419963D01*
X22106492Y26554905D01*
X21979905Y26681492D01*
X21814511Y26750000D01*
X21635489Y26750000D01*
X21470095Y26681492D01*
X21391192Y26602589D01*
X21285127Y26558656D01*
X21116344Y26389873D01*
X21025000Y26169347D01*
X19300000Y26169347D01*
X19300000Y26369347D01*
X19208656Y26589873D01*
X19039873Y26758656D01*
X19000415Y26775000D01*
X19039873Y26791344D01*
X19067876Y26819347D01*
X25925000Y26819347D01*
X25925000Y26580653D01*
X26016344Y26360127D01*
X26185127Y26191344D01*
X26405653Y26100000D01*
X26644347Y26100000D01*
X26864873Y26191344D01*
X27033656Y26360127D01*
X27125000Y26580653D01*
X27125000Y26819347D01*
X27033656Y27039873D01*
X26864873Y27208656D01*
X26644347Y27300000D01*
X26405653Y27300000D01*
X26185127Y27208656D01*
X26016344Y27039873D01*
X25925000Y26819347D01*
X19067876Y26819347D01*
X19116480Y26867951D01*
X19159012Y26896370D01*
X19187431Y26938902D01*
X19208656Y26960127D01*
X19220143Y26987858D01*
X19267422Y27058617D01*
X19284024Y27142084D01*
X19300000Y27180653D01*
X19300000Y27222400D01*
X19305490Y27250000D01*
X19300000Y27277600D01*
X19300000Y27419347D01*
X19262658Y27509500D01*
X20641971Y27509500D01*
X20660127Y27491344D01*
X20880653Y27400000D01*
X21119347Y27400000D01*
X21339873Y27491344D01*
X21508656Y27660127D01*
X21600000Y27880653D01*
X21600000Y28066667D01*
X21617751Y28070198D01*
X23758194Y28070198D01*
X23675000Y27869347D01*
X23675000Y27630653D01*
X23766344Y27410127D01*
X23935127Y27241344D01*
X24155653Y27150000D01*
X24394347Y27150000D01*
X24614873Y27241344D01*
X24783656Y27410127D01*
X24875000Y27630653D01*
X24875000Y27869347D01*
X24791806Y28070198D01*
X25222677Y28070198D01*
X25262226Y28062331D01*
X25301775Y28070198D01*
X25301776Y28070198D01*
X25418922Y28093500D01*
X25551763Y28182261D01*
X25574167Y28215791D01*
X25831776Y28473400D01*
X26003071Y28473400D01*
X26110127Y28366344D01*
X26330653Y28275000D01*
X26569347Y28275000D01*
X26789873Y28366344D01*
X26942876Y28519347D01*
X29750000Y28519347D01*
X29750000Y28280653D01*
X29841344Y28060127D01*
X30010127Y27891344D01*
X30230653Y27800000D01*
X30469347Y27800000D01*
X30689873Y27891344D01*
X30858656Y28060127D01*
X30950000Y28280653D01*
X30950000Y28519347D01*
X32700000Y28519347D01*
X32700000Y28280653D01*
X32791344Y28060127D01*
X32960127Y27891344D01*
X33180653Y27800000D01*
X33419347Y27800000D01*
X33639873Y27891344D01*
X33808656Y28060127D01*
X33900000Y28280653D01*
X33900000Y28519347D01*
X33808656Y28739873D01*
X33639873Y28908656D01*
X33419347Y29000000D01*
X33180653Y29000000D01*
X32960127Y28908656D01*
X32791344Y28739873D01*
X32700000Y28519347D01*
X30950000Y28519347D01*
X30858656Y28739873D01*
X30689873Y28908656D01*
X30469347Y29000000D01*
X30230653Y29000000D01*
X30010127Y28908656D01*
X29841344Y28739873D01*
X29750000Y28519347D01*
X26942876Y28519347D01*
X26958656Y28535127D01*
X27050000Y28755653D01*
X27050000Y28994347D01*
X26958656Y29214873D01*
X26789873Y29383656D01*
X26732737Y29407322D01*
X26814873Y29441344D01*
X26983656Y29610127D01*
X27075000Y29830653D01*
X27075000Y30069347D01*
X26983656Y30289873D01*
X26814873Y30458656D01*
X26720237Y30497855D01*
X26764873Y30516344D01*
X26933656Y30685127D01*
X27025000Y30905653D01*
X27025000Y31144347D01*
X26971545Y31273400D01*
X30203071Y31273400D01*
X30310127Y31166344D01*
X30530653Y31075000D01*
X30769347Y31075000D01*
X30989873Y31166344D01*
X31158656Y31335127D01*
X31250000Y31555653D01*
X31250000Y31794347D01*
X31177514Y31969347D01*
X33050000Y31969347D01*
X33050000Y31730653D01*
X33141344Y31510127D01*
X33310127Y31341344D01*
X33530653Y31250000D01*
X33769347Y31250000D01*
X33989873Y31341344D01*
X34158656Y31510127D01*
X34250000Y31730653D01*
X34250000Y31969347D01*
X34158656Y32189873D01*
X33989873Y32358656D01*
X33769347Y32450000D01*
X33530653Y32450000D01*
X33310127Y32358656D01*
X33141344Y32189873D01*
X33050000Y31969347D01*
X31177514Y31969347D01*
X31158656Y32014873D01*
X30989873Y32183656D01*
X30769347Y32275000D01*
X30550000Y32275000D01*
X30550000Y32419347D01*
X30458656Y32639873D01*
X30289873Y32808656D01*
X30069347Y32900000D01*
X29830653Y32900000D01*
X29610127Y32808656D01*
X29503071Y32701600D01*
X22739544Y32701600D01*
X22699999Y32709466D01*
X22660454Y32701600D01*
X22660450Y32701600D01*
X22543304Y32678298D01*
X22410463Y32589537D01*
X22388059Y32556007D01*
X21586944Y31754892D01*
X21470095Y31706492D01*
X21343508Y31579905D01*
X21275000Y31414511D01*
X21275000Y31235489D01*
X21343508Y31070095D01*
X21463603Y30950000D01*
X21460489Y30950000D01*
X21295095Y30881492D01*
X21168508Y30754905D01*
X21100000Y30589511D01*
X21100000Y30410489D01*
X21168508Y30245095D01*
X21295095Y30118508D01*
X21411944Y30070108D01*
X21732051Y29750000D01*
X21635489Y29750000D01*
X21470095Y29681492D01*
X21343508Y29554905D01*
X21275000Y29389511D01*
X21275000Y29342948D01*
X21154892Y29463056D01*
X21106492Y29579905D01*
X20979905Y29706492D01*
X20814511Y29775000D01*
X20635489Y29775000D01*
X20470095Y29706492D01*
X20343508Y29579905D01*
X20275000Y29414511D01*
X20275000Y29235489D01*
X20343508Y29070095D01*
X20470095Y28943508D01*
X20586944Y28895108D01*
X20882052Y28600000D01*
X20880653Y28600000D01*
X20660127Y28508656D01*
X20641971Y28490500D01*
X19253171Y28490500D01*
X19062677Y28680994D01*
X18941383Y28762039D01*
X18750000Y28800108D01*
X18558617Y28762039D01*
X18396370Y28653630D01*
X18287961Y28491383D01*
X18249892Y28300000D01*
X18287961Y28108617D01*
X18369006Y27987323D01*
X18492742Y27863587D01*
X18360127Y27808656D01*
X18191344Y27639873D01*
X18100000Y27419347D01*
X18100000Y27180653D01*
X18191344Y26960127D01*
X18360127Y26791344D01*
X18399585Y26775000D01*
X18360127Y26758656D01*
X18191344Y26589873D01*
X18100000Y26369347D01*
X18100000Y26130653D01*
X18191344Y25910127D01*
X18360127Y25741344D01*
X18462530Y25698927D01*
X18343508Y25579905D01*
X18295108Y25463057D01*
X18175000Y25342948D01*
X18175000Y25414511D01*
X18106492Y25579905D01*
X17979905Y25706492D01*
X17863057Y25754892D01*
X17511941Y26106008D01*
X17489537Y26139537D01*
X17356696Y26228298D01*
X17239550Y26251600D01*
X17239549Y26251600D01*
X17200000Y26259467D01*
X17160451Y26251600D01*
X16489544Y26251600D01*
X16449999Y26259466D01*
X16410454Y26251600D01*
X16410450Y26251600D01*
X16293304Y26228298D01*
X16160463Y26139537D01*
X16138059Y26106007D01*
X15825000Y25792948D01*
X15825000Y25944347D01*
X15733656Y26164873D01*
X15564873Y26333656D01*
X15344347Y26425000D01*
X15185300Y26425000D01*
X15131492Y26554905D01*
X15004905Y26681492D01*
X14888057Y26729892D01*
X14825000Y26792949D01*
X14825000Y26944347D01*
X14733656Y27164873D01*
X14564873Y27333656D01*
X14344347Y27425000D01*
X14105653Y27425000D01*
X13885127Y27333656D01*
X13716344Y27164873D01*
X13641280Y26983650D01*
X13632936Y26996138D01*
X13500095Y27084899D01*
X13382949Y27108201D01*
X13382948Y27108201D01*
X13343399Y27116068D01*
X13303850Y27108201D01*
X13122276Y27108201D01*
X13154892Y27186944D01*
X13167948Y27200000D01*
X13344347Y27200000D01*
X13564873Y27291344D01*
X13733656Y27460127D01*
X13825000Y27680653D01*
X13825000Y27919347D01*
X13733656Y28139873D01*
X13564873Y28308656D01*
X13348210Y28398400D01*
X14160451Y28398400D01*
X14200000Y28390533D01*
X14239549Y28398400D01*
X14239550Y28398400D01*
X14356696Y28421702D01*
X14489537Y28510463D01*
X14511941Y28543993D01*
X14658984Y28691036D01*
X14650000Y28669347D01*
X14650000Y28430653D01*
X14741344Y28210127D01*
X14910127Y28041344D01*
X15130653Y27950000D01*
X15143945Y27950000D01*
X15146370Y27946370D01*
X15308617Y27837960D01*
X15451693Y27809500D01*
X15451697Y27809500D01*
X15499999Y27799892D01*
X15548301Y27809500D01*
X15748307Y27809500D01*
X15891383Y27837960D01*
X16053630Y27946370D01*
X16162040Y28108617D01*
X16200109Y28300000D01*
X16162040Y28491383D01*
X16053630Y28653630D01*
X15891383Y28762040D01*
X15804442Y28779334D01*
X15758656Y28889873D01*
X15589873Y29058656D01*
X15369347Y29150000D01*
X15168879Y29150000D01*
X15225000Y29285489D01*
X15225000Y29464511D01*
X15156492Y29629905D01*
X15029905Y29756492D01*
X14864511Y29825000D01*
X14685489Y29825000D01*
X14520095Y29756492D01*
X14393508Y29629905D01*
X14345108Y29513056D01*
X14250000Y29417948D01*
X14250000Y29514511D01*
X14181492Y29679905D01*
X14054905Y29806492D01*
X13895378Y29872570D01*
X13711941Y30056007D01*
X13689537Y30089537D01*
X13556696Y30178298D01*
X13439550Y30201600D01*
X13439549Y30201600D01*
X13400000Y30209467D01*
X13360451Y30201600D01*
X11964549Y30201600D01*
X11925000Y30209467D01*
X11885451Y30201600D01*
X11885450Y30201600D01*
X11768304Y30178298D01*
X11635463Y30089537D01*
X11613059Y30056007D01*
X11119552Y29562500D01*
X10968153Y29562500D01*
X10747627Y29471156D01*
X10578844Y29302373D01*
X10569270Y29279259D01*
X10464873Y29383656D01*
X10244347Y29475000D01*
X10005653Y29475000D01*
X9785127Y29383656D01*
X9616344Y29214873D01*
X9525000Y28994347D01*
X9525000Y28755653D01*
X9616344Y28535127D01*
X9785127Y28366344D01*
X10005653Y28275000D01*
X10244347Y28275000D01*
X10464873Y28366344D01*
X10633656Y28535127D01*
X10643230Y28558241D01*
X10747627Y28453844D01*
X10753063Y28451592D01*
X10716344Y28414873D01*
X10625000Y28194347D01*
X10625000Y27955653D01*
X10716344Y27735127D01*
X10885127Y27566344D01*
X11105653Y27475000D01*
X11344347Y27475000D01*
X11564873Y27566344D01*
X11723192Y27724663D01*
X11791344Y27560127D01*
X11960127Y27391344D01*
X12180653Y27300000D01*
X12275000Y27300000D01*
X12275000Y27235489D01*
X12327724Y27108201D01*
X9159747Y27108201D01*
X8361941Y27906007D01*
X8339537Y27939537D01*
X8206696Y28028298D01*
X8089550Y28051600D01*
X8089549Y28051600D01*
X8050000Y28059467D01*
X8010451Y28051600D01*
X6115189Y28051600D01*
X6129103Y28060897D01*
X6383276Y28441293D01*
X6472529Y28890000D01*
X6383276Y29338707D01*
X6129103Y29719103D01*
X5748707Y29973276D01*
X5413261Y30040000D01*
X5186739Y30040000D01*
X4851293Y29973276D01*
X4470897Y29719103D01*
X4216724Y29338707D01*
X4127471Y28890000D01*
X4216724Y28441293D01*
X4470897Y28060897D01*
X4484811Y28051600D01*
X2146929Y28051600D01*
X2039873Y28158656D01*
X1819347Y28250000D01*
X1580653Y28250000D01*
X1360127Y28158656D01*
X1191344Y27989873D01*
X1100000Y27769347D01*
X375000Y27769347D01*
X375000Y31430000D01*
X4127471Y31430000D01*
X4216724Y30981293D01*
X4470897Y30600897D01*
X4851293Y30346724D01*
X5186739Y30280000D01*
X5413261Y30280000D01*
X5748707Y30346724D01*
X6129103Y30600897D01*
X6383276Y30981293D01*
X6464475Y31389511D01*
X16275000Y31389511D01*
X16275000Y31210489D01*
X16343508Y31045095D01*
X16470095Y30918508D01*
X16586944Y30870108D01*
X17063059Y30393993D01*
X17085463Y30360463D01*
X17118992Y30338060D01*
X17218303Y30271702D01*
X17375000Y30240533D01*
X17414550Y30248400D01*
X18010451Y30248400D01*
X18050000Y30240533D01*
X18089549Y30248400D01*
X18089550Y30248400D01*
X18206696Y30271702D01*
X18339537Y30360463D01*
X18361941Y30393993D01*
X18692949Y30725000D01*
X18844347Y30725000D01*
X19064873Y30816344D01*
X19233656Y30985127D01*
X19325000Y31205653D01*
X19325000Y31444347D01*
X19233656Y31664873D01*
X19064873Y31833656D01*
X18844347Y31925000D01*
X18605653Y31925000D01*
X18385127Y31833656D01*
X18216344Y31664873D01*
X18206770Y31641759D01*
X18039873Y31808656D01*
X17819347Y31900000D01*
X17580653Y31900000D01*
X17360127Y31808656D01*
X17191344Y31639873D01*
X17131321Y31494963D01*
X17106492Y31554905D01*
X16979905Y31681492D01*
X16814511Y31750000D01*
X16635489Y31750000D01*
X16470095Y31681492D01*
X16343508Y31554905D01*
X16275000Y31389511D01*
X6464475Y31389511D01*
X6472529Y31430000D01*
X6383276Y31878707D01*
X6129103Y32259103D01*
X5748707Y32513276D01*
X5413261Y32580000D01*
X5186739Y32580000D01*
X4851293Y32513276D01*
X4470897Y32259103D01*
X4216724Y31878707D01*
X4127471Y31430000D01*
X375000Y31430000D01*
X375000Y33389511D01*
X13275000Y33389511D01*
X13275000Y33210489D01*
X13343508Y33045095D01*
X13470095Y32918508D01*
X13635489Y32850000D01*
X13814511Y32850000D01*
X13931360Y32898400D01*
X15601790Y32898400D01*
X15385127Y32808656D01*
X15216344Y32639873D01*
X15125000Y32419347D01*
X15125000Y32180653D01*
X15216344Y31960127D01*
X15385127Y31791344D01*
X15605653Y31700000D01*
X15844347Y31700000D01*
X16064873Y31791344D01*
X16233656Y31960127D01*
X16325000Y32180653D01*
X16325000Y32419347D01*
X16233656Y32639873D01*
X16064873Y32808656D01*
X15848210Y32898400D01*
X16435451Y32898400D01*
X16475000Y32890533D01*
X16514549Y32898400D01*
X16514550Y32898400D01*
X16631696Y32921702D01*
X16764537Y33010463D01*
X16786941Y33043993D01*
X18117948Y34375000D01*
X18232052Y34375000D01*
X17611944Y33754892D01*
X17495095Y33706492D01*
X17368508Y33579905D01*
X17300000Y33414511D01*
X17300000Y33235489D01*
X17368508Y33070095D01*
X17495095Y32943508D01*
X17660489Y32875000D01*
X17839511Y32875000D01*
X18004905Y32943508D01*
X18131492Y33070095D01*
X18179892Y33186944D01*
X18587295Y33594347D01*
X25025000Y33594347D01*
X25025000Y33355653D01*
X25116344Y33135127D01*
X25285127Y32966344D01*
X25505653Y32875000D01*
X25744347Y32875000D01*
X25964873Y32966344D01*
X26071929Y33073400D01*
X32585451Y33073400D01*
X32625000Y33065533D01*
X32664549Y33073400D01*
X32664550Y33073400D01*
X32781696Y33096702D01*
X32914537Y33185463D01*
X32936941Y33218993D01*
X33094338Y33376390D01*
X33050000Y33269347D01*
X33050000Y33030653D01*
X33141344Y32810127D01*
X33310127Y32641344D01*
X33530653Y32550000D01*
X33769347Y32550000D01*
X33989873Y32641344D01*
X34158656Y32810127D01*
X34250000Y33030653D01*
X34250000Y33269347D01*
X34158656Y33489873D01*
X33989873Y33658656D01*
X33769347Y33750000D01*
X33530653Y33750000D01*
X33423611Y33705662D01*
X33666347Y33948398D01*
X34403071Y33948398D01*
X34510127Y33841342D01*
X34730653Y33749998D01*
X34969347Y33749998D01*
X35189873Y33841342D01*
X35358656Y34010125D01*
X35450000Y34230651D01*
X35450000Y34469345D01*
X35358656Y34689871D01*
X35189873Y34858654D01*
X34969347Y34949998D01*
X34730653Y34949998D01*
X34510127Y34858654D01*
X34403071Y34751598D01*
X33539546Y34751598D01*
X33499997Y34759465D01*
X33460448Y34751598D01*
X33343302Y34728296D01*
X33300465Y34699673D01*
X33243989Y34661938D01*
X33243988Y34661937D01*
X33210461Y34639535D01*
X33188059Y34606008D01*
X32458652Y33876600D01*
X26071929Y33876600D01*
X25964873Y33983656D01*
X25744347Y34075000D01*
X25505653Y34075000D01*
X25285127Y33983656D01*
X25116344Y33814873D01*
X25025000Y33594347D01*
X18587295Y33594347D01*
X20071559Y35078611D01*
X20141346Y34910129D01*
X20310129Y34741346D01*
X20530655Y34650002D01*
X20769349Y34650002D01*
X20989875Y34741346D01*
X21096931Y34848402D01*
X28778071Y34848402D01*
X28885127Y34741346D01*
X29105653Y34650002D01*
X29344347Y34650002D01*
X29564873Y34741346D01*
X29733656Y34910129D01*
X29825000Y35130655D01*
X29825000Y35369349D01*
X29733656Y35589875D01*
X29564873Y35758658D01*
X29344347Y35850002D01*
X29199998Y35850002D01*
X29199998Y36021405D01*
X29147215Y36148835D01*
X32355684Y36148835D01*
X32327471Y36007000D01*
X32416724Y35558293D01*
X32670897Y35177897D01*
X33051293Y34923724D01*
X33386739Y34857000D01*
X33613261Y34857000D01*
X33948707Y34923724D01*
X34329103Y35177897D01*
X34583276Y35558293D01*
X34606188Y35673484D01*
X35097328Y35673484D01*
X35189400Y35451165D01*
X35476357Y35106203D01*
X35873482Y34897313D01*
X36050000Y34934810D01*
X36050000Y35850000D01*
X36350000Y35850000D01*
X36350000Y34934810D01*
X36526518Y34897313D01*
X36923643Y35106203D01*
X37210600Y35451165D01*
X37302672Y35673484D01*
X37264483Y35850000D01*
X36350000Y35850000D01*
X36050000Y35850000D01*
X35135517Y35850000D01*
X35097328Y35673484D01*
X34606188Y35673484D01*
X34672529Y36007000D01*
X34608974Y36326516D01*
X35097328Y36326516D01*
X35135517Y36150000D01*
X36050000Y36150000D01*
X36050000Y37065190D01*
X36350000Y37065190D01*
X36350000Y36150000D01*
X37264483Y36150000D01*
X37302672Y36326516D01*
X37210600Y36548835D01*
X36923643Y36893797D01*
X36526518Y37102687D01*
X36350000Y37065190D01*
X36050000Y37065190D01*
X35873482Y37102687D01*
X35476357Y36893797D01*
X35189400Y36548835D01*
X35097328Y36326516D01*
X34608974Y36326516D01*
X34583276Y36455707D01*
X34329103Y36836103D01*
X33948707Y37090276D01*
X33613261Y37157000D01*
X33386739Y37157000D01*
X33051293Y37090276D01*
X32844401Y36952035D01*
X29750564Y36952035D01*
X29783656Y36985127D01*
X29875000Y37205653D01*
X29875000Y37444347D01*
X29783656Y37664873D01*
X29614873Y37833656D01*
X29394347Y37925000D01*
X29155653Y37925000D01*
X28935127Y37833656D01*
X28766344Y37664873D01*
X28675000Y37444347D01*
X28675000Y37205653D01*
X28766344Y36985127D01*
X28799436Y36952035D01*
X26933095Y36952035D01*
X26826039Y37059091D01*
X26605513Y37150435D01*
X26366819Y37150435D01*
X26146293Y37059091D01*
X25977510Y36890308D01*
X25886166Y36669782D01*
X25886166Y36431088D01*
X25938949Y36303658D01*
X20366602Y36303658D01*
X20327057Y36311524D01*
X20287512Y36303658D01*
X20287508Y36303658D01*
X20170362Y36280356D01*
X20037521Y36191595D01*
X20015117Y36158065D01*
X18750000Y34892948D01*
X18750000Y35094347D01*
X18658656Y35314873D01*
X18489873Y35483656D01*
X18269347Y35575000D01*
X18030653Y35575000D01*
X17810127Y35483656D01*
X17641344Y35314873D01*
X17550000Y35094347D01*
X17550000Y34942948D01*
X16308652Y33701600D01*
X13931360Y33701600D01*
X13814511Y33750000D01*
X13635489Y33750000D01*
X13470095Y33681492D01*
X13343508Y33554905D01*
X13275000Y33389511D01*
X375000Y33389511D01*
X375000Y35673484D01*
X675328Y35673484D01*
X767400Y35451165D01*
X1054357Y35106203D01*
X1451482Y34897313D01*
X1628000Y34934810D01*
X1628000Y35850000D01*
X1928000Y35850000D01*
X1928000Y34934810D01*
X2104518Y34897313D01*
X2501643Y35106203D01*
X2788600Y35451165D01*
X2880672Y35673484D01*
X3215328Y35673484D01*
X3307400Y35451165D01*
X3594357Y35106203D01*
X3991482Y34897313D01*
X4168000Y34934810D01*
X4168000Y35850000D01*
X4468000Y35850000D01*
X4468000Y34934810D01*
X4644518Y34897313D01*
X5041643Y35106203D01*
X5260539Y35369347D01*
X14625000Y35369347D01*
X14625000Y35130653D01*
X14716344Y34910127D01*
X14885127Y34741344D01*
X15105653Y34650000D01*
X15344347Y34650000D01*
X15564873Y34741344D01*
X15695159Y34871630D01*
X15741344Y34760127D01*
X15910127Y34591344D01*
X16130653Y34500000D01*
X16369347Y34500000D01*
X16589873Y34591344D01*
X16758656Y34760127D01*
X16850000Y34980653D01*
X16850000Y35219347D01*
X16758656Y35439873D01*
X16589873Y35608656D01*
X16369347Y35700000D01*
X16130653Y35700000D01*
X15910127Y35608656D01*
X15779841Y35478370D01*
X15733656Y35589873D01*
X15564873Y35758656D01*
X15344347Y35850000D01*
X15105653Y35850000D01*
X14885127Y35758656D01*
X14716344Y35589873D01*
X14625000Y35369347D01*
X5260539Y35369347D01*
X5328600Y35451165D01*
X5420672Y35673484D01*
X5382483Y35850000D01*
X4468000Y35850000D01*
X4168000Y35850000D01*
X3253517Y35850000D01*
X3215328Y35673484D01*
X2880672Y35673484D01*
X2842483Y35850000D01*
X1928000Y35850000D01*
X1628000Y35850000D01*
X713517Y35850000D01*
X675328Y35673484D01*
X375000Y35673484D01*
X375000Y36326516D01*
X675328Y36326516D01*
X713517Y36150000D01*
X1628000Y36150000D01*
X1628000Y37065190D01*
X1928000Y37065190D01*
X1928000Y36150000D01*
X2842483Y36150000D01*
X2880672Y36326516D01*
X3215328Y36326516D01*
X3253517Y36150000D01*
X4168000Y36150000D01*
X4168000Y37065190D01*
X4468000Y37065190D01*
X4468000Y36150000D01*
X5382483Y36150000D01*
X5420672Y36326516D01*
X5413288Y36344347D01*
X17550000Y36344347D01*
X17550000Y36105653D01*
X17641344Y35885127D01*
X17810127Y35716344D01*
X18030653Y35625000D01*
X18269347Y35625000D01*
X18489873Y35716344D01*
X18658656Y35885127D01*
X18750000Y36105653D01*
X18750000Y36344347D01*
X18658656Y36564873D01*
X18489873Y36733656D01*
X18269347Y36825000D01*
X18030653Y36825000D01*
X17810127Y36733656D01*
X17641344Y36564873D01*
X17550000Y36344347D01*
X5413288Y36344347D01*
X5328600Y36548835D01*
X5041643Y36893797D01*
X4644518Y37102687D01*
X4468000Y37065190D01*
X4168000Y37065190D01*
X3991482Y37102687D01*
X3594357Y36893797D01*
X3307400Y36548835D01*
X3215328Y36326516D01*
X2880672Y36326516D01*
X2788600Y36548835D01*
X2501643Y36893797D01*
X2104518Y37102687D01*
X1928000Y37065190D01*
X1628000Y37065190D01*
X1451482Y37102687D01*
X1054357Y36893797D01*
X767400Y36548835D01*
X675328Y36326516D01*
X375000Y36326516D01*
X375000Y38540000D01*
X605471Y38540000D01*
X694724Y38091293D01*
X948897Y37710897D01*
X1329293Y37456724D01*
X1664739Y37390000D01*
X1891261Y37390000D01*
X2226707Y37456724D01*
X2607103Y37710897D01*
X2861276Y38091293D01*
X2950529Y38540000D01*
X3145471Y38540000D01*
X3234724Y38091293D01*
X3488897Y37710897D01*
X3869293Y37456724D01*
X4204739Y37390000D01*
X4431261Y37390000D01*
X4766707Y37456724D01*
X5147103Y37710897D01*
X5401276Y38091293D01*
X5490529Y38540000D01*
X5401276Y38988707D01*
X5147103Y39369103D01*
X4766707Y39623276D01*
X4431261Y39690000D01*
X4204739Y39690000D01*
X3869293Y39623276D01*
X3488897Y39369103D01*
X3234724Y38988707D01*
X3145471Y38540000D01*
X2950529Y38540000D01*
X2861276Y38988707D01*
X2607103Y39369103D01*
X2226707Y39623276D01*
X1891261Y39690000D01*
X1664739Y39690000D01*
X1329293Y39623276D01*
X948897Y39369103D01*
X694724Y38988707D01*
X605471Y38540000D01*
X375000Y38540000D01*
X375000Y41080000D01*
X605471Y41080000D01*
X694724Y40631293D01*
X948897Y40250897D01*
X1329293Y39996724D01*
X1664739Y39930000D01*
X1891261Y39930000D01*
X2226707Y39996724D01*
X2607103Y40250897D01*
X2861276Y40631293D01*
X2950529Y41080000D01*
X2861276Y41528707D01*
X2607103Y41909103D01*
X2226707Y42163276D01*
X1891261Y42230000D01*
X1664739Y42230000D01*
X1329293Y42163276D01*
X948897Y41909103D01*
X694724Y41528707D01*
X605471Y41080000D01*
X375000Y41080000D01*
X375000Y43620000D01*
X605471Y43620000D01*
X694724Y43171293D01*
X948897Y42790897D01*
X1329293Y42536724D01*
X1664739Y42470000D01*
X1891261Y42470000D01*
X2226707Y42536724D01*
X2607103Y42790897D01*
X2861276Y43171293D01*
X2950529Y43620000D01*
X2861276Y44068707D01*
X2607103Y44449103D01*
X2226707Y44703276D01*
X1891261Y44770000D01*
X1664739Y44770000D01*
X1329293Y44703276D01*
X948897Y44449103D01*
X694724Y44068707D01*
X605471Y43620000D01*
X375000Y43620000D01*
X375000Y46160000D01*
X605471Y46160000D01*
X694724Y45711293D01*
X948897Y45330897D01*
X1329293Y45076724D01*
X1664739Y45010000D01*
X1891261Y45010000D01*
X2226707Y45076724D01*
X2607103Y45330897D01*
X2861276Y45711293D01*
X2950529Y46160000D01*
X3145471Y46160000D01*
X3234724Y45711293D01*
X3488897Y45330897D01*
X3869293Y45076724D01*
X4204739Y45010000D01*
X4431261Y45010000D01*
X4766707Y45076724D01*
X4819831Y45112221D01*
X5798400Y44133652D01*
X5798401Y42989553D01*
X5790533Y42950000D01*
X5821703Y42793304D01*
X5888060Y42693992D01*
X5888062Y42693990D01*
X5910464Y42660463D01*
X5943991Y42638061D01*
X8480452Y40101600D01*
X8416349Y40101600D01*
X5379398Y43138550D01*
X5401276Y43171293D01*
X5490529Y43620000D01*
X5401276Y44068707D01*
X5147103Y44449103D01*
X4766707Y44703276D01*
X4431261Y44770000D01*
X4204739Y44770000D01*
X3869293Y44703276D01*
X3488897Y44449103D01*
X3234724Y44068707D01*
X3145471Y43620000D01*
X3234724Y43171293D01*
X3488897Y42790897D01*
X3869293Y42536724D01*
X4204739Y42470000D01*
X4431261Y42470000D01*
X4766707Y42536724D01*
X4813837Y42568215D01*
X7783653Y39598398D01*
X6367550Y39598398D01*
X5374591Y40591357D01*
X5401276Y40631293D01*
X5490529Y41080000D01*
X5401276Y41528707D01*
X5147103Y41909103D01*
X4766707Y42163276D01*
X4431261Y42230000D01*
X4204739Y42230000D01*
X3869293Y42163276D01*
X3488897Y41909103D01*
X3234724Y41528707D01*
X3145471Y41080000D01*
X3234724Y40631293D01*
X3488897Y40250897D01*
X3869293Y39996724D01*
X4204739Y39930000D01*
X4431261Y39930000D01*
X4766707Y39996724D01*
X4806643Y40023409D01*
X5889261Y38940791D01*
X5911665Y38907261D01*
X5945194Y38884858D01*
X6044505Y38818500D01*
X6201202Y38787331D01*
X6240752Y38795198D01*
X8121669Y38795198D01*
X8116344Y38789873D01*
X8025000Y38569347D01*
X8025000Y38330653D01*
X8116344Y38110127D01*
X8285127Y37941344D01*
X8505653Y37850000D01*
X8744347Y37850000D01*
X8964873Y37941344D01*
X9133656Y38110127D01*
X9225000Y38330653D01*
X9225000Y38569347D01*
X9133656Y38789873D01*
X9128331Y38795198D01*
X15866640Y38795198D01*
X16392845Y38268993D01*
X16415249Y38235463D01*
X16548090Y38146702D01*
X16665236Y38123400D01*
X16665237Y38123400D01*
X16704786Y38115533D01*
X16744335Y38123400D01*
X17985451Y38123400D01*
X18025000Y38115533D01*
X18064549Y38123400D01*
X18064550Y38123400D01*
X18181696Y38146702D01*
X18314537Y38235463D01*
X18336941Y38268993D01*
X19042948Y38975000D01*
X19194347Y38975000D01*
X19414873Y39066344D01*
X19583656Y39235127D01*
X19593230Y39258241D01*
X19735127Y39116344D01*
X19955653Y39025000D01*
X20194347Y39025000D01*
X20301411Y39069347D01*
X23350000Y39069347D01*
X23350000Y38830653D01*
X23441344Y38610127D01*
X23610127Y38441344D01*
X23830653Y38350000D01*
X24069347Y38350000D01*
X24289873Y38441344D01*
X24458656Y38610127D01*
X24550000Y38830653D01*
X24550000Y39069347D01*
X24458656Y39289873D01*
X24289873Y39458656D01*
X24069347Y39550000D01*
X23830653Y39550000D01*
X23610127Y39458656D01*
X23441344Y39289873D01*
X23350000Y39069347D01*
X20301411Y39069347D01*
X20414873Y39116344D01*
X20583656Y39285127D01*
X20675000Y39505653D01*
X20675000Y39744347D01*
X20583656Y39964873D01*
X20414873Y40133656D01*
X20194347Y40225000D01*
X19955653Y40225000D01*
X19735127Y40133656D01*
X19566344Y39964873D01*
X19556770Y39941759D01*
X19414873Y40083656D01*
X19194347Y40175000D01*
X18955653Y40175000D01*
X18735127Y40083656D01*
X18662500Y40011029D01*
X18514873Y40158656D01*
X18294347Y40250000D01*
X18055653Y40250000D01*
X17835127Y40158656D01*
X17666344Y39989873D01*
X17650000Y39950415D01*
X17633656Y39989873D01*
X17464873Y40158656D01*
X17244347Y40250000D01*
X17092948Y40250000D01*
X16868541Y40474407D01*
X16846138Y40507936D01*
X16713297Y40596697D01*
X16596151Y40619999D01*
X16596150Y40619999D01*
X16556601Y40627866D01*
X16517052Y40619999D01*
X15649877Y40619999D01*
X15675000Y40680653D01*
X15675000Y40919347D01*
X15583656Y41139873D01*
X15414873Y41308656D01*
X15194347Y41400000D01*
X14955653Y41400000D01*
X14735127Y41308656D01*
X14566344Y41139873D01*
X14475000Y40919347D01*
X14475000Y40680653D01*
X14497389Y40626600D01*
X9593922Y40626600D01*
X9689873Y40666344D01*
X9858656Y40835127D01*
X9950000Y41055653D01*
X9950000Y41294347D01*
X9858656Y41514873D01*
X9689873Y41683656D01*
X9469347Y41775000D01*
X9230653Y41775000D01*
X9010127Y41683656D01*
X8841344Y41514873D01*
X8750000Y41294347D01*
X8750000Y41055653D01*
X8812016Y40905932D01*
X6601600Y43116348D01*
X6601600Y44260456D01*
X6609466Y44300001D01*
X6601600Y44339546D01*
X6601600Y44339550D01*
X6578298Y44456696D01*
X6489537Y44589537D01*
X6456008Y44611940D01*
X5383403Y45684545D01*
X5401276Y45711293D01*
X5490529Y46160000D01*
X5401276Y46608707D01*
X5147103Y46989103D01*
X4766707Y47243276D01*
X4431261Y47310000D01*
X4204739Y47310000D01*
X3869293Y47243276D01*
X3488897Y46989103D01*
X3234724Y46608707D01*
X3145471Y46160000D01*
X2950529Y46160000D01*
X2861276Y46608707D01*
X2607103Y46989103D01*
X2226707Y47243276D01*
X1891261Y47310000D01*
X1664739Y47310000D01*
X1329293Y47243276D01*
X948897Y46989103D01*
X694724Y46608707D01*
X605471Y46160000D01*
X375000Y46160000D01*
X375000Y49550000D01*
X622123Y49550000D01*
X622123Y47850000D01*
X645407Y47732946D01*
X711712Y47633712D01*
X810946Y47567407D01*
X928000Y47544123D01*
X2628000Y47544123D01*
X2745054Y47567407D01*
X2844288Y47633712D01*
X2910593Y47732946D01*
X2933877Y47850000D01*
X2933877Y49550000D01*
X3162123Y49550000D01*
X3162123Y47850000D01*
X3185407Y47732946D01*
X3251712Y47633712D01*
X3350946Y47567407D01*
X3468000Y47544123D01*
X5168000Y47544123D01*
X5285054Y47567407D01*
X5384288Y47633712D01*
X5450593Y47732946D01*
X5473877Y47850000D01*
X5473877Y48619347D01*
X13000000Y48619347D01*
X13000000Y48380653D01*
X13091344Y48160127D01*
X13260127Y47991344D01*
X13480653Y47900000D01*
X13719347Y47900000D01*
X13939873Y47991344D01*
X14108656Y48160127D01*
X14200000Y48380653D01*
X14200000Y48619347D01*
X14108656Y48839873D01*
X13939873Y49008656D01*
X13719347Y49100000D01*
X13480653Y49100000D01*
X13260127Y49008656D01*
X13091344Y48839873D01*
X13000000Y48619347D01*
X5473877Y48619347D01*
X5473877Y49550000D01*
X5450593Y49667054D01*
X5384288Y49766288D01*
X5285054Y49832593D01*
X5168000Y49855877D01*
X3468000Y49855877D01*
X3350946Y49832593D01*
X3251712Y49766288D01*
X3185407Y49667054D01*
X3162123Y49550000D01*
X2933877Y49550000D01*
X2910593Y49667054D01*
X2844288Y49766288D01*
X2745054Y49832593D01*
X2628000Y49855877D01*
X928000Y49855877D01*
X810946Y49832593D01*
X711712Y49766288D01*
X645407Y49667054D01*
X622123Y49550000D01*
X375000Y49550000D01*
X375000Y50019347D01*
X8025000Y50019347D01*
X8025000Y49780653D01*
X8116344Y49560127D01*
X8285127Y49391344D01*
X8505653Y49300000D01*
X8744347Y49300000D01*
X8964873Y49391344D01*
X9084629Y49511100D01*
X16375000Y49511100D01*
X16375000Y49225000D01*
X16382612Y49186732D01*
X16404289Y49154289D01*
X16704289Y48854289D01*
X16736732Y48832612D01*
X16775000Y48825000D01*
X17225000Y48825000D01*
X17263268Y48832612D01*
X17295711Y48854289D01*
X17595711Y49154289D01*
X17617388Y49186732D01*
X17625000Y49225000D01*
X17625000Y49575000D01*
X17617388Y49613268D01*
X17595711Y49645711D01*
X17341422Y49900000D01*
X17369347Y49900000D01*
X17589873Y49991344D01*
X17758656Y50160127D01*
X17850000Y50380653D01*
X17850000Y50619347D01*
X17758656Y50839873D01*
X17589873Y51008656D01*
X17460693Y51062164D01*
X17608656Y51210127D01*
X17700000Y51430653D01*
X17700000Y51669347D01*
X17608656Y51889873D01*
X17587429Y51911100D01*
X20940371Y51911100D01*
X21060127Y51791344D01*
X21280653Y51700000D01*
X21519347Y51700000D01*
X21739873Y51791344D01*
X21908656Y51960127D01*
X22000000Y52180653D01*
X22000000Y52419347D01*
X21908656Y52639873D01*
X21739873Y52808656D01*
X21519347Y52900000D01*
X21280653Y52900000D01*
X21060127Y52808656D01*
X20940371Y52688900D01*
X16686088Y52688900D01*
X16500000Y52874987D01*
X16500000Y53044347D01*
X16408656Y53264873D01*
X16239873Y53433656D01*
X16019347Y53525000D01*
X15780653Y53525000D01*
X15560127Y53433656D01*
X15391344Y53264873D01*
X15300000Y53044347D01*
X15300000Y52805653D01*
X15391344Y52585127D01*
X15560127Y52416344D01*
X15780653Y52325000D01*
X15950013Y52325000D01*
X16222923Y52052089D01*
X16244619Y52019619D01*
X16277089Y51997923D01*
X16277090Y51997922D01*
X16324364Y51966335D01*
X16365423Y51938900D01*
X9859059Y51938900D01*
X9858656Y51939873D01*
X9689873Y52108656D01*
X9469347Y52200000D01*
X9230653Y52200000D01*
X9010127Y52108656D01*
X8841344Y51939873D01*
X8750000Y51719347D01*
X8750000Y51480653D01*
X8841344Y51260127D01*
X9010127Y51091344D01*
X9230653Y51000000D01*
X9469347Y51000000D01*
X9689873Y51091344D01*
X9759629Y51161100D01*
X15886739Y51161100D01*
X15760127Y51108656D01*
X15591344Y50939873D01*
X15500000Y50719347D01*
X15500000Y50480653D01*
X15579426Y50288900D01*
X13761995Y50288900D01*
X13800000Y50380653D01*
X13800000Y50619347D01*
X13708656Y50839873D01*
X13539873Y51008656D01*
X13319347Y51100000D01*
X13080653Y51100000D01*
X12860127Y51008656D01*
X12691344Y50839873D01*
X12600000Y50619347D01*
X12600000Y50380653D01*
X12638005Y50288900D01*
X9084629Y50288900D01*
X8964873Y50408656D01*
X8744347Y50500000D01*
X8505653Y50500000D01*
X8285127Y50408656D01*
X8116344Y50239873D01*
X8025000Y50019347D01*
X375000Y50019347D01*
X375000Y52019347D01*
X3800000Y52019347D01*
X3800000Y51780653D01*
X3891344Y51560127D01*
X4060127Y51391344D01*
X4280653Y51300000D01*
X4519347Y51300000D01*
X4739873Y51391344D01*
X4908656Y51560127D01*
X5000000Y51780653D01*
X5000000Y52019347D01*
X4908656Y52239873D01*
X4739873Y52408656D01*
X4519347Y52500000D01*
X4280653Y52500000D01*
X4060127Y52408656D01*
X3891344Y52239873D01*
X3800000Y52019347D01*
X375000Y52019347D01*
X375000Y53919347D01*
X700000Y53919347D01*
X700000Y53680653D01*
X791344Y53460127D01*
X960127Y53291344D01*
X1180653Y53200000D01*
X1419347Y53200000D01*
X1639873Y53291344D01*
X1808656Y53460127D01*
X1900000Y53680653D01*
X1900000Y53919347D01*
X1879290Y53969347D01*
X4800000Y53969347D01*
X4800000Y53730653D01*
X4891344Y53510127D01*
X5060127Y53341344D01*
X5280653Y53250000D01*
X5519347Y53250000D01*
X5739873Y53341344D01*
X5908656Y53510127D01*
X6000000Y53730653D01*
X6000000Y53882052D01*
X6406346Y54288398D01*
X21183071Y54288398D01*
X21290127Y54181342D01*
X21510653Y54089998D01*
X21749347Y54089998D01*
X21969873Y54181342D01*
X22138656Y54350125D01*
X22230000Y54570651D01*
X22230000Y54809345D01*
X22138656Y55029871D01*
X21969873Y55198654D01*
X21749347Y55289998D01*
X21510653Y55289998D01*
X21290127Y55198654D01*
X21183071Y55091598D01*
X6279548Y55091598D01*
X6239998Y55099465D01*
X6200448Y55091598D01*
X6083302Y55068296D01*
X5950461Y54979535D01*
X5928057Y54946005D01*
X5432052Y54450000D01*
X5280653Y54450000D01*
X5060127Y54358656D01*
X4891344Y54189873D01*
X4800000Y53969347D01*
X1879290Y53969347D01*
X1808656Y54139873D01*
X1639873Y54308656D01*
X1419347Y54400000D01*
X1180653Y54400000D01*
X960127Y54308656D01*
X791344Y54139873D01*
X700000Y53919347D01*
X375000Y53919347D01*
X375000Y55639239D01*
X2300000Y55639239D01*
X2300000Y55360761D01*
X2406568Y55103482D01*
X2603482Y54906568D01*
X2860761Y54800000D01*
X3139239Y54800000D01*
X3396518Y54906568D01*
X3593432Y55103482D01*
X3700000Y55360761D01*
X3700000Y55639239D01*
X3593432Y55896518D01*
X3396518Y56093432D01*
X3333954Y56119347D01*
X8800000Y56119347D01*
X8800000Y55880653D01*
X8891344Y55660127D01*
X9060127Y55491344D01*
X9280653Y55400000D01*
X9519347Y55400000D01*
X9739873Y55491344D01*
X9908656Y55660127D01*
X10000000Y55880653D01*
X10000000Y56119347D01*
X9958580Y56219347D01*
X10600000Y56219347D01*
X10600000Y55980653D01*
X10691344Y55760127D01*
X10860127Y55591344D01*
X11080653Y55500000D01*
X11319347Y55500000D01*
X11539873Y55591344D01*
X11708656Y55760127D01*
X11800000Y55980653D01*
X11800000Y56219347D01*
X11708656Y56439873D01*
X11539873Y56608656D01*
X11319347Y56700000D01*
X11080653Y56700000D01*
X10860127Y56608656D01*
X10691344Y56439873D01*
X10600000Y56219347D01*
X9958580Y56219347D01*
X9908656Y56339873D01*
X9739873Y56508656D01*
X9519347Y56600000D01*
X9280653Y56600000D01*
X9060127Y56508656D01*
X8891344Y56339873D01*
X8800000Y56119347D01*
X3333954Y56119347D01*
X3139239Y56200000D01*
X2860761Y56200000D01*
X2603482Y56093432D01*
X2406568Y55896518D01*
X2300000Y55639239D01*
X375000Y55639239D01*
X375000Y60919347D01*
X6100000Y60919347D01*
X6100000Y60680653D01*
X6191344Y60460127D01*
X6360127Y60291344D01*
X6580653Y60200000D01*
X6819347Y60200000D01*
X7039873Y60291344D01*
X7146929Y60398400D01*
X18183652Y60398400D01*
X19550000Y59032052D01*
X19550000Y58880653D01*
X19641344Y58660127D01*
X19810127Y58491344D01*
X20030653Y58400000D01*
X20269347Y58400000D01*
X20489873Y58491344D01*
X20658656Y58660127D01*
X20750000Y58880653D01*
X20750000Y59119347D01*
X20658656Y59339873D01*
X20489873Y59508656D01*
X20269347Y59600000D01*
X20117948Y59600000D01*
X18661941Y61056007D01*
X18639537Y61089537D01*
X18506696Y61178298D01*
X18389550Y61201600D01*
X18389549Y61201600D01*
X18350000Y61209467D01*
X18310451Y61201600D01*
X7146929Y61201600D01*
X7039873Y61308656D01*
X6819347Y61400000D01*
X6580653Y61400000D01*
X6360127Y61308656D01*
X6191344Y61139873D01*
X6100000Y60919347D01*
X375000Y60919347D01*
X375000Y63828749D01*
X7450000Y63828749D01*
X7450000Y63371251D01*
X7625077Y62948577D01*
X7948577Y62625077D01*
X8371251Y62450000D01*
X8828749Y62450000D01*
X9251423Y62625077D01*
X9445693Y62819347D01*
X14425000Y62819347D01*
X14425000Y62580653D01*
X14516344Y62360127D01*
X14626471Y62250000D01*
X14541344Y62164873D01*
X14450000Y61944347D01*
X14450000Y61705653D01*
X14541344Y61485127D01*
X14710127Y61316344D01*
X14930653Y61225000D01*
X15169347Y61225000D01*
X15389873Y61316344D01*
X15558656Y61485127D01*
X15650000Y61705653D01*
X15650000Y61944347D01*
X15558656Y62164873D01*
X15448529Y62275000D01*
X15533656Y62360127D01*
X15625000Y62580653D01*
X15625000Y62819347D01*
X15533656Y63039873D01*
X15364873Y63208656D01*
X15144347Y63300000D01*
X14905653Y63300000D01*
X14685127Y63208656D01*
X14516344Y63039873D01*
X14425000Y62819347D01*
X9445693Y62819347D01*
X9574923Y62948577D01*
X9750000Y63371251D01*
X9750000Y63828749D01*
X9574923Y64251423D01*
X9251423Y64574923D01*
X8828749Y64750000D01*
X8371251Y64750000D01*
X7948577Y64574923D01*
X7625077Y64251423D01*
X7450000Y63828749D01*
X375000Y63828749D01*
X375000Y66608042D01*
X950000Y66608042D01*
X950000Y65891958D01*
X1224034Y65230382D01*
X1730382Y64724034D01*
X2391958Y64450000D01*
X3108042Y64450000D01*
X3769618Y64724034D01*
X4264931Y65219347D01*
X21200000Y65219347D01*
X21200000Y64980653D01*
X21291344Y64760127D01*
X21460127Y64591344D01*
X21680653Y64500000D01*
X21919347Y64500000D01*
X22139873Y64591344D01*
X22308656Y64760127D01*
X22400000Y64980653D01*
X22400000Y65219347D01*
X22308656Y65439873D01*
X22139873Y65608656D01*
X21919347Y65700000D01*
X21680653Y65700000D01*
X21460127Y65608656D01*
X21291344Y65439873D01*
X21200000Y65219347D01*
X4264931Y65219347D01*
X4275966Y65230382D01*
X4550000Y65891958D01*
X4550000Y66608042D01*
X4275966Y67269618D01*
X3926237Y67619347D01*
X11600000Y67619347D01*
X11600000Y67380653D01*
X11691344Y67160127D01*
X11860127Y66991344D01*
X12080653Y66900000D01*
X12319347Y66900000D01*
X12539873Y66991344D01*
X12708656Y67160127D01*
X12800000Y67380653D01*
X12800000Y67619347D01*
X12708656Y67839873D01*
X12539873Y68008656D01*
X12319347Y68100000D01*
X12080653Y68100000D01*
X11860127Y68008656D01*
X11691344Y67839873D01*
X11600000Y67619347D01*
X3926237Y67619347D01*
X3769618Y67775966D01*
X3108042Y68050000D01*
X2391958Y68050000D01*
X1730382Y67775966D01*
X1224034Y67269618D01*
X950000Y66608042D01*
X375000Y66608042D01*
X375000Y70828749D01*
X7450000Y70828749D01*
X7450000Y70371251D01*
X7625077Y69948577D01*
X7948577Y69625077D01*
X8371251Y69450000D01*
X8828749Y69450000D01*
X9251423Y69625077D01*
X9574923Y69948577D01*
X9750000Y70371251D01*
X9750000Y70828749D01*
X9574923Y71251423D01*
X9472181Y71354165D01*
X14456193Y71354165D01*
X14456193Y71285135D01*
X14499403Y70786233D01*
X14507236Y70755723D01*
X14509708Y70724318D01*
X14532068Y70659011D01*
X14734551Y70201003D01*
X14751844Y70174677D01*
X14764356Y70145763D01*
X14806665Y70091219D01*
X15146588Y69723494D01*
X15171476Y69704189D01*
X15192679Y69680887D01*
X15250374Y69642989D01*
X15691083Y69405195D01*
X15720884Y69394992D01*
X15748490Y69379815D01*
X15815351Y69362648D01*
X16309325Y69280428D01*
X16440675Y69280428D01*
X16497839Y69300000D01*
X20573927Y69300000D01*
X20665485Y69276492D01*
X20734514Y69276492D01*
X20996707Y69299200D01*
X21012037Y69303136D01*
X21027867Y69303136D01*
X21094727Y69320303D01*
X21567209Y69486227D01*
X21594810Y69501401D01*
X21624617Y69511606D01*
X21682312Y69549505D01*
X22075575Y69859529D01*
X22096774Y69882827D01*
X22121666Y69902135D01*
X22163974Y69956679D01*
X22435613Y70377372D01*
X22448122Y70406279D01*
X22465419Y70432611D01*
X22487779Y70497919D01*
X22608502Y70983920D01*
X22610973Y71015321D01*
X22618808Y71045835D01*
X22618807Y71114865D01*
X22575597Y71613767D01*
X22567764Y71644277D01*
X22565292Y71675682D01*
X22542932Y71740989D01*
X22340449Y72198997D01*
X22323154Y72225327D01*
X22310643Y72254237D01*
X22268334Y72308781D01*
X21928412Y72676507D01*
X21903522Y72695814D01*
X21882321Y72719113D01*
X21824626Y72757011D01*
X21383917Y72994805D01*
X21354116Y73005008D01*
X21326510Y73020185D01*
X21259649Y73037352D01*
X20765675Y73119572D01*
X20634325Y73119572D01*
X20577161Y73100000D01*
X16501074Y73100000D01*
X16409516Y73123508D01*
X16340486Y73123508D01*
X16078294Y73100800D01*
X16062964Y73096864D01*
X16047133Y73096864D01*
X15980272Y73079697D01*
X15507791Y72913773D01*
X15480189Y72898599D01*
X15450383Y72888394D01*
X15392688Y72850495D01*
X14999425Y72540471D01*
X14978223Y72517170D01*
X14953335Y72497865D01*
X14911026Y72443321D01*
X14639387Y72022628D01*
X14626877Y71993718D01*
X14609581Y71967388D01*
X14587221Y71902080D01*
X14466498Y71416080D01*
X14464026Y71384674D01*
X14456193Y71354165D01*
X9472181Y71354165D01*
X9251423Y71574923D01*
X8828749Y71750000D01*
X8371251Y71750000D01*
X7948577Y71574923D01*
X7625077Y71251423D01*
X7450000Y70828749D01*
X375000Y70828749D01*
X375000Y72963063D01*
X429363Y73236367D01*
X563253Y73436747D01*
X763632Y73570637D01*
X1036936Y73625000D01*
X23074254Y73625000D01*
X23025214Y50625765D01*
G04 #@! TD*
M02*
