M48
;DRILL file {KiCad (5.0.1-3-g963ef8bb5)} date Tuesday, March 19, 2019 at 04:49:32 PM
;FORMAT={-:-/ absolute / inch / decimal}
FMAT,2
INCH,TZ
T1C0.0157
T2C0.0315
T3C0.0394
%
G90
G05
M72
T1
X0.0433Y2.1673
X0.0512Y2.1181
X0.0669Y1.0886
X0.0827Y0.8878
X0.1083Y0.6945
X0.128Y1.0039
X0.1496Y0.7697
X0.1535Y0.8858
X0.1732Y2.0433
X0.2126Y2.1201
X0.2205Y2.2165
X0.252Y0.1705
X0.2638Y2.3937
X0.2823Y0.3106
X0.2835Y0.687
X0.3031Y1.815
X0.3031Y1.7165
X0.3228Y0.2811
X0.3346Y0.5689
X0.3396Y1.9646
X0.3396Y1.5138
X0.3425Y0.4094
X0.3512Y0.2472
X0.3533Y0.2136
X0.3543Y0.6614
X0.3681Y2.0315
X0.3681Y1.6211
X0.3681Y0.6161
X0.3701Y2.2047
X0.3976Y1.8307
X0.3986Y1.1368
X0.4006Y1.247
X0.4016Y0.2126
X0.4055Y0.4587
X0.4365Y1.1403
X0.438Y1.6417
X0.4409Y2.2087
X0.4419Y1.1053
X0.4764Y0.7106
X0.4803Y2.6575
X0.4823Y1.7156
X0.4833Y1.6791
X0.4941Y0.6201
X0.5197Y1.9882
X0.5335Y0.6201
X0.5354Y1.9094
X0.562Y1.8386
X0.5728Y0.2815
X0.5748Y0.4705
X0.5787Y0.8681
X0.5915Y2.4685
X0.5925Y2.4341
X0.5925Y1.8996
X0.5935Y1.6063
X0.5994Y1.3878
X0.6122Y0.8681
X0.626Y2.0837
X0.6339Y1.9921
X0.6398Y1.3819
X0.6693Y1.9449
X0.6732Y2.0295
X0.6742Y1.561
X0.6791Y1.9882
X0.6848Y1.8261
X0.6848Y1.7513
X0.7146Y0.7382
X0.7146Y1.4262
X0.7146Y1.377
X0.7156Y1.561
X0.7165Y0.3504
X0.7224Y0.0925
X0.7283Y0.1329
X0.7303Y0.4173
X0.7303Y0.0571
X0.7402Y0.7146
X0.751Y1.5581
X0.7596Y1.8261
X0.7596Y1.7513
X0.7638Y0.1457
X0.7904Y1.56
X0.7933Y2.3228
X0.811Y1.937
X0.813Y1.3878
X0.8209Y1.8986
X0.8386Y0.8327
X0.8425Y2.0591
X0.8445Y0.5955
X0.8484Y2.0138
X0.8516Y2.1531
X0.8543Y1.4567
X0.8543Y0.7244
X0.8583Y2.563
X0.874Y0.1496
X0.8819Y0.2697
X0.8898Y0.7205
X0.8917Y0.3238
X0.8976Y1.8638
X0.898Y1.8323
X0.9016Y0.5955
X0.9091Y1.5835
X0.911Y1.6306
X0.9134Y0.1476
X0.9134Y0.0571
X0.9242Y0.2972
X0.9429Y1.5335
X0.9449Y0.0315
X0.9461Y1.7283
X0.9469Y1.7642
X0.9508Y1.6949
X0.9528Y0.1476
X0.9537Y0.9213
X0.9539Y1.8413
X0.9557Y1.0925
X0.9587Y1.2008
X0.9665Y1.8941
X0.9697Y1.8131
X0.9823Y0.502
X0.9892Y0.1024
X0.9921Y0.7874
X0.9961Y1.9567
X0.998Y1.4764
X1.0069Y2.75
X1.0089Y2.064
X1.0089Y1.3179
X1.0167Y0.0719
X1.0364Y0.7874
X1.0404Y1.2215
X1.0413Y1.1368
X1.0423Y1.1791
X1.0428Y1.439
X1.0433Y0.9626
X1.0443Y1.0512
X1.0472Y0.4114
X1.0502Y0.126
X1.065Y0.4882
X1.0699Y0.2343
X1.074Y1.8661
X1.1Y1.7858
X1.1024Y0.2333
X1.1083Y0.8051
X1.1211Y2.1388
X1.1217Y1.8937
X1.126Y1.4135
X1.1329Y1.7687
X1.1506Y1.3878
X1.1526Y1.4695
X1.1791Y1.6201
X1.1949Y1.1181
X1.2067Y1.7205
X1.2205Y0.5433
X1.2313Y1.2116
X1.2697Y2.2185
X1.311Y1.1181
X1.3169Y2.1378
X1.3228Y2.8209
X1.3248Y1.3051
X1.3248Y1.2539
X1.3406Y0.5453
X1.372Y1.3524
X1.3839Y0.7736
X1.437Y2.1299
X1.4409Y2.0354
X1.4469Y2.2677
T2
X0.0709Y0.5039
X0.1496Y0.5039
X0.2283Y0.5039
T3
X1.3189Y1.9176
X1.3189Y1.8176
X1.3189Y1.7176
X1.3189Y1.6176
X1.3189Y1.5176
X1.3189Y1.4176
X1.4252Y1.9173
X1.4252Y1.8173
X1.4252Y1.7173
X1.4252Y1.6173
X1.4252Y1.5173
X1.4252Y1.4173
X0.17Y1.9173
X0.17Y1.8173
X0.17Y1.7173
X0.17Y1.6173
X0.17Y1.5173
X0.17Y1.4173
X0.2087Y1.2374
X0.2087Y1.1374
X0.2087Y1.0374
X0.3917Y0.0551
X0.6516Y0.0551
X0.07Y1.9173
X0.07Y1.8173
X0.07Y1.7173
X0.07Y1.6173
X0.07Y1.5173
X0.07Y1.4173
T0
M30
