G04 #@! TF.GenerationSoftware,KiCad,Pcbnew,(5.0.1-3-g963ef8bb5)*
G04 #@! TF.CreationDate,2019-01-09T16:01:25-05:00*
G04 #@! TF.ProjectId,Tympan_D_3,54796D70616E5F445F332E6B69636164,rev?*
G04 #@! TF.SameCoordinates,PX6d878d0PY72e6100*
G04 #@! TF.FileFunction,Legend,Bot*
G04 #@! TF.FilePolarity,Positive*
%FSLAX46Y46*%
G04 Gerber Fmt 4.6, Leading zero omitted, Abs format (unit mm)*
G04 Created by KiCad (PCBNEW (5.0.1-3-g963ef8bb5)) date Wednesday, January 09, 2019 at 04:01:25 PM*
%MOMM*%
%LPD*%
G01*
G04 APERTURE LIST*
%ADD10C,0.200000*%
%ADD11C,0.150000*%
%ADD12C,0.175000*%
%ADD13C,0.250000*%
%ADD14C,0.177800*%
%ADD15C,0.120000*%
%ADD16C,0.100000*%
%ADD17C,0.010000*%
%ADD18C,0.127000*%
G04 APERTURE END LIST*
D10*
X10478571Y72322620D02*
X10478571Y73322620D01*
X10002380Y72322620D02*
X10002380Y73322620D01*
X9430952Y72322620D01*
X9430952Y73322620D01*
X8954761Y72322620D02*
X8954761Y73322620D01*
X8573809Y73322620D01*
X8478571Y73275000D01*
X8430952Y73227381D01*
X8383333Y73132143D01*
X8383333Y72989286D01*
X8430952Y72894048D01*
X8478571Y72846429D01*
X8573809Y72798810D01*
X8954761Y72798810D01*
X7954761Y73322620D02*
X7954761Y72513096D01*
X7907142Y72417858D01*
X7859523Y72370239D01*
X7764285Y72322620D01*
X7573809Y72322620D01*
X7478571Y72370239D01*
X7430952Y72417858D01*
X7383333Y72513096D01*
X7383333Y73322620D01*
X7050000Y73322620D02*
X6478571Y73322620D01*
X6764285Y72322620D02*
X6764285Y73322620D01*
X31804761Y73372620D02*
X31614285Y73372620D01*
X31519047Y73325000D01*
X31423809Y73229762D01*
X31376190Y73039286D01*
X31376190Y72705953D01*
X31423809Y72515477D01*
X31519047Y72420239D01*
X31614285Y72372620D01*
X31804761Y72372620D01*
X31900000Y72420239D01*
X31995238Y72515477D01*
X32042857Y72705953D01*
X32042857Y73039286D01*
X31995238Y73229762D01*
X31900000Y73325000D01*
X31804761Y73372620D01*
X30947619Y73372620D02*
X30947619Y72563096D01*
X30900000Y72467858D01*
X30852380Y72420239D01*
X30757142Y72372620D01*
X30566666Y72372620D01*
X30471428Y72420239D01*
X30423809Y72467858D01*
X30376190Y72563096D01*
X30376190Y73372620D01*
X30042857Y73372620D02*
X29471428Y73372620D01*
X29757142Y72372620D02*
X29757142Y73372620D01*
X29138095Y72372620D02*
X29138095Y73372620D01*
X28757142Y73372620D01*
X28661904Y73325000D01*
X28614285Y73277381D01*
X28566666Y73182143D01*
X28566666Y73039286D01*
X28614285Y72944048D01*
X28661904Y72896429D01*
X28757142Y72848810D01*
X29138095Y72848810D01*
X28138095Y73372620D02*
X28138095Y72563096D01*
X28090476Y72467858D01*
X28042857Y72420239D01*
X27947619Y72372620D01*
X27757142Y72372620D01*
X27661904Y72420239D01*
X27614285Y72467858D01*
X27566666Y72563096D01*
X27566666Y73372620D01*
X27233333Y73372620D02*
X26661904Y73372620D01*
X26947619Y72372620D02*
X26947619Y73372620D01*
X11852380Y14083334D02*
X12852380Y13750000D01*
X11852380Y13416667D01*
X24666666Y7927381D02*
X25000000Y8927381D01*
X25333333Y7927381D01*
X6771428Y24372620D02*
X6866666Y24420239D01*
X6914285Y24467858D01*
X6961904Y24563096D01*
X6961904Y24848810D01*
X6914285Y24944048D01*
X6866666Y24991667D01*
X6771428Y25039286D01*
X6628571Y25039286D01*
X6533333Y24991667D01*
X6485714Y24944048D01*
X6438095Y24848810D01*
X6438095Y24563096D01*
X6485714Y24467858D01*
X6533333Y24420239D01*
X6628571Y24372620D01*
X6771428Y24372620D01*
X4458333Y57897620D02*
X4791666Y58373810D01*
X5029761Y57897620D02*
X5029761Y58897620D01*
X4648809Y58897620D01*
X4553571Y58850000D01*
X4505952Y58802381D01*
X4458333Y58707143D01*
X4458333Y58564286D01*
X4505952Y58469048D01*
X4553571Y58421429D01*
X4648809Y58373810D01*
X5029761Y58373810D01*
X4029761Y57897620D02*
X4029761Y58897620D01*
X3029761Y58850000D02*
X3125000Y58897620D01*
X3267857Y58897620D01*
X3410714Y58850000D01*
X3505952Y58754762D01*
X3553571Y58659524D01*
X3601190Y58469048D01*
X3601190Y58326191D01*
X3553571Y58135715D01*
X3505952Y58040477D01*
X3410714Y57945239D01*
X3267857Y57897620D01*
X3172619Y57897620D01*
X3029761Y57945239D01*
X2982142Y57992858D01*
X2982142Y58326191D01*
X3172619Y58326191D01*
X2553571Y57897620D02*
X2553571Y58897620D01*
X2553571Y58421429D02*
X1982142Y58421429D01*
X1982142Y57897620D02*
X1982142Y58897620D01*
X1648809Y58897620D02*
X1077380Y58897620D01*
X1363095Y57897620D02*
X1363095Y58897620D01*
X35777380Y57972620D02*
X36253571Y57972620D01*
X36253571Y58972620D01*
X35444047Y58496429D02*
X35110714Y58496429D01*
X34967857Y57972620D02*
X35444047Y57972620D01*
X35444047Y58972620D01*
X34967857Y58972620D01*
X34205952Y58496429D02*
X34539285Y58496429D01*
X34539285Y57972620D02*
X34539285Y58972620D01*
X34063095Y58972620D01*
X33825000Y58972620D02*
X33253571Y58972620D01*
X33539285Y57972620D02*
X33539285Y58972620D01*
X24934523Y48839286D02*
X24744047Y48172620D01*
X24553571Y48648810D01*
X24363095Y48172620D01*
X24172619Y48839286D01*
X23886904Y48839286D02*
X23696428Y48172620D01*
X23505952Y48648810D01*
X23315476Y48172620D01*
X23125000Y48839286D01*
X22839285Y48839286D02*
X22648809Y48172620D01*
X22458333Y48648810D01*
X22267857Y48172620D01*
X22077380Y48839286D01*
X21696428Y48267858D02*
X21648809Y48220239D01*
X21696428Y48172620D01*
X21744047Y48220239D01*
X21696428Y48267858D01*
X21696428Y48172620D01*
X21363095Y48839286D02*
X20982142Y48839286D01*
X21220238Y49172620D02*
X21220238Y48315477D01*
X21172619Y48220239D01*
X21077380Y48172620D01*
X20982142Y48172620D01*
X20744047Y48839286D02*
X20505952Y48172620D01*
X20267857Y48839286D02*
X20505952Y48172620D01*
X20601190Y47934524D01*
X20648809Y47886905D01*
X20744047Y47839286D01*
X19886904Y48172620D02*
X19886904Y48839286D01*
X19886904Y48744048D02*
X19839285Y48791667D01*
X19744047Y48839286D01*
X19601190Y48839286D01*
X19505952Y48791667D01*
X19458333Y48696429D01*
X19458333Y48172620D01*
X19458333Y48696429D02*
X19410714Y48791667D01*
X19315476Y48839286D01*
X19172619Y48839286D01*
X19077380Y48791667D01*
X19029761Y48696429D01*
X19029761Y48172620D01*
X18553571Y48839286D02*
X18553571Y47839286D01*
X18553571Y48791667D02*
X18458333Y48839286D01*
X18267857Y48839286D01*
X18172619Y48791667D01*
X18125000Y48744048D01*
X18077380Y48648810D01*
X18077380Y48363096D01*
X18125000Y48267858D01*
X18172619Y48220239D01*
X18267857Y48172620D01*
X18458333Y48172620D01*
X18553571Y48220239D01*
X17220238Y48172620D02*
X17220238Y48696429D01*
X17267857Y48791667D01*
X17363095Y48839286D01*
X17553571Y48839286D01*
X17648809Y48791667D01*
X17220238Y48220239D02*
X17315476Y48172620D01*
X17553571Y48172620D01*
X17648809Y48220239D01*
X17696428Y48315477D01*
X17696428Y48410715D01*
X17648809Y48505953D01*
X17553571Y48553572D01*
X17315476Y48553572D01*
X17220238Y48601191D01*
X16744047Y48839286D02*
X16744047Y48172620D01*
X16744047Y48744048D02*
X16696428Y48791667D01*
X16601190Y48839286D01*
X16458333Y48839286D01*
X16363095Y48791667D01*
X16315476Y48696429D01*
X16315476Y48172620D01*
X15839285Y48267858D02*
X15791666Y48220239D01*
X15839285Y48172620D01*
X15886904Y48220239D01*
X15839285Y48267858D01*
X15839285Y48172620D01*
X15220238Y48172620D02*
X15315476Y48220239D01*
X15363095Y48267858D01*
X15410714Y48363096D01*
X15410714Y48648810D01*
X15363095Y48744048D01*
X15315476Y48791667D01*
X15220238Y48839286D01*
X15077380Y48839286D01*
X14982142Y48791667D01*
X14934523Y48744048D01*
X14886904Y48648810D01*
X14886904Y48363096D01*
X14934523Y48267858D01*
X14982142Y48220239D01*
X15077380Y48172620D01*
X15220238Y48172620D01*
X14458333Y48172620D02*
X14458333Y48839286D01*
X14458333Y48648810D02*
X14410714Y48744048D01*
X14363095Y48791667D01*
X14267857Y48839286D01*
X14172619Y48839286D01*
X13410714Y48839286D02*
X13410714Y48029762D01*
X13458333Y47934524D01*
X13505952Y47886905D01*
X13601190Y47839286D01*
X13744047Y47839286D01*
X13839285Y47886905D01*
X13410714Y48220239D02*
X13505952Y48172620D01*
X13696428Y48172620D01*
X13791666Y48220239D01*
X13839285Y48267858D01*
X13886904Y48363096D01*
X13886904Y48648810D01*
X13839285Y48744048D01*
X13791666Y48791667D01*
X13696428Y48839286D01*
X13505952Y48839286D01*
X13410714Y48791667D01*
X25791666Y47139286D02*
X25791666Y46329762D01*
X25839285Y46234524D01*
X25886904Y46186905D01*
X25982142Y46139286D01*
X26125000Y46139286D01*
X26220238Y46186905D01*
X25791666Y46520239D02*
X25886904Y46472620D01*
X26077380Y46472620D01*
X26172619Y46520239D01*
X26220238Y46567858D01*
X26267857Y46663096D01*
X26267857Y46948810D01*
X26220238Y47044048D01*
X26172619Y47091667D01*
X26077380Y47139286D01*
X25886904Y47139286D01*
X25791666Y47091667D01*
X25315476Y46472620D02*
X25315476Y47139286D01*
X25315476Y47472620D02*
X25363095Y47425000D01*
X25315476Y47377381D01*
X25267857Y47425000D01*
X25315476Y47472620D01*
X25315476Y47377381D01*
X24982142Y47139286D02*
X24601190Y47139286D01*
X24839285Y47472620D02*
X24839285Y46615477D01*
X24791666Y46520239D01*
X24696428Y46472620D01*
X24601190Y46472620D01*
X24267857Y46472620D02*
X24267857Y47472620D01*
X23839285Y46472620D02*
X23839285Y46996429D01*
X23886904Y47091667D01*
X23982142Y47139286D01*
X24125000Y47139286D01*
X24220238Y47091667D01*
X24267857Y47044048D01*
X22934523Y47139286D02*
X22934523Y46472620D01*
X23363095Y47139286D02*
X23363095Y46615477D01*
X23315476Y46520239D01*
X23220238Y46472620D01*
X23077380Y46472620D01*
X22982142Y46520239D01*
X22934523Y46567858D01*
X22458333Y46472620D02*
X22458333Y47472620D01*
X22458333Y47091667D02*
X22363095Y47139286D01*
X22172619Y47139286D01*
X22077380Y47091667D01*
X22029761Y47044048D01*
X21982142Y46948810D01*
X21982142Y46663096D01*
X22029761Y46567858D01*
X22077380Y46520239D01*
X22172619Y46472620D01*
X22363095Y46472620D01*
X22458333Y46520239D01*
X21553571Y46567858D02*
X21505952Y46520239D01*
X21553571Y46472620D01*
X21601190Y46520239D01*
X21553571Y46567858D01*
X21553571Y46472620D01*
X20648809Y46520239D02*
X20744047Y46472620D01*
X20934523Y46472620D01*
X21029761Y46520239D01*
X21077380Y46567858D01*
X21125000Y46663096D01*
X21125000Y46948810D01*
X21077380Y47044048D01*
X21029761Y47091667D01*
X20934523Y47139286D01*
X20744047Y47139286D01*
X20648809Y47091667D01*
X20077380Y46472620D02*
X20172619Y46520239D01*
X20220238Y46567858D01*
X20267857Y46663096D01*
X20267857Y46948810D01*
X20220238Y47044048D01*
X20172619Y47091667D01*
X20077380Y47139286D01*
X19934523Y47139286D01*
X19839285Y47091667D01*
X19791666Y47044048D01*
X19744047Y46948810D01*
X19744047Y46663096D01*
X19791666Y46567858D01*
X19839285Y46520239D01*
X19934523Y46472620D01*
X20077380Y46472620D01*
X19315476Y46472620D02*
X19315476Y47139286D01*
X19315476Y47044048D02*
X19267857Y47091667D01*
X19172619Y47139286D01*
X19029761Y47139286D01*
X18934523Y47091667D01*
X18886904Y46996429D01*
X18886904Y46472620D01*
X18886904Y46996429D02*
X18839285Y47091667D01*
X18744047Y47139286D01*
X18601190Y47139286D01*
X18505952Y47091667D01*
X18458333Y46996429D01*
X18458333Y46472620D01*
X17267857Y47520239D02*
X18125000Y46234524D01*
X17077380Y47139286D02*
X16696428Y47139286D01*
X16934523Y47472620D02*
X16934523Y46615477D01*
X16886904Y46520239D01*
X16791666Y46472620D01*
X16696428Y46472620D01*
X16458333Y47139286D02*
X16220238Y46472620D01*
X15982142Y47139286D02*
X16220238Y46472620D01*
X16315476Y46234524D01*
X16363095Y46186905D01*
X16458333Y46139286D01*
X15601190Y46472620D02*
X15601190Y47139286D01*
X15601190Y47044048D02*
X15553571Y47091667D01*
X15458333Y47139286D01*
X15315476Y47139286D01*
X15220238Y47091667D01*
X15172619Y46996429D01*
X15172619Y46472620D01*
X15172619Y46996429D02*
X15125000Y47091667D01*
X15029761Y47139286D01*
X14886904Y47139286D01*
X14791666Y47091667D01*
X14744047Y46996429D01*
X14744047Y46472620D01*
X14267857Y47139286D02*
X14267857Y46139286D01*
X14267857Y47091667D02*
X14172619Y47139286D01*
X13982142Y47139286D01*
X13886904Y47091667D01*
X13839285Y47044048D01*
X13791666Y46948810D01*
X13791666Y46663096D01*
X13839285Y46567858D01*
X13886904Y46520239D01*
X13982142Y46472620D01*
X14172619Y46472620D01*
X14267857Y46520239D01*
X12934523Y46472620D02*
X12934523Y46996429D01*
X12982142Y47091667D01*
X13077380Y47139286D01*
X13267857Y47139286D01*
X13363095Y47091667D01*
X12934523Y46520239D02*
X13029761Y46472620D01*
X13267857Y46472620D01*
X13363095Y46520239D01*
X13410714Y46615477D01*
X13410714Y46710715D01*
X13363095Y46805953D01*
X13267857Y46853572D01*
X13029761Y46853572D01*
X12934523Y46901191D01*
X12458333Y47139286D02*
X12458333Y46472620D01*
X12458333Y47044048D02*
X12410714Y47091667D01*
X12315476Y47139286D01*
X12172619Y47139286D01*
X12077380Y47091667D01*
X12029761Y46996429D01*
X12029761Y46472620D01*
X28482142Y66722620D02*
X28482142Y67722620D01*
X28244047Y67722620D01*
X28101190Y67675000D01*
X28005952Y67579762D01*
X27958333Y67484524D01*
X27910714Y67294048D01*
X27910714Y67151191D01*
X27958333Y66960715D01*
X28005952Y66865477D01*
X28101190Y66770239D01*
X28244047Y66722620D01*
X28482142Y66722620D01*
X27101190Y66770239D02*
X27196428Y66722620D01*
X27386904Y66722620D01*
X27482142Y66770239D01*
X27529761Y66865477D01*
X27529761Y67246429D01*
X27482142Y67341667D01*
X27386904Y67389286D01*
X27196428Y67389286D01*
X27101190Y67341667D01*
X27053571Y67246429D01*
X27053571Y67151191D01*
X27529761Y67055953D01*
X26672619Y66770239D02*
X26577380Y66722620D01*
X26386904Y66722620D01*
X26291666Y66770239D01*
X26244047Y66865477D01*
X26244047Y66913096D01*
X26291666Y67008334D01*
X26386904Y67055953D01*
X26529761Y67055953D01*
X26625000Y67103572D01*
X26672619Y67198810D01*
X26672619Y67246429D01*
X26625000Y67341667D01*
X26529761Y67389286D01*
X26386904Y67389286D01*
X26291666Y67341667D01*
X25815476Y66722620D02*
X25815476Y67389286D01*
X25815476Y67722620D02*
X25863095Y67675000D01*
X25815476Y67627381D01*
X25767857Y67675000D01*
X25815476Y67722620D01*
X25815476Y67627381D01*
X24910714Y67389286D02*
X24910714Y66579762D01*
X24958333Y66484524D01*
X25005952Y66436905D01*
X25101190Y66389286D01*
X25244047Y66389286D01*
X25339285Y66436905D01*
X24910714Y66770239D02*
X25005952Y66722620D01*
X25196428Y66722620D01*
X25291666Y66770239D01*
X25339285Y66817858D01*
X25386904Y66913096D01*
X25386904Y67198810D01*
X25339285Y67294048D01*
X25291666Y67341667D01*
X25196428Y67389286D01*
X25005952Y67389286D01*
X24910714Y67341667D01*
X24434523Y67389286D02*
X24434523Y66722620D01*
X24434523Y67294048D02*
X24386904Y67341667D01*
X24291666Y67389286D01*
X24148809Y67389286D01*
X24053571Y67341667D01*
X24005952Y67246429D01*
X24005952Y66722620D01*
X23148809Y66770239D02*
X23244047Y66722620D01*
X23434523Y66722620D01*
X23529761Y66770239D01*
X23577380Y66865477D01*
X23577380Y67246429D01*
X23529761Y67341667D01*
X23434523Y67389286D01*
X23244047Y67389286D01*
X23148809Y67341667D01*
X23101190Y67246429D01*
X23101190Y67151191D01*
X23577380Y67055953D01*
X22244047Y66722620D02*
X22244047Y67722620D01*
X22244047Y66770239D02*
X22339285Y66722620D01*
X22529761Y66722620D01*
X22625000Y66770239D01*
X22672619Y66817858D01*
X22720238Y66913096D01*
X22720238Y67198810D01*
X22672619Y67294048D01*
X22625000Y67341667D01*
X22529761Y67389286D01*
X22339285Y67389286D01*
X22244047Y67341667D01*
X21005952Y66722620D02*
X21005952Y67389286D01*
X21005952Y67722620D02*
X21053571Y67675000D01*
X21005952Y67627381D01*
X20958333Y67675000D01*
X21005952Y67722620D01*
X21005952Y67627381D01*
X20529761Y67389286D02*
X20529761Y66722620D01*
X20529761Y67294048D02*
X20482142Y67341667D01*
X20386904Y67389286D01*
X20244047Y67389286D01*
X20148809Y67341667D01*
X20101190Y67246429D01*
X20101190Y66722620D01*
X18529761Y67246429D02*
X18386904Y67198810D01*
X18339285Y67151191D01*
X18291666Y67055953D01*
X18291666Y66913096D01*
X18339285Y66817858D01*
X18386904Y66770239D01*
X18482142Y66722620D01*
X18863095Y66722620D01*
X18863095Y67722620D01*
X18529761Y67722620D01*
X18434523Y67675000D01*
X18386904Y67627381D01*
X18339285Y67532143D01*
X18339285Y67436905D01*
X18386904Y67341667D01*
X18434523Y67294048D01*
X18529761Y67246429D01*
X18863095Y67246429D01*
X17863095Y66722620D02*
X17863095Y67389286D01*
X17863095Y67198810D02*
X17815476Y67294048D01*
X17767857Y67341667D01*
X17672619Y67389286D01*
X17577380Y67389286D01*
X17101190Y66722620D02*
X17196428Y66770239D01*
X17244047Y66817858D01*
X17291666Y66913096D01*
X17291666Y67198810D01*
X17244047Y67294048D01*
X17196428Y67341667D01*
X17101190Y67389286D01*
X16958333Y67389286D01*
X16863095Y67341667D01*
X16815476Y67294048D01*
X16767857Y67198810D01*
X16767857Y66913096D01*
X16815476Y66817858D01*
X16863095Y66770239D01*
X16958333Y66722620D01*
X17101190Y66722620D01*
X16196428Y66722620D02*
X16291666Y66770239D01*
X16339285Y66817858D01*
X16386904Y66913096D01*
X16386904Y67198810D01*
X16339285Y67294048D01*
X16291666Y67341667D01*
X16196428Y67389286D01*
X16053571Y67389286D01*
X15958333Y67341667D01*
X15910714Y67294048D01*
X15863095Y67198810D01*
X15863095Y66913096D01*
X15910714Y66817858D01*
X15958333Y66770239D01*
X16053571Y66722620D01*
X16196428Y66722620D01*
X15434523Y66722620D02*
X15434523Y67722620D01*
X15339285Y67103572D02*
X15053571Y66722620D01*
X15053571Y67389286D02*
X15434523Y67008334D01*
X14482142Y66722620D02*
X14577380Y66770239D01*
X14625000Y66865477D01*
X14625000Y67722620D01*
X14196428Y67389286D02*
X13958333Y66722620D01*
X13720238Y67389286D02*
X13958333Y66722620D01*
X14053571Y66484524D01*
X14101190Y66436905D01*
X14196428Y66389286D01*
X13339285Y67389286D02*
X13339285Y66722620D01*
X13339285Y67294048D02*
X13291666Y67341667D01*
X13196428Y67389286D01*
X13053571Y67389286D01*
X12958333Y67341667D01*
X12910714Y67246429D01*
X12910714Y66722620D01*
X12386904Y66770239D02*
X12386904Y66722620D01*
X12434523Y66627381D01*
X12482142Y66579762D01*
X11196428Y66722620D02*
X11196428Y67722620D01*
X10625000Y66722620D01*
X10625000Y67722620D01*
X9958333Y67198810D02*
X9958333Y66722620D01*
X10291666Y67722620D02*
X9958333Y67198810D01*
X9625000Y67722620D01*
D11*
X7739285Y6385715D02*
X7767857Y6357143D01*
X7853571Y6328572D01*
X7910714Y6328572D01*
X7996428Y6357143D01*
X8053571Y6414286D01*
X8082142Y6471429D01*
X8110714Y6585715D01*
X8110714Y6671429D01*
X8082142Y6785715D01*
X8053571Y6842858D01*
X7996428Y6900000D01*
X7910714Y6928572D01*
X7853571Y6928572D01*
X7767857Y6900000D01*
X7739285Y6871429D01*
X7225000Y6728572D02*
X7225000Y6328572D01*
X7482142Y6728572D02*
X7482142Y6414286D01*
X7453571Y6357143D01*
X7396428Y6328572D01*
X7310714Y6328572D01*
X7253571Y6357143D01*
X7225000Y6385715D01*
X7025000Y6728572D02*
X6796428Y6728572D01*
X6939285Y6928572D02*
X6939285Y6414286D01*
X6910714Y6357143D01*
X6853571Y6328572D01*
X6796428Y6328572D01*
X6225000Y6728572D02*
X5996428Y6728572D01*
X6139285Y6928572D02*
X6139285Y6414286D01*
X6110714Y6357143D01*
X6053571Y6328572D01*
X5996428Y6328572D01*
X5796428Y6328572D02*
X5796428Y6728572D01*
X5796428Y6614286D02*
X5767857Y6671429D01*
X5739285Y6700000D01*
X5682142Y6728572D01*
X5625000Y6728572D01*
X5167857Y6328572D02*
X5167857Y6642858D01*
X5196428Y6700000D01*
X5253571Y6728572D01*
X5367857Y6728572D01*
X5425000Y6700000D01*
X5167857Y6357143D02*
X5225000Y6328572D01*
X5367857Y6328572D01*
X5425000Y6357143D01*
X5453571Y6414286D01*
X5453571Y6471429D01*
X5425000Y6528572D01*
X5367857Y6557143D01*
X5225000Y6557143D01*
X5167857Y6585715D01*
X4625000Y6357143D02*
X4682142Y6328572D01*
X4796428Y6328572D01*
X4853571Y6357143D01*
X4882142Y6385715D01*
X4910714Y6442858D01*
X4910714Y6614286D01*
X4882142Y6671429D01*
X4853571Y6700000D01*
X4796428Y6728572D01*
X4682142Y6728572D01*
X4625000Y6700000D01*
X4139285Y6357143D02*
X4196428Y6328572D01*
X4310714Y6328572D01*
X4367857Y6357143D01*
X4396428Y6414286D01*
X4396428Y6642858D01*
X4367857Y6700000D01*
X4310714Y6728572D01*
X4196428Y6728572D01*
X4139285Y6700000D01*
X4110714Y6642858D01*
X4110714Y6585715D01*
X4396428Y6528572D01*
X3396428Y6328572D02*
X3396428Y6928572D01*
X3396428Y6700000D02*
X3339285Y6728572D01*
X3225000Y6728572D01*
X3167857Y6700000D01*
X3139285Y6671429D01*
X3110714Y6614286D01*
X3110714Y6442858D01*
X3139285Y6385715D01*
X3167857Y6357143D01*
X3225000Y6328572D01*
X3339285Y6328572D01*
X3396428Y6357143D01*
X2939285Y6728572D02*
X2710714Y6728572D01*
X2853571Y6928572D02*
X2853571Y6414286D01*
X2825000Y6357143D01*
X2767857Y6328572D01*
X2710714Y6328572D01*
X2567857Y6728572D02*
X2453571Y6328572D01*
X2339285Y6614286D01*
X2225000Y6328572D01*
X2110714Y6728572D01*
X7510714Y5878572D02*
X7310714Y5278572D01*
X7110714Y5878572D01*
X6910714Y5278572D02*
X6910714Y5878572D01*
X6682142Y5878572D01*
X6625000Y5850000D01*
X6596428Y5821429D01*
X6567857Y5764286D01*
X6567857Y5678572D01*
X6596428Y5621429D01*
X6625000Y5592858D01*
X6682142Y5564286D01*
X6910714Y5564286D01*
X6310714Y5278572D02*
X6310714Y5878572D01*
X6082142Y5878572D01*
X6025000Y5850000D01*
X5996428Y5821429D01*
X5967857Y5764286D01*
X5967857Y5678572D01*
X5996428Y5621429D01*
X6025000Y5592858D01*
X6082142Y5564286D01*
X6310714Y5564286D01*
X5282142Y5907143D02*
X5796428Y5135715D01*
X5167857Y5878572D02*
X4967857Y5278572D01*
X4767857Y5878572D01*
X4710714Y5221429D02*
X4253571Y5221429D01*
X3910714Y5592858D02*
X3825000Y5564286D01*
X3796428Y5535715D01*
X3767857Y5478572D01*
X3767857Y5392858D01*
X3796428Y5335715D01*
X3825000Y5307143D01*
X3882142Y5278572D01*
X4110714Y5278572D01*
X4110714Y5878572D01*
X3910714Y5878572D01*
X3853571Y5850000D01*
X3825000Y5821429D01*
X3796428Y5764286D01*
X3796428Y5707143D01*
X3825000Y5650000D01*
X3853571Y5621429D01*
X3910714Y5592858D01*
X4110714Y5592858D01*
X3539285Y5450000D02*
X3253571Y5450000D01*
X3596428Y5278572D02*
X3396428Y5878572D01*
X3196428Y5278572D01*
X3082142Y5878572D02*
X2739285Y5878572D01*
X2910714Y5278572D02*
X2910714Y5878572D01*
X8339285Y4628572D02*
X8110714Y4628572D01*
X8253571Y4828572D02*
X8253571Y4314286D01*
X8225000Y4257143D01*
X8167857Y4228572D01*
X8110714Y4228572D01*
X7825000Y4228572D02*
X7882142Y4257143D01*
X7910714Y4285715D01*
X7939285Y4342858D01*
X7939285Y4514286D01*
X7910714Y4571429D01*
X7882142Y4600000D01*
X7825000Y4628572D01*
X7739285Y4628572D01*
X7682142Y4600000D01*
X7653571Y4571429D01*
X7625000Y4514286D01*
X7625000Y4342858D01*
X7653571Y4285715D01*
X7682142Y4257143D01*
X7739285Y4228572D01*
X7825000Y4228572D01*
X6653571Y4228572D02*
X6653571Y4542858D01*
X6682142Y4600000D01*
X6739285Y4628572D01*
X6853571Y4628572D01*
X6910714Y4600000D01*
X6653571Y4257143D02*
X6710714Y4228572D01*
X6853571Y4228572D01*
X6910714Y4257143D01*
X6939285Y4314286D01*
X6939285Y4371429D01*
X6910714Y4428572D01*
X6853571Y4457143D01*
X6710714Y4457143D01*
X6653571Y4485715D01*
X6453571Y4628572D02*
X6225000Y4628572D01*
X6367857Y4828572D02*
X6367857Y4314286D01*
X6339285Y4257143D01*
X6282142Y4228572D01*
X6225000Y4228572D01*
X6110714Y4628572D02*
X5882142Y4628572D01*
X6025000Y4828572D02*
X6025000Y4314286D01*
X5996428Y4257143D01*
X5939285Y4228572D01*
X5882142Y4228572D01*
X5425000Y4228572D02*
X5425000Y4542858D01*
X5453571Y4600000D01*
X5510714Y4628572D01*
X5625000Y4628572D01*
X5682142Y4600000D01*
X5425000Y4257143D02*
X5482142Y4228572D01*
X5625000Y4228572D01*
X5682142Y4257143D01*
X5710714Y4314286D01*
X5710714Y4371429D01*
X5682142Y4428572D01*
X5625000Y4457143D01*
X5482142Y4457143D01*
X5425000Y4485715D01*
X4882142Y4257143D02*
X4939285Y4228572D01*
X5053571Y4228572D01*
X5110714Y4257143D01*
X5139285Y4285715D01*
X5167857Y4342858D01*
X5167857Y4514286D01*
X5139285Y4571429D01*
X5110714Y4600000D01*
X5053571Y4628572D01*
X4939285Y4628572D01*
X4882142Y4600000D01*
X4625000Y4228572D02*
X4625000Y4828572D01*
X4367857Y4228572D02*
X4367857Y4542858D01*
X4396428Y4600000D01*
X4453571Y4628572D01*
X4539285Y4628572D01*
X4596428Y4600000D01*
X4625000Y4571429D01*
X3682142Y4628572D02*
X3539285Y4228572D01*
X3396428Y4628572D02*
X3539285Y4228572D01*
X3596428Y4085715D01*
X3625000Y4057143D01*
X3682142Y4028572D01*
X3082142Y4228572D02*
X3139285Y4257143D01*
X3167857Y4285715D01*
X3196428Y4342858D01*
X3196428Y4514286D01*
X3167857Y4571429D01*
X3139285Y4600000D01*
X3082142Y4628572D01*
X2996428Y4628572D01*
X2939285Y4600000D01*
X2910714Y4571429D01*
X2882142Y4514286D01*
X2882142Y4342858D01*
X2910714Y4285715D01*
X2939285Y4257143D01*
X2996428Y4228572D01*
X3082142Y4228572D01*
X2367857Y4628572D02*
X2367857Y4228572D01*
X2625000Y4628572D02*
X2625000Y4314286D01*
X2596428Y4257143D01*
X2539285Y4228572D01*
X2453571Y4228572D01*
X2396428Y4257143D01*
X2367857Y4285715D01*
X2082142Y4228572D02*
X2082142Y4628572D01*
X2082142Y4514286D02*
X2053571Y4571429D01*
X2025000Y4600000D01*
X1967857Y4628572D01*
X1910714Y4628572D01*
X8596428Y3178572D02*
X8653571Y3207143D01*
X8682142Y3235715D01*
X8710714Y3292858D01*
X8710714Y3464286D01*
X8682142Y3521429D01*
X8653571Y3550000D01*
X8596428Y3578572D01*
X8510714Y3578572D01*
X8453571Y3550000D01*
X8425000Y3521429D01*
X8396428Y3464286D01*
X8396428Y3292858D01*
X8425000Y3235715D01*
X8453571Y3207143D01*
X8510714Y3178572D01*
X8596428Y3178572D01*
X8196428Y3578572D02*
X8082142Y3178572D01*
X7967857Y3464286D01*
X7853571Y3178572D01*
X7739285Y3578572D01*
X7510714Y3578572D02*
X7510714Y3178572D01*
X7510714Y3521429D02*
X7482142Y3550000D01*
X7425000Y3578572D01*
X7339285Y3578572D01*
X7282142Y3550000D01*
X7253571Y3492858D01*
X7253571Y3178572D01*
X6167857Y3178572D02*
X6367857Y3464286D01*
X6510714Y3178572D02*
X6510714Y3778572D01*
X6282142Y3778572D01*
X6225000Y3750000D01*
X6196428Y3721429D01*
X6167857Y3664286D01*
X6167857Y3578572D01*
X6196428Y3521429D01*
X6225000Y3492858D01*
X6282142Y3464286D01*
X6510714Y3464286D01*
X5996428Y3778572D02*
X5653571Y3778572D01*
X5825000Y3178572D02*
X5825000Y3778572D01*
X5110714Y3235715D02*
X5139285Y3207143D01*
X5225000Y3178572D01*
X5282142Y3178572D01*
X5367857Y3207143D01*
X5425000Y3264286D01*
X5453571Y3321429D01*
X5482142Y3435715D01*
X5482142Y3521429D01*
X5453571Y3635715D01*
X5425000Y3692858D01*
X5367857Y3750000D01*
X5282142Y3778572D01*
X5225000Y3778572D01*
X5139285Y3750000D01*
X5110714Y3721429D01*
X4396428Y3178572D02*
X4396428Y3778572D01*
X4396428Y3550000D02*
X4339285Y3578572D01*
X4225000Y3578572D01*
X4167857Y3550000D01*
X4139285Y3521429D01*
X4110714Y3464286D01*
X4110714Y3292858D01*
X4139285Y3235715D01*
X4167857Y3207143D01*
X4225000Y3178572D01*
X4339285Y3178572D01*
X4396428Y3207143D01*
X3596428Y3178572D02*
X3596428Y3492858D01*
X3625000Y3550000D01*
X3682142Y3578572D01*
X3796428Y3578572D01*
X3853571Y3550000D01*
X3596428Y3207143D02*
X3653571Y3178572D01*
X3796428Y3178572D01*
X3853571Y3207143D01*
X3882142Y3264286D01*
X3882142Y3321429D01*
X3853571Y3378572D01*
X3796428Y3407143D01*
X3653571Y3407143D01*
X3596428Y3435715D01*
X3396428Y3578572D02*
X3167857Y3578572D01*
X3310714Y3778572D02*
X3310714Y3264286D01*
X3282142Y3207143D01*
X3225000Y3178572D01*
X3167857Y3178572D01*
X3053571Y3578572D02*
X2825000Y3578572D01*
X2967857Y3778572D02*
X2967857Y3264286D01*
X2939285Y3207143D01*
X2882142Y3178572D01*
X2825000Y3178572D01*
X2396428Y3207143D02*
X2453571Y3178572D01*
X2567857Y3178572D01*
X2625000Y3207143D01*
X2653571Y3264286D01*
X2653571Y3492858D01*
X2625000Y3550000D01*
X2567857Y3578572D01*
X2453571Y3578572D01*
X2396428Y3550000D01*
X2367857Y3492858D01*
X2367857Y3435715D01*
X2653571Y3378572D01*
X2110714Y3178572D02*
X2110714Y3578572D01*
X2110714Y3464286D02*
X2082142Y3521429D01*
X2053571Y3550000D01*
X1996428Y3578572D01*
X1939285Y3578572D01*
X1796428Y3578572D02*
X1653571Y3178572D01*
X1510714Y3578572D02*
X1653571Y3178572D01*
X1710714Y3035715D01*
X1739285Y3007143D01*
X1796428Y2978572D01*
X9196428Y2528572D02*
X8967857Y2528572D01*
X9110714Y2728572D02*
X9110714Y2214286D01*
X9082142Y2157143D01*
X9025000Y2128572D01*
X8967857Y2128572D01*
X8682142Y2128572D02*
X8739285Y2157143D01*
X8767857Y2185715D01*
X8796428Y2242858D01*
X8796428Y2414286D01*
X8767857Y2471429D01*
X8739285Y2500000D01*
X8682142Y2528572D01*
X8596428Y2528572D01*
X8539285Y2500000D01*
X8510714Y2471429D01*
X8482142Y2414286D01*
X8482142Y2242858D01*
X8510714Y2185715D01*
X8539285Y2157143D01*
X8596428Y2128572D01*
X8682142Y2128572D01*
X7853571Y2728572D02*
X7653571Y2128572D01*
X7453571Y2728572D01*
X7396428Y2071429D02*
X6939285Y2071429D01*
X6596428Y2442858D02*
X6510714Y2414286D01*
X6482142Y2385715D01*
X6453571Y2328572D01*
X6453571Y2242858D01*
X6482142Y2185715D01*
X6510714Y2157143D01*
X6567857Y2128572D01*
X6796428Y2128572D01*
X6796428Y2728572D01*
X6596428Y2728572D01*
X6539285Y2700000D01*
X6510714Y2671429D01*
X6482142Y2614286D01*
X6482142Y2557143D01*
X6510714Y2500000D01*
X6539285Y2471429D01*
X6596428Y2442858D01*
X6796428Y2442858D01*
X6225000Y2300000D02*
X5939285Y2300000D01*
X6282142Y2128572D02*
X6082142Y2728572D01*
X5882142Y2128572D01*
X5767857Y2728572D02*
X5425000Y2728572D01*
X5596428Y2128572D02*
X5596428Y2728572D01*
X4510714Y2128572D02*
X4510714Y2442858D01*
X4539285Y2500000D01*
X4596428Y2528572D01*
X4710714Y2528572D01*
X4767857Y2500000D01*
X4510714Y2157143D02*
X4567857Y2128572D01*
X4710714Y2128572D01*
X4767857Y2157143D01*
X4796428Y2214286D01*
X4796428Y2271429D01*
X4767857Y2328572D01*
X4710714Y2357143D01*
X4567857Y2357143D01*
X4510714Y2385715D01*
X4225000Y2528572D02*
X4225000Y2128572D01*
X4225000Y2471429D02*
X4196428Y2500000D01*
X4139285Y2528572D01*
X4053571Y2528572D01*
X3996428Y2500000D01*
X3967857Y2442858D01*
X3967857Y2128572D01*
X3425000Y2128572D02*
X3425000Y2728572D01*
X3425000Y2157143D02*
X3482142Y2128572D01*
X3596428Y2128572D01*
X3653571Y2157143D01*
X3682142Y2185715D01*
X3710714Y2242858D01*
X3710714Y2414286D01*
X3682142Y2471429D01*
X3653571Y2500000D01*
X3596428Y2528572D01*
X3482142Y2528572D01*
X3425000Y2500000D01*
X2367857Y2700000D02*
X2425000Y2728572D01*
X2510714Y2728572D01*
X2596428Y2700000D01*
X2653571Y2642858D01*
X2682142Y2585715D01*
X2710714Y2471429D01*
X2710714Y2385715D01*
X2682142Y2271429D01*
X2653571Y2214286D01*
X2596428Y2157143D01*
X2510714Y2128572D01*
X2453571Y2128572D01*
X2367857Y2157143D01*
X2339285Y2185715D01*
X2339285Y2385715D01*
X2453571Y2385715D01*
X2082142Y2128572D02*
X2082142Y2728572D01*
X1739285Y2128572D01*
X1739285Y2728572D01*
X1453571Y2128572D02*
X1453571Y2728572D01*
X1310714Y2728572D01*
X1225000Y2700000D01*
X1167857Y2642858D01*
X1139285Y2585715D01*
X1110714Y2471429D01*
X1110714Y2385715D01*
X1139285Y2271429D01*
X1167857Y2214286D01*
X1225000Y2157143D01*
X1310714Y2128572D01*
X1453571Y2128572D01*
D12*
X1200000Y10902917D02*
X1166666Y10969584D01*
X1166666Y11069584D01*
X1200000Y11169584D01*
X1266666Y11236250D01*
X1333333Y11269584D01*
X1466666Y11302917D01*
X1566666Y11302917D01*
X1700000Y11269584D01*
X1766666Y11236250D01*
X1833333Y11169584D01*
X1866666Y11069584D01*
X1866666Y11002917D01*
X1833333Y10902917D01*
X1800000Y10869584D01*
X1566666Y10869584D01*
X1566666Y11002917D01*
X1866666Y10569584D02*
X1166666Y10569584D01*
X1866666Y10169584D01*
X1166666Y10169584D01*
X1866666Y9836250D02*
X1166666Y9836250D01*
X1166666Y9669584D01*
X1200000Y9569584D01*
X1266666Y9502917D01*
X1333333Y9469584D01*
X1466666Y9436250D01*
X1566666Y9436250D01*
X1700000Y9469584D01*
X1766666Y9502917D01*
X1833333Y9569584D01*
X1866666Y9669584D01*
X1866666Y9836250D01*
X3616666Y11369584D02*
X4316666Y11136250D01*
X3616666Y10902917D01*
X4316666Y10669584D02*
X3616666Y10669584D01*
X3616666Y10402917D01*
X3650000Y10336250D01*
X3683333Y10302917D01*
X3750000Y10269584D01*
X3850000Y10269584D01*
X3916666Y10302917D01*
X3950000Y10336250D01*
X3983333Y10402917D01*
X3983333Y10669584D01*
X4316666Y9969584D02*
X3616666Y9969584D01*
X3616666Y9702917D01*
X3650000Y9636250D01*
X3683333Y9602917D01*
X3750000Y9569584D01*
X3850000Y9569584D01*
X3916666Y9602917D01*
X3950000Y9636250D01*
X3983333Y9702917D01*
X3983333Y9969584D01*
X6066666Y11369584D02*
X6766666Y11136250D01*
X6066666Y10902917D01*
X6833333Y10836250D02*
X6833333Y10302917D01*
X6400000Y9902917D02*
X6433333Y9802917D01*
X6466666Y9769584D01*
X6533333Y9736250D01*
X6633333Y9736250D01*
X6700000Y9769584D01*
X6733333Y9802917D01*
X6766666Y9869584D01*
X6766666Y10136250D01*
X6066666Y10136250D01*
X6066666Y9902917D01*
X6100000Y9836250D01*
X6133333Y9802917D01*
X6200000Y9769584D01*
X6266666Y9769584D01*
X6333333Y9802917D01*
X6366666Y9836250D01*
X6400000Y9902917D01*
X6400000Y10136250D01*
X6566666Y9469584D02*
X6566666Y9136250D01*
X6766666Y9536250D02*
X6066666Y9302917D01*
X6766666Y9069584D01*
X6066666Y8936250D02*
X6066666Y8536250D01*
X6766666Y8736250D02*
X6066666Y8736250D01*
D13*
X27572285Y63759572D02*
X26701428Y63759572D01*
X27136857Y62235572D02*
X27136857Y63759572D01*
X25903142Y62961286D02*
X25903142Y62235572D01*
X26411142Y63759572D02*
X25903142Y62961286D01*
X25395142Y63759572D01*
X24887142Y62235572D02*
X24887142Y63759572D01*
X24379142Y62671000D01*
X23871142Y63759572D01*
X23871142Y62235572D01*
X23145428Y62235572D02*
X23145428Y63759572D01*
X22564857Y63759572D01*
X22419714Y63687000D01*
X22347142Y63614429D01*
X22274571Y63469286D01*
X22274571Y63251572D01*
X22347142Y63106429D01*
X22419714Y63033858D01*
X22564857Y62961286D01*
X23145428Y62961286D01*
X21694000Y62671000D02*
X20968285Y62671000D01*
X21839142Y62235572D02*
X21331142Y63759572D01*
X20823142Y62235572D01*
X20315142Y62235572D02*
X20315142Y63759572D01*
X19444285Y62235572D01*
X19444285Y63759572D01*
X15525428Y62235572D02*
X16033428Y62961286D01*
X16396285Y62235572D02*
X16396285Y63759572D01*
X15815714Y63759572D01*
X15670571Y63687000D01*
X15598000Y63614429D01*
X15525428Y63469286D01*
X15525428Y63251572D01*
X15598000Y63106429D01*
X15670571Y63033858D01*
X15815714Y62961286D01*
X16396285Y62961286D01*
X14291714Y62308143D02*
X14436857Y62235572D01*
X14727142Y62235572D01*
X14872285Y62308143D01*
X14944857Y62453286D01*
X14944857Y63033858D01*
X14872285Y63179000D01*
X14727142Y63251572D01*
X14436857Y63251572D01*
X14291714Y63179000D01*
X14219142Y63033858D01*
X14219142Y62888715D01*
X14944857Y62743572D01*
X13711142Y63251572D02*
X13348285Y62235572D01*
X12985428Y63251572D01*
X11243714Y62235572D02*
X11243714Y63759572D01*
X10880857Y63759572D01*
X10663142Y63687000D01*
X10518000Y63541858D01*
X10445428Y63396715D01*
X10372857Y63106429D01*
X10372857Y62888715D01*
X10445428Y62598429D01*
X10518000Y62453286D01*
X10663142Y62308143D01*
X10880857Y62235572D01*
X11243714Y62235572D01*
D14*
X4175572Y31883886D02*
X3703858Y31883886D01*
X3957858Y31593600D01*
X3849001Y31593600D01*
X3776430Y31557315D01*
X3740144Y31521029D01*
X3703858Y31448458D01*
X3703858Y31267029D01*
X3740144Y31194458D01*
X3776430Y31158172D01*
X3849001Y31121886D01*
X4066715Y31121886D01*
X4139287Y31158172D01*
X4175572Y31194458D01*
X3486144Y31883886D02*
X3232144Y31121886D01*
X2978144Y31883886D01*
X2796715Y31883886D02*
X2325001Y31883886D01*
X2579001Y31593600D01*
X2470144Y31593600D01*
X2397572Y31557315D01*
X2361287Y31521029D01*
X2325001Y31448458D01*
X2325001Y31267029D01*
X2361287Y31194458D01*
X2397572Y31158172D01*
X2470144Y31121886D01*
X2687858Y31121886D01*
X2760430Y31158172D01*
X2796715Y31194458D01*
X4139287Y28698000D02*
X3776430Y28698000D01*
X4211858Y28480286D02*
X3957858Y29242286D01*
X3703858Y28480286D01*
X3050715Y28480286D02*
X3486144Y28480286D01*
X3268430Y28480286D02*
X3268430Y29242286D01*
X3341001Y29133429D01*
X3413572Y29060858D01*
X3486144Y29024572D01*
X3703858Y26564400D02*
X3776430Y26600686D01*
X3885287Y26600686D01*
X3994144Y26564400D01*
X4066715Y26491829D01*
X4103001Y26419258D01*
X4139287Y26274115D01*
X4139287Y26165258D01*
X4103001Y26020115D01*
X4066715Y25947543D01*
X3994144Y25874972D01*
X3885287Y25838686D01*
X3812715Y25838686D01*
X3703858Y25874972D01*
X3667572Y25911258D01*
X3667572Y26165258D01*
X3812715Y26165258D01*
X3341001Y25838686D02*
X3341001Y26600686D01*
X2905572Y25838686D01*
X2905572Y26600686D01*
X2542715Y25838686D02*
X2542715Y26600686D01*
X2361287Y26600686D01*
X2252430Y26564400D01*
X2179858Y26491829D01*
X2143572Y26419258D01*
X2107287Y26274115D01*
X2107287Y26165258D01*
X2143572Y26020115D01*
X2179858Y25947543D01*
X2252430Y25874972D01*
X2361287Y25838686D01*
X2542715Y25838686D01*
D15*
G04 #@! TO.C,F1*
X4700000Y18580000D02*
X2700000Y18580000D01*
X2700000Y20620000D02*
X4700000Y20620000D01*
G04 #@! TO.C,U4*
X30840000Y27000000D02*
X30840000Y28800000D01*
X34060000Y28800000D02*
X34060000Y26350000D01*
G04 #@! TO.C,C14*
X7855000Y28125000D02*
X7855000Y28625000D01*
X8795000Y28625000D02*
X8795000Y28125000D01*
G04 #@! TO.C,C20*
X32750000Y26020000D02*
X33250000Y26020000D01*
X33250000Y25080000D02*
X32750000Y25080000D01*
G04 #@! TO.C,C21*
X28320000Y11250000D02*
X28320000Y10750000D01*
X27380000Y10750000D02*
X27380000Y11250000D01*
G04 #@! TO.C,C22*
X32750000Y30745000D02*
X33250000Y30745000D01*
X33250000Y29805000D02*
X32750000Y29805000D01*
G04 #@! TO.C,C23*
X6230000Y45250000D02*
X6230000Y45750000D01*
X7170000Y45750000D02*
X7170000Y45250000D01*
G04 #@! TO.C,C24*
X6255000Y42800000D02*
X6255000Y43300000D01*
X7195000Y43300000D02*
X7195000Y42800000D01*
G04 #@! TO.C,C25*
X6230000Y40350000D02*
X6230000Y40850000D01*
X7170000Y40850000D02*
X7170000Y40350000D01*
G04 #@! TO.C,C26*
X6230000Y37596000D02*
X6230000Y38096000D01*
X7170000Y38096000D02*
X7170000Y37596000D01*
G04 #@! TO.C,R19*
X22950000Y44270000D02*
X22450000Y44270000D01*
X22450000Y45330000D02*
X22950000Y45330000D01*
G04 #@! TO.C,R20*
X22950000Y43370000D02*
X22450000Y43370000D01*
X22450000Y44430000D02*
X22950000Y44430000D01*
G04 #@! TO.C,R23*
X10655000Y30525000D02*
X10655000Y30025000D01*
X9595000Y30025000D02*
X9595000Y30525000D01*
D11*
G04 #@! TO.C,IC1*
X23522820Y33512780D02*
G75*
G03X23522820Y33512780I-599440J0D01*
G01*
X24223860Y28313400D02*
X24223860Y34813260D01*
X24223860Y34813260D02*
X11224140Y34813260D01*
X11224140Y34813260D02*
X11224140Y21813540D01*
X11224140Y21813540D02*
X24223860Y21813540D01*
X24223860Y21813540D02*
X24223860Y28313400D01*
X21224120Y33815040D02*
X21213960Y33815040D01*
D15*
G04 #@! TO.C,C34*
X30200000Y13320000D02*
X30700000Y13320000D01*
X30700000Y12380000D02*
X30200000Y12380000D01*
D16*
G04 #@! TO.C,D4*
X14350000Y15300000D02*
X10350000Y15300000D01*
X10350000Y12300000D02*
X14350000Y12300000D01*
G04 #@! TO.C,D5*
X23500000Y10400000D02*
X23500000Y6400000D01*
X26500000Y6400000D02*
X26500000Y10400000D01*
D15*
G04 #@! TO.C,R34*
X22670000Y2350000D02*
X22670000Y2850000D01*
X23730000Y2850000D02*
X23730000Y2350000D01*
G04 #@! TO.C,R35*
X23670000Y2350000D02*
X23670000Y2850000D01*
X24730000Y2850000D02*
X24730000Y2350000D01*
G04 #@! TO.C,R36*
X21670000Y2350000D02*
X21670000Y2850000D01*
X22730000Y2850000D02*
X22730000Y2350000D01*
G04 #@! TO.C,U1*
X28440000Y9550000D02*
X28440000Y11350000D01*
X31660000Y11350000D02*
X31660000Y8900000D01*
D11*
G04 #@! TO.C,IC2*
X7150000Y21000000D02*
X7650000Y21000000D01*
X10400000Y24250000D02*
X9900000Y24250000D01*
X10400000Y21000000D02*
X9900000Y21000000D01*
X7150000Y24250000D02*
X7150000Y23750000D01*
X10400000Y24250000D02*
X10400000Y23750000D01*
X10400000Y21000000D02*
X10400000Y21500000D01*
X7150000Y21000000D02*
X7150000Y21500000D01*
D16*
G04 #@! TO.C,BT1*
X18800000Y2550000D02*
X18800000Y10550000D01*
X18800000Y10550000D02*
X11800000Y10550000D01*
X11800000Y10550000D02*
X11800000Y2550000D01*
X11800000Y2550000D02*
X18800000Y2550000D01*
G04 #@! TO.C,MIC1*
X33000000Y57000000D02*
X33000000Y52250000D01*
X33000000Y52250000D02*
X37000000Y52250000D01*
X37000000Y52250000D02*
X37000000Y57000000D01*
X37000000Y57000000D02*
X33000000Y57000000D01*
D17*
G04 #@! TO.C,G\002A\002A\002A*
G36*
X17198442Y60358056D02*
X16327488Y60135696D01*
X15823000Y59927495D01*
X15343417Y59627662D01*
X14866422Y59208505D01*
X14435540Y58715012D01*
X14094296Y58192169D01*
X14037842Y58082333D01*
X13919544Y57833863D01*
X13838991Y57632309D01*
X13789035Y57435412D01*
X13762527Y57200914D01*
X13752319Y56886555D01*
X13751263Y56450077D01*
X13751409Y56389000D01*
X13755975Y55915126D01*
X13770937Y55566182D01*
X13802306Y55297823D01*
X13856095Y55065702D01*
X13938315Y54825473D01*
X13976784Y54726567D01*
X14421796Y53826945D01*
X15015095Y53003347D01*
X15532818Y52457164D01*
X16151475Y51912451D01*
X16752458Y51483633D01*
X17391757Y51137331D01*
X18125362Y50840165D01*
X18405333Y50744682D01*
X18847875Y50639769D01*
X19397419Y50569191D01*
X19994663Y50535402D01*
X20580305Y50540858D01*
X21095041Y50588015D01*
X21294623Y50625058D01*
X22072539Y50882821D01*
X22786669Y51276718D01*
X23409513Y51787273D01*
X23913570Y52395009D01*
X24011345Y52549044D01*
X24327957Y53236740D01*
X24498909Y53984534D01*
X24519726Y54566246D01*
X24289667Y54566246D01*
X24210545Y53773206D01*
X23979498Y53044346D01*
X23606009Y52392637D01*
X23099557Y51831052D01*
X22469624Y51372560D01*
X21725689Y51030133D01*
X21698141Y51020560D01*
X21273321Y50891424D01*
X20994476Y50846612D01*
X20860754Y50886096D01*
X20862849Y50991500D01*
X20897381Y51143575D01*
X20932176Y51412276D01*
X20960714Y51745035D01*
X20965236Y51817000D01*
X20968892Y51944000D01*
X20691102Y51944000D01*
X20683899Y51458793D01*
X20646078Y51120979D01*
X20552833Y50908718D01*
X20379359Y50800172D01*
X20100851Y50773500D01*
X19692504Y50806862D01*
X19435761Y50838731D01*
X19140241Y50882030D01*
X18917113Y50924465D01*
X18813825Y50956984D01*
X18813302Y50957476D01*
X18806952Y51068517D01*
X18863250Y51287952D01*
X18966319Y51574150D01*
X19100285Y51885479D01*
X19249270Y52180308D01*
X19334814Y52325000D01*
X19547757Y52619006D01*
X19792670Y52895879D01*
X20035179Y53122497D01*
X20240908Y53265740D01*
X20345341Y53298667D01*
X20479095Y53217605D01*
X20583650Y52985094D01*
X20654919Y52617144D01*
X20688815Y52129769D01*
X20691102Y51944000D01*
X20968892Y51944000D01*
X20976994Y52225362D01*
X20950534Y52536683D01*
X20877785Y52820553D01*
X20835120Y52938858D01*
X20755066Y53188521D01*
X20725445Y53369796D01*
X20741792Y53430688D01*
X20780495Y53495031D01*
X20139371Y53495031D01*
X19810888Y53231055D01*
X19492806Y52914676D01*
X19172248Y52493201D01*
X18888316Y52025684D01*
X18680114Y51571179D01*
X18646306Y51472331D01*
X18553168Y51223178D01*
X18462949Y51056675D01*
X18411038Y51013701D01*
X18295641Y51046238D01*
X18068939Y51131787D01*
X17774020Y51253809D01*
X17683277Y51293048D01*
X16862514Y51709105D01*
X16146182Y52204942D01*
X15484005Y52817556D01*
X15223318Y53103263D01*
X14793968Y53658684D01*
X14447424Y54238558D01*
X14190567Y54819311D01*
X14030278Y55377365D01*
X13973439Y55889146D01*
X14026930Y56331078D01*
X14184489Y56662447D01*
X14408433Y56922986D01*
X14644828Y57093900D01*
X14939887Y57195860D01*
X15339824Y57249539D01*
X15523201Y57261280D01*
X15908372Y57293551D01*
X16126034Y57335814D01*
X16176254Y57380089D01*
X16059097Y57418392D01*
X15774629Y57442742D01*
X15521670Y57447333D01*
X15181313Y57460145D01*
X14966159Y57494856D01*
X14888443Y57545882D01*
X14960396Y57607639D01*
X15082167Y57647969D01*
X15526768Y57698283D01*
X16003086Y57640460D01*
X16248133Y57563735D01*
X16461247Y57486969D01*
X16595965Y57454506D01*
X16616143Y57457902D01*
X16879574Y57919051D01*
X16994713Y58395097D01*
X16961599Y58858837D01*
X16780271Y59283071D01*
X16613161Y59494127D01*
X16472495Y59647673D01*
X16444113Y59715708D01*
X16521012Y59732904D01*
X16564851Y59733333D01*
X16779426Y59654635D01*
X16976614Y59442295D01*
X17134556Y59131944D01*
X17231397Y58759217D01*
X17246734Y58621694D01*
X17258198Y58338618D01*
X17230833Y58125521D01*
X17145961Y57914147D01*
X16984902Y57636238D01*
X16970806Y57613362D01*
X16765793Y57245240D01*
X16680872Y56971074D01*
X16722874Y56758943D01*
X16898630Y56576922D01*
X17214970Y56393090D01*
X17233946Y56383603D01*
X17932763Y55967039D01*
X18609489Y55435921D01*
X19221402Y54829819D01*
X19725780Y54188300D01*
X19894162Y53919750D01*
X20139371Y53495031D01*
X20780495Y53495031D01*
X20820564Y53561642D01*
X20749342Y53759376D01*
X20531166Y54018179D01*
X20333163Y54198549D01*
X19838187Y54645712D01*
X19363006Y55124030D01*
X18924441Y55612048D01*
X18539315Y56088311D01*
X18224448Y56531365D01*
X18090661Y56759482D01*
X17685232Y56759482D01*
X17629222Y56657111D01*
X17513381Y56602180D01*
X17445127Y56701888D01*
X17431667Y56844300D01*
X17389908Y57059166D01*
X17304667Y57193333D01*
X17192586Y57329627D01*
X17202378Y57425963D01*
X17276833Y57447333D01*
X17452194Y57374633D01*
X17596379Y57196144D01*
X17682891Y56971287D01*
X17685232Y56759482D01*
X18090661Y56759482D01*
X17996663Y56919754D01*
X17872779Y57232024D01*
X17855000Y57359294D01*
X17927284Y57555868D01*
X18124168Y57794606D01*
X18415704Y58048473D01*
X18771942Y58290438D01*
X19058032Y58445177D01*
X19382829Y58584977D01*
X19806731Y58744047D01*
X20264995Y58898907D01*
X20547194Y58985193D01*
X21476477Y59255183D01*
X22042175Y58805044D01*
X22726193Y58172189D01*
X23302723Y57457073D01*
X23758917Y56683927D01*
X24081927Y55876980D01*
X24258906Y55060465D01*
X24289667Y54566246D01*
X24519726Y54566246D01*
X24527061Y54771180D01*
X24415271Y55575437D01*
X24166398Y56376062D01*
X23783302Y57151811D01*
X23298569Y57845243D01*
X22922175Y58272017D01*
X22479191Y58720295D01*
X22034324Y59126271D01*
X21824147Y59299153D01*
X21578218Y59459750D01*
X21224356Y59651420D01*
X20814476Y59849352D01*
X20400490Y60028736D01*
X20034313Y60164760D01*
X19971667Y60184493D01*
X19053214Y60384479D01*
X18117912Y60441659D01*
X17198442Y60358056D01*
X17198442Y60358056D01*
G37*
X17198442Y60358056D02*
X16327488Y60135696D01*
X15823000Y59927495D01*
X15343417Y59627662D01*
X14866422Y59208505D01*
X14435540Y58715012D01*
X14094296Y58192169D01*
X14037842Y58082333D01*
X13919544Y57833863D01*
X13838991Y57632309D01*
X13789035Y57435412D01*
X13762527Y57200914D01*
X13752319Y56886555D01*
X13751263Y56450077D01*
X13751409Y56389000D01*
X13755975Y55915126D01*
X13770937Y55566182D01*
X13802306Y55297823D01*
X13856095Y55065702D01*
X13938315Y54825473D01*
X13976784Y54726567D01*
X14421796Y53826945D01*
X15015095Y53003347D01*
X15532818Y52457164D01*
X16151475Y51912451D01*
X16752458Y51483633D01*
X17391757Y51137331D01*
X18125362Y50840165D01*
X18405333Y50744682D01*
X18847875Y50639769D01*
X19397419Y50569191D01*
X19994663Y50535402D01*
X20580305Y50540858D01*
X21095041Y50588015D01*
X21294623Y50625058D01*
X22072539Y50882821D01*
X22786669Y51276718D01*
X23409513Y51787273D01*
X23913570Y52395009D01*
X24011345Y52549044D01*
X24327957Y53236740D01*
X24498909Y53984534D01*
X24519726Y54566246D01*
X24289667Y54566246D01*
X24210545Y53773206D01*
X23979498Y53044346D01*
X23606009Y52392637D01*
X23099557Y51831052D01*
X22469624Y51372560D01*
X21725689Y51030133D01*
X21698141Y51020560D01*
X21273321Y50891424D01*
X20994476Y50846612D01*
X20860754Y50886096D01*
X20862849Y50991500D01*
X20897381Y51143575D01*
X20932176Y51412276D01*
X20960714Y51745035D01*
X20965236Y51817000D01*
X20968892Y51944000D01*
X20691102Y51944000D01*
X20683899Y51458793D01*
X20646078Y51120979D01*
X20552833Y50908718D01*
X20379359Y50800172D01*
X20100851Y50773500D01*
X19692504Y50806862D01*
X19435761Y50838731D01*
X19140241Y50882030D01*
X18917113Y50924465D01*
X18813825Y50956984D01*
X18813302Y50957476D01*
X18806952Y51068517D01*
X18863250Y51287952D01*
X18966319Y51574150D01*
X19100285Y51885479D01*
X19249270Y52180308D01*
X19334814Y52325000D01*
X19547757Y52619006D01*
X19792670Y52895879D01*
X20035179Y53122497D01*
X20240908Y53265740D01*
X20345341Y53298667D01*
X20479095Y53217605D01*
X20583650Y52985094D01*
X20654919Y52617144D01*
X20688815Y52129769D01*
X20691102Y51944000D01*
X20968892Y51944000D01*
X20976994Y52225362D01*
X20950534Y52536683D01*
X20877785Y52820553D01*
X20835120Y52938858D01*
X20755066Y53188521D01*
X20725445Y53369796D01*
X20741792Y53430688D01*
X20780495Y53495031D01*
X20139371Y53495031D01*
X19810888Y53231055D01*
X19492806Y52914676D01*
X19172248Y52493201D01*
X18888316Y52025684D01*
X18680114Y51571179D01*
X18646306Y51472331D01*
X18553168Y51223178D01*
X18462949Y51056675D01*
X18411038Y51013701D01*
X18295641Y51046238D01*
X18068939Y51131787D01*
X17774020Y51253809D01*
X17683277Y51293048D01*
X16862514Y51709105D01*
X16146182Y52204942D01*
X15484005Y52817556D01*
X15223318Y53103263D01*
X14793968Y53658684D01*
X14447424Y54238558D01*
X14190567Y54819311D01*
X14030278Y55377365D01*
X13973439Y55889146D01*
X14026930Y56331078D01*
X14184489Y56662447D01*
X14408433Y56922986D01*
X14644828Y57093900D01*
X14939887Y57195860D01*
X15339824Y57249539D01*
X15523201Y57261280D01*
X15908372Y57293551D01*
X16126034Y57335814D01*
X16176254Y57380089D01*
X16059097Y57418392D01*
X15774629Y57442742D01*
X15521670Y57447333D01*
X15181313Y57460145D01*
X14966159Y57494856D01*
X14888443Y57545882D01*
X14960396Y57607639D01*
X15082167Y57647969D01*
X15526768Y57698283D01*
X16003086Y57640460D01*
X16248133Y57563735D01*
X16461247Y57486969D01*
X16595965Y57454506D01*
X16616143Y57457902D01*
X16879574Y57919051D01*
X16994713Y58395097D01*
X16961599Y58858837D01*
X16780271Y59283071D01*
X16613161Y59494127D01*
X16472495Y59647673D01*
X16444113Y59715708D01*
X16521012Y59732904D01*
X16564851Y59733333D01*
X16779426Y59654635D01*
X16976614Y59442295D01*
X17134556Y59131944D01*
X17231397Y58759217D01*
X17246734Y58621694D01*
X17258198Y58338618D01*
X17230833Y58125521D01*
X17145961Y57914147D01*
X16984902Y57636238D01*
X16970806Y57613362D01*
X16765793Y57245240D01*
X16680872Y56971074D01*
X16722874Y56758943D01*
X16898630Y56576922D01*
X17214970Y56393090D01*
X17233946Y56383603D01*
X17932763Y55967039D01*
X18609489Y55435921D01*
X19221402Y54829819D01*
X19725780Y54188300D01*
X19894162Y53919750D01*
X20139371Y53495031D01*
X20780495Y53495031D01*
X20820564Y53561642D01*
X20749342Y53759376D01*
X20531166Y54018179D01*
X20333163Y54198549D01*
X19838187Y54645712D01*
X19363006Y55124030D01*
X18924441Y55612048D01*
X18539315Y56088311D01*
X18224448Y56531365D01*
X18090661Y56759482D01*
X17685232Y56759482D01*
X17629222Y56657111D01*
X17513381Y56602180D01*
X17445127Y56701888D01*
X17431667Y56844300D01*
X17389908Y57059166D01*
X17304667Y57193333D01*
X17192586Y57329627D01*
X17202378Y57425963D01*
X17276833Y57447333D01*
X17452194Y57374633D01*
X17596379Y57196144D01*
X17682891Y56971287D01*
X17685232Y56759482D01*
X18090661Y56759482D01*
X17996663Y56919754D01*
X17872779Y57232024D01*
X17855000Y57359294D01*
X17927284Y57555868D01*
X18124168Y57794606D01*
X18415704Y58048473D01*
X18771942Y58290438D01*
X19058032Y58445177D01*
X19382829Y58584977D01*
X19806731Y58744047D01*
X20264995Y58898907D01*
X20547194Y58985193D01*
X21476477Y59255183D01*
X22042175Y58805044D01*
X22726193Y58172189D01*
X23302723Y57457073D01*
X23758917Y56683927D01*
X24081927Y55876980D01*
X24258906Y55060465D01*
X24289667Y54566246D01*
X24519726Y54566246D01*
X24527061Y54771180D01*
X24415271Y55575437D01*
X24166398Y56376062D01*
X23783302Y57151811D01*
X23298569Y57845243D01*
X22922175Y58272017D01*
X22479191Y58720295D01*
X22034324Y59126271D01*
X21824147Y59299153D01*
X21578218Y59459750D01*
X21224356Y59651420D01*
X20814476Y59849352D01*
X20400490Y60028736D01*
X20034313Y60164760D01*
X19971667Y60184493D01*
X19053214Y60384479D01*
X18117912Y60441659D01*
X17198442Y60358056D01*
G36*
X30109404Y24999981D02*
X29960236Y24998575D01*
X29846201Y24995974D01*
X29763703Y24992027D01*
X29709147Y24986585D01*
X29678938Y24979499D01*
X29670854Y24974208D01*
X29661875Y24947272D01*
X29646577Y24884158D01*
X29626113Y24790358D01*
X29601635Y24671362D01*
X29574297Y24532662D01*
X29545249Y24379749D01*
X29538698Y24344500D01*
X29509363Y24189099D01*
X29481377Y24046629D01*
X29455910Y23922595D01*
X29434130Y23822505D01*
X29417205Y23751864D01*
X29406303Y23716180D01*
X29404830Y23713569D01*
X29395561Y23703146D01*
X29382397Y23692691D01*
X29360527Y23680053D01*
X29325143Y23663085D01*
X29271436Y23639635D01*
X29194597Y23607557D01*
X29089815Y23564699D01*
X28952284Y23508913D01*
X28894944Y23485703D01*
X28781508Y23440729D01*
X28679489Y23402028D01*
X28596261Y23372261D01*
X28539194Y23354088D01*
X28517953Y23349667D01*
X28497575Y23355571D01*
X28460589Y23374326D01*
X28404610Y23407493D01*
X28327249Y23456634D01*
X28226120Y23523311D01*
X28098835Y23609087D01*
X27943008Y23715522D01*
X27756250Y23844180D01*
X27652628Y23915875D01*
X27572863Y23969587D01*
X27504444Y24012813D01*
X27455594Y24040531D01*
X27436007Y24048166D01*
X27415081Y24033717D01*
X27368365Y23992851D01*
X27299795Y23929291D01*
X27213306Y23846762D01*
X27112836Y23748988D01*
X27002320Y23639691D01*
X26968301Y23605719D01*
X26823970Y23459957D01*
X26709998Y23341909D01*
X26625559Y23250660D01*
X26569825Y23185296D01*
X26541969Y23144904D01*
X26538603Y23131028D01*
X26553477Y23105676D01*
X26589230Y23050348D01*
X26642634Y22969866D01*
X26710463Y22869052D01*
X26789489Y22752730D01*
X26876487Y22625724D01*
X26883394Y22615684D01*
X26970767Y22487969D01*
X27050222Y22370421D01*
X27118561Y22267883D01*
X27172585Y22185203D01*
X27209094Y22127225D01*
X27224890Y22098796D01*
X27225155Y22097977D01*
X27219510Y22070018D01*
X27198997Y22009390D01*
X27166051Y21922058D01*
X27123107Y21813989D01*
X27072600Y21691149D01*
X27016966Y21559502D01*
X26958639Y21425017D01*
X26900055Y21293657D01*
X26870184Y21228320D01*
X26859492Y21207382D01*
X26845664Y21189731D01*
X26824212Y21174098D01*
X26790649Y21159214D01*
X26740490Y21143809D01*
X26669245Y21126614D01*
X26572429Y21106360D01*
X26445555Y21081777D01*
X26284134Y21051595D01*
X26172500Y21030948D01*
X26025687Y21003229D01*
X25892017Y20976843D01*
X25777338Y20953036D01*
X25687496Y20933054D01*
X25628336Y20918145D01*
X25606292Y20910205D01*
X25597529Y20882543D01*
X25590348Y20819160D01*
X25584730Y20726636D01*
X25580661Y20611552D01*
X25578123Y20480490D01*
X25577100Y20340031D01*
X25577575Y20196757D01*
X25579531Y20057248D01*
X25582953Y19928086D01*
X25587823Y19815852D01*
X25594124Y19727127D01*
X25601841Y19668493D01*
X25609474Y19647251D01*
X25637464Y19637005D01*
X25701407Y19620557D01*
X25795585Y19599154D01*
X25914277Y19574045D01*
X26051766Y19546477D01*
X26202332Y19517700D01*
X26207433Y19516749D01*
X26386679Y19482803D01*
X26528212Y19454645D01*
X26636105Y19431291D01*
X26714434Y19411756D01*
X26767272Y19395054D01*
X26798693Y19380201D01*
X26809434Y19371225D01*
X26827964Y19339040D01*
X26858232Y19274773D01*
X26897389Y19185533D01*
X26942583Y19078429D01*
X26990962Y18960571D01*
X27039677Y18839068D01*
X27085877Y18721029D01*
X27126709Y18613564D01*
X27159324Y18523781D01*
X27180871Y18458791D01*
X27188500Y18425957D01*
X27184707Y18407719D01*
X27171960Y18378941D01*
X27148214Y18336468D01*
X27111421Y18277144D01*
X27059534Y18197813D01*
X26990505Y18095319D01*
X26902287Y17966507D01*
X26792834Y17808220D01*
X26716381Y17698166D01*
X26654039Y17606901D01*
X26600510Y17525456D01*
X26560576Y17461338D01*
X26539018Y17422054D01*
X26536896Y17416414D01*
X26542836Y17395137D01*
X26569096Y17356616D01*
X26617665Y17298623D01*
X26690531Y17218925D01*
X26789685Y17115294D01*
X26917116Y16985500D01*
X26958152Y16944147D01*
X27085998Y16816094D01*
X27187898Y16715498D01*
X27267284Y16639340D01*
X27327594Y16584602D01*
X27372261Y16548266D01*
X27404723Y16527313D01*
X27428413Y16518725D01*
X27442500Y16518584D01*
X27473858Y16532593D01*
X27534517Y16567653D01*
X27619193Y16620409D01*
X27722598Y16687502D01*
X27839449Y16765576D01*
X27944422Y16837392D01*
X28067889Y16921599D01*
X28181844Y16997130D01*
X28281130Y17060738D01*
X28360586Y17109180D01*
X28415053Y17139209D01*
X28437931Y17147833D01*
X28474631Y17137944D01*
X28537795Y17111296D01*
X28617294Y17072420D01*
X28673333Y17042519D01*
X28756762Y16997687D01*
X28828884Y16961121D01*
X28880131Y16937551D01*
X28897982Y16931394D01*
X28907927Y16932671D01*
X28919616Y16941848D01*
X28934453Y16962016D01*
X28953846Y16996266D01*
X28979199Y17047690D01*
X29011918Y17119379D01*
X29053409Y17214423D01*
X29105079Y17335913D01*
X29168332Y17486942D01*
X29244574Y17670599D01*
X29335212Y17889976D01*
X29347770Y17920416D01*
X29410676Y18072797D01*
X29478768Y18237520D01*
X29546618Y18401466D01*
X29608796Y18551517D01*
X29656535Y18666523D01*
X29700782Y18776083D01*
X29737495Y18872990D01*
X29764174Y18950140D01*
X29778318Y19000431D01*
X29779457Y19015773D01*
X29756665Y19039896D01*
X29708099Y19077010D01*
X29648587Y19116333D01*
X29578825Y19165514D01*
X29494332Y19233822D01*
X29409335Y19309508D01*
X29376612Y19340961D01*
X29225254Y19519331D01*
X29110398Y19717875D01*
X29033228Y19933427D01*
X28994928Y20162821D01*
X28993722Y20364844D01*
X29028866Y20593125D01*
X29101791Y20807233D01*
X29209234Y21003367D01*
X29347933Y21177727D01*
X29514625Y21326513D01*
X29706048Y21445923D01*
X29918938Y21532157D01*
X30018429Y21558578D01*
X30244981Y21589601D01*
X30464853Y21581851D01*
X30674943Y21538483D01*
X30872153Y21462649D01*
X31053382Y21357502D01*
X31215528Y21226195D01*
X31355493Y21071880D01*
X31470176Y20897709D01*
X31556476Y20706837D01*
X31611293Y20502416D01*
X31631527Y20287598D01*
X31614078Y20065537D01*
X31591742Y19958629D01*
X31552079Y19823114D01*
X31503474Y19705630D01*
X31438013Y19589442D01*
X31368595Y19486750D01*
X31303138Y19400686D01*
X31235972Y19327105D01*
X31157350Y19257000D01*
X31057526Y19181364D01*
X30978380Y19126147D01*
X30918813Y19085913D01*
X30876676Y19053967D01*
X30851607Y19023229D01*
X30843246Y18986621D01*
X30851231Y18937063D01*
X30875199Y18867475D01*
X30914790Y18770780D01*
X30955310Y18674317D01*
X30998041Y18571855D01*
X31051779Y18442677D01*
X31113860Y18293217D01*
X31181616Y18129912D01*
X31252384Y17959197D01*
X31323497Y17787509D01*
X31392290Y17621284D01*
X31456097Y17466956D01*
X31512253Y17330963D01*
X31558093Y17219740D01*
X31590950Y17139723D01*
X31596286Y17126666D01*
X31629261Y17048740D01*
X31658589Y16984499D01*
X31678965Y16945438D01*
X31681895Y16941138D01*
X31699941Y16933743D01*
X31735674Y16941314D01*
X31794597Y16965901D01*
X31882209Y17009554D01*
X31923278Y17031096D01*
X32013350Y17077158D01*
X32092454Y17114651D01*
X32151677Y17139539D01*
X32181110Y17147833D01*
X32197910Y17143742D01*
X32226508Y17130169D01*
X32269892Y17105167D01*
X32331052Y17066789D01*
X32412977Y17013088D01*
X32518656Y16942114D01*
X32651079Y16851922D01*
X32813235Y16740564D01*
X32933409Y16657693D01*
X33018256Y16601169D01*
X33093271Y16554965D01*
X33150215Y16523911D01*
X33180525Y16512833D01*
X33204605Y16527258D01*
X33254334Y16568025D01*
X33325597Y16631372D01*
X33414277Y16713540D01*
X33516261Y16810766D01*
X33627431Y16919291D01*
X33653325Y16944916D01*
X33764521Y17055923D01*
X33865238Y17157786D01*
X33951709Y17246588D01*
X34020167Y17318416D01*
X34066847Y17369353D01*
X34087981Y17395485D01*
X34088834Y17397624D01*
X34077637Y17424627D01*
X34048410Y17474797D01*
X34011186Y17531750D01*
X33975175Y17584305D01*
X33920259Y17664350D01*
X33851513Y17764488D01*
X33774015Y17877324D01*
X33692843Y17995462D01*
X33680457Y18013484D01*
X33604839Y18125567D01*
X33538260Y18228194D01*
X33484305Y18315509D01*
X33446562Y18381657D01*
X33428618Y18420781D01*
X33427630Y18426234D01*
X33435350Y18457995D01*
X33456865Y18522797D01*
X33489930Y18614503D01*
X33532299Y18726978D01*
X33581728Y18854086D01*
X33612019Y18930278D01*
X33679302Y19095403D01*
X33733775Y19222729D01*
X33776481Y19314458D01*
X33808460Y19372795D01*
X33830755Y19399943D01*
X33835021Y19402142D01*
X33865612Y19409233D01*
X33931917Y19422900D01*
X34028032Y19441983D01*
X34148049Y19465321D01*
X34286064Y19491756D01*
X34429578Y19518890D01*
X34577959Y19547291D01*
X34712730Y19574083D01*
X34828262Y19598066D01*
X34918925Y19618040D01*
X34979089Y19632806D01*
X35003039Y19641072D01*
X35007328Y19665967D01*
X35010873Y19727817D01*
X35013575Y19821247D01*
X35015333Y19940883D01*
X35016047Y20081353D01*
X35015618Y20237281D01*
X35015196Y20292462D01*
X35009584Y20926083D01*
X34406334Y21039073D01*
X34251104Y21068812D01*
X34108942Y21097316D01*
X33985322Y21123387D01*
X33885719Y21145827D01*
X33815609Y21163435D01*
X33780464Y21175015D01*
X33777946Y21176656D01*
X33761454Y21203960D01*
X33732157Y21263398D01*
X33693074Y21347922D01*
X33647224Y21450483D01*
X33597624Y21564034D01*
X33547294Y21681524D01*
X33499252Y21795905D01*
X33456517Y21900129D01*
X33422108Y21987146D01*
X33399043Y22049909D01*
X33390341Y22081369D01*
X33390334Y22081749D01*
X33401942Y22107676D01*
X33434752Y22163619D01*
X33485746Y22244878D01*
X33551904Y22346752D01*
X33630206Y22464538D01*
X33717633Y22593536D01*
X33739584Y22625562D01*
X33828523Y22755629D01*
X33909112Y22874607D01*
X33978355Y22977983D01*
X34033257Y23061246D01*
X34070821Y23119882D01*
X34088053Y23149379D01*
X34088834Y23151699D01*
X34074298Y23172335D01*
X34033750Y23217679D01*
X33971782Y23283189D01*
X33892983Y23364322D01*
X33801943Y23456536D01*
X33703254Y23555286D01*
X33601506Y23656032D01*
X33501289Y23754229D01*
X33407193Y23845335D01*
X33323810Y23924808D01*
X33255729Y23988105D01*
X33207541Y24030683D01*
X33183836Y24047999D01*
X33182951Y24048167D01*
X33158985Y24036589D01*
X33104877Y24003861D01*
X33025246Y23952991D01*
X32924713Y23886985D01*
X32807900Y23808851D01*
X32679427Y23721596D01*
X32646330Y23698917D01*
X32514725Y23609633D01*
X32392591Y23528779D01*
X32284745Y23459388D01*
X32196005Y23404490D01*
X32131189Y23367119D01*
X32095115Y23350307D01*
X32091382Y23349667D01*
X32053785Y23357562D01*
X31987356Y23378961D01*
X31902059Y23410428D01*
X31823481Y23441978D01*
X31706812Y23490401D01*
X31578537Y23543404D01*
X31458816Y23592667D01*
X31407276Y23613780D01*
X31323061Y23650998D01*
X31254286Y23686631D01*
X31210216Y23715596D01*
X31199413Y23727843D01*
X31192181Y23756922D01*
X31178348Y23822033D01*
X31159027Y23917586D01*
X31135327Y24037988D01*
X31108360Y24177647D01*
X31079238Y24330971D01*
X31073189Y24363124D01*
X31037501Y24548458D01*
X31005648Y24704456D01*
X30978242Y24828432D01*
X30955898Y24917700D01*
X30939228Y24969576D01*
X30931802Y24981925D01*
X30903957Y24986595D01*
X30839413Y24990840D01*
X30743805Y24994497D01*
X30622767Y24997403D01*
X30481932Y24999393D01*
X30326934Y25000305D01*
X30297301Y25000342D01*
X30109404Y24999981D01*
X30109404Y24999981D01*
G37*
X30109404Y24999981D02*
X29960236Y24998575D01*
X29846201Y24995974D01*
X29763703Y24992027D01*
X29709147Y24986585D01*
X29678938Y24979499D01*
X29670854Y24974208D01*
X29661875Y24947272D01*
X29646577Y24884158D01*
X29626113Y24790358D01*
X29601635Y24671362D01*
X29574297Y24532662D01*
X29545249Y24379749D01*
X29538698Y24344500D01*
X29509363Y24189099D01*
X29481377Y24046629D01*
X29455910Y23922595D01*
X29434130Y23822505D01*
X29417205Y23751864D01*
X29406303Y23716180D01*
X29404830Y23713569D01*
X29395561Y23703146D01*
X29382397Y23692691D01*
X29360527Y23680053D01*
X29325143Y23663085D01*
X29271436Y23639635D01*
X29194597Y23607557D01*
X29089815Y23564699D01*
X28952284Y23508913D01*
X28894944Y23485703D01*
X28781508Y23440729D01*
X28679489Y23402028D01*
X28596261Y23372261D01*
X28539194Y23354088D01*
X28517953Y23349667D01*
X28497575Y23355571D01*
X28460589Y23374326D01*
X28404610Y23407493D01*
X28327249Y23456634D01*
X28226120Y23523311D01*
X28098835Y23609087D01*
X27943008Y23715522D01*
X27756250Y23844180D01*
X27652628Y23915875D01*
X27572863Y23969587D01*
X27504444Y24012813D01*
X27455594Y24040531D01*
X27436007Y24048166D01*
X27415081Y24033717D01*
X27368365Y23992851D01*
X27299795Y23929291D01*
X27213306Y23846762D01*
X27112836Y23748988D01*
X27002320Y23639691D01*
X26968301Y23605719D01*
X26823970Y23459957D01*
X26709998Y23341909D01*
X26625559Y23250660D01*
X26569825Y23185296D01*
X26541969Y23144904D01*
X26538603Y23131028D01*
X26553477Y23105676D01*
X26589230Y23050348D01*
X26642634Y22969866D01*
X26710463Y22869052D01*
X26789489Y22752730D01*
X26876487Y22625724D01*
X26883394Y22615684D01*
X26970767Y22487969D01*
X27050222Y22370421D01*
X27118561Y22267883D01*
X27172585Y22185203D01*
X27209094Y22127225D01*
X27224890Y22098796D01*
X27225155Y22097977D01*
X27219510Y22070018D01*
X27198997Y22009390D01*
X27166051Y21922058D01*
X27123107Y21813989D01*
X27072600Y21691149D01*
X27016966Y21559502D01*
X26958639Y21425017D01*
X26900055Y21293657D01*
X26870184Y21228320D01*
X26859492Y21207382D01*
X26845664Y21189731D01*
X26824212Y21174098D01*
X26790649Y21159214D01*
X26740490Y21143809D01*
X26669245Y21126614D01*
X26572429Y21106360D01*
X26445555Y21081777D01*
X26284134Y21051595D01*
X26172500Y21030948D01*
X26025687Y21003229D01*
X25892017Y20976843D01*
X25777338Y20953036D01*
X25687496Y20933054D01*
X25628336Y20918145D01*
X25606292Y20910205D01*
X25597529Y20882543D01*
X25590348Y20819160D01*
X25584730Y20726636D01*
X25580661Y20611552D01*
X25578123Y20480490D01*
X25577100Y20340031D01*
X25577575Y20196757D01*
X25579531Y20057248D01*
X25582953Y19928086D01*
X25587823Y19815852D01*
X25594124Y19727127D01*
X25601841Y19668493D01*
X25609474Y19647251D01*
X25637464Y19637005D01*
X25701407Y19620557D01*
X25795585Y19599154D01*
X25914277Y19574045D01*
X26051766Y19546477D01*
X26202332Y19517700D01*
X26207433Y19516749D01*
X26386679Y19482803D01*
X26528212Y19454645D01*
X26636105Y19431291D01*
X26714434Y19411756D01*
X26767272Y19395054D01*
X26798693Y19380201D01*
X26809434Y19371225D01*
X26827964Y19339040D01*
X26858232Y19274773D01*
X26897389Y19185533D01*
X26942583Y19078429D01*
X26990962Y18960571D01*
X27039677Y18839068D01*
X27085877Y18721029D01*
X27126709Y18613564D01*
X27159324Y18523781D01*
X27180871Y18458791D01*
X27188500Y18425957D01*
X27184707Y18407719D01*
X27171960Y18378941D01*
X27148214Y18336468D01*
X27111421Y18277144D01*
X27059534Y18197813D01*
X26990505Y18095319D01*
X26902287Y17966507D01*
X26792834Y17808220D01*
X26716381Y17698166D01*
X26654039Y17606901D01*
X26600510Y17525456D01*
X26560576Y17461338D01*
X26539018Y17422054D01*
X26536896Y17416414D01*
X26542836Y17395137D01*
X26569096Y17356616D01*
X26617665Y17298623D01*
X26690531Y17218925D01*
X26789685Y17115294D01*
X26917116Y16985500D01*
X26958152Y16944147D01*
X27085998Y16816094D01*
X27187898Y16715498D01*
X27267284Y16639340D01*
X27327594Y16584602D01*
X27372261Y16548266D01*
X27404723Y16527313D01*
X27428413Y16518725D01*
X27442500Y16518584D01*
X27473858Y16532593D01*
X27534517Y16567653D01*
X27619193Y16620409D01*
X27722598Y16687502D01*
X27839449Y16765576D01*
X27944422Y16837392D01*
X28067889Y16921599D01*
X28181844Y16997130D01*
X28281130Y17060738D01*
X28360586Y17109180D01*
X28415053Y17139209D01*
X28437931Y17147833D01*
X28474631Y17137944D01*
X28537795Y17111296D01*
X28617294Y17072420D01*
X28673333Y17042519D01*
X28756762Y16997687D01*
X28828884Y16961121D01*
X28880131Y16937551D01*
X28897982Y16931394D01*
X28907927Y16932671D01*
X28919616Y16941848D01*
X28934453Y16962016D01*
X28953846Y16996266D01*
X28979199Y17047690D01*
X29011918Y17119379D01*
X29053409Y17214423D01*
X29105079Y17335913D01*
X29168332Y17486942D01*
X29244574Y17670599D01*
X29335212Y17889976D01*
X29347770Y17920416D01*
X29410676Y18072797D01*
X29478768Y18237520D01*
X29546618Y18401466D01*
X29608796Y18551517D01*
X29656535Y18666523D01*
X29700782Y18776083D01*
X29737495Y18872990D01*
X29764174Y18950140D01*
X29778318Y19000431D01*
X29779457Y19015773D01*
X29756665Y19039896D01*
X29708099Y19077010D01*
X29648587Y19116333D01*
X29578825Y19165514D01*
X29494332Y19233822D01*
X29409335Y19309508D01*
X29376612Y19340961D01*
X29225254Y19519331D01*
X29110398Y19717875D01*
X29033228Y19933427D01*
X28994928Y20162821D01*
X28993722Y20364844D01*
X29028866Y20593125D01*
X29101791Y20807233D01*
X29209234Y21003367D01*
X29347933Y21177727D01*
X29514625Y21326513D01*
X29706048Y21445923D01*
X29918938Y21532157D01*
X30018429Y21558578D01*
X30244981Y21589601D01*
X30464853Y21581851D01*
X30674943Y21538483D01*
X30872153Y21462649D01*
X31053382Y21357502D01*
X31215528Y21226195D01*
X31355493Y21071880D01*
X31470176Y20897709D01*
X31556476Y20706837D01*
X31611293Y20502416D01*
X31631527Y20287598D01*
X31614078Y20065537D01*
X31591742Y19958629D01*
X31552079Y19823114D01*
X31503474Y19705630D01*
X31438013Y19589442D01*
X31368595Y19486750D01*
X31303138Y19400686D01*
X31235972Y19327105D01*
X31157350Y19257000D01*
X31057526Y19181364D01*
X30978380Y19126147D01*
X30918813Y19085913D01*
X30876676Y19053967D01*
X30851607Y19023229D01*
X30843246Y18986621D01*
X30851231Y18937063D01*
X30875199Y18867475D01*
X30914790Y18770780D01*
X30955310Y18674317D01*
X30998041Y18571855D01*
X31051779Y18442677D01*
X31113860Y18293217D01*
X31181616Y18129912D01*
X31252384Y17959197D01*
X31323497Y17787509D01*
X31392290Y17621284D01*
X31456097Y17466956D01*
X31512253Y17330963D01*
X31558093Y17219740D01*
X31590950Y17139723D01*
X31596286Y17126666D01*
X31629261Y17048740D01*
X31658589Y16984499D01*
X31678965Y16945438D01*
X31681895Y16941138D01*
X31699941Y16933743D01*
X31735674Y16941314D01*
X31794597Y16965901D01*
X31882209Y17009554D01*
X31923278Y17031096D01*
X32013350Y17077158D01*
X32092454Y17114651D01*
X32151677Y17139539D01*
X32181110Y17147833D01*
X32197910Y17143742D01*
X32226508Y17130169D01*
X32269892Y17105167D01*
X32331052Y17066789D01*
X32412977Y17013088D01*
X32518656Y16942114D01*
X32651079Y16851922D01*
X32813235Y16740564D01*
X32933409Y16657693D01*
X33018256Y16601169D01*
X33093271Y16554965D01*
X33150215Y16523911D01*
X33180525Y16512833D01*
X33204605Y16527258D01*
X33254334Y16568025D01*
X33325597Y16631372D01*
X33414277Y16713540D01*
X33516261Y16810766D01*
X33627431Y16919291D01*
X33653325Y16944916D01*
X33764521Y17055923D01*
X33865238Y17157786D01*
X33951709Y17246588D01*
X34020167Y17318416D01*
X34066847Y17369353D01*
X34087981Y17395485D01*
X34088834Y17397624D01*
X34077637Y17424627D01*
X34048410Y17474797D01*
X34011186Y17531750D01*
X33975175Y17584305D01*
X33920259Y17664350D01*
X33851513Y17764488D01*
X33774015Y17877324D01*
X33692843Y17995462D01*
X33680457Y18013484D01*
X33604839Y18125567D01*
X33538260Y18228194D01*
X33484305Y18315509D01*
X33446562Y18381657D01*
X33428618Y18420781D01*
X33427630Y18426234D01*
X33435350Y18457995D01*
X33456865Y18522797D01*
X33489930Y18614503D01*
X33532299Y18726978D01*
X33581728Y18854086D01*
X33612019Y18930278D01*
X33679302Y19095403D01*
X33733775Y19222729D01*
X33776481Y19314458D01*
X33808460Y19372795D01*
X33830755Y19399943D01*
X33835021Y19402142D01*
X33865612Y19409233D01*
X33931917Y19422900D01*
X34028032Y19441983D01*
X34148049Y19465321D01*
X34286064Y19491756D01*
X34429578Y19518890D01*
X34577959Y19547291D01*
X34712730Y19574083D01*
X34828262Y19598066D01*
X34918925Y19618040D01*
X34979089Y19632806D01*
X35003039Y19641072D01*
X35007328Y19665967D01*
X35010873Y19727817D01*
X35013575Y19821247D01*
X35015333Y19940883D01*
X35016047Y20081353D01*
X35015618Y20237281D01*
X35015196Y20292462D01*
X35009584Y20926083D01*
X34406334Y21039073D01*
X34251104Y21068812D01*
X34108942Y21097316D01*
X33985322Y21123387D01*
X33885719Y21145827D01*
X33815609Y21163435D01*
X33780464Y21175015D01*
X33777946Y21176656D01*
X33761454Y21203960D01*
X33732157Y21263398D01*
X33693074Y21347922D01*
X33647224Y21450483D01*
X33597624Y21564034D01*
X33547294Y21681524D01*
X33499252Y21795905D01*
X33456517Y21900129D01*
X33422108Y21987146D01*
X33399043Y22049909D01*
X33390341Y22081369D01*
X33390334Y22081749D01*
X33401942Y22107676D01*
X33434752Y22163619D01*
X33485746Y22244878D01*
X33551904Y22346752D01*
X33630206Y22464538D01*
X33717633Y22593536D01*
X33739584Y22625562D01*
X33828523Y22755629D01*
X33909112Y22874607D01*
X33978355Y22977983D01*
X34033257Y23061246D01*
X34070821Y23119882D01*
X34088053Y23149379D01*
X34088834Y23151699D01*
X34074298Y23172335D01*
X34033750Y23217679D01*
X33971782Y23283189D01*
X33892983Y23364322D01*
X33801943Y23456536D01*
X33703254Y23555286D01*
X33601506Y23656032D01*
X33501289Y23754229D01*
X33407193Y23845335D01*
X33323810Y23924808D01*
X33255729Y23988105D01*
X33207541Y24030683D01*
X33183836Y24047999D01*
X33182951Y24048167D01*
X33158985Y24036589D01*
X33104877Y24003861D01*
X33025246Y23952991D01*
X32924713Y23886985D01*
X32807900Y23808851D01*
X32679427Y23721596D01*
X32646330Y23698917D01*
X32514725Y23609633D01*
X32392591Y23528779D01*
X32284745Y23459388D01*
X32196005Y23404490D01*
X32131189Y23367119D01*
X32095115Y23350307D01*
X32091382Y23349667D01*
X32053785Y23357562D01*
X31987356Y23378961D01*
X31902059Y23410428D01*
X31823481Y23441978D01*
X31706812Y23490401D01*
X31578537Y23543404D01*
X31458816Y23592667D01*
X31407276Y23613780D01*
X31323061Y23650998D01*
X31254286Y23686631D01*
X31210216Y23715596D01*
X31199413Y23727843D01*
X31192181Y23756922D01*
X31178348Y23822033D01*
X31159027Y23917586D01*
X31135327Y24037988D01*
X31108360Y24177647D01*
X31079238Y24330971D01*
X31073189Y24363124D01*
X31037501Y24548458D01*
X31005648Y24704456D01*
X30978242Y24828432D01*
X30955898Y24917700D01*
X30939228Y24969576D01*
X30931802Y24981925D01*
X30903957Y24986595D01*
X30839413Y24990840D01*
X30743805Y24994497D01*
X30622767Y24997403D01*
X30481932Y24999393D01*
X30326934Y25000305D01*
X30297301Y25000342D01*
X30109404Y24999981D01*
G04 #@! TO.C,F1*
D18*
X3911666Y21545358D02*
X4123333Y21545358D01*
X4123333Y21212739D02*
X4123333Y21847739D01*
X3820952Y21847739D01*
X3246428Y21212739D02*
X3609285Y21212739D01*
X3427857Y21212739D02*
X3427857Y21847739D01*
X3488333Y21757024D01*
X3548809Y21696548D01*
X3609285Y21666310D01*
G04 #@! TO.C,U4*
X34248561Y27190010D02*
X34762609Y27190010D01*
X34823085Y27159772D01*
X34853323Y27129534D01*
X34883561Y27069058D01*
X34883561Y26948105D01*
X34853323Y26887629D01*
X34823085Y26857391D01*
X34762609Y26827153D01*
X34248561Y26827153D01*
X34460228Y26252629D02*
X34883561Y26252629D01*
X34218323Y26403820D02*
X34671895Y26555010D01*
X34671895Y26161915D01*
G04 #@! TO.C,C14*
X8576785Y30808215D02*
X8607023Y30838453D01*
X8637261Y30929167D01*
X8637261Y30989643D01*
X8607023Y31080358D01*
X8546547Y31140834D01*
X8486071Y31171072D01*
X8365119Y31201310D01*
X8274404Y31201310D01*
X8153452Y31171072D01*
X8092976Y31140834D01*
X8032500Y31080358D01*
X8002261Y30989643D01*
X8002261Y30929167D01*
X8032500Y30838453D01*
X8062738Y30808215D01*
X8637261Y30203453D02*
X8637261Y30566310D01*
X8637261Y30384881D02*
X8002261Y30384881D01*
X8092976Y30445358D01*
X8153452Y30505834D01*
X8183690Y30566310D01*
X8213928Y29659167D02*
X8637261Y29659167D01*
X7972023Y29810358D02*
X8425595Y29961548D01*
X8425595Y29568453D01*
G04 #@! TO.C,C20*
X33408214Y24423215D02*
X33438452Y24392977D01*
X33529166Y24362739D01*
X33589642Y24362739D01*
X33680357Y24392977D01*
X33740833Y24453453D01*
X33771071Y24513929D01*
X33801309Y24634881D01*
X33801309Y24725596D01*
X33771071Y24846548D01*
X33740833Y24907024D01*
X33680357Y24967500D01*
X33589642Y24997739D01*
X33529166Y24997739D01*
X33438452Y24967500D01*
X33408214Y24937262D01*
X33166309Y24937262D02*
X33136071Y24967500D01*
X33075595Y24997739D01*
X32924404Y24997739D01*
X32863928Y24967500D01*
X32833690Y24937262D01*
X32803452Y24876786D01*
X32803452Y24816310D01*
X32833690Y24725596D01*
X33196547Y24362739D01*
X32803452Y24362739D01*
X32410357Y24997739D02*
X32349880Y24997739D01*
X32289404Y24967500D01*
X32259166Y24937262D01*
X32228928Y24876786D01*
X32198690Y24755834D01*
X32198690Y24604643D01*
X32228928Y24483691D01*
X32259166Y24423215D01*
X32289404Y24392977D01*
X32349880Y24362739D01*
X32410357Y24362739D01*
X32470833Y24392977D01*
X32501071Y24423215D01*
X32531309Y24483691D01*
X32561547Y24604643D01*
X32561547Y24755834D01*
X32531309Y24876786D01*
X32501071Y24937262D01*
X32470833Y24967500D01*
X32410357Y24997739D01*
G04 #@! TO.C,C21*
X28025985Y9058715D02*
X28056223Y9088953D01*
X28086461Y9179667D01*
X28086461Y9240143D01*
X28056223Y9330858D01*
X27995747Y9391334D01*
X27935271Y9421572D01*
X27814319Y9451810D01*
X27723604Y9451810D01*
X27602652Y9421572D01*
X27542176Y9391334D01*
X27481700Y9330858D01*
X27451461Y9240143D01*
X27451461Y9179667D01*
X27481700Y9088953D01*
X27511938Y9058715D01*
X27511938Y8816810D02*
X27481700Y8786572D01*
X27451461Y8726096D01*
X27451461Y8574905D01*
X27481700Y8514429D01*
X27511938Y8484191D01*
X27572414Y8453953D01*
X27632890Y8453953D01*
X27723604Y8484191D01*
X28086461Y8847048D01*
X28086461Y8453953D01*
X28086461Y7849191D02*
X28086461Y8212048D01*
X28086461Y8030620D02*
X27451461Y8030620D01*
X27542176Y8091096D01*
X27602652Y8151572D01*
X27632890Y8212048D01*
G04 #@! TO.C,C22*
X33408214Y31048215D02*
X33438452Y31017977D01*
X33529166Y30987739D01*
X33589642Y30987739D01*
X33680357Y31017977D01*
X33740833Y31078453D01*
X33771071Y31138929D01*
X33801309Y31259881D01*
X33801309Y31350596D01*
X33771071Y31471548D01*
X33740833Y31532024D01*
X33680357Y31592500D01*
X33589642Y31622739D01*
X33529166Y31622739D01*
X33438452Y31592500D01*
X33408214Y31562262D01*
X33166309Y31562262D02*
X33136071Y31592500D01*
X33075595Y31622739D01*
X32924404Y31622739D01*
X32863928Y31592500D01*
X32833690Y31562262D01*
X32803452Y31501786D01*
X32803452Y31441310D01*
X32833690Y31350596D01*
X33196547Y30987739D01*
X32803452Y30987739D01*
X32561547Y31562262D02*
X32531309Y31592500D01*
X32470833Y31622739D01*
X32319642Y31622739D01*
X32259166Y31592500D01*
X32228928Y31562262D01*
X32198690Y31501786D01*
X32198690Y31441310D01*
X32228928Y31350596D01*
X32591785Y30987739D01*
X32198690Y30987739D01*
G04 #@! TO.C,C23*
X8126785Y45883215D02*
X8157023Y45913453D01*
X8187261Y46004167D01*
X8187261Y46064643D01*
X8157023Y46155358D01*
X8096547Y46215834D01*
X8036071Y46246072D01*
X7915119Y46276310D01*
X7824404Y46276310D01*
X7703452Y46246072D01*
X7642976Y46215834D01*
X7582500Y46155358D01*
X7552261Y46064643D01*
X7552261Y46004167D01*
X7582500Y45913453D01*
X7612738Y45883215D01*
X7612738Y45641310D02*
X7582500Y45611072D01*
X7552261Y45550596D01*
X7552261Y45399405D01*
X7582500Y45338929D01*
X7612738Y45308691D01*
X7673214Y45278453D01*
X7733690Y45278453D01*
X7824404Y45308691D01*
X8187261Y45671548D01*
X8187261Y45278453D01*
X7552261Y45066786D02*
X7552261Y44673691D01*
X7794166Y44885358D01*
X7794166Y44794643D01*
X7824404Y44734167D01*
X7854642Y44703929D01*
X7915119Y44673691D01*
X8066309Y44673691D01*
X8126785Y44703929D01*
X8157023Y44734167D01*
X8187261Y44794643D01*
X8187261Y44976072D01*
X8157023Y45036548D01*
X8126785Y45066786D01*
G04 #@! TO.C,C24*
X8076785Y43408215D02*
X8107023Y43438453D01*
X8137261Y43529167D01*
X8137261Y43589643D01*
X8107023Y43680358D01*
X8046547Y43740834D01*
X7986071Y43771072D01*
X7865119Y43801310D01*
X7774404Y43801310D01*
X7653452Y43771072D01*
X7592976Y43740834D01*
X7532500Y43680358D01*
X7502261Y43589643D01*
X7502261Y43529167D01*
X7532500Y43438453D01*
X7562738Y43408215D01*
X7562738Y43166310D02*
X7532500Y43136072D01*
X7502261Y43075596D01*
X7502261Y42924405D01*
X7532500Y42863929D01*
X7562738Y42833691D01*
X7623214Y42803453D01*
X7683690Y42803453D01*
X7774404Y42833691D01*
X8137261Y43196548D01*
X8137261Y42803453D01*
X7713928Y42259167D02*
X8137261Y42259167D01*
X7472023Y42410358D02*
X7925595Y42561548D01*
X7925595Y42168453D01*
G04 #@! TO.C,C25*
X8026785Y41008215D02*
X8057023Y41038453D01*
X8087261Y41129167D01*
X8087261Y41189643D01*
X8057023Y41280358D01*
X7996547Y41340834D01*
X7936071Y41371072D01*
X7815119Y41401310D01*
X7724404Y41401310D01*
X7603452Y41371072D01*
X7542976Y41340834D01*
X7482500Y41280358D01*
X7452261Y41189643D01*
X7452261Y41129167D01*
X7482500Y41038453D01*
X7512738Y41008215D01*
X7512738Y40766310D02*
X7482500Y40736072D01*
X7452261Y40675596D01*
X7452261Y40524405D01*
X7482500Y40463929D01*
X7512738Y40433691D01*
X7573214Y40403453D01*
X7633690Y40403453D01*
X7724404Y40433691D01*
X8087261Y40796548D01*
X8087261Y40403453D01*
X7452261Y39828929D02*
X7452261Y40131310D01*
X7754642Y40161548D01*
X7724404Y40131310D01*
X7694166Y40070834D01*
X7694166Y39919643D01*
X7724404Y39859167D01*
X7754642Y39828929D01*
X7815119Y39798691D01*
X7966309Y39798691D01*
X8026785Y39828929D01*
X8057023Y39859167D01*
X8087261Y39919643D01*
X8087261Y40070834D01*
X8057023Y40131310D01*
X8026785Y40161548D01*
G04 #@! TO.C,C26*
X8001785Y38254215D02*
X8032023Y38284453D01*
X8062261Y38375167D01*
X8062261Y38435643D01*
X8032023Y38526358D01*
X7971547Y38586834D01*
X7911071Y38617072D01*
X7790119Y38647310D01*
X7699404Y38647310D01*
X7578452Y38617072D01*
X7517976Y38586834D01*
X7457500Y38526358D01*
X7427261Y38435643D01*
X7427261Y38375167D01*
X7457500Y38284453D01*
X7487738Y38254215D01*
X7487738Y38012310D02*
X7457500Y37982072D01*
X7427261Y37921596D01*
X7427261Y37770405D01*
X7457500Y37709929D01*
X7487738Y37679691D01*
X7548214Y37649453D01*
X7608690Y37649453D01*
X7699404Y37679691D01*
X8062261Y38042548D01*
X8062261Y37649453D01*
X7427261Y37105167D02*
X7427261Y37226120D01*
X7457500Y37286596D01*
X7487738Y37316834D01*
X7578452Y37377310D01*
X7699404Y37407548D01*
X7941309Y37407548D01*
X8001785Y37377310D01*
X8032023Y37347072D01*
X8062261Y37286596D01*
X8062261Y37165643D01*
X8032023Y37105167D01*
X8001785Y37074929D01*
X7941309Y37044691D01*
X7790119Y37044691D01*
X7729642Y37074929D01*
X7699404Y37105167D01*
X7669166Y37165643D01*
X7669166Y37286596D01*
X7699404Y37347072D01*
X7729642Y37377310D01*
X7790119Y37407548D01*
G04 #@! TO.C,R19*
X24958214Y44512739D02*
X25169880Y44815120D01*
X25321071Y44512739D02*
X25321071Y45147739D01*
X25079166Y45147739D01*
X25018690Y45117500D01*
X24988452Y45087262D01*
X24958214Y45026786D01*
X24958214Y44936072D01*
X24988452Y44875596D01*
X25018690Y44845358D01*
X25079166Y44815120D01*
X25321071Y44815120D01*
X24353452Y44512739D02*
X24716309Y44512739D01*
X24534880Y44512739D02*
X24534880Y45147739D01*
X24595357Y45057024D01*
X24655833Y44996548D01*
X24716309Y44966310D01*
X24051071Y44512739D02*
X23930119Y44512739D01*
X23869642Y44542977D01*
X23839404Y44573215D01*
X23778928Y44663929D01*
X23748690Y44784881D01*
X23748690Y45026786D01*
X23778928Y45087262D01*
X23809166Y45117500D01*
X23869642Y45147739D01*
X23990595Y45147739D01*
X24051071Y45117500D01*
X24081309Y45087262D01*
X24111547Y45026786D01*
X24111547Y44875596D01*
X24081309Y44815120D01*
X24051071Y44784881D01*
X23990595Y44754643D01*
X23869642Y44754643D01*
X23809166Y44784881D01*
X23778928Y44815120D01*
X23748690Y44875596D01*
G04 #@! TO.C,R20*
X25000514Y43574639D02*
X25212180Y43877020D01*
X25363371Y43574639D02*
X25363371Y44209639D01*
X25121466Y44209639D01*
X25060990Y44179400D01*
X25030752Y44149162D01*
X25000514Y44088686D01*
X25000514Y43997972D01*
X25030752Y43937496D01*
X25060990Y43907258D01*
X25121466Y43877020D01*
X25363371Y43877020D01*
X24758609Y44149162D02*
X24728371Y44179400D01*
X24667895Y44209639D01*
X24516704Y44209639D01*
X24456228Y44179400D01*
X24425990Y44149162D01*
X24395752Y44088686D01*
X24395752Y44028210D01*
X24425990Y43937496D01*
X24788847Y43574639D01*
X24395752Y43574639D01*
X24002657Y44209639D02*
X23942180Y44209639D01*
X23881704Y44179400D01*
X23851466Y44149162D01*
X23821228Y44088686D01*
X23790990Y43967734D01*
X23790990Y43816543D01*
X23821228Y43695591D01*
X23851466Y43635115D01*
X23881704Y43604877D01*
X23942180Y43574639D01*
X24002657Y43574639D01*
X24063133Y43604877D01*
X24093371Y43635115D01*
X24123609Y43695591D01*
X24153847Y43816543D01*
X24153847Y43967734D01*
X24123609Y44088686D01*
X24093371Y44149162D01*
X24063133Y44179400D01*
X24002657Y44209639D01*
G04 #@! TO.C,R23*
X10462261Y28683215D02*
X10159880Y28894881D01*
X10462261Y29046072D02*
X9827261Y29046072D01*
X9827261Y28804167D01*
X9857500Y28743691D01*
X9887738Y28713453D01*
X9948214Y28683215D01*
X10038928Y28683215D01*
X10099404Y28713453D01*
X10129642Y28743691D01*
X10159880Y28804167D01*
X10159880Y29046072D01*
X9887738Y28441310D02*
X9857500Y28411072D01*
X9827261Y28350596D01*
X9827261Y28199405D01*
X9857500Y28138929D01*
X9887738Y28108691D01*
X9948214Y28078453D01*
X10008690Y28078453D01*
X10099404Y28108691D01*
X10462261Y28471548D01*
X10462261Y28078453D01*
X9827261Y27866786D02*
X9827261Y27473691D01*
X10069166Y27685358D01*
X10069166Y27594643D01*
X10099404Y27534167D01*
X10129642Y27503929D01*
X10190119Y27473691D01*
X10341309Y27473691D01*
X10401785Y27503929D01*
X10432023Y27534167D01*
X10462261Y27594643D01*
X10462261Y27776072D01*
X10432023Y27836548D01*
X10401785Y27866786D01*
G04 #@! TO.C,IC1*
D11*
X23926190Y35547620D02*
X23926190Y36547620D01*
X22878571Y35642858D02*
X22926190Y35595239D01*
X23069047Y35547620D01*
X23164285Y35547620D01*
X23307142Y35595239D01*
X23402380Y35690477D01*
X23450000Y35785715D01*
X23497619Y35976191D01*
X23497619Y36119048D01*
X23450000Y36309524D01*
X23402380Y36404762D01*
X23307142Y36500000D01*
X23164285Y36547620D01*
X23069047Y36547620D01*
X22926190Y36500000D01*
X22878571Y36452381D01*
X21926190Y35547620D02*
X22497619Y35547620D01*
X22211904Y35547620D02*
X22211904Y36547620D01*
X22307142Y36404762D01*
X22402380Y36309524D01*
X22497619Y36261905D01*
G04 #@! TO.C,Y1*
D18*
X17927380Y18665120D02*
X17927380Y18362739D01*
X18139047Y18997739D02*
X17927380Y18665120D01*
X17715714Y18997739D01*
X17171428Y18362739D02*
X17534285Y18362739D01*
X17352857Y18362739D02*
X17352857Y18997739D01*
X17413333Y18907024D01*
X17473809Y18846548D01*
X17534285Y18816310D01*
G04 #@! TO.C,Y2*
X10602380Y19115120D02*
X10602380Y18812739D01*
X10814047Y19447739D02*
X10602380Y19115120D01*
X10390714Y19447739D01*
X10209285Y19387262D02*
X10179047Y19417500D01*
X10118571Y19447739D01*
X9967380Y19447739D01*
X9906904Y19417500D01*
X9876666Y19387262D01*
X9846428Y19326786D01*
X9846428Y19266310D01*
X9876666Y19175596D01*
X10239523Y18812739D01*
X9846428Y18812739D01*
G04 #@! TO.C,C34*
X30858214Y13573215D02*
X30888452Y13542977D01*
X30979166Y13512739D01*
X31039642Y13512739D01*
X31130357Y13542977D01*
X31190833Y13603453D01*
X31221071Y13663929D01*
X31251309Y13784881D01*
X31251309Y13875596D01*
X31221071Y13996548D01*
X31190833Y14057024D01*
X31130357Y14117500D01*
X31039642Y14147739D01*
X30979166Y14147739D01*
X30888452Y14117500D01*
X30858214Y14087262D01*
X30646547Y14147739D02*
X30253452Y14147739D01*
X30465119Y13905834D01*
X30374404Y13905834D01*
X30313928Y13875596D01*
X30283690Y13845358D01*
X30253452Y13784881D01*
X30253452Y13633691D01*
X30283690Y13573215D01*
X30313928Y13542977D01*
X30374404Y13512739D01*
X30555833Y13512739D01*
X30616309Y13542977D01*
X30646547Y13573215D01*
X29709166Y13936072D02*
X29709166Y13512739D01*
X29860357Y14177977D02*
X30011547Y13724405D01*
X29618452Y13724405D01*
G04 #@! TO.C,D4*
X16968690Y13462739D02*
X16968690Y14097739D01*
X16817500Y14097739D01*
X16726785Y14067500D01*
X16666309Y14007024D01*
X16636071Y13946548D01*
X16605833Y13825596D01*
X16605833Y13734881D01*
X16636071Y13613929D01*
X16666309Y13553453D01*
X16726785Y13492977D01*
X16817500Y13462739D01*
X16968690Y13462739D01*
X16061547Y13886072D02*
X16061547Y13462739D01*
X16212738Y14127977D02*
X16363928Y13674405D01*
X15970833Y13674405D01*
G04 #@! TO.C,D5*
X25337261Y13268691D02*
X24702261Y13268691D01*
X24702261Y13117500D01*
X24732500Y13026786D01*
X24792976Y12966310D01*
X24853452Y12936072D01*
X24974404Y12905834D01*
X25065119Y12905834D01*
X25186071Y12936072D01*
X25246547Y12966310D01*
X25307023Y13026786D01*
X25337261Y13117500D01*
X25337261Y13268691D01*
X24702261Y12331310D02*
X24702261Y12633691D01*
X25004642Y12663929D01*
X24974404Y12633691D01*
X24944166Y12573215D01*
X24944166Y12422024D01*
X24974404Y12361548D01*
X25004642Y12331310D01*
X25065119Y12301072D01*
X25216309Y12301072D01*
X25276785Y12331310D01*
X25307023Y12361548D01*
X25337261Y12422024D01*
X25337261Y12573215D01*
X25307023Y12633691D01*
X25276785Y12663929D01*
G04 #@! TO.C,R34*
X23537261Y4908215D02*
X23234880Y5119881D01*
X23537261Y5271072D02*
X22902261Y5271072D01*
X22902261Y5029167D01*
X22932500Y4968691D01*
X22962738Y4938453D01*
X23023214Y4908215D01*
X23113928Y4908215D01*
X23174404Y4938453D01*
X23204642Y4968691D01*
X23234880Y5029167D01*
X23234880Y5271072D01*
X22902261Y4696548D02*
X22902261Y4303453D01*
X23144166Y4515120D01*
X23144166Y4424405D01*
X23174404Y4363929D01*
X23204642Y4333691D01*
X23265119Y4303453D01*
X23416309Y4303453D01*
X23476785Y4333691D01*
X23507023Y4363929D01*
X23537261Y4424405D01*
X23537261Y4605834D01*
X23507023Y4666310D01*
X23476785Y4696548D01*
X23113928Y3759167D02*
X23537261Y3759167D01*
X22872023Y3910358D02*
X23325595Y4061548D01*
X23325595Y3668453D01*
G04 #@! TO.C,R35*
X25537261Y3008215D02*
X25234880Y3219881D01*
X25537261Y3371072D02*
X24902261Y3371072D01*
X24902261Y3129167D01*
X24932500Y3068691D01*
X24962738Y3038453D01*
X25023214Y3008215D01*
X25113928Y3008215D01*
X25174404Y3038453D01*
X25204642Y3068691D01*
X25234880Y3129167D01*
X25234880Y3371072D01*
X24902261Y2796548D02*
X24902261Y2403453D01*
X25144166Y2615120D01*
X25144166Y2524405D01*
X25174404Y2463929D01*
X25204642Y2433691D01*
X25265119Y2403453D01*
X25416309Y2403453D01*
X25476785Y2433691D01*
X25507023Y2463929D01*
X25537261Y2524405D01*
X25537261Y2705834D01*
X25507023Y2766310D01*
X25476785Y2796548D01*
X24902261Y1828929D02*
X24902261Y2131310D01*
X25204642Y2161548D01*
X25174404Y2131310D01*
X25144166Y2070834D01*
X25144166Y1919643D01*
X25174404Y1859167D01*
X25204642Y1828929D01*
X25265119Y1798691D01*
X25416309Y1798691D01*
X25476785Y1828929D01*
X25507023Y1859167D01*
X25537261Y1919643D01*
X25537261Y2070834D01*
X25507023Y2131310D01*
X25476785Y2161548D01*
G04 #@! TO.C,R36*
X21487261Y2958215D02*
X21184880Y3169881D01*
X21487261Y3321072D02*
X20852261Y3321072D01*
X20852261Y3079167D01*
X20882500Y3018691D01*
X20912738Y2988453D01*
X20973214Y2958215D01*
X21063928Y2958215D01*
X21124404Y2988453D01*
X21154642Y3018691D01*
X21184880Y3079167D01*
X21184880Y3321072D01*
X20852261Y2746548D02*
X20852261Y2353453D01*
X21094166Y2565120D01*
X21094166Y2474405D01*
X21124404Y2413929D01*
X21154642Y2383691D01*
X21215119Y2353453D01*
X21366309Y2353453D01*
X21426785Y2383691D01*
X21457023Y2413929D01*
X21487261Y2474405D01*
X21487261Y2655834D01*
X21457023Y2716310D01*
X21426785Y2746548D01*
X20852261Y1809167D02*
X20852261Y1930120D01*
X20882500Y1990596D01*
X20912738Y2020834D01*
X21003452Y2081310D01*
X21124404Y2111548D01*
X21366309Y2111548D01*
X21426785Y2081310D01*
X21457023Y2051072D01*
X21487261Y1990596D01*
X21487261Y1869643D01*
X21457023Y1809167D01*
X21426785Y1778929D01*
X21366309Y1748691D01*
X21215119Y1748691D01*
X21154642Y1778929D01*
X21124404Y1809167D01*
X21094166Y1869643D01*
X21094166Y1990596D01*
X21124404Y2051072D01*
X21154642Y2081310D01*
X21215119Y2111548D01*
G04 #@! TO.C,U1*
X31833809Y8147739D02*
X31833809Y7633691D01*
X31803571Y7573215D01*
X31773333Y7542977D01*
X31712857Y7512739D01*
X31591904Y7512739D01*
X31531428Y7542977D01*
X31501190Y7573215D01*
X31470952Y7633691D01*
X31470952Y8147739D01*
X30835952Y7512739D02*
X31198809Y7512739D01*
X31017380Y7512739D02*
X31017380Y8147739D01*
X31077857Y8057024D01*
X31138333Y7996548D01*
X31198809Y7966310D01*
G04 #@! TO.C,IC2*
X9294880Y25062739D02*
X9294880Y25697739D01*
X8629642Y25123215D02*
X8659880Y25092977D01*
X8750595Y25062739D01*
X8811071Y25062739D01*
X8901785Y25092977D01*
X8962261Y25153453D01*
X8992500Y25213929D01*
X9022738Y25334881D01*
X9022738Y25425596D01*
X8992500Y25546548D01*
X8962261Y25607024D01*
X8901785Y25667500D01*
X8811071Y25697739D01*
X8750595Y25697739D01*
X8659880Y25667500D01*
X8629642Y25637262D01*
X8387738Y25637262D02*
X8357500Y25667500D01*
X8297023Y25697739D01*
X8145833Y25697739D01*
X8085357Y25667500D01*
X8055119Y25637262D01*
X8024880Y25576786D01*
X8024880Y25516310D01*
X8055119Y25425596D01*
X8417976Y25062739D01*
X8024880Y25062739D01*
G04 #@! TO.C,MIC2*
D11*
X3882738Y51262739D02*
X3882738Y51897739D01*
X3671071Y51444167D01*
X3459404Y51897739D01*
X3459404Y51262739D01*
X3157023Y51262739D02*
X3157023Y51897739D01*
X2491785Y51323215D02*
X2522023Y51292977D01*
X2612738Y51262739D01*
X2673214Y51262739D01*
X2763928Y51292977D01*
X2824404Y51353453D01*
X2854642Y51413929D01*
X2884880Y51534881D01*
X2884880Y51625596D01*
X2854642Y51746548D01*
X2824404Y51807024D01*
X2763928Y51867500D01*
X2673214Y51897739D01*
X2612738Y51897739D01*
X2522023Y51867500D01*
X2491785Y51837262D01*
X2249880Y51837262D02*
X2219642Y51867500D01*
X2159166Y51897739D01*
X2007976Y51897739D01*
X1947500Y51867500D01*
X1917261Y51837262D01*
X1887023Y51776786D01*
X1887023Y51716310D01*
X1917261Y51625596D01*
X2280119Y51262739D01*
X1887023Y51262739D01*
G04 #@! TO.C,BT1*
X19728571Y11335715D02*
X19776190Y11192858D01*
X19823809Y11145239D01*
X19919047Y11097620D01*
X20061904Y11097620D01*
X20157142Y11145239D01*
X20204761Y11192858D01*
X20252380Y11288096D01*
X20252380Y11669048D01*
X19252380Y11669048D01*
X19252380Y11335715D01*
X19300000Y11240477D01*
X19347619Y11192858D01*
X19442857Y11145239D01*
X19538095Y11145239D01*
X19633333Y11192858D01*
X19680952Y11240477D01*
X19728571Y11335715D01*
X19728571Y11669048D01*
X19252380Y10811905D02*
X19252380Y10240477D01*
X20252380Y10526191D02*
X19252380Y10526191D01*
X20252380Y9383334D02*
X20252380Y9954762D01*
X20252380Y9669048D02*
X19252380Y9669048D01*
X19395238Y9764286D01*
X19490476Y9859524D01*
X19538095Y9954762D01*
D10*
X21207142Y9342858D02*
X21207142Y8200000D01*
X21778571Y8771429D02*
X20635714Y8771429D01*
X21207142Y5200000D02*
X21207142Y4057143D01*
G04 #@! TO.C,MIC1*
D11*
X35982738Y51312739D02*
X35982738Y51947739D01*
X35771071Y51494167D01*
X35559404Y51947739D01*
X35559404Y51312739D01*
X35257023Y51312739D02*
X35257023Y51947739D01*
X34591785Y51373215D02*
X34622023Y51342977D01*
X34712738Y51312739D01*
X34773214Y51312739D01*
X34863928Y51342977D01*
X34924404Y51403453D01*
X34954642Y51463929D01*
X34984880Y51584881D01*
X34984880Y51675596D01*
X34954642Y51796548D01*
X34924404Y51857024D01*
X34863928Y51917500D01*
X34773214Y51947739D01*
X34712738Y51947739D01*
X34622023Y51917500D01*
X34591785Y51887262D01*
X33987023Y51312739D02*
X34349880Y51312739D01*
X34168452Y51312739D02*
X34168452Y51947739D01*
X34228928Y51857024D01*
X34289404Y51796548D01*
X34349880Y51766310D01*
G04 #@! TD*
M02*
