G04 #@! TF.GenerationSoftware,KiCad,Pcbnew,(5.0.1-3-g963ef8bb5)*
G04 #@! TF.CreationDate,2019-04-02T10:50:40-04:00*
G04 #@! TF.ProjectId,Tympan_D,54796D70616E5F442E6B696361645F70,rev?*
G04 #@! TF.SameCoordinates,PX6d878d0PY72e6100*
G04 #@! TF.FileFunction,Legend,Bot*
G04 #@! TF.FilePolarity,Positive*
%FSLAX46Y46*%
G04 Gerber Fmt 4.6, Leading zero omitted, Abs format (unit mm)*
G04 Created by KiCad (PCBNEW (5.0.1-3-g963ef8bb5)) date Tuesday, April 02, 2019 at 10:50:40 AM*
%MOMM*%
%LPD*%
G01*
G04 APERTURE LIST*
%ADD10C,0.150000*%
%ADD11C,0.200000*%
%ADD12C,0.175000*%
%ADD13C,0.250000*%
%ADD14C,0.177800*%
%ADD15C,0.120000*%
%ADD16C,0.100000*%
%ADD17C,0.010000*%
%ADD18C,0.127000*%
G04 APERTURE END LIST*
D10*
X9185714Y9585715D02*
X9223809Y9557143D01*
X9338095Y9528572D01*
X9414285Y9528572D01*
X9528571Y9557143D01*
X9604761Y9614286D01*
X9642857Y9671429D01*
X9680952Y9785715D01*
X9680952Y9871429D01*
X9642857Y9985715D01*
X9604761Y10042858D01*
X9528571Y10100000D01*
X9414285Y10128572D01*
X9338095Y10128572D01*
X9223809Y10100000D01*
X9185714Y10071429D01*
X8500000Y9928572D02*
X8500000Y9528572D01*
X8842857Y9928572D02*
X8842857Y9614286D01*
X8804761Y9557143D01*
X8728571Y9528572D01*
X8614285Y9528572D01*
X8538095Y9557143D01*
X8500000Y9585715D01*
X8233333Y9928572D02*
X7928571Y9928572D01*
X8119047Y10128572D02*
X8119047Y9614286D01*
X8080952Y9557143D01*
X8004761Y9528572D01*
X7928571Y9528572D01*
X7166666Y9928572D02*
X6861904Y9928572D01*
X7052380Y10128572D02*
X7052380Y9614286D01*
X7014285Y9557143D01*
X6938095Y9528572D01*
X6861904Y9528572D01*
X6595238Y9528572D02*
X6595238Y9928572D01*
X6595238Y9814286D02*
X6557142Y9871429D01*
X6519047Y9900000D01*
X6442857Y9928572D01*
X6366666Y9928572D01*
X5757142Y9528572D02*
X5757142Y9842858D01*
X5795238Y9900000D01*
X5871428Y9928572D01*
X6023809Y9928572D01*
X6100000Y9900000D01*
X5757142Y9557143D02*
X5833333Y9528572D01*
X6023809Y9528572D01*
X6100000Y9557143D01*
X6138095Y9614286D01*
X6138095Y9671429D01*
X6100000Y9728572D01*
X6023809Y9757143D01*
X5833333Y9757143D01*
X5757142Y9785715D01*
X5033333Y9557143D02*
X5109523Y9528572D01*
X5261904Y9528572D01*
X5338095Y9557143D01*
X5376190Y9585715D01*
X5414285Y9642858D01*
X5414285Y9814286D01*
X5376190Y9871429D01*
X5338095Y9900000D01*
X5261904Y9928572D01*
X5109523Y9928572D01*
X5033333Y9900000D01*
X4385714Y9557143D02*
X4461904Y9528572D01*
X4614285Y9528572D01*
X4690476Y9557143D01*
X4728571Y9614286D01*
X4728571Y9842858D01*
X4690476Y9900000D01*
X4614285Y9928572D01*
X4461904Y9928572D01*
X4385714Y9900000D01*
X4347619Y9842858D01*
X4347619Y9785715D01*
X4728571Y9728572D01*
X3395238Y9528572D02*
X3395238Y10128572D01*
X3395238Y9900000D02*
X3319047Y9928572D01*
X3166666Y9928572D01*
X3090476Y9900000D01*
X3052380Y9871429D01*
X3014285Y9814286D01*
X3014285Y9642858D01*
X3052380Y9585715D01*
X3090476Y9557143D01*
X3166666Y9528572D01*
X3319047Y9528572D01*
X3395238Y9557143D01*
X2785714Y9928572D02*
X2480952Y9928572D01*
X2671428Y10128572D02*
X2671428Y9614286D01*
X2633333Y9557143D01*
X2557142Y9528572D01*
X2480952Y9528572D01*
X2290476Y9928572D02*
X2138095Y9528572D01*
X1985714Y9814286D01*
X1833333Y9528572D01*
X1680952Y9928572D01*
X9452380Y9078572D02*
X9185714Y8478572D01*
X8919047Y9078572D01*
X8652380Y8478572D02*
X8652380Y9078572D01*
X8347619Y9078572D01*
X8271428Y9050000D01*
X8233333Y9021429D01*
X8195238Y8964286D01*
X8195238Y8878572D01*
X8233333Y8821429D01*
X8271428Y8792858D01*
X8347619Y8764286D01*
X8652380Y8764286D01*
X7852380Y8478572D02*
X7852380Y9078572D01*
X7547619Y9078572D01*
X7471428Y9050000D01*
X7433333Y9021429D01*
X7395238Y8964286D01*
X7395238Y8878572D01*
X7433333Y8821429D01*
X7471428Y8792858D01*
X7547619Y8764286D01*
X7852380Y8764286D01*
X6252380Y8278572D02*
X6252380Y9135715D01*
X5185714Y9078572D02*
X4919047Y8478572D01*
X4652380Y9078572D01*
X4576190Y8421429D02*
X3966666Y8421429D01*
X3509523Y8792858D02*
X3395238Y8764286D01*
X3357142Y8735715D01*
X3319047Y8678572D01*
X3319047Y8592858D01*
X3357142Y8535715D01*
X3395238Y8507143D01*
X3471428Y8478572D01*
X3776190Y8478572D01*
X3776190Y9078572D01*
X3509523Y9078572D01*
X3433333Y9050000D01*
X3395238Y9021429D01*
X3357142Y8964286D01*
X3357142Y8907143D01*
X3395238Y8850000D01*
X3433333Y8821429D01*
X3509523Y8792858D01*
X3776190Y8792858D01*
X3014285Y8650000D02*
X2633333Y8650000D01*
X3090476Y8478572D02*
X2823809Y9078572D01*
X2557142Y8478572D01*
X2404761Y9078572D02*
X1947619Y9078572D01*
X2176190Y8478572D02*
X2176190Y9078572D01*
X9985714Y7828572D02*
X9680952Y7828572D01*
X9871428Y8028572D02*
X9871428Y7514286D01*
X9833333Y7457143D01*
X9757142Y7428572D01*
X9680952Y7428572D01*
X9300000Y7428572D02*
X9376190Y7457143D01*
X9414285Y7485715D01*
X9452380Y7542858D01*
X9452380Y7714286D01*
X9414285Y7771429D01*
X9376190Y7800000D01*
X9300000Y7828572D01*
X9185714Y7828572D01*
X9109523Y7800000D01*
X9071428Y7771429D01*
X9033333Y7714286D01*
X9033333Y7542858D01*
X9071428Y7485715D01*
X9109523Y7457143D01*
X9185714Y7428572D01*
X9300000Y7428572D01*
X7738095Y7428572D02*
X7738095Y7742858D01*
X7776190Y7800000D01*
X7852380Y7828572D01*
X8004761Y7828572D01*
X8080952Y7800000D01*
X7738095Y7457143D02*
X7814285Y7428572D01*
X8004761Y7428572D01*
X8080952Y7457143D01*
X8119047Y7514286D01*
X8119047Y7571429D01*
X8080952Y7628572D01*
X8004761Y7657143D01*
X7814285Y7657143D01*
X7738095Y7685715D01*
X7471428Y7828572D02*
X7166666Y7828572D01*
X7357142Y8028572D02*
X7357142Y7514286D01*
X7319047Y7457143D01*
X7242857Y7428572D01*
X7166666Y7428572D01*
X7014285Y7828572D02*
X6709523Y7828572D01*
X6900000Y8028572D02*
X6900000Y7514286D01*
X6861904Y7457143D01*
X6785714Y7428572D01*
X6709523Y7428572D01*
X6100000Y7428572D02*
X6100000Y7742858D01*
X6138095Y7800000D01*
X6214285Y7828572D01*
X6366666Y7828572D01*
X6442857Y7800000D01*
X6100000Y7457143D02*
X6176190Y7428572D01*
X6366666Y7428572D01*
X6442857Y7457143D01*
X6480952Y7514286D01*
X6480952Y7571429D01*
X6442857Y7628572D01*
X6366666Y7657143D01*
X6176190Y7657143D01*
X6100000Y7685715D01*
X5376190Y7457143D02*
X5452380Y7428572D01*
X5604761Y7428572D01*
X5680952Y7457143D01*
X5719047Y7485715D01*
X5757142Y7542858D01*
X5757142Y7714286D01*
X5719047Y7771429D01*
X5680952Y7800000D01*
X5604761Y7828572D01*
X5452380Y7828572D01*
X5376190Y7800000D01*
X5033333Y7428572D02*
X5033333Y8028572D01*
X4690476Y7428572D02*
X4690476Y7742858D01*
X4728571Y7800000D01*
X4804761Y7828572D01*
X4919047Y7828572D01*
X4995238Y7800000D01*
X5033333Y7771429D01*
X3776190Y7828572D02*
X3585714Y7428572D01*
X3395238Y7828572D02*
X3585714Y7428572D01*
X3661904Y7285715D01*
X3700000Y7257143D01*
X3776190Y7228572D01*
X2976190Y7428572D02*
X3052380Y7457143D01*
X3090476Y7485715D01*
X3128571Y7542858D01*
X3128571Y7714286D01*
X3090476Y7771429D01*
X3052380Y7800000D01*
X2976190Y7828572D01*
X2861904Y7828572D01*
X2785714Y7800000D01*
X2747619Y7771429D01*
X2709523Y7714286D01*
X2709523Y7542858D01*
X2747619Y7485715D01*
X2785714Y7457143D01*
X2861904Y7428572D01*
X2976190Y7428572D01*
X2023809Y7828572D02*
X2023809Y7428572D01*
X2366666Y7828572D02*
X2366666Y7514286D01*
X2328571Y7457143D01*
X2252380Y7428572D01*
X2138095Y7428572D01*
X2061904Y7457143D01*
X2023809Y7485715D01*
X1642857Y7428572D02*
X1642857Y7828572D01*
X1642857Y7714286D02*
X1604761Y7771429D01*
X1566666Y7800000D01*
X1490476Y7828572D01*
X1414285Y7828572D01*
X10328571Y6378572D02*
X10404761Y6407143D01*
X10442857Y6435715D01*
X10480952Y6492858D01*
X10480952Y6664286D01*
X10442857Y6721429D01*
X10404761Y6750000D01*
X10328571Y6778572D01*
X10214285Y6778572D01*
X10138095Y6750000D01*
X10100000Y6721429D01*
X10061904Y6664286D01*
X10061904Y6492858D01*
X10100000Y6435715D01*
X10138095Y6407143D01*
X10214285Y6378572D01*
X10328571Y6378572D01*
X9795238Y6778572D02*
X9642857Y6378572D01*
X9490476Y6664286D01*
X9338095Y6378572D01*
X9185714Y6778572D01*
X8880952Y6778572D02*
X8880952Y6378572D01*
X8880952Y6721429D02*
X8842857Y6750000D01*
X8766666Y6778572D01*
X8652380Y6778572D01*
X8576190Y6750000D01*
X8538095Y6692858D01*
X8538095Y6378572D01*
X7090476Y6378572D02*
X7357142Y6664286D01*
X7547619Y6378572D02*
X7547619Y6978572D01*
X7242857Y6978572D01*
X7166666Y6950000D01*
X7128571Y6921429D01*
X7090476Y6864286D01*
X7090476Y6778572D01*
X7128571Y6721429D01*
X7166666Y6692858D01*
X7242857Y6664286D01*
X7547619Y6664286D01*
X6861904Y6978572D02*
X6404761Y6978572D01*
X6633333Y6378572D02*
X6633333Y6978572D01*
X5680952Y6435715D02*
X5719047Y6407143D01*
X5833333Y6378572D01*
X5909523Y6378572D01*
X6023809Y6407143D01*
X6100000Y6464286D01*
X6138095Y6521429D01*
X6176190Y6635715D01*
X6176190Y6721429D01*
X6138095Y6835715D01*
X6100000Y6892858D01*
X6023809Y6950000D01*
X5909523Y6978572D01*
X5833333Y6978572D01*
X5719047Y6950000D01*
X5680952Y6921429D01*
X4728571Y6378572D02*
X4728571Y6978572D01*
X4728571Y6750000D02*
X4652380Y6778572D01*
X4500000Y6778572D01*
X4423809Y6750000D01*
X4385714Y6721429D01*
X4347619Y6664286D01*
X4347619Y6492858D01*
X4385714Y6435715D01*
X4423809Y6407143D01*
X4500000Y6378572D01*
X4652380Y6378572D01*
X4728571Y6407143D01*
X3661904Y6378572D02*
X3661904Y6692858D01*
X3700000Y6750000D01*
X3776190Y6778572D01*
X3928571Y6778572D01*
X4004761Y6750000D01*
X3661904Y6407143D02*
X3738095Y6378572D01*
X3928571Y6378572D01*
X4004761Y6407143D01*
X4042857Y6464286D01*
X4042857Y6521429D01*
X4004761Y6578572D01*
X3928571Y6607143D01*
X3738095Y6607143D01*
X3661904Y6635715D01*
X3395238Y6778572D02*
X3090476Y6778572D01*
X3280952Y6978572D02*
X3280952Y6464286D01*
X3242857Y6407143D01*
X3166666Y6378572D01*
X3090476Y6378572D01*
X2938095Y6778572D02*
X2633333Y6778572D01*
X2823809Y6978572D02*
X2823809Y6464286D01*
X2785714Y6407143D01*
X2709523Y6378572D01*
X2633333Y6378572D01*
X2061904Y6407143D02*
X2138095Y6378572D01*
X2290476Y6378572D01*
X2366666Y6407143D01*
X2404761Y6464286D01*
X2404761Y6692858D01*
X2366666Y6750000D01*
X2290476Y6778572D01*
X2138095Y6778572D01*
X2061904Y6750000D01*
X2023809Y6692858D01*
X2023809Y6635715D01*
X2404761Y6578572D01*
X1680952Y6378572D02*
X1680952Y6778572D01*
X1680952Y6664286D02*
X1642857Y6721429D01*
X1604761Y6750000D01*
X1528571Y6778572D01*
X1452380Y6778572D01*
X1261904Y6778572D02*
X1071428Y6378572D01*
X880952Y6778572D02*
X1071428Y6378572D01*
X1147619Y6235715D01*
X1185714Y6207143D01*
X1261904Y6178572D01*
X10423809Y5728572D02*
X10119047Y5728572D01*
X10309523Y5928572D02*
X10309523Y5414286D01*
X10271428Y5357143D01*
X10195238Y5328572D01*
X10119047Y5328572D01*
X9738095Y5328572D02*
X9814285Y5357143D01*
X9852380Y5385715D01*
X9890476Y5442858D01*
X9890476Y5614286D01*
X9852380Y5671429D01*
X9814285Y5700000D01*
X9738095Y5728572D01*
X9623809Y5728572D01*
X9547619Y5700000D01*
X9509523Y5671429D01*
X9471428Y5614286D01*
X9471428Y5442858D01*
X9509523Y5385715D01*
X9547619Y5357143D01*
X9623809Y5328572D01*
X9738095Y5328572D01*
X8633333Y5928572D02*
X8366666Y5328572D01*
X8100000Y5928572D01*
X8023809Y5271429D02*
X7414285Y5271429D01*
X6957142Y5642858D02*
X6842857Y5614286D01*
X6804761Y5585715D01*
X6766666Y5528572D01*
X6766666Y5442858D01*
X6804761Y5385715D01*
X6842857Y5357143D01*
X6919047Y5328572D01*
X7223809Y5328572D01*
X7223809Y5928572D01*
X6957142Y5928572D01*
X6880952Y5900000D01*
X6842857Y5871429D01*
X6804761Y5814286D01*
X6804761Y5757143D01*
X6842857Y5700000D01*
X6880952Y5671429D01*
X6957142Y5642858D01*
X7223809Y5642858D01*
X6461904Y5500000D02*
X6080952Y5500000D01*
X6538095Y5328572D02*
X6271428Y5928572D01*
X6004761Y5328572D01*
X5852380Y5928572D02*
X5395238Y5928572D01*
X5623809Y5328572D02*
X5623809Y5928572D01*
X4328571Y5128572D02*
X4328571Y5985715D01*
X2728571Y5900000D02*
X2804761Y5928572D01*
X2919047Y5928572D01*
X3033333Y5900000D01*
X3109523Y5842858D01*
X3147619Y5785715D01*
X3185714Y5671429D01*
X3185714Y5585715D01*
X3147619Y5471429D01*
X3109523Y5414286D01*
X3033333Y5357143D01*
X2919047Y5328572D01*
X2842857Y5328572D01*
X2728571Y5357143D01*
X2690476Y5385715D01*
X2690476Y5585715D01*
X2842857Y5585715D01*
X2347619Y5328572D02*
X2347619Y5928572D01*
X1890476Y5328572D01*
X1890476Y5928572D01*
X1509523Y5328572D02*
X1509523Y5928572D01*
X1319047Y5928572D01*
X1204761Y5900000D01*
X1128571Y5842858D01*
X1090476Y5785715D01*
X1052380Y5671429D01*
X1052380Y5585715D01*
X1090476Y5471429D01*
X1128571Y5414286D01*
X1204761Y5357143D01*
X1319047Y5328572D01*
X1509523Y5328572D01*
D11*
X34544285Y20400000D02*
X34639523Y20447620D01*
X34782380Y20447620D01*
X34925238Y20400000D01*
X35020476Y20304762D01*
X35068095Y20209524D01*
X35115714Y20019048D01*
X35115714Y19876191D01*
X35068095Y19685715D01*
X35020476Y19590477D01*
X34925238Y19495239D01*
X34782380Y19447620D01*
X34687142Y19447620D01*
X34544285Y19495239D01*
X34496666Y19542858D01*
X34496666Y19876191D01*
X34687142Y19876191D01*
X34068095Y19447620D02*
X34068095Y20447620D01*
X33496666Y19447620D01*
X33496666Y20447620D01*
X33020476Y19447620D02*
X33020476Y20447620D01*
X32782380Y20447620D01*
X32639523Y20400000D01*
X32544285Y20304762D01*
X32496666Y20209524D01*
X32449047Y20019048D01*
X32449047Y19876191D01*
X32496666Y19685715D01*
X32544285Y19590477D01*
X32639523Y19495239D01*
X32782380Y19447620D01*
X33020476Y19447620D01*
X28210952Y19828572D02*
X27449047Y19828572D01*
X27830000Y19447620D02*
X27830000Y20209524D01*
X27115714Y20447620D02*
X26782380Y19447620D01*
X26449047Y20447620D01*
X33950952Y24813334D02*
X33474761Y24813334D01*
X34046190Y24527620D02*
X33712857Y25527620D01*
X33379523Y24527620D01*
X32903333Y24527620D02*
X32998571Y24575239D01*
X33046190Y24670477D01*
X33046190Y25527620D01*
X32665238Y25194286D02*
X32284285Y25194286D01*
X32522380Y25527620D02*
X32522380Y24670477D01*
X32474761Y24575239D01*
X32379523Y24527620D01*
X32284285Y24527620D01*
X31189047Y24527620D02*
X31189047Y25527620D01*
X30808095Y25527620D01*
X30712857Y25480000D01*
X30665238Y25432381D01*
X30617619Y25337143D01*
X30617619Y25194286D01*
X30665238Y25099048D01*
X30712857Y25051429D01*
X30808095Y25003810D01*
X31189047Y25003810D01*
X30046190Y24527620D02*
X30141428Y24575239D01*
X30189047Y24622858D01*
X30236666Y24718096D01*
X30236666Y25003810D01*
X30189047Y25099048D01*
X30141428Y25146667D01*
X30046190Y25194286D01*
X29903333Y25194286D01*
X29808095Y25146667D01*
X29760476Y25099048D01*
X29712857Y25003810D01*
X29712857Y24718096D01*
X29760476Y24622858D01*
X29808095Y24575239D01*
X29903333Y24527620D01*
X30046190Y24527620D01*
X29379523Y25194286D02*
X29189047Y24527620D01*
X28998571Y25003810D01*
X28808095Y24527620D01*
X28617619Y25194286D01*
X27855714Y24575239D02*
X27950952Y24527620D01*
X28141428Y24527620D01*
X28236666Y24575239D01*
X28284285Y24670477D01*
X28284285Y25051429D01*
X28236666Y25146667D01*
X28141428Y25194286D01*
X27950952Y25194286D01*
X27855714Y25146667D01*
X27808095Y25051429D01*
X27808095Y24956191D01*
X28284285Y24860953D01*
X27379523Y24527620D02*
X27379523Y25194286D01*
X27379523Y25003810D02*
X27331904Y25099048D01*
X27284285Y25146667D01*
X27189047Y25194286D01*
X27093809Y25194286D01*
X32998571Y22827620D02*
X33570000Y22827620D01*
X33284285Y22827620D02*
X33284285Y23827620D01*
X33379523Y23684762D01*
X33474761Y23589524D01*
X33570000Y23541905D01*
X32617619Y23732381D02*
X32570000Y23780000D01*
X32474761Y23827620D01*
X32236666Y23827620D01*
X32141428Y23780000D01*
X32093809Y23732381D01*
X32046190Y23637143D01*
X32046190Y23541905D01*
X32093809Y23399048D01*
X32665238Y22827620D01*
X32046190Y22827620D01*
X31760476Y23827620D02*
X31427142Y22827620D01*
X31093809Y23827620D01*
X29998571Y22827620D02*
X29998571Y23827620D01*
X29665238Y23113334D01*
X29331904Y23827620D01*
X29331904Y22827620D01*
X28427142Y22827620D02*
X28427142Y23351429D01*
X28474761Y23446667D01*
X28570000Y23494286D01*
X28760476Y23494286D01*
X28855714Y23446667D01*
X28427142Y22875239D02*
X28522380Y22827620D01*
X28760476Y22827620D01*
X28855714Y22875239D01*
X28903333Y22970477D01*
X28903333Y23065715D01*
X28855714Y23160953D01*
X28760476Y23208572D01*
X28522380Y23208572D01*
X28427142Y23256191D01*
X28046190Y22827620D02*
X27522380Y23494286D01*
X28046190Y23494286D02*
X27522380Y22827620D01*
X33689047Y21222858D02*
X33736666Y21175239D01*
X33879523Y21127620D01*
X33974761Y21127620D01*
X34117619Y21175239D01*
X34212857Y21270477D01*
X34260476Y21365715D01*
X34308095Y21556191D01*
X34308095Y21699048D01*
X34260476Y21889524D01*
X34212857Y21984762D01*
X34117619Y22080000D01*
X33974761Y22127620D01*
X33879523Y22127620D01*
X33736666Y22080000D01*
X33689047Y22032381D01*
X32831904Y21794286D02*
X32831904Y21127620D01*
X33260476Y21794286D02*
X33260476Y21270477D01*
X33212857Y21175239D01*
X33117619Y21127620D01*
X32974761Y21127620D01*
X32879523Y21175239D01*
X32831904Y21222858D01*
X32498571Y21794286D02*
X32117619Y21794286D01*
X32355714Y22127620D02*
X32355714Y21270477D01*
X32308095Y21175239D01*
X32212857Y21127620D01*
X32117619Y21127620D01*
X31165238Y22127620D02*
X30831904Y21127620D01*
X30498571Y22127620D01*
X30403333Y21032381D02*
X29641428Y21032381D01*
X29070000Y21651429D02*
X28927142Y21603810D01*
X28879523Y21556191D01*
X28831904Y21460953D01*
X28831904Y21318096D01*
X28879523Y21222858D01*
X28927142Y21175239D01*
X29022380Y21127620D01*
X29403333Y21127620D01*
X29403333Y22127620D01*
X29070000Y22127620D01*
X28974761Y22080000D01*
X28927142Y22032381D01*
X28879523Y21937143D01*
X28879523Y21841905D01*
X28927142Y21746667D01*
X28974761Y21699048D01*
X29070000Y21651429D01*
X29403333Y21651429D01*
X28403333Y22127620D02*
X28403333Y21318096D01*
X28355714Y21222858D01*
X28308095Y21175239D01*
X28212857Y21127620D01*
X28022380Y21127620D01*
X27927142Y21175239D01*
X27879523Y21222858D01*
X27831904Y21318096D01*
X27831904Y22127620D01*
X27403333Y21175239D02*
X27260476Y21127620D01*
X27022380Y21127620D01*
X26927142Y21175239D01*
X26879523Y21222858D01*
X26831904Y21318096D01*
X26831904Y21413334D01*
X26879523Y21508572D01*
X26927142Y21556191D01*
X27022380Y21603810D01*
X27212857Y21651429D01*
X27308095Y21699048D01*
X27355714Y21746667D01*
X27403333Y21841905D01*
X27403333Y21937143D01*
X27355714Y22032381D01*
X27308095Y22080000D01*
X27212857Y22127620D01*
X26974761Y22127620D01*
X26831904Y22080000D01*
X10478571Y72322620D02*
X10478571Y73322620D01*
X10002380Y72322620D02*
X10002380Y73322620D01*
X9430952Y72322620D01*
X9430952Y73322620D01*
X8954761Y72322620D02*
X8954761Y73322620D01*
X8573809Y73322620D01*
X8478571Y73275000D01*
X8430952Y73227381D01*
X8383333Y73132143D01*
X8383333Y72989286D01*
X8430952Y72894048D01*
X8478571Y72846429D01*
X8573809Y72798810D01*
X8954761Y72798810D01*
X7954761Y73322620D02*
X7954761Y72513096D01*
X7907142Y72417858D01*
X7859523Y72370239D01*
X7764285Y72322620D01*
X7573809Y72322620D01*
X7478571Y72370239D01*
X7430952Y72417858D01*
X7383333Y72513096D01*
X7383333Y73322620D01*
X7050000Y73322620D02*
X6478571Y73322620D01*
X6764285Y72322620D02*
X6764285Y73322620D01*
X31804761Y73372620D02*
X31614285Y73372620D01*
X31519047Y73325000D01*
X31423809Y73229762D01*
X31376190Y73039286D01*
X31376190Y72705953D01*
X31423809Y72515477D01*
X31519047Y72420239D01*
X31614285Y72372620D01*
X31804761Y72372620D01*
X31900000Y72420239D01*
X31995238Y72515477D01*
X32042857Y72705953D01*
X32042857Y73039286D01*
X31995238Y73229762D01*
X31900000Y73325000D01*
X31804761Y73372620D01*
X30947619Y73372620D02*
X30947619Y72563096D01*
X30900000Y72467858D01*
X30852380Y72420239D01*
X30757142Y72372620D01*
X30566666Y72372620D01*
X30471428Y72420239D01*
X30423809Y72467858D01*
X30376190Y72563096D01*
X30376190Y73372620D01*
X30042857Y73372620D02*
X29471428Y73372620D01*
X29757142Y72372620D02*
X29757142Y73372620D01*
X29138095Y72372620D02*
X29138095Y73372620D01*
X28757142Y73372620D01*
X28661904Y73325000D01*
X28614285Y73277381D01*
X28566666Y73182143D01*
X28566666Y73039286D01*
X28614285Y72944048D01*
X28661904Y72896429D01*
X28757142Y72848810D01*
X29138095Y72848810D01*
X28138095Y73372620D02*
X28138095Y72563096D01*
X28090476Y72467858D01*
X28042857Y72420239D01*
X27947619Y72372620D01*
X27757142Y72372620D01*
X27661904Y72420239D01*
X27614285Y72467858D01*
X27566666Y72563096D01*
X27566666Y73372620D01*
X27233333Y73372620D02*
X26661904Y73372620D01*
X26947619Y72372620D02*
X26947619Y73372620D01*
X11852380Y14083334D02*
X12852380Y13750000D01*
X11852380Y13416667D01*
X24666666Y7927381D02*
X25000000Y8927381D01*
X25333333Y7927381D01*
X6771428Y24372620D02*
X6866666Y24420239D01*
X6914285Y24467858D01*
X6961904Y24563096D01*
X6961904Y24848810D01*
X6914285Y24944048D01*
X6866666Y24991667D01*
X6771428Y25039286D01*
X6628571Y25039286D01*
X6533333Y24991667D01*
X6485714Y24944048D01*
X6438095Y24848810D01*
X6438095Y24563096D01*
X6485714Y24467858D01*
X6533333Y24420239D01*
X6628571Y24372620D01*
X6771428Y24372620D01*
X4458333Y57897620D02*
X4791666Y58373810D01*
X5029761Y57897620D02*
X5029761Y58897620D01*
X4648809Y58897620D01*
X4553571Y58850000D01*
X4505952Y58802381D01*
X4458333Y58707143D01*
X4458333Y58564286D01*
X4505952Y58469048D01*
X4553571Y58421429D01*
X4648809Y58373810D01*
X5029761Y58373810D01*
X4029761Y57897620D02*
X4029761Y58897620D01*
X3029761Y58850000D02*
X3125000Y58897620D01*
X3267857Y58897620D01*
X3410714Y58850000D01*
X3505952Y58754762D01*
X3553571Y58659524D01*
X3601190Y58469048D01*
X3601190Y58326191D01*
X3553571Y58135715D01*
X3505952Y58040477D01*
X3410714Y57945239D01*
X3267857Y57897620D01*
X3172619Y57897620D01*
X3029761Y57945239D01*
X2982142Y57992858D01*
X2982142Y58326191D01*
X3172619Y58326191D01*
X2553571Y57897620D02*
X2553571Y58897620D01*
X2553571Y58421429D02*
X1982142Y58421429D01*
X1982142Y57897620D02*
X1982142Y58897620D01*
X1648809Y58897620D02*
X1077380Y58897620D01*
X1363095Y57897620D02*
X1363095Y58897620D01*
X35777380Y57972620D02*
X36253571Y57972620D01*
X36253571Y58972620D01*
X35444047Y58496429D02*
X35110714Y58496429D01*
X34967857Y57972620D02*
X35444047Y57972620D01*
X35444047Y58972620D01*
X34967857Y58972620D01*
X34205952Y58496429D02*
X34539285Y58496429D01*
X34539285Y57972620D02*
X34539285Y58972620D01*
X34063095Y58972620D01*
X33825000Y58972620D02*
X33253571Y58972620D01*
X33539285Y57972620D02*
X33539285Y58972620D01*
X24909523Y48464286D02*
X24719047Y47797620D01*
X24528571Y48273810D01*
X24338095Y47797620D01*
X24147619Y48464286D01*
X23861904Y48464286D02*
X23671428Y47797620D01*
X23480952Y48273810D01*
X23290476Y47797620D01*
X23100000Y48464286D01*
X22814285Y48464286D02*
X22623809Y47797620D01*
X22433333Y48273810D01*
X22242857Y47797620D01*
X22052380Y48464286D01*
X21671428Y47892858D02*
X21623809Y47845239D01*
X21671428Y47797620D01*
X21719047Y47845239D01*
X21671428Y47892858D01*
X21671428Y47797620D01*
X21338095Y48464286D02*
X20957142Y48464286D01*
X21195238Y48797620D02*
X21195238Y47940477D01*
X21147619Y47845239D01*
X21052380Y47797620D01*
X20957142Y47797620D01*
X20719047Y48464286D02*
X20480952Y47797620D01*
X20242857Y48464286D02*
X20480952Y47797620D01*
X20576190Y47559524D01*
X20623809Y47511905D01*
X20719047Y47464286D01*
X19861904Y47797620D02*
X19861904Y48464286D01*
X19861904Y48369048D02*
X19814285Y48416667D01*
X19719047Y48464286D01*
X19576190Y48464286D01*
X19480952Y48416667D01*
X19433333Y48321429D01*
X19433333Y47797620D01*
X19433333Y48321429D02*
X19385714Y48416667D01*
X19290476Y48464286D01*
X19147619Y48464286D01*
X19052380Y48416667D01*
X19004761Y48321429D01*
X19004761Y47797620D01*
X18528571Y48464286D02*
X18528571Y47464286D01*
X18528571Y48416667D02*
X18433333Y48464286D01*
X18242857Y48464286D01*
X18147619Y48416667D01*
X18100000Y48369048D01*
X18052380Y48273810D01*
X18052380Y47988096D01*
X18100000Y47892858D01*
X18147619Y47845239D01*
X18242857Y47797620D01*
X18433333Y47797620D01*
X18528571Y47845239D01*
X17195238Y47797620D02*
X17195238Y48321429D01*
X17242857Y48416667D01*
X17338095Y48464286D01*
X17528571Y48464286D01*
X17623809Y48416667D01*
X17195238Y47845239D02*
X17290476Y47797620D01*
X17528571Y47797620D01*
X17623809Y47845239D01*
X17671428Y47940477D01*
X17671428Y48035715D01*
X17623809Y48130953D01*
X17528571Y48178572D01*
X17290476Y48178572D01*
X17195238Y48226191D01*
X16719047Y48464286D02*
X16719047Y47797620D01*
X16719047Y48369048D02*
X16671428Y48416667D01*
X16576190Y48464286D01*
X16433333Y48464286D01*
X16338095Y48416667D01*
X16290476Y48321429D01*
X16290476Y47797620D01*
X15814285Y47892858D02*
X15766666Y47845239D01*
X15814285Y47797620D01*
X15861904Y47845239D01*
X15814285Y47892858D01*
X15814285Y47797620D01*
X15195238Y47797620D02*
X15290476Y47845239D01*
X15338095Y47892858D01*
X15385714Y47988096D01*
X15385714Y48273810D01*
X15338095Y48369048D01*
X15290476Y48416667D01*
X15195238Y48464286D01*
X15052380Y48464286D01*
X14957142Y48416667D01*
X14909523Y48369048D01*
X14861904Y48273810D01*
X14861904Y47988096D01*
X14909523Y47892858D01*
X14957142Y47845239D01*
X15052380Y47797620D01*
X15195238Y47797620D01*
X14433333Y47797620D02*
X14433333Y48464286D01*
X14433333Y48273810D02*
X14385714Y48369048D01*
X14338095Y48416667D01*
X14242857Y48464286D01*
X14147619Y48464286D01*
X13385714Y48464286D02*
X13385714Y47654762D01*
X13433333Y47559524D01*
X13480952Y47511905D01*
X13576190Y47464286D01*
X13719047Y47464286D01*
X13814285Y47511905D01*
X13385714Y47845239D02*
X13480952Y47797620D01*
X13671428Y47797620D01*
X13766666Y47845239D01*
X13814285Y47892858D01*
X13861904Y47988096D01*
X13861904Y48273810D01*
X13814285Y48369048D01*
X13766666Y48416667D01*
X13671428Y48464286D01*
X13480952Y48464286D01*
X13385714Y48416667D01*
X25766666Y46764286D02*
X25766666Y45954762D01*
X25814285Y45859524D01*
X25861904Y45811905D01*
X25957142Y45764286D01*
X26100000Y45764286D01*
X26195238Y45811905D01*
X25766666Y46145239D02*
X25861904Y46097620D01*
X26052380Y46097620D01*
X26147619Y46145239D01*
X26195238Y46192858D01*
X26242857Y46288096D01*
X26242857Y46573810D01*
X26195238Y46669048D01*
X26147619Y46716667D01*
X26052380Y46764286D01*
X25861904Y46764286D01*
X25766666Y46716667D01*
X25290476Y46097620D02*
X25290476Y46764286D01*
X25290476Y47097620D02*
X25338095Y47050000D01*
X25290476Y47002381D01*
X25242857Y47050000D01*
X25290476Y47097620D01*
X25290476Y47002381D01*
X24957142Y46764286D02*
X24576190Y46764286D01*
X24814285Y47097620D02*
X24814285Y46240477D01*
X24766666Y46145239D01*
X24671428Y46097620D01*
X24576190Y46097620D01*
X24242857Y46097620D02*
X24242857Y47097620D01*
X23814285Y46097620D02*
X23814285Y46621429D01*
X23861904Y46716667D01*
X23957142Y46764286D01*
X24100000Y46764286D01*
X24195238Y46716667D01*
X24242857Y46669048D01*
X22909523Y46764286D02*
X22909523Y46097620D01*
X23338095Y46764286D02*
X23338095Y46240477D01*
X23290476Y46145239D01*
X23195238Y46097620D01*
X23052380Y46097620D01*
X22957142Y46145239D01*
X22909523Y46192858D01*
X22433333Y46097620D02*
X22433333Y47097620D01*
X22433333Y46716667D02*
X22338095Y46764286D01*
X22147619Y46764286D01*
X22052380Y46716667D01*
X22004761Y46669048D01*
X21957142Y46573810D01*
X21957142Y46288096D01*
X22004761Y46192858D01*
X22052380Y46145239D01*
X22147619Y46097620D01*
X22338095Y46097620D01*
X22433333Y46145239D01*
X21528571Y46192858D02*
X21480952Y46145239D01*
X21528571Y46097620D01*
X21576190Y46145239D01*
X21528571Y46192858D01*
X21528571Y46097620D01*
X20623809Y46145239D02*
X20719047Y46097620D01*
X20909523Y46097620D01*
X21004761Y46145239D01*
X21052380Y46192858D01*
X21100000Y46288096D01*
X21100000Y46573810D01*
X21052380Y46669048D01*
X21004761Y46716667D01*
X20909523Y46764286D01*
X20719047Y46764286D01*
X20623809Y46716667D01*
X20052380Y46097620D02*
X20147619Y46145239D01*
X20195238Y46192858D01*
X20242857Y46288096D01*
X20242857Y46573810D01*
X20195238Y46669048D01*
X20147619Y46716667D01*
X20052380Y46764286D01*
X19909523Y46764286D01*
X19814285Y46716667D01*
X19766666Y46669048D01*
X19719047Y46573810D01*
X19719047Y46288096D01*
X19766666Y46192858D01*
X19814285Y46145239D01*
X19909523Y46097620D01*
X20052380Y46097620D01*
X19290476Y46097620D02*
X19290476Y46764286D01*
X19290476Y46669048D02*
X19242857Y46716667D01*
X19147619Y46764286D01*
X19004761Y46764286D01*
X18909523Y46716667D01*
X18861904Y46621429D01*
X18861904Y46097620D01*
X18861904Y46621429D02*
X18814285Y46716667D01*
X18719047Y46764286D01*
X18576190Y46764286D01*
X18480952Y46716667D01*
X18433333Y46621429D01*
X18433333Y46097620D01*
X17242857Y47145239D02*
X18100000Y45859524D01*
X17052380Y46764286D02*
X16671428Y46764286D01*
X16909523Y47097620D02*
X16909523Y46240477D01*
X16861904Y46145239D01*
X16766666Y46097620D01*
X16671428Y46097620D01*
X16433333Y46764286D02*
X16195238Y46097620D01*
X15957142Y46764286D02*
X16195238Y46097620D01*
X16290476Y45859524D01*
X16338095Y45811905D01*
X16433333Y45764286D01*
X15576190Y46097620D02*
X15576190Y46764286D01*
X15576190Y46669048D02*
X15528571Y46716667D01*
X15433333Y46764286D01*
X15290476Y46764286D01*
X15195238Y46716667D01*
X15147619Y46621429D01*
X15147619Y46097620D01*
X15147619Y46621429D02*
X15100000Y46716667D01*
X15004761Y46764286D01*
X14861904Y46764286D01*
X14766666Y46716667D01*
X14719047Y46621429D01*
X14719047Y46097620D01*
X14242857Y46764286D02*
X14242857Y45764286D01*
X14242857Y46716667D02*
X14147619Y46764286D01*
X13957142Y46764286D01*
X13861904Y46716667D01*
X13814285Y46669048D01*
X13766666Y46573810D01*
X13766666Y46288096D01*
X13814285Y46192858D01*
X13861904Y46145239D01*
X13957142Y46097620D01*
X14147619Y46097620D01*
X14242857Y46145239D01*
X12909523Y46097620D02*
X12909523Y46621429D01*
X12957142Y46716667D01*
X13052380Y46764286D01*
X13242857Y46764286D01*
X13338095Y46716667D01*
X12909523Y46145239D02*
X13004761Y46097620D01*
X13242857Y46097620D01*
X13338095Y46145239D01*
X13385714Y46240477D01*
X13385714Y46335715D01*
X13338095Y46430953D01*
X13242857Y46478572D01*
X13004761Y46478572D01*
X12909523Y46526191D01*
X12433333Y46764286D02*
X12433333Y46097620D01*
X12433333Y46669048D02*
X12385714Y46716667D01*
X12290476Y46764286D01*
X12147619Y46764286D01*
X12052380Y46716667D01*
X12004761Y46621429D01*
X12004761Y46097620D01*
X30166666Y66797620D02*
X30166666Y67797620D01*
X29928571Y67797620D01*
X29785714Y67750000D01*
X29690476Y67654762D01*
X29642857Y67559524D01*
X29595238Y67369048D01*
X29595238Y67226191D01*
X29642857Y67035715D01*
X29690476Y66940477D01*
X29785714Y66845239D01*
X29928571Y66797620D01*
X30166666Y66797620D01*
X28785714Y66845239D02*
X28880952Y66797620D01*
X29071428Y66797620D01*
X29166666Y66845239D01*
X29214285Y66940477D01*
X29214285Y67321429D01*
X29166666Y67416667D01*
X29071428Y67464286D01*
X28880952Y67464286D01*
X28785714Y67416667D01*
X28738095Y67321429D01*
X28738095Y67226191D01*
X29214285Y67130953D01*
X28357142Y66845239D02*
X28261904Y66797620D01*
X28071428Y66797620D01*
X27976190Y66845239D01*
X27928571Y66940477D01*
X27928571Y66988096D01*
X27976190Y67083334D01*
X28071428Y67130953D01*
X28214285Y67130953D01*
X28309523Y67178572D01*
X28357142Y67273810D01*
X28357142Y67321429D01*
X28309523Y67416667D01*
X28214285Y67464286D01*
X28071428Y67464286D01*
X27976190Y67416667D01*
X27500000Y66797620D02*
X27500000Y67464286D01*
X27500000Y67797620D02*
X27547619Y67750000D01*
X27500000Y67702381D01*
X27452380Y67750000D01*
X27500000Y67797620D01*
X27500000Y67702381D01*
X26595238Y67464286D02*
X26595238Y66654762D01*
X26642857Y66559524D01*
X26690476Y66511905D01*
X26785714Y66464286D01*
X26928571Y66464286D01*
X27023809Y66511905D01*
X26595238Y66845239D02*
X26690476Y66797620D01*
X26880952Y66797620D01*
X26976190Y66845239D01*
X27023809Y66892858D01*
X27071428Y66988096D01*
X27071428Y67273810D01*
X27023809Y67369048D01*
X26976190Y67416667D01*
X26880952Y67464286D01*
X26690476Y67464286D01*
X26595238Y67416667D01*
X26119047Y67464286D02*
X26119047Y66797620D01*
X26119047Y67369048D02*
X26071428Y67416667D01*
X25976190Y67464286D01*
X25833333Y67464286D01*
X25738095Y67416667D01*
X25690476Y67321429D01*
X25690476Y66797620D01*
X24833333Y66845239D02*
X24928571Y66797620D01*
X25119047Y66797620D01*
X25214285Y66845239D01*
X25261904Y66940477D01*
X25261904Y67321429D01*
X25214285Y67416667D01*
X25119047Y67464286D01*
X24928571Y67464286D01*
X24833333Y67416667D01*
X24785714Y67321429D01*
X24785714Y67226191D01*
X25261904Y67130953D01*
X23928571Y66797620D02*
X23928571Y67797620D01*
X23928571Y66845239D02*
X24023809Y66797620D01*
X24214285Y66797620D01*
X24309523Y66845239D01*
X24357142Y66892858D01*
X24404761Y66988096D01*
X24404761Y67273810D01*
X24357142Y67369048D01*
X24309523Y67416667D01*
X24214285Y67464286D01*
X24023809Y67464286D01*
X23928571Y67416667D01*
X22690476Y66797620D02*
X22690476Y67464286D01*
X22690476Y67797620D02*
X22738095Y67750000D01*
X22690476Y67702381D01*
X22642857Y67750000D01*
X22690476Y67797620D01*
X22690476Y67702381D01*
X22214285Y67464286D02*
X22214285Y66797620D01*
X22214285Y67369048D02*
X22166666Y67416667D01*
X22071428Y67464286D01*
X21928571Y67464286D01*
X21833333Y67416667D01*
X21785714Y67321429D01*
X21785714Y66797620D01*
X20214285Y67321429D02*
X20071428Y67273810D01*
X20023809Y67226191D01*
X19976190Y67130953D01*
X19976190Y66988096D01*
X20023809Y66892858D01*
X20071428Y66845239D01*
X20166666Y66797620D01*
X20547619Y66797620D01*
X20547619Y67797620D01*
X20214285Y67797620D01*
X20119047Y67750000D01*
X20071428Y67702381D01*
X20023809Y67607143D01*
X20023809Y67511905D01*
X20071428Y67416667D01*
X20119047Y67369048D01*
X20214285Y67321429D01*
X20547619Y67321429D01*
X19547619Y66797620D02*
X19547619Y67464286D01*
X19547619Y67273810D02*
X19500000Y67369048D01*
X19452380Y67416667D01*
X19357142Y67464286D01*
X19261904Y67464286D01*
X18785714Y66797620D02*
X18880952Y66845239D01*
X18928571Y66892858D01*
X18976190Y66988096D01*
X18976190Y67273810D01*
X18928571Y67369048D01*
X18880952Y67416667D01*
X18785714Y67464286D01*
X18642857Y67464286D01*
X18547619Y67416667D01*
X18500000Y67369048D01*
X18452380Y67273810D01*
X18452380Y66988096D01*
X18500000Y66892858D01*
X18547619Y66845239D01*
X18642857Y66797620D01*
X18785714Y66797620D01*
X17880952Y66797620D02*
X17976190Y66845239D01*
X18023809Y66892858D01*
X18071428Y66988096D01*
X18071428Y67273810D01*
X18023809Y67369048D01*
X17976190Y67416667D01*
X17880952Y67464286D01*
X17738095Y67464286D01*
X17642857Y67416667D01*
X17595238Y67369048D01*
X17547619Y67273810D01*
X17547619Y66988096D01*
X17595238Y66892858D01*
X17642857Y66845239D01*
X17738095Y66797620D01*
X17880952Y66797620D01*
X17119047Y66797620D02*
X17119047Y67797620D01*
X17023809Y67178572D02*
X16738095Y66797620D01*
X16738095Y67464286D02*
X17119047Y67083334D01*
X16166666Y66797620D02*
X16261904Y66845239D01*
X16309523Y66940477D01*
X16309523Y67797620D01*
X15880952Y67464286D02*
X15642857Y66797620D01*
X15404761Y67464286D02*
X15642857Y66797620D01*
X15738095Y66559524D01*
X15785714Y66511905D01*
X15880952Y66464286D01*
X15023809Y67464286D02*
X15023809Y66797620D01*
X15023809Y67369048D02*
X14976190Y67416667D01*
X14880952Y67464286D01*
X14738095Y67464286D01*
X14642857Y67416667D01*
X14595238Y67321429D01*
X14595238Y66797620D01*
X14071428Y66845239D02*
X14071428Y66797620D01*
X14119047Y66702381D01*
X14166666Y66654762D01*
X12880952Y66797620D02*
X12880952Y67797620D01*
X12309523Y66797620D01*
X12309523Y67797620D01*
X11642857Y67273810D02*
X11642857Y66797620D01*
X11976190Y67797620D02*
X11642857Y67273810D01*
X11309523Y67797620D01*
X10214285Y67797620D02*
X10214285Y66988096D01*
X10166666Y66892858D01*
X10119047Y66845239D01*
X10023809Y66797620D01*
X9833333Y66797620D01*
X9738095Y66845239D01*
X9690476Y66892858D01*
X9642857Y66988096D01*
X9642857Y67797620D01*
X9214285Y66845239D02*
X9071428Y66797620D01*
X8833333Y66797620D01*
X8738095Y66845239D01*
X8690476Y66892858D01*
X8642857Y66988096D01*
X8642857Y67083334D01*
X8690476Y67178572D01*
X8738095Y67226191D01*
X8833333Y67273810D01*
X9023809Y67321429D01*
X9119047Y67369048D01*
X9166666Y67416667D01*
X9214285Y67511905D01*
X9214285Y67607143D01*
X9166666Y67702381D01*
X9119047Y67750000D01*
X9023809Y67797620D01*
X8785714Y67797620D01*
X8642857Y67750000D01*
X8261904Y67083334D02*
X7785714Y67083334D01*
X8357142Y66797620D02*
X8023809Y67797620D01*
X7690476Y66797620D01*
X27428571Y65097620D02*
X27428571Y66097620D01*
X27095238Y65383334D01*
X26761904Y66097620D01*
X26761904Y65097620D01*
X25857142Y65097620D02*
X25857142Y65621429D01*
X25904761Y65716667D01*
X26000000Y65764286D01*
X26190476Y65764286D01*
X26285714Y65716667D01*
X25857142Y65145239D02*
X25952380Y65097620D01*
X26190476Y65097620D01*
X26285714Y65145239D01*
X26333333Y65240477D01*
X26333333Y65335715D01*
X26285714Y65430953D01*
X26190476Y65478572D01*
X25952380Y65478572D01*
X25857142Y65526191D01*
X24952380Y65097620D02*
X24952380Y66097620D01*
X24952380Y65145239D02*
X25047619Y65097620D01*
X25238095Y65097620D01*
X25333333Y65145239D01*
X25380952Y65192858D01*
X25428571Y65288096D01*
X25428571Y65573810D01*
X25380952Y65669048D01*
X25333333Y65716667D01*
X25238095Y65764286D01*
X25047619Y65764286D01*
X24952380Y65716667D01*
X24095238Y65145239D02*
X24190476Y65097620D01*
X24380952Y65097620D01*
X24476190Y65145239D01*
X24523809Y65240477D01*
X24523809Y65621429D01*
X24476190Y65716667D01*
X24380952Y65764286D01*
X24190476Y65764286D01*
X24095238Y65716667D01*
X24047619Y65621429D01*
X24047619Y65526191D01*
X24523809Y65430953D01*
X22857142Y65097620D02*
X22857142Y65764286D01*
X22857142Y66097620D02*
X22904761Y66050000D01*
X22857142Y66002381D01*
X22809523Y66050000D01*
X22857142Y66097620D01*
X22857142Y66002381D01*
X22380952Y65764286D02*
X22380952Y65097620D01*
X22380952Y65669048D02*
X22333333Y65716667D01*
X22238095Y65764286D01*
X22095238Y65764286D01*
X22000000Y65716667D01*
X21952380Y65621429D01*
X21952380Y65097620D01*
X20857142Y66097620D02*
X20285714Y66097620D01*
X20571428Y65097620D02*
X20571428Y66097620D01*
X19523809Y65097620D02*
X19523809Y65621429D01*
X19571428Y65716667D01*
X19666666Y65764286D01*
X19857142Y65764286D01*
X19952380Y65716667D01*
X19523809Y65145239D02*
X19619047Y65097620D01*
X19857142Y65097620D01*
X19952380Y65145239D01*
X20000000Y65240477D01*
X20000000Y65335715D01*
X19952380Y65430953D01*
X19857142Y65478572D01*
X19619047Y65478572D01*
X19523809Y65526191D01*
X19047619Y65097620D02*
X19047619Y65764286D01*
X19047619Y66097620D02*
X19095238Y66050000D01*
X19047619Y66002381D01*
X19000000Y66050000D01*
X19047619Y66097620D01*
X19047619Y66002381D01*
X18571428Y65764286D02*
X18571428Y64764286D01*
X18571428Y65716667D02*
X18476190Y65764286D01*
X18285714Y65764286D01*
X18190476Y65716667D01*
X18142857Y65669048D01*
X18095238Y65573810D01*
X18095238Y65288096D01*
X18142857Y65192858D01*
X18190476Y65145239D01*
X18285714Y65097620D01*
X18476190Y65097620D01*
X18571428Y65145239D01*
X17285714Y65145239D02*
X17380952Y65097620D01*
X17571428Y65097620D01*
X17666666Y65145239D01*
X17714285Y65240477D01*
X17714285Y65621429D01*
X17666666Y65716667D01*
X17571428Y65764286D01*
X17380952Y65764286D01*
X17285714Y65716667D01*
X17238095Y65621429D01*
X17238095Y65526191D01*
X17714285Y65430953D01*
X16809523Y65097620D02*
X16809523Y65764286D01*
X16809523Y66097620D02*
X16857142Y66050000D01*
X16809523Y66002381D01*
X16761904Y66050000D01*
X16809523Y66097620D01*
X16809523Y66002381D01*
X16285714Y65145239D02*
X16285714Y65097620D01*
X16333333Y65002381D01*
X16380952Y64954762D01*
X15238095Y66097620D02*
X14666666Y66097620D01*
X14952380Y65097620D02*
X14952380Y66097620D01*
X13904761Y65097620D02*
X13904761Y65621429D01*
X13952380Y65716667D01*
X14047619Y65764286D01*
X14238095Y65764286D01*
X14333333Y65716667D01*
X13904761Y65145239D02*
X14000000Y65097620D01*
X14238095Y65097620D01*
X14333333Y65145239D01*
X14380952Y65240477D01*
X14380952Y65335715D01*
X14333333Y65430953D01*
X14238095Y65478572D01*
X14000000Y65478572D01*
X13904761Y65526191D01*
X13428571Y65097620D02*
X13428571Y65764286D01*
X13428571Y66097620D02*
X13476190Y66050000D01*
X13428571Y66002381D01*
X13380952Y66050000D01*
X13428571Y66097620D01*
X13428571Y66002381D01*
X13047619Y65764286D02*
X12857142Y65097620D01*
X12666666Y65573810D01*
X12476190Y65097620D01*
X12285714Y65764286D01*
X11476190Y65097620D02*
X11476190Y65621429D01*
X11523809Y65716667D01*
X11619047Y65764286D01*
X11809523Y65764286D01*
X11904761Y65716667D01*
X11476190Y65145239D02*
X11571428Y65097620D01*
X11809523Y65097620D01*
X11904761Y65145239D01*
X11952380Y65240477D01*
X11952380Y65335715D01*
X11904761Y65430953D01*
X11809523Y65478572D01*
X11571428Y65478572D01*
X11476190Y65526191D01*
X11000000Y65764286D02*
X11000000Y65097620D01*
X11000000Y65669048D02*
X10952380Y65716667D01*
X10857142Y65764286D01*
X10714285Y65764286D01*
X10619047Y65716667D01*
X10571428Y65621429D01*
X10571428Y65097620D01*
D12*
X1100000Y16013750D02*
X1066666Y16080417D01*
X1066666Y16180417D01*
X1100000Y16280417D01*
X1166666Y16347084D01*
X1233333Y16380417D01*
X1366666Y16413750D01*
X1466666Y16413750D01*
X1600000Y16380417D01*
X1666666Y16347084D01*
X1733333Y16280417D01*
X1766666Y16180417D01*
X1766666Y16113750D01*
X1733333Y16013750D01*
X1700000Y15980417D01*
X1466666Y15980417D01*
X1466666Y16113750D01*
X1766666Y15680417D02*
X1066666Y15680417D01*
X1766666Y15280417D01*
X1066666Y15280417D01*
X1766666Y14947084D02*
X1066666Y14947084D01*
X1066666Y14780417D01*
X1100000Y14680417D01*
X1166666Y14613750D01*
X1233333Y14580417D01*
X1366666Y14547084D01*
X1466666Y14547084D01*
X1600000Y14580417D01*
X1666666Y14613750D01*
X1733333Y14680417D01*
X1766666Y14780417D01*
X1766666Y14947084D01*
X3516666Y16347084D02*
X4216666Y16113750D01*
X3516666Y15880417D01*
X4216666Y15647084D02*
X3516666Y15647084D01*
X3516666Y15380417D01*
X3550000Y15313750D01*
X3583333Y15280417D01*
X3650000Y15247084D01*
X3750000Y15247084D01*
X3816666Y15280417D01*
X3850000Y15313750D01*
X3883333Y15380417D01*
X3883333Y15647084D01*
X4216666Y14947084D02*
X3516666Y14947084D01*
X3516666Y14680417D01*
X3550000Y14613750D01*
X3583333Y14580417D01*
X3650000Y14547084D01*
X3750000Y14547084D01*
X3816666Y14580417D01*
X3850000Y14613750D01*
X3883333Y14680417D01*
X3883333Y14947084D01*
X5966666Y17313750D02*
X6666666Y17080417D01*
X5966666Y16847084D01*
X6733333Y16780417D02*
X6733333Y16247084D01*
X6300000Y15847084D02*
X6333333Y15747084D01*
X6366666Y15713750D01*
X6433333Y15680417D01*
X6533333Y15680417D01*
X6600000Y15713750D01*
X6633333Y15747084D01*
X6666666Y15813750D01*
X6666666Y16080417D01*
X5966666Y16080417D01*
X5966666Y15847084D01*
X6000000Y15780417D01*
X6033333Y15747084D01*
X6100000Y15713750D01*
X6166666Y15713750D01*
X6233333Y15747084D01*
X6266666Y15780417D01*
X6300000Y15847084D01*
X6300000Y16080417D01*
X6466666Y15413750D02*
X6466666Y15080417D01*
X6666666Y15480417D02*
X5966666Y15247084D01*
X6666666Y15013750D01*
X5966666Y14880417D02*
X5966666Y14480417D01*
X6666666Y14680417D02*
X5966666Y14680417D01*
D13*
X27672285Y63034572D02*
X26801428Y63034572D01*
X27236857Y61510572D02*
X27236857Y63034572D01*
X26003142Y62236286D02*
X26003142Y61510572D01*
X26511142Y63034572D02*
X26003142Y62236286D01*
X25495142Y63034572D01*
X24987142Y61510572D02*
X24987142Y63034572D01*
X24479142Y61946000D01*
X23971142Y63034572D01*
X23971142Y61510572D01*
X23245428Y61510572D02*
X23245428Y63034572D01*
X22664857Y63034572D01*
X22519714Y62962000D01*
X22447142Y62889429D01*
X22374571Y62744286D01*
X22374571Y62526572D01*
X22447142Y62381429D01*
X22519714Y62308858D01*
X22664857Y62236286D01*
X23245428Y62236286D01*
X21794000Y61946000D02*
X21068285Y61946000D01*
X21939142Y61510572D02*
X21431142Y63034572D01*
X20923142Y61510572D01*
X20415142Y61510572D02*
X20415142Y63034572D01*
X19544285Y61510572D01*
X19544285Y63034572D01*
X15625428Y61510572D02*
X16133428Y62236286D01*
X16496285Y61510572D02*
X16496285Y63034572D01*
X15915714Y63034572D01*
X15770571Y62962000D01*
X15698000Y62889429D01*
X15625428Y62744286D01*
X15625428Y62526572D01*
X15698000Y62381429D01*
X15770571Y62308858D01*
X15915714Y62236286D01*
X16496285Y62236286D01*
X14391714Y61583143D02*
X14536857Y61510572D01*
X14827142Y61510572D01*
X14972285Y61583143D01*
X15044857Y61728286D01*
X15044857Y62308858D01*
X14972285Y62454000D01*
X14827142Y62526572D01*
X14536857Y62526572D01*
X14391714Y62454000D01*
X14319142Y62308858D01*
X14319142Y62163715D01*
X15044857Y62018572D01*
X13811142Y62526572D02*
X13448285Y61510572D01*
X13085428Y62526572D01*
X11343714Y61510572D02*
X11343714Y63034572D01*
X10980857Y63034572D01*
X10763142Y62962000D01*
X10618000Y62816858D01*
X10545428Y62671715D01*
X10472857Y62381429D01*
X10472857Y62163715D01*
X10545428Y61873429D01*
X10618000Y61728286D01*
X10763142Y61583143D01*
X10980857Y61510572D01*
X11343714Y61510572D01*
D14*
X3475572Y31883886D02*
X3003858Y31883886D01*
X3257858Y31593600D01*
X3149001Y31593600D01*
X3076430Y31557315D01*
X3040144Y31521029D01*
X3003858Y31448458D01*
X3003858Y31267029D01*
X3040144Y31194458D01*
X3076430Y31158172D01*
X3149001Y31121886D01*
X3366715Y31121886D01*
X3439287Y31158172D01*
X3475572Y31194458D01*
X2786144Y31883886D02*
X2532144Y31121886D01*
X2278144Y31883886D01*
X2096715Y31883886D02*
X1625001Y31883886D01*
X1879001Y31593600D01*
X1770144Y31593600D01*
X1697572Y31557315D01*
X1661287Y31521029D01*
X1625001Y31448458D01*
X1625001Y31267029D01*
X1661287Y31194458D01*
X1697572Y31158172D01*
X1770144Y31121886D01*
X1987858Y31121886D01*
X2060430Y31158172D01*
X2096715Y31194458D01*
X3439287Y28698000D02*
X3076430Y28698000D01*
X3511858Y28480286D02*
X3257858Y29242286D01*
X3003858Y28480286D01*
X2786144Y29169715D02*
X2749858Y29206000D01*
X2677287Y29242286D01*
X2495858Y29242286D01*
X2423287Y29206000D01*
X2387001Y29169715D01*
X2350715Y29097143D01*
X2350715Y29024572D01*
X2387001Y28915715D01*
X2822430Y28480286D01*
X2350715Y28480286D01*
X1879001Y29242286D02*
X1806430Y29242286D01*
X1733858Y29206000D01*
X1697572Y29169715D01*
X1661287Y29097143D01*
X1625001Y28952000D01*
X1625001Y28770572D01*
X1661287Y28625429D01*
X1697572Y28552858D01*
X1733858Y28516572D01*
X1806430Y28480286D01*
X1879001Y28480286D01*
X1951572Y28516572D01*
X1987858Y28552858D01*
X2024144Y28625429D01*
X2060430Y28770572D01*
X2060430Y28952000D01*
X2024144Y29097143D01*
X1987858Y29169715D01*
X1951572Y29206000D01*
X1879001Y29242286D01*
X3003858Y26564400D02*
X3076430Y26600686D01*
X3185287Y26600686D01*
X3294144Y26564400D01*
X3366715Y26491829D01*
X3403001Y26419258D01*
X3439287Y26274115D01*
X3439287Y26165258D01*
X3403001Y26020115D01*
X3366715Y25947543D01*
X3294144Y25874972D01*
X3185287Y25838686D01*
X3112715Y25838686D01*
X3003858Y25874972D01*
X2967572Y25911258D01*
X2967572Y26165258D01*
X3112715Y26165258D01*
X2641001Y25838686D02*
X2641001Y26600686D01*
X2205572Y25838686D01*
X2205572Y26600686D01*
X1842715Y25838686D02*
X1842715Y26600686D01*
X1661287Y26600686D01*
X1552430Y26564400D01*
X1479858Y26491829D01*
X1443572Y26419258D01*
X1407287Y26274115D01*
X1407287Y26165258D01*
X1443572Y26020115D01*
X1479858Y25947543D01*
X1552430Y25874972D01*
X1661287Y25838686D01*
X1842715Y25838686D01*
D15*
G04 #@! TO.C,F1*
X4700000Y18580000D02*
X2700000Y18580000D01*
X2700000Y20620000D02*
X4700000Y20620000D01*
G04 #@! TO.C,U4*
X29690000Y29850000D02*
X29690000Y31650000D01*
X32910000Y31650000D02*
X32910000Y29200000D01*
G04 #@! TO.C,C14*
X7855000Y28125000D02*
X7855000Y28625000D01*
X8795000Y28625000D02*
X8795000Y28125000D01*
G04 #@! TO.C,C20*
X31600000Y28870000D02*
X32100000Y28870000D01*
X32100000Y27930000D02*
X31600000Y27930000D01*
G04 #@! TO.C,C21*
X28320000Y11250000D02*
X28320000Y10750000D01*
X27380000Y10750000D02*
X27380000Y11250000D01*
G04 #@! TO.C,C22*
X31600000Y33595000D02*
X32100000Y33595000D01*
X32100000Y32655000D02*
X31600000Y32655000D01*
G04 #@! TO.C,C23*
X6230000Y45250000D02*
X6230000Y45750000D01*
X7170000Y45750000D02*
X7170000Y45250000D01*
G04 #@! TO.C,C24*
X6255000Y42800000D02*
X6255000Y43300000D01*
X7195000Y43300000D02*
X7195000Y42800000D01*
G04 #@! TO.C,C25*
X6230000Y40350000D02*
X6230000Y40850000D01*
X7170000Y40850000D02*
X7170000Y40350000D01*
G04 #@! TO.C,C26*
X6230000Y37596000D02*
X6230000Y38096000D01*
X7170000Y38096000D02*
X7170000Y37596000D01*
G04 #@! TO.C,R19*
X22950000Y44270000D02*
X22450000Y44270000D01*
X22450000Y45330000D02*
X22950000Y45330000D01*
G04 #@! TO.C,R20*
X22950000Y43370000D02*
X22450000Y43370000D01*
X22450000Y44430000D02*
X22950000Y44430000D01*
G04 #@! TO.C,R23*
X10655000Y30525000D02*
X10655000Y30025000D01*
X9595000Y30025000D02*
X9595000Y30525000D01*
D10*
G04 #@! TO.C,IC1*
X23522820Y33512780D02*
G75*
G03X23522820Y33512780I-599440J0D01*
G01*
X24223860Y28313400D02*
X24223860Y34813260D01*
X24223860Y34813260D02*
X11224140Y34813260D01*
X11224140Y34813260D02*
X11224140Y21813540D01*
X11224140Y21813540D02*
X24223860Y21813540D01*
X24223860Y21813540D02*
X24223860Y28313400D01*
X21224120Y33815040D02*
X21213960Y33815040D01*
D15*
G04 #@! TO.C,C34*
X30200000Y13320000D02*
X30700000Y13320000D01*
X30700000Y12380000D02*
X30200000Y12380000D01*
D16*
G04 #@! TO.C,D4*
X14350000Y15300000D02*
X10350000Y15300000D01*
X10350000Y12300000D02*
X14350000Y12300000D01*
G04 #@! TO.C,D5*
X23500000Y10400000D02*
X23500000Y6400000D01*
X26500000Y6400000D02*
X26500000Y10400000D01*
D15*
G04 #@! TO.C,R34*
X22670000Y2350000D02*
X22670000Y2850000D01*
X23730000Y2850000D02*
X23730000Y2350000D01*
G04 #@! TO.C,R35*
X23670000Y2350000D02*
X23670000Y2850000D01*
X24730000Y2850000D02*
X24730000Y2350000D01*
G04 #@! TO.C,R36*
X21670000Y2350000D02*
X21670000Y2850000D01*
X22730000Y2850000D02*
X22730000Y2350000D01*
G04 #@! TO.C,U1*
X28440000Y9550000D02*
X28440000Y11350000D01*
X31660000Y11350000D02*
X31660000Y8900000D01*
D10*
G04 #@! TO.C,IC2*
X7150000Y21000000D02*
X7650000Y21000000D01*
X10400000Y24250000D02*
X9900000Y24250000D01*
X10400000Y21000000D02*
X9900000Y21000000D01*
X7150000Y24250000D02*
X7150000Y23750000D01*
X10400000Y24250000D02*
X10400000Y23750000D01*
X10400000Y21000000D02*
X10400000Y21500000D01*
X7150000Y21000000D02*
X7150000Y21500000D01*
D16*
G04 #@! TO.C,BT1*
X18800000Y2550000D02*
X18800000Y10550000D01*
X18800000Y10550000D02*
X11800000Y10550000D01*
X11800000Y10550000D02*
X11800000Y2550000D01*
X11800000Y2550000D02*
X18800000Y2550000D01*
G04 #@! TO.C,MIC1*
X33000000Y57000000D02*
X33000000Y52250000D01*
X33000000Y52250000D02*
X37000000Y52250000D01*
X37000000Y52250000D02*
X37000000Y57000000D01*
X37000000Y57000000D02*
X33000000Y57000000D01*
D17*
G04 #@! TO.C,G\002A\002A\002A*
G36*
X17073442Y60258056D02*
X16202488Y60035696D01*
X15698000Y59827495D01*
X15218417Y59527662D01*
X14741422Y59108505D01*
X14310540Y58615012D01*
X13969296Y58092169D01*
X13912842Y57982333D01*
X13794544Y57733863D01*
X13713991Y57532309D01*
X13664035Y57335412D01*
X13637527Y57100914D01*
X13627319Y56786555D01*
X13626263Y56350077D01*
X13626409Y56289000D01*
X13630975Y55815126D01*
X13645937Y55466182D01*
X13677306Y55197823D01*
X13731095Y54965702D01*
X13813315Y54725473D01*
X13851784Y54626567D01*
X14296796Y53726945D01*
X14890095Y52903347D01*
X15407818Y52357164D01*
X16026475Y51812451D01*
X16627458Y51383633D01*
X17266757Y51037331D01*
X18000362Y50740165D01*
X18280333Y50644682D01*
X18722875Y50539769D01*
X19272419Y50469191D01*
X19869663Y50435402D01*
X20455305Y50440858D01*
X20970041Y50488015D01*
X21169623Y50525058D01*
X21947539Y50782821D01*
X22661669Y51176718D01*
X23284513Y51687273D01*
X23788570Y52295009D01*
X23886345Y52449044D01*
X24202957Y53136740D01*
X24373909Y53884534D01*
X24394726Y54466246D01*
X24164667Y54466246D01*
X24085545Y53673206D01*
X23854498Y52944346D01*
X23481009Y52292637D01*
X22974557Y51731052D01*
X22344624Y51272560D01*
X21600689Y50930133D01*
X21573141Y50920560D01*
X21148321Y50791424D01*
X20869476Y50746612D01*
X20735754Y50786096D01*
X20737849Y50891500D01*
X20772381Y51043575D01*
X20807176Y51312276D01*
X20835714Y51645035D01*
X20840236Y51717000D01*
X20843892Y51844000D01*
X20566102Y51844000D01*
X20558899Y51358793D01*
X20521078Y51020979D01*
X20427833Y50808718D01*
X20254359Y50700172D01*
X19975851Y50673500D01*
X19567504Y50706862D01*
X19310761Y50738731D01*
X19015241Y50782030D01*
X18792113Y50824465D01*
X18688825Y50856984D01*
X18688302Y50857476D01*
X18681952Y50968517D01*
X18738250Y51187952D01*
X18841319Y51474150D01*
X18975285Y51785479D01*
X19124270Y52080308D01*
X19209814Y52225000D01*
X19422757Y52519006D01*
X19667670Y52795879D01*
X19910179Y53022497D01*
X20115908Y53165740D01*
X20220341Y53198667D01*
X20354095Y53117605D01*
X20458650Y52885094D01*
X20529919Y52517144D01*
X20563815Y52029769D01*
X20566102Y51844000D01*
X20843892Y51844000D01*
X20851994Y52125362D01*
X20825534Y52436683D01*
X20752785Y52720553D01*
X20710120Y52838858D01*
X20630066Y53088521D01*
X20600445Y53269796D01*
X20616792Y53330688D01*
X20655495Y53395031D01*
X20014371Y53395031D01*
X19685888Y53131055D01*
X19367806Y52814676D01*
X19047248Y52393201D01*
X18763316Y51925684D01*
X18555114Y51471179D01*
X18521306Y51372331D01*
X18428168Y51123178D01*
X18337949Y50956675D01*
X18286038Y50913701D01*
X18170641Y50946238D01*
X17943939Y51031787D01*
X17649020Y51153809D01*
X17558277Y51193048D01*
X16737514Y51609105D01*
X16021182Y52104942D01*
X15359005Y52717556D01*
X15098318Y53003263D01*
X14668968Y53558684D01*
X14322424Y54138558D01*
X14065567Y54719311D01*
X13905278Y55277365D01*
X13848439Y55789146D01*
X13901930Y56231078D01*
X14059489Y56562447D01*
X14283433Y56822986D01*
X14519828Y56993900D01*
X14814887Y57095860D01*
X15214824Y57149539D01*
X15398201Y57161280D01*
X15783372Y57193551D01*
X16001034Y57235814D01*
X16051254Y57280089D01*
X15934097Y57318392D01*
X15649629Y57342742D01*
X15396670Y57347333D01*
X15056313Y57360145D01*
X14841159Y57394856D01*
X14763443Y57445882D01*
X14835396Y57507639D01*
X14957167Y57547969D01*
X15401768Y57598283D01*
X15878086Y57540460D01*
X16123133Y57463735D01*
X16336247Y57386969D01*
X16470965Y57354506D01*
X16491143Y57357902D01*
X16754574Y57819051D01*
X16869713Y58295097D01*
X16836599Y58758837D01*
X16655271Y59183071D01*
X16488161Y59394127D01*
X16347495Y59547673D01*
X16319113Y59615708D01*
X16396012Y59632904D01*
X16439851Y59633333D01*
X16654426Y59554635D01*
X16851614Y59342295D01*
X17009556Y59031944D01*
X17106397Y58659217D01*
X17121734Y58521694D01*
X17133198Y58238618D01*
X17105833Y58025521D01*
X17020961Y57814147D01*
X16859902Y57536238D01*
X16845806Y57513362D01*
X16640793Y57145240D01*
X16555872Y56871074D01*
X16597874Y56658943D01*
X16773630Y56476922D01*
X17089970Y56293090D01*
X17108946Y56283603D01*
X17807763Y55867039D01*
X18484489Y55335921D01*
X19096402Y54729819D01*
X19600780Y54088300D01*
X19769162Y53819750D01*
X20014371Y53395031D01*
X20655495Y53395031D01*
X20695564Y53461642D01*
X20624342Y53659376D01*
X20406166Y53918179D01*
X20208163Y54098549D01*
X19713187Y54545712D01*
X19238006Y55024030D01*
X18799441Y55512048D01*
X18414315Y55988311D01*
X18099448Y56431365D01*
X17965661Y56659482D01*
X17560232Y56659482D01*
X17504222Y56557111D01*
X17388381Y56502180D01*
X17320127Y56601888D01*
X17306667Y56744300D01*
X17264908Y56959166D01*
X17179667Y57093333D01*
X17067586Y57229627D01*
X17077378Y57325963D01*
X17151833Y57347333D01*
X17327194Y57274633D01*
X17471379Y57096144D01*
X17557891Y56871287D01*
X17560232Y56659482D01*
X17965661Y56659482D01*
X17871663Y56819754D01*
X17747779Y57132024D01*
X17730000Y57259294D01*
X17802284Y57455868D01*
X17999168Y57694606D01*
X18290704Y57948473D01*
X18646942Y58190438D01*
X18933032Y58345177D01*
X19257829Y58484977D01*
X19681731Y58644047D01*
X20139995Y58798907D01*
X20422194Y58885193D01*
X21351477Y59155183D01*
X21917175Y58705044D01*
X22601193Y58072189D01*
X23177723Y57357073D01*
X23633917Y56583927D01*
X23956927Y55776980D01*
X24133906Y54960465D01*
X24164667Y54466246D01*
X24394726Y54466246D01*
X24402061Y54671180D01*
X24290271Y55475437D01*
X24041398Y56276062D01*
X23658302Y57051811D01*
X23173569Y57745243D01*
X22797175Y58172017D01*
X22354191Y58620295D01*
X21909324Y59026271D01*
X21699147Y59199153D01*
X21453218Y59359750D01*
X21099356Y59551420D01*
X20689476Y59749352D01*
X20275490Y59928736D01*
X19909313Y60064760D01*
X19846667Y60084493D01*
X18928214Y60284479D01*
X17992912Y60341659D01*
X17073442Y60258056D01*
X17073442Y60258056D01*
G37*
X17073442Y60258056D02*
X16202488Y60035696D01*
X15698000Y59827495D01*
X15218417Y59527662D01*
X14741422Y59108505D01*
X14310540Y58615012D01*
X13969296Y58092169D01*
X13912842Y57982333D01*
X13794544Y57733863D01*
X13713991Y57532309D01*
X13664035Y57335412D01*
X13637527Y57100914D01*
X13627319Y56786555D01*
X13626263Y56350077D01*
X13626409Y56289000D01*
X13630975Y55815126D01*
X13645937Y55466182D01*
X13677306Y55197823D01*
X13731095Y54965702D01*
X13813315Y54725473D01*
X13851784Y54626567D01*
X14296796Y53726945D01*
X14890095Y52903347D01*
X15407818Y52357164D01*
X16026475Y51812451D01*
X16627458Y51383633D01*
X17266757Y51037331D01*
X18000362Y50740165D01*
X18280333Y50644682D01*
X18722875Y50539769D01*
X19272419Y50469191D01*
X19869663Y50435402D01*
X20455305Y50440858D01*
X20970041Y50488015D01*
X21169623Y50525058D01*
X21947539Y50782821D01*
X22661669Y51176718D01*
X23284513Y51687273D01*
X23788570Y52295009D01*
X23886345Y52449044D01*
X24202957Y53136740D01*
X24373909Y53884534D01*
X24394726Y54466246D01*
X24164667Y54466246D01*
X24085545Y53673206D01*
X23854498Y52944346D01*
X23481009Y52292637D01*
X22974557Y51731052D01*
X22344624Y51272560D01*
X21600689Y50930133D01*
X21573141Y50920560D01*
X21148321Y50791424D01*
X20869476Y50746612D01*
X20735754Y50786096D01*
X20737849Y50891500D01*
X20772381Y51043575D01*
X20807176Y51312276D01*
X20835714Y51645035D01*
X20840236Y51717000D01*
X20843892Y51844000D01*
X20566102Y51844000D01*
X20558899Y51358793D01*
X20521078Y51020979D01*
X20427833Y50808718D01*
X20254359Y50700172D01*
X19975851Y50673500D01*
X19567504Y50706862D01*
X19310761Y50738731D01*
X19015241Y50782030D01*
X18792113Y50824465D01*
X18688825Y50856984D01*
X18688302Y50857476D01*
X18681952Y50968517D01*
X18738250Y51187952D01*
X18841319Y51474150D01*
X18975285Y51785479D01*
X19124270Y52080308D01*
X19209814Y52225000D01*
X19422757Y52519006D01*
X19667670Y52795879D01*
X19910179Y53022497D01*
X20115908Y53165740D01*
X20220341Y53198667D01*
X20354095Y53117605D01*
X20458650Y52885094D01*
X20529919Y52517144D01*
X20563815Y52029769D01*
X20566102Y51844000D01*
X20843892Y51844000D01*
X20851994Y52125362D01*
X20825534Y52436683D01*
X20752785Y52720553D01*
X20710120Y52838858D01*
X20630066Y53088521D01*
X20600445Y53269796D01*
X20616792Y53330688D01*
X20655495Y53395031D01*
X20014371Y53395031D01*
X19685888Y53131055D01*
X19367806Y52814676D01*
X19047248Y52393201D01*
X18763316Y51925684D01*
X18555114Y51471179D01*
X18521306Y51372331D01*
X18428168Y51123178D01*
X18337949Y50956675D01*
X18286038Y50913701D01*
X18170641Y50946238D01*
X17943939Y51031787D01*
X17649020Y51153809D01*
X17558277Y51193048D01*
X16737514Y51609105D01*
X16021182Y52104942D01*
X15359005Y52717556D01*
X15098318Y53003263D01*
X14668968Y53558684D01*
X14322424Y54138558D01*
X14065567Y54719311D01*
X13905278Y55277365D01*
X13848439Y55789146D01*
X13901930Y56231078D01*
X14059489Y56562447D01*
X14283433Y56822986D01*
X14519828Y56993900D01*
X14814887Y57095860D01*
X15214824Y57149539D01*
X15398201Y57161280D01*
X15783372Y57193551D01*
X16001034Y57235814D01*
X16051254Y57280089D01*
X15934097Y57318392D01*
X15649629Y57342742D01*
X15396670Y57347333D01*
X15056313Y57360145D01*
X14841159Y57394856D01*
X14763443Y57445882D01*
X14835396Y57507639D01*
X14957167Y57547969D01*
X15401768Y57598283D01*
X15878086Y57540460D01*
X16123133Y57463735D01*
X16336247Y57386969D01*
X16470965Y57354506D01*
X16491143Y57357902D01*
X16754574Y57819051D01*
X16869713Y58295097D01*
X16836599Y58758837D01*
X16655271Y59183071D01*
X16488161Y59394127D01*
X16347495Y59547673D01*
X16319113Y59615708D01*
X16396012Y59632904D01*
X16439851Y59633333D01*
X16654426Y59554635D01*
X16851614Y59342295D01*
X17009556Y59031944D01*
X17106397Y58659217D01*
X17121734Y58521694D01*
X17133198Y58238618D01*
X17105833Y58025521D01*
X17020961Y57814147D01*
X16859902Y57536238D01*
X16845806Y57513362D01*
X16640793Y57145240D01*
X16555872Y56871074D01*
X16597874Y56658943D01*
X16773630Y56476922D01*
X17089970Y56293090D01*
X17108946Y56283603D01*
X17807763Y55867039D01*
X18484489Y55335921D01*
X19096402Y54729819D01*
X19600780Y54088300D01*
X19769162Y53819750D01*
X20014371Y53395031D01*
X20655495Y53395031D01*
X20695564Y53461642D01*
X20624342Y53659376D01*
X20406166Y53918179D01*
X20208163Y54098549D01*
X19713187Y54545712D01*
X19238006Y55024030D01*
X18799441Y55512048D01*
X18414315Y55988311D01*
X18099448Y56431365D01*
X17965661Y56659482D01*
X17560232Y56659482D01*
X17504222Y56557111D01*
X17388381Y56502180D01*
X17320127Y56601888D01*
X17306667Y56744300D01*
X17264908Y56959166D01*
X17179667Y57093333D01*
X17067586Y57229627D01*
X17077378Y57325963D01*
X17151833Y57347333D01*
X17327194Y57274633D01*
X17471379Y57096144D01*
X17557891Y56871287D01*
X17560232Y56659482D01*
X17965661Y56659482D01*
X17871663Y56819754D01*
X17747779Y57132024D01*
X17730000Y57259294D01*
X17802284Y57455868D01*
X17999168Y57694606D01*
X18290704Y57948473D01*
X18646942Y58190438D01*
X18933032Y58345177D01*
X19257829Y58484977D01*
X19681731Y58644047D01*
X20139995Y58798907D01*
X20422194Y58885193D01*
X21351477Y59155183D01*
X21917175Y58705044D01*
X22601193Y58072189D01*
X23177723Y57357073D01*
X23633917Y56583927D01*
X23956927Y55776980D01*
X24133906Y54960465D01*
X24164667Y54466246D01*
X24394726Y54466246D01*
X24402061Y54671180D01*
X24290271Y55475437D01*
X24041398Y56276062D01*
X23658302Y57051811D01*
X23173569Y57745243D01*
X22797175Y58172017D01*
X22354191Y58620295D01*
X21909324Y59026271D01*
X21699147Y59199153D01*
X21453218Y59359750D01*
X21099356Y59551420D01*
X20689476Y59749352D01*
X20275490Y59928736D01*
X19909313Y60064760D01*
X19846667Y60084493D01*
X18928214Y60284479D01*
X17992912Y60341659D01*
X17073442Y60258056D01*
G36*
X18809404Y44274981D02*
X18660236Y44273575D01*
X18546201Y44270974D01*
X18463703Y44267027D01*
X18409147Y44261585D01*
X18378938Y44254499D01*
X18370854Y44249208D01*
X18361875Y44222272D01*
X18346577Y44159158D01*
X18326113Y44065358D01*
X18301635Y43946362D01*
X18274297Y43807662D01*
X18245249Y43654749D01*
X18238698Y43619500D01*
X18209363Y43464099D01*
X18181377Y43321629D01*
X18155910Y43197595D01*
X18134130Y43097505D01*
X18117205Y43026864D01*
X18106303Y42991180D01*
X18104830Y42988569D01*
X18095561Y42978146D01*
X18082397Y42967691D01*
X18060527Y42955053D01*
X18025143Y42938085D01*
X17971436Y42914635D01*
X17894597Y42882557D01*
X17789815Y42839699D01*
X17652284Y42783913D01*
X17594944Y42760703D01*
X17481508Y42715729D01*
X17379489Y42677028D01*
X17296261Y42647261D01*
X17239194Y42629088D01*
X17217953Y42624667D01*
X17197575Y42630571D01*
X17160589Y42649326D01*
X17104610Y42682493D01*
X17027249Y42731634D01*
X16926120Y42798311D01*
X16798835Y42884087D01*
X16643008Y42990522D01*
X16456250Y43119180D01*
X16352628Y43190875D01*
X16272863Y43244587D01*
X16204444Y43287813D01*
X16155594Y43315531D01*
X16136007Y43323166D01*
X16115081Y43308717D01*
X16068365Y43267851D01*
X15999795Y43204291D01*
X15913306Y43121762D01*
X15812836Y43023988D01*
X15702320Y42914691D01*
X15668301Y42880719D01*
X15523970Y42734957D01*
X15409998Y42616909D01*
X15325559Y42525660D01*
X15269825Y42460296D01*
X15241969Y42419904D01*
X15238603Y42406028D01*
X15253477Y42380676D01*
X15289230Y42325348D01*
X15342634Y42244866D01*
X15410463Y42144052D01*
X15489489Y42027730D01*
X15576487Y41900724D01*
X15583394Y41890684D01*
X15670767Y41762969D01*
X15750222Y41645421D01*
X15818561Y41542883D01*
X15872585Y41460203D01*
X15909094Y41402225D01*
X15924890Y41373796D01*
X15925155Y41372977D01*
X15919510Y41345018D01*
X15898997Y41284390D01*
X15866051Y41197058D01*
X15823107Y41088989D01*
X15772600Y40966149D01*
X15716966Y40834502D01*
X15658639Y40700017D01*
X15600055Y40568657D01*
X15570184Y40503320D01*
X15559492Y40482382D01*
X15545664Y40464731D01*
X15524212Y40449098D01*
X15490649Y40434214D01*
X15440490Y40418809D01*
X15369245Y40401614D01*
X15272429Y40381360D01*
X15145555Y40356777D01*
X14984134Y40326595D01*
X14872500Y40305948D01*
X14725687Y40278229D01*
X14592017Y40251843D01*
X14477338Y40228036D01*
X14387496Y40208054D01*
X14328336Y40193145D01*
X14306292Y40185205D01*
X14297529Y40157543D01*
X14290348Y40094160D01*
X14284730Y40001636D01*
X14280661Y39886552D01*
X14278123Y39755490D01*
X14277100Y39615031D01*
X14277575Y39471757D01*
X14279531Y39332248D01*
X14282953Y39203086D01*
X14287823Y39090852D01*
X14294124Y39002127D01*
X14301841Y38943493D01*
X14309474Y38922251D01*
X14337464Y38912005D01*
X14401407Y38895557D01*
X14495585Y38874154D01*
X14614277Y38849045D01*
X14751766Y38821477D01*
X14902332Y38792700D01*
X14907433Y38791749D01*
X15086679Y38757803D01*
X15228212Y38729645D01*
X15336105Y38706291D01*
X15414434Y38686756D01*
X15467272Y38670054D01*
X15498693Y38655201D01*
X15509434Y38646225D01*
X15527964Y38614040D01*
X15558232Y38549773D01*
X15597389Y38460533D01*
X15642583Y38353429D01*
X15690962Y38235571D01*
X15739677Y38114068D01*
X15785877Y37996029D01*
X15826709Y37888564D01*
X15859324Y37798781D01*
X15880871Y37733791D01*
X15888500Y37700957D01*
X15884707Y37682719D01*
X15871960Y37653941D01*
X15848214Y37611468D01*
X15811421Y37552144D01*
X15759534Y37472813D01*
X15690505Y37370319D01*
X15602287Y37241507D01*
X15492834Y37083220D01*
X15416381Y36973166D01*
X15354039Y36881901D01*
X15300510Y36800456D01*
X15260576Y36736338D01*
X15239018Y36697054D01*
X15236896Y36691414D01*
X15242836Y36670137D01*
X15269096Y36631616D01*
X15317665Y36573623D01*
X15390531Y36493925D01*
X15489685Y36390294D01*
X15617116Y36260500D01*
X15658152Y36219147D01*
X15785998Y36091094D01*
X15887898Y35990498D01*
X15967284Y35914340D01*
X16027594Y35859602D01*
X16072261Y35823266D01*
X16104723Y35802313D01*
X16128413Y35793725D01*
X16142500Y35793584D01*
X16173858Y35807593D01*
X16234517Y35842653D01*
X16319193Y35895409D01*
X16422598Y35962502D01*
X16539449Y36040576D01*
X16644422Y36112392D01*
X16767889Y36196599D01*
X16881844Y36272130D01*
X16981130Y36335738D01*
X17060586Y36384180D01*
X17115053Y36414209D01*
X17137931Y36422833D01*
X17174631Y36412944D01*
X17237795Y36386296D01*
X17317294Y36347420D01*
X17373333Y36317519D01*
X17456762Y36272687D01*
X17528884Y36236121D01*
X17580131Y36212551D01*
X17597982Y36206394D01*
X17607927Y36207671D01*
X17619616Y36216848D01*
X17634453Y36237016D01*
X17653846Y36271266D01*
X17679199Y36322690D01*
X17711918Y36394379D01*
X17753409Y36489423D01*
X17805079Y36610913D01*
X17868332Y36761942D01*
X17944574Y36945599D01*
X18035212Y37164976D01*
X18047770Y37195416D01*
X18110676Y37347797D01*
X18178768Y37512520D01*
X18246618Y37676466D01*
X18308796Y37826517D01*
X18356535Y37941523D01*
X18400782Y38051083D01*
X18437495Y38147990D01*
X18464174Y38225140D01*
X18478318Y38275431D01*
X18479457Y38290773D01*
X18456665Y38314896D01*
X18408099Y38352010D01*
X18348587Y38391333D01*
X18278825Y38440514D01*
X18194332Y38508822D01*
X18109335Y38584508D01*
X18076612Y38615961D01*
X17925254Y38794331D01*
X17810398Y38992875D01*
X17733228Y39208427D01*
X17694928Y39437821D01*
X17693722Y39639844D01*
X17728866Y39868125D01*
X17801791Y40082233D01*
X17909234Y40278367D01*
X18047933Y40452727D01*
X18214625Y40601513D01*
X18406048Y40720923D01*
X18618938Y40807157D01*
X18718429Y40833578D01*
X18944981Y40864601D01*
X19164853Y40856851D01*
X19374943Y40813483D01*
X19572153Y40737649D01*
X19753382Y40632502D01*
X19915528Y40501195D01*
X20055493Y40346880D01*
X20170176Y40172709D01*
X20256476Y39981837D01*
X20311293Y39777416D01*
X20331527Y39562598D01*
X20314078Y39340537D01*
X20291742Y39233629D01*
X20252079Y39098114D01*
X20203474Y38980630D01*
X20138013Y38864442D01*
X20068595Y38761750D01*
X20003138Y38675686D01*
X19935972Y38602105D01*
X19857350Y38532000D01*
X19757526Y38456364D01*
X19678380Y38401147D01*
X19618813Y38360913D01*
X19576676Y38328967D01*
X19551607Y38298229D01*
X19543246Y38261621D01*
X19551231Y38212063D01*
X19575199Y38142475D01*
X19614790Y38045780D01*
X19655310Y37949317D01*
X19698041Y37846855D01*
X19751779Y37717677D01*
X19813860Y37568217D01*
X19881616Y37404912D01*
X19952384Y37234197D01*
X20023497Y37062509D01*
X20092290Y36896284D01*
X20156097Y36741956D01*
X20212253Y36605963D01*
X20258093Y36494740D01*
X20290950Y36414723D01*
X20296286Y36401666D01*
X20329261Y36323740D01*
X20358589Y36259499D01*
X20378965Y36220438D01*
X20381895Y36216138D01*
X20399941Y36208743D01*
X20435674Y36216314D01*
X20494597Y36240901D01*
X20582209Y36284554D01*
X20623278Y36306096D01*
X20713350Y36352158D01*
X20792454Y36389651D01*
X20851677Y36414539D01*
X20881110Y36422833D01*
X20897910Y36418742D01*
X20926508Y36405169D01*
X20969892Y36380167D01*
X21031052Y36341789D01*
X21112977Y36288088D01*
X21218656Y36217114D01*
X21351079Y36126922D01*
X21513235Y36015564D01*
X21633409Y35932693D01*
X21718256Y35876169D01*
X21793271Y35829965D01*
X21850215Y35798911D01*
X21880525Y35787833D01*
X21904605Y35802258D01*
X21954334Y35843025D01*
X22025597Y35906372D01*
X22114277Y35988540D01*
X22216261Y36085766D01*
X22327431Y36194291D01*
X22353325Y36219916D01*
X22464521Y36330923D01*
X22565238Y36432786D01*
X22651709Y36521588D01*
X22720167Y36593416D01*
X22766847Y36644353D01*
X22787981Y36670485D01*
X22788834Y36672624D01*
X22777637Y36699627D01*
X22748410Y36749797D01*
X22711186Y36806750D01*
X22675175Y36859305D01*
X22620259Y36939350D01*
X22551513Y37039488D01*
X22474015Y37152324D01*
X22392843Y37270462D01*
X22380457Y37288484D01*
X22304839Y37400567D01*
X22238260Y37503194D01*
X22184305Y37590509D01*
X22146562Y37656657D01*
X22128618Y37695781D01*
X22127630Y37701234D01*
X22135350Y37732995D01*
X22156865Y37797797D01*
X22189930Y37889503D01*
X22232299Y38001978D01*
X22281728Y38129086D01*
X22312019Y38205278D01*
X22379302Y38370403D01*
X22433775Y38497729D01*
X22476481Y38589458D01*
X22508460Y38647795D01*
X22530755Y38674943D01*
X22535021Y38677142D01*
X22565612Y38684233D01*
X22631917Y38697900D01*
X22728032Y38716983D01*
X22848049Y38740321D01*
X22986064Y38766756D01*
X23129578Y38793890D01*
X23277959Y38822291D01*
X23412730Y38849083D01*
X23528262Y38873066D01*
X23618925Y38893040D01*
X23679089Y38907806D01*
X23703039Y38916072D01*
X23707328Y38940967D01*
X23710873Y39002817D01*
X23713575Y39096247D01*
X23715333Y39215883D01*
X23716047Y39356353D01*
X23715618Y39512281D01*
X23715196Y39567462D01*
X23709584Y40201083D01*
X23106334Y40314073D01*
X22951104Y40343812D01*
X22808942Y40372316D01*
X22685322Y40398387D01*
X22585719Y40420827D01*
X22515609Y40438435D01*
X22480464Y40450015D01*
X22477946Y40451656D01*
X22461454Y40478960D01*
X22432157Y40538398D01*
X22393074Y40622922D01*
X22347224Y40725483D01*
X22297624Y40839034D01*
X22247294Y40956524D01*
X22199252Y41070905D01*
X22156517Y41175129D01*
X22122108Y41262146D01*
X22099043Y41324909D01*
X22090341Y41356369D01*
X22090334Y41356749D01*
X22101942Y41382676D01*
X22134752Y41438619D01*
X22185746Y41519878D01*
X22251904Y41621752D01*
X22330206Y41739538D01*
X22417633Y41868536D01*
X22439584Y41900562D01*
X22528523Y42030629D01*
X22609112Y42149607D01*
X22678355Y42252983D01*
X22733257Y42336246D01*
X22770821Y42394882D01*
X22788053Y42424379D01*
X22788834Y42426699D01*
X22774298Y42447335D01*
X22733750Y42492679D01*
X22671782Y42558189D01*
X22592983Y42639322D01*
X22501943Y42731536D01*
X22403254Y42830286D01*
X22301506Y42931032D01*
X22201289Y43029229D01*
X22107193Y43120335D01*
X22023810Y43199808D01*
X21955729Y43263105D01*
X21907541Y43305683D01*
X21883836Y43322999D01*
X21882951Y43323167D01*
X21858985Y43311589D01*
X21804877Y43278861D01*
X21725246Y43227991D01*
X21624713Y43161985D01*
X21507900Y43083851D01*
X21379427Y42996596D01*
X21346330Y42973917D01*
X21214725Y42884633D01*
X21092591Y42803779D01*
X20984745Y42734388D01*
X20896005Y42679490D01*
X20831189Y42642119D01*
X20795115Y42625307D01*
X20791382Y42624667D01*
X20753785Y42632562D01*
X20687356Y42653961D01*
X20602059Y42685428D01*
X20523481Y42716978D01*
X20406812Y42765401D01*
X20278537Y42818404D01*
X20158816Y42867667D01*
X20107276Y42888780D01*
X20023061Y42925998D01*
X19954286Y42961631D01*
X19910216Y42990596D01*
X19899413Y43002843D01*
X19892181Y43031922D01*
X19878348Y43097033D01*
X19859027Y43192586D01*
X19835327Y43312988D01*
X19808360Y43452647D01*
X19779238Y43605971D01*
X19773189Y43638124D01*
X19737501Y43823458D01*
X19705648Y43979456D01*
X19678242Y44103432D01*
X19655898Y44192700D01*
X19639228Y44244576D01*
X19631802Y44256925D01*
X19603957Y44261595D01*
X19539413Y44265840D01*
X19443805Y44269497D01*
X19322767Y44272403D01*
X19181932Y44274393D01*
X19026934Y44275305D01*
X18997301Y44275342D01*
X18809404Y44274981D01*
X18809404Y44274981D01*
G37*
X18809404Y44274981D02*
X18660236Y44273575D01*
X18546201Y44270974D01*
X18463703Y44267027D01*
X18409147Y44261585D01*
X18378938Y44254499D01*
X18370854Y44249208D01*
X18361875Y44222272D01*
X18346577Y44159158D01*
X18326113Y44065358D01*
X18301635Y43946362D01*
X18274297Y43807662D01*
X18245249Y43654749D01*
X18238698Y43619500D01*
X18209363Y43464099D01*
X18181377Y43321629D01*
X18155910Y43197595D01*
X18134130Y43097505D01*
X18117205Y43026864D01*
X18106303Y42991180D01*
X18104830Y42988569D01*
X18095561Y42978146D01*
X18082397Y42967691D01*
X18060527Y42955053D01*
X18025143Y42938085D01*
X17971436Y42914635D01*
X17894597Y42882557D01*
X17789815Y42839699D01*
X17652284Y42783913D01*
X17594944Y42760703D01*
X17481508Y42715729D01*
X17379489Y42677028D01*
X17296261Y42647261D01*
X17239194Y42629088D01*
X17217953Y42624667D01*
X17197575Y42630571D01*
X17160589Y42649326D01*
X17104610Y42682493D01*
X17027249Y42731634D01*
X16926120Y42798311D01*
X16798835Y42884087D01*
X16643008Y42990522D01*
X16456250Y43119180D01*
X16352628Y43190875D01*
X16272863Y43244587D01*
X16204444Y43287813D01*
X16155594Y43315531D01*
X16136007Y43323166D01*
X16115081Y43308717D01*
X16068365Y43267851D01*
X15999795Y43204291D01*
X15913306Y43121762D01*
X15812836Y43023988D01*
X15702320Y42914691D01*
X15668301Y42880719D01*
X15523970Y42734957D01*
X15409998Y42616909D01*
X15325559Y42525660D01*
X15269825Y42460296D01*
X15241969Y42419904D01*
X15238603Y42406028D01*
X15253477Y42380676D01*
X15289230Y42325348D01*
X15342634Y42244866D01*
X15410463Y42144052D01*
X15489489Y42027730D01*
X15576487Y41900724D01*
X15583394Y41890684D01*
X15670767Y41762969D01*
X15750222Y41645421D01*
X15818561Y41542883D01*
X15872585Y41460203D01*
X15909094Y41402225D01*
X15924890Y41373796D01*
X15925155Y41372977D01*
X15919510Y41345018D01*
X15898997Y41284390D01*
X15866051Y41197058D01*
X15823107Y41088989D01*
X15772600Y40966149D01*
X15716966Y40834502D01*
X15658639Y40700017D01*
X15600055Y40568657D01*
X15570184Y40503320D01*
X15559492Y40482382D01*
X15545664Y40464731D01*
X15524212Y40449098D01*
X15490649Y40434214D01*
X15440490Y40418809D01*
X15369245Y40401614D01*
X15272429Y40381360D01*
X15145555Y40356777D01*
X14984134Y40326595D01*
X14872500Y40305948D01*
X14725687Y40278229D01*
X14592017Y40251843D01*
X14477338Y40228036D01*
X14387496Y40208054D01*
X14328336Y40193145D01*
X14306292Y40185205D01*
X14297529Y40157543D01*
X14290348Y40094160D01*
X14284730Y40001636D01*
X14280661Y39886552D01*
X14278123Y39755490D01*
X14277100Y39615031D01*
X14277575Y39471757D01*
X14279531Y39332248D01*
X14282953Y39203086D01*
X14287823Y39090852D01*
X14294124Y39002127D01*
X14301841Y38943493D01*
X14309474Y38922251D01*
X14337464Y38912005D01*
X14401407Y38895557D01*
X14495585Y38874154D01*
X14614277Y38849045D01*
X14751766Y38821477D01*
X14902332Y38792700D01*
X14907433Y38791749D01*
X15086679Y38757803D01*
X15228212Y38729645D01*
X15336105Y38706291D01*
X15414434Y38686756D01*
X15467272Y38670054D01*
X15498693Y38655201D01*
X15509434Y38646225D01*
X15527964Y38614040D01*
X15558232Y38549773D01*
X15597389Y38460533D01*
X15642583Y38353429D01*
X15690962Y38235571D01*
X15739677Y38114068D01*
X15785877Y37996029D01*
X15826709Y37888564D01*
X15859324Y37798781D01*
X15880871Y37733791D01*
X15888500Y37700957D01*
X15884707Y37682719D01*
X15871960Y37653941D01*
X15848214Y37611468D01*
X15811421Y37552144D01*
X15759534Y37472813D01*
X15690505Y37370319D01*
X15602287Y37241507D01*
X15492834Y37083220D01*
X15416381Y36973166D01*
X15354039Y36881901D01*
X15300510Y36800456D01*
X15260576Y36736338D01*
X15239018Y36697054D01*
X15236896Y36691414D01*
X15242836Y36670137D01*
X15269096Y36631616D01*
X15317665Y36573623D01*
X15390531Y36493925D01*
X15489685Y36390294D01*
X15617116Y36260500D01*
X15658152Y36219147D01*
X15785998Y36091094D01*
X15887898Y35990498D01*
X15967284Y35914340D01*
X16027594Y35859602D01*
X16072261Y35823266D01*
X16104723Y35802313D01*
X16128413Y35793725D01*
X16142500Y35793584D01*
X16173858Y35807593D01*
X16234517Y35842653D01*
X16319193Y35895409D01*
X16422598Y35962502D01*
X16539449Y36040576D01*
X16644422Y36112392D01*
X16767889Y36196599D01*
X16881844Y36272130D01*
X16981130Y36335738D01*
X17060586Y36384180D01*
X17115053Y36414209D01*
X17137931Y36422833D01*
X17174631Y36412944D01*
X17237795Y36386296D01*
X17317294Y36347420D01*
X17373333Y36317519D01*
X17456762Y36272687D01*
X17528884Y36236121D01*
X17580131Y36212551D01*
X17597982Y36206394D01*
X17607927Y36207671D01*
X17619616Y36216848D01*
X17634453Y36237016D01*
X17653846Y36271266D01*
X17679199Y36322690D01*
X17711918Y36394379D01*
X17753409Y36489423D01*
X17805079Y36610913D01*
X17868332Y36761942D01*
X17944574Y36945599D01*
X18035212Y37164976D01*
X18047770Y37195416D01*
X18110676Y37347797D01*
X18178768Y37512520D01*
X18246618Y37676466D01*
X18308796Y37826517D01*
X18356535Y37941523D01*
X18400782Y38051083D01*
X18437495Y38147990D01*
X18464174Y38225140D01*
X18478318Y38275431D01*
X18479457Y38290773D01*
X18456665Y38314896D01*
X18408099Y38352010D01*
X18348587Y38391333D01*
X18278825Y38440514D01*
X18194332Y38508822D01*
X18109335Y38584508D01*
X18076612Y38615961D01*
X17925254Y38794331D01*
X17810398Y38992875D01*
X17733228Y39208427D01*
X17694928Y39437821D01*
X17693722Y39639844D01*
X17728866Y39868125D01*
X17801791Y40082233D01*
X17909234Y40278367D01*
X18047933Y40452727D01*
X18214625Y40601513D01*
X18406048Y40720923D01*
X18618938Y40807157D01*
X18718429Y40833578D01*
X18944981Y40864601D01*
X19164853Y40856851D01*
X19374943Y40813483D01*
X19572153Y40737649D01*
X19753382Y40632502D01*
X19915528Y40501195D01*
X20055493Y40346880D01*
X20170176Y40172709D01*
X20256476Y39981837D01*
X20311293Y39777416D01*
X20331527Y39562598D01*
X20314078Y39340537D01*
X20291742Y39233629D01*
X20252079Y39098114D01*
X20203474Y38980630D01*
X20138013Y38864442D01*
X20068595Y38761750D01*
X20003138Y38675686D01*
X19935972Y38602105D01*
X19857350Y38532000D01*
X19757526Y38456364D01*
X19678380Y38401147D01*
X19618813Y38360913D01*
X19576676Y38328967D01*
X19551607Y38298229D01*
X19543246Y38261621D01*
X19551231Y38212063D01*
X19575199Y38142475D01*
X19614790Y38045780D01*
X19655310Y37949317D01*
X19698041Y37846855D01*
X19751779Y37717677D01*
X19813860Y37568217D01*
X19881616Y37404912D01*
X19952384Y37234197D01*
X20023497Y37062509D01*
X20092290Y36896284D01*
X20156097Y36741956D01*
X20212253Y36605963D01*
X20258093Y36494740D01*
X20290950Y36414723D01*
X20296286Y36401666D01*
X20329261Y36323740D01*
X20358589Y36259499D01*
X20378965Y36220438D01*
X20381895Y36216138D01*
X20399941Y36208743D01*
X20435674Y36216314D01*
X20494597Y36240901D01*
X20582209Y36284554D01*
X20623278Y36306096D01*
X20713350Y36352158D01*
X20792454Y36389651D01*
X20851677Y36414539D01*
X20881110Y36422833D01*
X20897910Y36418742D01*
X20926508Y36405169D01*
X20969892Y36380167D01*
X21031052Y36341789D01*
X21112977Y36288088D01*
X21218656Y36217114D01*
X21351079Y36126922D01*
X21513235Y36015564D01*
X21633409Y35932693D01*
X21718256Y35876169D01*
X21793271Y35829965D01*
X21850215Y35798911D01*
X21880525Y35787833D01*
X21904605Y35802258D01*
X21954334Y35843025D01*
X22025597Y35906372D01*
X22114277Y35988540D01*
X22216261Y36085766D01*
X22327431Y36194291D01*
X22353325Y36219916D01*
X22464521Y36330923D01*
X22565238Y36432786D01*
X22651709Y36521588D01*
X22720167Y36593416D01*
X22766847Y36644353D01*
X22787981Y36670485D01*
X22788834Y36672624D01*
X22777637Y36699627D01*
X22748410Y36749797D01*
X22711186Y36806750D01*
X22675175Y36859305D01*
X22620259Y36939350D01*
X22551513Y37039488D01*
X22474015Y37152324D01*
X22392843Y37270462D01*
X22380457Y37288484D01*
X22304839Y37400567D01*
X22238260Y37503194D01*
X22184305Y37590509D01*
X22146562Y37656657D01*
X22128618Y37695781D01*
X22127630Y37701234D01*
X22135350Y37732995D01*
X22156865Y37797797D01*
X22189930Y37889503D01*
X22232299Y38001978D01*
X22281728Y38129086D01*
X22312019Y38205278D01*
X22379302Y38370403D01*
X22433775Y38497729D01*
X22476481Y38589458D01*
X22508460Y38647795D01*
X22530755Y38674943D01*
X22535021Y38677142D01*
X22565612Y38684233D01*
X22631917Y38697900D01*
X22728032Y38716983D01*
X22848049Y38740321D01*
X22986064Y38766756D01*
X23129578Y38793890D01*
X23277959Y38822291D01*
X23412730Y38849083D01*
X23528262Y38873066D01*
X23618925Y38893040D01*
X23679089Y38907806D01*
X23703039Y38916072D01*
X23707328Y38940967D01*
X23710873Y39002817D01*
X23713575Y39096247D01*
X23715333Y39215883D01*
X23716047Y39356353D01*
X23715618Y39512281D01*
X23715196Y39567462D01*
X23709584Y40201083D01*
X23106334Y40314073D01*
X22951104Y40343812D01*
X22808942Y40372316D01*
X22685322Y40398387D01*
X22585719Y40420827D01*
X22515609Y40438435D01*
X22480464Y40450015D01*
X22477946Y40451656D01*
X22461454Y40478960D01*
X22432157Y40538398D01*
X22393074Y40622922D01*
X22347224Y40725483D01*
X22297624Y40839034D01*
X22247294Y40956524D01*
X22199252Y41070905D01*
X22156517Y41175129D01*
X22122108Y41262146D01*
X22099043Y41324909D01*
X22090341Y41356369D01*
X22090334Y41356749D01*
X22101942Y41382676D01*
X22134752Y41438619D01*
X22185746Y41519878D01*
X22251904Y41621752D01*
X22330206Y41739538D01*
X22417633Y41868536D01*
X22439584Y41900562D01*
X22528523Y42030629D01*
X22609112Y42149607D01*
X22678355Y42252983D01*
X22733257Y42336246D01*
X22770821Y42394882D01*
X22788053Y42424379D01*
X22788834Y42426699D01*
X22774298Y42447335D01*
X22733750Y42492679D01*
X22671782Y42558189D01*
X22592983Y42639322D01*
X22501943Y42731536D01*
X22403254Y42830286D01*
X22301506Y42931032D01*
X22201289Y43029229D01*
X22107193Y43120335D01*
X22023810Y43199808D01*
X21955729Y43263105D01*
X21907541Y43305683D01*
X21883836Y43322999D01*
X21882951Y43323167D01*
X21858985Y43311589D01*
X21804877Y43278861D01*
X21725246Y43227991D01*
X21624713Y43161985D01*
X21507900Y43083851D01*
X21379427Y42996596D01*
X21346330Y42973917D01*
X21214725Y42884633D01*
X21092591Y42803779D01*
X20984745Y42734388D01*
X20896005Y42679490D01*
X20831189Y42642119D01*
X20795115Y42625307D01*
X20791382Y42624667D01*
X20753785Y42632562D01*
X20687356Y42653961D01*
X20602059Y42685428D01*
X20523481Y42716978D01*
X20406812Y42765401D01*
X20278537Y42818404D01*
X20158816Y42867667D01*
X20107276Y42888780D01*
X20023061Y42925998D01*
X19954286Y42961631D01*
X19910216Y42990596D01*
X19899413Y43002843D01*
X19892181Y43031922D01*
X19878348Y43097033D01*
X19859027Y43192586D01*
X19835327Y43312988D01*
X19808360Y43452647D01*
X19779238Y43605971D01*
X19773189Y43638124D01*
X19737501Y43823458D01*
X19705648Y43979456D01*
X19678242Y44103432D01*
X19655898Y44192700D01*
X19639228Y44244576D01*
X19631802Y44256925D01*
X19603957Y44261595D01*
X19539413Y44265840D01*
X19443805Y44269497D01*
X19322767Y44272403D01*
X19181932Y44274393D01*
X19026934Y44275305D01*
X18997301Y44275342D01*
X18809404Y44274981D01*
G04 #@! TO.C,F1*
D18*
X3911666Y21545358D02*
X4123333Y21545358D01*
X4123333Y21212739D02*
X4123333Y21847739D01*
X3820952Y21847739D01*
X3246428Y21212739D02*
X3609285Y21212739D01*
X3427857Y21212739D02*
X3427857Y21847739D01*
X3488333Y21757024D01*
X3548809Y21696548D01*
X3609285Y21666310D01*
G04 #@! TO.C,U4*
X33098561Y30040010D02*
X33612609Y30040010D01*
X33673085Y30009772D01*
X33703323Y29979534D01*
X33733561Y29919058D01*
X33733561Y29798105D01*
X33703323Y29737629D01*
X33673085Y29707391D01*
X33612609Y29677153D01*
X33098561Y29677153D01*
X33310228Y29102629D02*
X33733561Y29102629D01*
X33068323Y29253820D02*
X33521895Y29405010D01*
X33521895Y29011915D01*
G04 #@! TO.C,C14*
X8576785Y30808215D02*
X8607023Y30838453D01*
X8637261Y30929167D01*
X8637261Y30989643D01*
X8607023Y31080358D01*
X8546547Y31140834D01*
X8486071Y31171072D01*
X8365119Y31201310D01*
X8274404Y31201310D01*
X8153452Y31171072D01*
X8092976Y31140834D01*
X8032500Y31080358D01*
X8002261Y30989643D01*
X8002261Y30929167D01*
X8032500Y30838453D01*
X8062738Y30808215D01*
X8637261Y30203453D02*
X8637261Y30566310D01*
X8637261Y30384881D02*
X8002261Y30384881D01*
X8092976Y30445358D01*
X8153452Y30505834D01*
X8183690Y30566310D01*
X8213928Y29659167D02*
X8637261Y29659167D01*
X7972023Y29810358D02*
X8425595Y29961548D01*
X8425595Y29568453D01*
G04 #@! TO.C,C20*
X32258214Y27273215D02*
X32288452Y27242977D01*
X32379166Y27212739D01*
X32439642Y27212739D01*
X32530357Y27242977D01*
X32590833Y27303453D01*
X32621071Y27363929D01*
X32651309Y27484881D01*
X32651309Y27575596D01*
X32621071Y27696548D01*
X32590833Y27757024D01*
X32530357Y27817500D01*
X32439642Y27847739D01*
X32379166Y27847739D01*
X32288452Y27817500D01*
X32258214Y27787262D01*
X32016309Y27787262D02*
X31986071Y27817500D01*
X31925595Y27847739D01*
X31774404Y27847739D01*
X31713928Y27817500D01*
X31683690Y27787262D01*
X31653452Y27726786D01*
X31653452Y27666310D01*
X31683690Y27575596D01*
X32046547Y27212739D01*
X31653452Y27212739D01*
X31260357Y27847739D02*
X31199880Y27847739D01*
X31139404Y27817500D01*
X31109166Y27787262D01*
X31078928Y27726786D01*
X31048690Y27605834D01*
X31048690Y27454643D01*
X31078928Y27333691D01*
X31109166Y27273215D01*
X31139404Y27242977D01*
X31199880Y27212739D01*
X31260357Y27212739D01*
X31320833Y27242977D01*
X31351071Y27273215D01*
X31381309Y27333691D01*
X31411547Y27454643D01*
X31411547Y27605834D01*
X31381309Y27726786D01*
X31351071Y27787262D01*
X31320833Y27817500D01*
X31260357Y27847739D01*
G04 #@! TO.C,C21*
X28025985Y9058715D02*
X28056223Y9088953D01*
X28086461Y9179667D01*
X28086461Y9240143D01*
X28056223Y9330858D01*
X27995747Y9391334D01*
X27935271Y9421572D01*
X27814319Y9451810D01*
X27723604Y9451810D01*
X27602652Y9421572D01*
X27542176Y9391334D01*
X27481700Y9330858D01*
X27451461Y9240143D01*
X27451461Y9179667D01*
X27481700Y9088953D01*
X27511938Y9058715D01*
X27511938Y8816810D02*
X27481700Y8786572D01*
X27451461Y8726096D01*
X27451461Y8574905D01*
X27481700Y8514429D01*
X27511938Y8484191D01*
X27572414Y8453953D01*
X27632890Y8453953D01*
X27723604Y8484191D01*
X28086461Y8847048D01*
X28086461Y8453953D01*
X28086461Y7849191D02*
X28086461Y8212048D01*
X28086461Y8030620D02*
X27451461Y8030620D01*
X27542176Y8091096D01*
X27602652Y8151572D01*
X27632890Y8212048D01*
G04 #@! TO.C,C22*
X32258214Y33898215D02*
X32288452Y33867977D01*
X32379166Y33837739D01*
X32439642Y33837739D01*
X32530357Y33867977D01*
X32590833Y33928453D01*
X32621071Y33988929D01*
X32651309Y34109881D01*
X32651309Y34200596D01*
X32621071Y34321548D01*
X32590833Y34382024D01*
X32530357Y34442500D01*
X32439642Y34472739D01*
X32379166Y34472739D01*
X32288452Y34442500D01*
X32258214Y34412262D01*
X32016309Y34412262D02*
X31986071Y34442500D01*
X31925595Y34472739D01*
X31774404Y34472739D01*
X31713928Y34442500D01*
X31683690Y34412262D01*
X31653452Y34351786D01*
X31653452Y34291310D01*
X31683690Y34200596D01*
X32046547Y33837739D01*
X31653452Y33837739D01*
X31411547Y34412262D02*
X31381309Y34442500D01*
X31320833Y34472739D01*
X31169642Y34472739D01*
X31109166Y34442500D01*
X31078928Y34412262D01*
X31048690Y34351786D01*
X31048690Y34291310D01*
X31078928Y34200596D01*
X31441785Y33837739D01*
X31048690Y33837739D01*
G04 #@! TO.C,C23*
X8126785Y45883215D02*
X8157023Y45913453D01*
X8187261Y46004167D01*
X8187261Y46064643D01*
X8157023Y46155358D01*
X8096547Y46215834D01*
X8036071Y46246072D01*
X7915119Y46276310D01*
X7824404Y46276310D01*
X7703452Y46246072D01*
X7642976Y46215834D01*
X7582500Y46155358D01*
X7552261Y46064643D01*
X7552261Y46004167D01*
X7582500Y45913453D01*
X7612738Y45883215D01*
X7612738Y45641310D02*
X7582500Y45611072D01*
X7552261Y45550596D01*
X7552261Y45399405D01*
X7582500Y45338929D01*
X7612738Y45308691D01*
X7673214Y45278453D01*
X7733690Y45278453D01*
X7824404Y45308691D01*
X8187261Y45671548D01*
X8187261Y45278453D01*
X7552261Y45066786D02*
X7552261Y44673691D01*
X7794166Y44885358D01*
X7794166Y44794643D01*
X7824404Y44734167D01*
X7854642Y44703929D01*
X7915119Y44673691D01*
X8066309Y44673691D01*
X8126785Y44703929D01*
X8157023Y44734167D01*
X8187261Y44794643D01*
X8187261Y44976072D01*
X8157023Y45036548D01*
X8126785Y45066786D01*
G04 #@! TO.C,C24*
X8076785Y43408215D02*
X8107023Y43438453D01*
X8137261Y43529167D01*
X8137261Y43589643D01*
X8107023Y43680358D01*
X8046547Y43740834D01*
X7986071Y43771072D01*
X7865119Y43801310D01*
X7774404Y43801310D01*
X7653452Y43771072D01*
X7592976Y43740834D01*
X7532500Y43680358D01*
X7502261Y43589643D01*
X7502261Y43529167D01*
X7532500Y43438453D01*
X7562738Y43408215D01*
X7562738Y43166310D02*
X7532500Y43136072D01*
X7502261Y43075596D01*
X7502261Y42924405D01*
X7532500Y42863929D01*
X7562738Y42833691D01*
X7623214Y42803453D01*
X7683690Y42803453D01*
X7774404Y42833691D01*
X8137261Y43196548D01*
X8137261Y42803453D01*
X7713928Y42259167D02*
X8137261Y42259167D01*
X7472023Y42410358D02*
X7925595Y42561548D01*
X7925595Y42168453D01*
G04 #@! TO.C,C25*
X8026785Y41008215D02*
X8057023Y41038453D01*
X8087261Y41129167D01*
X8087261Y41189643D01*
X8057023Y41280358D01*
X7996547Y41340834D01*
X7936071Y41371072D01*
X7815119Y41401310D01*
X7724404Y41401310D01*
X7603452Y41371072D01*
X7542976Y41340834D01*
X7482500Y41280358D01*
X7452261Y41189643D01*
X7452261Y41129167D01*
X7482500Y41038453D01*
X7512738Y41008215D01*
X7512738Y40766310D02*
X7482500Y40736072D01*
X7452261Y40675596D01*
X7452261Y40524405D01*
X7482500Y40463929D01*
X7512738Y40433691D01*
X7573214Y40403453D01*
X7633690Y40403453D01*
X7724404Y40433691D01*
X8087261Y40796548D01*
X8087261Y40403453D01*
X7452261Y39828929D02*
X7452261Y40131310D01*
X7754642Y40161548D01*
X7724404Y40131310D01*
X7694166Y40070834D01*
X7694166Y39919643D01*
X7724404Y39859167D01*
X7754642Y39828929D01*
X7815119Y39798691D01*
X7966309Y39798691D01*
X8026785Y39828929D01*
X8057023Y39859167D01*
X8087261Y39919643D01*
X8087261Y40070834D01*
X8057023Y40131310D01*
X8026785Y40161548D01*
G04 #@! TO.C,C26*
X8001785Y38254215D02*
X8032023Y38284453D01*
X8062261Y38375167D01*
X8062261Y38435643D01*
X8032023Y38526358D01*
X7971547Y38586834D01*
X7911071Y38617072D01*
X7790119Y38647310D01*
X7699404Y38647310D01*
X7578452Y38617072D01*
X7517976Y38586834D01*
X7457500Y38526358D01*
X7427261Y38435643D01*
X7427261Y38375167D01*
X7457500Y38284453D01*
X7487738Y38254215D01*
X7487738Y38012310D02*
X7457500Y37982072D01*
X7427261Y37921596D01*
X7427261Y37770405D01*
X7457500Y37709929D01*
X7487738Y37679691D01*
X7548214Y37649453D01*
X7608690Y37649453D01*
X7699404Y37679691D01*
X8062261Y38042548D01*
X8062261Y37649453D01*
X7427261Y37105167D02*
X7427261Y37226120D01*
X7457500Y37286596D01*
X7487738Y37316834D01*
X7578452Y37377310D01*
X7699404Y37407548D01*
X7941309Y37407548D01*
X8001785Y37377310D01*
X8032023Y37347072D01*
X8062261Y37286596D01*
X8062261Y37165643D01*
X8032023Y37105167D01*
X8001785Y37074929D01*
X7941309Y37044691D01*
X7790119Y37044691D01*
X7729642Y37074929D01*
X7699404Y37105167D01*
X7669166Y37165643D01*
X7669166Y37286596D01*
X7699404Y37347072D01*
X7729642Y37377310D01*
X7790119Y37407548D01*
G04 #@! TO.C,R19*
X24958214Y44512739D02*
X25169880Y44815120D01*
X25321071Y44512739D02*
X25321071Y45147739D01*
X25079166Y45147739D01*
X25018690Y45117500D01*
X24988452Y45087262D01*
X24958214Y45026786D01*
X24958214Y44936072D01*
X24988452Y44875596D01*
X25018690Y44845358D01*
X25079166Y44815120D01*
X25321071Y44815120D01*
X24353452Y44512739D02*
X24716309Y44512739D01*
X24534880Y44512739D02*
X24534880Y45147739D01*
X24595357Y45057024D01*
X24655833Y44996548D01*
X24716309Y44966310D01*
X24051071Y44512739D02*
X23930119Y44512739D01*
X23869642Y44542977D01*
X23839404Y44573215D01*
X23778928Y44663929D01*
X23748690Y44784881D01*
X23748690Y45026786D01*
X23778928Y45087262D01*
X23809166Y45117500D01*
X23869642Y45147739D01*
X23990595Y45147739D01*
X24051071Y45117500D01*
X24081309Y45087262D01*
X24111547Y45026786D01*
X24111547Y44875596D01*
X24081309Y44815120D01*
X24051071Y44784881D01*
X23990595Y44754643D01*
X23869642Y44754643D01*
X23809166Y44784881D01*
X23778928Y44815120D01*
X23748690Y44875596D01*
G04 #@! TO.C,R20*
X25000514Y43574639D02*
X25212180Y43877020D01*
X25363371Y43574639D02*
X25363371Y44209639D01*
X25121466Y44209639D01*
X25060990Y44179400D01*
X25030752Y44149162D01*
X25000514Y44088686D01*
X25000514Y43997972D01*
X25030752Y43937496D01*
X25060990Y43907258D01*
X25121466Y43877020D01*
X25363371Y43877020D01*
X24758609Y44149162D02*
X24728371Y44179400D01*
X24667895Y44209639D01*
X24516704Y44209639D01*
X24456228Y44179400D01*
X24425990Y44149162D01*
X24395752Y44088686D01*
X24395752Y44028210D01*
X24425990Y43937496D01*
X24788847Y43574639D01*
X24395752Y43574639D01*
X24002657Y44209639D02*
X23942180Y44209639D01*
X23881704Y44179400D01*
X23851466Y44149162D01*
X23821228Y44088686D01*
X23790990Y43967734D01*
X23790990Y43816543D01*
X23821228Y43695591D01*
X23851466Y43635115D01*
X23881704Y43604877D01*
X23942180Y43574639D01*
X24002657Y43574639D01*
X24063133Y43604877D01*
X24093371Y43635115D01*
X24123609Y43695591D01*
X24153847Y43816543D01*
X24153847Y43967734D01*
X24123609Y44088686D01*
X24093371Y44149162D01*
X24063133Y44179400D01*
X24002657Y44209639D01*
G04 #@! TO.C,R23*
X10462261Y28683215D02*
X10159880Y28894881D01*
X10462261Y29046072D02*
X9827261Y29046072D01*
X9827261Y28804167D01*
X9857500Y28743691D01*
X9887738Y28713453D01*
X9948214Y28683215D01*
X10038928Y28683215D01*
X10099404Y28713453D01*
X10129642Y28743691D01*
X10159880Y28804167D01*
X10159880Y29046072D01*
X9887738Y28441310D02*
X9857500Y28411072D01*
X9827261Y28350596D01*
X9827261Y28199405D01*
X9857500Y28138929D01*
X9887738Y28108691D01*
X9948214Y28078453D01*
X10008690Y28078453D01*
X10099404Y28108691D01*
X10462261Y28471548D01*
X10462261Y28078453D01*
X9827261Y27866786D02*
X9827261Y27473691D01*
X10069166Y27685358D01*
X10069166Y27594643D01*
X10099404Y27534167D01*
X10129642Y27503929D01*
X10190119Y27473691D01*
X10341309Y27473691D01*
X10401785Y27503929D01*
X10432023Y27534167D01*
X10462261Y27594643D01*
X10462261Y27776072D01*
X10432023Y27836548D01*
X10401785Y27866786D01*
G04 #@! TO.C,IC1*
D10*
X26576190Y33947620D02*
X26576190Y34947620D01*
X25528571Y34042858D02*
X25576190Y33995239D01*
X25719047Y33947620D01*
X25814285Y33947620D01*
X25957142Y33995239D01*
X26052380Y34090477D01*
X26100000Y34185715D01*
X26147619Y34376191D01*
X26147619Y34519048D01*
X26100000Y34709524D01*
X26052380Y34804762D01*
X25957142Y34900000D01*
X25814285Y34947620D01*
X25719047Y34947620D01*
X25576190Y34900000D01*
X25528571Y34852381D01*
X24576190Y33947620D02*
X25147619Y33947620D01*
X24861904Y33947620D02*
X24861904Y34947620D01*
X24957142Y34804762D01*
X25052380Y34709524D01*
X25147619Y34661905D01*
G04 #@! TO.C,Y1*
D18*
X16742380Y18795120D02*
X16742380Y18492739D01*
X16954047Y19127739D02*
X16742380Y18795120D01*
X16530714Y19127739D01*
X15986428Y18492739D02*
X16349285Y18492739D01*
X16167857Y18492739D02*
X16167857Y19127739D01*
X16228333Y19037024D01*
X16288809Y18976548D01*
X16349285Y18946310D01*
G04 #@! TO.C,Y2*
X10602380Y19115120D02*
X10602380Y18812739D01*
X10814047Y19447739D02*
X10602380Y19115120D01*
X10390714Y19447739D01*
X10209285Y19387262D02*
X10179047Y19417500D01*
X10118571Y19447739D01*
X9967380Y19447739D01*
X9906904Y19417500D01*
X9876666Y19387262D01*
X9846428Y19326786D01*
X9846428Y19266310D01*
X9876666Y19175596D01*
X10239523Y18812739D01*
X9846428Y18812739D01*
G04 #@! TO.C,C34*
X32808214Y12613215D02*
X32838452Y12582977D01*
X32929166Y12552739D01*
X32989642Y12552739D01*
X33080357Y12582977D01*
X33140833Y12643453D01*
X33171071Y12703929D01*
X33201309Y12824881D01*
X33201309Y12915596D01*
X33171071Y13036548D01*
X33140833Y13097024D01*
X33080357Y13157500D01*
X32989642Y13187739D01*
X32929166Y13187739D01*
X32838452Y13157500D01*
X32808214Y13127262D01*
X32596547Y13187739D02*
X32203452Y13187739D01*
X32415119Y12945834D01*
X32324404Y12945834D01*
X32263928Y12915596D01*
X32233690Y12885358D01*
X32203452Y12824881D01*
X32203452Y12673691D01*
X32233690Y12613215D01*
X32263928Y12582977D01*
X32324404Y12552739D01*
X32505833Y12552739D01*
X32566309Y12582977D01*
X32596547Y12613215D01*
X31659166Y12976072D02*
X31659166Y12552739D01*
X31810357Y13217977D02*
X31961547Y12764405D01*
X31568452Y12764405D01*
G04 #@! TO.C,D4*
X16968690Y13462739D02*
X16968690Y14097739D01*
X16817500Y14097739D01*
X16726785Y14067500D01*
X16666309Y14007024D01*
X16636071Y13946548D01*
X16605833Y13825596D01*
X16605833Y13734881D01*
X16636071Y13613929D01*
X16666309Y13553453D01*
X16726785Y13492977D01*
X16817500Y13462739D01*
X16968690Y13462739D01*
X16061547Y13886072D02*
X16061547Y13462739D01*
X16212738Y14127977D02*
X16363928Y13674405D01*
X15970833Y13674405D01*
G04 #@! TO.C,D5*
X25337261Y13268691D02*
X24702261Y13268691D01*
X24702261Y13117500D01*
X24732500Y13026786D01*
X24792976Y12966310D01*
X24853452Y12936072D01*
X24974404Y12905834D01*
X25065119Y12905834D01*
X25186071Y12936072D01*
X25246547Y12966310D01*
X25307023Y13026786D01*
X25337261Y13117500D01*
X25337261Y13268691D01*
X24702261Y12331310D02*
X24702261Y12633691D01*
X25004642Y12663929D01*
X24974404Y12633691D01*
X24944166Y12573215D01*
X24944166Y12422024D01*
X24974404Y12361548D01*
X25004642Y12331310D01*
X25065119Y12301072D01*
X25216309Y12301072D01*
X25276785Y12331310D01*
X25307023Y12361548D01*
X25337261Y12422024D01*
X25337261Y12573215D01*
X25307023Y12633691D01*
X25276785Y12663929D01*
G04 #@! TO.C,R34*
X23537261Y4908215D02*
X23234880Y5119881D01*
X23537261Y5271072D02*
X22902261Y5271072D01*
X22902261Y5029167D01*
X22932500Y4968691D01*
X22962738Y4938453D01*
X23023214Y4908215D01*
X23113928Y4908215D01*
X23174404Y4938453D01*
X23204642Y4968691D01*
X23234880Y5029167D01*
X23234880Y5271072D01*
X22902261Y4696548D02*
X22902261Y4303453D01*
X23144166Y4515120D01*
X23144166Y4424405D01*
X23174404Y4363929D01*
X23204642Y4333691D01*
X23265119Y4303453D01*
X23416309Y4303453D01*
X23476785Y4333691D01*
X23507023Y4363929D01*
X23537261Y4424405D01*
X23537261Y4605834D01*
X23507023Y4666310D01*
X23476785Y4696548D01*
X23113928Y3759167D02*
X23537261Y3759167D01*
X22872023Y3910358D02*
X23325595Y4061548D01*
X23325595Y3668453D01*
G04 #@! TO.C,R35*
X25537261Y3008215D02*
X25234880Y3219881D01*
X25537261Y3371072D02*
X24902261Y3371072D01*
X24902261Y3129167D01*
X24932500Y3068691D01*
X24962738Y3038453D01*
X25023214Y3008215D01*
X25113928Y3008215D01*
X25174404Y3038453D01*
X25204642Y3068691D01*
X25234880Y3129167D01*
X25234880Y3371072D01*
X24902261Y2796548D02*
X24902261Y2403453D01*
X25144166Y2615120D01*
X25144166Y2524405D01*
X25174404Y2463929D01*
X25204642Y2433691D01*
X25265119Y2403453D01*
X25416309Y2403453D01*
X25476785Y2433691D01*
X25507023Y2463929D01*
X25537261Y2524405D01*
X25537261Y2705834D01*
X25507023Y2766310D01*
X25476785Y2796548D01*
X24902261Y1828929D02*
X24902261Y2131310D01*
X25204642Y2161548D01*
X25174404Y2131310D01*
X25144166Y2070834D01*
X25144166Y1919643D01*
X25174404Y1859167D01*
X25204642Y1828929D01*
X25265119Y1798691D01*
X25416309Y1798691D01*
X25476785Y1828929D01*
X25507023Y1859167D01*
X25537261Y1919643D01*
X25537261Y2070834D01*
X25507023Y2131310D01*
X25476785Y2161548D01*
G04 #@! TO.C,R36*
X21487261Y2958215D02*
X21184880Y3169881D01*
X21487261Y3321072D02*
X20852261Y3321072D01*
X20852261Y3079167D01*
X20882500Y3018691D01*
X20912738Y2988453D01*
X20973214Y2958215D01*
X21063928Y2958215D01*
X21124404Y2988453D01*
X21154642Y3018691D01*
X21184880Y3079167D01*
X21184880Y3321072D01*
X20852261Y2746548D02*
X20852261Y2353453D01*
X21094166Y2565120D01*
X21094166Y2474405D01*
X21124404Y2413929D01*
X21154642Y2383691D01*
X21215119Y2353453D01*
X21366309Y2353453D01*
X21426785Y2383691D01*
X21457023Y2413929D01*
X21487261Y2474405D01*
X21487261Y2655834D01*
X21457023Y2716310D01*
X21426785Y2746548D01*
X20852261Y1809167D02*
X20852261Y1930120D01*
X20882500Y1990596D01*
X20912738Y2020834D01*
X21003452Y2081310D01*
X21124404Y2111548D01*
X21366309Y2111548D01*
X21426785Y2081310D01*
X21457023Y2051072D01*
X21487261Y1990596D01*
X21487261Y1869643D01*
X21457023Y1809167D01*
X21426785Y1778929D01*
X21366309Y1748691D01*
X21215119Y1748691D01*
X21154642Y1778929D01*
X21124404Y1809167D01*
X21094166Y1869643D01*
X21094166Y1990596D01*
X21124404Y2051072D01*
X21154642Y2081310D01*
X21215119Y2111548D01*
G04 #@! TO.C,U1*
X32102261Y9733810D02*
X32616309Y9733810D01*
X32676785Y9703572D01*
X32707023Y9673334D01*
X32737261Y9612858D01*
X32737261Y9491905D01*
X32707023Y9431429D01*
X32676785Y9401191D01*
X32616309Y9370953D01*
X32102261Y9370953D01*
X32737261Y8735953D02*
X32737261Y9098810D01*
X32737261Y8917381D02*
X32102261Y8917381D01*
X32192976Y8977858D01*
X32253452Y9038334D01*
X32283690Y9098810D01*
G04 #@! TO.C,IC2*
X8619880Y25112739D02*
X8619880Y25747739D01*
X7954642Y25173215D02*
X7984880Y25142977D01*
X8075595Y25112739D01*
X8136071Y25112739D01*
X8226785Y25142977D01*
X8287261Y25203453D01*
X8317500Y25263929D01*
X8347738Y25384881D01*
X8347738Y25475596D01*
X8317500Y25596548D01*
X8287261Y25657024D01*
X8226785Y25717500D01*
X8136071Y25747739D01*
X8075595Y25747739D01*
X7984880Y25717500D01*
X7954642Y25687262D01*
X7712738Y25687262D02*
X7682500Y25717500D01*
X7622023Y25747739D01*
X7470833Y25747739D01*
X7410357Y25717500D01*
X7380119Y25687262D01*
X7349880Y25626786D01*
X7349880Y25566310D01*
X7380119Y25475596D01*
X7742976Y25112739D01*
X7349880Y25112739D01*
G04 #@! TO.C,MIC2*
D10*
X3882738Y51262739D02*
X3882738Y51897739D01*
X3671071Y51444167D01*
X3459404Y51897739D01*
X3459404Y51262739D01*
X3157023Y51262739D02*
X3157023Y51897739D01*
X2491785Y51323215D02*
X2522023Y51292977D01*
X2612738Y51262739D01*
X2673214Y51262739D01*
X2763928Y51292977D01*
X2824404Y51353453D01*
X2854642Y51413929D01*
X2884880Y51534881D01*
X2884880Y51625596D01*
X2854642Y51746548D01*
X2824404Y51807024D01*
X2763928Y51867500D01*
X2673214Y51897739D01*
X2612738Y51897739D01*
X2522023Y51867500D01*
X2491785Y51837262D01*
X2249880Y51837262D02*
X2219642Y51867500D01*
X2159166Y51897739D01*
X2007976Y51897739D01*
X1947500Y51867500D01*
X1917261Y51837262D01*
X1887023Y51776786D01*
X1887023Y51716310D01*
X1917261Y51625596D01*
X2280119Y51262739D01*
X1887023Y51262739D01*
G04 #@! TO.C,BT1*
X19728571Y11335715D02*
X19776190Y11192858D01*
X19823809Y11145239D01*
X19919047Y11097620D01*
X20061904Y11097620D01*
X20157142Y11145239D01*
X20204761Y11192858D01*
X20252380Y11288096D01*
X20252380Y11669048D01*
X19252380Y11669048D01*
X19252380Y11335715D01*
X19300000Y11240477D01*
X19347619Y11192858D01*
X19442857Y11145239D01*
X19538095Y11145239D01*
X19633333Y11192858D01*
X19680952Y11240477D01*
X19728571Y11335715D01*
X19728571Y11669048D01*
X19252380Y10811905D02*
X19252380Y10240477D01*
X20252380Y10526191D02*
X19252380Y10526191D01*
X20252380Y9383334D02*
X20252380Y9954762D01*
X20252380Y9669048D02*
X19252380Y9669048D01*
X19395238Y9764286D01*
X19490476Y9859524D01*
X19538095Y9954762D01*
D11*
X21207142Y9342858D02*
X21207142Y8200000D01*
X21778571Y8771429D02*
X20635714Y8771429D01*
X21207142Y5200000D02*
X21207142Y4057143D01*
G04 #@! TO.C,MIC1*
D10*
X35982738Y51312739D02*
X35982738Y51947739D01*
X35771071Y51494167D01*
X35559404Y51947739D01*
X35559404Y51312739D01*
X35257023Y51312739D02*
X35257023Y51947739D01*
X34591785Y51373215D02*
X34622023Y51342977D01*
X34712738Y51312739D01*
X34773214Y51312739D01*
X34863928Y51342977D01*
X34924404Y51403453D01*
X34954642Y51463929D01*
X34984880Y51584881D01*
X34984880Y51675596D01*
X34954642Y51796548D01*
X34924404Y51857024D01*
X34863928Y51917500D01*
X34773214Y51947739D01*
X34712738Y51947739D01*
X34622023Y51917500D01*
X34591785Y51887262D01*
X33987023Y51312739D02*
X34349880Y51312739D01*
X34168452Y51312739D02*
X34168452Y51947739D01*
X34228928Y51857024D01*
X34289404Y51796548D01*
X34349880Y51766310D01*
G04 #@! TO.C,J3*
D18*
X30841666Y15547739D02*
X30841666Y15094167D01*
X30871904Y15003453D01*
X30932380Y14942977D01*
X31023095Y14912739D01*
X31083571Y14912739D01*
X30599761Y15547739D02*
X30206666Y15547739D01*
X30418333Y15305834D01*
X30327619Y15305834D01*
X30267142Y15275596D01*
X30236904Y15245358D01*
X30206666Y15184881D01*
X30206666Y15033691D01*
X30236904Y14973215D01*
X30267142Y14942977D01*
X30327619Y14912739D01*
X30509047Y14912739D01*
X30569523Y14942977D01*
X30599761Y14973215D01*
G04 #@! TD*
M02*
