G04 #@! TF.GenerationSoftware,KiCad,Pcbnew,(5.0.1-3-g963ef8bb5)*
G04 #@! TF.CreationDate,2019-04-02T10:50:40-04:00*
G04 #@! TF.ProjectId,Tympan_D,54796D70616E5F442E6B696361645F70,rev?*
G04 #@! TF.SameCoordinates,PX6d878d0PY72e6100*
G04 #@! TF.FileFunction,Legend,Top*
G04 #@! TF.FilePolarity,Positive*
%FSLAX46Y46*%
G04 Gerber Fmt 4.6, Leading zero omitted, Abs format (unit mm)*
G04 Created by KiCad (PCBNEW (5.0.1-3-g963ef8bb5)) date Tuesday, April 02, 2019 at 10:50:40 AM*
%MOMM*%
%LPD*%
G01*
G04 APERTURE LIST*
%ADD10C,0.200000*%
%ADD11C,0.150000*%
%ADD12C,0.177800*%
%ADD13C,0.120000*%
%ADD14C,0.300000*%
%ADD15C,0.100000*%
%ADD16C,0.010000*%
%ADD17C,0.127000*%
G04 APERTURE END LIST*
D10*
X7970476Y4852381D02*
X8446666Y4852381D01*
X8446666Y3852381D01*
X13272619Y33358334D02*
X12272619Y33025000D01*
X13272619Y32691667D01*
X22102380Y32641667D02*
X23102380Y32975000D01*
X22102380Y33308334D01*
D11*
X23240357Y2667858D02*
X23326071Y2639286D01*
X23354642Y2610715D01*
X23383214Y2553572D01*
X23383214Y2467858D01*
X23354642Y2410715D01*
X23326071Y2382143D01*
X23268928Y2353572D01*
X23040357Y2353572D01*
X23040357Y2953572D01*
X23240357Y2953572D01*
X23297500Y2925000D01*
X23326071Y2896429D01*
X23354642Y2839286D01*
X23354642Y2782143D01*
X23326071Y2725000D01*
X23297500Y2696429D01*
X23240357Y2667858D01*
X23040357Y2667858D01*
X23926071Y2353572D02*
X23640357Y2353572D01*
X23640357Y2953572D01*
X24126071Y2953572D02*
X24126071Y2467858D01*
X24154642Y2410715D01*
X24183214Y2382143D01*
X24240357Y2353572D01*
X24354642Y2353572D01*
X24411785Y2382143D01*
X24440357Y2410715D01*
X24468928Y2467858D01*
X24468928Y2953572D01*
X24754642Y2667858D02*
X24954642Y2667858D01*
X25040357Y2353572D02*
X24754642Y2353572D01*
X24754642Y2953572D01*
X25040357Y2953572D01*
X25211785Y2953572D02*
X25554642Y2953572D01*
X25383214Y2353572D02*
X25383214Y2953572D01*
X25868928Y2953572D02*
X25983214Y2953572D01*
X26040357Y2925000D01*
X26097500Y2867858D01*
X26126071Y2753572D01*
X26126071Y2553572D01*
X26097500Y2439286D01*
X26040357Y2382143D01*
X25983214Y2353572D01*
X25868928Y2353572D01*
X25811785Y2382143D01*
X25754642Y2439286D01*
X25726071Y2553572D01*
X25726071Y2753572D01*
X25754642Y2867858D01*
X25811785Y2925000D01*
X25868928Y2953572D01*
X26497500Y2953572D02*
X26611785Y2953572D01*
X26668928Y2925000D01*
X26726071Y2867858D01*
X26754642Y2753572D01*
X26754642Y2553572D01*
X26726071Y2439286D01*
X26668928Y2382143D01*
X26611785Y2353572D01*
X26497500Y2353572D01*
X26440357Y2382143D01*
X26383214Y2439286D01*
X26354642Y2553572D01*
X26354642Y2753572D01*
X26383214Y2867858D01*
X26440357Y2925000D01*
X26497500Y2953572D01*
X26926071Y2953572D02*
X27268928Y2953572D01*
X27097500Y2353572D02*
X27097500Y2953572D01*
X27468928Y2353572D02*
X27468928Y2953572D01*
X27468928Y2667858D02*
X27811785Y2667858D01*
X27811785Y2353572D02*
X27811785Y2953572D01*
X23011785Y1332143D02*
X23097500Y1303572D01*
X23240357Y1303572D01*
X23297500Y1332143D01*
X23326071Y1360715D01*
X23354642Y1417858D01*
X23354642Y1475000D01*
X23326071Y1532143D01*
X23297500Y1560715D01*
X23240357Y1589286D01*
X23126071Y1617858D01*
X23068928Y1646429D01*
X23040357Y1675000D01*
X23011785Y1732143D01*
X23011785Y1789286D01*
X23040357Y1846429D01*
X23068928Y1875000D01*
X23126071Y1903572D01*
X23268928Y1903572D01*
X23354642Y1875000D01*
X23526071Y1903572D02*
X23868928Y1903572D01*
X23697500Y1303572D02*
X23697500Y1903572D01*
X24040357Y1475000D02*
X24326071Y1475000D01*
X23983214Y1303572D02*
X24183214Y1903572D01*
X24383214Y1303572D01*
X24497500Y1903572D02*
X24840357Y1903572D01*
X24668928Y1303572D02*
X24668928Y1903572D01*
X25040357Y1903572D02*
X25040357Y1417858D01*
X25068928Y1360715D01*
X25097500Y1332143D01*
X25154642Y1303572D01*
X25268928Y1303572D01*
X25326071Y1332143D01*
X25354642Y1360715D01*
X25383214Y1417858D01*
X25383214Y1903572D01*
X25640357Y1332143D02*
X25726071Y1303572D01*
X25868928Y1303572D01*
X25926071Y1332143D01*
X25954642Y1360715D01*
X25983214Y1417858D01*
X25983214Y1475000D01*
X25954642Y1532143D01*
X25926071Y1560715D01*
X25868928Y1589286D01*
X25754642Y1617858D01*
X25697500Y1646429D01*
X25668928Y1675000D01*
X25640357Y1732143D01*
X25640357Y1789286D01*
X25668928Y1846429D01*
X25697500Y1875000D01*
X25754642Y1903572D01*
X25897500Y1903572D01*
X25983214Y1875000D01*
X5222857Y1955715D02*
X5194285Y1927143D01*
X5108571Y1898572D01*
X5051428Y1898572D01*
X4965714Y1927143D01*
X4908571Y1984286D01*
X4880000Y2041429D01*
X4851428Y2155715D01*
X4851428Y2241429D01*
X4880000Y2355715D01*
X4908571Y2412858D01*
X4965714Y2470000D01*
X5051428Y2498572D01*
X5108571Y2498572D01*
X5194285Y2470000D01*
X5222857Y2441429D01*
X5480000Y1898572D02*
X5480000Y2498572D01*
X5480000Y2212858D02*
X5822857Y2212858D01*
X5822857Y1898572D02*
X5822857Y2498572D01*
X6080000Y2070000D02*
X6365714Y2070000D01*
X6022857Y1898572D02*
X6222857Y2498572D01*
X6422857Y1898572D01*
X6965714Y1898572D02*
X6765714Y2184286D01*
X6622857Y1898572D02*
X6622857Y2498572D01*
X6851428Y2498572D01*
X6908571Y2470000D01*
X6937142Y2441429D01*
X6965714Y2384286D01*
X6965714Y2298572D01*
X6937142Y2241429D01*
X6908571Y2212858D01*
X6851428Y2184286D01*
X6622857Y2184286D01*
X7537142Y2470000D02*
X7480000Y2498572D01*
X7394285Y2498572D01*
X7308571Y2470000D01*
X7251428Y2412858D01*
X7222857Y2355715D01*
X7194285Y2241429D01*
X7194285Y2155715D01*
X7222857Y2041429D01*
X7251428Y1984286D01*
X7308571Y1927143D01*
X7394285Y1898572D01*
X7451428Y1898572D01*
X7537142Y1927143D01*
X7565714Y1955715D01*
X7565714Y2155715D01*
X7451428Y2155715D01*
X7822857Y2212858D02*
X8022857Y2212858D01*
X8108571Y1898572D02*
X7822857Y1898572D01*
X7822857Y2498572D01*
X8108571Y2498572D01*
X25352500Y48738096D02*
X25352500Y49538096D01*
X25581071Y49538096D01*
X25638214Y49500000D01*
X25666785Y49461905D01*
X25695357Y49385715D01*
X25695357Y49271429D01*
X25666785Y49195239D01*
X25638214Y49157143D01*
X25581071Y49119048D01*
X25352500Y49119048D01*
X25952500Y48738096D02*
X25952500Y49538096D01*
X26095357Y49538096D01*
X26181071Y49500000D01*
X26238214Y49423810D01*
X26266785Y49347620D01*
X26295357Y49195239D01*
X26295357Y49080953D01*
X26266785Y48928572D01*
X26238214Y48852381D01*
X26181071Y48776191D01*
X26095357Y48738096D01*
X25952500Y48738096D01*
X26552500Y48738096D02*
X26552500Y49538096D01*
X26752500Y48966667D01*
X26952500Y49538096D01*
X26952500Y48738096D01*
X27095357Y48661905D02*
X27552500Y48661905D01*
X27695357Y48738096D02*
X27695357Y49538096D01*
X27838214Y49538096D01*
X27923928Y49500000D01*
X27981071Y49423810D01*
X28009642Y49347620D01*
X28038214Y49195239D01*
X28038214Y49080953D01*
X28009642Y48928572D01*
X27981071Y48852381D01*
X27923928Y48776191D01*
X27838214Y48738096D01*
X27695357Y48738096D01*
X28266785Y48966667D02*
X28552500Y48966667D01*
X28209642Y48738096D02*
X28409642Y49538096D01*
X28609642Y48738096D01*
X28723928Y49538096D02*
X29066785Y49538096D01*
X28895357Y48738096D02*
X28895357Y49538096D01*
X29409642Y48471429D02*
X29409642Y49614286D01*
X29781071Y49538096D02*
X30152500Y49538096D01*
X29952500Y49233334D01*
X30038214Y49233334D01*
X30095357Y49195239D01*
X30123928Y49157143D01*
X30152500Y49080953D01*
X30152500Y48890477D01*
X30123928Y48814286D01*
X30095357Y48776191D01*
X30038214Y48738096D01*
X29866785Y48738096D01*
X29809642Y48776191D01*
X29781071Y48814286D01*
X30323928Y49538096D02*
X30523928Y48738096D01*
X30723928Y49538096D01*
X30866785Y49538096D02*
X31238214Y49538096D01*
X31038214Y49233334D01*
X31123928Y49233334D01*
X31181071Y49195239D01*
X31209642Y49157143D01*
X31238214Y49080953D01*
X31238214Y48890477D01*
X31209642Y48814286D01*
X31181071Y48776191D01*
X31123928Y48738096D01*
X30952500Y48738096D01*
X30895357Y48776191D01*
X30866785Y48814286D01*
X24581071Y46038096D02*
X24581071Y46838096D01*
X24809642Y46838096D01*
X24866785Y46800000D01*
X24895357Y46761905D01*
X24923928Y46685715D01*
X24923928Y46571429D01*
X24895357Y46495239D01*
X24866785Y46457143D01*
X24809642Y46419048D01*
X24581071Y46419048D01*
X25181071Y46038096D02*
X25181071Y46838096D01*
X25323928Y46838096D01*
X25409642Y46800000D01*
X25466785Y46723810D01*
X25495357Y46647620D01*
X25523928Y46495239D01*
X25523928Y46380953D01*
X25495357Y46228572D01*
X25466785Y46152381D01*
X25409642Y46076191D01*
X25323928Y46038096D01*
X25181071Y46038096D01*
X25781071Y46038096D02*
X25781071Y46838096D01*
X25981071Y46266667D01*
X26181071Y46838096D01*
X26181071Y46038096D01*
X26323928Y45961905D02*
X26781071Y45961905D01*
X27266785Y46114286D02*
X27238214Y46076191D01*
X27152500Y46038096D01*
X27095357Y46038096D01*
X27009642Y46076191D01*
X26952500Y46152381D01*
X26923928Y46228572D01*
X26895357Y46380953D01*
X26895357Y46495239D01*
X26923928Y46647620D01*
X26952500Y46723810D01*
X27009642Y46800000D01*
X27095357Y46838096D01*
X27152500Y46838096D01*
X27238214Y46800000D01*
X27266785Y46761905D01*
X27809642Y46038096D02*
X27523928Y46038096D01*
X27523928Y46838096D01*
X28009642Y46038096D02*
X28009642Y46838096D01*
X28352500Y46038096D02*
X28095357Y46495239D01*
X28352500Y46838096D02*
X28009642Y46380953D01*
X28752500Y45771429D02*
X28752500Y46914286D01*
X29181071Y46038096D02*
X29181071Y46838096D01*
X29323928Y46838096D01*
X29409642Y46800000D01*
X29466785Y46723810D01*
X29495357Y46647620D01*
X29523928Y46495239D01*
X29523928Y46380953D01*
X29495357Y46228572D01*
X29466785Y46152381D01*
X29409642Y46076191D01*
X29323928Y46038096D01*
X29181071Y46038096D01*
X29895357Y46838096D02*
X30009642Y46838096D01*
X30066785Y46800000D01*
X30123928Y46723810D01*
X30152500Y46571429D01*
X30152500Y46304762D01*
X30123928Y46152381D01*
X30066785Y46076191D01*
X30009642Y46038096D01*
X29895357Y46038096D01*
X29838214Y46076191D01*
X29781071Y46152381D01*
X29752500Y46304762D01*
X29752500Y46571429D01*
X29781071Y46723810D01*
X29838214Y46800000D01*
X29895357Y46838096D01*
X30409642Y46838096D02*
X30409642Y46190477D01*
X30438214Y46114286D01*
X30466785Y46076191D01*
X30523928Y46038096D01*
X30638214Y46038096D01*
X30695357Y46076191D01*
X30723928Y46114286D01*
X30752500Y46190477D01*
X30752500Y46838096D01*
X30952500Y46838096D02*
X31295357Y46838096D01*
X31123928Y46038096D02*
X31123928Y46838096D01*
X26209642Y43338096D02*
X26209642Y44138096D01*
X26409642Y43566667D01*
X26609642Y44138096D01*
X26609642Y43338096D01*
X26895357Y43338096D02*
X26895357Y44138096D01*
X27152500Y43376191D02*
X27238214Y43338096D01*
X27381071Y43338096D01*
X27438214Y43376191D01*
X27466785Y43414286D01*
X27495357Y43490477D01*
X27495357Y43566667D01*
X27466785Y43642858D01*
X27438214Y43680953D01*
X27381071Y43719048D01*
X27266785Y43757143D01*
X27209642Y43795239D01*
X27181071Y43833334D01*
X27152500Y43909524D01*
X27152500Y43985715D01*
X27181071Y44061905D01*
X27209642Y44100000D01*
X27266785Y44138096D01*
X27409642Y44138096D01*
X27495357Y44100000D01*
X27866785Y44138096D02*
X27981071Y44138096D01*
X28038214Y44100000D01*
X28095357Y44023810D01*
X28123928Y43871429D01*
X28123928Y43604762D01*
X28095357Y43452381D01*
X28038214Y43376191D01*
X27981071Y43338096D01*
X27866785Y43338096D01*
X27809642Y43376191D01*
X27752500Y43452381D01*
X27723928Y43604762D01*
X27723928Y43871429D01*
X27752500Y44023810D01*
X27809642Y44100000D01*
X27866785Y44138096D01*
X28238214Y43261905D02*
X28695357Y43261905D01*
X28809642Y44061905D02*
X28838214Y44100000D01*
X28895357Y44138096D01*
X29038214Y44138096D01*
X29095357Y44100000D01*
X29123928Y44061905D01*
X29152500Y43985715D01*
X29152500Y43909524D01*
X29123928Y43795239D01*
X28781071Y43338096D01*
X29152500Y43338096D01*
X29552500Y43071429D02*
X29552500Y44214286D01*
X29981071Y43338096D02*
X29981071Y44138096D01*
X30123928Y44138096D01*
X30209642Y44100000D01*
X30266785Y44023810D01*
X30295357Y43947620D01*
X30323928Y43795239D01*
X30323928Y43680953D01*
X30295357Y43528572D01*
X30266785Y43452381D01*
X30209642Y43376191D01*
X30123928Y43338096D01*
X29981071Y43338096D01*
X30581071Y43338096D02*
X30581071Y44138096D01*
X30866785Y43338096D02*
X30866785Y44138096D01*
X31209642Y43338096D01*
X31209642Y44138096D01*
X25466785Y40638096D02*
X25466785Y41438096D01*
X25666785Y40866667D01*
X25866785Y41438096D01*
X25866785Y40638096D01*
X26266785Y41438096D02*
X26381071Y41438096D01*
X26438214Y41400000D01*
X26495357Y41323810D01*
X26523928Y41171429D01*
X26523928Y40904762D01*
X26495357Y40752381D01*
X26438214Y40676191D01*
X26381071Y40638096D01*
X26266785Y40638096D01*
X26209642Y40676191D01*
X26152500Y40752381D01*
X26123928Y40904762D01*
X26123928Y41171429D01*
X26152500Y41323810D01*
X26209642Y41400000D01*
X26266785Y41438096D01*
X26752500Y40676191D02*
X26838214Y40638096D01*
X26981071Y40638096D01*
X27038214Y40676191D01*
X27066785Y40714286D01*
X27095357Y40790477D01*
X27095357Y40866667D01*
X27066785Y40942858D01*
X27038214Y40980953D01*
X26981071Y41019048D01*
X26866785Y41057143D01*
X26809642Y41095239D01*
X26781071Y41133334D01*
X26752500Y41209524D01*
X26752500Y41285715D01*
X26781071Y41361905D01*
X26809642Y41400000D01*
X26866785Y41438096D01*
X27009642Y41438096D01*
X27095357Y41400000D01*
X27352500Y40638096D02*
X27352500Y41438096D01*
X27495357Y40561905D02*
X27952500Y40561905D01*
X28066785Y41361905D02*
X28095357Y41400000D01*
X28152500Y41438096D01*
X28295357Y41438096D01*
X28352500Y41400000D01*
X28381071Y41361905D01*
X28409642Y41285715D01*
X28409642Y41209524D01*
X28381071Y41095239D01*
X28038214Y40638096D01*
X28409642Y40638096D01*
X28809642Y40371429D02*
X28809642Y41514286D01*
X29209642Y40676191D02*
X29295357Y40638096D01*
X29438214Y40638096D01*
X29495357Y40676191D01*
X29523928Y40714286D01*
X29552500Y40790477D01*
X29552500Y40866667D01*
X29523928Y40942858D01*
X29495357Y40980953D01*
X29438214Y41019048D01*
X29323928Y41057143D01*
X29266785Y41095239D01*
X29238214Y41133334D01*
X29209642Y41209524D01*
X29209642Y41285715D01*
X29238214Y41361905D01*
X29266785Y41400000D01*
X29323928Y41438096D01*
X29466785Y41438096D01*
X29552500Y41400000D01*
X29809642Y40638096D02*
X29809642Y41438096D01*
X29952500Y41438096D01*
X30038214Y41400000D01*
X30095357Y41323810D01*
X30123928Y41247620D01*
X30152500Y41095239D01*
X30152500Y40980953D01*
X30123928Y40828572D01*
X30095357Y40752381D01*
X30038214Y40676191D01*
X29952500Y40638096D01*
X29809642Y40638096D01*
X30381071Y40866667D02*
X30666785Y40866667D01*
X30323928Y40638096D02*
X30523928Y41438096D01*
X30723928Y40638096D01*
X30895357Y41361905D02*
X30923928Y41400000D01*
X30981071Y41438096D01*
X31123928Y41438096D01*
X31181071Y41400000D01*
X31209642Y41361905D01*
X31238214Y41285715D01*
X31238214Y41209524D01*
X31209642Y41095239D01*
X30866785Y40638096D01*
X31238214Y40638096D01*
X25866785Y37976191D02*
X25952500Y37938096D01*
X26095357Y37938096D01*
X26152500Y37976191D01*
X26181071Y38014286D01*
X26209642Y38090477D01*
X26209642Y38166667D01*
X26181071Y38242858D01*
X26152500Y38280953D01*
X26095357Y38319048D01*
X25981071Y38357143D01*
X25923928Y38395239D01*
X25895357Y38433334D01*
X25866785Y38509524D01*
X25866785Y38585715D01*
X25895357Y38661905D01*
X25923928Y38700000D01*
X25981071Y38738096D01*
X26123928Y38738096D01*
X26209642Y38700000D01*
X26809642Y38014286D02*
X26781071Y37976191D01*
X26695357Y37938096D01*
X26638214Y37938096D01*
X26552500Y37976191D01*
X26495357Y38052381D01*
X26466785Y38128572D01*
X26438214Y38280953D01*
X26438214Y38395239D01*
X26466785Y38547620D01*
X26495357Y38623810D01*
X26552500Y38700000D01*
X26638214Y38738096D01*
X26695357Y38738096D01*
X26781071Y38700000D01*
X26809642Y38661905D01*
X27066785Y37938096D02*
X27066785Y38738096D01*
X27409642Y37938096D02*
X27152500Y38395239D01*
X27409642Y38738096D02*
X27066785Y38280953D01*
X27523928Y37861905D02*
X27981071Y37861905D01*
X28095357Y38661905D02*
X28123928Y38700000D01*
X28181071Y38738096D01*
X28323928Y38738096D01*
X28381071Y38700000D01*
X28409642Y38661905D01*
X28438214Y38585715D01*
X28438214Y38509524D01*
X28409642Y38395239D01*
X28066785Y37938096D01*
X28438214Y37938096D01*
X28838214Y37671429D02*
X28838214Y38814286D01*
X29238214Y37976191D02*
X29323928Y37938096D01*
X29466785Y37938096D01*
X29523928Y37976191D01*
X29552500Y38014286D01*
X29581071Y38090477D01*
X29581071Y38166667D01*
X29552500Y38242858D01*
X29523928Y38280953D01*
X29466785Y38319048D01*
X29352500Y38357143D01*
X29295357Y38395239D01*
X29266785Y38433334D01*
X29238214Y38509524D01*
X29238214Y38585715D01*
X29266785Y38661905D01*
X29295357Y38700000D01*
X29352500Y38738096D01*
X29495357Y38738096D01*
X29581071Y38700000D01*
X30181071Y38014286D02*
X30152500Y37976191D01*
X30066785Y37938096D01*
X30009642Y37938096D01*
X29923928Y37976191D01*
X29866785Y38052381D01*
X29838214Y38128572D01*
X29809642Y38280953D01*
X29809642Y38395239D01*
X29838214Y38547620D01*
X29866785Y38623810D01*
X29923928Y38700000D01*
X30009642Y38738096D01*
X30066785Y38738096D01*
X30152500Y38700000D01*
X30181071Y38661905D01*
X30723928Y37938096D02*
X30438214Y37938096D01*
X30438214Y38738096D01*
X30895357Y38661905D02*
X30923928Y38700000D01*
X30981071Y38738096D01*
X31123928Y38738096D01*
X31181071Y38700000D01*
X31209642Y38661905D01*
X31238214Y38585715D01*
X31238214Y38509524D01*
X31209642Y38395239D01*
X30866785Y37938096D01*
X31238214Y37938096D01*
X26895357Y35276191D02*
X26981071Y35238096D01*
X27123928Y35238096D01*
X27181071Y35276191D01*
X27209642Y35314286D01*
X27238214Y35390477D01*
X27238214Y35466667D01*
X27209642Y35542858D01*
X27181071Y35580953D01*
X27123928Y35619048D01*
X27009642Y35657143D01*
X26952500Y35695239D01*
X26923928Y35733334D01*
X26895357Y35809524D01*
X26895357Y35885715D01*
X26923928Y35961905D01*
X26952500Y36000000D01*
X27009642Y36038096D01*
X27152500Y36038096D01*
X27238214Y36000000D01*
X27466785Y35276191D02*
X27552500Y35238096D01*
X27695357Y35238096D01*
X27752500Y35276191D01*
X27781071Y35314286D01*
X27809642Y35390477D01*
X27809642Y35466667D01*
X27781071Y35542858D01*
X27752500Y35580953D01*
X27695357Y35619048D01*
X27581071Y35657143D01*
X27523928Y35695239D01*
X27495357Y35733334D01*
X27466785Y35809524D01*
X27466785Y35885715D01*
X27495357Y35961905D01*
X27523928Y36000000D01*
X27581071Y36038096D01*
X27723928Y36038096D01*
X27809642Y36000000D01*
X27923928Y35161905D02*
X28381071Y35161905D01*
X28495357Y35961905D02*
X28523928Y36000000D01*
X28581071Y36038096D01*
X28723928Y36038096D01*
X28781071Y36000000D01*
X28809642Y35961905D01*
X28838214Y35885715D01*
X28838214Y35809524D01*
X28809642Y35695239D01*
X28466785Y35238096D01*
X28838214Y35238096D01*
X29238214Y34971429D02*
X29238214Y36114286D01*
X29981071Y36000000D02*
X29923928Y36038096D01*
X29838214Y36038096D01*
X29752500Y36000000D01*
X29695357Y35923810D01*
X29666785Y35847620D01*
X29638214Y35695239D01*
X29638214Y35580953D01*
X29666785Y35428572D01*
X29695357Y35352381D01*
X29752500Y35276191D01*
X29838214Y35238096D01*
X29895357Y35238096D01*
X29981071Y35276191D01*
X30009642Y35314286D01*
X30009642Y35580953D01*
X29895357Y35580953D01*
X30266785Y35238096D02*
X30266785Y36038096D01*
X30609642Y35238096D01*
X30609642Y36038096D01*
X30895357Y35238096D02*
X30895357Y36038096D01*
X31038214Y36038096D01*
X31123928Y36000000D01*
X31181071Y35923810D01*
X31209642Y35847620D01*
X31238214Y35695239D01*
X31238214Y35580953D01*
X31209642Y35428572D01*
X31181071Y35352381D01*
X31123928Y35276191D01*
X31038214Y35238096D01*
X30895357Y35238096D01*
X7004642Y48738096D02*
X6661785Y48738096D01*
X6833214Y48738096D02*
X6833214Y49538096D01*
X6776071Y49423810D01*
X6718928Y49347620D01*
X6661785Y49309524D01*
X7176071Y49538096D02*
X7376071Y48738096D01*
X7576071Y49538096D01*
X7861785Y49195239D02*
X7804642Y49233334D01*
X7776071Y49271429D01*
X7747500Y49347620D01*
X7747500Y49385715D01*
X7776071Y49461905D01*
X7804642Y49500000D01*
X7861785Y49538096D01*
X7976071Y49538096D01*
X8033214Y49500000D01*
X8061785Y49461905D01*
X8090357Y49385715D01*
X8090357Y49347620D01*
X8061785Y49271429D01*
X8033214Y49233334D01*
X7976071Y49195239D01*
X7861785Y49195239D01*
X7804642Y49157143D01*
X7776071Y49119048D01*
X7747500Y49042858D01*
X7747500Y48890477D01*
X7776071Y48814286D01*
X7804642Y48776191D01*
X7861785Y48738096D01*
X7976071Y48738096D01*
X8033214Y48776191D01*
X8061785Y48814286D01*
X8090357Y48890477D01*
X8090357Y49042858D01*
X8061785Y49119048D01*
X8033214Y49157143D01*
X7976071Y49195239D01*
X8490357Y48471429D02*
X8490357Y49614286D01*
X8918928Y48738096D02*
X8918928Y49538096D01*
X9118928Y48966667D01*
X9318928Y49538096D01*
X9318928Y48738096D01*
X9461785Y48661905D02*
X9918928Y48661905D01*
X10261785Y49157143D02*
X10347500Y49119048D01*
X10376071Y49080953D01*
X10404642Y49004762D01*
X10404642Y48890477D01*
X10376071Y48814286D01*
X10347500Y48776191D01*
X10290357Y48738096D01*
X10061785Y48738096D01*
X10061785Y49538096D01*
X10261785Y49538096D01*
X10318928Y49500000D01*
X10347500Y49461905D01*
X10376071Y49385715D01*
X10376071Y49309524D01*
X10347500Y49233334D01*
X10318928Y49195239D01*
X10261785Y49157143D01*
X10061785Y49157143D01*
X10661785Y48738096D02*
X10661785Y49538096D01*
X10918928Y48966667D02*
X11204642Y48966667D01*
X10861785Y48738096D02*
X11061785Y49538096D01*
X11261785Y48738096D01*
X11433214Y48776191D02*
X11518928Y48738096D01*
X11661785Y48738096D01*
X11718928Y48776191D01*
X11747500Y48814286D01*
X11776071Y48890477D01*
X11776071Y48966667D01*
X11747500Y49042858D01*
X11718928Y49080953D01*
X11661785Y49119048D01*
X11547500Y49157143D01*
X11490357Y49195239D01*
X11461785Y49233334D01*
X11433214Y49309524D01*
X11433214Y49385715D01*
X11461785Y49461905D01*
X11490357Y49500000D01*
X11547500Y49538096D01*
X11690357Y49538096D01*
X11776071Y49500000D01*
X11890357Y48661905D02*
X12347500Y48661905D01*
X12804642Y48738096D02*
X12461785Y48738096D01*
X12633214Y48738096D02*
X12633214Y49538096D01*
X12576071Y49423810D01*
X12518928Y49347620D01*
X12461785Y49309524D01*
X6690357Y46038096D02*
X6690357Y46838096D01*
X6976071Y46038096D02*
X6976071Y46838096D01*
X7318928Y46038096D01*
X7318928Y46838096D01*
X7918928Y46038096D02*
X7576071Y46038096D01*
X7747500Y46038096D02*
X7747500Y46838096D01*
X7690357Y46723810D01*
X7633214Y46647620D01*
X7576071Y46609524D01*
X8033214Y45961905D02*
X8490357Y45961905D01*
X8976071Y46038096D02*
X8776071Y46419048D01*
X8633214Y46038096D02*
X8633214Y46838096D01*
X8861785Y46838096D01*
X8918928Y46800000D01*
X8947500Y46761905D01*
X8976071Y46685715D01*
X8976071Y46571429D01*
X8947500Y46495239D01*
X8918928Y46457143D01*
X8861785Y46419048D01*
X8633214Y46419048D01*
X9376071Y45771429D02*
X9376071Y46914286D01*
X9804642Y46038096D02*
X9804642Y46838096D01*
X10004642Y46266667D01*
X10204642Y46838096D01*
X10204642Y46038096D01*
X10833214Y46114286D02*
X10804642Y46076191D01*
X10718928Y46038096D01*
X10661785Y46038096D01*
X10576071Y46076191D01*
X10518928Y46152381D01*
X10490357Y46228572D01*
X10461785Y46380953D01*
X10461785Y46495239D01*
X10490357Y46647620D01*
X10518928Y46723810D01*
X10576071Y46800000D01*
X10661785Y46838096D01*
X10718928Y46838096D01*
X10804642Y46800000D01*
X10833214Y46761905D01*
X11376071Y46038096D02*
X11090357Y46038096D01*
X11090357Y46838096D01*
X11576071Y46038096D02*
X11576071Y46838096D01*
X11918928Y46038096D02*
X11661785Y46495239D01*
X11918928Y46838096D02*
X11576071Y46380953D01*
X6690357Y43338096D02*
X6690357Y44138096D01*
X6976071Y43338096D02*
X6976071Y44138096D01*
X7318928Y43338096D01*
X7318928Y44138096D01*
X7918928Y43338096D02*
X7576071Y43338096D01*
X7747500Y43338096D02*
X7747500Y44138096D01*
X7690357Y44023810D01*
X7633214Y43947620D01*
X7576071Y43909524D01*
X8033214Y43261905D02*
X8490357Y43261905D01*
X8918928Y43338096D02*
X8633214Y43338096D01*
X8633214Y44138096D01*
X9261785Y43071429D02*
X9261785Y44214286D01*
X9890357Y43757143D02*
X9976071Y43719048D01*
X10004642Y43680953D01*
X10033214Y43604762D01*
X10033214Y43490477D01*
X10004642Y43414286D01*
X9976071Y43376191D01*
X9918928Y43338096D01*
X9690357Y43338096D01*
X9690357Y44138096D01*
X9890357Y44138096D01*
X9947500Y44100000D01*
X9976071Y44061905D01*
X10004642Y43985715D01*
X10004642Y43909524D01*
X9976071Y43833334D01*
X9947500Y43795239D01*
X9890357Y43757143D01*
X9690357Y43757143D01*
X10633214Y43414286D02*
X10604642Y43376191D01*
X10518928Y43338096D01*
X10461785Y43338096D01*
X10376071Y43376191D01*
X10318928Y43452381D01*
X10290357Y43528572D01*
X10261785Y43680953D01*
X10261785Y43795239D01*
X10290357Y43947620D01*
X10318928Y44023810D01*
X10376071Y44100000D01*
X10461785Y44138096D01*
X10518928Y44138096D01*
X10604642Y44100000D01*
X10633214Y44061905D01*
X11176071Y43338096D02*
X10890357Y43338096D01*
X10890357Y44138096D01*
X11376071Y43338096D02*
X11376071Y44138096D01*
X11718928Y43338096D02*
X11461785Y43795239D01*
X11718928Y44138096D02*
X11376071Y43680953D01*
X6976071Y40638096D02*
X6690357Y40638096D01*
X6690357Y41438096D01*
X7290357Y41438096D02*
X7404642Y41438096D01*
X7461785Y41400000D01*
X7518928Y41323810D01*
X7547500Y41171429D01*
X7547500Y40904762D01*
X7518928Y40752381D01*
X7461785Y40676191D01*
X7404642Y40638096D01*
X7290357Y40638096D01*
X7233214Y40676191D01*
X7176071Y40752381D01*
X7147500Y40904762D01*
X7147500Y41171429D01*
X7176071Y41323810D01*
X7233214Y41400000D01*
X7290357Y41438096D01*
X8090357Y40638096D02*
X7804642Y40638096D01*
X7804642Y41438096D01*
X8433214Y40371429D02*
X8433214Y41514286D01*
X8804642Y41438096D02*
X8947500Y40638096D01*
X9061785Y41209524D01*
X9176071Y40638096D01*
X9318928Y41438096D01*
X9890357Y40714286D02*
X9861785Y40676191D01*
X9776071Y40638096D01*
X9718928Y40638096D01*
X9633214Y40676191D01*
X9576071Y40752381D01*
X9547500Y40828572D01*
X9518928Y40980953D01*
X9518928Y41095239D01*
X9547500Y41247620D01*
X9576071Y41323810D01*
X9633214Y41400000D01*
X9718928Y41438096D01*
X9776071Y41438096D01*
X9861785Y41400000D01*
X9890357Y41361905D01*
X10433214Y40638096D02*
X10147500Y40638096D01*
X10147500Y41438096D01*
X10633214Y40638096D02*
X10633214Y41438096D01*
X10976071Y40638096D02*
X10718928Y41095239D01*
X10976071Y41438096D02*
X10633214Y40980953D01*
X6976071Y37938096D02*
X6690357Y37938096D01*
X6690357Y38738096D01*
X7290357Y38738096D02*
X7404642Y38738096D01*
X7461785Y38700000D01*
X7518928Y38623810D01*
X7547500Y38471429D01*
X7547500Y38204762D01*
X7518928Y38052381D01*
X7461785Y37976191D01*
X7404642Y37938096D01*
X7290357Y37938096D01*
X7233214Y37976191D01*
X7176071Y38052381D01*
X7147500Y38204762D01*
X7147500Y38471429D01*
X7176071Y38623810D01*
X7233214Y38700000D01*
X7290357Y38738096D01*
X8147500Y37938096D02*
X7947500Y38319048D01*
X7804642Y37938096D02*
X7804642Y38738096D01*
X8033214Y38738096D01*
X8090357Y38700000D01*
X8118928Y38661905D01*
X8147500Y38585715D01*
X8147500Y38471429D01*
X8118928Y38395239D01*
X8090357Y38357143D01*
X8033214Y38319048D01*
X7804642Y38319048D01*
X8547500Y37671429D02*
X8547500Y38814286D01*
X9318928Y37938096D02*
X9118928Y38319048D01*
X8976071Y37938096D02*
X8976071Y38738096D01*
X9204642Y38738096D01*
X9261785Y38700000D01*
X9290357Y38661905D01*
X9318928Y38585715D01*
X9318928Y38471429D01*
X9290357Y38395239D01*
X9261785Y38357143D01*
X9204642Y38319048D01*
X8976071Y38319048D01*
X9547500Y37976191D02*
X9633214Y37938096D01*
X9776071Y37938096D01*
X9833214Y37976191D01*
X9861785Y38014286D01*
X9890357Y38090477D01*
X9890357Y38166667D01*
X9861785Y38242858D01*
X9833214Y38280953D01*
X9776071Y38319048D01*
X9661785Y38357143D01*
X9604642Y38395239D01*
X9576071Y38433334D01*
X9547500Y38509524D01*
X9547500Y38585715D01*
X9576071Y38661905D01*
X9604642Y38700000D01*
X9661785Y38738096D01*
X9804642Y38738096D01*
X9890357Y38700000D01*
X10061785Y38738096D02*
X10404642Y38738096D01*
X10233214Y37938096D02*
X10233214Y38738096D01*
X10461785Y37861905D02*
X10918928Y37861905D01*
X11376071Y37938096D02*
X11033214Y37938096D01*
X11204642Y37938096D02*
X11204642Y38738096D01*
X11147500Y38623810D01*
X11090357Y38547620D01*
X11033214Y38509524D01*
X7004642Y36000000D02*
X6947500Y36038096D01*
X6861785Y36038096D01*
X6776071Y36000000D01*
X6718928Y35923810D01*
X6690357Y35847620D01*
X6661785Y35695239D01*
X6661785Y35580953D01*
X6690357Y35428572D01*
X6718928Y35352381D01*
X6776071Y35276191D01*
X6861785Y35238096D01*
X6918928Y35238096D01*
X7004642Y35276191D01*
X7033214Y35314286D01*
X7033214Y35580953D01*
X6918928Y35580953D01*
X7290357Y35238096D02*
X7290357Y36038096D01*
X7633214Y35238096D01*
X7633214Y36038096D01*
X7918928Y35238096D02*
X7918928Y36038096D01*
X8061785Y36038096D01*
X8147500Y36000000D01*
X8204642Y35923810D01*
X8233214Y35847620D01*
X8261785Y35695239D01*
X8261785Y35580953D01*
X8233214Y35428572D01*
X8204642Y35352381D01*
X8147500Y35276191D01*
X8061785Y35238096D01*
X7918928Y35238096D01*
X8661785Y34971429D02*
X8661785Y36114286D01*
X9404642Y36000000D02*
X9347500Y36038096D01*
X9261785Y36038096D01*
X9176071Y36000000D01*
X9118928Y35923810D01*
X9090357Y35847620D01*
X9061785Y35695239D01*
X9061785Y35580953D01*
X9090357Y35428572D01*
X9118928Y35352381D01*
X9176071Y35276191D01*
X9261785Y35238096D01*
X9318928Y35238096D01*
X9404642Y35276191D01*
X9433214Y35314286D01*
X9433214Y35580953D01*
X9318928Y35580953D01*
X9690357Y35238096D02*
X9690357Y36038096D01*
X10033214Y35238096D01*
X10033214Y36038096D01*
X10318928Y35238096D02*
X10318928Y36038096D01*
X10461785Y36038096D01*
X10547500Y36000000D01*
X10604642Y35923810D01*
X10633214Y35847620D01*
X10661785Y35695239D01*
X10661785Y35580953D01*
X10633214Y35428572D01*
X10604642Y35352381D01*
X10547500Y35276191D01*
X10461785Y35238096D01*
X10318928Y35238096D01*
D10*
X35552380Y22721429D02*
X34885714Y22721429D01*
X34980952Y22721429D02*
X34933333Y22769048D01*
X34885714Y22864286D01*
X34885714Y23007143D01*
X34933333Y23102381D01*
X35028571Y23150000D01*
X35552380Y23150000D01*
X35028571Y23150000D02*
X34933333Y23197620D01*
X34885714Y23292858D01*
X34885714Y23435715D01*
X34933333Y23530953D01*
X35028571Y23578572D01*
X35552380Y23578572D01*
X35552380Y24054762D02*
X34885714Y24054762D01*
X34552380Y24054762D02*
X34600000Y24007143D01*
X34647619Y24054762D01*
X34600000Y24102381D01*
X34552380Y24054762D01*
X34647619Y24054762D01*
X35504761Y24959524D02*
X35552380Y24864286D01*
X35552380Y24673810D01*
X35504761Y24578572D01*
X35457142Y24530953D01*
X35361904Y24483334D01*
X35076190Y24483334D01*
X34980952Y24530953D01*
X34933333Y24578572D01*
X34885714Y24673810D01*
X34885714Y24864286D01*
X34933333Y24959524D01*
X35552380Y25388096D02*
X34885714Y25388096D01*
X35076190Y25388096D02*
X34980952Y25435715D01*
X34933333Y25483334D01*
X34885714Y25578572D01*
X34885714Y25673810D01*
X35552380Y26150000D02*
X35504761Y26054762D01*
X35457142Y26007143D01*
X35361904Y25959524D01*
X35076190Y25959524D01*
X34980952Y26007143D01*
X34933333Y26054762D01*
X34885714Y26150000D01*
X34885714Y26292858D01*
X34933333Y26388096D01*
X34980952Y26435715D01*
X35076190Y26483334D01*
X35361904Y26483334D01*
X35457142Y26435715D01*
X35504761Y26388096D01*
X35552380Y26292858D01*
X35552380Y26150000D01*
X35504761Y26864286D02*
X35552380Y27007143D01*
X35552380Y27245239D01*
X35504761Y27340477D01*
X35457142Y27388096D01*
X35361904Y27435715D01*
X35266666Y27435715D01*
X35171428Y27388096D01*
X35123809Y27340477D01*
X35076190Y27245239D01*
X35028571Y27054762D01*
X34980952Y26959524D01*
X34933333Y26911905D01*
X34838095Y26864286D01*
X34742857Y26864286D01*
X34647619Y26911905D01*
X34600000Y26959524D01*
X34552380Y27054762D01*
X34552380Y27292858D01*
X34600000Y27435715D01*
X35552380Y27864286D02*
X34552380Y27864286D01*
X34552380Y28102381D01*
X34600000Y28245239D01*
X34695238Y28340477D01*
X34790476Y28388096D01*
X34980952Y28435715D01*
X35123809Y28435715D01*
X35314285Y28388096D01*
X35409523Y28340477D01*
X35504761Y28245239D01*
X35552380Y28102381D01*
X35552380Y27864286D01*
X35457142Y30197620D02*
X35504761Y30150000D01*
X35552380Y30007143D01*
X35552380Y29911905D01*
X35504761Y29769048D01*
X35409523Y29673810D01*
X35314285Y29626191D01*
X35123809Y29578572D01*
X34980952Y29578572D01*
X34790476Y29626191D01*
X34695238Y29673810D01*
X34600000Y29769048D01*
X34552380Y29911905D01*
X34552380Y30007143D01*
X34600000Y30150000D01*
X34647619Y30197620D01*
X35552380Y31054762D02*
X35028571Y31054762D01*
X34933333Y31007143D01*
X34885714Y30911905D01*
X34885714Y30721429D01*
X34933333Y30626191D01*
X35504761Y31054762D02*
X35552380Y30959524D01*
X35552380Y30721429D01*
X35504761Y30626191D01*
X35409523Y30578572D01*
X35314285Y30578572D01*
X35219047Y30626191D01*
X35171428Y30721429D01*
X35171428Y30959524D01*
X35123809Y31054762D01*
X35552380Y31530953D02*
X34885714Y31530953D01*
X35076190Y31530953D02*
X34980952Y31578572D01*
X34933333Y31626191D01*
X34885714Y31721429D01*
X34885714Y31816667D01*
X35552380Y32578572D02*
X34552380Y32578572D01*
X35504761Y32578572D02*
X35552380Y32483334D01*
X35552380Y32292858D01*
X35504761Y32197620D01*
X35457142Y32150000D01*
X35361904Y32102381D01*
X35076190Y32102381D01*
X34980952Y32150000D01*
X34933333Y32197620D01*
X34885714Y32292858D01*
X34885714Y32483334D01*
X34933333Y32578572D01*
X9069142Y14667572D02*
X9940000Y14667572D01*
X9504571Y13143572D02*
X9504571Y14667572D01*
X10738285Y13869286D02*
X10738285Y13143572D01*
X10230285Y14667572D02*
X10738285Y13869286D01*
X11246285Y14667572D01*
X11754285Y13143572D02*
X11754285Y14667572D01*
X12262285Y13579000D01*
X12770285Y14667572D01*
X12770285Y13143572D01*
X13496000Y13143572D02*
X13496000Y14667572D01*
X14076571Y14667572D01*
X14221714Y14595000D01*
X14294285Y14522429D01*
X14366857Y14377286D01*
X14366857Y14159572D01*
X14294285Y14014429D01*
X14221714Y13941858D01*
X14076571Y13869286D01*
X13496000Y13869286D01*
X14947428Y13579000D02*
X15673142Y13579000D01*
X14802285Y13143572D02*
X15310285Y14667572D01*
X15818285Y13143572D01*
X16326285Y13143572D02*
X16326285Y14667572D01*
X17197142Y13143572D01*
X17197142Y14667572D01*
X13278285Y10657572D02*
X12770285Y11383286D01*
X12407428Y10657572D02*
X12407428Y12181572D01*
X12988000Y12181572D01*
X13133142Y12109000D01*
X13205714Y12036429D01*
X13278285Y11891286D01*
X13278285Y11673572D01*
X13205714Y11528429D01*
X13133142Y11455858D01*
X12988000Y11383286D01*
X12407428Y11383286D01*
X14512000Y10730143D02*
X14366857Y10657572D01*
X14076571Y10657572D01*
X13931428Y10730143D01*
X13858857Y10875286D01*
X13858857Y11455858D01*
X13931428Y11601000D01*
X14076571Y11673572D01*
X14366857Y11673572D01*
X14512000Y11601000D01*
X14584571Y11455858D01*
X14584571Y11310715D01*
X13858857Y11165572D01*
X15092571Y11673572D02*
X15455428Y10657572D01*
X15818285Y11673572D01*
X16398857Y10657572D02*
X16398857Y12181572D01*
X16761714Y12181572D01*
X16979428Y12109000D01*
X17124571Y11963858D01*
X17197142Y11818715D01*
X17269714Y11528429D01*
X17269714Y11310715D01*
X17197142Y11020429D01*
X17124571Y10875286D01*
X16979428Y10730143D01*
X16761714Y10657572D01*
X16398857Y10657572D01*
D12*
X13584714Y64060429D02*
X12822714Y64060429D01*
X13584714Y64423286D02*
X12822714Y64423286D01*
X13584714Y64858715D01*
X12822714Y64858715D01*
X13584714Y65221572D02*
X12822714Y65221572D01*
X12822714Y65511858D01*
X12859000Y65584429D01*
X12895285Y65620715D01*
X12967857Y65657000D01*
X13076714Y65657000D01*
X13149285Y65620715D01*
X13185571Y65584429D01*
X13221857Y65511858D01*
X13221857Y65221572D01*
X12822714Y65983572D02*
X13439571Y65983572D01*
X13512142Y66019858D01*
X13548428Y66056143D01*
X13584714Y66128715D01*
X13584714Y66273858D01*
X13548428Y66346429D01*
X13512142Y66382715D01*
X13439571Y66419000D01*
X12822714Y66419000D01*
X12822714Y66673000D02*
X12822714Y67108429D01*
X13584714Y66890715D02*
X12822714Y66890715D01*
X24462714Y64437572D02*
X24462714Y64582715D01*
X24499000Y64655286D01*
X24571571Y64727858D01*
X24716714Y64764143D01*
X24970714Y64764143D01*
X25115857Y64727858D01*
X25188428Y64655286D01*
X25224714Y64582715D01*
X25224714Y64437572D01*
X25188428Y64365000D01*
X25115857Y64292429D01*
X24970714Y64256143D01*
X24716714Y64256143D01*
X24571571Y64292429D01*
X24499000Y64365000D01*
X24462714Y64437572D01*
X24462714Y65090715D02*
X25079571Y65090715D01*
X25152142Y65127000D01*
X25188428Y65163286D01*
X25224714Y65235858D01*
X25224714Y65381000D01*
X25188428Y65453572D01*
X25152142Y65489858D01*
X25079571Y65526143D01*
X24462714Y65526143D01*
X24462714Y65780143D02*
X24462714Y66215572D01*
X25224714Y65997858D02*
X24462714Y65997858D01*
X25224714Y66469572D02*
X24462714Y66469572D01*
X24462714Y66759858D01*
X24499000Y66832429D01*
X24535285Y66868715D01*
X24607857Y66905000D01*
X24716714Y66905000D01*
X24789285Y66868715D01*
X24825571Y66832429D01*
X24861857Y66759858D01*
X24861857Y66469572D01*
X24462714Y67231572D02*
X25079571Y67231572D01*
X25152142Y67267858D01*
X25188428Y67304143D01*
X25224714Y67376715D01*
X25224714Y67521858D01*
X25188428Y67594429D01*
X25152142Y67630715D01*
X25079571Y67667000D01*
X24462714Y67667000D01*
X24462714Y67921000D02*
X24462714Y68356429D01*
X25224714Y68138715D02*
X24462714Y68138715D01*
X1984000Y57155286D02*
X1730000Y57518143D01*
X1548571Y57155286D02*
X1548571Y57917286D01*
X1838857Y57917286D01*
X1911428Y57881000D01*
X1947714Y57844715D01*
X1984000Y57772143D01*
X1984000Y57663286D01*
X1947714Y57590715D01*
X1911428Y57554429D01*
X1838857Y57518143D01*
X1548571Y57518143D01*
X2310571Y57155286D02*
X2310571Y57917286D01*
X3072571Y57881000D02*
X3000000Y57917286D01*
X2891142Y57917286D01*
X2782285Y57881000D01*
X2709714Y57808429D01*
X2673428Y57735858D01*
X2637142Y57590715D01*
X2637142Y57481858D01*
X2673428Y57336715D01*
X2709714Y57264143D01*
X2782285Y57191572D01*
X2891142Y57155286D01*
X2963714Y57155286D01*
X3072571Y57191572D01*
X3108857Y57227858D01*
X3108857Y57481858D01*
X2963714Y57481858D01*
X3435428Y57155286D02*
X3435428Y57917286D01*
X3435428Y57554429D02*
X3870857Y57554429D01*
X3870857Y57155286D02*
X3870857Y57917286D01*
X4124857Y57917286D02*
X4560285Y57917286D01*
X4342571Y57155286D02*
X4342571Y57917286D01*
X34274285Y57155286D02*
X33911428Y57155286D01*
X33911428Y57917286D01*
X34528285Y57554429D02*
X34782285Y57554429D01*
X34891142Y57155286D02*
X34528285Y57155286D01*
X34528285Y57917286D01*
X34891142Y57917286D01*
X35471714Y57554429D02*
X35217714Y57554429D01*
X35217714Y57155286D02*
X35217714Y57917286D01*
X35580571Y57917286D01*
X35762000Y57917286D02*
X36197428Y57917286D01*
X35979714Y57155286D02*
X35979714Y57917286D01*
D13*
G04 #@! TO.C,R6*
X21580000Y40700000D02*
X21580000Y41200000D01*
X20520000Y41200000D02*
X20520000Y40700000D01*
D14*
G04 #@! TO.C,IC3*
X37700000Y12600000D02*
X33950000Y12600000D01*
X33950000Y12600000D02*
X33950000Y4600000D01*
X37700000Y16400000D02*
X37700000Y4600000D01*
X37700000Y4600000D02*
X19700000Y4600000D01*
X19700000Y4600000D02*
X19700000Y16400000D01*
X19700000Y16400000D02*
X37700000Y16400000D01*
D13*
G04 #@! TO.C,D2*
X13800000Y34070000D02*
X11800000Y34070000D01*
X11800000Y32030000D02*
X13800000Y32030000D01*
G04 #@! TO.C,D3*
X21550000Y31980000D02*
X23550000Y31980000D01*
X23550000Y34020000D02*
X21550000Y34020000D01*
G04 #@! TO.C,R12*
X18450000Y62450000D02*
X19150000Y62450000D01*
X19150000Y61250000D02*
X18450000Y61250000D01*
G04 #@! TO.C,R13*
X18450000Y63750000D02*
X19150000Y63750000D01*
X19150000Y62550000D02*
X18450000Y62550000D01*
G04 #@! TO.C,R14*
X19150000Y59950000D02*
X18450000Y59950000D01*
X18450000Y61150000D02*
X19150000Y61150000D01*
G04 #@! TO.C,R15*
X19575000Y54150000D02*
X19575000Y54850000D01*
X20775000Y54850000D02*
X20775000Y54150000D01*
G04 #@! TO.C,R16*
X15400000Y54925000D02*
X15400000Y54225000D01*
X14200000Y54225000D02*
X14200000Y54925000D01*
G04 #@! TO.C,R17*
X19150000Y63850000D02*
X18450000Y63850000D01*
X18450000Y65050000D02*
X19150000Y65050000D01*
D11*
G04 #@! TO.C,U2*
X15719600Y48058000D02*
X16219600Y48058000D01*
X20969600Y42808000D02*
X20469600Y42808000D01*
X20969600Y48058000D02*
X20469600Y48058000D01*
X15719600Y42808000D02*
X15719600Y43308000D01*
X20969600Y42808000D02*
X20969600Y43308000D01*
X20969600Y48058000D02*
X20969600Y47558000D01*
X15719600Y48058000D02*
X15719600Y47558000D01*
D14*
G04 #@! TO.C,J2*
X12100000Y74100000D02*
X5100000Y74100000D01*
X12100000Y70600000D02*
X12100000Y59600000D01*
X12100000Y59600000D02*
X5100000Y59600000D01*
X5100000Y59600000D02*
X5100000Y70600000D01*
X12100000Y70600000D02*
X12100000Y76600000D01*
X12100000Y76600000D02*
X5100000Y76600000D01*
X5100000Y76600000D02*
X5100000Y70600000D01*
G04 #@! TO.C,J1*
X32900000Y74100000D02*
X25900000Y74100000D01*
X32900000Y70600000D02*
X32900000Y59600000D01*
X32900000Y59600000D02*
X25900000Y59600000D01*
X25900000Y59600000D02*
X25900000Y70600000D01*
X32900000Y70600000D02*
X32900000Y76600000D01*
X32900000Y76600000D02*
X25900000Y76600000D01*
X25900000Y76600000D02*
X25900000Y70600000D01*
D13*
G04 #@! TO.C,C1*
X20820000Y29400000D02*
X20820000Y29900000D01*
X19880000Y29900000D02*
X19880000Y29400000D01*
G04 #@! TO.C,C2*
X14737900Y43760600D02*
X14737900Y44260600D01*
X13797900Y44260600D02*
X13797900Y43760600D01*
G04 #@! TO.C,C3*
X14610900Y50732900D02*
X14610900Y51232900D01*
X13670900Y51232900D02*
X13670900Y50732900D01*
G04 #@! TO.C,C4*
X21880600Y41740700D02*
X21880600Y41240700D01*
X22820600Y41240700D02*
X22820600Y41740700D01*
G04 #@! TO.C,C5*
X23530000Y41750000D02*
X23530000Y41250000D01*
X24470000Y41250000D02*
X24470000Y41750000D01*
G04 #@! TO.C,C6*
X13446400Y40860900D02*
X13946400Y40860900D01*
X13946400Y41800900D02*
X13446400Y41800900D01*
G04 #@! TO.C,C7*
X13446400Y41838800D02*
X13946400Y41838800D01*
X13946400Y42778800D02*
X13446400Y42778800D01*
G04 #@! TO.C,C8*
X13620300Y43760600D02*
X13620300Y44260600D01*
X12680300Y44260600D02*
X12680300Y43760600D01*
G04 #@! TO.C,C9*
X13350000Y47330000D02*
X13850000Y47330000D01*
X13850000Y48270000D02*
X13350000Y48270000D01*
G04 #@! TO.C,C10*
X14725000Y51232900D02*
X14725000Y50732900D01*
X15665000Y50732900D02*
X15665000Y51232900D01*
G04 #@! TO.C,C11*
X21070000Y50250000D02*
X21070000Y50750000D01*
X20130000Y50750000D02*
X20130000Y50250000D01*
G04 #@! TO.C,C12*
X18130000Y53750000D02*
X18130000Y53250000D01*
X19070000Y53250000D02*
X19070000Y53750000D01*
G04 #@! TO.C,C13*
X17230000Y53750000D02*
X17230000Y53250000D01*
X18170000Y53250000D02*
X18170000Y53750000D01*
G04 #@! TO.C,C15*
X10250000Y5930000D02*
X10750000Y5930000D01*
X10750000Y6870000D02*
X10250000Y6870000D01*
G04 #@! TO.C,C16*
X35250000Y53220000D02*
X34750000Y53220000D01*
X34750000Y52280000D02*
X35250000Y52280000D01*
G04 #@! TO.C,C17*
X35250000Y54220000D02*
X34750000Y54220000D01*
X34750000Y53280000D02*
X35250000Y53280000D01*
G04 #@! TO.C,C18*
X3250000Y53220000D02*
X2750000Y53220000D01*
X2750000Y52280000D02*
X3250000Y52280000D01*
G04 #@! TO.C,C19*
X2750000Y53280000D02*
X3250000Y53280000D01*
X3250000Y54220000D02*
X2750000Y54220000D01*
G04 #@! TO.C,R18*
X16330000Y32550000D02*
X16330000Y33050000D01*
X15270000Y33050000D02*
X15270000Y32550000D01*
G04 #@! TO.C,R21*
X20130000Y32550000D02*
X20130000Y33050000D01*
X19070000Y33050000D02*
X19070000Y32550000D01*
G04 #@! TO.C,C27*
X18370000Y26950000D02*
X18370000Y27450000D01*
X17430000Y27450000D02*
X17430000Y26950000D01*
G04 #@! TO.C,C28*
X20350000Y26570000D02*
X19850000Y26570000D01*
X19850000Y25630000D02*
X20350000Y25630000D01*
G04 #@! TO.C,C29*
X16520000Y26950000D02*
X16520000Y27450000D01*
X15580000Y27450000D02*
X15580000Y26950000D01*
G04 #@! TO.C,C30*
X17420000Y26950000D02*
X17420000Y27450000D01*
X16480000Y27450000D02*
X16480000Y26950000D01*
G04 #@! TO.C,C31*
X15805000Y29525000D02*
X15805000Y29025000D01*
X16745000Y29025000D02*
X16745000Y29525000D01*
G04 #@! TO.C,C32*
X16805000Y29525000D02*
X16805000Y29025000D01*
X17745000Y29025000D02*
X17745000Y29525000D01*
D15*
G04 #@! TO.C,P1*
X8950000Y4300000D02*
X8950000Y-50000D01*
X8950000Y-50000D02*
X17550000Y-50000D01*
X17550000Y-50000D02*
X17550000Y4300000D01*
D13*
G04 #@! TO.C,R25*
X19600000Y27470000D02*
X20100000Y27470000D01*
X20100000Y28530000D02*
X19600000Y28530000D01*
G04 #@! TO.C,R26*
X12020000Y6950000D02*
X12020000Y6450000D01*
X13080000Y6450000D02*
X13080000Y6950000D01*
G04 #@! TO.C,R27*
X13020000Y6950000D02*
X13020000Y6450000D01*
X14080000Y6450000D02*
X14080000Y6950000D01*
G04 #@! TO.C,RV1*
X6630000Y32760000D02*
X3970000Y32760000D01*
X6630000Y27620000D02*
X6630000Y32760000D01*
X3970000Y27620000D02*
X3970000Y32760000D01*
X6630000Y27620000D02*
X3970000Y27620000D01*
X6630000Y26350000D02*
X6630000Y25020000D01*
X6630000Y25020000D02*
X5300000Y25020000D01*
G04 #@! TO.C,C33*
X26120000Y26600000D02*
X26120000Y27100000D01*
X25180000Y27100000D02*
X25180000Y26600000D01*
G04 #@! TO.C,C37*
X26795000Y18225000D02*
X26795000Y18725000D01*
X25855000Y18725000D02*
X25855000Y18225000D01*
G04 #@! TO.C,C39*
X25670000Y18250000D02*
X25670000Y18750000D01*
X24730000Y18750000D02*
X24730000Y18250000D01*
D15*
G04 #@! TO.C,D6*
X19450000Y3200000D02*
G75*
G03X19450000Y3200000I-200000J0D01*
G01*
X19250000Y1000000D02*
X19250000Y3000000D01*
X19450000Y3200000D02*
X21450000Y3200000D01*
X21650000Y3000000D02*
X21650000Y1000000D01*
X21450000Y800000D02*
X19450000Y800000D01*
D13*
G04 #@! TO.C,P3*
X34870000Y34670000D02*
X37530000Y34670000D01*
X34870000Y47430000D02*
X34870000Y34670000D01*
X37530000Y47430000D02*
X37530000Y34670000D01*
X34870000Y47430000D02*
X37530000Y47430000D01*
X34870000Y48700000D02*
X34870000Y50030000D01*
X34870000Y50030000D02*
X36200000Y50030000D01*
G04 #@! TO.C,P4*
X2988000Y34670000D02*
X5648000Y34670000D01*
X2988000Y47430000D02*
X2988000Y34670000D01*
X5648000Y47430000D02*
X5648000Y34670000D01*
X2988000Y47430000D02*
X5648000Y47430000D01*
X2988000Y48700000D02*
X2988000Y50030000D01*
X2988000Y50030000D02*
X4318000Y50030000D01*
G04 #@! TO.C,R30*
X27375000Y17395000D02*
X27875000Y17395000D01*
X27875000Y18455000D02*
X27375000Y18455000D01*
G04 #@! TO.C,R31*
X24150000Y18480000D02*
X23650000Y18480000D01*
X23650000Y17420000D02*
X24150000Y17420000D01*
G04 #@! TO.C,R32*
X27875000Y19455000D02*
X27375000Y19455000D01*
X27375000Y18395000D02*
X27875000Y18395000D01*
G04 #@! TO.C,R33*
X23650000Y18445000D02*
X24150000Y18445000D01*
X24150000Y19505000D02*
X23650000Y19505000D01*
G04 #@! TO.C,L1*
X20350000Y27520000D02*
X19850000Y27520000D01*
X19850000Y26580000D02*
X20350000Y26580000D01*
G04 #@! TO.C,L2*
X18530000Y29900000D02*
X18530000Y29400000D01*
X19470000Y29400000D02*
X19470000Y29900000D01*
D14*
G04 #@! TO.C,SW1*
X920000Y18660000D02*
X-1080000Y18660000D01*
X-1080000Y18660000D02*
X-1080000Y20160000D01*
X-1080000Y20160000D02*
X920000Y20160000D01*
X4420000Y22660000D02*
X4420000Y14160000D01*
X4420000Y14160000D02*
X920000Y14160000D01*
X920000Y14160000D02*
X920000Y22660000D01*
X920000Y22660000D02*
X4420000Y22660000D01*
D13*
G04 #@! TO.C,C35*
X10750000Y8970000D02*
X10250000Y8970000D01*
X10250000Y8030000D02*
X10750000Y8030000D01*
G04 #@! TO.C,C40*
X10750000Y9870000D02*
X10250000Y9870000D01*
X10250000Y8930000D02*
X10750000Y8930000D01*
G04 #@! TO.C,C41*
X10750000Y10770000D02*
X10250000Y10770000D01*
X10250000Y9830000D02*
X10750000Y9830000D01*
G04 #@! TO.C,C42*
X16600000Y6120000D02*
X16100000Y6120000D01*
X16100000Y5180000D02*
X16600000Y5180000D01*
G04 #@! TO.C,L3*
X9950000Y8050000D02*
X10650000Y8050000D01*
X10650000Y6850000D02*
X9950000Y6850000D01*
G04 #@! TO.C,P5*
X448000Y34670000D02*
X3108000Y34670000D01*
X448000Y47430000D02*
X448000Y34670000D01*
X3108000Y47430000D02*
X3108000Y34670000D01*
X448000Y47430000D02*
X3108000Y47430000D01*
X448000Y48700000D02*
X448000Y50030000D01*
X448000Y50030000D02*
X1778000Y50030000D01*
G04 #@! TO.C,U3*
X24300000Y52910000D02*
X22400000Y52910000D01*
X22900000Y50590000D02*
X24300000Y50590000D01*
G04 #@! TO.C,P2*
X32170000Y34677000D02*
X34830000Y34677000D01*
X32170000Y47437000D02*
X32170000Y34677000D01*
X34830000Y47437000D02*
X34830000Y34677000D01*
X32170000Y47437000D02*
X34830000Y47437000D01*
X32170000Y48707000D02*
X32170000Y50037000D01*
X32170000Y50037000D02*
X33500000Y50037000D01*
D15*
G04 #@! TO.C,CONN1*
X26400000Y33200000D02*
X31900000Y33200000D01*
X31900000Y33200000D02*
X31900000Y21800000D01*
X31900000Y21800000D02*
X26400000Y21800000D01*
X26400000Y21800000D02*
X26400000Y33200000D01*
D13*
G04 #@! TO.C,P6*
X740000Y13860000D02*
X740000Y11740000D01*
X4800000Y13860000D02*
X740000Y13860000D01*
X4800000Y11740000D02*
X740000Y11740000D01*
X4800000Y13860000D02*
X4800000Y11740000D01*
X5800000Y13860000D02*
X6860000Y13860000D01*
X6860000Y13860000D02*
X6860000Y12800000D01*
G04 #@! TO.C,R1*
X3220000Y5925000D02*
X3220000Y5425000D01*
X4280000Y5425000D02*
X4280000Y5925000D01*
G04 #@! TO.C,R8*
X4450000Y11505000D02*
X3950000Y11505000D01*
X3950000Y10445000D02*
X4450000Y10445000D01*
G04 #@! TO.C,R11*
X4195000Y5925000D02*
X4195000Y5425000D01*
X5255000Y5425000D02*
X5255000Y5925000D01*
G04 #@! TO.C,U5*
X6322500Y7612500D02*
X6322500Y9412500D01*
X3102500Y9412500D02*
X3102500Y6962500D01*
D15*
G04 #@! TO.C,D1*
X8050000Y4510000D02*
X8050000Y2910000D01*
X8050000Y2910000D02*
X7250000Y2910000D01*
X7250000Y2910000D02*
X7250000Y4510000D01*
X7250000Y4510000D02*
X8050000Y4510000D01*
D16*
G04 #@! TO.C,G\002A\002A\002A*
G36*
X15476558Y25608056D02*
X16347512Y25385696D01*
X16852000Y25177495D01*
X17331583Y24877662D01*
X17808578Y24458505D01*
X18239460Y23965012D01*
X18580704Y23442169D01*
X18637158Y23332333D01*
X18755456Y23083863D01*
X18836009Y22882309D01*
X18885965Y22685412D01*
X18912473Y22450914D01*
X18922681Y22136555D01*
X18923737Y21700077D01*
X18923591Y21639000D01*
X18919025Y21165126D01*
X18904063Y20816182D01*
X18872694Y20547823D01*
X18818905Y20315702D01*
X18736685Y20075473D01*
X18698216Y19976567D01*
X18253204Y19076945D01*
X17659905Y18253347D01*
X17142182Y17707164D01*
X16523525Y17162451D01*
X15922542Y16733633D01*
X15283243Y16387331D01*
X14549638Y16090165D01*
X14269667Y15994682D01*
X13827125Y15889769D01*
X13277581Y15819191D01*
X12680337Y15785402D01*
X12094695Y15790858D01*
X11579959Y15838015D01*
X11380377Y15875058D01*
X10602461Y16132821D01*
X9888331Y16526718D01*
X9265487Y17037273D01*
X8761430Y17645009D01*
X8663655Y17799044D01*
X8347043Y18486740D01*
X8176091Y19234534D01*
X8155274Y19816246D01*
X8385333Y19816246D01*
X8464455Y19023206D01*
X8695502Y18294346D01*
X9068991Y17642637D01*
X9575443Y17081052D01*
X10205376Y16622560D01*
X10949311Y16280133D01*
X10976859Y16270560D01*
X11401679Y16141424D01*
X11680524Y16096612D01*
X11814246Y16136096D01*
X11812151Y16241500D01*
X11777619Y16393575D01*
X11742824Y16662276D01*
X11714286Y16995035D01*
X11709764Y17067000D01*
X11706108Y17194000D01*
X11983898Y17194000D01*
X11991101Y16708793D01*
X12028922Y16370979D01*
X12122167Y16158718D01*
X12295641Y16050172D01*
X12574149Y16023500D01*
X12982496Y16056862D01*
X13239239Y16088731D01*
X13534759Y16132030D01*
X13757887Y16174465D01*
X13861175Y16206984D01*
X13861698Y16207476D01*
X13868048Y16318517D01*
X13811750Y16537952D01*
X13708681Y16824150D01*
X13574715Y17135479D01*
X13425730Y17430308D01*
X13340186Y17575000D01*
X13127243Y17869006D01*
X12882330Y18145879D01*
X12639821Y18372497D01*
X12434092Y18515740D01*
X12329659Y18548667D01*
X12195905Y18467605D01*
X12091350Y18235094D01*
X12020081Y17867144D01*
X11986185Y17379769D01*
X11983898Y17194000D01*
X11706108Y17194000D01*
X11698006Y17475362D01*
X11724466Y17786683D01*
X11797215Y18070553D01*
X11839880Y18188858D01*
X11919934Y18438521D01*
X11949555Y18619796D01*
X11933208Y18680688D01*
X11894505Y18745031D01*
X12535629Y18745031D01*
X12864112Y18481055D01*
X13182194Y18164676D01*
X13502752Y17743201D01*
X13786684Y17275684D01*
X13994886Y16821179D01*
X14028694Y16722331D01*
X14121832Y16473178D01*
X14212051Y16306675D01*
X14263962Y16263701D01*
X14379359Y16296238D01*
X14606061Y16381787D01*
X14900980Y16503809D01*
X14991723Y16543048D01*
X15812486Y16959105D01*
X16528818Y17454942D01*
X17190995Y18067556D01*
X17451682Y18353263D01*
X17881032Y18908684D01*
X18227576Y19488558D01*
X18484433Y20069311D01*
X18644722Y20627365D01*
X18701561Y21139146D01*
X18648070Y21581078D01*
X18490511Y21912447D01*
X18266567Y22172986D01*
X18030172Y22343900D01*
X17735113Y22445860D01*
X17335176Y22499539D01*
X17151799Y22511280D01*
X16766628Y22543551D01*
X16548966Y22585814D01*
X16498746Y22630089D01*
X16615903Y22668392D01*
X16900371Y22692742D01*
X17153330Y22697333D01*
X17493687Y22710145D01*
X17708841Y22744856D01*
X17786557Y22795882D01*
X17714604Y22857639D01*
X17592833Y22897969D01*
X17148232Y22948283D01*
X16671914Y22890460D01*
X16426867Y22813735D01*
X16213753Y22736969D01*
X16079035Y22704506D01*
X16058857Y22707902D01*
X15795426Y23169051D01*
X15680287Y23645097D01*
X15713401Y24108837D01*
X15894729Y24533071D01*
X16061839Y24744127D01*
X16202505Y24897673D01*
X16230887Y24965708D01*
X16153988Y24982904D01*
X16110149Y24983333D01*
X15895574Y24904635D01*
X15698386Y24692295D01*
X15540444Y24381944D01*
X15443603Y24009217D01*
X15428266Y23871694D01*
X15416802Y23588618D01*
X15444167Y23375521D01*
X15529039Y23164147D01*
X15690098Y22886238D01*
X15704194Y22863362D01*
X15909207Y22495240D01*
X15994128Y22221074D01*
X15952126Y22008943D01*
X15776370Y21826922D01*
X15460030Y21643090D01*
X15441054Y21633603D01*
X14742237Y21217039D01*
X14065511Y20685921D01*
X13453598Y20079819D01*
X12949220Y19438300D01*
X12780838Y19169750D01*
X12535629Y18745031D01*
X11894505Y18745031D01*
X11854436Y18811642D01*
X11925658Y19009376D01*
X12143834Y19268179D01*
X12341837Y19448549D01*
X12836813Y19895712D01*
X13311994Y20374030D01*
X13750559Y20862048D01*
X14135685Y21338311D01*
X14450552Y21781365D01*
X14584339Y22009482D01*
X14989768Y22009482D01*
X15045778Y21907111D01*
X15161619Y21852180D01*
X15229873Y21951888D01*
X15243333Y22094300D01*
X15285092Y22309166D01*
X15370333Y22443333D01*
X15482414Y22579627D01*
X15472622Y22675963D01*
X15398167Y22697333D01*
X15222806Y22624633D01*
X15078621Y22446144D01*
X14992109Y22221287D01*
X14989768Y22009482D01*
X14584339Y22009482D01*
X14678337Y22169754D01*
X14802221Y22482024D01*
X14820000Y22609294D01*
X14747716Y22805868D01*
X14550832Y23044606D01*
X14259296Y23298473D01*
X13903058Y23540438D01*
X13616968Y23695177D01*
X13292171Y23834977D01*
X12868269Y23994047D01*
X12410005Y24148907D01*
X12127806Y24235193D01*
X11198523Y24505183D01*
X10632825Y24055044D01*
X9948807Y23422189D01*
X9372277Y22707073D01*
X8916083Y21933927D01*
X8593073Y21126980D01*
X8416094Y20310465D01*
X8385333Y19816246D01*
X8155274Y19816246D01*
X8147939Y20021180D01*
X8259729Y20825437D01*
X8508602Y21626062D01*
X8891698Y22401811D01*
X9376431Y23095243D01*
X9752825Y23522017D01*
X10195809Y23970295D01*
X10640676Y24376271D01*
X10850853Y24549153D01*
X11096782Y24709750D01*
X11450644Y24901420D01*
X11860524Y25099352D01*
X12274510Y25278736D01*
X12640687Y25414760D01*
X12703333Y25434493D01*
X13621786Y25634479D01*
X14557088Y25691659D01*
X15476558Y25608056D01*
X15476558Y25608056D01*
G37*
X15476558Y25608056D02*
X16347512Y25385696D01*
X16852000Y25177495D01*
X17331583Y24877662D01*
X17808578Y24458505D01*
X18239460Y23965012D01*
X18580704Y23442169D01*
X18637158Y23332333D01*
X18755456Y23083863D01*
X18836009Y22882309D01*
X18885965Y22685412D01*
X18912473Y22450914D01*
X18922681Y22136555D01*
X18923737Y21700077D01*
X18923591Y21639000D01*
X18919025Y21165126D01*
X18904063Y20816182D01*
X18872694Y20547823D01*
X18818905Y20315702D01*
X18736685Y20075473D01*
X18698216Y19976567D01*
X18253204Y19076945D01*
X17659905Y18253347D01*
X17142182Y17707164D01*
X16523525Y17162451D01*
X15922542Y16733633D01*
X15283243Y16387331D01*
X14549638Y16090165D01*
X14269667Y15994682D01*
X13827125Y15889769D01*
X13277581Y15819191D01*
X12680337Y15785402D01*
X12094695Y15790858D01*
X11579959Y15838015D01*
X11380377Y15875058D01*
X10602461Y16132821D01*
X9888331Y16526718D01*
X9265487Y17037273D01*
X8761430Y17645009D01*
X8663655Y17799044D01*
X8347043Y18486740D01*
X8176091Y19234534D01*
X8155274Y19816246D01*
X8385333Y19816246D01*
X8464455Y19023206D01*
X8695502Y18294346D01*
X9068991Y17642637D01*
X9575443Y17081052D01*
X10205376Y16622560D01*
X10949311Y16280133D01*
X10976859Y16270560D01*
X11401679Y16141424D01*
X11680524Y16096612D01*
X11814246Y16136096D01*
X11812151Y16241500D01*
X11777619Y16393575D01*
X11742824Y16662276D01*
X11714286Y16995035D01*
X11709764Y17067000D01*
X11706108Y17194000D01*
X11983898Y17194000D01*
X11991101Y16708793D01*
X12028922Y16370979D01*
X12122167Y16158718D01*
X12295641Y16050172D01*
X12574149Y16023500D01*
X12982496Y16056862D01*
X13239239Y16088731D01*
X13534759Y16132030D01*
X13757887Y16174465D01*
X13861175Y16206984D01*
X13861698Y16207476D01*
X13868048Y16318517D01*
X13811750Y16537952D01*
X13708681Y16824150D01*
X13574715Y17135479D01*
X13425730Y17430308D01*
X13340186Y17575000D01*
X13127243Y17869006D01*
X12882330Y18145879D01*
X12639821Y18372497D01*
X12434092Y18515740D01*
X12329659Y18548667D01*
X12195905Y18467605D01*
X12091350Y18235094D01*
X12020081Y17867144D01*
X11986185Y17379769D01*
X11983898Y17194000D01*
X11706108Y17194000D01*
X11698006Y17475362D01*
X11724466Y17786683D01*
X11797215Y18070553D01*
X11839880Y18188858D01*
X11919934Y18438521D01*
X11949555Y18619796D01*
X11933208Y18680688D01*
X11894505Y18745031D01*
X12535629Y18745031D01*
X12864112Y18481055D01*
X13182194Y18164676D01*
X13502752Y17743201D01*
X13786684Y17275684D01*
X13994886Y16821179D01*
X14028694Y16722331D01*
X14121832Y16473178D01*
X14212051Y16306675D01*
X14263962Y16263701D01*
X14379359Y16296238D01*
X14606061Y16381787D01*
X14900980Y16503809D01*
X14991723Y16543048D01*
X15812486Y16959105D01*
X16528818Y17454942D01*
X17190995Y18067556D01*
X17451682Y18353263D01*
X17881032Y18908684D01*
X18227576Y19488558D01*
X18484433Y20069311D01*
X18644722Y20627365D01*
X18701561Y21139146D01*
X18648070Y21581078D01*
X18490511Y21912447D01*
X18266567Y22172986D01*
X18030172Y22343900D01*
X17735113Y22445860D01*
X17335176Y22499539D01*
X17151799Y22511280D01*
X16766628Y22543551D01*
X16548966Y22585814D01*
X16498746Y22630089D01*
X16615903Y22668392D01*
X16900371Y22692742D01*
X17153330Y22697333D01*
X17493687Y22710145D01*
X17708841Y22744856D01*
X17786557Y22795882D01*
X17714604Y22857639D01*
X17592833Y22897969D01*
X17148232Y22948283D01*
X16671914Y22890460D01*
X16426867Y22813735D01*
X16213753Y22736969D01*
X16079035Y22704506D01*
X16058857Y22707902D01*
X15795426Y23169051D01*
X15680287Y23645097D01*
X15713401Y24108837D01*
X15894729Y24533071D01*
X16061839Y24744127D01*
X16202505Y24897673D01*
X16230887Y24965708D01*
X16153988Y24982904D01*
X16110149Y24983333D01*
X15895574Y24904635D01*
X15698386Y24692295D01*
X15540444Y24381944D01*
X15443603Y24009217D01*
X15428266Y23871694D01*
X15416802Y23588618D01*
X15444167Y23375521D01*
X15529039Y23164147D01*
X15690098Y22886238D01*
X15704194Y22863362D01*
X15909207Y22495240D01*
X15994128Y22221074D01*
X15952126Y22008943D01*
X15776370Y21826922D01*
X15460030Y21643090D01*
X15441054Y21633603D01*
X14742237Y21217039D01*
X14065511Y20685921D01*
X13453598Y20079819D01*
X12949220Y19438300D01*
X12780838Y19169750D01*
X12535629Y18745031D01*
X11894505Y18745031D01*
X11854436Y18811642D01*
X11925658Y19009376D01*
X12143834Y19268179D01*
X12341837Y19448549D01*
X12836813Y19895712D01*
X13311994Y20374030D01*
X13750559Y20862048D01*
X14135685Y21338311D01*
X14450552Y21781365D01*
X14584339Y22009482D01*
X14989768Y22009482D01*
X15045778Y21907111D01*
X15161619Y21852180D01*
X15229873Y21951888D01*
X15243333Y22094300D01*
X15285092Y22309166D01*
X15370333Y22443333D01*
X15482414Y22579627D01*
X15472622Y22675963D01*
X15398167Y22697333D01*
X15222806Y22624633D01*
X15078621Y22446144D01*
X14992109Y22221287D01*
X14989768Y22009482D01*
X14584339Y22009482D01*
X14678337Y22169754D01*
X14802221Y22482024D01*
X14820000Y22609294D01*
X14747716Y22805868D01*
X14550832Y23044606D01*
X14259296Y23298473D01*
X13903058Y23540438D01*
X13616968Y23695177D01*
X13292171Y23834977D01*
X12868269Y23994047D01*
X12410005Y24148907D01*
X12127806Y24235193D01*
X11198523Y24505183D01*
X10632825Y24055044D01*
X9948807Y23422189D01*
X9372277Y22707073D01*
X8916083Y21933927D01*
X8593073Y21126980D01*
X8416094Y20310465D01*
X8385333Y19816246D01*
X8155274Y19816246D01*
X8147939Y20021180D01*
X8259729Y20825437D01*
X8508602Y21626062D01*
X8891698Y22401811D01*
X9376431Y23095243D01*
X9752825Y23522017D01*
X10195809Y23970295D01*
X10640676Y24376271D01*
X10850853Y24549153D01*
X11096782Y24709750D01*
X11450644Y24901420D01*
X11860524Y25099352D01*
X12274510Y25278736D01*
X12640687Y25414760D01*
X12703333Y25434493D01*
X13621786Y25634479D01*
X14557088Y25691659D01*
X15476558Y25608056D01*
D13*
G04 #@! TO.C,R2*
X15770000Y41200000D02*
X15770000Y40700000D01*
X16830000Y40700000D02*
X16830000Y41200000D01*
G04 #@! TO.C,R3*
X18730000Y40700000D02*
X18730000Y41200000D01*
X17670000Y41200000D02*
X17670000Y40700000D01*
G04 #@! TO.C,R4*
X19680000Y40700000D02*
X19680000Y41200000D01*
X18620000Y41200000D02*
X18620000Y40700000D01*
G04 #@! TO.C,R5*
X19570000Y41200000D02*
X19570000Y40700000D01*
X20630000Y40700000D02*
X20630000Y41200000D01*
G04 #@! TO.C,R7*
X16720000Y41200000D02*
X16720000Y40700000D01*
X17780000Y40700000D02*
X17780000Y41200000D01*
G04 #@! TO.C,R9*
X23179300Y45340700D02*
X22679300Y45340700D01*
X22679300Y44280700D02*
X23179300Y44280700D01*
G04 #@! TO.C,R10*
X22679300Y43417100D02*
X23179300Y43417100D01*
X23179300Y44477100D02*
X22679300Y44477100D01*
G04 #@! TO.C,V_USB*
X7650000Y9600000D02*
X8350000Y9600000D01*
X8350000Y8400000D02*
X7650000Y8400000D01*
G04 #@! TO.C,R6*
D17*
X21412261Y39244167D02*
X21109880Y39032500D01*
X21412261Y38881310D02*
X20777261Y38881310D01*
X20777261Y39123215D01*
X20807500Y39183691D01*
X20837738Y39213929D01*
X20898214Y39244167D01*
X20988928Y39244167D01*
X21049404Y39213929D01*
X21079642Y39183691D01*
X21109880Y39123215D01*
X21109880Y38881310D01*
X20777261Y39788453D02*
X20777261Y39667500D01*
X20807500Y39607024D01*
X20837738Y39576786D01*
X20928452Y39516310D01*
X21049404Y39486072D01*
X21291309Y39486072D01*
X21351785Y39516310D01*
X21382023Y39546548D01*
X21412261Y39607024D01*
X21412261Y39727977D01*
X21382023Y39788453D01*
X21351785Y39818691D01*
X21291309Y39848929D01*
X21140119Y39848929D01*
X21079642Y39818691D01*
X21049404Y39788453D01*
X21019166Y39727977D01*
X21019166Y39607024D01*
X21049404Y39546548D01*
X21079642Y39516310D01*
X21140119Y39486072D01*
G04 #@! TO.C,IC3*
X35380119Y3237739D02*
X35380119Y3872739D01*
X36045357Y3298215D02*
X36015119Y3267977D01*
X35924404Y3237739D01*
X35863928Y3237739D01*
X35773214Y3267977D01*
X35712738Y3328453D01*
X35682500Y3388929D01*
X35652261Y3509881D01*
X35652261Y3600596D01*
X35682500Y3721548D01*
X35712738Y3782024D01*
X35773214Y3842500D01*
X35863928Y3872739D01*
X35924404Y3872739D01*
X36015119Y3842500D01*
X36045357Y3812262D01*
X36257023Y3872739D02*
X36650119Y3872739D01*
X36438452Y3630834D01*
X36529166Y3630834D01*
X36589642Y3600596D01*
X36619880Y3570358D01*
X36650119Y3509881D01*
X36650119Y3358691D01*
X36619880Y3298215D01*
X36589642Y3267977D01*
X36529166Y3237739D01*
X36347738Y3237739D01*
X36287261Y3267977D01*
X36257023Y3298215D01*
D11*
X36096428Y5819048D02*
X35496428Y5819048D01*
X36096428Y6276191D02*
X35753571Y5933334D01*
X35496428Y6276191D02*
X35839285Y5819048D01*
X35782142Y6619048D02*
X35782142Y6885715D01*
X36096428Y7000000D02*
X36096428Y6619048D01*
X35496428Y6619048D01*
X35496428Y7000000D01*
X35782142Y7342858D02*
X35782142Y7609524D01*
X36096428Y7723810D02*
X36096428Y7342858D01*
X35496428Y7342858D01*
X35496428Y7723810D01*
X36096428Y8066667D02*
X35496428Y8066667D01*
X35496428Y8371429D01*
X35525000Y8447620D01*
X35553571Y8485715D01*
X35610714Y8523810D01*
X35696428Y8523810D01*
X35753571Y8485715D01*
X35782142Y8447620D01*
X35810714Y8371429D01*
X35810714Y8066667D01*
X35496428Y9628572D02*
X35496428Y9780953D01*
X35525000Y9857143D01*
X35582142Y9933334D01*
X35696428Y9971429D01*
X35896428Y9971429D01*
X36010714Y9933334D01*
X36067857Y9857143D01*
X36096428Y9780953D01*
X36096428Y9628572D01*
X36067857Y9552381D01*
X36010714Y9476191D01*
X35896428Y9438096D01*
X35696428Y9438096D01*
X35582142Y9476191D01*
X35525000Y9552381D01*
X35496428Y9628572D01*
X35496428Y10314286D02*
X35982142Y10314286D01*
X36039285Y10352381D01*
X36067857Y10390477D01*
X36096428Y10466667D01*
X36096428Y10619048D01*
X36067857Y10695239D01*
X36039285Y10733334D01*
X35982142Y10771429D01*
X35496428Y10771429D01*
X35496428Y11038096D02*
X35496428Y11495239D01*
X36096428Y11266667D02*
X35496428Y11266667D01*
G04 #@! TO.C,D2*
D17*
X12331309Y34312739D02*
X12331309Y34947739D01*
X12482500Y34947739D01*
X12573214Y34917500D01*
X12633690Y34857024D01*
X12663928Y34796548D01*
X12694166Y34675596D01*
X12694166Y34584881D01*
X12663928Y34463929D01*
X12633690Y34403453D01*
X12573214Y34342977D01*
X12482500Y34312739D01*
X12331309Y34312739D01*
X12936071Y34887262D02*
X12966309Y34917500D01*
X13026785Y34947739D01*
X13177976Y34947739D01*
X13238452Y34917500D01*
X13268690Y34887262D01*
X13298928Y34826786D01*
X13298928Y34766310D01*
X13268690Y34675596D01*
X12905833Y34312739D01*
X13298928Y34312739D01*
G04 #@! TO.C,D3*
X22131309Y34312739D02*
X22131309Y34947739D01*
X22282500Y34947739D01*
X22373214Y34917500D01*
X22433690Y34857024D01*
X22463928Y34796548D01*
X22494166Y34675596D01*
X22494166Y34584881D01*
X22463928Y34463929D01*
X22433690Y34403453D01*
X22373214Y34342977D01*
X22282500Y34312739D01*
X22131309Y34312739D01*
X22705833Y34947739D02*
X23098928Y34947739D01*
X22887261Y34705834D01*
X22977976Y34705834D01*
X23038452Y34675596D01*
X23068690Y34645358D01*
X23098928Y34584881D01*
X23098928Y34433691D01*
X23068690Y34373215D01*
X23038452Y34342977D01*
X22977976Y34312739D01*
X22796547Y34312739D01*
X22736071Y34342977D01*
X22705833Y34373215D01*
G04 #@! TO.C,R12*
X15991785Y61662739D02*
X15780119Y61965120D01*
X15628928Y61662739D02*
X15628928Y62297739D01*
X15870833Y62297739D01*
X15931309Y62267500D01*
X15961547Y62237262D01*
X15991785Y62176786D01*
X15991785Y62086072D01*
X15961547Y62025596D01*
X15931309Y61995358D01*
X15870833Y61965120D01*
X15628928Y61965120D01*
X16596547Y61662739D02*
X16233690Y61662739D01*
X16415119Y61662739D02*
X16415119Y62297739D01*
X16354642Y62207024D01*
X16294166Y62146548D01*
X16233690Y62116310D01*
X16838452Y62237262D02*
X16868690Y62267500D01*
X16929166Y62297739D01*
X17080357Y62297739D01*
X17140833Y62267500D01*
X17171071Y62237262D01*
X17201309Y62176786D01*
X17201309Y62116310D01*
X17171071Y62025596D01*
X16808214Y61662739D01*
X17201309Y61662739D01*
G04 #@! TO.C,R13*
X15991785Y62962739D02*
X15780119Y63265120D01*
X15628928Y62962739D02*
X15628928Y63597739D01*
X15870833Y63597739D01*
X15931309Y63567500D01*
X15961547Y63537262D01*
X15991785Y63476786D01*
X15991785Y63386072D01*
X15961547Y63325596D01*
X15931309Y63295358D01*
X15870833Y63265120D01*
X15628928Y63265120D01*
X16596547Y62962739D02*
X16233690Y62962739D01*
X16415119Y62962739D02*
X16415119Y63597739D01*
X16354642Y63507024D01*
X16294166Y63446548D01*
X16233690Y63416310D01*
X16808214Y63597739D02*
X17201309Y63597739D01*
X16989642Y63355834D01*
X17080357Y63355834D01*
X17140833Y63325596D01*
X17171071Y63295358D01*
X17201309Y63234881D01*
X17201309Y63083691D01*
X17171071Y63023215D01*
X17140833Y62992977D01*
X17080357Y62962739D01*
X16898928Y62962739D01*
X16838452Y62992977D01*
X16808214Y63023215D01*
G04 #@! TO.C,R14*
X15991785Y60362739D02*
X15780119Y60665120D01*
X15628928Y60362739D02*
X15628928Y60997739D01*
X15870833Y60997739D01*
X15931309Y60967500D01*
X15961547Y60937262D01*
X15991785Y60876786D01*
X15991785Y60786072D01*
X15961547Y60725596D01*
X15931309Y60695358D01*
X15870833Y60665120D01*
X15628928Y60665120D01*
X16596547Y60362739D02*
X16233690Y60362739D01*
X16415119Y60362739D02*
X16415119Y60997739D01*
X16354642Y60907024D01*
X16294166Y60846548D01*
X16233690Y60816310D01*
X17140833Y60786072D02*
X17140833Y60362739D01*
X16989642Y61027977D02*
X16838452Y60574405D01*
X17231547Y60574405D01*
G04 #@! TO.C,R15*
X21662261Y54191786D02*
X21359880Y53980120D01*
X21662261Y53828929D02*
X21027261Y53828929D01*
X21027261Y54070834D01*
X21057500Y54131310D01*
X21087738Y54161548D01*
X21148214Y54191786D01*
X21238928Y54191786D01*
X21299404Y54161548D01*
X21329642Y54131310D01*
X21359880Y54070834D01*
X21359880Y53828929D01*
X21662261Y54796548D02*
X21662261Y54433691D01*
X21662261Y54615120D02*
X21027261Y54615120D01*
X21117976Y54554643D01*
X21178452Y54494167D01*
X21208690Y54433691D01*
X21027261Y55371072D02*
X21027261Y55068691D01*
X21329642Y55038453D01*
X21299404Y55068691D01*
X21269166Y55129167D01*
X21269166Y55280358D01*
X21299404Y55340834D01*
X21329642Y55371072D01*
X21390119Y55401310D01*
X21541309Y55401310D01*
X21601785Y55371072D01*
X21632023Y55340834D01*
X21662261Y55280358D01*
X21662261Y55129167D01*
X21632023Y55068691D01*
X21601785Y55038453D01*
G04 #@! TO.C,R16*
X13862261Y54191786D02*
X13559880Y53980120D01*
X13862261Y53828929D02*
X13227261Y53828929D01*
X13227261Y54070834D01*
X13257500Y54131310D01*
X13287738Y54161548D01*
X13348214Y54191786D01*
X13438928Y54191786D01*
X13499404Y54161548D01*
X13529642Y54131310D01*
X13559880Y54070834D01*
X13559880Y53828929D01*
X13862261Y54796548D02*
X13862261Y54433691D01*
X13862261Y54615120D02*
X13227261Y54615120D01*
X13317976Y54554643D01*
X13378452Y54494167D01*
X13408690Y54433691D01*
X13227261Y55340834D02*
X13227261Y55219881D01*
X13257500Y55159405D01*
X13287738Y55129167D01*
X13378452Y55068691D01*
X13499404Y55038453D01*
X13741309Y55038453D01*
X13801785Y55068691D01*
X13832023Y55098929D01*
X13862261Y55159405D01*
X13862261Y55280358D01*
X13832023Y55340834D01*
X13801785Y55371072D01*
X13741309Y55401310D01*
X13590119Y55401310D01*
X13529642Y55371072D01*
X13499404Y55340834D01*
X13469166Y55280358D01*
X13469166Y55159405D01*
X13499404Y55098929D01*
X13529642Y55068691D01*
X13590119Y55038453D01*
G04 #@! TO.C,R17*
X15991785Y64162739D02*
X15780119Y64465120D01*
X15628928Y64162739D02*
X15628928Y64797739D01*
X15870833Y64797739D01*
X15931309Y64767500D01*
X15961547Y64737262D01*
X15991785Y64676786D01*
X15991785Y64586072D01*
X15961547Y64525596D01*
X15931309Y64495358D01*
X15870833Y64465120D01*
X15628928Y64465120D01*
X16596547Y64162739D02*
X16233690Y64162739D01*
X16415119Y64162739D02*
X16415119Y64797739D01*
X16354642Y64707024D01*
X16294166Y64646548D01*
X16233690Y64616310D01*
X16808214Y64797739D02*
X17231547Y64797739D01*
X16959404Y64162739D01*
G04 #@! TO.C,U2*
X15002261Y41116191D02*
X15516309Y41116191D01*
X15576785Y41146429D01*
X15607023Y41176667D01*
X15637261Y41237143D01*
X15637261Y41358096D01*
X15607023Y41418572D01*
X15576785Y41448810D01*
X15516309Y41479048D01*
X15002261Y41479048D01*
X15062738Y41751191D02*
X15032500Y41781429D01*
X15002261Y41841905D01*
X15002261Y41993096D01*
X15032500Y42053572D01*
X15062738Y42083810D01*
X15123214Y42114048D01*
X15183690Y42114048D01*
X15274404Y42083810D01*
X15637261Y41720953D01*
X15637261Y42114048D01*
G04 #@! TO.C,J2*
X13011133Y72979739D02*
X13011133Y72526167D01*
X12980895Y72435453D01*
X12920419Y72374977D01*
X12829704Y72344739D01*
X12769228Y72344739D01*
X13283276Y72919262D02*
X13313514Y72949500D01*
X13373990Y72979739D01*
X13525180Y72979739D01*
X13585657Y72949500D01*
X13615895Y72919262D01*
X13646133Y72858786D01*
X13646133Y72798310D01*
X13615895Y72707596D01*
X13253038Y72344739D01*
X13646133Y72344739D01*
G04 #@! TO.C,J1*
X33963333Y72872739D02*
X33963333Y72419167D01*
X33933095Y72328453D01*
X33872619Y72267977D01*
X33781904Y72237739D01*
X33721428Y72237739D01*
X34598333Y72237739D02*
X34235476Y72237739D01*
X34416904Y72237739D02*
X34416904Y72872739D01*
X34356428Y72782024D01*
X34295952Y72721548D01*
X34235476Y72691310D01*
G04 #@! TO.C,C1*
X20576785Y31244167D02*
X20607023Y31213929D01*
X20637261Y31123215D01*
X20637261Y31062739D01*
X20607023Y30972024D01*
X20546547Y30911548D01*
X20486071Y30881310D01*
X20365119Y30851072D01*
X20274404Y30851072D01*
X20153452Y30881310D01*
X20092976Y30911548D01*
X20032500Y30972024D01*
X20002261Y31062739D01*
X20002261Y31123215D01*
X20032500Y31213929D01*
X20062738Y31244167D01*
X20637261Y31848929D02*
X20637261Y31486072D01*
X20637261Y31667500D02*
X20002261Y31667500D01*
X20092976Y31607024D01*
X20153452Y31546548D01*
X20183690Y31486072D01*
G04 #@! TO.C,C2*
X14507385Y45619267D02*
X14537623Y45589029D01*
X14567861Y45498315D01*
X14567861Y45437839D01*
X14537623Y45347124D01*
X14477147Y45286648D01*
X14416671Y45256410D01*
X14295719Y45226172D01*
X14205004Y45226172D01*
X14084052Y45256410D01*
X14023576Y45286648D01*
X13963100Y45347124D01*
X13932861Y45437839D01*
X13932861Y45498315D01*
X13963100Y45589029D01*
X13993338Y45619267D01*
X13993338Y45861172D02*
X13963100Y45891410D01*
X13932861Y45951886D01*
X13932861Y46103077D01*
X13963100Y46163553D01*
X13993338Y46193791D01*
X14053814Y46224029D01*
X14114290Y46224029D01*
X14205004Y46193791D01*
X14567861Y45830934D01*
X14567861Y46224029D01*
G04 #@! TO.C,C3*
X13338985Y50915167D02*
X13369223Y50884929D01*
X13399461Y50794215D01*
X13399461Y50733739D01*
X13369223Y50643024D01*
X13308747Y50582548D01*
X13248271Y50552310D01*
X13127319Y50522072D01*
X13036604Y50522072D01*
X12915652Y50552310D01*
X12855176Y50582548D01*
X12794700Y50643024D01*
X12764461Y50733739D01*
X12764461Y50794215D01*
X12794700Y50884929D01*
X12824938Y50915167D01*
X12764461Y51126834D02*
X12764461Y51519929D01*
X13006366Y51308262D01*
X13006366Y51398977D01*
X13036604Y51459453D01*
X13066842Y51489691D01*
X13127319Y51519929D01*
X13278509Y51519929D01*
X13338985Y51489691D01*
X13369223Y51459453D01*
X13399461Y51398977D01*
X13399461Y51217548D01*
X13369223Y51157072D01*
X13338985Y51126834D01*
G04 #@! TO.C,C4*
X22539285Y39479867D02*
X22569523Y39449629D01*
X22599761Y39358915D01*
X22599761Y39298439D01*
X22569523Y39207724D01*
X22509047Y39147248D01*
X22448571Y39117010D01*
X22327619Y39086772D01*
X22236904Y39086772D01*
X22115952Y39117010D01*
X22055476Y39147248D01*
X21995000Y39207724D01*
X21964761Y39298439D01*
X21964761Y39358915D01*
X21995000Y39449629D01*
X22025238Y39479867D01*
X22176428Y40024153D02*
X22599761Y40024153D01*
X21934523Y39872962D02*
X22388095Y39721772D01*
X22388095Y40114867D01*
G04 #@! TO.C,C5*
X24264885Y39527267D02*
X24295123Y39497029D01*
X24325361Y39406315D01*
X24325361Y39345839D01*
X24295123Y39255124D01*
X24234647Y39194648D01*
X24174171Y39164410D01*
X24053219Y39134172D01*
X23962504Y39134172D01*
X23841552Y39164410D01*
X23781076Y39194648D01*
X23720600Y39255124D01*
X23690361Y39345839D01*
X23690361Y39406315D01*
X23720600Y39497029D01*
X23750838Y39527267D01*
X23690361Y40101791D02*
X23690361Y39799410D01*
X23992742Y39769172D01*
X23962504Y39799410D01*
X23932266Y39859886D01*
X23932266Y40011077D01*
X23962504Y40071553D01*
X23992742Y40101791D01*
X24053219Y40132029D01*
X24204409Y40132029D01*
X24264885Y40101791D01*
X24295123Y40071553D01*
X24325361Y40011077D01*
X24325361Y39859886D01*
X24295123Y39799410D01*
X24264885Y39769172D01*
G04 #@! TO.C,C6*
X13311166Y39161015D02*
X13280928Y39130777D01*
X13190214Y39100539D01*
X13129738Y39100539D01*
X13039023Y39130777D01*
X12978547Y39191253D01*
X12948309Y39251729D01*
X12918071Y39372681D01*
X12918071Y39463396D01*
X12948309Y39584348D01*
X12978547Y39644824D01*
X13039023Y39705300D01*
X13129738Y39735539D01*
X13190214Y39735539D01*
X13280928Y39705300D01*
X13311166Y39675062D01*
X13855452Y39735539D02*
X13734500Y39735539D01*
X13674023Y39705300D01*
X13643785Y39675062D01*
X13583309Y39584348D01*
X13553071Y39463396D01*
X13553071Y39221491D01*
X13583309Y39161015D01*
X13613547Y39130777D01*
X13674023Y39100539D01*
X13794976Y39100539D01*
X13855452Y39130777D01*
X13885690Y39161015D01*
X13915928Y39221491D01*
X13915928Y39372681D01*
X13885690Y39433158D01*
X13855452Y39463396D01*
X13794976Y39493634D01*
X13674023Y39493634D01*
X13613547Y39463396D01*
X13583309Y39433158D01*
X13553071Y39372681D01*
G04 #@! TO.C,C7*
X13336566Y40151615D02*
X13306328Y40121377D01*
X13215614Y40091139D01*
X13155138Y40091139D01*
X13064423Y40121377D01*
X13003947Y40181853D01*
X12973709Y40242329D01*
X12943471Y40363281D01*
X12943471Y40453996D01*
X12973709Y40574948D01*
X13003947Y40635424D01*
X13064423Y40695900D01*
X13155138Y40726139D01*
X13215614Y40726139D01*
X13306328Y40695900D01*
X13336566Y40665662D01*
X13548233Y40726139D02*
X13971566Y40726139D01*
X13699423Y40091139D01*
G04 #@! TO.C,C8*
X13415185Y45581167D02*
X13445423Y45550929D01*
X13475661Y45460215D01*
X13475661Y45399739D01*
X13445423Y45309024D01*
X13384947Y45248548D01*
X13324471Y45218310D01*
X13203519Y45188072D01*
X13112804Y45188072D01*
X12991852Y45218310D01*
X12931376Y45248548D01*
X12870900Y45309024D01*
X12840661Y45399739D01*
X12840661Y45460215D01*
X12870900Y45550929D01*
X12901138Y45581167D01*
X13112804Y45944024D02*
X13082566Y45883548D01*
X13052328Y45853310D01*
X12991852Y45823072D01*
X12961614Y45823072D01*
X12901138Y45853310D01*
X12870900Y45883548D01*
X12840661Y45944024D01*
X12840661Y46064977D01*
X12870900Y46125453D01*
X12901138Y46155691D01*
X12961614Y46185929D01*
X12991852Y46185929D01*
X13052328Y46155691D01*
X13082566Y46125453D01*
X13112804Y46064977D01*
X13112804Y45944024D01*
X13143042Y45883548D01*
X13173280Y45853310D01*
X13233757Y45823072D01*
X13354709Y45823072D01*
X13415185Y45853310D01*
X13445423Y45883548D01*
X13475661Y45944024D01*
X13475661Y46064977D01*
X13445423Y46125453D01*
X13415185Y46155691D01*
X13354709Y46185929D01*
X13233757Y46185929D01*
X13173280Y46155691D01*
X13143042Y46125453D01*
X13112804Y46064977D01*
G04 #@! TO.C,C9*
X13394166Y46573215D02*
X13363928Y46542977D01*
X13273214Y46512739D01*
X13212738Y46512739D01*
X13122023Y46542977D01*
X13061547Y46603453D01*
X13031309Y46663929D01*
X13001071Y46784881D01*
X13001071Y46875596D01*
X13031309Y46996548D01*
X13061547Y47057024D01*
X13122023Y47117500D01*
X13212738Y47147739D01*
X13273214Y47147739D01*
X13363928Y47117500D01*
X13394166Y47087262D01*
X13696547Y46512739D02*
X13817500Y46512739D01*
X13877976Y46542977D01*
X13908214Y46573215D01*
X13968690Y46663929D01*
X13998928Y46784881D01*
X13998928Y47026786D01*
X13968690Y47087262D01*
X13938452Y47117500D01*
X13877976Y47147739D01*
X13757023Y47147739D01*
X13696547Y47117500D01*
X13666309Y47087262D01*
X13636071Y47026786D01*
X13636071Y46875596D01*
X13666309Y46815120D01*
X13696547Y46784881D01*
X13757023Y46754643D01*
X13877976Y46754643D01*
X13938452Y46784881D01*
X13968690Y46815120D01*
X13998928Y46875596D01*
G04 #@! TO.C,C10*
X16463185Y50612786D02*
X16493423Y50582548D01*
X16523661Y50491834D01*
X16523661Y50431358D01*
X16493423Y50340643D01*
X16432947Y50280167D01*
X16372471Y50249929D01*
X16251519Y50219691D01*
X16160804Y50219691D01*
X16039852Y50249929D01*
X15979376Y50280167D01*
X15918900Y50340643D01*
X15888661Y50431358D01*
X15888661Y50491834D01*
X15918900Y50582548D01*
X15949138Y50612786D01*
X16523661Y51217548D02*
X16523661Y50854691D01*
X16523661Y51036120D02*
X15888661Y51036120D01*
X15979376Y50975643D01*
X16039852Y50915167D01*
X16070090Y50854691D01*
X15888661Y51610643D02*
X15888661Y51671120D01*
X15918900Y51731596D01*
X15949138Y51761834D01*
X16009614Y51792072D01*
X16130566Y51822310D01*
X16281757Y51822310D01*
X16402709Y51792072D01*
X16463185Y51761834D01*
X16493423Y51731596D01*
X16523661Y51671120D01*
X16523661Y51610643D01*
X16493423Y51550167D01*
X16463185Y51519929D01*
X16402709Y51489691D01*
X16281757Y51459453D01*
X16130566Y51459453D01*
X16009614Y51489691D01*
X15949138Y51519929D01*
X15918900Y51550167D01*
X15888661Y51610643D01*
G04 #@! TO.C,C11*
X19776785Y50041786D02*
X19807023Y50011548D01*
X19837261Y49920834D01*
X19837261Y49860358D01*
X19807023Y49769643D01*
X19746547Y49709167D01*
X19686071Y49678929D01*
X19565119Y49648691D01*
X19474404Y49648691D01*
X19353452Y49678929D01*
X19292976Y49709167D01*
X19232500Y49769643D01*
X19202261Y49860358D01*
X19202261Y49920834D01*
X19232500Y50011548D01*
X19262738Y50041786D01*
X19837261Y50646548D02*
X19837261Y50283691D01*
X19837261Y50465120D02*
X19202261Y50465120D01*
X19292976Y50404643D01*
X19353452Y50344167D01*
X19383690Y50283691D01*
X19837261Y51251310D02*
X19837261Y50888453D01*
X19837261Y51069881D02*
X19202261Y51069881D01*
X19292976Y51009405D01*
X19353452Y50948929D01*
X19383690Y50888453D01*
G04 #@! TO.C,C12*
X18873885Y55086286D02*
X18904123Y55056048D01*
X18934361Y54965334D01*
X18934361Y54904858D01*
X18904123Y54814143D01*
X18843647Y54753667D01*
X18783171Y54723429D01*
X18662219Y54693191D01*
X18571504Y54693191D01*
X18450552Y54723429D01*
X18390076Y54753667D01*
X18329600Y54814143D01*
X18299361Y54904858D01*
X18299361Y54965334D01*
X18329600Y55056048D01*
X18359838Y55086286D01*
X18934361Y55691048D02*
X18934361Y55328191D01*
X18934361Y55509620D02*
X18299361Y55509620D01*
X18390076Y55449143D01*
X18450552Y55388667D01*
X18480790Y55328191D01*
X18359838Y55932953D02*
X18329600Y55963191D01*
X18299361Y56023667D01*
X18299361Y56174858D01*
X18329600Y56235334D01*
X18359838Y56265572D01*
X18420314Y56295810D01*
X18480790Y56295810D01*
X18571504Y56265572D01*
X18934361Y55902715D01*
X18934361Y56295810D01*
G04 #@! TO.C,C13*
X17954585Y55086286D02*
X17984823Y55056048D01*
X18015061Y54965334D01*
X18015061Y54904858D01*
X17984823Y54814143D01*
X17924347Y54753667D01*
X17863871Y54723429D01*
X17742919Y54693191D01*
X17652204Y54693191D01*
X17531252Y54723429D01*
X17470776Y54753667D01*
X17410300Y54814143D01*
X17380061Y54904858D01*
X17380061Y54965334D01*
X17410300Y55056048D01*
X17440538Y55086286D01*
X18015061Y55691048D02*
X18015061Y55328191D01*
X18015061Y55509620D02*
X17380061Y55509620D01*
X17470776Y55449143D01*
X17531252Y55388667D01*
X17561490Y55328191D01*
X17380061Y55902715D02*
X17380061Y56295810D01*
X17621966Y56084143D01*
X17621966Y56174858D01*
X17652204Y56235334D01*
X17682442Y56265572D01*
X17742919Y56295810D01*
X17894109Y56295810D01*
X17954585Y56265572D01*
X17984823Y56235334D01*
X18015061Y56174858D01*
X18015061Y55993429D01*
X17984823Y55932953D01*
X17954585Y55902715D01*
G04 #@! TO.C,C15*
X7891785Y6173215D02*
X7861547Y6142977D01*
X7770833Y6112739D01*
X7710357Y6112739D01*
X7619642Y6142977D01*
X7559166Y6203453D01*
X7528928Y6263929D01*
X7498690Y6384881D01*
X7498690Y6475596D01*
X7528928Y6596548D01*
X7559166Y6657024D01*
X7619642Y6717500D01*
X7710357Y6747739D01*
X7770833Y6747739D01*
X7861547Y6717500D01*
X7891785Y6687262D01*
X8496547Y6112739D02*
X8133690Y6112739D01*
X8315119Y6112739D02*
X8315119Y6747739D01*
X8254642Y6657024D01*
X8194166Y6596548D01*
X8133690Y6566310D01*
X9071071Y6747739D02*
X8768690Y6747739D01*
X8738452Y6445358D01*
X8768690Y6475596D01*
X8829166Y6505834D01*
X8980357Y6505834D01*
X9040833Y6475596D01*
X9071071Y6445358D01*
X9101309Y6384881D01*
X9101309Y6233691D01*
X9071071Y6173215D01*
X9040833Y6142977D01*
X8980357Y6112739D01*
X8829166Y6112739D01*
X8768690Y6142977D01*
X8738452Y6173215D01*
G04 #@! TO.C,C16*
X32449519Y52491746D02*
X32419281Y52461508D01*
X32328567Y52431270D01*
X32268091Y52431270D01*
X32177376Y52461508D01*
X32116900Y52521984D01*
X32086662Y52582460D01*
X32056424Y52703412D01*
X32056424Y52794127D01*
X32086662Y52915079D01*
X32116900Y52975555D01*
X32177376Y53036031D01*
X32268091Y53066270D01*
X32328567Y53066270D01*
X32419281Y53036031D01*
X32449519Y53005793D01*
X33054281Y52431270D02*
X32691424Y52431270D01*
X32872853Y52431270D02*
X32872853Y53066270D01*
X32812376Y52975555D01*
X32751900Y52915079D01*
X32691424Y52884841D01*
X33598567Y53066270D02*
X33477614Y53066270D01*
X33417138Y53036031D01*
X33386900Y53005793D01*
X33326424Y52915079D01*
X33296186Y52794127D01*
X33296186Y52552222D01*
X33326424Y52491746D01*
X33356662Y52461508D01*
X33417138Y52431270D01*
X33538091Y52431270D01*
X33598567Y52461508D01*
X33628805Y52491746D01*
X33659043Y52552222D01*
X33659043Y52703412D01*
X33628805Y52763889D01*
X33598567Y52794127D01*
X33538091Y52824365D01*
X33417138Y52824365D01*
X33356662Y52794127D01*
X33326424Y52763889D01*
X33296186Y52703412D01*
G04 #@! TO.C,C17*
X32449519Y53532446D02*
X32419281Y53502208D01*
X32328567Y53471970D01*
X32268091Y53471970D01*
X32177376Y53502208D01*
X32116900Y53562684D01*
X32086662Y53623160D01*
X32056424Y53744112D01*
X32056424Y53834827D01*
X32086662Y53955779D01*
X32116900Y54016255D01*
X32177376Y54076731D01*
X32268091Y54106970D01*
X32328567Y54106970D01*
X32419281Y54076731D01*
X32449519Y54046493D01*
X33054281Y53471970D02*
X32691424Y53471970D01*
X32872853Y53471970D02*
X32872853Y54106970D01*
X32812376Y54016255D01*
X32751900Y53955779D01*
X32691424Y53925541D01*
X33265948Y54106970D02*
X33689281Y54106970D01*
X33417138Y53471970D01*
G04 #@! TO.C,C18*
X4641785Y52523215D02*
X4611547Y52492977D01*
X4520833Y52462739D01*
X4460357Y52462739D01*
X4369642Y52492977D01*
X4309166Y52553453D01*
X4278928Y52613929D01*
X4248690Y52734881D01*
X4248690Y52825596D01*
X4278928Y52946548D01*
X4309166Y53007024D01*
X4369642Y53067500D01*
X4460357Y53097739D01*
X4520833Y53097739D01*
X4611547Y53067500D01*
X4641785Y53037262D01*
X5246547Y52462739D02*
X4883690Y52462739D01*
X5065119Y52462739D02*
X5065119Y53097739D01*
X5004642Y53007024D01*
X4944166Y52946548D01*
X4883690Y52916310D01*
X5609404Y52825596D02*
X5548928Y52855834D01*
X5518690Y52886072D01*
X5488452Y52946548D01*
X5488452Y52976786D01*
X5518690Y53037262D01*
X5548928Y53067500D01*
X5609404Y53097739D01*
X5730357Y53097739D01*
X5790833Y53067500D01*
X5821071Y53037262D01*
X5851309Y52976786D01*
X5851309Y52946548D01*
X5821071Y52886072D01*
X5790833Y52855834D01*
X5730357Y52825596D01*
X5609404Y52825596D01*
X5548928Y52795358D01*
X5518690Y52765120D01*
X5488452Y52704643D01*
X5488452Y52583691D01*
X5518690Y52523215D01*
X5548928Y52492977D01*
X5609404Y52462739D01*
X5730357Y52462739D01*
X5790833Y52492977D01*
X5821071Y52523215D01*
X5851309Y52583691D01*
X5851309Y52704643D01*
X5821071Y52765120D01*
X5790833Y52795358D01*
X5730357Y52825596D01*
G04 #@! TO.C,C19*
X4643085Y53542615D02*
X4612847Y53512377D01*
X4522133Y53482139D01*
X4461657Y53482139D01*
X4370942Y53512377D01*
X4310466Y53572853D01*
X4280228Y53633329D01*
X4249990Y53754281D01*
X4249990Y53844996D01*
X4280228Y53965948D01*
X4310466Y54026424D01*
X4370942Y54086900D01*
X4461657Y54117139D01*
X4522133Y54117139D01*
X4612847Y54086900D01*
X4643085Y54056662D01*
X5247847Y53482139D02*
X4884990Y53482139D01*
X5066419Y53482139D02*
X5066419Y54117139D01*
X5005942Y54026424D01*
X4945466Y53965948D01*
X4884990Y53935710D01*
X5550228Y53482139D02*
X5671180Y53482139D01*
X5731657Y53512377D01*
X5761895Y53542615D01*
X5822371Y53633329D01*
X5852609Y53754281D01*
X5852609Y53996186D01*
X5822371Y54056662D01*
X5792133Y54086900D01*
X5731657Y54117139D01*
X5610704Y54117139D01*
X5550228Y54086900D01*
X5519990Y54056662D01*
X5489752Y53996186D01*
X5489752Y53844996D01*
X5519990Y53784520D01*
X5550228Y53754281D01*
X5610704Y53724043D01*
X5731657Y53724043D01*
X5792133Y53754281D01*
X5822371Y53784520D01*
X5852609Y53844996D01*
G04 #@! TO.C,R18*
X16087261Y34141786D02*
X15784880Y33930120D01*
X16087261Y33778929D02*
X15452261Y33778929D01*
X15452261Y34020834D01*
X15482500Y34081310D01*
X15512738Y34111548D01*
X15573214Y34141786D01*
X15663928Y34141786D01*
X15724404Y34111548D01*
X15754642Y34081310D01*
X15784880Y34020834D01*
X15784880Y33778929D01*
X16087261Y34746548D02*
X16087261Y34383691D01*
X16087261Y34565120D02*
X15452261Y34565120D01*
X15542976Y34504643D01*
X15603452Y34444167D01*
X15633690Y34383691D01*
X15724404Y35109405D02*
X15694166Y35048929D01*
X15663928Y35018691D01*
X15603452Y34988453D01*
X15573214Y34988453D01*
X15512738Y35018691D01*
X15482500Y35048929D01*
X15452261Y35109405D01*
X15452261Y35230358D01*
X15482500Y35290834D01*
X15512738Y35321072D01*
X15573214Y35351310D01*
X15603452Y35351310D01*
X15663928Y35321072D01*
X15694166Y35290834D01*
X15724404Y35230358D01*
X15724404Y35109405D01*
X15754642Y35048929D01*
X15784880Y35018691D01*
X15845357Y34988453D01*
X15966309Y34988453D01*
X16026785Y35018691D01*
X16057023Y35048929D01*
X16087261Y35109405D01*
X16087261Y35230358D01*
X16057023Y35290834D01*
X16026785Y35321072D01*
X15966309Y35351310D01*
X15845357Y35351310D01*
X15784880Y35321072D01*
X15754642Y35290834D01*
X15724404Y35230358D01*
G04 #@! TO.C,R21*
X19937261Y34191786D02*
X19634880Y33980120D01*
X19937261Y33828929D02*
X19302261Y33828929D01*
X19302261Y34070834D01*
X19332500Y34131310D01*
X19362738Y34161548D01*
X19423214Y34191786D01*
X19513928Y34191786D01*
X19574404Y34161548D01*
X19604642Y34131310D01*
X19634880Y34070834D01*
X19634880Y33828929D01*
X19362738Y34433691D02*
X19332500Y34463929D01*
X19302261Y34524405D01*
X19302261Y34675596D01*
X19332500Y34736072D01*
X19362738Y34766310D01*
X19423214Y34796548D01*
X19483690Y34796548D01*
X19574404Y34766310D01*
X19937261Y34403453D01*
X19937261Y34796548D01*
X19937261Y35401310D02*
X19937261Y35038453D01*
X19937261Y35219881D02*
X19302261Y35219881D01*
X19392976Y35159405D01*
X19453452Y35098929D01*
X19483690Y35038453D01*
G04 #@! TO.C,C27*
X15326785Y26891786D02*
X15357023Y26861548D01*
X15387261Y26770834D01*
X15387261Y26710358D01*
X15357023Y26619643D01*
X15296547Y26559167D01*
X15236071Y26528929D01*
X15115119Y26498691D01*
X15024404Y26498691D01*
X14903452Y26528929D01*
X14842976Y26559167D01*
X14782500Y26619643D01*
X14752261Y26710358D01*
X14752261Y26770834D01*
X14782500Y26861548D01*
X14812738Y26891786D01*
X14812738Y27133691D02*
X14782500Y27163929D01*
X14752261Y27224405D01*
X14752261Y27375596D01*
X14782500Y27436072D01*
X14812738Y27466310D01*
X14873214Y27496548D01*
X14933690Y27496548D01*
X15024404Y27466310D01*
X15387261Y27103453D01*
X15387261Y27496548D01*
X14752261Y27708215D02*
X14752261Y28131548D01*
X15387261Y27859405D01*
G04 #@! TO.C,C28*
X21691785Y25873215D02*
X21661547Y25842977D01*
X21570833Y25812739D01*
X21510357Y25812739D01*
X21419642Y25842977D01*
X21359166Y25903453D01*
X21328928Y25963929D01*
X21298690Y26084881D01*
X21298690Y26175596D01*
X21328928Y26296548D01*
X21359166Y26357024D01*
X21419642Y26417500D01*
X21510357Y26447739D01*
X21570833Y26447739D01*
X21661547Y26417500D01*
X21691785Y26387262D01*
X21933690Y26387262D02*
X21963928Y26417500D01*
X22024404Y26447739D01*
X22175595Y26447739D01*
X22236071Y26417500D01*
X22266309Y26387262D01*
X22296547Y26326786D01*
X22296547Y26266310D01*
X22266309Y26175596D01*
X21903452Y25812739D01*
X22296547Y25812739D01*
X22659404Y26175596D02*
X22598928Y26205834D01*
X22568690Y26236072D01*
X22538452Y26296548D01*
X22538452Y26326786D01*
X22568690Y26387262D01*
X22598928Y26417500D01*
X22659404Y26447739D01*
X22780357Y26447739D01*
X22840833Y26417500D01*
X22871071Y26387262D01*
X22901309Y26326786D01*
X22901309Y26296548D01*
X22871071Y26236072D01*
X22840833Y26205834D01*
X22780357Y26175596D01*
X22659404Y26175596D01*
X22598928Y26145358D01*
X22568690Y26115120D01*
X22538452Y26054643D01*
X22538452Y25933691D01*
X22568690Y25873215D01*
X22598928Y25842977D01*
X22659404Y25812739D01*
X22780357Y25812739D01*
X22840833Y25842977D01*
X22871071Y25873215D01*
X22901309Y25933691D01*
X22901309Y26054643D01*
X22871071Y26115120D01*
X22840833Y26145358D01*
X22780357Y26175596D01*
G04 #@! TO.C,C29*
X13326785Y26891786D02*
X13357023Y26861548D01*
X13387261Y26770834D01*
X13387261Y26710358D01*
X13357023Y26619643D01*
X13296547Y26559167D01*
X13236071Y26528929D01*
X13115119Y26498691D01*
X13024404Y26498691D01*
X12903452Y26528929D01*
X12842976Y26559167D01*
X12782500Y26619643D01*
X12752261Y26710358D01*
X12752261Y26770834D01*
X12782500Y26861548D01*
X12812738Y26891786D01*
X12812738Y27133691D02*
X12782500Y27163929D01*
X12752261Y27224405D01*
X12752261Y27375596D01*
X12782500Y27436072D01*
X12812738Y27466310D01*
X12873214Y27496548D01*
X12933690Y27496548D01*
X13024404Y27466310D01*
X13387261Y27103453D01*
X13387261Y27496548D01*
X13387261Y27798929D02*
X13387261Y27919881D01*
X13357023Y27980358D01*
X13326785Y28010596D01*
X13236071Y28071072D01*
X13115119Y28101310D01*
X12873214Y28101310D01*
X12812738Y28071072D01*
X12782500Y28040834D01*
X12752261Y27980358D01*
X12752261Y27859405D01*
X12782500Y27798929D01*
X12812738Y27768691D01*
X12873214Y27738453D01*
X13024404Y27738453D01*
X13084880Y27768691D01*
X13115119Y27798929D01*
X13145357Y27859405D01*
X13145357Y27980358D01*
X13115119Y28040834D01*
X13084880Y28071072D01*
X13024404Y28101310D01*
G04 #@! TO.C,C30*
X14326785Y26891786D02*
X14357023Y26861548D01*
X14387261Y26770834D01*
X14387261Y26710358D01*
X14357023Y26619643D01*
X14296547Y26559167D01*
X14236071Y26528929D01*
X14115119Y26498691D01*
X14024404Y26498691D01*
X13903452Y26528929D01*
X13842976Y26559167D01*
X13782500Y26619643D01*
X13752261Y26710358D01*
X13752261Y26770834D01*
X13782500Y26861548D01*
X13812738Y26891786D01*
X13752261Y27103453D02*
X13752261Y27496548D01*
X13994166Y27284881D01*
X13994166Y27375596D01*
X14024404Y27436072D01*
X14054642Y27466310D01*
X14115119Y27496548D01*
X14266309Y27496548D01*
X14326785Y27466310D01*
X14357023Y27436072D01*
X14387261Y27375596D01*
X14387261Y27194167D01*
X14357023Y27133691D01*
X14326785Y27103453D01*
X13752261Y27889643D02*
X13752261Y27950120D01*
X13782500Y28010596D01*
X13812738Y28040834D01*
X13873214Y28071072D01*
X13994166Y28101310D01*
X14145357Y28101310D01*
X14266309Y28071072D01*
X14326785Y28040834D01*
X14357023Y28010596D01*
X14387261Y27950120D01*
X14387261Y27889643D01*
X14357023Y27829167D01*
X14326785Y27798929D01*
X14266309Y27768691D01*
X14145357Y27738453D01*
X13994166Y27738453D01*
X13873214Y27768691D01*
X13812738Y27798929D01*
X13782500Y27829167D01*
X13752261Y27889643D01*
G04 #@! TO.C,C31*
X15526785Y28891786D02*
X15557023Y28861548D01*
X15587261Y28770834D01*
X15587261Y28710358D01*
X15557023Y28619643D01*
X15496547Y28559167D01*
X15436071Y28528929D01*
X15315119Y28498691D01*
X15224404Y28498691D01*
X15103452Y28528929D01*
X15042976Y28559167D01*
X14982500Y28619643D01*
X14952261Y28710358D01*
X14952261Y28770834D01*
X14982500Y28861548D01*
X15012738Y28891786D01*
X14952261Y29103453D02*
X14952261Y29496548D01*
X15194166Y29284881D01*
X15194166Y29375596D01*
X15224404Y29436072D01*
X15254642Y29466310D01*
X15315119Y29496548D01*
X15466309Y29496548D01*
X15526785Y29466310D01*
X15557023Y29436072D01*
X15587261Y29375596D01*
X15587261Y29194167D01*
X15557023Y29133691D01*
X15526785Y29103453D01*
X15587261Y30101310D02*
X15587261Y29738453D01*
X15587261Y29919881D02*
X14952261Y29919881D01*
X15042976Y29859405D01*
X15103452Y29798929D01*
X15133690Y29738453D01*
G04 #@! TO.C,C32*
X17526785Y30891786D02*
X17557023Y30861548D01*
X17587261Y30770834D01*
X17587261Y30710358D01*
X17557023Y30619643D01*
X17496547Y30559167D01*
X17436071Y30528929D01*
X17315119Y30498691D01*
X17224404Y30498691D01*
X17103452Y30528929D01*
X17042976Y30559167D01*
X16982500Y30619643D01*
X16952261Y30710358D01*
X16952261Y30770834D01*
X16982500Y30861548D01*
X17012738Y30891786D01*
X16952261Y31103453D02*
X16952261Y31496548D01*
X17194166Y31284881D01*
X17194166Y31375596D01*
X17224404Y31436072D01*
X17254642Y31466310D01*
X17315119Y31496548D01*
X17466309Y31496548D01*
X17526785Y31466310D01*
X17557023Y31436072D01*
X17587261Y31375596D01*
X17587261Y31194167D01*
X17557023Y31133691D01*
X17526785Y31103453D01*
X17012738Y31738453D02*
X16982500Y31768691D01*
X16952261Y31829167D01*
X16952261Y31980358D01*
X16982500Y32040834D01*
X17012738Y32071072D01*
X17073214Y32101310D01*
X17133690Y32101310D01*
X17224404Y32071072D01*
X17587261Y31708215D01*
X17587261Y32101310D01*
G04 #@! TO.C,P1*
X9231309Y5012739D02*
X9231309Y5647739D01*
X9473214Y5647739D01*
X9533690Y5617500D01*
X9563928Y5587262D01*
X9594166Y5526786D01*
X9594166Y5436072D01*
X9563928Y5375596D01*
X9533690Y5345358D01*
X9473214Y5315120D01*
X9231309Y5315120D01*
X10198928Y5012739D02*
X9836071Y5012739D01*
X10017500Y5012739D02*
X10017500Y5647739D01*
X9957023Y5557024D01*
X9896547Y5496548D01*
X9836071Y5466310D01*
G04 #@! TO.C,R25*
X21191785Y27712739D02*
X20980119Y28015120D01*
X20828928Y27712739D02*
X20828928Y28347739D01*
X21070833Y28347739D01*
X21131309Y28317500D01*
X21161547Y28287262D01*
X21191785Y28226786D01*
X21191785Y28136072D01*
X21161547Y28075596D01*
X21131309Y28045358D01*
X21070833Y28015120D01*
X20828928Y28015120D01*
X21433690Y28287262D02*
X21463928Y28317500D01*
X21524404Y28347739D01*
X21675595Y28347739D01*
X21736071Y28317500D01*
X21766309Y28287262D01*
X21796547Y28226786D01*
X21796547Y28166310D01*
X21766309Y28075596D01*
X21403452Y27712739D01*
X21796547Y27712739D01*
X22371071Y28347739D02*
X22068690Y28347739D01*
X22038452Y28045358D01*
X22068690Y28075596D01*
X22129166Y28105834D01*
X22280357Y28105834D01*
X22340833Y28075596D01*
X22371071Y28045358D01*
X22401309Y27984881D01*
X22401309Y27833691D01*
X22371071Y27773215D01*
X22340833Y27742977D01*
X22280357Y27712739D01*
X22129166Y27712739D01*
X22068690Y27742977D01*
X22038452Y27773215D01*
G04 #@! TO.C,R26*
X14937261Y6641786D02*
X14634880Y6430120D01*
X14937261Y6278929D02*
X14302261Y6278929D01*
X14302261Y6520834D01*
X14332500Y6581310D01*
X14362738Y6611548D01*
X14423214Y6641786D01*
X14513928Y6641786D01*
X14574404Y6611548D01*
X14604642Y6581310D01*
X14634880Y6520834D01*
X14634880Y6278929D01*
X14362738Y6883691D02*
X14332500Y6913929D01*
X14302261Y6974405D01*
X14302261Y7125596D01*
X14332500Y7186072D01*
X14362738Y7216310D01*
X14423214Y7246548D01*
X14483690Y7246548D01*
X14574404Y7216310D01*
X14937261Y6853453D01*
X14937261Y7246548D01*
X14302261Y7790834D02*
X14302261Y7669881D01*
X14332500Y7609405D01*
X14362738Y7579167D01*
X14453452Y7518691D01*
X14574404Y7488453D01*
X14816309Y7488453D01*
X14876785Y7518691D01*
X14907023Y7548929D01*
X14937261Y7609405D01*
X14937261Y7730358D01*
X14907023Y7790834D01*
X14876785Y7821072D01*
X14816309Y7851310D01*
X14665119Y7851310D01*
X14604642Y7821072D01*
X14574404Y7790834D01*
X14544166Y7730358D01*
X14544166Y7609405D01*
X14574404Y7548929D01*
X14604642Y7518691D01*
X14665119Y7488453D01*
G04 #@! TO.C,R27*
X15987261Y6641786D02*
X15684880Y6430120D01*
X15987261Y6278929D02*
X15352261Y6278929D01*
X15352261Y6520834D01*
X15382500Y6581310D01*
X15412738Y6611548D01*
X15473214Y6641786D01*
X15563928Y6641786D01*
X15624404Y6611548D01*
X15654642Y6581310D01*
X15684880Y6520834D01*
X15684880Y6278929D01*
X15412738Y6883691D02*
X15382500Y6913929D01*
X15352261Y6974405D01*
X15352261Y7125596D01*
X15382500Y7186072D01*
X15412738Y7216310D01*
X15473214Y7246548D01*
X15533690Y7246548D01*
X15624404Y7216310D01*
X15987261Y6853453D01*
X15987261Y7246548D01*
X15352261Y7458215D02*
X15352261Y7881548D01*
X15987261Y7609405D01*
G04 #@! TO.C,SW2*
X29753333Y20092977D02*
X29844047Y20062739D01*
X29995238Y20062739D01*
X30055714Y20092977D01*
X30085952Y20123215D01*
X30116190Y20183691D01*
X30116190Y20244167D01*
X30085952Y20304643D01*
X30055714Y20334881D01*
X29995238Y20365120D01*
X29874285Y20395358D01*
X29813809Y20425596D01*
X29783571Y20455834D01*
X29753333Y20516310D01*
X29753333Y20576786D01*
X29783571Y20637262D01*
X29813809Y20667500D01*
X29874285Y20697739D01*
X30025476Y20697739D01*
X30116190Y20667500D01*
X30327857Y20697739D02*
X30479047Y20062739D01*
X30600000Y20516310D01*
X30720952Y20062739D01*
X30872142Y20697739D01*
X31083809Y20637262D02*
X31114047Y20667500D01*
X31174523Y20697739D01*
X31325714Y20697739D01*
X31386190Y20667500D01*
X31416428Y20637262D01*
X31446666Y20576786D01*
X31446666Y20516310D01*
X31416428Y20425596D01*
X31053571Y20062739D01*
X31446666Y20062739D01*
G04 #@! TO.C,RV1*
X7712261Y28397024D02*
X7409880Y28185358D01*
X7712261Y28034167D02*
X7077261Y28034167D01*
X7077261Y28276072D01*
X7107500Y28336548D01*
X7137738Y28366786D01*
X7198214Y28397024D01*
X7288928Y28397024D01*
X7349404Y28366786D01*
X7379642Y28336548D01*
X7409880Y28276072D01*
X7409880Y28034167D01*
X7077261Y28578453D02*
X7712261Y28790120D01*
X7077261Y29001786D01*
X7712261Y29546072D02*
X7712261Y29183215D01*
X7712261Y29364643D02*
X7077261Y29364643D01*
X7167976Y29304167D01*
X7228452Y29243691D01*
X7258690Y29183215D01*
G04 #@! TO.C,C33*
X24826785Y26491786D02*
X24857023Y26461548D01*
X24887261Y26370834D01*
X24887261Y26310358D01*
X24857023Y26219643D01*
X24796547Y26159167D01*
X24736071Y26128929D01*
X24615119Y26098691D01*
X24524404Y26098691D01*
X24403452Y26128929D01*
X24342976Y26159167D01*
X24282500Y26219643D01*
X24252261Y26310358D01*
X24252261Y26370834D01*
X24282500Y26461548D01*
X24312738Y26491786D01*
X24252261Y26703453D02*
X24252261Y27096548D01*
X24494166Y26884881D01*
X24494166Y26975596D01*
X24524404Y27036072D01*
X24554642Y27066310D01*
X24615119Y27096548D01*
X24766309Y27096548D01*
X24826785Y27066310D01*
X24857023Y27036072D01*
X24887261Y26975596D01*
X24887261Y26794167D01*
X24857023Y26733691D01*
X24826785Y26703453D01*
X24252261Y27308215D02*
X24252261Y27701310D01*
X24494166Y27489643D01*
X24494166Y27580358D01*
X24524404Y27640834D01*
X24554642Y27671072D01*
X24615119Y27701310D01*
X24766309Y27701310D01*
X24826785Y27671072D01*
X24857023Y27640834D01*
X24887261Y27580358D01*
X24887261Y27398929D01*
X24857023Y27338453D01*
X24826785Y27308215D01*
G04 #@! TO.C,C37*
X26551785Y20066786D02*
X26582023Y20036548D01*
X26612261Y19945834D01*
X26612261Y19885358D01*
X26582023Y19794643D01*
X26521547Y19734167D01*
X26461071Y19703929D01*
X26340119Y19673691D01*
X26249404Y19673691D01*
X26128452Y19703929D01*
X26067976Y19734167D01*
X26007500Y19794643D01*
X25977261Y19885358D01*
X25977261Y19945834D01*
X26007500Y20036548D01*
X26037738Y20066786D01*
X25977261Y20278453D02*
X25977261Y20671548D01*
X26219166Y20459881D01*
X26219166Y20550596D01*
X26249404Y20611072D01*
X26279642Y20641310D01*
X26340119Y20671548D01*
X26491309Y20671548D01*
X26551785Y20641310D01*
X26582023Y20611072D01*
X26612261Y20550596D01*
X26612261Y20369167D01*
X26582023Y20308691D01*
X26551785Y20278453D01*
X25977261Y20883215D02*
X25977261Y21306548D01*
X26612261Y21034405D01*
G04 #@! TO.C,C39*
X25451785Y20091786D02*
X25482023Y20061548D01*
X25512261Y19970834D01*
X25512261Y19910358D01*
X25482023Y19819643D01*
X25421547Y19759167D01*
X25361071Y19728929D01*
X25240119Y19698691D01*
X25149404Y19698691D01*
X25028452Y19728929D01*
X24967976Y19759167D01*
X24907500Y19819643D01*
X24877261Y19910358D01*
X24877261Y19970834D01*
X24907500Y20061548D01*
X24937738Y20091786D01*
X24877261Y20303453D02*
X24877261Y20696548D01*
X25119166Y20484881D01*
X25119166Y20575596D01*
X25149404Y20636072D01*
X25179642Y20666310D01*
X25240119Y20696548D01*
X25391309Y20696548D01*
X25451785Y20666310D01*
X25482023Y20636072D01*
X25512261Y20575596D01*
X25512261Y20394167D01*
X25482023Y20333691D01*
X25451785Y20303453D01*
X25512261Y20998929D02*
X25512261Y21119881D01*
X25482023Y21180358D01*
X25451785Y21210596D01*
X25361071Y21271072D01*
X25240119Y21301310D01*
X24998214Y21301310D01*
X24937738Y21271072D01*
X24907500Y21240834D01*
X24877261Y21180358D01*
X24877261Y21059405D01*
X24907500Y20998929D01*
X24937738Y20968691D01*
X24998214Y20938453D01*
X25149404Y20938453D01*
X25209880Y20968691D01*
X25240119Y20998929D01*
X25270357Y21059405D01*
X25270357Y21180358D01*
X25240119Y21240834D01*
X25209880Y21271072D01*
X25149404Y21301310D01*
G04 #@! TO.C,D6*
X18331309Y3712739D02*
X18331309Y4347739D01*
X18482500Y4347739D01*
X18573214Y4317500D01*
X18633690Y4257024D01*
X18663928Y4196548D01*
X18694166Y4075596D01*
X18694166Y3984881D01*
X18663928Y3863929D01*
X18633690Y3803453D01*
X18573214Y3742977D01*
X18482500Y3712739D01*
X18331309Y3712739D01*
X19238452Y4347739D02*
X19117500Y4347739D01*
X19057023Y4317500D01*
X19026785Y4287262D01*
X18966309Y4196548D01*
X18936071Y4075596D01*
X18936071Y3833691D01*
X18966309Y3773215D01*
X18996547Y3742977D01*
X19057023Y3712739D01*
X19177976Y3712739D01*
X19238452Y3742977D01*
X19268690Y3773215D01*
X19298928Y3833691D01*
X19298928Y3984881D01*
X19268690Y4045358D01*
X19238452Y4075596D01*
X19177976Y4105834D01*
X19057023Y4105834D01*
X18996547Y4075596D01*
X18966309Y4045358D01*
X18936071Y3984881D01*
G04 #@! TO.C,P3*
X35731309Y50742739D02*
X35731309Y51377739D01*
X35973214Y51377739D01*
X36033690Y51347500D01*
X36063928Y51317262D01*
X36094166Y51256786D01*
X36094166Y51166072D01*
X36063928Y51105596D01*
X36033690Y51075358D01*
X35973214Y51045120D01*
X35731309Y51045120D01*
X36305833Y51377739D02*
X36698928Y51377739D01*
X36487261Y51135834D01*
X36577976Y51135834D01*
X36638452Y51105596D01*
X36668690Y51075358D01*
X36698928Y51014881D01*
X36698928Y50863691D01*
X36668690Y50803215D01*
X36638452Y50772977D01*
X36577976Y50742739D01*
X36396547Y50742739D01*
X36336071Y50772977D01*
X36305833Y50803215D01*
G04 #@! TO.C,P4*
X3849309Y50742739D02*
X3849309Y51377739D01*
X4091214Y51377739D01*
X4151690Y51347500D01*
X4181928Y51317262D01*
X4212166Y51256786D01*
X4212166Y51166072D01*
X4181928Y51105596D01*
X4151690Y51075358D01*
X4091214Y51045120D01*
X3849309Y51045120D01*
X4756452Y51166072D02*
X4756452Y50742739D01*
X4605261Y51407977D02*
X4454071Y50954405D01*
X4847166Y50954405D01*
G04 #@! TO.C,R30*
X28966785Y17562739D02*
X28755119Y17865120D01*
X28603928Y17562739D02*
X28603928Y18197739D01*
X28845833Y18197739D01*
X28906309Y18167500D01*
X28936547Y18137262D01*
X28966785Y18076786D01*
X28966785Y17986072D01*
X28936547Y17925596D01*
X28906309Y17895358D01*
X28845833Y17865120D01*
X28603928Y17865120D01*
X29178452Y18197739D02*
X29571547Y18197739D01*
X29359880Y17955834D01*
X29450595Y17955834D01*
X29511071Y17925596D01*
X29541309Y17895358D01*
X29571547Y17834881D01*
X29571547Y17683691D01*
X29541309Y17623215D01*
X29511071Y17592977D01*
X29450595Y17562739D01*
X29269166Y17562739D01*
X29208690Y17592977D01*
X29178452Y17623215D01*
X29964642Y18197739D02*
X30025119Y18197739D01*
X30085595Y18167500D01*
X30115833Y18137262D01*
X30146071Y18076786D01*
X30176309Y17955834D01*
X30176309Y17804643D01*
X30146071Y17683691D01*
X30115833Y17623215D01*
X30085595Y17592977D01*
X30025119Y17562739D01*
X29964642Y17562739D01*
X29904166Y17592977D01*
X29873928Y17623215D01*
X29843690Y17683691D01*
X29813452Y17804643D01*
X29813452Y17955834D01*
X29843690Y18076786D01*
X29873928Y18137262D01*
X29904166Y18167500D01*
X29964642Y18197739D01*
G04 #@! TO.C,R31*
X21691785Y17662739D02*
X21480119Y17965120D01*
X21328928Y17662739D02*
X21328928Y18297739D01*
X21570833Y18297739D01*
X21631309Y18267500D01*
X21661547Y18237262D01*
X21691785Y18176786D01*
X21691785Y18086072D01*
X21661547Y18025596D01*
X21631309Y17995358D01*
X21570833Y17965120D01*
X21328928Y17965120D01*
X21903452Y18297739D02*
X22296547Y18297739D01*
X22084880Y18055834D01*
X22175595Y18055834D01*
X22236071Y18025596D01*
X22266309Y17995358D01*
X22296547Y17934881D01*
X22296547Y17783691D01*
X22266309Y17723215D01*
X22236071Y17692977D01*
X22175595Y17662739D01*
X21994166Y17662739D01*
X21933690Y17692977D01*
X21903452Y17723215D01*
X22901309Y17662739D02*
X22538452Y17662739D01*
X22719880Y17662739D02*
X22719880Y18297739D01*
X22659404Y18207024D01*
X22598928Y18146548D01*
X22538452Y18116310D01*
G04 #@! TO.C,R32*
X28966785Y18587739D02*
X28755119Y18890120D01*
X28603928Y18587739D02*
X28603928Y19222739D01*
X28845833Y19222739D01*
X28906309Y19192500D01*
X28936547Y19162262D01*
X28966785Y19101786D01*
X28966785Y19011072D01*
X28936547Y18950596D01*
X28906309Y18920358D01*
X28845833Y18890120D01*
X28603928Y18890120D01*
X29178452Y19222739D02*
X29571547Y19222739D01*
X29359880Y18980834D01*
X29450595Y18980834D01*
X29511071Y18950596D01*
X29541309Y18920358D01*
X29571547Y18859881D01*
X29571547Y18708691D01*
X29541309Y18648215D01*
X29511071Y18617977D01*
X29450595Y18587739D01*
X29269166Y18587739D01*
X29208690Y18617977D01*
X29178452Y18648215D01*
X29813452Y19162262D02*
X29843690Y19192500D01*
X29904166Y19222739D01*
X30055357Y19222739D01*
X30115833Y19192500D01*
X30146071Y19162262D01*
X30176309Y19101786D01*
X30176309Y19041310D01*
X30146071Y18950596D01*
X29783214Y18587739D01*
X30176309Y18587739D01*
G04 #@! TO.C,R33*
X21641785Y18662739D02*
X21430119Y18965120D01*
X21278928Y18662739D02*
X21278928Y19297739D01*
X21520833Y19297739D01*
X21581309Y19267500D01*
X21611547Y19237262D01*
X21641785Y19176786D01*
X21641785Y19086072D01*
X21611547Y19025596D01*
X21581309Y18995358D01*
X21520833Y18965120D01*
X21278928Y18965120D01*
X21853452Y19297739D02*
X22246547Y19297739D01*
X22034880Y19055834D01*
X22125595Y19055834D01*
X22186071Y19025596D01*
X22216309Y18995358D01*
X22246547Y18934881D01*
X22246547Y18783691D01*
X22216309Y18723215D01*
X22186071Y18692977D01*
X22125595Y18662739D01*
X21944166Y18662739D01*
X21883690Y18692977D01*
X21853452Y18723215D01*
X22458214Y19297739D02*
X22851309Y19297739D01*
X22639642Y19055834D01*
X22730357Y19055834D01*
X22790833Y19025596D01*
X22821071Y18995358D01*
X22851309Y18934881D01*
X22851309Y18783691D01*
X22821071Y18723215D01*
X22790833Y18692977D01*
X22730357Y18662739D01*
X22548928Y18662739D01*
X22488452Y18692977D01*
X22458214Y18723215D01*
G04 #@! TO.C,L1*
X21594166Y26812739D02*
X21291785Y26812739D01*
X21291785Y27447739D01*
X22138452Y26812739D02*
X21775595Y26812739D01*
X21957023Y26812739D02*
X21957023Y27447739D01*
X21896547Y27357024D01*
X21836071Y27296548D01*
X21775595Y27266310D01*
G04 #@! TO.C,L2*
X19237261Y31194167D02*
X19237261Y30891786D01*
X18602261Y30891786D01*
X18662738Y31375596D02*
X18632500Y31405834D01*
X18602261Y31466310D01*
X18602261Y31617500D01*
X18632500Y31677977D01*
X18662738Y31708215D01*
X18723214Y31738453D01*
X18783690Y31738453D01*
X18874404Y31708215D01*
X19237261Y31345358D01*
X19237261Y31738453D01*
G04 #@! TO.C,SW1*
X1798333Y23227977D02*
X1889047Y23197739D01*
X2040238Y23197739D01*
X2100714Y23227977D01*
X2130952Y23258215D01*
X2161190Y23318691D01*
X2161190Y23379167D01*
X2130952Y23439643D01*
X2100714Y23469881D01*
X2040238Y23500120D01*
X1919285Y23530358D01*
X1858809Y23560596D01*
X1828571Y23590834D01*
X1798333Y23651310D01*
X1798333Y23711786D01*
X1828571Y23772262D01*
X1858809Y23802500D01*
X1919285Y23832739D01*
X2070476Y23832739D01*
X2161190Y23802500D01*
X2372857Y23832739D02*
X2524047Y23197739D01*
X2645000Y23651310D01*
X2765952Y23197739D01*
X2917142Y23832739D01*
X3491666Y23197739D02*
X3128809Y23197739D01*
X3310238Y23197739D02*
X3310238Y23832739D01*
X3249761Y23742024D01*
X3189285Y23681548D01*
X3128809Y23651310D01*
G04 #@! TO.C,C35*
X12101785Y8173215D02*
X12071547Y8142977D01*
X11980833Y8112739D01*
X11920357Y8112739D01*
X11829642Y8142977D01*
X11769166Y8203453D01*
X11738928Y8263929D01*
X11708690Y8384881D01*
X11708690Y8475596D01*
X11738928Y8596548D01*
X11769166Y8657024D01*
X11829642Y8717500D01*
X11920357Y8747739D01*
X11980833Y8747739D01*
X12071547Y8717500D01*
X12101785Y8687262D01*
X12313452Y8747739D02*
X12706547Y8747739D01*
X12494880Y8505834D01*
X12585595Y8505834D01*
X12646071Y8475596D01*
X12676309Y8445358D01*
X12706547Y8384881D01*
X12706547Y8233691D01*
X12676309Y8173215D01*
X12646071Y8142977D01*
X12585595Y8112739D01*
X12404166Y8112739D01*
X12343690Y8142977D01*
X12313452Y8173215D01*
X13281071Y8747739D02*
X12978690Y8747739D01*
X12948452Y8445358D01*
X12978690Y8475596D01*
X13039166Y8505834D01*
X13190357Y8505834D01*
X13250833Y8475596D01*
X13281071Y8445358D01*
X13311309Y8384881D01*
X13311309Y8233691D01*
X13281071Y8173215D01*
X13250833Y8142977D01*
X13190357Y8112739D01*
X13039166Y8112739D01*
X12978690Y8142977D01*
X12948452Y8173215D01*
G04 #@! TO.C,C40*
X12091785Y9043215D02*
X12061547Y9012977D01*
X11970833Y8982739D01*
X11910357Y8982739D01*
X11819642Y9012977D01*
X11759166Y9073453D01*
X11728928Y9133929D01*
X11698690Y9254881D01*
X11698690Y9345596D01*
X11728928Y9466548D01*
X11759166Y9527024D01*
X11819642Y9587500D01*
X11910357Y9617739D01*
X11970833Y9617739D01*
X12061547Y9587500D01*
X12091785Y9557262D01*
X12636071Y9406072D02*
X12636071Y8982739D01*
X12484880Y9647977D02*
X12333690Y9194405D01*
X12726785Y9194405D01*
X13089642Y9617739D02*
X13150119Y9617739D01*
X13210595Y9587500D01*
X13240833Y9557262D01*
X13271071Y9496786D01*
X13301309Y9375834D01*
X13301309Y9224643D01*
X13271071Y9103691D01*
X13240833Y9043215D01*
X13210595Y9012977D01*
X13150119Y8982739D01*
X13089642Y8982739D01*
X13029166Y9012977D01*
X12998928Y9043215D01*
X12968690Y9103691D01*
X12938452Y9224643D01*
X12938452Y9375834D01*
X12968690Y9496786D01*
X12998928Y9557262D01*
X13029166Y9587500D01*
X13089642Y9617739D01*
G04 #@! TO.C,C41*
X10151785Y10973215D02*
X10121547Y10942977D01*
X10030833Y10912739D01*
X9970357Y10912739D01*
X9879642Y10942977D01*
X9819166Y11003453D01*
X9788928Y11063929D01*
X9758690Y11184881D01*
X9758690Y11275596D01*
X9788928Y11396548D01*
X9819166Y11457024D01*
X9879642Y11517500D01*
X9970357Y11547739D01*
X10030833Y11547739D01*
X10121547Y11517500D01*
X10151785Y11487262D01*
X10696071Y11336072D02*
X10696071Y10912739D01*
X10544880Y11577977D02*
X10393690Y11124405D01*
X10786785Y11124405D01*
X11361309Y10912739D02*
X10998452Y10912739D01*
X11179880Y10912739D02*
X11179880Y11547739D01*
X11119404Y11457024D01*
X11058928Y11396548D01*
X10998452Y11366310D01*
G04 #@! TO.C,C42*
X13941785Y5423215D02*
X13911547Y5392977D01*
X13820833Y5362739D01*
X13760357Y5362739D01*
X13669642Y5392977D01*
X13609166Y5453453D01*
X13578928Y5513929D01*
X13548690Y5634881D01*
X13548690Y5725596D01*
X13578928Y5846548D01*
X13609166Y5907024D01*
X13669642Y5967500D01*
X13760357Y5997739D01*
X13820833Y5997739D01*
X13911547Y5967500D01*
X13941785Y5937262D01*
X14486071Y5786072D02*
X14486071Y5362739D01*
X14334880Y6027977D02*
X14183690Y5574405D01*
X14576785Y5574405D01*
X14788452Y5937262D02*
X14818690Y5967500D01*
X14879166Y5997739D01*
X15030357Y5997739D01*
X15090833Y5967500D01*
X15121071Y5937262D01*
X15151309Y5876786D01*
X15151309Y5816310D01*
X15121071Y5725596D01*
X14758214Y5362739D01*
X15151309Y5362739D01*
G04 #@! TO.C,L3*
X7994166Y7162739D02*
X7691785Y7162739D01*
X7691785Y7797739D01*
X8145357Y7797739D02*
X8538452Y7797739D01*
X8326785Y7555834D01*
X8417500Y7555834D01*
X8477976Y7525596D01*
X8508214Y7495358D01*
X8538452Y7434881D01*
X8538452Y7283691D01*
X8508214Y7223215D01*
X8477976Y7192977D01*
X8417500Y7162739D01*
X8236071Y7162739D01*
X8175595Y7192977D01*
X8145357Y7223215D01*
G04 #@! TO.C,P5*
X1309309Y50742739D02*
X1309309Y51377739D01*
X1551214Y51377739D01*
X1611690Y51347500D01*
X1641928Y51317262D01*
X1672166Y51256786D01*
X1672166Y51166072D01*
X1641928Y51105596D01*
X1611690Y51075358D01*
X1551214Y51045120D01*
X1309309Y51045120D01*
X2246690Y51377739D02*
X1944309Y51377739D01*
X1914071Y51075358D01*
X1944309Y51105596D01*
X2004785Y51135834D01*
X2155976Y51135834D01*
X2216452Y51105596D01*
X2246690Y51075358D01*
X2276928Y51014881D01*
X2276928Y50863691D01*
X2246690Y50803215D01*
X2216452Y50772977D01*
X2155976Y50742739D01*
X2004785Y50742739D01*
X1944309Y50772977D01*
X1914071Y50803215D01*
G04 #@! TO.C,U3*
X22866190Y53922739D02*
X22866190Y53408691D01*
X22896428Y53348215D01*
X22926666Y53317977D01*
X22987142Y53287739D01*
X23108095Y53287739D01*
X23168571Y53317977D01*
X23198809Y53348215D01*
X23229047Y53408691D01*
X23229047Y53922739D01*
X23470952Y53922739D02*
X23864047Y53922739D01*
X23652380Y53680834D01*
X23743095Y53680834D01*
X23803571Y53650596D01*
X23833809Y53620358D01*
X23864047Y53559881D01*
X23864047Y53408691D01*
X23833809Y53348215D01*
X23803571Y53317977D01*
X23743095Y53287739D01*
X23561666Y53287739D01*
X23501190Y53317977D01*
X23470952Y53348215D01*
G04 #@! TO.C,P2*
X33031309Y50749739D02*
X33031309Y51384739D01*
X33273214Y51384739D01*
X33333690Y51354500D01*
X33363928Y51324262D01*
X33394166Y51263786D01*
X33394166Y51173072D01*
X33363928Y51112596D01*
X33333690Y51082358D01*
X33273214Y51052120D01*
X33031309Y51052120D01*
X33636071Y51324262D02*
X33666309Y51354500D01*
X33726785Y51384739D01*
X33877976Y51384739D01*
X33938452Y51354500D01*
X33968690Y51324262D01*
X33998928Y51263786D01*
X33998928Y51203310D01*
X33968690Y51112596D01*
X33605833Y50749739D01*
X33998928Y50749739D01*
G04 #@! TO.C,CONN1*
X26026785Y30546310D02*
X26057023Y30516072D01*
X26087261Y30425358D01*
X26087261Y30364881D01*
X26057023Y30274167D01*
X25996547Y30213691D01*
X25936071Y30183453D01*
X25815119Y30153215D01*
X25724404Y30153215D01*
X25603452Y30183453D01*
X25542976Y30213691D01*
X25482500Y30274167D01*
X25452261Y30364881D01*
X25452261Y30425358D01*
X25482500Y30516072D01*
X25512738Y30546310D01*
X25452261Y30939405D02*
X25452261Y31060358D01*
X25482500Y31120834D01*
X25542976Y31181310D01*
X25663928Y31211548D01*
X25875595Y31211548D01*
X25996547Y31181310D01*
X26057023Y31120834D01*
X26087261Y31060358D01*
X26087261Y30939405D01*
X26057023Y30878929D01*
X25996547Y30818453D01*
X25875595Y30788215D01*
X25663928Y30788215D01*
X25542976Y30818453D01*
X25482500Y30878929D01*
X25452261Y30939405D01*
X26087261Y31483691D02*
X25452261Y31483691D01*
X26087261Y31846548D01*
X25452261Y31846548D01*
X26087261Y32148929D02*
X25452261Y32148929D01*
X26087261Y32511786D01*
X25452261Y32511786D01*
X26087261Y33146786D02*
X26087261Y32783929D01*
X26087261Y32965358D02*
X25452261Y32965358D01*
X25542976Y32904881D01*
X25603452Y32844405D01*
X25633690Y32783929D01*
G04 #@! TO.C,P6*
X5558690Y14427262D02*
X5558690Y15052262D01*
X5796785Y15052262D01*
X5856309Y15022500D01*
X5886071Y14992739D01*
X5915833Y14933215D01*
X5915833Y14843929D01*
X5886071Y14784405D01*
X5856309Y14754643D01*
X5796785Y14724881D01*
X5558690Y14724881D01*
X6451547Y15052262D02*
X6332500Y15052262D01*
X6272976Y15022500D01*
X6243214Y14992739D01*
X6183690Y14903453D01*
X6153928Y14784405D01*
X6153928Y14546310D01*
X6183690Y14486786D01*
X6213452Y14457024D01*
X6272976Y14427262D01*
X6392023Y14427262D01*
X6451547Y14457024D01*
X6481309Y14486786D01*
X6511071Y14546310D01*
X6511071Y14695120D01*
X6481309Y14754643D01*
X6451547Y14784405D01*
X6392023Y14814167D01*
X6272976Y14814167D01*
X6213452Y14784405D01*
X6183690Y14754643D01*
X6153928Y14695120D01*
G04 #@! TO.C,R1*
D11*
X3012261Y5444167D02*
X2709880Y5232500D01*
X3012261Y5081310D02*
X2377261Y5081310D01*
X2377261Y5323215D01*
X2407500Y5383691D01*
X2437738Y5413929D01*
X2498214Y5444167D01*
X2588928Y5444167D01*
X2649404Y5413929D01*
X2679642Y5383691D01*
X2709880Y5323215D01*
X2709880Y5081310D01*
X3012261Y6048929D02*
X3012261Y5686072D01*
X3012261Y5867500D02*
X2377261Y5867500D01*
X2467976Y5807024D01*
X2528452Y5746548D01*
X2558690Y5686072D01*
G04 #@! TO.C,R8*
X2534166Y10672739D02*
X2322500Y10975120D01*
X2171309Y10672739D02*
X2171309Y11307739D01*
X2413214Y11307739D01*
X2473690Y11277500D01*
X2503928Y11247262D01*
X2534166Y11186786D01*
X2534166Y11096072D01*
X2503928Y11035596D01*
X2473690Y11005358D01*
X2413214Y10975120D01*
X2171309Y10975120D01*
X2897023Y11035596D02*
X2836547Y11065834D01*
X2806309Y11096072D01*
X2776071Y11156548D01*
X2776071Y11186786D01*
X2806309Y11247262D01*
X2836547Y11277500D01*
X2897023Y11307739D01*
X3017976Y11307739D01*
X3078452Y11277500D01*
X3108690Y11247262D01*
X3138928Y11186786D01*
X3138928Y11156548D01*
X3108690Y11096072D01*
X3078452Y11065834D01*
X3017976Y11035596D01*
X2897023Y11035596D01*
X2836547Y11005358D01*
X2806309Y10975120D01*
X2776071Y10914643D01*
X2776071Y10793691D01*
X2806309Y10733215D01*
X2836547Y10702977D01*
X2897023Y10672739D01*
X3017976Y10672739D01*
X3078452Y10702977D01*
X3108690Y10733215D01*
X3138928Y10793691D01*
X3138928Y10914643D01*
X3108690Y10975120D01*
X3078452Y11005358D01*
X3017976Y11035596D01*
G04 #@! TO.C,R11*
X6062261Y5216786D02*
X5759880Y5005120D01*
X6062261Y4853929D02*
X5427261Y4853929D01*
X5427261Y5095834D01*
X5457500Y5156310D01*
X5487738Y5186548D01*
X5548214Y5216786D01*
X5638928Y5216786D01*
X5699404Y5186548D01*
X5729642Y5156310D01*
X5759880Y5095834D01*
X5759880Y4853929D01*
X6062261Y5821548D02*
X6062261Y5458691D01*
X6062261Y5640120D02*
X5427261Y5640120D01*
X5517976Y5579643D01*
X5578452Y5519167D01*
X5608690Y5458691D01*
X6062261Y6426310D02*
X6062261Y6063453D01*
X6062261Y6244881D02*
X5427261Y6244881D01*
X5517976Y6184405D01*
X5578452Y6123929D01*
X5608690Y6063453D01*
G04 #@! TO.C,U5*
X1964761Y6953691D02*
X2478809Y6953691D01*
X2539285Y6983929D01*
X2569523Y7014167D01*
X2599761Y7074643D01*
X2599761Y7195596D01*
X2569523Y7256072D01*
X2539285Y7286310D01*
X2478809Y7316548D01*
X1964761Y7316548D01*
X1964761Y7921310D02*
X1964761Y7618929D01*
X2267142Y7588691D01*
X2236904Y7618929D01*
X2206666Y7679405D01*
X2206666Y7830596D01*
X2236904Y7891072D01*
X2267142Y7921310D01*
X2327619Y7951548D01*
X2478809Y7951548D01*
X2539285Y7921310D01*
X2569523Y7891072D01*
X2599761Y7830596D01*
X2599761Y7679405D01*
X2569523Y7618929D01*
X2539285Y7588691D01*
G04 #@! TO.C,D1*
X7211309Y5142739D02*
X7211309Y5777739D01*
X7362500Y5777739D01*
X7453214Y5747500D01*
X7513690Y5687024D01*
X7543928Y5626548D01*
X7574166Y5505596D01*
X7574166Y5414881D01*
X7543928Y5293929D01*
X7513690Y5233453D01*
X7453214Y5172977D01*
X7362500Y5142739D01*
X7211309Y5142739D01*
X8178928Y5142739D02*
X7816071Y5142739D01*
X7997500Y5142739D02*
X7997500Y5777739D01*
X7937023Y5687024D01*
X7876547Y5626548D01*
X7816071Y5596310D01*
G04 #@! TO.C,R2*
D17*
X16587261Y39244167D02*
X16284880Y39032500D01*
X16587261Y38881310D02*
X15952261Y38881310D01*
X15952261Y39123215D01*
X15982500Y39183691D01*
X16012738Y39213929D01*
X16073214Y39244167D01*
X16163928Y39244167D01*
X16224404Y39213929D01*
X16254642Y39183691D01*
X16284880Y39123215D01*
X16284880Y38881310D01*
X16012738Y39486072D02*
X15982500Y39516310D01*
X15952261Y39576786D01*
X15952261Y39727977D01*
X15982500Y39788453D01*
X16012738Y39818691D01*
X16073214Y39848929D01*
X16133690Y39848929D01*
X16224404Y39818691D01*
X16587261Y39455834D01*
X16587261Y39848929D01*
G04 #@! TO.C,R3*
X18537261Y39244167D02*
X18234880Y39032500D01*
X18537261Y38881310D02*
X17902261Y38881310D01*
X17902261Y39123215D01*
X17932500Y39183691D01*
X17962738Y39213929D01*
X18023214Y39244167D01*
X18113928Y39244167D01*
X18174404Y39213929D01*
X18204642Y39183691D01*
X18234880Y39123215D01*
X18234880Y38881310D01*
X17902261Y39455834D02*
X17902261Y39848929D01*
X18144166Y39637262D01*
X18144166Y39727977D01*
X18174404Y39788453D01*
X18204642Y39818691D01*
X18265119Y39848929D01*
X18416309Y39848929D01*
X18476785Y39818691D01*
X18507023Y39788453D01*
X18537261Y39727977D01*
X18537261Y39546548D01*
X18507023Y39486072D01*
X18476785Y39455834D01*
G04 #@! TO.C,R4*
X19462261Y39244167D02*
X19159880Y39032500D01*
X19462261Y38881310D02*
X18827261Y38881310D01*
X18827261Y39123215D01*
X18857500Y39183691D01*
X18887738Y39213929D01*
X18948214Y39244167D01*
X19038928Y39244167D01*
X19099404Y39213929D01*
X19129642Y39183691D01*
X19159880Y39123215D01*
X19159880Y38881310D01*
X19038928Y39788453D02*
X19462261Y39788453D01*
X18797023Y39637262D02*
X19250595Y39486072D01*
X19250595Y39879167D01*
G04 #@! TO.C,R5*
X20412261Y39219167D02*
X20109880Y39007500D01*
X20412261Y38856310D02*
X19777261Y38856310D01*
X19777261Y39098215D01*
X19807500Y39158691D01*
X19837738Y39188929D01*
X19898214Y39219167D01*
X19988928Y39219167D01*
X20049404Y39188929D01*
X20079642Y39158691D01*
X20109880Y39098215D01*
X20109880Y38856310D01*
X19777261Y39793691D02*
X19777261Y39491310D01*
X20079642Y39461072D01*
X20049404Y39491310D01*
X20019166Y39551786D01*
X20019166Y39702977D01*
X20049404Y39763453D01*
X20079642Y39793691D01*
X20140119Y39823929D01*
X20291309Y39823929D01*
X20351785Y39793691D01*
X20382023Y39763453D01*
X20412261Y39702977D01*
X20412261Y39551786D01*
X20382023Y39491310D01*
X20351785Y39461072D01*
G04 #@! TO.C,R7*
X17637261Y39244167D02*
X17334880Y39032500D01*
X17637261Y38881310D02*
X17002261Y38881310D01*
X17002261Y39123215D01*
X17032500Y39183691D01*
X17062738Y39213929D01*
X17123214Y39244167D01*
X17213928Y39244167D01*
X17274404Y39213929D01*
X17304642Y39183691D01*
X17334880Y39123215D01*
X17334880Y38881310D01*
X17002261Y39455834D02*
X17002261Y39879167D01*
X17637261Y39607024D01*
G04 #@! TO.C,R9*
X22769166Y45487739D02*
X22557500Y45790120D01*
X22406309Y45487739D02*
X22406309Y46122739D01*
X22648214Y46122739D01*
X22708690Y46092500D01*
X22738928Y46062262D01*
X22769166Y46001786D01*
X22769166Y45911072D01*
X22738928Y45850596D01*
X22708690Y45820358D01*
X22648214Y45790120D01*
X22406309Y45790120D01*
X23071547Y45487739D02*
X23192500Y45487739D01*
X23252976Y45517977D01*
X23283214Y45548215D01*
X23343690Y45638929D01*
X23373928Y45759881D01*
X23373928Y46001786D01*
X23343690Y46062262D01*
X23313452Y46092500D01*
X23252976Y46122739D01*
X23132023Y46122739D01*
X23071547Y46092500D01*
X23041309Y46062262D01*
X23011071Y46001786D01*
X23011071Y45850596D01*
X23041309Y45790120D01*
X23071547Y45759881D01*
X23132023Y45729643D01*
X23252976Y45729643D01*
X23313452Y45759881D01*
X23343690Y45790120D01*
X23373928Y45850596D01*
G04 #@! TO.C,R10*
X22441785Y42737739D02*
X22230119Y43040120D01*
X22078928Y42737739D02*
X22078928Y43372739D01*
X22320833Y43372739D01*
X22381309Y43342500D01*
X22411547Y43312262D01*
X22441785Y43251786D01*
X22441785Y43161072D01*
X22411547Y43100596D01*
X22381309Y43070358D01*
X22320833Y43040120D01*
X22078928Y43040120D01*
X23046547Y42737739D02*
X22683690Y42737739D01*
X22865119Y42737739D02*
X22865119Y43372739D01*
X22804642Y43282024D01*
X22744166Y43221548D01*
X22683690Y43191310D01*
X23439642Y43372739D02*
X23500119Y43372739D01*
X23560595Y43342500D01*
X23590833Y43312262D01*
X23621071Y43251786D01*
X23651309Y43130834D01*
X23651309Y42979643D01*
X23621071Y42858691D01*
X23590833Y42798215D01*
X23560595Y42767977D01*
X23500119Y42737739D01*
X23439642Y42737739D01*
X23379166Y42767977D01*
X23348928Y42798215D01*
X23318690Y42858691D01*
X23288452Y42979643D01*
X23288452Y43130834D01*
X23318690Y43251786D01*
X23348928Y43312262D01*
X23379166Y43342500D01*
X23439642Y43372739D01*
G04 #@! TO.C,V_USB*
D11*
X6450000Y10883334D02*
X6683333Y10183334D01*
X6916666Y10883334D01*
X6983333Y10116667D02*
X7516666Y10116667D01*
X7683333Y10883334D02*
X7683333Y10316667D01*
X7716666Y10250000D01*
X7750000Y10216667D01*
X7816666Y10183334D01*
X7950000Y10183334D01*
X8016666Y10216667D01*
X8050000Y10250000D01*
X8083333Y10316667D01*
X8083333Y10883334D01*
X8383333Y10216667D02*
X8483333Y10183334D01*
X8650000Y10183334D01*
X8716666Y10216667D01*
X8750000Y10250000D01*
X8783333Y10316667D01*
X8783333Y10383334D01*
X8750000Y10450000D01*
X8716666Y10483334D01*
X8650000Y10516667D01*
X8516666Y10550000D01*
X8450000Y10583334D01*
X8416666Y10616667D01*
X8383333Y10683334D01*
X8383333Y10750000D01*
X8416666Y10816667D01*
X8450000Y10850000D01*
X8516666Y10883334D01*
X8683333Y10883334D01*
X8783333Y10850000D01*
X9316666Y10550000D02*
X9416666Y10516667D01*
X9450000Y10483334D01*
X9483333Y10416667D01*
X9483333Y10316667D01*
X9450000Y10250000D01*
X9416666Y10216667D01*
X9350000Y10183334D01*
X9083333Y10183334D01*
X9083333Y10883334D01*
X9316666Y10883334D01*
X9383333Y10850000D01*
X9416666Y10816667D01*
X9450000Y10750000D01*
X9450000Y10683334D01*
X9416666Y10616667D01*
X9383333Y10583334D01*
X9316666Y10550000D01*
X9083333Y10550000D01*
G04 #@! TD*
M02*
