G04 #@! TF.GenerationSoftware,KiCad,Pcbnew,(5.0.1-3-g963ef8bb5)*
G04 #@! TF.CreationDate,2019-01-09T16:01:25-05:00*
G04 #@! TF.ProjectId,Tympan_D_3,54796D70616E5F445F332E6B69636164,rev?*
G04 #@! TF.SameCoordinates,PX6d878d0PY72e6100*
G04 #@! TF.FileFunction,Soldermask,Top*
G04 #@! TF.FilePolarity,Negative*
%FSLAX46Y46*%
G04 Gerber Fmt 4.6, Leading zero omitted, Abs format (unit mm)*
G04 Created by KiCad (PCBNEW (5.0.1-3-g963ef8bb5)) date Wednesday, January 09, 2019 at 04:01:25 PM*
%MOMM*%
%LPD*%
G01*
G04 APERTURE LIST*
%ADD10C,0.100000*%
G04 APERTURE END LIST*
D10*
G36*
X15600000Y2010451D02*
X15602402Y1986065D01*
X15609515Y1962616D01*
X15621066Y1941005D01*
X15636612Y1922063D01*
X15655554Y1906517D01*
X15677165Y1894966D01*
X15700614Y1887853D01*
X15725000Y1885451D01*
X15749386Y1887853D01*
X15772835Y1894966D01*
X15794446Y1906517D01*
X15821626Y1931152D01*
X15910525Y2039475D01*
X16047567Y2151944D01*
X16203919Y2235515D01*
X16373568Y2286978D01*
X16505789Y2300000D01*
X16594211Y2300000D01*
X16726432Y2286978D01*
X16896081Y2235515D01*
X17052433Y2151944D01*
X17189475Y2039475D01*
X17301944Y1902433D01*
X17385515Y1746081D01*
X17436978Y1576432D01*
X17454354Y1400000D01*
X17436978Y1223568D01*
X17385515Y1053919D01*
X17301944Y897567D01*
X17189475Y760525D01*
X17052433Y648056D01*
X16896081Y564485D01*
X16726432Y513022D01*
X16594211Y500000D01*
X16505789Y500000D01*
X16373568Y513022D01*
X16203919Y564485D01*
X16047567Y648056D01*
X15910525Y760525D01*
X15821626Y868848D01*
X15804299Y886175D01*
X15783924Y899789D01*
X15761285Y909167D01*
X15737252Y913947D01*
X15712748Y913947D01*
X15688714Y909167D01*
X15666075Y899789D01*
X15645701Y886175D01*
X15628374Y868848D01*
X15614760Y848473D01*
X15605382Y825834D01*
X15600000Y789549D01*
X15600000Y250000D01*
X10900000Y250000D01*
X10900000Y789549D01*
X10897598Y813935D01*
X10890485Y837384D01*
X10878934Y858995D01*
X10863388Y877937D01*
X10844446Y893483D01*
X10822835Y905034D01*
X10799386Y912147D01*
X10775000Y914549D01*
X10750614Y912147D01*
X10727165Y905034D01*
X10705554Y893483D01*
X10678374Y868848D01*
X10589475Y760525D01*
X10452433Y648056D01*
X10296081Y564485D01*
X10126432Y513022D01*
X9994211Y500000D01*
X9905789Y500000D01*
X9773568Y513022D01*
X9603919Y564485D01*
X9447567Y648056D01*
X9310525Y760525D01*
X9198056Y897567D01*
X9114485Y1053919D01*
X9063022Y1223568D01*
X9045646Y1400000D01*
X9063022Y1576432D01*
X9114485Y1746081D01*
X9198056Y1902433D01*
X9310525Y2039475D01*
X9447567Y2151944D01*
X9603919Y2235515D01*
X9773568Y2286978D01*
X9905789Y2300000D01*
X9994211Y2300000D01*
X10126432Y2286978D01*
X10296081Y2235515D01*
X10452433Y2151944D01*
X10589475Y2039475D01*
X10678374Y1931152D01*
X10695701Y1913825D01*
X10716076Y1900211D01*
X10738715Y1890833D01*
X10762748Y1886053D01*
X10787252Y1886053D01*
X10811286Y1890833D01*
X10833925Y1900211D01*
X10854299Y1913825D01*
X10871626Y1931152D01*
X10885240Y1951527D01*
X10894618Y1974166D01*
X10900000Y2010451D01*
X10900000Y2550000D01*
X15600000Y2550000D01*
X15600000Y2010451D01*
X15600000Y2010451D01*
G37*
G36*
X21900000Y850000D02*
X19000000Y850000D01*
X19000000Y3150000D01*
X21900000Y3150000D01*
X21900000Y850000D01*
X21900000Y850000D01*
G37*
G36*
X7550000Y1250000D02*
X6650000Y1250000D01*
X6650000Y2750000D01*
X7550000Y2750000D01*
X7550000Y1250000D01*
X7550000Y1250000D01*
G37*
G36*
X6350000Y1250000D02*
X5450000Y1250000D01*
X5450000Y2750000D01*
X6350000Y2750000D01*
X6350000Y1250000D01*
X6350000Y1250000D01*
G37*
G36*
X11050000Y2950000D02*
X9050000Y2950000D01*
X9050000Y4750000D01*
X11050000Y4750000D01*
X11050000Y2950000D01*
X11050000Y2950000D01*
G37*
G36*
X17450000Y2950000D02*
X15450000Y2950000D01*
X15450000Y4750000D01*
X17450000Y4750000D01*
X17450000Y2950000D01*
X17450000Y2950000D01*
G37*
G36*
X14950000Y3200000D02*
X11550000Y3200000D01*
X11550000Y4950000D01*
X14950000Y4950000D01*
X14950000Y3200000D01*
X14950000Y3200000D01*
G37*
G36*
X37300000Y15600000D02*
X20625000Y15600000D01*
X20600614Y15597598D01*
X20577165Y15590485D01*
X20555554Y15578934D01*
X20536612Y15563388D01*
X20521066Y15544446D01*
X20509515Y15522835D01*
X20502402Y15499386D01*
X20500000Y15475000D01*
X20500000Y5525000D01*
X20502402Y5500614D01*
X20509515Y5477165D01*
X20521066Y5455554D01*
X20536612Y5436612D01*
X20555554Y5421066D01*
X20577165Y5409515D01*
X20600614Y5402402D01*
X20625000Y5400000D01*
X34100000Y5400000D01*
X34100000Y4000000D01*
X20300000Y4000000D01*
X20300000Y5075000D01*
X20297598Y5099386D01*
X20290485Y5122835D01*
X20278934Y5144446D01*
X20263388Y5163388D01*
X20244446Y5178934D01*
X20222835Y5190485D01*
X20199386Y5197598D01*
X20175000Y5200000D01*
X19100000Y5200000D01*
X19100000Y15800000D01*
X20175000Y15800000D01*
X20199386Y15802402D01*
X20222835Y15809515D01*
X20244446Y15821066D01*
X20263388Y15836612D01*
X20278934Y15855554D01*
X20290485Y15877165D01*
X20297598Y15900614D01*
X20300000Y15925000D01*
X20300000Y17000000D01*
X37300000Y17000000D01*
X37300000Y15600000D01*
X37300000Y15600000D01*
G37*
G36*
X6187500Y6682500D02*
X5350000Y6682500D01*
X5325614Y6680098D01*
X5302165Y6672985D01*
X5280554Y6661434D01*
X5261612Y6645888D01*
X5246066Y6626946D01*
X5234515Y6605335D01*
X5227402Y6581886D01*
X5225000Y6557500D01*
X5225000Y4825000D01*
X3250000Y4825000D01*
X3250000Y6557500D01*
X3247598Y6581886D01*
X3240485Y6605335D01*
X3237500Y6610920D01*
X3237500Y8142500D01*
X6187500Y8142500D01*
X6187500Y6682500D01*
X6187500Y6682500D01*
G37*
G36*
X17400000Y5200000D02*
X15300000Y5200000D01*
X15300000Y6100000D01*
X17400000Y6100000D01*
X17400000Y5200000D01*
X17400000Y5200000D01*
G37*
G36*
X14050000Y5850000D02*
X12050000Y5850000D01*
X12050000Y7550000D01*
X14050000Y7550000D01*
X14050000Y5850000D01*
X14050000Y5850000D01*
G37*
G36*
X11550000Y8150000D02*
X11552402Y8125614D01*
X11559515Y8102165D01*
X11571066Y8080554D01*
X11586612Y8061612D01*
X11605554Y8046066D01*
X11627165Y8034515D01*
X11650000Y8027588D01*
X11650000Y6872412D01*
X11627165Y6865485D01*
X11605554Y6853934D01*
X11586612Y6838388D01*
X11571066Y6819446D01*
X11559515Y6797835D01*
X11552402Y6774386D01*
X11550000Y6750000D01*
X11550000Y5950000D01*
X9450000Y5950000D01*
X9450000Y6750000D01*
X9447598Y6774386D01*
X9440485Y6797835D01*
X9428934Y6819446D01*
X9413388Y6838388D01*
X9394446Y6853934D01*
X9372835Y6865485D01*
X9349386Y6872598D01*
X9325000Y6875000D01*
X8950000Y6875000D01*
X8950000Y7925000D01*
X10150000Y7925000D01*
X10150000Y6975000D01*
X10152402Y6950614D01*
X10159515Y6927165D01*
X10171066Y6905554D01*
X10186612Y6886612D01*
X10205554Y6871066D01*
X10227165Y6859515D01*
X10250614Y6852402D01*
X10275000Y6850000D01*
X10325000Y6850000D01*
X10349386Y6852402D01*
X10372835Y6859515D01*
X10394446Y6871066D01*
X10413388Y6886612D01*
X10428934Y6905554D01*
X10440485Y6927165D01*
X10447598Y6950614D01*
X10450000Y6975000D01*
X10450000Y7925000D01*
X10447598Y7949386D01*
X10440485Y7972835D01*
X10428934Y7994446D01*
X10413388Y8013388D01*
X10394446Y8028934D01*
X10372835Y8040485D01*
X10349386Y8047598D01*
X10325000Y8050000D01*
X10275000Y8050000D01*
X10250614Y8047598D01*
X10227165Y8040485D01*
X10205554Y8028934D01*
X10186612Y8013388D01*
X10171066Y7994446D01*
X10159515Y7972835D01*
X10152402Y7949386D01*
X10150000Y7925000D01*
X8950000Y7925000D01*
X8950000Y8025000D01*
X9325000Y8025000D01*
X9349386Y8027402D01*
X9372835Y8034515D01*
X9394446Y8046066D01*
X9413388Y8061612D01*
X9428934Y8080554D01*
X9440485Y8102165D01*
X9447598Y8125614D01*
X9450000Y8150000D01*
X9450000Y10750000D01*
X11550000Y10750000D01*
X11550000Y8150000D01*
X11550000Y8150000D01*
G37*
G36*
X5150614Y10344902D02*
X5175000Y10342500D01*
X6187500Y10342500D01*
X6187500Y8882500D01*
X5137500Y8882500D01*
X5137500Y10348880D01*
X5150614Y10344902D01*
X5150614Y10344902D01*
G37*
G36*
X5050000Y10468620D02*
X5036886Y10472598D01*
X5012500Y10475000D01*
X4412500Y10475000D01*
X4388114Y10472598D01*
X4364665Y10465485D01*
X4343054Y10453934D01*
X4324112Y10438388D01*
X4308566Y10419446D01*
X4297015Y10397835D01*
X4289902Y10374386D01*
X4287500Y10350000D01*
X4287500Y8882500D01*
X3237500Y8882500D01*
X3237500Y10343731D01*
X3249386Y10344902D01*
X3272835Y10352015D01*
X3294446Y10363566D01*
X3313388Y10379112D01*
X3328934Y10398054D01*
X3340485Y10419665D01*
X3347598Y10443114D01*
X3350000Y10467500D01*
X3350000Y11475000D01*
X5050000Y11475000D01*
X5050000Y10468620D01*
X5050000Y10468620D01*
G37*
G36*
X3885829Y13670780D02*
X3971530Y13662339D01*
X4081489Y13628983D01*
X4136469Y13612305D01*
X4187137Y13585222D01*
X4288476Y13531056D01*
X4421712Y13421712D01*
X4531056Y13288476D01*
X4578347Y13200000D01*
X4612305Y13136469D01*
X4612305Y13136468D01*
X4662339Y12971530D01*
X4662339Y12971528D01*
X4675602Y12836868D01*
X4680383Y12812834D01*
X4685482Y12800524D01*
X4684515Y12798715D01*
X4675602Y12763132D01*
X4662339Y12628470D01*
X4628983Y12518511D01*
X4612305Y12463531D01*
X4585222Y12412863D01*
X4531056Y12311524D01*
X4421712Y12178288D01*
X4288476Y12068944D01*
X4187137Y12014778D01*
X4136469Y11987695D01*
X4081489Y11971017D01*
X3971530Y11937661D01*
X3885829Y11929220D01*
X3842980Y11925000D01*
X3757020Y11925000D01*
X3714171Y11929220D01*
X3628470Y11937661D01*
X3518511Y11971017D01*
X3463531Y11987695D01*
X3412863Y12014778D01*
X3311524Y12068944D01*
X3178288Y12178288D01*
X3068944Y12311524D01*
X3014778Y12412863D01*
X2987695Y12463531D01*
X2971017Y12518511D01*
X2937661Y12628470D01*
X2924398Y12763132D01*
X2919617Y12787166D01*
X2914301Y12800000D01*
X2919618Y12812835D01*
X2924398Y12836868D01*
X2937661Y12971528D01*
X2937661Y12971530D01*
X2987695Y13136468D01*
X2987695Y13136469D01*
X3021653Y13200000D01*
X3068944Y13288476D01*
X3178288Y13421712D01*
X3311524Y13531056D01*
X3412863Y13585222D01*
X3463531Y13612305D01*
X3518511Y13628983D01*
X3628470Y13662339D01*
X3714171Y13670780D01*
X3757020Y13675000D01*
X3842980Y13675000D01*
X3885829Y13670780D01*
X3885829Y13670780D01*
G37*
G36*
X1885829Y13670780D02*
X1971530Y13662339D01*
X2081489Y13628983D01*
X2136469Y13612305D01*
X2187137Y13585222D01*
X2288476Y13531056D01*
X2421712Y13421712D01*
X2531056Y13288476D01*
X2578347Y13200000D01*
X2612305Y13136469D01*
X2612305Y13136468D01*
X2662339Y12971530D01*
X2662339Y12971528D01*
X2675602Y12836868D01*
X2680383Y12812834D01*
X2685699Y12800000D01*
X2680382Y12787165D01*
X2675602Y12763132D01*
X2662339Y12628470D01*
X2628983Y12518511D01*
X2612305Y12463531D01*
X2585222Y12412863D01*
X2531056Y12311524D01*
X2421712Y12178288D01*
X2288476Y12068944D01*
X2187137Y12014778D01*
X2136469Y11987695D01*
X2081489Y11971017D01*
X1971530Y11937661D01*
X1885829Y11929220D01*
X1842980Y11925000D01*
X1757020Y11925000D01*
X1714171Y11929220D01*
X1628470Y11937661D01*
X1518511Y11971017D01*
X1463531Y11987695D01*
X1412863Y12014778D01*
X1311524Y12068944D01*
X1178288Y12178288D01*
X1068944Y12311524D01*
X1014778Y12412863D01*
X987695Y12463531D01*
X971017Y12518511D01*
X937661Y12628470D01*
X920767Y12800000D01*
X937661Y12971530D01*
X987695Y13136468D01*
X987695Y13136469D01*
X1021653Y13200000D01*
X1068944Y13288476D01*
X1178288Y13421712D01*
X1311524Y13531056D01*
X1412863Y13585222D01*
X1463531Y13612305D01*
X1518511Y13628983D01*
X1628470Y13662339D01*
X1714171Y13670780D01*
X1757020Y13675000D01*
X1842980Y13675000D01*
X1885829Y13670780D01*
X1885829Y13670780D01*
G37*
G36*
X6675000Y11925000D02*
X4925000Y11925000D01*
X4925000Y12750880D01*
X4922598Y12775266D01*
X4915485Y12798715D01*
X4914518Y12800524D01*
X4919618Y12812835D01*
X4925000Y12849120D01*
X4925000Y13675000D01*
X6675000Y13675000D01*
X6675000Y11925000D01*
X6675000Y11925000D01*
G37*
G36*
X6400000Y15100000D02*
X4400000Y15100000D01*
X4400000Y16700000D01*
X6400000Y16700000D01*
X6400000Y15100000D01*
X6400000Y15100000D01*
G37*
G36*
X3200000Y15100000D02*
X1200000Y15100000D01*
X1200000Y16700000D01*
X3200000Y16700000D01*
X3200000Y15100000D01*
X3200000Y15100000D01*
G37*
G36*
X25705554Y19546066D02*
X25727165Y19534515D01*
X25750614Y19527402D01*
X25775000Y19525000D01*
X26777588Y19525000D01*
X26784515Y19502165D01*
X26796066Y19480554D01*
X26811612Y19461612D01*
X26830554Y19446066D01*
X26852165Y19434515D01*
X26875614Y19427402D01*
X26900000Y19425000D01*
X28475000Y19425000D01*
X28475000Y17425000D01*
X25824239Y17425000D01*
X25819446Y17428934D01*
X25797835Y17440485D01*
X25774386Y17447598D01*
X25750000Y17450000D01*
X23050000Y17450000D01*
X23050000Y19475000D01*
X24625000Y19475000D01*
X24649386Y19477402D01*
X24672835Y19484515D01*
X24694446Y19496066D01*
X24713388Y19511612D01*
X24728934Y19530554D01*
X24739328Y19550000D01*
X25700761Y19550000D01*
X25705554Y19546066D01*
X25705554Y19546066D01*
G37*
G36*
X3200000Y17600000D02*
X1200000Y17600000D01*
X1200000Y19200000D01*
X3200000Y19200000D01*
X3200000Y17600000D01*
X3200000Y17600000D01*
G37*
G36*
X6400000Y17600000D02*
X4400000Y17600000D01*
X4400000Y19200000D01*
X6400000Y19200000D01*
X6400000Y17600000D01*
X6400000Y17600000D01*
G37*
G36*
X37775000Y17725000D02*
X36325000Y17725000D01*
X36325000Y18775000D01*
X37775000Y18775000D01*
X37775000Y17725000D01*
X37775000Y17725000D01*
G37*
G36*
X33625000Y17725000D02*
X32175000Y17725000D01*
X32175000Y18775000D01*
X33625000Y18775000D01*
X33625000Y17725000D01*
X33625000Y17725000D01*
G37*
G36*
X33625000Y19875000D02*
X32175000Y19875000D01*
X32175000Y20925000D01*
X33625000Y20925000D01*
X33625000Y19875000D01*
X33625000Y19875000D01*
G37*
G36*
X37775000Y19875000D02*
X36325000Y19875000D01*
X36325000Y20925000D01*
X37775000Y20925000D01*
X37775000Y19875000D01*
X37775000Y19875000D01*
G37*
G36*
X6400000Y20100000D02*
X4400000Y20100000D01*
X4400000Y21700000D01*
X6400000Y21700000D01*
X6400000Y20100000D01*
X6400000Y20100000D01*
G37*
G36*
X3200000Y20100000D02*
X1200000Y20100000D01*
X1200000Y21700000D01*
X3200000Y21700000D01*
X3200000Y20100000D01*
X3200000Y20100000D01*
G37*
G36*
X32150000Y31800000D02*
X30850000Y31800000D01*
X30850000Y32075000D01*
X30847598Y32099386D01*
X30840485Y32122835D01*
X30828934Y32144446D01*
X30813388Y32163388D01*
X30794446Y32178934D01*
X30772835Y32190485D01*
X30749386Y32197598D01*
X30725000Y32200000D01*
X30125000Y32200000D01*
X30100614Y32197598D01*
X30077165Y32190485D01*
X30055554Y32178934D01*
X30036612Y32163388D01*
X30021066Y32144446D01*
X30009515Y32122835D01*
X30002402Y32099386D01*
X30000000Y32075000D01*
X30000000Y31750000D01*
X28535000Y31750000D01*
X28510614Y31747598D01*
X28487165Y31740485D01*
X28465554Y31728934D01*
X28446612Y31713388D01*
X28431066Y31694446D01*
X28419515Y31672835D01*
X28412402Y31649386D01*
X28410000Y31625000D01*
X28410000Y22900000D01*
X28412402Y22875614D01*
X28419515Y22852165D01*
X28431066Y22830554D01*
X28446612Y22811612D01*
X28465554Y22796066D01*
X28487165Y22784515D01*
X28510614Y22777402D01*
X28535000Y22775000D01*
X29560000Y22775000D01*
X29560000Y21375000D01*
X27960000Y21375000D01*
X27960000Y22675000D01*
X27957598Y22699386D01*
X27950485Y22722835D01*
X27938934Y22744446D01*
X27923388Y22763388D01*
X27904446Y22778934D01*
X27882835Y22790485D01*
X27859386Y22797598D01*
X27835000Y22800000D01*
X27010000Y22800000D01*
X27010000Y31600000D01*
X28275000Y31600000D01*
X28299386Y31602402D01*
X28322835Y31609515D01*
X28344446Y31621066D01*
X28363388Y31636612D01*
X28378934Y31655554D01*
X28390485Y31677165D01*
X28397598Y31700614D01*
X28400000Y31725000D01*
X28400000Y33600000D01*
X32150000Y33600000D01*
X32150000Y31800000D01*
X32150000Y31800000D01*
G37*
G36*
X32150000Y21500000D02*
X30550000Y21500000D01*
X30550000Y23050000D01*
X32150000Y23050000D01*
X32150000Y21500000D01*
X32150000Y21500000D01*
G37*
G36*
X7350000Y25325000D02*
X5250000Y25325000D01*
X5250000Y27425000D01*
X7350000Y27425000D01*
X7350000Y25325000D01*
X7350000Y25325000D01*
G37*
G36*
X19450000Y28625000D02*
X19452402Y28600614D01*
X19459515Y28577165D01*
X19471066Y28555554D01*
X19486612Y28536612D01*
X19505554Y28521066D01*
X19527165Y28509515D01*
X19550614Y28502402D01*
X19575000Y28500000D01*
X19775000Y28500000D01*
X19799386Y28502402D01*
X19822835Y28509515D01*
X19844446Y28521066D01*
X19863388Y28536612D01*
X19878934Y28555554D01*
X19890485Y28577165D01*
X19897598Y28600614D01*
X19900000Y28625000D01*
X19900000Y30700000D01*
X20800000Y30700000D01*
X20800000Y28597412D01*
X20777165Y28590485D01*
X20755554Y28578934D01*
X20736612Y28563388D01*
X20721066Y28544446D01*
X20709515Y28522835D01*
X20702402Y28499386D01*
X20700000Y28475000D01*
X20700000Y27625000D01*
X20702402Y27600614D01*
X20709515Y27577165D01*
X20721066Y27555554D01*
X20736612Y27536612D01*
X20755554Y27521066D01*
X20777165Y27509515D01*
X20800614Y27502402D01*
X20825000Y27500000D01*
X21150000Y27500000D01*
X21150000Y25650000D01*
X19050000Y25650000D01*
X19050000Y27375000D01*
X19047598Y27399386D01*
X19040485Y27422835D01*
X19028934Y27444446D01*
X19013388Y27463388D01*
X19000000Y27474376D01*
X19000000Y28475000D01*
X18997598Y28499386D01*
X18990485Y28522835D01*
X18978934Y28544446D01*
X18963388Y28563388D01*
X18944446Y28578934D01*
X18922835Y28590485D01*
X18899386Y28597598D01*
X18875000Y28600000D01*
X18550000Y28600000D01*
X18550000Y30700000D01*
X19450000Y30700000D01*
X19450000Y28625000D01*
X19450000Y28625000D01*
G37*
G36*
X26100000Y25800000D02*
X25200000Y25800000D01*
X25200000Y27900000D01*
X26100000Y27900000D01*
X26100000Y25800000D01*
X26100000Y25800000D01*
G37*
G36*
X17725000Y28375000D02*
X17727402Y28350614D01*
X17734515Y28327165D01*
X17746066Y28305554D01*
X17761612Y28286612D01*
X17780554Y28271066D01*
X17802165Y28259515D01*
X17825614Y28252402D01*
X17850000Y28250000D01*
X18350000Y28250000D01*
X18350000Y26150000D01*
X15600000Y26150000D01*
X15600000Y28250000D01*
X15700000Y28250000D01*
X15724386Y28252402D01*
X15747835Y28259515D01*
X15769446Y28271066D01*
X15788388Y28286612D01*
X15803934Y28305554D01*
X15815485Y28327165D01*
X15822598Y28350614D01*
X15825000Y28375000D01*
X15825000Y30325000D01*
X17725000Y30325000D01*
X17725000Y28375000D01*
X17725000Y28375000D01*
G37*
G36*
X6428707Y29957403D02*
X6505836Y29949807D01*
X6637787Y29909780D01*
X6703763Y29889767D01*
X6886172Y29792267D01*
X7046054Y29661054D01*
X7177267Y29501172D01*
X7274767Y29318763D01*
X7274767Y29318762D01*
X7334807Y29120836D01*
X7355080Y28915000D01*
X7334807Y28709164D01*
X7298806Y28590485D01*
X7274767Y28511237D01*
X7177267Y28328828D01*
X7046054Y28168946D01*
X6886172Y28037733D01*
X6703763Y27940233D01*
X6637787Y27920220D01*
X6505836Y27880193D01*
X6428707Y27872596D01*
X6351580Y27865000D01*
X6248420Y27865000D01*
X6171293Y27872596D01*
X6094164Y27880193D01*
X5962213Y27920220D01*
X5896237Y27940233D01*
X5713828Y28037733D01*
X5553946Y28168946D01*
X5422733Y28328828D01*
X5325233Y28511237D01*
X5301194Y28590485D01*
X5265193Y28709164D01*
X5244920Y28915000D01*
X5265193Y29120836D01*
X5325233Y29318762D01*
X5325233Y29318763D01*
X5422733Y29501172D01*
X5553946Y29661054D01*
X5713828Y29792267D01*
X5896237Y29889767D01*
X5962213Y29909780D01*
X6094164Y29949807D01*
X6171293Y29957403D01*
X6248420Y29965000D01*
X6351580Y29965000D01*
X6428707Y29957403D01*
X6428707Y29957403D01*
G37*
G36*
X6428707Y32497404D02*
X6505836Y32489807D01*
X6637787Y32449780D01*
X6703763Y32429767D01*
X6886172Y32332267D01*
X7046054Y32201054D01*
X7177267Y32041172D01*
X7274767Y31858763D01*
X7274767Y31858762D01*
X7334807Y31660836D01*
X7355080Y31455000D01*
X7334807Y31249164D01*
X7294780Y31117213D01*
X7274767Y31051237D01*
X7177267Y30868828D01*
X7046054Y30708946D01*
X6886172Y30577733D01*
X6703763Y30480233D01*
X6637787Y30460220D01*
X6505836Y30420193D01*
X6428707Y30412597D01*
X6351580Y30405000D01*
X6248420Y30405000D01*
X6171293Y30412597D01*
X6094164Y30420193D01*
X5962213Y30460220D01*
X5896237Y30480233D01*
X5713828Y30577733D01*
X5553946Y30708946D01*
X5422733Y30868828D01*
X5325233Y31051237D01*
X5305220Y31117213D01*
X5265193Y31249164D01*
X5244920Y31455000D01*
X5265193Y31660836D01*
X5325233Y31858762D01*
X5325233Y31858763D01*
X5422733Y32041172D01*
X5553946Y32201054D01*
X5713828Y32332267D01*
X5896237Y32429767D01*
X5962213Y32449780D01*
X6094164Y32489807D01*
X6171293Y32497404D01*
X6248420Y32505000D01*
X6351580Y32505000D01*
X6428707Y32497404D01*
X6428707Y32497404D01*
G37*
G36*
X16300000Y31950000D02*
X15300000Y31950000D01*
X15300000Y33650000D01*
X16300000Y33650000D01*
X16300000Y31950000D01*
X16300000Y31950000D01*
G37*
G36*
X21750000Y32000000D02*
X20225000Y32000000D01*
X20200614Y31997598D01*
X20177165Y31990485D01*
X20155554Y31978934D01*
X20136612Y31963388D01*
X20125624Y31950000D01*
X19100000Y31950000D01*
X19100000Y33650000D01*
X20225000Y33650000D01*
X20249386Y33652402D01*
X20272835Y33659515D01*
X20294446Y33671066D01*
X20313388Y33686612D01*
X20328934Y33705554D01*
X20340485Y33727165D01*
X20347598Y33750614D01*
X20350000Y33775000D01*
X20350000Y34000000D01*
X21750000Y34000000D01*
X21750000Y32000000D01*
X21750000Y32000000D01*
G37*
G36*
X24750000Y32000000D02*
X23350000Y32000000D01*
X23350000Y34000000D01*
X24750000Y34000000D01*
X24750000Y32000000D01*
X24750000Y32000000D01*
G37*
G36*
X15000000Y32050000D02*
X13600000Y32050000D01*
X13600000Y34050000D01*
X15000000Y34050000D01*
X15000000Y32050000D01*
X15000000Y32050000D01*
G37*
G36*
X12000000Y32050000D02*
X10600000Y32050000D01*
X10600000Y34050000D01*
X12000000Y34050000D01*
X12000000Y32050000D01*
X12000000Y32050000D01*
G37*
G36*
X1906707Y37042404D02*
X1983836Y37034807D01*
X2115787Y36994780D01*
X2181763Y36974767D01*
X2364172Y36877267D01*
X2524054Y36746054D01*
X2655267Y36586172D01*
X2752767Y36403763D01*
X2752767Y36403762D01*
X2812807Y36205836D01*
X2833080Y36000000D01*
X2812807Y35794164D01*
X2772780Y35662213D01*
X2752767Y35596237D01*
X2655267Y35413828D01*
X2524054Y35253946D01*
X2364172Y35122733D01*
X2181763Y35025233D01*
X2115787Y35005220D01*
X1983836Y34965193D01*
X1906707Y34957597D01*
X1829580Y34950000D01*
X1726420Y34950000D01*
X1649293Y34957597D01*
X1572164Y34965193D01*
X1440213Y35005220D01*
X1374237Y35025233D01*
X1191828Y35122733D01*
X1031946Y35253946D01*
X900733Y35413828D01*
X803233Y35596237D01*
X783220Y35662213D01*
X743193Y35794164D01*
X722920Y36000000D01*
X743193Y36205836D01*
X803233Y36403762D01*
X803233Y36403763D01*
X900733Y36586172D01*
X1031946Y36746054D01*
X1191828Y36877267D01*
X1374237Y36974767D01*
X1440213Y36994780D01*
X1572164Y37034807D01*
X1649293Y37042404D01*
X1726420Y37050000D01*
X1829580Y37050000D01*
X1906707Y37042404D01*
X1906707Y37042404D01*
G37*
G36*
X36328707Y37042404D02*
X36405836Y37034807D01*
X36537787Y36994780D01*
X36603763Y36974767D01*
X36786172Y36877267D01*
X36946054Y36746054D01*
X37077267Y36586172D01*
X37174767Y36403763D01*
X37174767Y36403762D01*
X37234807Y36205836D01*
X37255080Y36000000D01*
X37234807Y35794164D01*
X37194780Y35662213D01*
X37174767Y35596237D01*
X37077267Y35413828D01*
X36946054Y35253946D01*
X36786172Y35122733D01*
X36603763Y35025233D01*
X36537787Y35005220D01*
X36405836Y34965193D01*
X36328707Y34957597D01*
X36251580Y34950000D01*
X36148420Y34950000D01*
X36071293Y34957597D01*
X35994164Y34965193D01*
X35862213Y35005220D01*
X35796237Y35025233D01*
X35613828Y35122733D01*
X35453946Y35253946D01*
X35322733Y35413828D01*
X35225233Y35596237D01*
X35205220Y35662213D01*
X35165193Y35794164D01*
X35144920Y36000000D01*
X35165193Y36205836D01*
X35225233Y36403762D01*
X35225233Y36403763D01*
X35322733Y36586172D01*
X35453946Y36746054D01*
X35613828Y36877267D01*
X35796237Y36974767D01*
X35862213Y36994780D01*
X35994164Y37034807D01*
X36071293Y37042404D01*
X36148420Y37050000D01*
X36251580Y37050000D01*
X36328707Y37042404D01*
X36328707Y37042404D01*
G37*
G36*
X4446707Y37042404D02*
X4523836Y37034807D01*
X4655787Y36994780D01*
X4721763Y36974767D01*
X4904172Y36877267D01*
X5064054Y36746054D01*
X5195267Y36586172D01*
X5292767Y36403763D01*
X5292767Y36403762D01*
X5352807Y36205836D01*
X5373080Y36000000D01*
X5352807Y35794164D01*
X5312780Y35662213D01*
X5292767Y35596237D01*
X5195267Y35413828D01*
X5064054Y35253946D01*
X4904172Y35122733D01*
X4721763Y35025233D01*
X4655787Y35005220D01*
X4523836Y34965193D01*
X4446707Y34957597D01*
X4369580Y34950000D01*
X4266420Y34950000D01*
X4189293Y34957597D01*
X4112164Y34965193D01*
X3980213Y35005220D01*
X3914237Y35025233D01*
X3731828Y35122733D01*
X3571946Y35253946D01*
X3440733Y35413828D01*
X3343233Y35596237D01*
X3323220Y35662213D01*
X3283193Y35794164D01*
X3262920Y36000000D01*
X3283193Y36205836D01*
X3343233Y36403762D01*
X3343233Y36403763D01*
X3440733Y36586172D01*
X3571946Y36746054D01*
X3731828Y36877267D01*
X3914237Y36974767D01*
X3980213Y36994780D01*
X4112164Y37034807D01*
X4189293Y37042404D01*
X4266420Y37050000D01*
X4369580Y37050000D01*
X4446707Y37042404D01*
X4446707Y37042404D01*
G37*
G36*
X33622651Y37050000D02*
X33705836Y37041807D01*
X33837787Y37001780D01*
X33903763Y36981767D01*
X34086172Y36884267D01*
X34246054Y36753054D01*
X34377267Y36593172D01*
X34474767Y36410763D01*
X34494780Y36344787D01*
X34534807Y36212836D01*
X34555080Y36007000D01*
X34534807Y35801164D01*
X34494780Y35669213D01*
X34474767Y35603237D01*
X34377267Y35420828D01*
X34246054Y35260946D01*
X34086172Y35129733D01*
X33903763Y35032233D01*
X33837787Y35012220D01*
X33705836Y34972193D01*
X33634763Y34965193D01*
X33551580Y34957000D01*
X33448420Y34957000D01*
X33365237Y34965193D01*
X33294164Y34972193D01*
X33162213Y35012220D01*
X33096237Y35032233D01*
X32913828Y35129733D01*
X32753946Y35260946D01*
X32622733Y35420828D01*
X32525233Y35603237D01*
X32505220Y35669213D01*
X32465193Y35801164D01*
X32444920Y36007000D01*
X32465193Y36212836D01*
X32505220Y36344787D01*
X32525233Y36410763D01*
X32622733Y36593172D01*
X32753946Y36753054D01*
X32913828Y36884267D01*
X33096237Y36981767D01*
X33162213Y37001780D01*
X33294164Y37041807D01*
X33377349Y37050000D01*
X33448420Y37057000D01*
X33551580Y37057000D01*
X33622651Y37050000D01*
X33622651Y37050000D01*
G37*
G36*
X4446707Y39582403D02*
X4523836Y39574807D01*
X4655787Y39534780D01*
X4721763Y39514767D01*
X4904172Y39417267D01*
X5064054Y39286054D01*
X5195267Y39126172D01*
X5292767Y38943763D01*
X5292767Y38943762D01*
X5352807Y38745836D01*
X5373080Y38540000D01*
X5352807Y38334164D01*
X5312780Y38202213D01*
X5292767Y38136237D01*
X5195267Y37953828D01*
X5064054Y37793946D01*
X4904172Y37662733D01*
X4721763Y37565233D01*
X4655787Y37545220D01*
X4523836Y37505193D01*
X4446707Y37497597D01*
X4369580Y37490000D01*
X4266420Y37490000D01*
X4189293Y37497597D01*
X4112164Y37505193D01*
X3980213Y37545220D01*
X3914237Y37565233D01*
X3731828Y37662733D01*
X3571946Y37793946D01*
X3440733Y37953828D01*
X3343233Y38136237D01*
X3323220Y38202213D01*
X3283193Y38334164D01*
X3262920Y38540000D01*
X3283193Y38745836D01*
X3343233Y38943762D01*
X3343233Y38943763D01*
X3440733Y39126172D01*
X3571946Y39286054D01*
X3731828Y39417267D01*
X3914237Y39514767D01*
X3980213Y39534780D01*
X4112164Y39574807D01*
X4189293Y39582403D01*
X4266420Y39590000D01*
X4369580Y39590000D01*
X4446707Y39582403D01*
X4446707Y39582403D01*
G37*
G36*
X1906707Y39582403D02*
X1983836Y39574807D01*
X2115787Y39534780D01*
X2181763Y39514767D01*
X2364172Y39417267D01*
X2524054Y39286054D01*
X2655267Y39126172D01*
X2752767Y38943763D01*
X2752767Y38943762D01*
X2812807Y38745836D01*
X2833080Y38540000D01*
X2812807Y38334164D01*
X2772780Y38202213D01*
X2752767Y38136237D01*
X2655267Y37953828D01*
X2524054Y37793946D01*
X2364172Y37662733D01*
X2181763Y37565233D01*
X2115787Y37545220D01*
X1983836Y37505193D01*
X1906707Y37497597D01*
X1829580Y37490000D01*
X1726420Y37490000D01*
X1649293Y37497597D01*
X1572164Y37505193D01*
X1440213Y37545220D01*
X1374237Y37565233D01*
X1191828Y37662733D01*
X1031946Y37793946D01*
X900733Y37953828D01*
X803233Y38136237D01*
X783220Y38202213D01*
X743193Y38334164D01*
X722920Y38540000D01*
X743193Y38745836D01*
X803233Y38943762D01*
X803233Y38943763D01*
X900733Y39126172D01*
X1031946Y39286054D01*
X1191828Y39417267D01*
X1374237Y39514767D01*
X1440213Y39534780D01*
X1572164Y39574807D01*
X1649293Y39582403D01*
X1726420Y39590000D01*
X1829580Y39590000D01*
X1906707Y39582403D01*
X1906707Y39582403D01*
G37*
G36*
X36328707Y39582403D02*
X36405836Y39574807D01*
X36537787Y39534780D01*
X36603763Y39514767D01*
X36786172Y39417267D01*
X36946054Y39286054D01*
X37077267Y39126172D01*
X37174767Y38943763D01*
X37174767Y38943762D01*
X37234807Y38745836D01*
X37255080Y38540000D01*
X37234807Y38334164D01*
X37194780Y38202213D01*
X37174767Y38136237D01*
X37077267Y37953828D01*
X36946054Y37793946D01*
X36786172Y37662733D01*
X36603763Y37565233D01*
X36537787Y37545220D01*
X36405836Y37505193D01*
X36328707Y37497597D01*
X36251580Y37490000D01*
X36148420Y37490000D01*
X36071293Y37497597D01*
X35994164Y37505193D01*
X35862213Y37545220D01*
X35796237Y37565233D01*
X35613828Y37662733D01*
X35453946Y37793946D01*
X35322733Y37953828D01*
X35225233Y38136237D01*
X35205220Y38202213D01*
X35165193Y38334164D01*
X35144920Y38540000D01*
X35165193Y38745836D01*
X35225233Y38943762D01*
X35225233Y38943763D01*
X35322733Y39126172D01*
X35453946Y39286054D01*
X35613828Y39417267D01*
X35796237Y39514767D01*
X35862213Y39534780D01*
X35994164Y39574807D01*
X36071293Y39582403D01*
X36148420Y39590000D01*
X36251580Y39590000D01*
X36328707Y39582403D01*
X36328707Y39582403D01*
G37*
G36*
X33622651Y39590000D02*
X33705836Y39581807D01*
X33837787Y39541780D01*
X33903763Y39521767D01*
X34086172Y39424267D01*
X34246054Y39293054D01*
X34377267Y39133172D01*
X34474767Y38950763D01*
X34494780Y38884787D01*
X34534807Y38752836D01*
X34555080Y38547000D01*
X34534807Y38341164D01*
X34494780Y38209213D01*
X34474767Y38143237D01*
X34377267Y37960828D01*
X34246054Y37800946D01*
X34086172Y37669733D01*
X33903763Y37572233D01*
X33837787Y37552220D01*
X33705836Y37512193D01*
X33634763Y37505193D01*
X33551580Y37497000D01*
X33448420Y37497000D01*
X33365237Y37505193D01*
X33294164Y37512193D01*
X33162213Y37552220D01*
X33096237Y37572233D01*
X32913828Y37669733D01*
X32753946Y37800946D01*
X32622733Y37960828D01*
X32525233Y38143237D01*
X32505220Y38209213D01*
X32465193Y38341164D01*
X32444920Y38547000D01*
X32465193Y38752836D01*
X32505220Y38884787D01*
X32525233Y38950763D01*
X32622733Y39133172D01*
X32753946Y39293054D01*
X32913828Y39424267D01*
X33096237Y39521767D01*
X33162213Y39541780D01*
X33294164Y39581807D01*
X33377349Y39590000D01*
X33448420Y39597000D01*
X33551580Y39597000D01*
X33622651Y39590000D01*
X33622651Y39590000D01*
G37*
G36*
X36328707Y42122403D02*
X36405836Y42114807D01*
X36537787Y42074780D01*
X36603763Y42054767D01*
X36786172Y41957267D01*
X36946054Y41826054D01*
X37077267Y41666172D01*
X37174767Y41483763D01*
X37174767Y41483762D01*
X37234807Y41285836D01*
X37255080Y41080000D01*
X37234807Y40874164D01*
X37194780Y40742213D01*
X37174767Y40676237D01*
X37077267Y40493828D01*
X36946054Y40333946D01*
X36786172Y40202733D01*
X36603763Y40105233D01*
X36537787Y40085220D01*
X36405836Y40045193D01*
X36328707Y40037596D01*
X36251580Y40030000D01*
X36148420Y40030000D01*
X36071293Y40037596D01*
X35994164Y40045193D01*
X35862213Y40085220D01*
X35796237Y40105233D01*
X35613828Y40202733D01*
X35453946Y40333946D01*
X35322733Y40493828D01*
X35225233Y40676237D01*
X35205220Y40742213D01*
X35165193Y40874164D01*
X35144920Y41080000D01*
X35165193Y41285836D01*
X35225233Y41483762D01*
X35225233Y41483763D01*
X35322733Y41666172D01*
X35453946Y41826054D01*
X35613828Y41957267D01*
X35796237Y42054767D01*
X35862213Y42074780D01*
X35994164Y42114807D01*
X36071293Y42122403D01*
X36148420Y42130000D01*
X36251580Y42130000D01*
X36328707Y42122403D01*
X36328707Y42122403D01*
G37*
G36*
X1906707Y42122403D02*
X1983836Y42114807D01*
X2115787Y42074780D01*
X2181763Y42054767D01*
X2364172Y41957267D01*
X2524054Y41826054D01*
X2655267Y41666172D01*
X2752767Y41483763D01*
X2752767Y41483762D01*
X2812807Y41285836D01*
X2833080Y41080000D01*
X2812807Y40874164D01*
X2772780Y40742213D01*
X2752767Y40676237D01*
X2655267Y40493828D01*
X2524054Y40333946D01*
X2364172Y40202733D01*
X2181763Y40105233D01*
X2115787Y40085220D01*
X1983836Y40045193D01*
X1906707Y40037596D01*
X1829580Y40030000D01*
X1726420Y40030000D01*
X1649293Y40037596D01*
X1572164Y40045193D01*
X1440213Y40085220D01*
X1374237Y40105233D01*
X1191828Y40202733D01*
X1031946Y40333946D01*
X900733Y40493828D01*
X803233Y40676237D01*
X783220Y40742213D01*
X743193Y40874164D01*
X722920Y41080000D01*
X743193Y41285836D01*
X803233Y41483762D01*
X803233Y41483763D01*
X900733Y41666172D01*
X1031946Y41826054D01*
X1191828Y41957267D01*
X1374237Y42054767D01*
X1440213Y42074780D01*
X1572164Y42114807D01*
X1649293Y42122403D01*
X1726420Y42130000D01*
X1829580Y42130000D01*
X1906707Y42122403D01*
X1906707Y42122403D01*
G37*
G36*
X4446707Y42122403D02*
X4523836Y42114807D01*
X4655787Y42074780D01*
X4721763Y42054767D01*
X4904172Y41957267D01*
X5064054Y41826054D01*
X5195267Y41666172D01*
X5292767Y41483763D01*
X5292767Y41483762D01*
X5352807Y41285836D01*
X5373080Y41080000D01*
X5352807Y40874164D01*
X5312780Y40742213D01*
X5292767Y40676237D01*
X5195267Y40493828D01*
X5064054Y40333946D01*
X4904172Y40202733D01*
X4721763Y40105233D01*
X4655787Y40085220D01*
X4523836Y40045193D01*
X4446707Y40037596D01*
X4369580Y40030000D01*
X4266420Y40030000D01*
X4189293Y40037596D01*
X4112164Y40045193D01*
X3980213Y40085220D01*
X3914237Y40105233D01*
X3731828Y40202733D01*
X3571946Y40333946D01*
X3440733Y40493828D01*
X3343233Y40676237D01*
X3323220Y40742213D01*
X3283193Y40874164D01*
X3262920Y41080000D01*
X3283193Y41285836D01*
X3343233Y41483762D01*
X3343233Y41483763D01*
X3440733Y41666172D01*
X3571946Y41826054D01*
X3731828Y41957267D01*
X3914237Y42054767D01*
X3980213Y42074780D01*
X4112164Y42114807D01*
X4189293Y42122403D01*
X4266420Y42130000D01*
X4369580Y42130000D01*
X4446707Y42122403D01*
X4446707Y42122403D01*
G37*
G36*
X33622651Y42130000D02*
X33705836Y42121807D01*
X33837787Y42081780D01*
X33903763Y42061767D01*
X34086172Y41964267D01*
X34246054Y41833054D01*
X34377267Y41673172D01*
X34474767Y41490763D01*
X34489953Y41440700D01*
X34534807Y41292836D01*
X34555080Y41087000D01*
X34534807Y40881164D01*
X34494780Y40749213D01*
X34474767Y40683237D01*
X34377267Y40500828D01*
X34246054Y40340946D01*
X34086172Y40209733D01*
X33903763Y40112233D01*
X33863435Y40100000D01*
X33705836Y40052193D01*
X33634763Y40045193D01*
X33551580Y40037000D01*
X33448420Y40037000D01*
X33365237Y40045193D01*
X33294164Y40052193D01*
X33136565Y40100000D01*
X33096237Y40112233D01*
X32913828Y40209733D01*
X32753946Y40340946D01*
X32622733Y40500828D01*
X32525233Y40683237D01*
X32505220Y40749213D01*
X32465193Y40881164D01*
X32444920Y41087000D01*
X32465193Y41292836D01*
X32510047Y41440700D01*
X32525233Y41490763D01*
X32622733Y41673172D01*
X32753946Y41833054D01*
X32913828Y41964267D01*
X33096237Y42061767D01*
X33162213Y42081780D01*
X33294164Y42121807D01*
X33377349Y42130000D01*
X33448420Y42137000D01*
X33551580Y42137000D01*
X33622651Y42130000D01*
X33622651Y42130000D01*
G37*
G36*
X21550000Y40100000D02*
X15800000Y40100000D01*
X15800000Y41800000D01*
X21550000Y41800000D01*
X21550000Y40100000D01*
X21550000Y40100000D01*
G37*
G36*
X22800600Y40440700D02*
X21900600Y40440700D01*
X21900600Y42540700D01*
X22800600Y42540700D01*
X22800600Y40440700D01*
X22800600Y40440700D01*
G37*
G36*
X24096000Y40440700D02*
X23196000Y40440700D01*
X23196000Y42540700D01*
X24096000Y42540700D01*
X24096000Y40440700D01*
X24096000Y40440700D01*
G37*
G36*
X14717900Y42883800D02*
X14720302Y42859414D01*
X14727415Y42835965D01*
X14738966Y42814354D01*
X14746400Y42805296D01*
X14746400Y40880900D01*
X12646400Y40880900D01*
X12646400Y42781223D01*
X12663688Y42795412D01*
X12679234Y42814354D01*
X12690785Y42835965D01*
X12697898Y42859414D01*
X12700300Y42883800D01*
X12700300Y45060600D01*
X14717900Y45060600D01*
X14717900Y42883800D01*
X14717900Y42883800D01*
G37*
G36*
X20444600Y47658000D02*
X20447002Y47633614D01*
X20454115Y47610165D01*
X20465666Y47588554D01*
X20481212Y47569612D01*
X20500154Y47554066D01*
X20521765Y47542515D01*
X20545214Y47535402D01*
X20569600Y47533000D01*
X21419600Y47533000D01*
X21419600Y43333000D01*
X20569600Y43333000D01*
X20545214Y43330598D01*
X20521765Y43323485D01*
X20500154Y43311934D01*
X20481212Y43296388D01*
X20465666Y43277446D01*
X20454115Y43255835D01*
X20447002Y43232386D01*
X20444600Y43208000D01*
X20444600Y42358000D01*
X16244600Y42358000D01*
X16244600Y43208000D01*
X16242198Y43232386D01*
X16235085Y43255835D01*
X16223534Y43277446D01*
X16207988Y43296388D01*
X16189046Y43311934D01*
X16167435Y43323485D01*
X16143986Y43330598D01*
X16119600Y43333000D01*
X15269600Y43333000D01*
X15269600Y47533000D01*
X16119600Y47533000D01*
X16143986Y47535402D01*
X16167435Y47542515D01*
X16189046Y47554066D01*
X16207988Y47569612D01*
X16223534Y47588554D01*
X16235085Y47610165D01*
X16242198Y47633614D01*
X16244600Y47658000D01*
X16244600Y48508000D01*
X20444600Y48508000D01*
X20444600Y47658000D01*
X20444600Y47658000D01*
G37*
G36*
X4446707Y44662403D02*
X4523836Y44654807D01*
X4655787Y44614780D01*
X4721763Y44594767D01*
X4904172Y44497267D01*
X5064054Y44366054D01*
X5195267Y44206172D01*
X5292767Y44023763D01*
X5292767Y44023762D01*
X5352807Y43825836D01*
X5373080Y43620000D01*
X5352807Y43414164D01*
X5325300Y43323485D01*
X5292767Y43216237D01*
X5195267Y43033828D01*
X5064054Y42873946D01*
X4904172Y42742733D01*
X4721763Y42645233D01*
X4655787Y42625220D01*
X4523836Y42585193D01*
X4446707Y42577597D01*
X4369580Y42570000D01*
X4266420Y42570000D01*
X4189293Y42577597D01*
X4112164Y42585193D01*
X3980213Y42625220D01*
X3914237Y42645233D01*
X3731828Y42742733D01*
X3571946Y42873946D01*
X3440733Y43033828D01*
X3343233Y43216237D01*
X3310700Y43323485D01*
X3283193Y43414164D01*
X3262920Y43620000D01*
X3283193Y43825836D01*
X3343233Y44023762D01*
X3343233Y44023763D01*
X3440733Y44206172D01*
X3571946Y44366054D01*
X3731828Y44497267D01*
X3914237Y44594767D01*
X3980213Y44614780D01*
X4112164Y44654807D01*
X4189293Y44662403D01*
X4266420Y44670000D01*
X4369580Y44670000D01*
X4446707Y44662403D01*
X4446707Y44662403D01*
G37*
G36*
X1906707Y44662403D02*
X1983836Y44654807D01*
X2115787Y44614780D01*
X2181763Y44594767D01*
X2364172Y44497267D01*
X2524054Y44366054D01*
X2655267Y44206172D01*
X2752767Y44023763D01*
X2752767Y44023762D01*
X2812807Y43825836D01*
X2833080Y43620000D01*
X2812807Y43414164D01*
X2785300Y43323485D01*
X2752767Y43216237D01*
X2655267Y43033828D01*
X2524054Y42873946D01*
X2364172Y42742733D01*
X2181763Y42645233D01*
X2115787Y42625220D01*
X1983836Y42585193D01*
X1906707Y42577597D01*
X1829580Y42570000D01*
X1726420Y42570000D01*
X1649293Y42577597D01*
X1572164Y42585193D01*
X1440213Y42625220D01*
X1374237Y42645233D01*
X1191828Y42742733D01*
X1031946Y42873946D01*
X900733Y43033828D01*
X803233Y43216237D01*
X770700Y43323485D01*
X743193Y43414164D01*
X722920Y43620000D01*
X743193Y43825836D01*
X803233Y44023762D01*
X803233Y44023763D01*
X900733Y44206172D01*
X1031946Y44366054D01*
X1191828Y44497267D01*
X1374237Y44594767D01*
X1440213Y44614780D01*
X1572164Y44654807D01*
X1649293Y44662403D01*
X1726420Y44670000D01*
X1829580Y44670000D01*
X1906707Y44662403D01*
X1906707Y44662403D01*
G37*
G36*
X36328707Y44662403D02*
X36405836Y44654807D01*
X36537787Y44614780D01*
X36603763Y44594767D01*
X36786172Y44497267D01*
X36946054Y44366054D01*
X37077267Y44206172D01*
X37174767Y44023763D01*
X37174767Y44023762D01*
X37234807Y43825836D01*
X37255080Y43620000D01*
X37234807Y43414164D01*
X37207300Y43323485D01*
X37174767Y43216237D01*
X37077267Y43033828D01*
X36946054Y42873946D01*
X36786172Y42742733D01*
X36603763Y42645233D01*
X36537787Y42625220D01*
X36405836Y42585193D01*
X36328707Y42577597D01*
X36251580Y42570000D01*
X36148420Y42570000D01*
X36071293Y42577597D01*
X35994164Y42585193D01*
X35862213Y42625220D01*
X35796237Y42645233D01*
X35613828Y42742733D01*
X35453946Y42873946D01*
X35322733Y43033828D01*
X35225233Y43216237D01*
X35192700Y43323485D01*
X35165193Y43414164D01*
X35144920Y43620000D01*
X35165193Y43825836D01*
X35225233Y44023762D01*
X35225233Y44023763D01*
X35322733Y44206172D01*
X35453946Y44366054D01*
X35613828Y44497267D01*
X35796237Y44594767D01*
X35862213Y44614780D01*
X35994164Y44654807D01*
X36071293Y44662403D01*
X36148420Y44670000D01*
X36251580Y44670000D01*
X36328707Y44662403D01*
X36328707Y44662403D01*
G37*
G36*
X33622651Y44670000D02*
X33705836Y44661807D01*
X33837787Y44621780D01*
X33903763Y44601767D01*
X34086172Y44504267D01*
X34246054Y44373054D01*
X34377267Y44213172D01*
X34474767Y44030763D01*
X34494780Y43964787D01*
X34534807Y43832836D01*
X34555080Y43627000D01*
X34534807Y43421164D01*
X34496957Y43296388D01*
X34474767Y43223237D01*
X34377267Y43040828D01*
X34246054Y42880946D01*
X34086172Y42749733D01*
X33903763Y42652233D01*
X33837787Y42632220D01*
X33705836Y42592193D01*
X33634763Y42585193D01*
X33551580Y42577000D01*
X33448420Y42577000D01*
X33365237Y42585193D01*
X33294164Y42592193D01*
X33162213Y42632220D01*
X33096237Y42652233D01*
X32913828Y42749733D01*
X32753946Y42880946D01*
X32622733Y43040828D01*
X32525233Y43223237D01*
X32503043Y43296388D01*
X32465193Y43421164D01*
X32444920Y43627000D01*
X32465193Y43832836D01*
X32505220Y43964787D01*
X32525233Y44030763D01*
X32622733Y44213172D01*
X32753946Y44373054D01*
X32913828Y44504267D01*
X33096237Y44601767D01*
X33162213Y44621780D01*
X33294164Y44661807D01*
X33377349Y44670000D01*
X33448420Y44677000D01*
X33551580Y44677000D01*
X33622651Y44670000D01*
X33622651Y44670000D01*
G37*
G36*
X23779300Y43447100D02*
X22079300Y43447100D01*
X22079300Y45310700D01*
X23779300Y45310700D01*
X23779300Y43447100D01*
X23779300Y43447100D01*
G37*
G36*
X36328707Y47202403D02*
X36405836Y47194807D01*
X36537787Y47154780D01*
X36603763Y47134767D01*
X36786172Y47037267D01*
X36946054Y46906054D01*
X37077267Y46746172D01*
X37174767Y46563763D01*
X37174767Y46563762D01*
X37234807Y46365836D01*
X37255080Y46160000D01*
X37234807Y45954164D01*
X37194780Y45822213D01*
X37174767Y45756237D01*
X37077267Y45573828D01*
X36946054Y45413946D01*
X36786172Y45282733D01*
X36603763Y45185233D01*
X36537787Y45165220D01*
X36405836Y45125193D01*
X36328707Y45117596D01*
X36251580Y45110000D01*
X36148420Y45110000D01*
X36071293Y45117596D01*
X35994164Y45125193D01*
X35862213Y45165220D01*
X35796237Y45185233D01*
X35613828Y45282733D01*
X35453946Y45413946D01*
X35322733Y45573828D01*
X35225233Y45756237D01*
X35205220Y45822213D01*
X35165193Y45954164D01*
X35144920Y46160000D01*
X35165193Y46365836D01*
X35225233Y46563762D01*
X35225233Y46563763D01*
X35322733Y46746172D01*
X35453946Y46906054D01*
X35613828Y47037267D01*
X35796237Y47134767D01*
X35862213Y47154780D01*
X35994164Y47194807D01*
X36071293Y47202403D01*
X36148420Y47210000D01*
X36251580Y47210000D01*
X36328707Y47202403D01*
X36328707Y47202403D01*
G37*
G36*
X4446707Y47202403D02*
X4523836Y47194807D01*
X4655787Y47154780D01*
X4721763Y47134767D01*
X4904172Y47037267D01*
X5064054Y46906054D01*
X5195267Y46746172D01*
X5292767Y46563763D01*
X5292767Y46563762D01*
X5352807Y46365836D01*
X5373080Y46160000D01*
X5352807Y45954164D01*
X5312780Y45822213D01*
X5292767Y45756237D01*
X5195267Y45573828D01*
X5064054Y45413946D01*
X4904172Y45282733D01*
X4721763Y45185233D01*
X4655787Y45165220D01*
X4523836Y45125193D01*
X4446707Y45117596D01*
X4369580Y45110000D01*
X4266420Y45110000D01*
X4189293Y45117596D01*
X4112164Y45125193D01*
X3980213Y45165220D01*
X3914237Y45185233D01*
X3731828Y45282733D01*
X3571946Y45413946D01*
X3440733Y45573828D01*
X3343233Y45756237D01*
X3323220Y45822213D01*
X3283193Y45954164D01*
X3262920Y46160000D01*
X3283193Y46365836D01*
X3343233Y46563762D01*
X3343233Y46563763D01*
X3440733Y46746172D01*
X3571946Y46906054D01*
X3731828Y47037267D01*
X3914237Y47134767D01*
X3980213Y47154780D01*
X4112164Y47194807D01*
X4189293Y47202403D01*
X4266420Y47210000D01*
X4369580Y47210000D01*
X4446707Y47202403D01*
X4446707Y47202403D01*
G37*
G36*
X1906707Y47202403D02*
X1983836Y47194807D01*
X2115787Y47154780D01*
X2181763Y47134767D01*
X2364172Y47037267D01*
X2524054Y46906054D01*
X2655267Y46746172D01*
X2752767Y46563763D01*
X2752767Y46563762D01*
X2812807Y46365836D01*
X2833080Y46160000D01*
X2812807Y45954164D01*
X2772780Y45822213D01*
X2752767Y45756237D01*
X2655267Y45573828D01*
X2524054Y45413946D01*
X2364172Y45282733D01*
X2181763Y45185233D01*
X2115787Y45165220D01*
X1983836Y45125193D01*
X1906707Y45117596D01*
X1829580Y45110000D01*
X1726420Y45110000D01*
X1649293Y45117596D01*
X1572164Y45125193D01*
X1440213Y45165220D01*
X1374237Y45185233D01*
X1191828Y45282733D01*
X1031946Y45413946D01*
X900733Y45573828D01*
X803233Y45756237D01*
X783220Y45822213D01*
X743193Y45954164D01*
X722920Y46160000D01*
X743193Y46365836D01*
X803233Y46563762D01*
X803233Y46563763D01*
X900733Y46746172D01*
X1031946Y46906054D01*
X1191828Y47037267D01*
X1374237Y47134767D01*
X1440213Y47154780D01*
X1572164Y47194807D01*
X1649293Y47202403D01*
X1726420Y47210000D01*
X1829580Y47210000D01*
X1906707Y47202403D01*
X1906707Y47202403D01*
G37*
G36*
X33622651Y47210000D02*
X33705836Y47201807D01*
X33837787Y47161780D01*
X33903763Y47141767D01*
X34086172Y47044267D01*
X34246054Y46913054D01*
X34377267Y46753172D01*
X34474767Y46570763D01*
X34486222Y46533000D01*
X34534807Y46372836D01*
X34555080Y46167000D01*
X34534807Y45961164D01*
X34494780Y45829213D01*
X34474767Y45763237D01*
X34377267Y45580828D01*
X34246054Y45420946D01*
X34086172Y45289733D01*
X33903763Y45192233D01*
X33837787Y45172220D01*
X33705836Y45132193D01*
X33634763Y45125193D01*
X33551580Y45117000D01*
X33448420Y45117000D01*
X33365237Y45125193D01*
X33294164Y45132193D01*
X33162213Y45172220D01*
X33096237Y45192233D01*
X32913828Y45289733D01*
X32753946Y45420946D01*
X32622733Y45580828D01*
X32525233Y45763237D01*
X32505220Y45829213D01*
X32465193Y45961164D01*
X32444920Y46167000D01*
X32465193Y46372836D01*
X32513778Y46533000D01*
X32525233Y46570763D01*
X32622733Y46753172D01*
X32753946Y46913054D01*
X32913828Y47044267D01*
X33096237Y47141767D01*
X33162213Y47161780D01*
X33294164Y47201807D01*
X33377349Y47210000D01*
X33448420Y47217000D01*
X33551580Y47217000D01*
X33622651Y47210000D01*
X33622651Y47210000D01*
G37*
G36*
X14650000Y47350000D02*
X12550000Y47350000D01*
X12550000Y48250000D01*
X14650000Y48250000D01*
X14650000Y47350000D01*
X14650000Y47350000D01*
G37*
G36*
X2828000Y47650000D02*
X728000Y47650000D01*
X728000Y49750000D01*
X2828000Y49750000D01*
X2828000Y47650000D01*
X2828000Y47650000D01*
G37*
G36*
X37250000Y47650000D02*
X35150000Y47650000D01*
X35150000Y49750000D01*
X37250000Y49750000D01*
X37250000Y47650000D01*
X37250000Y47650000D01*
G37*
G36*
X5368000Y47650000D02*
X3268000Y47650000D01*
X3268000Y49750000D01*
X5368000Y49750000D01*
X5368000Y47650000D01*
X5368000Y47650000D01*
G37*
G36*
X34550000Y47657000D02*
X32450000Y47657000D01*
X32450000Y49757000D01*
X34550000Y49757000D01*
X34550000Y47657000D01*
X34550000Y47657000D01*
G37*
G36*
X21050000Y49450000D02*
X20150000Y49450000D01*
X20150000Y51550000D01*
X21050000Y51550000D01*
X21050000Y49450000D01*
X21050000Y49450000D01*
G37*
G36*
X15645000Y49932900D02*
X13690900Y49932900D01*
X13690900Y52032900D01*
X15645000Y52032900D01*
X15645000Y49932900D01*
X15645000Y49932900D01*
G37*
G36*
X25075000Y50700000D02*
X24025000Y50700000D01*
X24025000Y51500000D01*
X25075000Y51500000D01*
X25075000Y50700000D01*
X25075000Y50700000D01*
G37*
G36*
X23175000Y50700000D02*
X22125000Y50700000D01*
X22125000Y52800000D01*
X23175000Y52800000D01*
X23175000Y50700000D01*
X23175000Y50700000D01*
G37*
G36*
X25075000Y52000000D02*
X24025000Y52000000D01*
X24025000Y52800000D01*
X25075000Y52800000D01*
X25075000Y52000000D01*
X25075000Y52000000D01*
G37*
G36*
X36050000Y52300000D02*
X33950000Y52300000D01*
X33950000Y54200000D01*
X36050000Y54200000D01*
X36050000Y52300000D01*
X36050000Y52300000D01*
G37*
G36*
X4050000Y52300000D02*
X1950000Y52300000D01*
X1950000Y54200000D01*
X4050000Y54200000D01*
X4050000Y52300000D01*
X4050000Y52300000D01*
G37*
G36*
X19050000Y52450000D02*
X17250000Y52450000D01*
X17250000Y54550000D01*
X19050000Y54550000D01*
X19050000Y52450000D01*
X19050000Y52450000D01*
G37*
G36*
X20750000Y53150000D02*
X19600000Y53150000D01*
X19600000Y54350000D01*
X20750000Y54350000D01*
X20750000Y53150000D01*
X20750000Y53150000D01*
G37*
G36*
X15375000Y53225000D02*
X14225000Y53225000D01*
X14225000Y54425000D01*
X15375000Y54425000D01*
X15375000Y53225000D01*
X15375000Y53225000D01*
G37*
G36*
X20750000Y54650000D02*
X19600000Y54650000D01*
X19600000Y55850000D01*
X20750000Y55850000D01*
X20750000Y54650000D01*
X20750000Y54650000D01*
G37*
G36*
X15375000Y54725000D02*
X14225000Y54725000D01*
X14225000Y55925000D01*
X15375000Y55925000D01*
X15375000Y54725000D01*
X15375000Y54725000D01*
G37*
G36*
X10950000Y56800000D02*
X7750000Y56800000D01*
X7750000Y60000000D01*
X10950000Y60000000D01*
X10950000Y56800000D01*
X10950000Y56800000D01*
G37*
G36*
X18650000Y59975000D02*
X17450000Y59975000D01*
X17450000Y65025000D01*
X18650000Y65025000D01*
X18650000Y59975000D01*
X18650000Y59975000D01*
G37*
G36*
X20150000Y59975000D02*
X18950000Y59975000D01*
X18950000Y65025000D01*
X20150000Y65025000D01*
X20150000Y59975000D01*
X20150000Y59975000D01*
G37*
G36*
X26800000Y60700000D02*
X23600000Y60700000D01*
X23600000Y63900000D01*
X26800000Y63900000D01*
X26800000Y60700000D01*
X26800000Y60700000D01*
G37*
G36*
X6000000Y60700000D02*
X2800000Y60700000D01*
X2800000Y63900000D01*
X6000000Y63900000D01*
X6000000Y60700000D01*
X6000000Y60700000D01*
G37*
G36*
X29525888Y64645530D02*
X29706274Y64609650D01*
X29897362Y64530498D01*
X30069336Y64415589D01*
X30215589Y64269336D01*
X30330498Y64097362D01*
X30409650Y63906274D01*
X30450000Y63703416D01*
X30450000Y63496584D01*
X30409650Y63293726D01*
X30330498Y63102638D01*
X30215589Y62930664D01*
X30069336Y62784411D01*
X29897362Y62669502D01*
X29706274Y62590350D01*
X29525888Y62554470D01*
X29503417Y62550000D01*
X29296583Y62550000D01*
X29274112Y62554470D01*
X29093726Y62590350D01*
X28902638Y62669502D01*
X28730664Y62784411D01*
X28584411Y62930664D01*
X28469502Y63102638D01*
X28390350Y63293726D01*
X28350000Y63496584D01*
X28350000Y63703416D01*
X28390350Y63906274D01*
X28469502Y64097362D01*
X28584411Y64269336D01*
X28730664Y64415589D01*
X28902638Y64530498D01*
X29093726Y64609650D01*
X29274112Y64645530D01*
X29296583Y64650000D01*
X29503417Y64650000D01*
X29525888Y64645530D01*
X29525888Y64645530D01*
G37*
G36*
X8725888Y64645530D02*
X8906274Y64609650D01*
X9097362Y64530498D01*
X9269336Y64415589D01*
X9415589Y64269336D01*
X9530498Y64097362D01*
X9609650Y63906274D01*
X9650000Y63703416D01*
X9650000Y63496584D01*
X9609650Y63293726D01*
X9530498Y63102638D01*
X9415589Y62930664D01*
X9269336Y62784411D01*
X9097362Y62669502D01*
X8906274Y62590350D01*
X8725888Y62554470D01*
X8703417Y62550000D01*
X8496583Y62550000D01*
X8474112Y62554470D01*
X8293726Y62590350D01*
X8102638Y62669502D01*
X7930664Y62784411D01*
X7784411Y62930664D01*
X7669502Y63102638D01*
X7590350Y63293726D01*
X7550000Y63496584D01*
X7550000Y63703416D01*
X7590350Y63906274D01*
X7669502Y64097362D01*
X7784411Y64269336D01*
X7930664Y64415589D01*
X8102638Y64530498D01*
X8293726Y64609650D01*
X8474112Y64645530D01*
X8496583Y64650000D01*
X8703417Y64650000D01*
X8725888Y64645530D01*
X8725888Y64645530D01*
G37*
G36*
X35200000Y68400000D02*
X32000000Y68400000D01*
X32000000Y71000000D01*
X35200000Y71000000D01*
X35200000Y68400000D01*
X35200000Y68400000D01*
G37*
G36*
X14400000Y68400000D02*
X11200000Y68400000D01*
X11200000Y71000000D01*
X14400000Y71000000D01*
X14400000Y68400000D01*
X14400000Y68400000D01*
G37*
G36*
X29525888Y71645530D02*
X29706274Y71609650D01*
X29897362Y71530498D01*
X30069336Y71415589D01*
X30215589Y71269336D01*
X30330498Y71097362D01*
X30409650Y70906274D01*
X30450000Y70703416D01*
X30450000Y70496584D01*
X30409650Y70293726D01*
X30330498Y70102638D01*
X30215589Y69930664D01*
X30069336Y69784411D01*
X29897362Y69669502D01*
X29706274Y69590350D01*
X29525888Y69554470D01*
X29503417Y69550000D01*
X29296583Y69550000D01*
X29274112Y69554470D01*
X29093726Y69590350D01*
X28902638Y69669502D01*
X28730664Y69784411D01*
X28584411Y69930664D01*
X28469502Y70102638D01*
X28390350Y70293726D01*
X28350000Y70496584D01*
X28350000Y70703416D01*
X28390350Y70906274D01*
X28469502Y71097362D01*
X28584411Y71269336D01*
X28730664Y71415589D01*
X28902638Y71530498D01*
X29093726Y71609650D01*
X29274112Y71645530D01*
X29296583Y71650000D01*
X29503417Y71650000D01*
X29525888Y71645530D01*
X29525888Y71645530D01*
G37*
G36*
X8725888Y71645530D02*
X8906274Y71609650D01*
X9097362Y71530498D01*
X9269336Y71415589D01*
X9415589Y71269336D01*
X9530498Y71097362D01*
X9609650Y70906274D01*
X9650000Y70703416D01*
X9650000Y70496584D01*
X9609650Y70293726D01*
X9530498Y70102638D01*
X9415589Y69930664D01*
X9269336Y69784411D01*
X9097362Y69669502D01*
X8906274Y69590350D01*
X8725888Y69554470D01*
X8703417Y69550000D01*
X8496583Y69550000D01*
X8474112Y69554470D01*
X8293726Y69590350D01*
X8102638Y69669502D01*
X7930664Y69784411D01*
X7784411Y69930664D01*
X7669502Y70102638D01*
X7590350Y70293726D01*
X7550000Y70496584D01*
X7550000Y70703416D01*
X7590350Y70906274D01*
X7669502Y71097362D01*
X7784411Y71269336D01*
X7930664Y71415589D01*
X8102638Y71530498D01*
X8293726Y71609650D01*
X8474112Y71645530D01*
X8496583Y71650000D01*
X8703417Y71650000D01*
X8725888Y71645530D01*
X8725888Y71645530D01*
G37*
G36*
X26800000Y70400000D02*
X23600000Y70400000D01*
X23600000Y73000000D01*
X26800000Y73000000D01*
X26800000Y70400000D01*
X26800000Y70400000D01*
G37*
G36*
X6000000Y70400000D02*
X2800000Y70400000D01*
X2800000Y73000000D01*
X6000000Y73000000D01*
X6000000Y70400000D01*
X6000000Y70400000D01*
G37*
M02*
